<?xml version="1.0" encoding="utf-8"?>
<!-- Generator: Adobe Illustrator 22.1.0, SVG Export Plug-In . SVG Version: 6.00 Build 0)  -->
<svg version="1.1" id="Layer_1" xmlns="http://www.w3.org/2000/svg" xmlns:xlink="http://www.w3.org/1999/xlink" x="0px" y="0px"
	 viewBox="0 0 154 154" style="enable-background:new 0 0 154 154;" xml:space="preserve">
<style type="text/css">
	.st0{fill:#9FBEAF;}
	.st1{clip-path:url(#SVGID_2_);}
	.st2{fill:#F5E0CD;}
	.st3{fill:#4C5258;}
	.st4{fill:#005E88;}
	.st5{fill:#F1F1F2;}
	.st6{opacity:0.55;fill:#BBBDBF;enable-background:new    ;}
	.st7{fill:#58595B;}
	.st8{fill:#EBC19C;}
	.st9{fill:#5A4A42;}
	.st10{fill:#F0D0B3;}
	.st11{fill:#606161;}
	.st12{fill:url(#SVGID_3_);}
	.st13{fill:#C3996B;}
	.st14{fill:#E6E7E8;}
	.st15{opacity:0.25;}
	.st16{fill:#757E84;}
	.st17{fill:#A87C4F;}
	.st18{fill:#FFD7BE;}
</style>
<title>ic_middle_female</title>
<circle class="st0" cx="77" cy="77" r="77"/>
<g>
	<defs>
		<circle id="SVGID_1_" cx="77" cy="77" r="77"/>
	</defs>
	<clipPath id="SVGID_2_">
		<use xlink:href="#SVGID_1_"  style="overflow:visible;"/>
	</clipPath>
	<g class="st1">
		<path class="st2" d="M69.7,332.8c0,2.5-1.4,4.6-3.2,4.6h-0.8c-1.7,0-3.3-2-3.4-4.5l-7.5-145.7c-0.1-2.5,1.2-4.6,2.9-4.6l9.5-0.2
			c1.7,0,3.2,2,3.1,4.5L69.7,332.8z"/>
		<path class="st2" d="M97.2,332.9c-0.1,2.5-1.6,4.5-3.3,4.5h-0.8c-1.7,0-3.2-2.1-3.3-4.6L86.4,187c-0.1-2.5,1.3-4.5,3-4.5h9.5
			c1.7,0,3.1,2.1,3,4.6L97.2,332.9z"/>
		<path class="st3" d="M78.5,200.2c-5.9,0.5-23,7.9-28.7,6.1l3.9,64.1c0,0,22.1,12.5,50.8,0c0.7-5.7,4-64.8,4-64.8
			C103.2,207.4,84.6,200.7,78.5,200.2z"/>
		<path class="st4" d="M106.8,207.2l-9.9-36.5l5.1-24.2c0.2-1,0.2-2-0.1-3l-6-23.9c-6.4-1.3-13-1.8-19.6-1.4
			c-16.7-0.1-18.4,1.4-18.4,1.4l-5.8,23c-0.4,1.5-0.4,3.1-0.1,4.7l5,23.3l-9.9,36.5l0.5,0.7c4.5,1.4,16.5,5.5,24.1,6.7l3.9-11.5
			l3.2,11.8c7.6-0.8,22.9-6.2,27.5-7.7L106.8,207.2z"/>
		<polygon class="st3" points="33.4,347.8 29.6,349.7 29.6,357.3 51.3,357.3 65.3,350.1 65.3,357.3 71.9,357.3 71.9,341.2 
			53.7,347.8 		"/>
		<polygon class="st2" points="69.1,320.2 66.2,320.2 58.9,334.6 33.4,347.8 53.7,347.8 71.9,341.2 71.9,334.6 		"/>
		<polygon class="st3" points="61,347.8 57.2,349.7 57.2,357.3 78.9,357.3 92.9,350.1 92.9,357.3 99.6,357.3 99.6,341.2 81.3,347.8 
					"/>
		<polygon class="st2" points="96.7,320.2 93.8,320.2 86.6,334.6 61,347.8 81.3,347.8 99.6,341.2 99.6,334.6 		"/>
		<polygon class="st5" points="63.2,121.8 79,166.6 93.6,121.8 		"/>
		<path class="st6" d="M77.9,117.8c-2.3-1.4-9.6-4.8-15.5,4.5c-0.2,0.2-0.2,0.5-0.2,0.8l3,16.4c0,0.5,0.5,0.9,1,0.8
			c0.3,0,0.6-0.2,0.7-0.5c1.8-3.2,5.6-8.7,11.2-10.1c0.1,0,0.3,0,0.5,0c5.6,1.4,9.4,7,11.2,10.1c0.2,0.4,0.8,0.6,1.2,0.4
			c0.3-0.1,0.4-0.4,0.5-0.7l3-16.4c0.1-0.3,0-0.6-0.2-0.8c-5.9-9.3-13.2-5.9-15.5-4.5C78.5,117.9,78.2,117.9,77.9,117.8z"/>
		<path class="st5" d="M78,116.7c-2.2-1.4-9-4.5-14.6,4.2c-0.1,0.2-0.2,0.5-0.2,0.8l2.9,15.5c0,0.5,0.4,0.8,0.9,0.8
			c0.3,0,0.5-0.2,0.7-0.4c1.7-3,5.3-8.2,10.5-9.6c0.1,0,0.3,0,0.4,0c5.2,1.4,8.8,6.6,10.5,9.6c0.2,0.4,0.7,0.6,1.1,0.4
			c0.3-0.1,0.4-0.4,0.5-0.7l2.9-15.5c0.1-0.3,0-0.6-0.1-0.8c-5.6-8.8-12.4-5.6-14.7-4.2C78.5,116.9,78.2,116.9,78,116.7z"/>
		<circle class="st7" cx="78.4" cy="137.1" r="2"/>
		<circle class="st7" cx="78.4" cy="144.5" r="2"/>
		<path class="st2" d="M78.9,74.9L78.9,74.9c4.8,0,8.7,3.9,8.7,8.7v33.6c0,4.8-3.9,8.7-8.7,8.7l0,0c-4.8,0-8.7-3.9-8.7-8.7V83.6
			C70.2,78.8,74.1,74.9,78.9,74.9z"/>
		<path class="st8" d="M87.6,112v-1.4H70.1v1.6C73.2,113.9,79,115.7,87.6,112z"/>
		<path class="st9" d="M121,51.1c2.6-1.9,3.1-5.6,1.2-8.2c-0.5-0.7-1.1-1.2-1.9-1.6c0.7-0.8,1.1-1.8,1.3-2.8
			c0.6-2.9-1.2-5.8-4.1-6.5c0.2-0.5,0.3-1,0.4-1.5c0.6-2.9-1.2-5.8-4.1-6.5c-0.6-0.1-1.3-0.1-2,0c0.5-2.9-1.3-5.7-4.1-6.4
			c-1.1-0.2-2.2,0-3.1,0.4c-0.2-2.4-1.9-4.3-4.2-4.8c-1.8-0.4-3.7,0.3-4.9,1.8c-3.7-1.1-7.4-1.7-11.2-1.8l-6.2-1.4
			c-0.4-2-1.9-3.7-3.9-4.2c-2.3-0.5-4.6,0.6-5.7,2.7c-0.7-0.8-1.6-1.4-2.7-1.7c-2.9-0.6-5.6,1.3-6.2,4.1c-0.5-0.4-1.1-0.7-1.8-0.8
			c-2.9-0.6-5.7,1.3-6.3,4.2l0,0c-0.1,0.5-0.2,1.1-0.2,1.6C48.4,17.1,45.6,19,45,22l0,0c-0.2,1-0.2,2.1,0.1,3.1
			c-2.5,0.2-4.5,2-5,4.4c-0.3,1.5-0.1,3,0.7,4.3c-2.1,0.5-3.8,2.2-4.2,4.3v0.1c-0.5,2.1,0.2,4.4,1.9,5.7c-1.3,0.8-2.1,2.1-2.5,3.6
			c-0.6,2.4,0.4,4.9,2.6,6.2c-0.7,0.8-1.2,1.7-1.5,2.7c-0.8,2.9,0.9,5.8,3.8,6.6c-0.3,0.5-0.4,1-0.6,1.5c-0.8,2.9,0.9,5.8,3.8,6.6
			c0.6,0.1,1.3,0.1,2,0c-0.7,2.8,1,5.7,3.8,6.5c1.1,0.2,2.2,0.1,3.1-0.3c0,2.4,1.6,4.4,3.9,5c2.1,0.5,4.2-0.4,5.4-2.1l3,0.7l0.2,0.3
			l7.2,1.4l7.1,1.7l0.3-0.2l3,0.6c0.4,2.1,2,3.8,4.1,4.2c2.3,0.4,4.6-0.8,5.5-3c0.7,0.8,1.7,1.4,2.8,1.6c2.9,0.4,5.5-1.5,6-4.4l0,0
			c0.5,0.4,1.2,0.6,1.8,0.8c2.9,0.4,5.6-1.6,6-4.4v-0.1c0.1-0.5,0.1-1.1,0.1-1.6c2.9,0.4,5.6-1.5,6-4.4v-0.1c0.2-1,0.1-2.1-0.3-3.1
			c2.5-0.3,4.4-2.1,4.8-4.6c0.3-1.5,0-3-0.9-4.3c2.1-0.6,3.7-2.3,4-4.5v-0.1C123.6,54.6,122.8,52.4,121,51.1z M62.9,19l-0.5-0.1
			l0.5-0.1V19z"/>
		<path class="st2" d="M107.8,69.2c-1.1,1.9-2,4-2.4,6.1c-0.2,1.4-0.2,3.6,0.5,4c0.3,0.2,0.8-0.1,1.1-0.3c1.7-1.3,2.7-3.3,2.6-5.4
			C109.7,72,109.1,70.4,107.8,69.2z"/>
		<path class="st2" d="M112,62.6c-2.5-0.5-6.4,2.6-6.4,2.6c-4.5,3.8-1.9,21.2,2,20.5s3.5-6.2,3.5-6.2c1.9-1.2,3.6-6.3,3.6-6.3
			C118,63.8,112,62.6,112,62.6z M113.9,68.6c-0.2,0.7-0.4,1.4-0.7,2l-1.2-0.5c0.3-0.5,0.5-1.1,0.6-1.7c0.1-0.5,0.1-1-0.1-1.5
			c-0.2-0.4-0.5-0.7-0.9-0.8c-0.3,0-0.6,0-0.9,0.2c-0.8,0.5-1.5,1.1-2,1.9c1.6,1.4,2.5,3.5,2.4,5.6c0.1,2.6-1.1,5.1-3.2,6.6
			c-0.5,0.3-1,0.5-1.6,0.5c-0.4,0-0.7-0.1-1-0.3c-1.6-1.1-1.2-4.7-1.1-5.4c0.5-3.3,3.4-9.2,6-10.2c0.5-0.2,1.1-0.3,1.7-0.2
			c0.9,0.2,1.6,0.8,2,1.6C114,67.1,114,67.9,113.9,68.6L113.9,68.6z"/>
		<path class="st10" d="M111.8,64.7c-0.6-0.1-1.1,0-1.7,0.2c-2.7,1-5.5,6.9-6,10.2c-0.1,0.7-0.5,4.3,1.1,5.4c0.3,0.2,0.6,0.3,1,0.3
			c0.6,0,1.1-0.2,1.6-0.5c2.1-1.5,3.3-4,3.2-6.6c0.2-2.2-0.7-4.2-2.4-5.6c0.5-0.8,1.2-1.5,2-1.9c0.3-0.1,0.6-0.2,0.9-0.2
			c0.4,0.1,0.8,0.4,0.9,0.8c0.2,0.5,0.2,1,0.1,1.5c-0.1,0.6-0.3,1.2-0.6,1.7l1.2,0.5c0.3-0.6,0.5-1.3,0.7-2c0.2-0.8,0.1-1.6-0.2-2.3
			C113.4,65.4,112.7,64.8,111.8,64.7z M109.6,73.7c0.1,2.1-0.9,4.2-2.6,5.4c-0.3,0.2-0.8,0.5-1.1,0.3c-0.6-0.4-0.7-2.6-0.5-4
			c0.5-2.2,1.3-4.2,2.4-6.1C109.1,70.4,109.7,72,109.6,73.7L109.6,73.7z"/>
		<path class="st2" d="M49.4,69.2c1.1,1.9,2,4,2.4,6.1c0.2,1.4,0.2,3.6-0.5,4c-0.3,0.2-0.8-0.1-1.1-0.3c-1.7-1.3-2.7-3.3-2.6-5.4
			C47.5,72,48.1,70.4,49.4,69.2z"/>
		<path class="st2" d="M42.5,73.3c0,0,1.7,5.1,3.6,6.3c0,0-0.4,5.6,3.5,6.2s6.5-16.7,2-20.5c0,0-3.9-3.1-6.4-2.6
			C45.2,62.6,39.2,63.8,42.5,73.3z M43.5,66.3c0.3-0.8,1.1-1.5,2-1.6c0.6-0.1,1.1,0,1.6,0.2c2.7,1,5.5,6.9,6,10.2
			c0.1,0.7,0.5,4.3-1,5.4c-0.3,0.2-0.6,0.3-1,0.3c-0.6,0-1.1-0.2-1.6-0.5c-2.1-1.5-3.3-4-3.2-6.6c-0.2-2.2,0.7-4.3,2.4-5.6
			c-0.5-0.8-1.2-1.5-2-1.9C46.3,66.1,46,66,45.6,66c-0.4,0.1-0.8,0.4-0.9,0.8c-0.2,0.5-0.2,1-0.1,1.5c0.1,0.6,0.3,1.2,0.6,1.7
			L44,70.6c-0.3-0.6-0.5-1.3-0.7-2C43.1,67.8,43.2,67,43.5,66.3L43.5,66.3z"/>
		<path class="st10" d="M43.5,66.3c-0.3,0.7-0.4,1.6-0.2,2.3c0.2,0.7,0.4,1.4,0.7,2l1.2-0.5c-0.3-0.5-0.5-1.1-0.6-1.7
			c-0.1-0.5-0.1-1,0.1-1.5c0.2-0.4,0.5-0.7,0.9-0.8c0.3,0,0.6,0,0.9,0.2c0.8,0.5,1.5,1.1,2,1.9c-1.7,1.4-2.5,3.5-2.4,5.6
			c-0.1,2.6,1.1,5.1,3.2,6.6c0.5,0.3,1,0.5,1.6,0.5c0.4,0,0.7-0.1,1-0.3c1.6-1.1,1.2-4.7,1-5.4c-0.5-3.3-3.4-9.2-6-10.2
			c-0.5-0.2-1.1-0.3-1.6-0.2C44.6,64.9,43.8,65.5,43.5,66.3z M49.4,69.2c1.1,1.9,2,4,2.4,6.1c0.2,1.4,0.2,3.6-0.5,4
			c-0.3,0.2-0.8-0.1-1.1-0.3c-1.7-1.3-2.7-3.3-2.6-5.4C47.5,72,48.1,70.4,49.4,69.2z"/>
		<path class="st2" d="M78.6,112.6L78.6,112.6c-13.4,0-28.6-12.1-28.6-25.5V42.6c0-13.4,10.9-24.3,24.3-24.3H83
			c13.4,0,24.3,10.9,24.3,24.3v44.5C107.2,100.5,92,112.6,78.6,112.6z"/>
		<path class="st8" d="M73.8,104.2c2.3,2.6,6.2,3,8.9,0.7c0.3-0.2,0.5-0.5,0.7-0.7C80.3,105.5,76.9,105.5,73.8,104.2z"/>
		<path class="st11" d="M58,59.1c-0.2,0.1-0.5,0-0.6-0.2s0-0.4,0.1-0.5c3.1-3,7.8-3.6,11.6-1.5c0.2,0.1,0.3,0.4,0.2,0.6
			c-0.1,0.2-0.3,0.2-0.4,0.2c-1.8-0.3-3.7-0.3-5.5-0.1C61.5,57.9,59.7,58.4,58,59.1z"/>
		<path class="st11" d="M99.7,59.1c0.2,0.1,0.5,0,0.6-0.2s0.1-0.4-0.1-0.5c-3.1-3-7.9-3.6-11.6-1.5c-0.2,0.1-0.3,0.4-0.2,0.6
			c0.1,0.2,0.3,0.3,0.5,0.2c1.8-0.3,3.7-0.3,5.5-0.1C96.2,57.9,98,58.4,99.7,59.1z"/>
		
			<radialGradient id="SVGID_3_" cx="701.585" cy="400.725" r="14.03" gradientTransform="matrix(1 0 0 1 0 59.99)" gradientUnits="userSpaceOnUse">
			<stop  offset="0" style="stop-color:#F0BFD9;stop-opacity:0.95"/>
			<stop  offset="4.000000e-02" style="stop-color:#EEBCD3;stop-opacity:0.88"/>
			<stop  offset="0.15" style="stop-color:#E9B3C2;stop-opacity:0.65"/>
			<stop  offset="0.27" style="stop-color:#E4ABB2;stop-opacity:0.45"/>
			<stop  offset="0.39" style="stop-color:#E1A4A6;stop-opacity:0.29"/>
			<stop  offset="0.51" style="stop-color:#DE9F9C;stop-opacity:0.16"/>
			<stop  offset="0.62" style="stop-color:#DC9C96;stop-opacity:7.000000e-02"/>
			<stop  offset="0.73" style="stop-color:#DA9A91;stop-opacity:2.000000e-02"/>
			<stop  offset="0.83" style="stop-color:#DA9990;stop-opacity:0"/>
			<stop  offset="1" style="stop-color:#DA9990;stop-opacity:0"/>
		</radialGradient>
		<ellipse class="st12" cx="95.6" cy="80.1" rx="14" ry="7"/>
		<path class="st8" d="M78.6,83.5l3-0.5c0.4,0,0.6-0.3,0.6-0.7c0-0.2-0.1-0.3-0.2-0.4l-3-3c-0.3-0.2-0.7-0.2-0.9,0l-2.9,3
			c-0.3,0.2-0.3,0.7,0,0.9c0.1,0.1,0.3,0.2,0.5,0.2L78.6,83.5z"/>
		<circle class="st7" cx="65.8" cy="66.8" r="3.4"/>
		<circle class="st7" cx="90.5" cy="66.8" r="3.4"/>
		<path class="st9" d="M119.3,45.9c-1.2,0-2.5-0.2-3.7-0.5c0-8.6-2.2-23.1-15.8-30c-4.4-2.2-21.2-7.1-32,0.6c0,0-0.5-3,0.6-3.8
			c-3,0.4-5.4,2.5-6.3,5.4c0,0-9.8-2.2-12.2,2.4c0,0,2.7-0.3,4.2,0.7C38,28.2,43.4,51.9,43.4,51.9C44.2,55,45,63.6,50,68.1l0.2-15.8
			c0,0,3.8-15.4,7.9-16c0.5,1.6,1.4,3.1,2.5,4.4c2.8,5.9,9,13.5,21.6,12.2c0,0-7-1-10.3-4.7c6.8,2.4,16.8,3.5,31.5,1.2
			c0,0,1.4-0.1,3.5-0.3c0.3,0.7,0.4,1.5,0.4,2.3c0,7.5-0.3,0.3,0,17.5c0,0,6.8-8.1,7.9-16.7c0,0,0.2-0.1,0.3-2.8
			c1.5-0.5,2.9-1.3,4.2-2.4c0.3-0.2,0.3-0.6,0.1-0.8S119.4,45.9,119.3,45.9z"/>
		<path class="st13" d="M78.2,97.5c-5.5,0-8.2-2.4-8.4-2.6l0.9-1l-0.5,0.5l0.5-0.5c0.1,0,5.7,5,17.5-0.1l0.5,1.2
			C85.4,96.6,81.9,97.4,78.2,97.5z"/>
		<polygon class="st13" points="44.2,55.4 50,52.7 50,56.9 44.2,58.9 		"/>
		<polygon class="st14" points="44.2,60 50,57.3 50,60.4 44.2,62.4 		"/>
		<polygon class="st13" points="113.8,55.1 108,52.4 108,56.6 113.8,58.6 		"/>
		<polygon class="st14" points="113.8,59.7 108,57 108,60.1 113.8,62.1 		"/>
		<g class="st15">
			<path class="st16" d="M96.5,67.2c-0.4,0-0.8,0-1.2,0c-2.4-0.1-4.8,0.4-7,1.2c-1.6,0.5-3.4,1.6-5.6,1.3c-1.1-0.2-2.3-0.4-3.5-0.5
				c-1.1,0.1-2.3,0.2-3.4,0.5c-2.2,0.4-4-0.8-5.6-1.3c-2.2-0.9-4.6-1.3-7-1.2c-0.4,0-0.8,0-1.2,0c-1.6,0-6.6,0.4-16,3.8v2.4
				c0.8,0.4,1.3,1.1,1.3,2c0.6,6.8,1.6,8.9,2.4,10.4c0.2,0.4,0.4,0.8,0.7,1.2v-0.1c0.5,0.7,1,1.4,1.7,2c2.5,2.2,5.8,3.3,9.1,3.2h1
				c3.8-0.2,7.8-2.5,10.4-6c1.5-2,3.7-5.8,3.7-12.7c0,0,0.4-1.5,3-1.5s3,1.5,3,1.5c0,6.9,2.2,10.7,3.7,12.7c2.5,3.4,6.3,5.6,10.4,6
				h1c3.3,0.1,6.6-1,9.1-3.2c0.6-0.6,1.2-1.2,1.7-2V87c0.2-0.4,0.5-0.8,0.7-1.2c0.8-1.5,1.8-3.6,2.4-10.4c0-0.9,0.5-1.6,1.3-2V71
				C103,67.6,98.1,67.2,96.5,67.2z M62,90.7c-6.5,0.3-12.5-2.7-12.9-13c0,0,0-5.1,4.3-7.3c3.3-1.7,18.6-4.5,20.5,4.1
				S68.4,90.4,62,90.7z M96.5,90.7c-6.3-0.3-13.8-7.6-11.9-16.2s17.2-5.8,20.5-4.1c4.3,2.2,4.3,7.3,4.3,7.3C109,88,103,91,96.5,90.7
				z"/>
		</g>
		<path class="st17" d="M96.5,64.8c-0.4,0-0.8,0-1.2,0c-2.4-0.1-4.8,0.4-7,1.2c-1.6,0.5-3.4,1.6-5.6,1.3c-1.1-0.2-2.3-0.4-3.5-0.5
			c-1.1,0.1-2.3,0.2-3.4,0.5c-2.2,0.4-4-0.7-5.6-1.3c-2.2-0.9-4.6-1.3-7-1.2H62c-1.6,0-6.6,0.4-16,3.8V71c0.8,0.4,1.3,1.1,1.3,2
			c0.6,6.8,1.6,8.9,2.4,10.4c0.2,0.4,0.4,0.8,0.7,1.2v-0.1c0.5,0.7,1,1.4,1.7,2c2.5,2.2,5.8,3.3,9.1,3.2c0.3,0,0.7,0,1,0
			c3.8-0.2,7.8-2.5,10.4-6c1.5-2,3.7-5.8,3.7-12.7c0,0,0.4-1.5,3-1.5s3,1.5,3,1.5c0,6.9,2.2,10.8,3.7,12.7c2.5,3.4,6.3,5.6,10.4,6h1
			c3.3,0.1,6.6-1,9.1-3.2c0.6-0.6,1.2-1.3,1.7-2v0.1c0.2-0.4,0.5-0.8,0.7-1.2c0.8-1.5,1.8-3.6,2.4-10.4c0-0.9,0.5-1.6,1.3-2v-2.4
			C103,65.1,98.1,64.8,96.5,64.8z M62,88.2c-6.5,0.3-12.5-2.7-12.9-13c0,0,0-5.1,4.3-7.3c3.3-1.7,18.6-4.5,20.5,4.1
			S68.4,87.9,62,88.2z M96.5,88.2c-6.3-0.3-13.8-7.6-11.9-16.2s17.2-5.8,20.5-4.1c4.3,2.2,4.3,7.3,4.3,7.3
			C109,85.5,103,88.6,96.5,88.2z"/>
		<path class="st17" d="M110.5,47.6c-3.3,0.3-6.6,0.2-9.9-0.3c-3.3-0.4-6.5-1.2-9.7-2.3c-3.1-1.1-6.1-2.7-8.8-4.7
			c-2.7-2-5-4.4-6.9-7.1c0.6,0.6,1.1,1.2,1.7,1.8c0.3,0.3,0.5,0.6,0.8,0.9l0.9,0.8c0.6,0.5,1.2,1.1,1.8,1.6l2,1.4
			c2.7,1.8,5.6,3.3,8.7,4.4c3.1,1.1,6.2,1.9,9.4,2.5c1.6,0.3,3.2,0.5,4.9,0.7S108.8,47.5,110.5,47.6z"/>
		<path class="st17" d="M101,47.5c-3.3,0.3-6.6,0.2-9.9-0.2s-6.5-1.2-9.7-2.4c-3.1-1.1-6.1-2.7-8.8-4.7c-2.7-2-5-4.4-6.9-7.1
			c0.6,0.6,1.1,1.2,1.7,1.8c0.3,0.3,0.5,0.6,0.8,0.9l0.9,0.8c0.6,0.5,1.2,1.1,1.8,1.6l2,1.4c2.7,1.8,5.6,3.3,8.7,4.4
			c3.1,1.1,6.2,1.9,9.5,2.5c1.6,0.3,3.2,0.5,4.9,0.7S99.4,47.4,101,47.5z"/>
		<polygon class="st18" points="44.9,215.3 39.6,215.1 39.5,183.7 47.4,184.2 		"/>
		<path class="st4" d="M62.1,127.6c-2.2,8.6-4.7,16.9-7.1,25.2l-3.8,12.4l-1.8,6.1c-0.3,1-0.6,2-0.8,3l-0.2,0.7l-0.1,0.4v0.2v0.2
			c0,0.1-0.1,0.2-0.1,0.3l-0.1,0.8l0,0l-0.6,7.3l-7.9-0.4v-8.2c0-0.2,0-0.4,0-0.5l0.1-0.6l0.1-0.6l0.1-0.5l0.2-0.9
			c0.2-1.2,0.4-2.2,0.6-3.3l1.3-6.4l2.7-12.7c1.8-8.4,3.5-16.8,4.9-25.1c0.1-0.9,0.4-1.8,0.8-2.6c0.4-0.7,0.9-1.4,1.5-2
			c1.1-1.1,2.6-1.6,4.1-1.5l2.5,0.4c1.5,0.3,2.8,1.3,3.4,2.8c0.4,0.8,0.6,1.7,0.6,2.6C62.5,125.6,62.4,126.6,62.1,127.6z"/>
		<polygon class="st2" points="47.4,184.2 44.9,215.3 39.6,215.1 39.5,183.7 43.5,183.9 		"/>
		<path class="st2" d="M59.8,224.3c-1.1,1.2-2.9,1.2-4.1,0.1l0,0l-2.6-2.5c-0.4,1.1-0.9,2.1-1.5,2.9L47,239.9c-0.4,1.5-2,2.4-3.6,2
			c-0.9-0.3-1.6-0.9-1.9-1.8l-0.2,0.5c-0.4,1.6-1.9,2.5-3.5,2.2c-1.6-0.4-2.5-1.9-2.2-3.5c0-0.1,0.1-0.2,0.1-0.3v-0.1
			c-0.5,0.1-1,0.1-1.5,0c-1.5-0.5-2.4-2.1-2-3.6l0.9-2.9c-0.6,0.3-1.2,0.4-1.9,0.2c-1.2-0.4-1.9-1.7-1.6-2.9l3.2-10.8
			c-0.1-5.6,4.4-10.3,10-10.4c3.2-0.1,6.2,1.4,8.2,3.9l8.3,7.9C60.8,221.3,60.9,223.1,59.8,224.3z"/>
		<path class="st8" d="M45.3,227.7c-0.7,2.9-1.5,5.8-2.3,8.8c-0.4,1.5-0.7,2.9-1.2,4.4c-0.3,0.8-0.9,1.5-1.7,1.9
			c-0.7,0.4-1.6,0.4-2.4,0v-0.1l0,0c1.4,0.2,2.7-0.7,3.1-2c0.4-1.5,0.9-2.9,1.4-4.3c1-2.9,1.9-5.7,2.9-8.6
			C45.2,227.7,45.3,227.7,45.3,227.7S45.3,227.6,45.3,227.7z"/>
		<path class="st8" d="M41.2,226.5c-0.6,2.5-1.2,5-1.9,7.5l-0.5,1.9c-0.1,0.7-0.4,1.3-0.7,1.9c-0.8,1.3-2.4,1.7-3.8,1.1 M34.4,238.7
			L34.4,238.7c1.2,0.1,2.3-0.5,2.9-1.5c0.1-0.2,0.2-0.5,0.3-0.8l0.3-0.9l0.6-1.8c0.8-2.4,1.7-4.8,2.5-7.2c0,0,0,0,0.1,0
			c0,0,0.1,0,0,0L34.4,238.7z"/>
		<path class="st8" d="M36.9,222.9c-0.4,2-0.9,4-1.4,5.9l-0.3,1.5L35,231c-0.1,0.3-0.2,0.6-0.4,0.8c-0.7,1-2,1.4-3.1,0.8
			c0,0,0,0,0-0.1s0,0,0,0c0.9,0,1.8-0.4,2.2-1.2c0.1-0.2,0.2-0.4,0.2-0.6l0.2-0.7l0.5-1.4C35.4,226.6,36.1,224.7,36.9,222.9
			L36.9,222.9z"/>
		<path class="st8" d="M52.2,223c-0.9,3.6-1.9,7.2-2.8,10.8c-0.5,1.8-0.9,3.6-1.5,5.4c-0.1,0.5-0.3,0.9-0.5,1.4s-0.6,0.9-1,1.2
			c-0.8,0.6-1.9,0.7-2.8,0.3 M43.5,241.8L43.5,241.8c0.9,0.1,1.7-0.1,2.4-0.7c0.3-0.3,0.5-0.6,0.7-1c0.1-0.3,0.2-0.9,0.3-1.3
			c0.5-1.8,1.1-3.5,1.7-5.3c1.1-3.5,2.3-7,3.5-10.5L43.5,241.8z"/>
		<polygon class="st18" points="112.6,215.3 117.9,215.1 117.9,183.7 110,184.2 		"/>
		<path class="st4" d="M95.3,127.6c2.2,8.6,4.7,16.9,7.1,25.2l3.8,12.4l1.8,6.1c0.3,1,0.6,2,0.8,3l0.2,0.7l0.1,0.4v0.2v0.2
			c0,0.1,0.1,0.2,0.1,0.3l0.1,0.8l0,0l0.6,7.3l7.9-0.4v-8.2c0-0.2,0-0.4,0-0.5l-0.1-0.6l-0.1-0.6l-0.1-0.5l-0.2-0.9
			c-0.2-1.2-0.4-2.2-0.6-3.3l-1.3-6.4l-2.7-12.7c-1.8-8.4-3.5-16.8-4.9-25.1c-0.1-0.9-0.4-1.8-0.8-2.6c-0.4-0.7-0.9-1.4-1.5-2
			c-1.1-1.1-2.6-1.6-4.1-1.5l-2.5,0.4c-1.5,0.3-2.8,1.3-3.4,2.8c-0.4,0.8-0.6,1.7-0.6,2.6C95,125.6,95.1,126.6,95.3,127.6z"/>
		<polygon class="st2" points="110,184.2 112.6,215.3 117.9,215.1 117.9,183.7 114,183.9 		"/>
		<path class="st2" d="M98.4,224.3c1.1,1.2,2.9,1.2,4.1,0.1l0,0l2.6-2.5c0.4,1.1,0.9,2,1.5,2.9l4.5,15.1c0.4,1.5,2,2.4,3.6,2l0,0
			c0.9-0.3,1.6-0.9,1.9-1.8l0.2,0.5c0.5,1.5,2.1,2.4,3.6,1.9s2.4-2.1,1.9-3.6l0,0v-0.1c0.5,0.1,1,0.1,1.5,0c1.5-0.5,2.4-2.1,2-3.6
			l-0.9-2.9c0.6,0.3,1.2,0.4,1.8,0.2c1.2-0.4,1.9-1.6,1.6-2.9l0,0l-3.2-10.9c0.1-5.6-4.4-10.3-10-10.4c-3.2-0.1-6.2,1.4-8.2,3.9
			l-8.3,7.9C97.4,221.3,97.3,223.1,98.4,224.3z"/>
		<path class="st8" d="M112.9,227.6c1,2.9,2,5.7,2.9,8.6c0.5,1.4,1,2.8,1.4,4.3c0.4,1.3,1.7,2.2,3.1,2 M120.4,242.5L120.4,242.5
			c-0.8,0.4-1.6,0.4-2.4,0c-0.8-0.3-1.4-1-1.7-1.9c-0.5-1.4-0.8-2.9-1.2-4.4c-0.8-2.9-1.5-5.8-2.3-8.8c0,0,0,0,0-0.1L120.4,242.5z"
			/>
		<path class="st8" d="M117.1,226.5c0.9,2.4,1.7,4.8,2.5,7.2l0.6,1.8l0.3,0.9c0.1,0.3,0.2,0.5,0.3,0.8c0.6,1,1.7,1.6,2.9,1.5
			 M123.7,238.8L123.7,238.8c-1.3,0.7-3,0.2-3.8-1.1c-0.3-0.6-0.5-1.2-0.7-1.9l-0.5-1.9c-0.7-2.5-1.3-5-1.9-7.5c0,0,0,0,0-0.1h0.1
			v0.1L123.7,238.8z"/>
		<path class="st8" d="M121.4,222.8c0.7,1.9,1.4,3.8,2.1,5.7l0.5,1.4l0.2,0.7c0.1,0.2,0.1,0.4,0.2,0.6c0.4,0.8,1.3,1.3,2.2,1.2
			 M126.7,232.5L126.7,232.5c-1.1,0.6-2.4,0.2-3.1-0.8c-0.2-0.2-0.3-0.5-0.4-0.8l-0.2-0.7l-0.3-1.5c-0.5-2-1-3.9-1.4-5.9
			c-0.7-3,0-0.1,0-0.1L126.7,232.5z"/>
		<path class="st8" d="M106.1,222.9c1.2,3.5,2.4,7,3.5,10.5c0.6,1.8,1.2,3.5,1.7,5.3c0.1,0.4,0.2,1,0.3,1.3c0.1,0.4,0.4,0.7,0.7,1
			c0.6,0.6,1.5,0.9,2.4,0.7l0,0l0,0c-0.9,0.4-2,0.3-2.8-0.3c-0.4-0.3-0.8-0.7-1-1.2c-0.2-0.4-0.4-0.9-0.5-1.4
			c-0.6-1.8-1-3.6-1.5-5.4C107.9,230.1,107,226.5,106.1,222.9c-0.1-0.1-0.1-0.1-0.1-0.1C106,222.8,106.1,222.9,106.1,222.9z"/>
	</g>
</g>
</svg>
