<?xml version="1.0" encoding="utf-8"?>
<!-- Generator: Adobe Illustrator 22.1.0, SVG Export Plug-In . SVG Version: 6.00 Build 0)  -->
<svg version="1.1" id="Layer_1" xmlns="http://www.w3.org/2000/svg" xmlns:xlink="http://www.w3.org/1999/xlink" x="0px" y="0px"
	 viewBox="0 0 154 154" style="enable-background:new 0 0 154 154;" xml:space="preserve">
<style type="text/css">
	.st0{fill:#9FBEAF;}
	.st1{clip-path:url(#SVGID_2_);fill:#F0D0B3;}
	.st2{clip-path:url(#SVGID_2_);fill:#404041;}
	.st3{clip-path:url(#SVGID_2_);fill:#929497;}
	.st4{clip-path:url(#SVGID_2_);fill:#E6E7E8;}
	.st5{clip-path:url(#SVGID_2_);fill:#58595B;}
	.st6{opacity:0.55;clip-path:url(#SVGID_2_);fill:#BBBDBF;enable-background:new    ;}
	.st7{clip-path:url(#SVGID_2_);fill:#F1F1F2;}
	.st8{clip-path:url(#SVGID_2_);fill:#EBC19C;}
	.st9{clip-path:url(#SVGID_2_);fill:#DEB18A;}
	.st10{clip-path:url(#SVGID_2_);fill:#F5E0CD;}
	.st11{clip-path:url(#SVGID_2_);fill:#C3996B;}
	.st12{clip-path:url(#SVGID_2_);fill:#FFFFFF;}
	.st13{clip-path:url(#SVGID_2_);fill:#606161;}
	.st14{clip-path:url(#SVGID_2_);fill:url(#SVGID_3_);}
	.st15{clip-path:url(#SVGID_2_);fill:#6D6E70;}
	.st16{opacity:0.4;clip-path:url(#SVGID_2_);}
	.st17{fill:#E9DDD5;}
	.st18{clip-path:url(#SVGID_2_);fill:#BBBDBF;}
	.st19{opacity:0.25;clip-path:url(#SVGID_2_);}
	.st20{fill:#757E84;}
	.st21{clip-path:url(#SVGID_2_);fill:#757E84;}
</style>
<title>ic_middle</title>
<g>
	<g id="Layer_1_1_">
		<circle class="st0" cx="77" cy="77" r="77"/>
		<g>
			<g>
				<defs>
					<circle id="SVGID_1_" cx="77" cy="77" r="77"/>
				</defs>
				<clipPath id="SVGID_2_">
					<use xlink:href="#SVGID_1_"  style="overflow:visible;"/>
				</clipPath>
				<path class="st1" d="M20.5,169.9L20.5,169.9c0.1-0.1,0.2-0.3,0.3-0.5c0.1-0.3,0.2-0.5,0.3-0.8c0-0.2,0.1-0.4,0.1-0.6"/>
				<path class="st1" d="M30.7,160c7.8-6,16.1-11.5,24.7-16.2c4.2-2.4,6.5-6.4,5-9.1l-0.3-0.6c-1.5-2.7-6.3-2.9-10.6-0.2
					c-8.9,5.5-17.4,11.6-25.3,18.4c-4.2,3.5-8,7.6-11.2,12l-0.2,0.2l-0.1,0.1c-0.1,0.2-0.3,0.4-0.4,0.7c-0.2,0.4-0.4,0.8-0.5,1.3
					c0,0.2-0.1,0.4-0.1,0.6v0.5c0,0.8,0.1,1.7,0.3,2.5c0.3,0.9,0.7,1.8,1.1,2.6c0.7,1.3,1.5,2.5,2.3,3.7c1.6,2.2,3.3,4.2,4.9,6.2
					c3.3,4,6.7,7.8,10.2,11.5l2.8,2.5l5.9-5.4l-2.6-2.5c-3.3-3.8-6.5-7.5-9.5-11.4c-1.5-2-3-3.9-4.2-5.9c-0.6-0.9-1.1-1.8-1.6-2.8
					L30.7,160z"/>
				<path class="st1" d="M42.5,195.6c-1.5-1.6-3.1-3.2-4.6-4.9l-4,3.7c1.5,1.7,3.1,3.3,4.6,5L42.5,195.6z"/>
				<path class="st2" d="M30.1,161.2c8.4-6.4,17.2-12.1,26.3-17.2c4.2-2.4,3.7-6.5,2.3-9.2l-0.3-0.6c-1.5-2.7-6.3-2.9-10.6-0.2
					c-8.9,5.5-17.4,11.6-25.3,18.4c-4.2,3.5-8,7.6-11.2,12l-0.2,0.2l-0.1,0.1c-0.1,0.2-0.3,0.4-0.4,0.7c-0.2,0.4-0.4,0.8-0.5,1.3
					c-0.1,0.2-0.1,0.4-0.1,0.6v0.5c0,0.8,0.1,1.7,0.3,2.5c0.3,0.9,0.7,1.8,1.1,2.6c0.7,1.3,1.5,2.5,2.3,3.7c1.6,2.2,3.3,4.2,4.9,6.2
					c3.3,4,6.7,7.8,10.2,11.5l4.1,4.3l7.7-7.3l-3.8-4.4c-3.3-3.8-6.5-7.5-9.5-11.4c-1.5-2-3-3.9-4.2-5.9c-0.6-1-0.4-0.4-0.8-1.2
					L30.1,161.2z"/>
				<path class="st1" d="M52.3,188.8c2.9,0.3,5.1,1.6,6,4c0.2,0.6,0.4,1.2,0.4,1.8c0.9,0.1,1.7,0.5,2.3,1c1.5,1.2,2.5,3,2.6,4.9
					c0.1,1.4-0.4,2.9-1.4,3.9c-0.3,0.8-0.7,1.6-1.1,2.4c-0.3,0.8-0.8,1.5-1.4,2c-0.7,0.5-1.5,0.9-2.3,1.1l-0.2-0.3
					c-0.3,1.4-1.3,2.6-2.8,3c-0.8,0.3-1.8,0.4-2.7,0.3l-0.1-0.2c-0.4,0.5-0.8,0.8-1.4,1.1c-3.4,1-7.2,0.4-10.1-1.6l-0.3-0.2
					c-1.1-0.8-2-1.9-2.6-3.1c-2.9-5.8-0.1-13,5.3-16.4C44.8,190.6,48.8,188.5,52.3,188.8z"/>
				<path class="st1" d="M40.8,195.1c0.2-2,6.6-6.7,11.7-6.3c3.8,0.4,6.3,2.5,6.4,6.5s-4.2,6.1-6.3,1.5c-2.1,1.3-4.5,1.9-6.9,1.7
					L40.8,195.1z"/>
				<path class="st1" d="M135.2,171.4L135.2,171.4c-0.1-0.1-0.2-0.3-0.3-0.5c-0.1-0.3-0.2-0.5-0.3-0.8c0-0.2-0.1-0.4-0.1-0.6"/>
				<path class="st1" d="M125,161.4c-7.8-6-16.1-11.5-24.7-16.2c-4.2-2.4-6.5-6.4-5-9.1l0.3-0.6c1.5-2.8,6.3-2.9,10.6-0.2
					c8.9,5.5,17.4,11.6,25.3,18.4c4.2,3.5,7.9,7.6,11.2,12l0.2,0.2l0.1,0.1c0.1,0.2,0.3,0.5,0.4,0.7c0.2,0.4,0.4,0.8,0.5,1.3
					c0,0.2,0.1,0.4,0.1,0.6c0,0.2,0,0.3,0,0.5c0,0.8-0.1,1.7-0.3,2.5c-0.3,0.9-0.7,1.8-1.1,2.6c-0.7,1.3-1.5,2.5-2.4,3.7
					c-1.6,2.2-3.2,4.2-4.9,6.2c-3.3,4-6.7,7.8-10.2,11.5l-2.8,2.5l-5.8-5.4l2.5-2.6c3.3-3.8,6.5-7.5,9.5-11.4c1.5-2,3-4,4.2-5.9
					c0.6-0.9,1.1-1.8,1.6-2.8L125,161.4z"/>
				<path class="st1" d="M113.2,197c1.5-1.6,3.1-3.2,4.6-4.9l4,3.7c-1.5,1.7-3.1,3.3-4.6,5L113.2,197z"/>
				<path class="st2" d="M125.6,162.6c-8.4-6.3-17.2-12.1-26.3-17.1c-4.2-2.4-3.7-6.5-2.3-9.2l0.3-0.6c1.5-2.8,6.3-2.9,10.6-0.2
					c8.9,5.5,17.4,11.6,25.3,18.4c4.2,3.5,7.9,7.6,11.2,12l0.2,0.2l0.1,0.1c0.1,0.2,0.3,0.4,0.4,0.7c0.2,0.4,0.4,0.8,0.5,1.3
					c0,0.2,0.1,0.4,0.1,0.6c0,0.2,0,0.3,0,0.5c0,0.8-0.1,1.7-0.3,2.5c-0.3,0.9-0.7,1.8-1.1,2.6c-0.7,1.3-1.5,2.5-2.3,3.7
					c-1.6,2.2-3.3,4.2-4.9,6.2c-3.3,4-6.7,7.8-10.2,11.5l-4.1,4.3l-7.7-7.3l3.8-4.4c3.3-3.8,6.5-7.5,9.5-11.4c1.5-2,3-3.9,4.2-5.9
					c0.3-0.4,0.6-0.8,0.8-1.2L125.6,162.6z"/>
				<path class="st1" d="M103.4,190.3c-2.9,0.3-5.1,1.6-6,4c-0.2,0.6-0.4,1.2-0.4,1.8c-0.9,0.1-1.7,0.5-2.3,1
					c-1.5,1.2-2.5,3-2.6,4.9c-0.1,1.4,0.4,2.9,1.4,3.9c0.3,0.8,0.7,1.6,1.2,2.4c0.3,0.8,0.8,1.4,1.4,1.9c0.7,0.5,1.5,0.9,2.3,1.1
					l0.2-0.3c0.3,1.5,1.3,2.6,2.8,3.1c0.8,0.3,1.8,0.4,2.7,0.3l0.1-0.2c0.4,0.5,0.9,0.8,1.4,1.1c3.4,1,7.2,0.4,10.1-1.6l0.3-0.2
					c1.1-0.8,2-1.9,2.6-3.1c2.9-5.8,0.1-13-5.3-16.4C110.9,192,106.9,189.9,103.4,190.3z"/>
				<path class="st1" d="M115,196.5c-0.3-2-6.6-6.7-11.7-6.2c-3.8,0.3-6.3,2.5-6.4,6.5s4.2,6.1,6.3,1.5c2.1,1.3,4.5,1.9,6.9,1.7
					L115,196.5z"/>
				<rect x="65.3" y="343.6" class="st3" width="7" height="7.8"/>
				<rect x="82.1" y="343.6" class="st3" width="7" height="7.8"/>
				<polygon class="st2" points="80.3,367.7 91.7,367.7 91.7,365.3 108.8,367.7 120.3,367.7 120.3,358.9 90.6,349.7 80.3,349.7 				
					"/>
				<polygon class="st2" points="74.1,367.7 62.7,367.7 62.7,365.3 45.5,367.7 34,367.7 34,358.9 63.7,349.7 74.1,349.7 				"/>
				<path class="st2" d="M57.4,219.6c1.7-2.9,6.1-5.3,9.8-5.3h20.5c3.7,0,8.1,2.4,9.8,5.3s1.7,8,0,11.4l-7.1,14.3
					c-2,3.6-5.7,5.8-9.8,6.1H74c-4.1-0.2-7.8-2.5-9.8-6.1L57.3,231C55.7,227.6,55.7,222.5,57.4,219.6z"/>
				<path class="st2" d="M70,215.8l1.2,56.4l1.5,73.6l-7.7,0.4l-6.7-73.4l-5.1-56.1l0,0c-0.9-9.5,2.5-17.4,7.4-17.7
					S69.8,206.3,70,215.8z"/>
				<path class="st2" d="M101.8,216.8l-5.2,56.1l-6.8,73.3l-7.7-0.4l1.7-73.6l1.3-56.4l0,0c0.2-9.5,4.5-17,9.4-16.8
					S102.7,207.3,101.8,216.8z"/>
				<path class="st4" d="M77.9,129L77.9,129h-0.4h-0.4l0,0c-4.2,0.4-25.2-2-31,9.7c0,0,4.6,14.6,6.4,18.4l-4.2,66.8
					c0,0,22.4,7.3,29.2,6.7c6.8,0.6,29.9-7.2,29.9-7.2l-5-66.2c1.8-3.8,6.2-18.4,6.2-18.4C103,127,82.1,129.3,77.9,129z"/>
				<path class="st2" d="M62.8,131.6L64.3,232l-22.7-4.5l4.5-88.9c0,0,1-10,31.3-11.2S62.8,131.6,62.8,131.6z"/>
				<path class="st2" d="M92.3,131.6l-1.5,100.5l22.7-4.5l-4.5-88.9c0,0-1-10-31.3-11.2S92.3,131.6,92.3,131.6z"/>
				<polygon class="st5" points="77.7,138.7 70.3,134.2 72.8,147.9 77.7,147.9 82.4,147.9 85,134.2 				"/>
				<path class="st1" d="M22.4,195.1L22.4,195.1c0.1-0.1,0.3-0.2,0.5-0.3c0.3-0.1,0.5-0.2,0.8-0.3c0.2,0,0.4-0.1,0.6-0.1"/>
				<path class="st6" d="M77.4,128.5c-2.3-1.4-9.6-4.8-15.5,4.5c-0.2,0.2-0.2,0.5-0.2,0.8l3,16.4c0,0.5,0.5,0.9,1,0.8
					c0.3,0,0.6-0.2,0.7-0.5c1.8-3.2,5.6-8.7,11.2-10.1c0.1,0,0.3,0,0.5,0c5.6,1.4,9.4,7,11.2,10.1c0.2,0.4,0.8,0.6,1.2,0.4
					c0.3-0.1,0.4-0.4,0.5-0.7l3-16.4c0.1-0.3,0-0.6-0.2-0.8c-5.9-9.3-13.2-5.9-15.5-4.5C78,128.6,77.7,128.6,77.4,128.5z"/>
				<path class="st7" d="M77.5,127.4c-2.2-1.4-9-4.5-14.6,4.2c-0.1,0.2-0.2,0.5-0.2,0.8l2.9,15.5c0,0.5,0.4,0.8,0.9,0.8
					c0.3,0,0.5-0.2,0.7-0.4c1.7-3,5.3-8.2,10.5-9.6c0.1,0,0.3,0,0.4,0c5.2,1.4,8.8,6.6,10.5,9.6c0.2,0.4,0.7,0.6,1.1,0.4
					c0.3-0.1,0.4-0.4,0.5-0.7l2.9-15.5c0.1-0.3,0-0.6-0.1-0.8c-5.6-8.8-12.4-5.6-14.6-4.2C78,127.6,77.7,127.6,77.5,127.4z"/>
				<path class="st1" d="M77.7,84.2L77.7,84.2c5.1,0,9.3,4.2,9.3,9.3v35.8c0,5.1-4.2,9.3-9.3,9.3l0,0c-5.1,0-9.3-4.2-9.3-9.3V93.5
					C68.3,88.4,72.5,84.2,77.7,84.2z"/>
				<polygon class="st5" points="67.9,201.7 77.6,210.5 77.6,144.1 74.5,144.4 				"/>
				<polygon class="st5" points="80.8,144.4 77.6,144.1 77.6,210.5 87.4,201.7 				"/>
				<path class="st8" d="M87,124.4V123H68.4v1.6C71.7,126.3,77.8,128.1,87,124.4z"/>
				<path class="st1" d="M109.1,77.5c-1.3,2.1-2.1,4.3-2.6,6.7c-0.2,1.5-0.2,4,0.5,4.4c0.3,0.2,0.9-0.1,1.2-0.3
					c1.7-1,2.8-3.3,2.8-5.9C111.2,80.6,110.5,78.7,109.1,77.5z"/>
				<path class="st1" d="M113.7,70.3c-2.7-0.5-7,2.9-7,2.9c-4.9,4.1-2,23.1,2.2,22.4s3.8-6.8,3.8-6.8c2.1-1.3,3.9-6.8,3.9-6.8
					C120.2,71.5,113.7,70.3,113.7,70.3z M115.7,76.8c-0.2,0.7-0.4,1.5-0.8,2.1l-1.4-0.6c0.3-0.6,0.5-1.2,0.7-1.9
					c0.1-0.6,0.1-1.1-0.1-1.7c-0.2-0.4-0.5-0.8-1-0.9c-0.3,0-0.7,0-1,0.2c-0.9,0.5-1.7,1.2-2.2,2.1c1.8,1.5,2.8,3.8,2.6,6.1
					c0,3.1-1.4,5.9-3.5,7.2c-0.5,0.4-1.1,0.6-1.8,0.6c-0.4,0-0.7-0.1-1.1-0.3c-1.7-1.1-1.3-5.1-1.2-5.9c0.6-3.6,3.7-10,6.6-11.2
					c0.6-0.2,1.2-0.3,1.8-0.3c1,0.2,1.8,0.9,2.1,1.8C115.9,75.1,115.9,76,115.7,76.8L115.7,76.8z"/>
				<path class="st9" d="M113.5,72.5c-0.6-0.1-1.2,0-1.8,0.3c-2.9,1.1-6,7.6-6.6,11.2c-0.1,0.8-0.6,4.7,1.2,5.9
					c0.3,0.2,0.7,0.3,1.1,0.3c0.6,0,1.2-0.2,1.8-0.6c2.2-1.3,3.5-4,3.5-7.2c0.2-2.3-0.8-4.6-2.6-6.1c0.5-0.9,1.3-1.6,2.2-2.1
					c0.3-0.1,0.7-0.2,1-0.2c0.5,0.1,0.8,0.4,1,0.9s0.2,1.1,0.1,1.7c-0.2,0.6-0.4,1.3-0.7,1.9L115,79c0.3-0.7,0.6-1.4,0.8-2.1
					c0.2-0.9,0.1-1.7-0.2-2.5C115.2,73.4,114.4,72.7,113.5,72.5z M111.1,82.4c0,2.6-1.2,4.9-2.8,5.9c-0.3,0.2-0.9,0.5-1.2,0.3
					c-0.7-0.5-0.7-2.9-0.5-4.4c0.5-2.4,1.3-4.6,2.6-6.7C110.5,78.7,111.3,80.5,111.1,82.4z"/>
				<path class="st1" d="M45.4,77.5c1.3,2.1,2.2,4.3,2.6,6.7c0.2,1.5,0.2,4-0.5,4.4c-0.3,0.2-0.9-0.1-1.2-0.3
					c-1.7-1-2.8-3.3-2.8-5.9C43.3,80.6,44,78.8,45.4,77.5z"/>
				<path class="st1" d="M37.9,81.9c0,0,1.8,5.5,3.9,6.8c0,0-0.4,6.1,3.8,6.8s7.1-18.2,2.2-22.4c0,0-4.2-3.4-7-2.9
					C40.8,70.3,34.3,71.5,37.9,81.9z M39,74.3c0.4-0.9,1.2-1.6,2.2-1.8c0.6-0.1,1.2,0,1.8,0.3c2.9,1.1,6,7.6,6.6,11.2
					c0.1,0.8,0.6,4.7-1.2,5.9c-0.3,0.2-0.7,0.3-1.1,0.3c-0.6,0-1.2-0.2-1.8-0.6c-2.1-1.3-3.5-4-3.5-7.2c-0.2-2.3,0.8-4.6,2.6-6.1
					c-0.5-0.9-1.3-1.6-2.2-2.1c-0.3-0.1-0.7-0.2-1-0.2c-0.5,0.1-0.8,0.4-1,0.9s-0.2,1.1-0.1,1.7c0.1,0.6,0.4,1.3,0.7,1.9L39.6,79
					c-0.3-0.7-0.6-1.4-0.7-2.1C38.6,76,38.7,75.1,39,74.3z"/>
				<path class="st9" d="M39,74.3c-0.3,0.8-0.4,1.7-0.2,2.5c0.2,0.7,0.4,1.5,0.7,2.1l1.4-0.6c-0.3-0.6-0.5-1.2-0.7-1.9
					c-0.1-0.6-0.1-1.1,0.1-1.7c0.2-0.4,0.5-0.8,1-0.9c0.3,0,0.7,0,1,0.2c0.9,0.5,1.7,1.2,2.2,2.1c-1.8,1.5-2.8,3.8-2.6,6.1
					c0,3.1,1.4,5.9,3.5,7.2c0.5,0.4,1.1,0.6,1.8,0.6c0.4,0,0.7-0.1,1.1-0.3c1.7-1.1,1.3-5.1,1.2-5.9c-0.6-3.6-3.7-10-6.6-11.2
					c-0.5-0.2-1.1-0.3-1.7-0.3C40.2,72.7,39.3,73.4,39,74.3z M45.4,77.5c1.3,2.1,2.2,4.3,2.6,6.7c0.2,1.5,0.2,4-0.5,4.4
					c-0.3,0.2-0.9-0.1-1.2-0.3c-1.7-1-2.8-3.3-2.8-5.9C43.3,80.5,44,78.7,45.4,77.5L45.4,77.5z"/>
				<path class="st10" d="M77.3,124.8L77.3,124.8C62.6,124.8,46,111.6,46,97V48.4c0-14.6,11.8-26.5,26.5-26.5l0,0H82
					c14.6,0,26.5,11.9,26.5,26.5l0,0V97C108.5,111.6,91.9,124.8,77.3,124.8z"/>
				<path class="st11" d="M66.3,101.9c0.9,6.3,5.5,11.1,11,11.1s10.1-4.8,11-11.1c-2.4,2.3-6.4,2.6-11,2.6S68.7,104.2,66.3,101.9z"
					/>
				<path class="st12" d="M87.9,102.9c0.3-0.8,0.5-1.5,0.6-2.3c0-0.1-0.1-0.3-0.2-0.3s-0.1,0-0.2,0c-2.5,2-6.5,2.2-10.9,2.2
					s-8.4-0.3-10.9-2.2c-0.1-0.1-0.3-0.1-0.3,0s-0.1,0.1-0.1,0.2c0.2,0.8,0.4,1.6,0.6,2.3c2.5,1.8,6.3,2.1,10.7,2.1
					S85.4,104.7,87.9,102.9z"/>
				<path class="st8" d="M72,115.6c2.5,2.9,6.8,3.2,9.7,0.8c0.3-0.2,0.5-0.5,0.8-0.8C79.2,117,75.4,117,72,115.6z"/>
				<path class="st13" d="M103.4,59.4c0.4,0.1,0.8-0.2,0.8-0.6c0-0.3-0.1-0.6-0.3-0.7c-6.3-3.8-14.3-2.9-19.6,2.1
					c-0.3,0.3-0.3,0.7,0,1c0.2,0.2,0.5,0.3,0.8,0.2C90.9,59,97.3,58.3,103.4,59.4L103.4,59.4z"/>
				<path class="st13" d="M48.9,62.7c-0.3,0.2-0.8,0-1-0.3c-0.1-0.2-0.1-0.5,0-0.7c4.5-5.8,12.2-7.9,19-5.1c0.4,0.2,0.5,0.6,0.4,0.9
					c0,0.3-0.3,0.5-0.6,0.5C60.4,57.9,54.3,59.5,48.9,62.7L48.9,62.7z"/>
				
					<radialGradient id="SVGID_3_" cx="701.69" cy="397.19" r="15.31" gradientTransform="matrix(1 0 0 1 0 70)" gradientUnits="userSpaceOnUse">
					<stop  offset="0" style="stop-color:#F0BFD9;stop-opacity:0.95"/>
					<stop  offset="4.000000e-02" style="stop-color:#EEBCD3;stop-opacity:0.88"/>
					<stop  offset="0.15" style="stop-color:#E9B3C2;stop-opacity:0.65"/>
					<stop  offset="0.27" style="stop-color:#E4ABB2;stop-opacity:0.45"/>
					<stop  offset="0.39" style="stop-color:#E1A4A6;stop-opacity:0.29"/>
					<stop  offset="0.51" style="stop-color:#DE9F9C;stop-opacity:0.16"/>
					<stop  offset="0.62" style="stop-color:#DC9C96;stop-opacity:7.000000e-02"/>
					<stop  offset="0.73" style="stop-color:#DA9A91;stop-opacity:2.000000e-02"/>
					<stop  offset="0.83" style="stop-color:#DA9990;stop-opacity:0"/>
					<stop  offset="1" style="stop-color:#DA9990;stop-opacity:0"/>
				</radialGradient>
				<ellipse class="st14" cx="95.8" cy="89.3" rx="15.3" ry="7.7"/>
				<path class="st8" d="M77.3,93.1l3.2-0.6c0.4,0,0.7-0.3,0.7-0.7c0-0.2-0.1-0.4-0.2-0.5l-3.2-3.2c-0.3-0.3-0.7-0.3-1,0l0,0
					l-3.2,3.2c-0.3,0.3-0.3,0.7,0,1c0.1,0.1,0.3,0.2,0.5,0.2L77.3,93.1z"/>
				<circle class="st5" cx="61.1" cy="73.3" r="3.7"/>
				<circle class="st5" cx="92.7" cy="73.3" r="3.7"/>
				<path class="st15" d="M113,44.2c3.9-1.1,5.8-7.2,5.8-7.2c-2.6,1.6-6-0.1-6-0.1s-10-18.9-31.6-24.4c-13.5-3.4-20.6,1.5-24,5.7
					c-0.9,0.8-1.7,1.7-2.3,2.7c0,0-1.1-3.1-0.6-4.2c0,0-3.5,1.5-3.3,6.9c0,0-8-0.4-8.6,4.8c1.1-0.5,2.3-0.5,3.4-0.1
					c-1.3,2-2.2,4.3-2.7,6.7c-1,2.7-1.5,5.6-1.5,8.4v27c2.6,0.3,4.6,4.3,4.6,4.3V54.5c0-10.2,1.9-12.2,1.9-12.2
					c4.2-7.2,13.5-3.9,13.5-3.9c0.4-2.2,3.5-5.5,3.5-5.5c7.2-6.8,13.7,5,13.7,5c10.9,19.7,28.6,22.6,28.6,22.6l0.3,13.4
					c1.2-1.2,2.6-2.1,4.2-2.6V54.8c4.1-1.2,7.6-4.1,9.5-7.9C115.4,46,113,44.2,113,44.2z"/>
				<g class="st16">
					<path class="st17" d="M108.5,97.1v-19c-0.5,4.8-2.6,16.7-12.1,26.4l-4.3-6.3c-4.2-5.8-8.9-5.4-11.4-3.8c-1.5,0.9-0.7,5,1.5,3.3
						c3.1-2.4,7.1,2.5,7.1,2.5c1.4,1.5,2.6,3.1,3.6,4.8c2,3.2-2.8,6.6-9.7,10.7l-2.6-2.5H74l-2.6,2.5c-6.9-4.1-11.7-7.5-9.8-10.7
						c1-1.7,2.2-3.3,3.6-4.8c0,0,4-4.9,7.1-2.5c2.3,1.7,3-2.4,1.5-3.3c-2.5-1.5-7.2-2-11.4,3.8l-4.3,6.3
						C48.7,94.9,46.5,82.9,46,78.1V97c0,13.9,14.9,26.4,28.9,27.7c0.9,0,1.7,0,2.4,0s1.5,0,2.4,0C93.6,123.5,108.5,110.9,108.5,97.1
						z"/>
				</g>
				<path class="st2" d="M77.5,94.2c-16.2,0-13,11.3-13,11.3l2-3.8h22.1l2,3.8C90.6,105.5,93.7,94.2,77.5,94.2z"/>
				<polygon class="st18" points="41.7,62.3 46.2,60.1 46.2,63.5 41.7,65.1 				"/>
				<polygon class="st4" points="41.7,65.9 46.2,63.7 46.2,66.2 41.7,67.8 				"/>
				<polygon class="st18" points="111.8,62.8 107.4,60.7 107.4,64 111.8,65.6 				"/>
				<polygon class="st4" points="111.8,66.5 107.4,64.3 107.4,66.8 111.8,68.4 				"/>
				<g class="st19">
					<path class="st20" d="M95.5,65.1h-1.2c-2.4-0.1-4.8,0.4-7,1.2c-1.6,0.5-3.4,1.6-5.6,1.3c-1.1-0.2-2.3-0.4-3.5-0.5
						c-1.1,0.1-2.3,0.2-3.4,0.5c-2.2,0.4-4-0.8-5.6-1.3c-2.2-0.9-4.6-1.3-7-1.2H61c-1.6,0-6.6,0.4-16,3.8v2.4c0.8,0.4,1.3,1.1,1.3,2
						c0.6,6.8,1.6,8.9,2.4,10.4c0.2,0.4,0.4,0.8,0.7,1.2v-0.1c0.5,0.7,1,1.4,1.7,2c2.5,2.2,5.8,3.3,9.1,3.2h1
						c3.8-0.2,7.8-2.5,10.4-6c1.5-2,3.7-5.8,3.7-12.7c0,0,0.4-1.5,3-1.5s3,1.5,3,1.5c0,6.9,2.2,10.7,3.7,12.7
						c2.7,3.5,6.7,5.8,10.4,6h1c3.3,0.1,6.6-1,9.1-3.2c0.6-0.6,1.2-1.3,1.7-2v0.1c0.2-0.4,0.5-0.8,0.7-1.2c0.8-1.5,1.8-3.6,2.4-10.4
						c0-0.9,0.5-1.6,1.3-2v-2.4C102,65.4,97.1,65.1,95.5,65.1z M61,88.6c-6.5,0.3-12.5-2.7-12.9-13c0,0,0-5.1,4.3-7.3
						c3.3-1.7,18.6-4.5,20.5,4.1S67.4,88.2,61,88.6z M95.5,88.6c-6.4-0.3-13.8-7.6-11.9-16.2s17.2-5.8,20.5-4.1
						c4.3,2.2,4.3,7.3,4.3,7.3C108,85.9,102,88.9,95.5,88.6z"/>
				</g>
				<path class="st21" d="M95.5,62.6h-1.2c-2.4-0.1-4.8,0.3-7,1.2c-1.6,0.5-3.4,1.6-5.6,1.3c-1.1-0.2-2.3-0.4-3.5-0.5
					c-1.1,0.1-2.3,0.2-3.4,0.5c-2.2,0.4-4-0.8-5.6-1.3c-2.2-0.9-4.6-1.3-7-1.2H61c-1.6,0-6.6,0.4-16,3.8v2.4c0.8,0.4,1.3,1.1,1.3,2
					c0.6,6.8,1.6,8.9,2.4,10.4c0.2,0.4,0.4,0.8,0.7,1.2v-0.1c0.5,0.7,1,1.4,1.7,2c2.5,2.2,5.8,3.3,9.1,3.2h1c3.8-0.2,7.8-2.5,10.4-6
					c1.5-2,3.7-5.8,3.7-12.7c0,0,0.4-1.5,3-1.5s3,1.5,3,1.5c0,6.9,2.2,10.8,3.7,12.7c2.7,3.5,6.7,5.8,10.4,6h1
					c3.3,0.1,6.6-1,9.1-3.2c0.6-0.6,1.2-1.3,1.7-2v0.1c0.2-0.4,0.5-0.8,0.7-1.2c0.8-1.5,1.8-3.6,2.4-10.4c0-0.9,0.5-1.6,1.3-2v-2.4
					C102,63,97.1,62.6,95.5,62.6z M61,86.1c-6.5,0.3-12.5-2.7-12.9-13c0,0,0-5.1,4.3-7.3c3.3-1.7,18.6-4.5,20.5,4.1
					S67.4,85.8,61,86.1L61,86.1z M95.5,86.1c-6.4-0.3-13.8-7.6-11.9-16.2s17.2-5.8,20.5-4.1c4.3,2.2,4.3,7.3,4.3,7.3
					C108,83.4,102,86.4,95.5,86.1L95.5,86.1z"/>
			</g>
		</g>
	</g>
</g>
</svg>
