<?xml version="1.0" encoding="utf-8"?>
<!-- Generator: Adobe Illustrator 22.1.0, SVG Export Plug-In . SVG Version: 6.00 Build 0)  -->
<svg version="1.1" id="Layer_1" xmlns="http://www.w3.org/2000/svg" xmlns:xlink="http://www.w3.org/1999/xlink" x="0px" y="0px"
	 viewBox="0 0 154 154" style="enable-background:new 0 0 154 154;" xml:space="preserve">
<style type="text/css">
	.st0{fill:#9FBEAF;}
	.st1{clip-path:url(#SVGID_2_);}
	.st2{fill:#F5E0CD;}
	.st3{fill:#6E6360;}
	.st4{fill:#EDD8B7;}
	.st5{fill:#F1F1F2;}
	.st6{fill:#FFD7BE;}
	.st7{fill:#EBC19C;}
	.st8{fill:#C1B49A;}
	.st9{fill:#DFE0E0;}
	.st10{opacity:0.55;fill:#BBBDBF;enable-background:new    ;}
	.st11{fill:#F0D0B3;}
	.st12{fill:#808184;}
	.st13{fill:url(#SVGID_3_);}
	.st14{fill:#58595B;}
	.st15{fill:#BBBDBF;}
	.st16{fill:#6D6E70;}
	.st17{fill:#C3996B;}
	.st18{fill:#CCCFD9;}
	.st19{fill:#929497;}
	.st20{fill:#E6E7E8;}
	.st21{opacity:0.25;}
	.st22{fill:#757E84;}
	.st23{fill:#EC1C24;}
	.st24{fill:#787986;}
</style>
<title>ic_old_female</title>
<g id="Layer_1_1_">
	<circle class="st0" cx="77" cy="77" r="77"/>
	<g>
		<g>
			<defs>
				<circle id="SVGID_1_" cx="77" cy="77" r="77"/>
			</defs>
			<clipPath id="SVGID_2_">
				<use xlink:href="#SVGID_1_"  style="overflow:visible;"/>
			</clipPath>
			<g class="st1">
				<path class="st2" d="M68,356.4c0,2.5-1.5,4.7-3.2,4.7H64c-1.8,0-3.3-2-3.5-4.5l-7.6-148c-0.1-2.5,1.2-4.7,3-4.7l9.6-0.2
					c1.8,0,3.2,2,3.2,4.5L68,356.4z"/>
				<path class="st2" d="M96.5,354.4c-0.1,2.5-1.6,4.6-3.4,4.6h-0.8c-1.8,0-3.3-2.1-3.3-4.6l-3.5-148.2c-0.1-2.5,1.3-4.6,3.1-4.6
					h9.6c1.8,0,3.2,2.1,3.1,4.6L96.5,354.4z"/>
				<path class="st3" d="M77.4,216.6c-6,0.4-23.4,7-29.2,5.4L31.6,326c0,0,42.1,18.1,90.7,0c0-3-14.9-104.5-14.9-104.5
					C102.2,222.9,83.6,217,77.4,216.6z"/>
				<path class="st4" d="M108.3,223.6l-10.1-37.1l5.2-24.5c0.2-1,0.2-2.1,0-3.1l-6.1-24.2c-6.5-1.3-13.2-1.8-19.9-1.4
					c-16.9-0.1-18.7,1.4-18.7,1.4l-5.9,23.4c-0.4,1.6-0.4,3.2-0.1,4.8l5.1,23.7l-10.2,37.1l0.5,0.7c4.6,1.5,16.8,5.5,24.5,6.9
					l4-11.7l3.2,12c7.7-0.8,23.2-6.3,28-7.9L108.3,223.6L108.3,223.6z"/>
				<polygon class="st5" points="62.3,135.6 77.9,183.1 92.3,135.6 				"/>
				<path class="st6" d="M63.9,230.7c-0.1,1.4,1,2.6,2.4,2.8l3.2,0.2c-0.5,0.9-0.8,1.8-1,2.8l-7.2,12c-0.7,1.2-0.3,2.8,0.9,3.5
					c0.7,0.4,1.5,0.5,2.3,0.2l-0.2,0.4c-0.8,1.2-0.4,2.8,0.8,3.6c1.2,0.8,2.8,0.4,3.6-0.8c0,0,0-0.1,0.1-0.1l0.1-0.1
					c0.2,0.4,0.5,0.8,0.9,1c1.2,0.7,2.8,0.3,3.5-0.9l1.4-2.3c0.2,1.1,1.3,1.8,2.4,1.6c0.6-0.1,1.1-0.5,1.4-1l5.2-8.6
					c3.8-3.3,4.2-9.1,0.9-12.9c-1.9-2.2-4.7-3.3-7.5-3.1l-10.2-0.7C65.2,228.2,64,229.2,63.9,230.7L63.9,230.7z"/>
				<path class="st7" d="M70.4,242.3c-1.3,2.4-2.5,4.7-3.9,7.1c-0.7,1.2-1.2,2.4-2,3.5c-0.7,1.1-0.4,2.4,0.5,3.2 M65,256.2L65,256.2
					c-1.4-0.6-2.1-2.2-1.5-3.5c0-0.1,0.1-0.2,0.1-0.3c0.6-1.2,1.4-2.3,2.2-3.4c1.5-2.2,2.9-4.5,4.5-6.7L65,256.2z"/>
				<path class="st7" d="M73.7,244.3c-1,2-2.1,4-3.2,6l-0.8,1.5l-0.4,0.8c-0.1,0.2-0.2,0.4-0.3,0.6c-0.3,1-0.1,2.1,0.7,2.8
					 M69.6,256.1L69.6,256.1c-1.3-0.5-2-1.8-1.6-3.1c0.2-0.6,0.5-1.1,0.9-1.6l1-1.4c1.3-1.9,2.5-3.8,3.8-5.7 M73.7,244.2
					C73.7,244.2,73.7,244.3,73.7,244.2L73.7,244.2z"/>
				<path class="st7" d="M78.7,245c-0.8,1.6-1.6,3.2-2.5,4.8l-0.6,1.2l-0.3,0.6c-0.1,0.2-0.2,0.3-0.2,0.5c-0.3,0.8-0.1,1.6,0.5,2.2
					 M75.4,254.3L75.4,254.3c-1.1-0.3-1.7-1.4-1.4-2.5c0.1-0.3,0.2-0.5,0.3-0.7l0.4-0.6l0.8-1.1c1-1.5,2-3,3.1-4.5L75.4,254.3z"/>
				<path class="st7" d="M69.4,235c-1.6,2.9-3.2,5.8-4.8,8.7c-0.8,1.4-1.6,2.9-2.5,4.3c-0.2,0.3-0.5,0.7-0.6,1
					c-0.2,0.3-0.3,0.7-0.3,1c0,0.8,0.3,1.5,0.9,2 M62.1,252L62.1,252c-0.9-0.4-1.5-1.1-1.6-2.1c-0.1-0.5,0-1,0.2-1.4
					c0.2-0.5,0.4-0.8,0.6-1.2c0.8-1.5,1.8-2.8,2.7-4.2c1.8-2.8,3.6-5.6,5.4-8.3L62.1,252z"/>
				<polygon class="st8" points="104.3,208.5 105.6,213.2 92.1,230.2 87.8,226.5 				"/>
				<path class="st4" d="M105.8,141l0.1,0.6l0.1,0.2c2.1,8.8,4.1,17.7,5.9,26.6c0.9,4.5,1.8,8.9,2.5,13.5c0.4,2.3,0.8,4.5,1,7.3v0.5
					v0.3v0.4c0,0.6,0,1.1-0.1,1.7c-0.1,0.5-0.2,0.9-0.3,1.4l-0.1,0.4l-0.1,0.2l-0.2,0.3l-0.3,0.7l-0.3,0.5c-0.7,1.3-1.4,2.3-2,3.3
					c-2.9,4.4-5.9,8.5-8.9,12.5s-6.1,8-9.1,12c-0.3,0.3-0.8,0.4-1.2,0.1l-7.3-5.5c-0.3-0.3-0.4-0.8-0.2-1.2c0,0,4.5-5.9,8.8-11.9
					c2.2-3,4.3-6,5.8-8.3c0.8-1.1,1.4-2.1,1.8-2.8l0.7-1.1l0,0c0.5-0.9,1.1-1.8,1.4-2.5l0.1-0.3v-0.1l0,0l0,0h0.1l1,0.4
					c0.2,0.1,0.4,0.2,0.7,0.3c0.4,0.2,0.9,0.3,1.4,0.4c0.2,0,0.5,0.1,0.7,0.1h0.4h0.1c1,0.1-1.2-0.2-1.1-0.2h-0.3
					c-0.7-0.1-1.5-0.2-2.2-0.3l-1-0.1l0,0v-0.1V190c-0.2-1.7-0.6-4-1.1-6c-0.9-4.3-1.9-8.6-3-12.9c-2.2-8.6-4.5-17.3-7-25.8V145
					l-0.2-0.6c-1.3-4.2,0.1-8.4,3.2-9.3l2.6-0.7C101.4,133.6,104.8,136.5,105.8,141z"/>
				<polygon class="st6" points="82.5,234 77.9,230.4 82.7,224.3 87.3,227.8 				"/>
				<polygon class="st9" points="87.9,228.3 82.2,223.8 86.3,218.4 92.1,222.8 				"/>
				<path class="st6" d="M89.6,229.5c0.1,1.4-1,2.6-2.4,2.8l-3.2,0.2c0.5,0.9,0.8,1.8,1,2.8l7.2,12c0.7,1.2,0.4,2.8-0.8,3.5
					c-0.7,0.4-1.6,0.5-2.3,0.2l0.2,0.4c0.8,1.2,0.5,2.8-0.7,3.6s-2.8,0.5-3.6-0.7c0-0.1-0.1-0.1-0.1-0.2l-0.1-0.1
					c-0.7,1.2-2.3,1.7-3.5,1c-0.4-0.2-0.7-0.5-1-0.9l-1.4-2.3c-0.2,1.1-1.3,1.8-2.4,1.6c-0.6-0.1-1.1-0.5-1.4-1l-5.2-8.6
					c-3.8-3.3-4.2-9.1-0.9-12.9c1.9-2.2,4.6-3.3,7.5-3.1l10.2-0.7C88.2,227,89.5,228,89.6,229.5L89.6,229.5z"/>
				<path class="st7" d="M83.1,241.1c1.5,2.2,3,4.5,4.5,6.7c0.7,1.1,1.5,2.2,2.2,3.4c0.7,1.3,0.3,2.9-1,3.7
					c-0.1,0.1-0.2,0.1-0.3,0.1h-0.1l0,0c0.9-0.8,1.1-2.2,0.5-3.2c-0.7-1.1-1.3-2.3-2-3.5c-1.3-2.4-2.6-4.7-3.9-7.1
					c-1.9-3.5,0,0,0-0.1L83.1,241.1z"/>
				<path class="st7" d="M79.9,243.2c1.3,1.9,2.6,3.8,3.8,5.7l1,1.4c0.4,0.5,0.7,1,0.9,1.6c0.4,1.3-0.3,2.7-1.6,3.1h-0.1l0,0
					c0.8-0.7,1-1.8,0.7-2.8c-0.1-0.2-0.2-0.4-0.3-0.6l-0.4-0.8l-0.8-1.5C82,247.3,80.9,245.3,79.9,243.2L79.9,243.2z"/>
				<path class="st7" d="M74.9,243.8c1,1.5,2.1,3,3.1,4.5l0.8,1.1l0.4,0.6c0.1,0.2,0.2,0.5,0.3,0.7c0.3,1.1-0.3,2.2-1.4,2.5
					c0,0,0,0-0.1,0l0,0c0.5-0.6,0.7-1.4,0.5-2.2c-0.1-0.2-0.1-0.3-0.2-0.5l-0.3-0.6l-0.6-1.2c-0.9-1.6-1.7-3.2-2.5-4.8
					C73.6,241.5,74.8,243.9,74.9,243.8L74.9,243.8z"/>
				<path class="st7" d="M84.1,233.8c1.8,2.8,3.6,5.5,5.4,8.3c0.9,1.4,1.8,2.7,2.6,4.2c0.2,0.4,0.4,0.7,0.6,1.2
					c0.2,0.4,0.2,0.9,0.2,1.4c-0.1,0.9-0.7,1.7-1.6,2.1 M91.3,250.9c0.6-0.5,0.9-1.2,0.9-2c0-0.3-0.1-0.7-0.3-1
					c-0.1-0.3-0.4-0.7-0.6-1c-0.9-1.4-1.7-2.9-2.5-4.3c-1.6-2.9-3.2-5.8-4.8-8.7L91.3,250.9z"/>
				<polygon class="st8" points="51.7,209.6 50.4,214.2 61.6,229 65.9,225.3 				"/>
				<path class="st4" d="M47.8,139.8l-0.1,0.6v0.2c-2.1,8.8-4.1,17.7-5.9,26.6c-0.9,4.5-1.8,8.9-2.5,13.5c-0.4,2.3-0.7,4.5-1,7.3
					v0.5v0.7c0,0.6,0,1.1,0.1,1.7c0.1,0.5,0.2,0.9,0.3,1.4l0.1,0.4l0.1,0.2l0.2,0.3l0.3,0.7l0.3,0.5c0.7,1.3,1.4,2.3,2,3.3
					c2.9,4.4,5.9,8.5,8.9,12.5s6.1,8,9.1,12c0.3,0.3,0.8,0.3,1.2,0.1l7.3-5.5c0.3-0.3,0.4-0.8,0.2-1.2c0,0-4.5-5.9-8.8-11.9
					c-2.2-3-4.3-6-5.9-8.3c-0.8-1.1-1.4-2.1-1.8-2.8s-0.7-1-0.7-1.1l0,0c-0.5-0.8-1-1.6-1.4-2.5l-0.1-0.2v-0.1l0,0l0,0h-0.1l-1,0.4
					c-0.2,0.1-0.4,0.2-0.6,0.3c-0.4,0.2-0.9,0.3-1.4,0.4c-0.2,0-0.5,0.1-0.7,0.1h-0.4h-0.1c-1,0.1,1.2-0.2,1.1-0.2h0.3
					c0.7-0.1,1.5-0.2,2.2-0.3l1-0.1l0,0v-0.1v-0.3c0.2-1.7,0.6-4,1.1-6c0.9-4.3,1.9-8.6,3-12.9c2.2-8.7,4.5-17.3,7-25.8V144l0.2-0.6
					c1.3-4.2-0.1-8.4-3.1-9.3l-2.6-0.7C52.1,132.5,48.8,135.4,47.8,139.8z"/>
				<polygon class="st6" points="70.9,232.9 75.5,229.3 70.8,223.1 66.1,226.7 				"/>
				<polygon class="st9" points="65.6,227.1 71.3,222.7 67.1,217.3 61.4,221.7 				"/>
				<path class="st10" d="M76.9,132.8c-2.4-1.5-9.8-4.9-15.8,4.5c-0.2,0.3-0.2,0.6-0.2,0.9l3.1,16.7c0,0.5,0.5,0.9,1,0.8
					c0.3,0,0.6-0.2,0.7-0.5c1.8-3.2,5.7-8.9,11.3-10.3c0.2,0,0.3,0,0.5,0c5.7,1.5,9.5,7.1,11.3,10.3c0.2,0.4,0.8,0.6,1.2,0.4
					c0.3-0.1,0.5-0.4,0.5-0.7l3.1-16.7c0-0.3,0-0.6-0.2-0.9c-6-9.4-13.4-6-15.8-4.5C77.5,133,77.2,133,76.9,132.8z"/>
				<path class="st5" d="M76.9,131.8c-2.2-1.4-9.2-4.6-14.9,4.3c-0.1,0.2-0.2,0.5-0.1,0.8l2.9,15.8c0,0.5,0.4,0.8,0.9,0.8
					c0.3,0,0.6-0.2,0.7-0.5c1.7-3.1,5.4-8.4,10.7-9.7c0.1,0,0.3,0,0.4,0c5.3,1.4,9,6.7,10.7,9.7c0.2,0.4,0.7,0.6,1.1,0.4
					c0.3-0.1,0.4-0.4,0.5-0.7l2.9-15.8c0.1-0.3,0-0.6-0.1-0.8c-5.7-8.9-12.6-5.7-14.9-4.3C77.5,131.9,77.2,131.9,76.9,131.8z"/>
				<path class="st2" d="M78.1,89.6L78.1,89.6c4.9,0,8.9,4,8.9,8.9v34.1c0,4.9-4,8.9-8.9,8.9l0,0c-4.9,0-8.9-4-8.9-8.9V98.5
					C69.3,93.6,73.2,89.6,78.1,89.6z"/>
				<path class="st7" d="M87,127.4V126H69.3v1.6C72.4,129.3,78.3,131.1,87,127.4z"/>
				<path class="st11" d="M106.6,84.2c-1.2,1.9-2,4-2.4,6.1c-0.2,1.4-0.2,3.6,0.5,4.1c0.3,0.2,0.8-0.1,1.1-0.3
					c1.7-1.3,2.7-3.3,2.6-5.4C108.5,87,107.9,85.3,106.6,84.2z"/>
				<path class="st11" d="M110.8,77.6c-2.5-0.5-6.4,2.6-6.4,2.6c-4.5,3.8-1.9,21.2,2,20.6s3.5-6.2,3.5-6.2c1.9-1.2,3.6-6.3,3.6-6.3
					C116.8,78.7,110.8,77.6,110.8,77.6z M112.6,83.6c-0.2,0.7-0.4,1.4-0.7,2l-1.3-0.5c0.3-0.5,0.5-1.1,0.6-1.7
					c0.1-0.5,0.1-1-0.1-1.5c-0.2-0.4-0.5-0.7-0.9-0.8c-0.3,0-0.6,0-0.9,0.2c-0.8,0.5-1.5,1.1-2,1.9c1.7,1.4,2.6,3.5,2.4,5.6
					c0.1,2.6-1.1,5.1-3.2,6.6c-0.5,0.3-1,0.5-1.6,0.5c-0.4,0-0.7-0.1-1-0.3c-1.6-1.1-1.2-4.7-1.1-5.4c0.5-3.3,3.4-9.2,6-10.3
					c0.5-0.2,1.1-0.3,1.7-0.2c0.9,0.2,1.7,0.8,2,1.6C112.8,82,112.8,82.8,112.6,83.6L112.6,83.6z"/>
				<path class="st7" d="M110.5,79.6c-0.6-0.1-1.1,0-1.7,0.2c-2.7,1-5.5,6.9-6,10.3c-0.1,0.7-0.5,4.4,1.1,5.4c0.3,0.2,0.6,0.3,1,0.3
					c0.6,0,1.1-0.2,1.6-0.5c2.1-1.5,3.3-4,3.2-6.6c0.2-2.2-0.7-4.3-2.4-5.6c0.5-0.8,1.2-1.5,2-1.9c0.3-0.1,0.6-0.2,0.9-0.2
					c0.4,0.1,0.8,0.4,0.9,0.8c0.2,0.5,0.2,1,0.1,1.5c-0.1,0.6-0.3,1.2-0.6,1.7l1.3,0.5c0.3-0.6,0.5-1.3,0.7-2
					c0.2-0.8,0.1-1.6-0.2-2.3C112.1,80.4,111.4,79.8,110.5,79.6z M108.4,88.7c0.1,2.1-0.9,4.2-2.6,5.4c-0.3,0.2-0.8,0.5-1.1,0.3
					c-0.6-0.4-0.7-2.6-0.5-4.1c0.5-2.2,1.3-4.2,2.4-6.1C107.9,85.3,108.5,87,108.4,88.7L108.4,88.7z"/>
				<path class="st11" d="M48,84.2c1.2,1.9,2,4,2.4,6.1c0.2,1.4,0.2,3.6-0.5,4.1c-0.3,0.2-0.8-0.1-1.1-0.3c-1.7-1.3-2.7-3.3-2.6-5.4
					C46.1,87,46.8,85.3,48,84.2z"/>
				<path class="st11" d="M41.2,88.2c0,0,1.7,5.1,3.6,6.3c0,0-0.4,5.6,3.5,6.2s6.5-16.8,2-20.6c0,0-3.9-3.1-6.4-2.6
					C43.8,77.6,37.9,78.7,41.2,88.2z M42.2,81.2c0.3-0.8,1.1-1.5,2-1.6c0.6-0.1,1.1,0,1.7,0.2c2.7,1,5.5,6.9,6,10.3
					c0.1,0.7,0.5,4.4-1,5.4c-0.3,0.2-0.6,0.3-1,0.3c-0.6,0-1.1-0.2-1.6-0.5c-2.1-1.5-3.4-4-3.3-6.6c-0.2-2.2,0.7-4.3,2.4-5.6
					c-0.5-0.8-1.2-1.5-2-1.9C45,81,44.7,81,44.4,81c-0.4,0.1-0.8,0.4-0.9,0.8c-0.2,0.5-0.2,1-0.1,1.5c0.1,0.6,0.3,1.2,0.6,1.7
					l-1.2,0.5c-0.3-0.6-0.5-1.3-0.7-2C41.9,82.8,41.9,82,42.2,81.2L42.2,81.2z"/>
				<path class="st7" d="M42.1,81.2c-0.3,0.7-0.4,1.6-0.2,2.3c0.2,0.7,0.4,1.4,0.7,2l1.2-0.5c-0.3-0.5-0.5-1.1-0.6-1.7
					c-0.1-0.5-0.1-1,0.1-1.5c0.2-0.4,0.5-0.7,0.9-0.8c0.3,0,0.6,0,0.9,0.2c0.8,0.5,1.5,1.1,2,1.9c-1.7,1.4-2.5,3.5-2.4,5.6
					c-0.1,2.6,1.1,5.1,3.3,6.6c0.5,0.3,1,0.5,1.6,0.5c0.4,0,0.7-0.1,1-0.3c1.6-1.1,1.2-4.7,1-5.4c-0.5-3.3-3.4-9.2-6-10.3
					c-0.5-0.2-1.1-0.3-1.7-0.2C43.2,79.8,42.5,80.4,42.1,81.2z M48,84.2c1.2,1.9,2,4,2.4,6.1c0.2,1.4,0.2,3.6-0.5,4.1
					c-0.3,0.2-0.8-0.1-1.1-0.3c-1.7-1.3-2.7-3.3-2.6-5.4C46.1,87,46.8,85.3,48,84.2z"/>
				<path class="st2" d="M77.3,127.6L77.3,127.6c-13.4,0-28.7-12.1-28.7-25.5V57.5c0-13.4,10.9-24.3,24.3-24.3l0,0h8.7
					c13.4,0,24.3,10.9,24.3,24.3v44.6C106,115.5,90.8,127.6,77.3,127.6z"/>
				<path class="st12" d="M56.8,74.1c-0.2,0.1-0.5,0-0.6-0.2s0-0.3,0.1-0.5c3.1-3,7.9-3.6,11.6-1.5c0.2,0.1,0.3,0.4,0.1,0.6
					c-0.1,0.1-0.2,0.2-0.4,0.2C63.9,72.1,60.2,72.6,56.8,74.1z"/>
				<path class="st12" d="M98.5,74.1c0.2,0.1,0.5,0,0.6-0.2s0-0.3-0.1-0.5c-3.1-3-7.9-3.6-11.6-1.5c-0.2,0.1-0.3,0.4-0.1,0.6
					c0.1,0.1,0.3,0.2,0.4,0.2C91.3,72.1,95.1,72.6,98.5,74.1L98.5,74.1z"/>
				
					<radialGradient id="SVGID_3_" cx="700.61" cy="396.66" r="14.05" gradientTransform="matrix(1 0 0 1 0 76)" gradientUnits="userSpaceOnUse">
					<stop  offset="0" style="stop-color:#F0BFD9;stop-opacity:0.95"/>
					<stop  offset="4.000000e-02" style="stop-color:#EEBCD3;stop-opacity:0.88"/>
					<stop  offset="0.15" style="stop-color:#E9B3C2;stop-opacity:0.65"/>
					<stop  offset="0.27" style="stop-color:#E4ABB2;stop-opacity:0.45"/>
					<stop  offset="0.39" style="stop-color:#E1A4A6;stop-opacity:0.29"/>
					<stop  offset="0.51" style="stop-color:#DE9F9C;stop-opacity:0.16"/>
					<stop  offset="0.62" style="stop-color:#DC9C96;stop-opacity:7.000000e-02"/>
					<stop  offset="0.73" style="stop-color:#DA9A91;stop-opacity:2.000000e-02"/>
					<stop  offset="0.83" style="stop-color:#DA9990;stop-opacity:0"/>
					<stop  offset="1" style="stop-color:#DA9990;stop-opacity:0"/>
				</radialGradient>
				<ellipse class="st13" cx="94.4" cy="95.1" rx="14.1" ry="7"/>
				<path class="st7" d="M77.3,98.5l3-0.5c0.4,0,0.6-0.3,0.7-0.6c0-0.2-0.1-0.4-0.2-0.5l-3-3c-0.3-0.2-0.7-0.2-0.9,0l-3,3
					c-0.3,0.2-0.3,0.7,0,0.9c0.1,0.1,0.3,0.2,0.5,0.2L77.3,98.5z"/>
				<circle class="st14" cx="64.5" cy="81.7" r="3.4"/>
				<circle class="st14" cx="89.2" cy="81.7" r="3.4"/>
				<path class="st15" d="M118.1,60.8c-1.2,0-2.5-0.2-3.7-0.5c0-8.6-2.2-23.2-15.8-30.1c-4.4-2.2-21.2-7.1-32,0.6c0,0-0.5-3,0.6-3.8
					c-3,0.4-5.4,2.6-6.3,5.4c0,0-9.8-2.2-12.2,2.4c0,0,2.7-0.3,4.2,0.7c-16.1,7.6-10.8,31.3-10.8,31.3c0.9,3.1,1.6,11.6,6.6,16.2
					l0.2-15.9c0,0,3.8-15.5,7.9-16c0.5,1.6,1.4,3.1,2.5,4.4c2.8,5.9,9,13.5,21.6,12.2c0,0-7.1-1-10.3-4.7c6.8,2.4,16.8,3.5,31.5,1.2
					c0,0,1.4-0.1,3.5-0.3c0.2,0.7,0.4,1.5,0.4,2.3c0,7.6-0.4,0.3,0,17.5c0,0,6.8-8.1,7.9-16.8c0,0,0.2-0.1,0.3-2.8
					c1.5-0.5,2.9-1.3,4.2-2.4c0.3-0.2,0.4-0.5,0.2-0.8C118.6,60.9,118.3,60.7,118.1,60.8z"/>
				<path class="st15" d="M108.5,31.1c0,9.1-13.1,10.8-21.6,10.8s-9.3-1.7-9.3-10.8S84.5,14.7,93,14.7S108.5,22.1,108.5,31.1z"/>
				<path class="st16" d="M78.5,28c5.3-3.5,11-4.6,16-2.7s8.5,6.6,10.2,12.6C98.2,30.3,88.3,26.6,78.5,28z"/>
				<path class="st7" d="M73.2,119.2c2.3,2.6,6.2,3,8.9,0.7c0.2-0.2,0.5-0.4,0.7-0.7C79.7,120.5,76.3,120.5,73.2,119.2z"/>
				<path class="st7" d="M63.8,105.2c-2.5,2.5-2.4,6.5,0,8.9c0.2,0.2,0.5,0.4,0.7,0.6c-0.8-1.5-1.2-3.1-1.4-4.7
					C63,108.5,63.2,106.8,63.8,105.2z"/>
				<path class="st7" d="M92.3,105.2c2.5,2.5,2.4,6.5,0,8.9c-0.2,0.2-0.5,0.4-0.7,0.6c0.8-1.5,1.2-3.1,1.4-4.7
					C93,108.5,92.8,106.8,92.3,105.2z"/>
				<path class="st17" d="M76.9,111.9c-5.5,0-8.2-2.4-8.4-2.6l0.9-1l-0.5,0.5l0.5-0.5c0,0,5.7,5,17.5-0.1l0.5,1.2
					C84.2,111,80.6,111.8,76.9,111.9z"/>
				<path class="st2" d="M51.6,369.9c5.7,0,11.3-1,16.6-3v-0.1L68,354.3l-7.6,0.6c-0.2,3,0,8.7-11.6,10.7c-1.7,0.3-3.6,0.5-5.3,1
					l-0.8,0.2C41.8,368.3,42.8,370.1,51.6,369.9z"/>
				<path class="st18" d="M69.3,370C69.3,369.9,69.3,369.9,69.3,370c0.1-0.5-0.5-3.3-0.4-3.4s-0.2,0.1-0.7,0.3l0,0v0.1
					c-5.3,2-10.9,3-16.6,3c-8.8,0.2-9.8-1.6-8.9-3.2l0.8-0.2l-0.8,0.1c-0.5,0.1-0.9,0.1-1.2,0.2c-1,0.2-2,0.4-3,0.6
					c-2.5,0.4-4.8,1-5.3,3.3c-0.6,2.8,3,4,5,4c7.6,0,15.1-0.5,22.6-1.3l0.5,1.3h7.4C68.8,373.1,69.5,371.5,69.3,370z"/>
				<path class="st2" d="M79.8,369.9c5.7,0,11.3-1,16.6-3v-0.1v-12.5h-7.5c-0.2,3-0.3,9.1-11.9,11.2c-1.7,0.3-3.6,0.5-5.3,1
					l-0.8,0.2C70,368.3,71,370.1,79.8,369.9z"/>
				<path class="st18" d="M97.5,370C97.5,369.9,97.5,369.9,97.5,370c0.1-0.5-0.5-3.3-0.4-3.4s-0.2,0.1-0.7,0.3l0,0v0.1
					c-5.3,2-10.9,3-16.6,3c-8.8,0.2-9.8-1.6-8.9-3.2l0.9-0.2l-0.8,0.1c-0.5,0.1-0.9,0.1-1.2,0.2c-1,0.2-2,0.4-3,0.6
					c-2.5,0.4-4.8,1-5.3,3.3c-0.6,2.8,3,4,5,4c7.6,0,15.1-0.5,22.6-1.3l0.5,1.3H97C97,373.1,97.8,371.5,97.5,370z"/>
				<polygon class="st19" points="44.2,69.9 48.9,67.2 48.9,71.4 44.2,73.4 				"/>
				<polygon class="st20" points="45.3,73.9 48.9,71.8 48.9,74.2 45.3,75.8 				"/>
				<polygon class="st19" points="110.7,68 106,65.3 106,69.5 110.7,71.6 				"/>
				<polygon class="st20" points="109.7,72 106,69.9 106,72.3 109.7,73.9 				"/>
				<g class="st21">
					<path class="st22" d="M96.9,78.5c-0.4,0-0.8,0-1.3,0c-2.5-0.1-5,0.4-7.4,1.3c-1.7,0.6-3.6,1.7-5.9,1.4
						c-1.2-0.2-2.4-0.4-3.7-0.5c-1.2,0.1-2.4,0.3-3.6,0.5c-2.3,0.4-4.2-0.8-5.9-1.4c-2.4-0.9-4.9-1.4-7.4-1.3c-0.4,0-0.8,0-1.3,0
						c-1.7,0-7,0.4-17,4V85c0.8,0.4,1.4,1.2,1.4,2.1c0.6,7.2,1.7,9.4,2.5,11c0.2,0.4,0.4,0.8,0.7,1.2v-0.1c0.5,0.8,1.1,1.4,1.8,2.1
						c2.7,2.3,6.1,3.5,9.6,3.4h1c4-0.2,8.2-2.6,11-6.3c1.6-2.1,3.9-6.2,3.9-13.5c0,0,0.4-1.6,3.2-1.6s3.2,1.6,3.2,1.6
						c0,7.3,2.4,11.4,3.9,13.5c2.8,3.7,7,6.1,11,6.3h1c3.5,0.1,7-1.1,9.6-3.4c0.7-0.6,1.3-1.3,1.8-2.1v0.1c0.3-0.4,0.5-0.8,0.7-1.2
						c0.9-1.6,1.9-3.8,2.5-11c0-0.9,0.5-1.7,1.4-2.1v-2.5C103.9,78.9,98.6,78.6,96.9,78.5z M60.5,103.4c-6.9,0.3-13.3-2.9-13.6-13.8
						c0,0,0-5.4,4.5-7.7c3.5-1.8,19.7-4.7,21.7,4.4S67.2,103,60.5,103.4L60.5,103.4z M96.9,103.4c-6.7-0.3-14.6-8.1-12.6-17.1
						s18.2-6.2,21.7-4.4c4.5,2.4,4.5,7.7,4.5,7.7C110.2,100.5,103.8,103.7,96.9,103.4L96.9,103.4z"/>
				</g>
				<path class="st22" d="M96.9,75.9c-0.4,0-0.8,0-1.3,0c-2.5-0.1-5,0.4-7.4,1.3c-1.7,0.6-3.6,1.7-5.9,1.4c-1.2-0.2-2.4-0.4-3.7-0.5
					c-1.2,0.1-2.4,0.3-3.6,0.5c-2.3,0.4-4.2-0.8-5.9-1.4c-2.4-0.9-4.9-1.4-7.4-1.3c-0.4,0-0.8,0-1.3,0c-1.7,0-7,0.4-17,4v2.6
					c0.8,0.4,1.4,1.2,1.4,2.1c0.6,7.2,1.7,9.4,2.5,11c0.2,0.4,0.4,0.8,0.7,1.2v-0.1c0.5,0.8,1.1,1.4,1.8,2.1
					c2.7,2.3,6.1,3.5,9.6,3.4h1c4-0.2,8.2-2.6,11-6.3c1.6-2.1,3.9-6.2,3.9-13.5c0,0,0.4-1.6,3.2-1.6s3.2,1.6,3.2,1.6
					c0,7.3,2.4,11.4,3.9,13.5c2.8,3.7,7,6.1,11,6.3h1c3.5,0.1,7-1.1,9.6-3.4c0.7-0.6,1.3-1.3,1.8-2.1v0.1c0.3-0.4,0.5-0.8,0.7-1.2
					c0.9-1.6,1.9-3.8,2.5-11c0-0.9,0.5-1.7,1.4-2.1V80C103.9,76.3,98.6,75.9,96.9,75.9z M60.5,100.8c-6.9,0.3-13.3-2.9-13.6-13.8
					c0,0,0-5.4,4.5-7.7c3.5-1.8,19.7-4.7,21.7,4.4S67.2,100.4,60.5,100.8z M96.9,100.8c-6.7-0.3-14.6-8.1-12.6-17.1
					s18.2-6.2,21.7-4.4c4.5,2.4,4.5,7.7,4.5,7.7C110.2,97.9,103.8,101.1,96.9,100.8L96.9,100.8z"/>
				<g class="st21">
					<path class="st22" d="M96.9,78.5c-0.4,0-0.8,0-1.3,0c-2.5-0.1-5,0.4-7.4,1.3c-1.7,0.6-3.6,1.7-5.9,1.4
						c-1.2-0.2-2.4-0.4-3.7-0.5c-1.2,0.1-2.4,0.3-3.6,0.5c-2.3,0.4-4.2-0.8-5.9-1.4c-2.4-0.9-4.9-1.4-7.4-1.3c-0.4,0-0.8,0-1.3,0
						c-1.7,0-7,0.4-17,4V85c0.8,0.4,1.4,1.2,1.4,2.1c0.6,7.2,1.7,9.4,2.5,11c0.2,0.4,0.4,0.8,0.7,1.2v-0.1c0.5,0.8,1.1,1.4,1.8,2.1
						c2.7,2.3,6.1,3.5,9.6,3.4h1c4-0.2,8.2-2.6,11-6.3c1.6-2.1,3.9-6.2,3.9-13.5c0,0,0.4-1.6,3.2-1.6s3.2,1.6,3.2,1.6
						c0,7.3,2.4,11.4,3.9,13.5c2.8,3.7,7,6.1,11,6.3h1c3.5,0.1,7-1.1,9.6-3.4c0.7-0.6,1.3-1.3,1.8-2.1v0.1c0.3-0.4,0.5-0.8,0.7-1.2
						c0.9-1.6,1.9-3.8,2.5-11c0-0.9,0.5-1.7,1.4-2.1v-2.5C103.9,78.9,98.6,78.6,96.9,78.5z M60.5,103.4c-6.9,0.3-13.3-2.9-13.6-13.8
						c0,0,0-5.4,4.5-7.7c3.5-1.8,19.7-4.7,21.7,4.4S67.2,103,60.5,103.4L60.5,103.4z M96.9,103.4c-6.7-0.3-14.6-8.1-12.6-17.1
						s18.2-6.2,21.7-4.4c4.5,2.4,4.5,7.7,4.5,7.7C110.2,100.5,103.8,103.7,96.9,103.4L96.9,103.4z"/>
				</g>
				<path class="st23" d="M96.9,75.9c-0.4,0-0.8,0-1.3,0c-2.5-0.1-5,0.4-7.4,1.3c-1.7,0.6-3.6,1.7-5.9,1.4c-1.2-0.2-2.4-0.4-3.7-0.5
					c-1.2,0.1-2.4,0.3-3.6,0.5c-2.3,0.4-4.2-0.8-5.9-1.4c-2.4-0.9-4.9-1.4-7.4-1.3c-0.4,0-0.8,0-1.3,0c-1.7,0-7,0.4-17,4v2.6
					c0.8,0.4,1.4,1.2,1.4,2.1c0.6,7.2,1.7,9.4,2.5,11c0.2,0.4,0.4,0.8,0.7,1.2v-0.1c0.5,0.8,1.1,1.4,1.8,2.1
					c2.7,2.3,6.1,3.5,9.6,3.4h1c4-0.2,8.2-2.6,11-6.3c1.6-2.1,3.9-6.2,3.9-13.5c0,0,0.4-1.6,3.2-1.6s3.2,1.6,3.2,1.6
					c0,7.3,2.4,11.4,3.9,13.5c2.8,3.7,7,6.1,11,6.3h1c3.5,0.1,7-1.1,9.6-3.4c0.7-0.6,1.3-1.3,1.8-2.1v0.1c0.3-0.4,0.5-0.8,0.7-1.2
					c0.9-1.6,1.9-3.8,2.5-11c0-0.9,0.5-1.7,1.4-2.1V80C103.9,76.3,98.6,75.9,96.9,75.9z M60.5,100.8c-6.9,0.3-13.3-2.9-13.6-13.8
					c0,0,0-5.4,4.5-7.7c3.5-1.8,19.7-4.7,21.7,4.4S67.2,100.4,60.5,100.8z M96.9,100.8c-6.7-0.3-14.6-8.1-12.6-17.1
					s18.2-6.2,21.7-4.4c4.5,2.4,4.5,7.7,4.5,7.7C110.2,97.9,103.8,101.1,96.9,100.8L96.9,100.8z"/>
				<path class="st24" d="M114,63.3c-3.8,0.3-7.7,0.2-11.5-0.3s-7.6-1.4-11.2-2.7c-1.8-0.7-3.6-1.5-5.3-2.3c-1.7-0.9-3.4-1.9-4.9-3
					c-1.6-1.1-3-2.4-4.4-3.8c-1.3-1.4-2.5-2.9-3.6-4.4c2.4,2.9,5.3,5.5,8.4,7.6s6.5,3.8,10.1,5.1s7.3,2.3,11,2.9
					c1.9,0.3,3.7,0.6,5.6,0.8S112.1,63.3,114,63.3z"/>
				<path class="st24" d="M103.1,63.2c-3.8,0.3-7.7,0.2-11.5-0.3s-7.6-1.4-11.2-2.7c-1.8-0.7-3.6-1.5-5.3-2.3
					c-1.7-0.9-3.4-1.9-4.9-3c-1.6-1.1-3-2.4-4.4-3.8c-1.3-1.4-2.5-2.9-3.6-4.4c2.4,2.9,5.3,5.5,8.4,7.6s6.5,3.8,10,5
					c3.6,1.3,7.3,2.3,11,2.9c1.9,0.3,3.8,0.6,5.6,0.8S101.2,63.1,103.1,63.2z"/>
			</g>
		</g>
	</g>
</g>
</svg>
