<?xml version="1.0" encoding="utf-8"?>
<!-- Generator: Adobe Illustrator 22.1.0, SVG Export Plug-In . SVG Version: 6.00 Build 0)  -->
<svg version="1.1" id="Layer_1" xmlns="http://www.w3.org/2000/svg" xmlns:xlink="http://www.w3.org/1999/xlink" x="0px" y="0px"
	 viewBox="0 0 154 154" style="enable-background:new 0 0 154 154;" xml:space="preserve">
<style type="text/css">
	.st0{fill:#9FBEAF;}
	.st1{clip-path:url(#SVGID_2_);fill:#5A6168;}
	.st2{clip-path:url(#SVGID_2_);}
	.st3{fill:#FFD7BE;}
	.st4{fill:#9A8479;}
	.st5{fill:#5A6168;}
	.st6{fill:#B5B8BB;}
	.st7{fill:none;stroke:#94989D;stroke-width:0.8543;stroke-linecap:round;stroke-linejoin:round;stroke-miterlimit:10;}
	.st8{clip-path:url(#SVGID_2_);fill:#FACEA8;}
	.st9{clip-path:url(#SVGID_2_);fill:#F0D0B3;}
	.st10{clip-path:url(#SVGID_2_);fill:#EBC19C;}
	.st11{clip-path:url(#SVGID_2_);fill:#FFFFFF;}
	.st12{fill:#4C5258;}
	.st13{fill:#F0D0B3;}
	.st14{fill:#EBC19C;}
	.st15{fill:#F5E0CD;}
	.st16{fill:#C3996B;}
	.st17{fill:#FFFFFF;}
	.st18{fill:#A87C4F;}
	.st19{fill:#DEB18A;}
	.st20{fill:#58595B;}
	.st21{fill:#F9EC31;}
	.st22{fill:#FACEA8;}
	.st23{fill:#DFE0E0;}
</style>
<g>
	<circle class="st0" cx="77" cy="77" r="77"/>
	<g>
		<defs>
			<circle id="SVGID_1_" cx="77" cy="77" r="77"/>
		</defs>
		<clipPath id="SVGID_2_">
			<use xlink:href="#SVGID_1_"  style="overflow:visible;"/>
		</clipPath>
		<path class="st1" d="M60.4,183.3c1.3-2.3,4.9-4.3,7.9-4.3h16.5c3,0,6.5,1.9,7.9,4.3c1.3,2.3,1.4,6.5,0,9.1L87.1,204
			c-1.3,2.7-4.9,4.9-7.8,4.9H74c-3,0-6.5-2.2-7.8-4.9l-5.7-11.5C59,189.8,59.1,185.7,60.4,183.3z"/>
		<g class="st2">
			<path class="st3" d="M54.3,298.6c8.7-0.2,14.3-2.2,16.2-2.9v-0.1L70.4,284h-7.3c-0.2,2.9-0.2,8.3-11.6,10.2
				c-1.6,0.3-3.5,0.5-5.2,0.9c-0.3,0.1-0.5,0.1-0.8,0.2C44.8,297.1,45.7,298.9,54.3,298.6z"/>
			<path class="st4" d="M71.6,298.7C71.6,298.7,71.6,298.6,71.6,298.7c0.1-0.4-0.4-3.2-0.4-3.3c0,0-0.2,0.1-0.7,0.3c0,0,0,0,0-0.1
				v0.1c-1.9,0.8-7.5,2.7-16.2,2.9c-8.6,0.2-9.5-1.5-8.7-3.1c0.3-0.1,0.5-0.1,0.8-0.2c-0.3,0-0.5,0.1-0.7,0.1
				c-0.4,0.1-0.8,0.1-1.1,0.2c-0.9,0.2-2,0.4-3,0.6c-2.4,0.4-4.7,1-5.2,3.2c-0.6,2.7,2.9,3.8,4.9,3.9c8.3,0,13.7-0.5,22-1.3l0.5,1.3
				H71C71,301.7,71.8,300.2,71.6,298.7z"/>
			<path class="st3" d="M75.1,298.6c8.7-0.2,14.3-2.2,16.2-2.9v-0.1L91.2,284h-7.3c-0.2,2.9-0.2,8.3-11.6,10.2
				c-1.6,0.3-3.5,0.5-5.2,0.9c-0.3,0.1-0.5,0.1-0.8,0.2C65.6,297.1,66.5,298.9,75.1,298.6z"/>
			<path class="st4" d="M92.4,298.7C92.4,298.7,92.4,298.6,92.4,298.7c0.1-0.4-0.4-3.2-0.4-3.3c0,0-0.2,0.1-0.7,0.3c0,0,0,0,0-0.1
				v0.1c-1.9,0.8-7.5,2.7-16.2,2.9c-8.6,0.2-9.5-1.5-8.7-3.1c0.3-0.1,0.5-0.1,0.8-0.2c-0.3,0-0.5,0.1-0.7,0.1
				c-0.4,0.1-0.8,0.1-1.1,0.2c-0.9,0.2-2,0.4-3,0.6c-2.4,0.4-4.7,1-5.2,3.2c-0.6,2.7,2.9,3.8,4.9,3.9c8.3,0,13.7-0.5,22-1.3l0.5,1.3
				h7.2C91.8,301.7,92.6,300.2,92.4,298.7z"/>
			<g>
				<path class="st5" d="M72.5,180.7L71,272c-0.1,1.1,0,2.6-0.6,3.5c-0.1,0.1-0.1,0.2-0.2,0.3c-0.1,0.7,0.7,1.2,0.7,1.9
					c0,0.2-0.1,0.3-0.2,0.4c-0.4,1,0,3.6,0,4.7l-8.1,0.1c0-1-0.3-3.5,0.2-4.4c0.2-0.5,0.4-0.5,0.2-1c-0.2-0.8-1-1.8-0.8-2.6
					c0.1-0.5,0.5-0.9,0.5-1.4c0-0.6,0.2-1.5,0-1.9c-0.2-0.5-0.2-3.9-0.3-4.4l-5.4-86c-0.3-5.1,3.1-9.4,7.5-9.5
					C69,171.5,72.5,175.6,72.5,180.7z"/>
				<polygon class="st6" points="62.1,288.4 71.4,288.2 71.4,280.9 61.7,281.1 				"/>
				<path class="st7" d="M69.6,279.2c0,0-4.8-2.3-5.7-7"/>
			</g>
			<g>
				<path class="st5" d="M96.1,180.9l-4,91.2c-0.1,1.1-0.1,2.6-0.7,3.5c-0.1,0.1-0.1,0.2-0.2,0.3c-0.2,0.7,0.7,1.2,0.7,1.9
					c0,0.2-0.1,0.3-0.2,0.4c-0.4,1-0.1,3.6-0.1,4.7l-8.1-0.2c0-1-0.2-3.5,0.3-4.4c0.3-0.5,0.4-0.5,0.3-1c-0.1-0.8-0.9-1.8-0.8-2.6
					c0.1-0.5,0.5-0.9,0.5-1.4c0-0.6,0.2-1.4,0.1-1.9s-0.1-3.9-0.2-4.4l-3-86.1c-0.1-5.1,3.4-9.3,7.8-9.2
					C92.8,171.6,96.3,175.8,96.1,180.9z"/>
				<polygon class="st6" points="82.7,288.3 92,288.3 92.2,281 82.5,281 				"/>
				<path class="st7" d="M90.4,279.2c0,0-4.7-2.5-5.5-7.1"/>
			</g>
		</g>
		<path class="st8" d="M96.7,133c1.4-3,5-14.8,5-14.8c-4.6-9.4-21.5-7.5-24.8-7.8l0,0c0,0-0.1,0-0.3,0c-0.2,0-0.3,0-0.3,0l0,0
			c-3.3,0.3-20.3-1.6-25,7.8c0,0,3.7,11.7,5.2,14.8l-3.4,94.7l0,0c-0.4,1.9,0.7,3.7,2.6,4.2c1.7,0.5,3.4-0.4,4.2-1.9
			c-0.2,1.7,0.9,3.4,2.6,3.9c1.9,0.5,3.8-0.5,4.4-2.3l0,0c-0.2,1.9,1.2,3.6,3,3.9c1.8,0.3,3.5-0.8,4-2.5l0,0
			c0.4,1.7,1.9,2.9,3.7,2.9c1.8-0.1,3.3-1.5,3.5-3.2l0,0c0.6,1.7,2.4,2.7,4.2,2.3c1.8-0.4,3-2.1,2.8-3.9c0.7,1.6,2.5,2.5,4.3,2
			s2.9-2.3,2.6-4.1l0,0c0.7,1.6,2.2,2.6,3.6,2.2c1.5-0.4,2.3-2.3,1.9-4.2L96.7,133z"/>
		<path class="st9" d="M174.9,38.4"/>
		<path class="st10" d="M84.4,105.9v-1.5h-15v1.7C72.1,107.9,77,109.8,84.4,105.9z"/>
		<path class="st11" d="M76.2,119.9h1c4.1,0,7.5-3.3,7.5-7.5v-1.9c-3.5-0.2-6.4,0-7.6-0.1l0,0c0,0-0.1,0-0.3,0c-0.2,0-0.3,0-0.3,0
			l0,0c-1.2,0.1-4.2-0.1-7.7,0.1v1.9C68.8,116.6,72.1,119.9,76.2,119.9z"/>
		<path class="st9" d="M76.7,118.2L76.7,118.2c-4.1,0-7.5-3.3-7.5-7.5V81.9c0-4.1,3.3-7.5,7.5-7.5l0,0c4.1,0,7.5,3.3,7.5,7.5v28.8
			C84.2,114.9,80.8,118.2,76.7,118.2z"/>
		<g class="st2">
			<path class="st12" d="M43.9,45.1c0,0-4.2,30-12.1,35c0,0-1.1,3.8,4.7,8c5.8,4.1,53.3,23.1,83.9-3.6c0,0-0.2,0.2-1.7-2
				c-5.7-8.7-7.5-23.5-7.9-31.3C110.5,43.4,43.9,45.1,43.9,45.1z"/>
			<g>
				<g>
					<path class="st13" d="M104.3,66.2c-1.1,1.8-2,4.1-2.3,5.7c-0.2,1.3-0.1,3.4,0.4,3.8c0.3,0.2,0.8-0.1,1-0.3
						c1.4-0.9,2.4-2.9,2.4-5.1C105.9,68.5,105.3,67,104.3,66.2z"/>
					<path class="st13" d="M108.2,60.1c-2.3-0.4-6,2.4-6,2.4c-4.2,3.5-1.7,19.7,1.9,19.1s3.3-5.8,3.3-5.8c1.8-1.1,3.3-5.8,3.3-5.8
						C113.7,61.1,108.2,60.1,108.2,60.1z M109.9,65.6c-0.1,0.7-0.4,1.3-0.6,1.8l-1.2-0.5c0.2-0.5,0.5-1.1,0.6-1.6
						c0.1-0.4,0.1-0.9-0.1-1.4c-0.2-0.4-0.5-0.7-0.9-0.8c-0.2,0-0.5,0-0.9,0.2c-0.6,0.2-1.2,0.9-1.9,1.8c1.4,1,2.2,3,2.2,5.3
						c0,2.7-1.2,5-3,6.1c-0.6,0.3-1.1,0.5-1.5,0.5c-0.3,0-0.6-0.1-0.9-0.3c-1.5-1-1.1-4.4-1-5c0.5-3.1,3.2-8.6,5.6-9.5
						c0.4-0.1,0.9-0.3,1.5-0.2c0.8,0.1,1.5,0.7,1.8,1.5C110,64.1,110.1,64.8,109.9,65.6z"/>
					<path class="st14" d="M107.9,62c-0.6-0.1-1.2,0.1-1.5,0.2c-2.5,1-5.1,6.5-5.6,9.5c-0.1,0.7-0.5,4,1,5c0.3,0.2,0.6,0.3,0.9,0.3
						c0.5,0,1-0.2,1.5-0.5c1.8-1.1,3-3.5,3-6.1c0-2.3-0.8-4.2-2.2-5.3c0.6-0.9,1.3-1.5,1.9-1.8c0.4-0.1,0.6-0.2,0.9-0.2
						c0.3,0.1,0.7,0.4,0.9,0.8c0.2,0.5,0.2,1,0.1,1.4c-0.1,0.5-0.3,1-0.6,1.6l1.2,0.5c0.2-0.6,0.5-1.2,0.6-1.8
						c0.2-0.8,0.1-1.5-0.2-2.2C109.4,62.7,108.7,62.1,107.9,62z M105.9,70.4c0,2.2-1,4.2-2.4,5.1c-0.3,0.2-0.8,0.4-1,0.3
						c-0.6-0.4-0.6-2.4-0.4-3.8c0.3-1.7,1.2-3.9,2.3-5.7C105.3,67,105.9,68.5,105.9,70.4z"/>
				</g>
				<g>
					<path class="st13" d="M49.8,66.2c1.1,1.8,2,4.1,2.3,5.7c0.2,1.3,0.1,3.4-0.4,3.8c-0.3,0.2-0.8-0.1-1-0.3
						c-1.4-0.9-2.4-2.9-2.4-5.1C48.1,68.5,48.7,67,49.8,66.2z"/>
					<path class="st13" d="M43.4,70c0,0,1.5,4.7,3.3,5.8c0,0-0.3,5.2,3.3,5.8c3.6,0.6,6.1-15.6,1.9-19.1c0,0-3.6-2.9-6-2.4
						C45.9,60.1,40.3,61.1,43.4,70z M44.3,63.5c0.3-0.8,1-1.4,1.8-1.5c0.6-0.1,1.2,0.1,1.5,0.2c2.5,1,5.1,6.5,5.6,9.5
						c0.1,0.7,0.5,4-1,5C52,76.9,51.7,77,51.4,77c-0.5,0-1-0.2-1.5-0.5c-1.8-1.1-3-3.5-3-6.1c0-2.3,0.8-4.2,2.2-5.3
						c-0.6-0.9-1.3-1.5-1.9-1.8c-0.4-0.1-0.6-0.2-0.9-0.2c-0.3,0.1-0.7,0.4-0.9,0.8c-0.2,0.5-0.2,1-0.1,1.4c0.1,0.5,0.3,1,0.6,1.6
						l-1.2,0.5c-0.2-0.6-0.5-1.2-0.6-1.8C44,64.8,44,64.1,44.3,63.5z"/>
					<path class="st14" d="M44.3,63.5c-0.3,0.6-0.3,1.4-0.2,2.2c0.1,0.7,0.4,1.3,0.6,1.8l1.2-0.5c-0.2-0.5-0.5-1.1-0.6-1.6
						c-0.1-0.4-0.1-0.9,0.1-1.4c0.2-0.4,0.5-0.7,0.9-0.8c0.2,0,0.5,0,0.9,0.2c0.6,0.2,1.2,0.9,1.9,1.8c-1.4,1-2.2,3-2.2,5.3
						c0,2.7,1.2,5,3,6.1c0.6,0.3,1.1,0.5,1.5,0.5c0.3,0,0.6-0.1,0.9-0.3c1.5-1,1.1-4.4,1-5c-0.5-3.1-3.2-8.6-5.6-9.5
						c-0.4-0.1-0.9-0.3-1.5-0.2C45.3,62.1,44.6,62.7,44.3,63.5z M49.8,66.2c1.1,1.8,2,4.1,2.3,5.7c0.2,1.3,0.1,3.4-0.4,3.8
						c-0.3,0.2-0.8-0.1-1-0.3c-1.4-0.9-2.4-2.9-2.4-5.1C48.1,68.5,48.7,67,49.8,66.2z"/>
				</g>
			</g>
			<path class="st15" d="M77,106.6L77,106.6c-12.5,0-26.7-11.2-26.7-23.8V41.3c0-12.5,10.1-22.6,22.6-22.6H81
				c12.5,0,22.6,10.1,22.6,22.6v41.5C103.7,95.4,89.5,106.6,77,106.6z"/>
			<g>
				<path class="st16" d="M67.6,87c0.8,5.4,4.7,9.5,9.4,9.5c4.7,0,8.6-4.1,9.4-9.5c-2,2-5.5,2.2-9.4,2.2S69.7,89,67.6,87z"/>
				<path class="st17" d="M86.1,87.9c0.2-0.6,0.4-1.3,0.5-2c0-0.2-0.2-0.3-0.3-0.2c-2.1,1.7-5.5,1.9-9.3,1.9s-7.2-0.2-9.3-1.9
					c-0.1-0.1-0.4,0-0.3,0.2c0.1,0.7,0.3,1.4,0.5,2c2.2,1.6,5.4,1.8,9.1,1.8S84,89.5,86.1,87.9z"/>
			</g>
			<path class="st14" d="M70.9,99.6c1.2,1.3,2.8,2.1,4.6,2.1c1.8,0,3.4-0.8,4.6-2.1c-1.3,0.6-2.9,0.9-4.6,0.9
				C73.8,100.6,72.2,100.2,70.9,99.6z"/>
			<g>
				<path class="st18" d="M57.9,56.8c-0.4,0.2-0.8-0.3-0.4-0.6c1.4-1.4,3.2-2.3,5.2-2.5c2-0.2,3.9,0.2,5.6,1.2
					c0.4,0.2,0.2,0.8-0.3,0.7c-1.6-0.3-3.3-0.3-5.1-0.1C61,55.7,59.4,56.1,57.9,56.8z"/>
				<path class="st18" d="M96.7,56.8c0.4,0.2,0.8-0.3,0.4-0.6c-1.4-1.4-3.2-2.3-5.2-2.5s-3.9,0.2-5.6,1.2c-0.4,0.2-0.2,0.8,0.3,0.7
					c1.6-0.3,3.3-0.3,5.1-0.1C93.5,55.7,95.2,56.1,96.7,56.8z"/>
			</g>
			<path class="st19" d="M77,79.5l2.7-0.5c0.5,0,0.8-0.6,0.4-1l-2.7-2.7c-0.2-0.2-0.6-0.2-0.9,0L73.8,78c-0.4,0.4-0.1,1,0.4,1
				L77,79.5z"/>
			<g>
				<g>
					<g>
						<circle class="st20" cx="65.1" cy="63.9" r="3.2"/>
					</g>
				</g>
			</g>
			<g>
				<g>
					<g>
						<circle class="st20" cx="88.1" cy="63.9" r="3.2"/>
					</g>
				</g>
			</g>
			<path class="st12" d="M114.9,44.4c-0.9,0-2.1-0.1-3.4-0.5c0-8-2.1-21.6-14.7-28c-4.1-2-19.8-6.5-29.8,0.7c0,0-0.4-2.8,0.5-3.6
				c0,0-4.6,0.5-5.8,5.1c0,0-9.2-2-11.4,2.2c0,0,2.5-0.3,3.9,0.7c-15,7-10,29.1-10,29.1c0.8,2.9,1.5,10.8,6.1,15l0.2-14.8
				c0,0,3.6-14.4,7.4-14.9c0,0,0.5,1.8,2.3,4.1c2.6,5.5,8.4,12.6,20.1,11.4c0,0-6.6-0.9-9.6-4.4c6.3,2.2,15.6,3.3,29.4,1.1
				c0,0,1.3-0.1,3.2-0.3c0.2,0.7,0.4,1.4,0.4,2.1c0,7-0.3,0.3,0,16.3c0,0,6.3-7.6,7.4-15.6c0,0,0.2-0.1,0.3-2.6
				c1.4-0.3,2.7-1.3,3.9-2.2C115.7,45.1,115.5,44.4,114.9,44.4z"/>
			<path class="st21" d="M50.2,53.8L45.3,56c-0.9,0.4-2,0-2.4-0.9l-0.2-0.5c-0.4-0.9,0-2,0.9-2.4l4.9-2.2c0.9-0.4,2,0,2.4,0.9
				l0.2,0.5C51.5,52.3,51.1,53.4,50.2,53.8z"/>
			<path class="st21" d="M103.7,53.9l4.9,2.2c0.9,0.4,2,0,2.4-0.9l0.2-0.5c0.4-0.9,0-2-0.9-2.4l-4.9-2.2c-0.9-0.4-2,0-2.4,0.9
				l-0.2,0.5C102.4,52.4,102.8,53.5,103.7,53.9z"/>
		</g>
		<g class="st2">
			<g>
				<path class="st3" d="M109.1,200.3c0.5,1.1,1.8,1.5,2.9,0.9l2.4-1.2c0,0.8,0.2,1.6,0.5,2.4v11.7c0,1.2,1,2.2,2.1,2.2
					c0.7,0,1.3-0.3,1.7-0.8v0.4c0,1.2,1,2.2,2.1,2.2c1.2,0,2.2-1,2.2-2.1v-0.1c0.3,0.2,0.7,0.3,1.1,0.3c1.2,0,2.2-1,2.2-2.1v-2.2
					c0.3,0.3,0.8,0.6,1.3,0.6c1,0,1.7-0.8,1.7-1.7v-8.4c0.9-2.8,0.1-6.1-2.3-8.2c-2.7-2.3-6.5-2.4-9.2-0.5l-7.6,3.9
					C109,197.9,108.6,199.2,109.1,200.3z"/>
				<g>
					<path class="st14" d="M118.8,205.8c0.1,2.2,0.2,4.5,0.3,6.7c0,1.1,0.2,2.2,0.1,3.4c-0.1,0.9,0.5,1.8,1.6,2.1c0,0,0,0,0,0.1l0,0
						c-0.6,0.1-1.3,0-1.8-0.4s-0.8-1.1-0.9-1.8c-0.1-1.1,0.1-2.2,0.1-3.4C118.4,210.3,118.5,208,118.8,205.8
						C118.7,205.8,118.7,205.7,118.8,205.8C118.7,205.7,118.8,205.8,118.8,205.8z"/>
				</g>
				<g>
					<path class="st14" d="M122,205.9c0.1,1.9,0.2,3.8,0.3,5.7l0.1,1.4c0,0.5,0,1,0.1,1.3c0.1,0.7,0.7,1.4,1.6,1.7c0,0,0,0,0,0.1
						l0,0c-1,0.3-2.2-0.4-2.6-1.6c-0.2-0.6-0.1-1.1-0.1-1.5l0.1-1.4C121.6,209.7,121.7,207.8,122,205.9
						C121.9,205.8,121.9,205.8,122,205.9C122,205.8,122,205.8,122,205.9z"/>
				</g>
				<g>
					<path class="st14" d="M125.8,204.2c0.1,1.5,0.2,3,0.3,4.5l0.1,1.1v0.6c0,0.2,0,0.3,0,0.4c0.1,0.5,0.5,1.1,1.2,1.4
						c0,0,0,0,0,0.1l0,0c-0.8,0.3-1.9-0.3-2.1-1.2c-0.1-0.2-0.1-0.5-0.1-0.7v-0.6l0.1-1.1C125.5,207.2,125.6,205.7,125.8,204.2
						C125.7,204.2,125.8,204.1,125.8,204.2L125.8,204.2z"/>
				</g>
				<g>
					<path class="st14" d="M114.9,201c0.1,2.8,0.2,5.5,0.3,8.3c0,1.4,0.2,2.8,0.1,4.1c0,0.7-0.1,1.3,0.2,1.8
						c0.3,0.5,0.8,0.9,1.5,1.1c0,0,0,0,0,0.1l0,0c-0.7,0.1-1.5-0.2-2-0.8c-0.3-0.3-0.4-0.7-0.5-1.1c-0.1-0.4-0.1-0.7-0.1-1.1
						c-0.1-1.4,0.1-2.8,0.1-4.1C114.5,206.5,114.7,203.7,114.9,201C114.8,200.9,114.8,200.9,114.9,201
						C114.9,200.9,114.9,200.9,114.9,201z"/>
				</g>
			</g>
			<g>
				<path class="st22" d="M100.7,118.1l0.3,0.4l0.1,0.1c5.3,5.4,10.5,10.9,15.6,16.5c2.6,2.8,5.1,5.6,7.6,8.6
					c1.3,1.5,2.5,2.9,3.8,4.8l0.2,0.4l0.1,0.2l0.2,0.3c0.2,0.4,0.5,0.8,0.7,1.2c0.1,0.3,0.3,0.8,0.4,1.1l0.1,0.3v0.2v0.3l0.1,0.6
					v0.5c0,1.2,0,2.2,0,3.2c-0.2,4.4-0.6,8.6-1,12.8s-0.9,8.3-1.4,12.5c0,0.4-0.5,0.6-0.8,0.6l-7.6-0.9c-0.3,0-0.7-0.4-0.7-0.8
					c0,0,0.7-6.1,1.2-12.3c0.3-3.1,0.5-6.1,0.6-8.4c0.1-1.1,0.1-2.1,0.1-2.8s0-1,0-1.1l0,0c0-0.9,0-1.8-0.1-2.4v-0.2v-0.1l0,0l0,0
					l0,0l0,0h0.1l0.9-0.2c0.2,0,0.4,0,0.6-0.1c0.4-0.1,0.8-0.1,1.2-0.3c0.2-0.1,0.4-0.1,0.6-0.2l0.3-0.1h0.1c0.8-0.3-1,0.4-0.8,0.3
					l-0.2,0.1c-0.6,0.2-1.2,0.5-1.7,0.7l-0.8,0.4l0,0l0,0l-0.1-0.1l-0.2-0.2c-0.9-1.1-2.2-2.6-3.4-3.9c-2.5-2.7-5.1-5.3-7.7-8
					c-5.2-5.3-10.6-10.4-16-15.5l-0.1-0.1l-0.4-0.3c-2.8-2.5-3.5-6-1.7-8l1.6-1.7C94.4,114.7,98.1,115.4,100.7,118.1z"/>
				<polygon class="st3" points="123.9,194.7 119.1,194.1 119.8,187.6 124.7,188.2 				"/>
				<polygon class="st23" points="125.3,188.3 119.3,187.6 119.9,181.9 125.9,182.6 				"/>
			</g>
		</g>
		<g class="st2">
			<g>
				<path class="st3" d="M43.7,200.4c-0.5,1.1-1.8,1.5-2.9,0.9l-2.4-1.2c0,0.8-0.2,1.6-0.5,2.4v11.7c0,1.2-1,2.2-2.1,2.2
					c-0.7,0-1.3-0.3-1.7-0.8v0.4c0,1.2-1,2.2-2.1,2.2c-1.2,0-2.2-1-2.2-2.1V216c-0.3,0.2-0.7,0.3-1.1,0.3c-1.2,0-2.2-1-2.2-2.1V212
					c-0.3,0.3-0.8,0.6-1.3,0.6c-1,0-1.7-0.8-1.7-1.7v-8.4c-0.9-2.8-0.1-6.1,2.3-8.2c2.7-2.3,6.5-2.4,9.2-0.5l7.6,3.9
					C43.9,198,44.3,199.3,43.7,200.4z"/>
				<g>
					<path class="st14" d="M34.2,205.9c0.2,2.2,0.3,4.5,0.4,6.7c0,1.1,0.2,2.2,0.1,3.4c0,0.7-0.4,1.4-0.9,1.8
						c-0.5,0.4-1.2,0.6-1.8,0.4c0,0,0,0,0-0.1l0,0c1.1-0.3,1.7-1.2,1.6-2.1c-0.1-1.1,0-2.2,0.1-3.4C33.9,210.4,34,208.2,34.2,205.9
						C34.1,205.9,34.1,205.9,34.2,205.9L34.2,205.9z"/>
				</g>
				<g>
					<path class="st14" d="M31,206c0.1,1.9,0.3,3.8,0.4,5.7l0.1,1.4c0,0.5,0.1,0.9-0.1,1.5c-0.3,1.1-1.6,1.9-2.6,1.6c0,0,0,0,0-0.1
						l0,0c0.9-0.3,1.5-1,1.6-1.7c0.1-0.3,0-0.8,0.1-1.3l0.1-1.4C30.7,209.8,30.8,207.9,31,206C30.9,206,30.9,206,31,206L31,206z"/>
				</g>
				<g>
					<path class="st14" d="M27.1,204.3c0.1,1.5,0.3,3,0.4,4.5l0.1,1.1v0.6c0,0.2,0,0.5-0.1,0.7c-0.3,0.9-1.3,1.5-2.1,1.2
						c0,0,0,0,0-0.1l0,0c0.7-0.3,1.1-0.8,1.2-1.4c0-0.1,0-0.2,0-0.4v-0.6l0.1-1.1C26.8,207.3,26.9,205.8,27.1,204.3
						C27,204.3,27.1,204.3,27.1,204.3L27.1,204.3z"/>
				</g>
				<g>
					<path class="st14" d="M38.1,201.1c0.2,2.8,0.3,5.5,0.4,8.3c0.1,1.4,0.2,2.8,0.1,4.1c0,0.4,0,0.6-0.1,1.1
						c-0.1,0.4-0.2,0.8-0.5,1.1c-0.5,0.6-1.3,0.9-2,0.8c0,0,0,0,0-0.1l0,0c0.7-0.1,1.2-0.6,1.5-1.1s0.2-1,0.2-1.8
						c-0.1-1.4,0-2.8,0.1-4.1C37.7,206.6,37.8,203.9,38.1,201.1C38,201.1,38,201.1,38.1,201.1C38,201.1,38,201.1,38.1,201.1z"/>
				</g>
			</g>
			<g>
				<path class="st22" d="M52.2,118.2l-0.3,0.4l-0.1,0.1c-5.3,5.4-10.5,10.9-15.6,16.5c-2.6,2.8-5.1,5.6-7.6,8.6
					c-1.3,1.5-2.5,2.9-3.8,4.8l-0.2,0.4l-0.1,0.2l-0.2,0.3c-0.2,0.4-0.5,0.8-0.7,1.2c-0.1,0.3-0.3,0.8-0.4,1.1l-0.1,0.3v0.2v0.3
					l-0.1,0.6v0.5c0,1.2,0,2.2,0,3.2c0.2,4.4,0.6,8.6,1,12.8s0.9,8.3,1.4,12.5c0,0.4,0.5,0.6,0.8,0.6l7.6-0.9c0.3,0,0.7-0.4,0.7-0.8
					c0,0-0.7-6.1-1.2-12.3c-0.3-3.1-0.5-6.1-0.6-8.4c-0.1-1.1-0.1-2.1-0.1-2.8s0-1,0-1.1l0,0c0-0.9,0-1.8,0.1-2.4v-0.2v-0.1l0,0l0,0
					l0,0l0,0h-0.1l-0.9-0.2c-0.2,0-0.4,0-0.6-0.1c-0.4-0.1-0.8-0.1-1.2-0.3c-0.2-0.1-0.4-0.1-0.6-0.2l-0.3-0.1h-0.1
					c-0.8-0.3,1,0.4,0.8,0.3l0.2,0.1c0.6,0.2,1.2,0.5,1.7,0.7l0.8,0.4l0,0l0,0l0.1-0.1l0.2-0.2c0.9-1.1,2.2-2.6,3.4-3.9
					c2.5-2.7,5.1-5.3,7.7-8c5.2-5.3,10.6-10.4,16-15.5l0.1-0.1l0.4-0.3c2.8-2.5,3.5-6,1.7-8l-1.6-1.7
					C58.5,114.9,54.8,115.5,52.2,118.2z"/>
				<polygon class="st3" points="29,194.8 33.8,194.2 33,187.8 28.2,188.3 				"/>
				<polygon class="st23" points="27.6,188.4 33.6,187.7 32.9,182 27,182.7 				"/>
			</g>
		</g>
		<polygon class="st11" points="93.8,141.5 87.7,144 81.5,141.5 81.5,131.2 93.8,131.2 		"/>
	</g>
</g>
</svg>
