<?xml version="1.0" encoding="utf-8"?>
<!-- Generator: Adobe Illustrator 22.1.0, SVG Export Plug-In . SVG Version: 6.00 Build 0)  -->
<svg version="1.1" id="Layer_1" xmlns="http://www.w3.org/2000/svg" xmlns:xlink="http://www.w3.org/1999/xlink" x="0px" y="0px"
	 viewBox="0 0 154 154" style="enable-background:new 0 0 154 154;" xml:space="preserve">
<style type="text/css">
	.st0{fill:#9FBEAF;}
	.st1{clip-path:url(#SVGID_2_);fill:#FFFFFF;}
	.st2{clip-path:url(#SVGID_2_);fill:#F0D0B3;}
	.st3{clip-path:url(#SVGID_2_);fill:#A87C4F;}
	.st4{clip-path:url(#SVGID_2_);fill:#EBC19C;}
	.st5{clip-path:url(#SVGID_2_);fill:none;stroke:#EBC19C;stroke-width:0.99;stroke-linecap:round;stroke-linejoin:round;}
	.st6{clip-path:url(#SVGID_2_);fill:#D6B9BC;}
	.st7{clip-path:url(#SVGID_2_);fill:#DEB18A;}
	.st8{clip-path:url(#SVGID_2_);fill:#4C5258;}
	.st9{clip-path:url(#SVGID_2_);fill:#C3996B;}
	.st10{clip-path:url(#SVGID_2_);fill:url(#SVGID_3_);}
	.st11{clip-path:url(#SVGID_2_);fill:#58595B;}
	.st12{clip-path:url(#SVGID_2_);enable-background:new    ;}
	.st13{fill:#D6B9BC;}
	.st14{font-family:'Arial-BoldMT';}
	.st15{font-size:8.85px;}
	.st16{clip-path:url(#SVGID_2_);fill:#CFCFD0;}
	.st17{clip-path:url(#SVGID_2_);fill:#A5A8AB;}
	.st18{clip-path:url(#SVGID_2_);fill:#EC1C24;}
	.st19{clip-path:url(#SVGID_2_);fill:#005E88;}
</style>
<title>ic_teenage_boy</title>
<circle class="st0" cx="77" cy="77" r="77"/>
<g>
	<g>
		<defs>
			<circle id="SVGID_1_" cx="77" cy="77" r="77"/>
		</defs>
		<clipPath id="SVGID_2_">
			<use xlink:href="#SVGID_1_"  style="overflow:visible;"/>
		</clipPath>
		<path class="st1" d="M61.4,196.6c1.3-2.3,4.9-4.3,7.9-4.3h16.5c3,0,6.5,1.9,7.9,4.3c1.3,2.9,1.3,6.2,0,9.1L88,217.2
			c-1.6,2.9-4.6,4.7-7.8,4.9h-5.3c-3.3-0.2-6.2-2-7.8-4.9l-5.7-11.5C60,202.9,60,199.5,61.4,196.6z"/>
		<path class="st1" d="M64.5,180.1c-4,0.2-6.7,6.6-6,14.2l0,0l3.6,39.8c3.5,0.8,7.2,1.4,10.8,1.6L72,193.5
			C71.9,185.9,68.5,179.8,64.5,180.1z"/>
		<path class="st2" d="M62.7,239.8l5.4,62.8l6.2-0.4l-1.2-63l-0.1-3.3c-3.6-0.3-7.2-0.9-10.8-1.8L62.7,239.8z"/>
		<path class="st1" d="M97.6,194.3c0.7-7.6-2-14-6-14.3s-7.4,5.8-7.6,13.5l0,0l-1,42.2c3.6-0.2,7.2-0.8,10.8-1.7L97.6,194.3z"/>
		<path class="st2" d="M83.1,235.9l-0.1,3.3l-1.3,63l6.2,0.4l5.5-62.8l0.5-5.7C90.4,235,86.8,235.6,83.1,235.9z"/>
		<path class="st3" d="M91.7,180.1c-3.8-0.2-7,5.2-7.5,12.3H72c-0.5-7.1-3.7-12.5-7.5-12.3c-4,0.2-6.7,6.6-6,14.2l0,0l3.6,39.8
			c3.5,0.8,7.2,1.4,10.8,1.6l-0.3-14.1c0.9,0.3,1.8,0.5,2.8,0.5h5.3c0.9,0,1.9-0.2,2.7-0.5l-0.3,14.1c3.6-0.2,7.2-0.8,10.8-1.7
			l3.7-39.8C98.3,186.7,95.6,180.3,91.7,180.1z"/>
		<path class="st2" d="M31,161.5L31,161.5c0.1-0.1,0.2-0.2,0.4-0.2c0.2-0.1,0.4-0.2,0.7-0.2l0.5-0.1"/>
		<path class="st2" d="M39,153.3c4.8-6.3,9.2-12.9,13-19.9c1.9-3.4,5.1-5.2,7.3-4.1l0.5,0.3c2.2,1.2,2.3,5.1,0.2,8.5
			c-4.4,7.2-9.3,14-14.8,20.4c-2.8,3.4-6.1,6.4-9.6,9l-0.2,0.1l-0.1,0.1c-0.2,0.1-0.4,0.2-0.5,0.3c-0.3,0.2-0.7,0.3-1,0.4
			c-0.2,0-0.3,0.1-0.5,0.1h-0.4c-0.7,0-1.4-0.1-2-0.3c-0.7-0.2-1.4-0.5-2.1-0.9c-1-0.6-2-1.2-3-1.9c-1.8-1.3-3.4-2.6-5-4
			c-3.2-2.6-6.3-5.4-9.3-8.1l-2-2.3l4.4-4.7l2.1,2c3,2.6,6.1,5.2,9.2,7.6c1.6,1.2,3.2,2.4,4.8,3.4c0.7,0.5,1.5,0.9,2.3,1.3L39,153.3
			z"/>
		<path class="st2" d="M122.9,159.8L122.9,159.8c-0.1-0.1-0.2-0.2-0.4-0.2c-0.2-0.1-0.4-0.2-0.7-0.2c-0.2,0-0.3-0.1-0.5-0.1"/>
		<path class="st2" d="M114.9,151.6c-4.8-6.3-9.2-13-13-19.9c-1.9-3.4-5.1-5.2-7.3-4.1l-0.5,0.3c-2.2,1.2-2.3,5.1-0.2,8.5
			c4.4,7.2,9.3,14,14.8,20.4c2.8,3.4,6.1,6.4,9.6,9l0.2,0.1l0.1,0.1c0.2,0.1,0.4,0.2,0.5,0.3c0.3,0.2,0.7,0.3,1,0.4l0.5,0.1h0.4
			c0.7,0,1.4-0.1,2-0.3c0.7-0.2,1.4-0.5,2.1-0.9c1-0.6,2-1.2,3-1.9c1.8-1.3,3.4-2.6,5-4c3.2-2.6,6.2-5.4,9.3-8.1l2-2.3l-4.4-4.7
			l-2.1,2c-3,2.6-6.1,5.2-9.2,7.6c-1.6,1.2-3.2,2.4-4.8,3.4c-0.7,0.5-1.5,0.9-2.3,1.3L114.9,151.6z"/>
		<path class="st2" d="M136.6,137.8c0-2.1,1.3-4,3.3-4.8c0.5-0.2,0.9-0.3,1.4-0.3c0.1-0.7,0.4-1.3,0.8-1.9c1-1.2,2.4-2,4-2.1
			c1.2-0.1,2.3,0.3,3.1,1.1c0.7,0.2,1.3,0.6,1.9,0.9c0.6,0.2,1.2,0.6,1.6,1.1c0.4,0.6,0.7,1.2,0.9,1.9l-0.3,0.2
			c1.2,0.2,2.1,1.1,2.5,2.2c0.3,0.7,0.4,1.4,0.2,2.1l-0.2,0.1c0.3,0.3,0.6,0.7,0.8,1.1c0.8,2.8,0.3,5.8-1.3,8.1
			c-0.1,0.1-0.1,0.1-0.2,0.2c-0.7,0.9-1.5,1.6-2.5,2.1c-4.7,2.3-10.4,0-13.2-4.3C138,143.8,136.3,140.6,136.6,137.8z"/>
		<path class="st4" d="M153.5,141.7c0.3,0.6,0.3,1.3-0.1,1.8c-0.2,0.3-0.5,0.5-0.8,0.6c-0.3,0.1-0.7,0.1-1,0
			c-0.7-0.1-1.2-0.6-1.5-1.2c-0.3-0.6-0.4-1.3-0.3-1.9c0.1-0.7,0.3-1.3,0.7-1.8s0.9-1,1.5-1.3c1.2-0.7,2.7-0.7,3.9,0
			c0.6,0.4,1.1,0.9,1.3,1.6c0.2,0.6,0.4,1.3,0.4,2c0.1,1.3,0,2.6-0.4,3.8s-1.1,2.4-2,3.3c-0.9,0.9-2.1,1.5-3.3,1.7c0,0,0,0-0.1,0
			l0,0c1.1-0.5,2.1-1.2,2.9-2.1c0.8-0.9,1.3-1.9,1.6-3.1c0.3-1.1,0.4-2.3,0.4-3.5c0-0.6-0.1-1.1-0.3-1.7c-0.2-0.5-0.5-0.9-1-1.2
			c-0.9-0.6-2.2-0.6-3.1-0.1c-1.1,0.5-1.8,1.5-2,2.6c-0.1,0.6-0.1,1.2,0.1,1.7s0.7,0.9,1.2,1c0.6,0.2,1.2,0,1.5-0.5
			c0.4-0.5,0.5-1.1,0.2-1.7c0,0,0,0,0-0.1L153.5,141.7z"/>
		<path class="st5" d="M150,141.4c-0.8,0-1.6-0.3-2.2-0.8c-0.8-0.8-1-2.3,0.3-4.4c1.6-2.6,6.5-3.6,7.7,0c0.3,0.7,0.4,1.4,0.2,2.1"/>
		<path class="st5" d="M146.7,138.5c-2.2-0.4-2.1-1.8-1.7-3.6c0.5-1.8,1.8-3.2,3.4-4c1.6-0.9,4.3-0.5,5.2,2.9"/>
		<path class="st5" d="M144.1,136.3c-2.4,0.5-3-1.9-2.8-3.5c0.4-2.4,2.4-4.1,4.8-4.2c1.3-0.1,2.5,0.4,3.3,1.4"/>
		<path class="st2" d="M141.6,147.1c-1.6-0.2-5.4-5.3-5-9.4c0.3-3,2.1-5.1,5.2-5.2c3.1-0.1,4.9,3.4,1.2,5.1c1,1.7,1.5,3.6,1.3,5.6
			L141.6,147.1z"/>
		<path class="st4" d="M140.5,146.6c-1-0.8-1.8-1.8-2.4-2.9c-0.7-1.1-1.2-2.2-1.5-3.4c-0.2-0.6-0.3-1.3-0.3-1.9
			c0-0.6,0.1-1.3,0.2-1.9c0.3-1.3,1-2.5,2.1-3.3s2.5-1.1,3.8-1.1c0.7,0.1,1.4,0.3,2,0.7s1,1.1,1.2,1.8c0.1,0.8-0.1,1.5-0.6,2.1
			c-0.4,0.5-1,0.9-1.6,1.2c-1.2,0.6-2.6,0.6-3.8,0c0,0,0,0,0-0.1l0,0l0,0c1.2,0.3,2.4,0.1,3.4-0.5c1-0.5,1.8-1.5,1.5-2.5
			c-0.4-1-1.3-1.7-2.3-1.7c-1.1-0.1-2.3,0.1-3.3,0.7c-1,0.7-1.6,1.7-1.9,2.8c-0.2,0.6-0.2,1.2-0.3,1.8c0,0.6,0.1,1.2,0.2,1.8
			c0.3,1.2,0.7,2.3,1.3,3.4C138.9,144.7,139.6,145.7,140.5,146.6L140.5,146.6L140.5,146.6z"/>
		<path class="st5" d="M143.1,137.9c1.1,1.5,1.6,3.5,1.3,5.3"/>
		<path class="st6" d="M77.9,123.7L77.9,123.7h-0.3h-0.3l0,0c-3.3,0.3-20.3-1.6-25,7.8c0,0,3.7,11.7,5.2,14.8L54.1,200
			c0,0,18,5.9,23.5,5.4c5.5,0.4,24.2-5.9,24.2-5.9l-4-53.3c1.4-3,5-14.8,5-14.8C98,122.1,81.2,124,77.9,123.7z"/>
		<path class="st1" d="M77.2,133.2h1c4.1,0,7.5-3.3,7.5-7.5v-1.9c-3.5-0.2-6.4,0-7.6-0.1l0,0h-0.3h-0.3l0,0
			c-1.2,0.1-4.2-0.1-7.7,0.1v1.9C69.8,129.9,73.1,133.2,77.2,133.2z"/>
		<path class="st6" d="M102.6,131.5l7.7,10c0,0-4.4,8-12.9,4.8C97.4,146.3,97.4,136.2,102.6,131.5z"/>
		<path class="st6" d="M52.8,131l-7.7,10c0,0,4.4,8,12.9,4.8C58,145.8,58.1,135.8,52.8,131z"/>
		<rect x="67.7" y="296.3" class="st2" width="5.7" height="6.2"/>
		<path class="st2" d="M33.2,176.9L33.2,176.9c0.1-0.1,0.2-0.2,0.4-0.2c0.2-0.1,0.4-0.2,0.7-0.2c0.1,0,0.3-0.1,0.5-0.1"/>
		<path class="st2" d="M77.6,87.7L77.6,87.7c4.1,0,7.5,3.3,7.5,7.5V124c0,4.1-3.3,7.5-7.5,7.5l0,0c-4.1,0-7.5-3.3-7.5-7.5V95.2
			C70.2,91.1,73.5,87.7,77.6,87.7z"/>
		<path class="st2" d="M17.4,139.4c0-2.1-1.3-4-3.3-4.8c-0.5-0.2-0.9-0.3-1.4-0.3c-0.1-0.7-0.4-1.3-0.8-1.9c-1-1.2-2.4-2-4-2.1
			c-1.2-0.1-2.3,0.3-3.1,1.1c-0.7,0.2-1.3,0.5-1.9,0.9c-0.6,0.2-1.2,0.6-1.6,1.1c-0.4,0.6-0.7,1.2-0.9,1.9l0.3,0.2
			c-1.2,0.2-2.1,1.1-2.5,2.2c-0.3,0.7-0.4,1.4-0.2,2.1l0.2,0.1c-0.4,0.3-0.7,0.7-0.9,1.1c-0.8,2.8-0.3,5.8,1.3,8.1l0.2,0.2
			c0.7,0.9,1.5,1.6,2.5,2.1c4.6,2.3,10.4,0,13.2-4.3C16,145.5,17.7,142.2,17.4,139.4z"/>
		<path class="st4" d="M0.6,143.4c-0.3,0.5-0.2,1.2,0.2,1.7c0.4,0.4,1,0.6,1.5,0.4c0.6-0.1,1-0.5,1.2-1c0.2-0.5,0.3-1.1,0.1-1.7
			c-0.2-1.2-0.9-2.2-2-2.6c-1-0.6-2.2-0.5-3.1,0.1c-0.4,0.3-0.8,0.7-1,1.2s-0.2,1.1-0.2,1.7c-0.1,1.2,0.1,2.3,0.4,3.5
			c0.3,1.1,0.8,2.2,1.6,3.1c0.8,0.9,1.8,1.6,2.9,2.1c0,0,0,0,0,0.1c0,0,0,0-0.1,0c-1.2-0.3-2.4-0.9-3.3-1.8c-0.9-0.9-1.6-2-2-3.3
			c-0.4-1.2-0.5-2.5-0.4-3.8c0-0.7,0.2-1.3,0.4-2c0.3-0.6,0.8-1.2,1.3-1.6c1.2-0.7,2.7-0.7,3.9,0c0.6,0.3,1.1,0.8,1.5,1.3
			c0.4,0.5,0.6,1.2,0.7,1.8c0.1,0.7,0,1.3-0.3,1.9c-0.3,0.6-0.9,1-1.5,1.2c-0.3,0.1-0.7,0.1-1,0s-0.6-0.3-0.8-0.6
			c-0.4-0.5-0.4-1.2-0.1-1.8 M0.6,143.3L0.6,143.3C0.7,143.3,0.7,143.4,0.6,143.3L0.6,143.3L0.6,143.3z"/>
		<path class="st5" d="M4,143.1c0.8,0,1.6-0.3,2.2-0.8c0.8-0.8,1-2.3-0.3-4.4c-1.6-2.6-6.5-3.6-7.7,0c-0.3,0.7-0.4,1.4-0.2,2.1"/>
		<path class="st5" d="M7.4,140.1c2.2-0.4,2.1-1.8,1.7-3.6c-0.5-1.8-1.8-3.2-3.4-4s-4.3-0.5-5.2,2.9"/>
		<path class="st5" d="M10,138c2.4,0.5,3-1.9,2.8-3.5c-0.4-2.4-2.4-4.1-4.8-4.2c-1.3-0.1-2.5,0.4-3.3,1.4"/>
		<path class="st2" d="M12.4,148.7c1.6-0.2,5.4-5.3,5-9.4c-0.3-3-2.1-5.1-5.2-5.2s-4.9,3.4-1.2,5.1c-1,1.7-1.5,3.6-1.3,5.6
			L12.4,148.7z"/>
		<path class="st4" d="M13.5,148.2c0.9-0.8,1.6-1.8,2.2-2.9c0.6-1.1,1-2.2,1.3-3.4c0.1-0.6,0.2-1.2,0.2-1.8s-0.1-1.2-0.3-1.8
			c-0.3-1.1-1-2.1-1.9-2.8c-1-0.6-2.1-0.9-3.3-0.7c-1.1,0.1-2,0.7-2.3,1.7c-0.3,0.9,0.5,1.9,1.5,2.5s2.3,0.8,3.4,0.5l0,0h0.1
			 M14.4,139.5c-1.2,0.6-2.6,0.6-3.8,0c-0.6-0.2-1.2-0.7-1.6-1.2c-0.5-0.6-0.7-1.4-0.6-2.1c0.2-0.7,0.6-1.3,1.2-1.7
			c0.6-0.4,1.3-0.6,2-0.7c1.4-0.1,2.7,0.3,3.8,1c1.1,0.8,1.8,2,2.1,3.3c0.1,0.6,0.2,1.3,0.2,1.9c0,0.6-0.1,1.3-0.3,1.9
			c-0.3,1.2-0.9,2.4-1.5,3.4c-0.6,1.1-1.5,2-2.4,2.9h-0.1v-0.1l0,0L14.4,139.5z"/>
		<path class="st5" d="M10.9,139.6c-1.1,1.5-1.6,3.5-1.3,5.3"/>
		<path class="st4" d="M85.1,120.1V119h-15v1.3C72.8,121.6,77.8,123,85.1,120.1z"/>
		<path class="st4" d="M104.2,78.4c-1.1,1.8-1.8,3.7-2.3,5.7c-0.2,1.3-0.2,3.4,0.4,3.8c0.3,0.2,0.8-0.1,1-0.3
			c1.6-1.2,2.5-3.1,2.4-5.1C106,81,105.4,79.4,104.2,78.4z"/>
		<path class="st4" d="M108.1,72.2c-2.3-0.4-6,2.4-6,2.4c-4.2,3.5-1.7,19.8,1.9,19.1s3.2-5.8,3.2-5.8c1.8-1.1,3.3-5.8,3.3-5.8
			C113.6,73.3,108.1,72.2,108.1,72.2z M109.8,77.8c-0.1,0.6-0.4,1.2-0.6,1.8l-1.2-0.5c0.2-0.5,0.4-1,0.6-1.6c0.1-0.5,0.1-1-0.1-1.4
			c-0.1-0.4-0.5-0.7-0.8-0.8c-0.3,0-0.6,0-0.9,0.2c-0.8,0.4-1.4,1-1.9,1.8c1.5,1.3,2.4,3.3,2.2,5.3c0.1,2.4-1,4.7-3,6.1
			c-0.4,0.3-1,0.5-1.5,0.5c-0.3,0-0.6-0.1-0.9-0.3c-1.5-1-1.1-4.4-1-5c0.5-3.1,3.2-8.6,5.6-9.5c0.5-0.2,1-0.3,1.5-0.2
			c0.8,0.2,1.5,0.7,1.8,1.5C109.9,76.4,110,77.1,109.8,77.8z"/>
		<path class="st7" d="M107.9,74.1c-0.5-0.1-1.1,0-1.5,0.2c-2.5,1-5.1,6.5-5.6,9.5c-0.1,0.7-0.5,4,1,5c0.3,0.2,0.6,0.3,0.9,0.3
			c0.5,0,1.1-0.2,1.5-0.5c2-1.4,3.1-3.7,3-6.1c0.1-2-0.7-4-2.2-5.3c0.5-0.7,1.1-1.4,1.9-1.8c0.3-0.1,0.6-0.2,0.9-0.2
			c0.4,0.1,0.7,0.4,0.8,0.8c0.2,0.5,0.2,1,0.1,1.4c-0.1,0.5-0.3,1.1-0.6,1.6l1.2,0.5c0.3-0.6,0.5-1.2,0.6-1.8
			c0.2-0.7,0.1-1.5-0.2-2.2C109.4,74.8,108.7,74.3,107.9,74.1z M105.9,82.6c0.1,2-0.8,3.9-2.4,5.1c-0.3,0.2-0.8,0.4-1,0.3
			c-0.6-0.4-0.6-2.4-0.4-3.8c0.4-2,1.2-4,2.3-5.7C105.4,79.4,106,81,105.9,82.6L105.9,82.6z"/>
		<path class="st4" d="M49.7,78.4c1.1,1.8,1.8,3.7,2.3,5.7c0.2,1.3,0.2,3.4-0.4,3.8c-0.3,0.2-0.8-0.1-1-0.3
			c-1.6-1.2-2.5-3.1-2.4-5.1C47.9,81,48.5,79.4,49.7,78.4z"/>
		<path class="st4" d="M43.3,82.2c0,0,1.5,4.7,3.3,5.8c0,0-0.3,5.2,3.3,5.8s6.1-15.6,1.8-19.1c0,0-3.6-2.9-6-2.4
			C45.8,72.2,40.3,73.3,43.3,82.2z M44.2,75.6c0.3-0.8,1-1.4,1.8-1.5c0.5-0.1,1.1,0,1.5,0.2c2.5,1,5.1,6.5,5.6,9.5
			c0.1,0.7,0.5,4-1,5c-0.3,0.2-0.6,0.3-0.9,0.3c-0.5,0-1.1-0.2-1.5-0.5c-2-1.4-3.1-3.7-3-6.1c-0.1-2,0.7-4,2.2-5.3
			c-0.5-0.7-1.1-1.4-1.9-1.8c-0.3-0.1-0.6-0.2-0.9-0.2c-0.4,0.1-0.7,0.4-0.8,0.8c-0.2,0.5-0.2,1-0.1,1.4c0.1,0.5,0.3,1.1,0.6,1.6
			l-1.2,0.5c-0.3-0.6-0.5-1.2-0.6-1.8C43.9,77.1,44,76.3,44.2,75.6z"/>
		<path class="st7" d="M44.2,75.6c-0.3,0.7-0.3,1.4-0.2,2.2c0.1,0.6,0.4,1.2,0.6,1.8l1.2-0.5c-0.2-0.5-0.4-1-0.6-1.6
			c-0.1-0.5-0.1-1,0.1-1.4c0.1-0.4,0.5-0.7,0.8-0.8c0.3,0,0.6,0,0.9,0.2c0.8,0.4,1.4,1,1.9,1.8c-1.5,1.3-2.4,3.3-2.2,5.3
			c-0.1,2.4,1,4.7,3,6.1c0.4,0.3,1,0.5,1.5,0.5c0.3,0,0.6-0.1,0.9-0.3c1.5-1,1.1-4.4,1-5c-0.5-3.1-3.2-8.6-5.6-9.5
			c-0.5-0.2-1-0.3-1.5-0.2C45.2,74.3,44.5,74.9,44.2,75.6z M49.7,78.4c1.1,1.8,1.8,3.7,2.3,5.7c0.2,1.3,0.2,3.4-0.4,3.8
			c-0.3,0.2-0.8-0.1-1-0.3c-1.6-1.2-2.5-3.1-2.4-5.1C47.9,81,48.5,79.4,49.7,78.4L49.7,78.4z"/>
		<path class="st2" d="M76.9,119.5L76.9,119.5c-12.5,0-26.7-11.2-26.7-23.8V54.3c0-12.5,10.1-22.6,22.6-22.6l0,0h8.1
			c12.5,0,22.6,10.1,22.6,22.6l0,0v41.5C103.6,108.3,89.5,119.5,76.9,119.5z"/>
		<path class="st8" d="M50.5,56.8c0,0,8.5-15.9,12.3-16.4c0,0-0.7,4.8-1.9,6.6s12.4,2,19.7-5.8c0,0,0.3,6.2-3.4,8.3
			c0,0,12.5,0.1,13.9-7.3c0,0,12.6,6.7,12.6,13.9s-0.1,12.7,0.2,28.7c0,0,3.3-8.5,3.5-14.7s1.7-14.1,3-15.6c0,0,2.5-17.9-7.2-22.8
			c0,0,3.5-1.1,5.8,0c0,0-1-5.1-8-3c0,0,1.9-4.4-0.3-6.9c0,0,0.2,1.5-1.9,2.2S77,15.8,67,23c0,0-0.4-2.8,0.5-3.6
			c-2.8,0.4-5,2.4-5.8,5.1c0,0-9.2-2-11.4,2.2c1.3-0.2,2.7,0.1,3.9,0.7c0,0-12,7.2-10.8,26.2c0,0,1.2,0.3,2,3.2s0.5,21.4,5.1,25.6
			L50.5,56.8z"/>
		<path class="st9" d="M67.6,100c0.8,5.4,4.7,9.5,9.4,9.5s8.6-4.1,9.4-9.5c-2,2-5.5,2.2-9.4,2.2S69.6,101.9,67.6,100z"/>
		<path class="st1" d="M86,100.8c0.2-0.7,0.4-1.3,0.5-2c0-0.1-0.1-0.2-0.2-0.2s-0.1,0-0.2,0c-2.1,1.7-5.5,1.9-9.3,1.9
			s-7.2-0.2-9.3-1.9c-0.1-0.1-0.2,0-0.3,0c0,0,0,0.1,0,0.2c0.1,0.7,0.3,1.3,0.5,2c2.2,1.6,5.4,1.8,9.1,1.8S83.9,102.4,86,100.8z"/>
		<path class="st4" d="M73.3,111.5c2.1,2.5,5.9,2.8,8.5,0.7c0.3-0.2,0.5-0.5,0.7-0.7C79.5,112.7,76.2,112.7,73.3,111.5z"/>
		<path class="st3" d="M99.3,63.7c0.3,0.1,0.6-0.1,0.7-0.4s-0.1-0.5-0.3-0.7c-5.4-3.2-12.2-2.5-16.7,1.8c-0.3,0.2-0.3,0.6-0.1,0.8
			c0.2,0.2,0.5,0.3,0.7,0.2C88.6,63.3,94,62.8,99.3,63.7L99.3,63.7z"/>
		<path class="st3" d="M54.7,63.7c-0.3,0.1-0.6-0.1-0.7-0.5c-0.1-0.3,0.1-0.5,0.3-0.7c5.4-3.2,12.2-2.5,16.7,1.8
			c0.3,0.2,0.3,0.6,0.1,0.8c-0.2,0.2-0.5,0.3-0.7,0.2C65.4,63.3,60,62.7,54.7,63.7z"/>
		
			<radialGradient id="SVGID_3_" cx="695.515" cy="-747.525" r="13.08" gradientTransform="matrix(1 0 0 -1 0 -290.01)" gradientUnits="userSpaceOnUse">
			<stop  offset="0" style="stop-color:#F0BFD9;stop-opacity:0.95"/>
			<stop  offset="4.000000e-02" style="stop-color:#EEBCD3;stop-opacity:0.88"/>
			<stop  offset="0.15" style="stop-color:#E9B3C2;stop-opacity:0.65"/>
			<stop  offset="0.27" style="stop-color:#E4ABB2;stop-opacity:0.45"/>
			<stop  offset="0.39" style="stop-color:#E1A4A6;stop-opacity:0.29"/>
			<stop  offset="0.51" style="stop-color:#DE9F9C;stop-opacity:0.16"/>
			<stop  offset="0.62" style="stop-color:#DC9C96;stop-opacity:7.000000e-02"/>
			<stop  offset="0.73" style="stop-color:#DA9A91;stop-opacity:2.000000e-02"/>
			<stop  offset="0.83" style="stop-color:#DA9990;stop-opacity:0"/>
			<stop  offset="1" style="stop-color:#DA9990;stop-opacity:0"/>
		</radialGradient>
		<ellipse class="st10" cx="92.8" cy="86.6" rx="13.1" ry="9.7"/>
		<path class="st7" d="M76.9,92.4l2.8-0.5c0.3,0,0.6-0.3,0.6-0.6c0-0.1-0.1-0.3-0.2-0.4l-2.7-2.7c-0.2-0.2-0.6-0.2-0.8,0L73.8,91
			c-0.2,0.3-0.2,0.6,0.1,0.9C74,92,74.1,92,74.3,92L76.9,92.4z"/>
		<circle class="st11" cx="64.4" cy="75.6" r="3.2"/>
		<circle class="st11" cx="88.9" cy="75.6" r="3.2"/>
		<ellipse class="st1" cx="78.1" cy="154.1" rx="16.8" ry="7.9"/>
		<g class="st12">
			<text transform="matrix(0.9997 2.443218e-02 -2.443218e-02 0.9997 63.765 156.185)" class="st13 st14 st15">H</text>
		</g>
		<g class="st12">
			<text transform="matrix(0.9997 2.443218e-02 -2.443218e-02 0.9997 69.5333 156.326)" class="st13 st14 st15">A</text>
		</g>
		<g class="st12">
			<text transform="matrix(0.9997 2.443218e-02 -2.443218e-02 0.9997 74.4718 156.4466)" class="st13 st14 st15">W</text>
		</g>
		<g class="st12">
			<text transform="matrix(0.9997 2.443218e-02 -2.443218e-02 0.9997 81.4497 156.6172)" class="st13 st14 st15">AI</text>
		</g>
		<path class="st8" d="M50.9,313.2l-1.5-5.7c-1.8,0.7-3.7,1.4-5.2,1.9c-0.3,0.1-0.7,0.2-1,0.4C44.9,312.3,47.9,313.7,50.9,313.2z"/>
		<path class="st16" d="M39.8,315.5v3.2h36.5v-3.2H39.8z"/>
		<path class="st8" d="M53.7,308.9l-1-2.8l-1.8,0.7l1,2.7L53.7,308.9z"/>
		<path class="st8" d="M56.9,307.3l-0.9-2.6l-1.8,0.8l0.9,2.5L56.9,307.3z"/>
		<path class="st8" d="M60.1,305.6l-0.9-2.5c-0.6,0.4-1.1,0.7-1.7,0.9l0.8,2.2L60.1,305.6z"/>
		<path class="st17" d="M75.2,300.5c-2-3.4-6.3-4.6-9.7-2.6c-0.1,0.1-0.2,0.1-0.4,0.2H65c-1.5,1.5-3,3-4.7,4.3
			c-0.4,0.3-0.7,0.5-1.1,0.8l0.9,2.5l-1.8,0.7l-0.8-2.2c-0.3,0.1-0.6,0.3-0.9,0.4l-0.6,0.3l0.9,2.6l-1.8,0.7l-0.9-2.5l-1.5,0.6
			l1,2.8l-1.8,0.7l-1-2.7l-1.5,0.6l1.5,5.7c-3,0.5-6.1-0.9-7.7-3.4c-2,0.7-3.3,2.6-3.4,4.7v1.1h15.6l-1.8-5.3c3.6-1.3,7-3.1,10-5.4
			l9.8,2.9c0,0,1,4.6-0.8,7.8h3.7V308C76.2,305.6,76.3,302.8,75.2,300.5z"/>
		<path class="st8" d="M61.2,304.8c0,0,4.1-4.3,4.3-5.5s-2.3-3.1-3.2-2.9s-1.1,5.2-2,6.1L61.2,304.8z"/>
		<path class="st8" d="M73.4,307.8l-9.8-2.9c-3,2.3-6.4,4.2-10,5.4l1.8,5.3h17.2C74.4,312.4,73.4,307.8,73.4,307.8z"/>
		<rect x="62.2" y="313.7" class="st18" width="9.7" height="3.6"/>
		<rect x="46" y="315.5" class="st19" width="9.7" height="1.8"/>
		<path class="st8" d="M104.8,313.2l1.5-5.7c1.8,0.7,3.7,1.4,5.2,1.9c0.3,0.1,0.7,0.2,1,0.4C110.9,312.3,107.9,313.7,104.8,313.2z"
			/>
		<path class="st16" d="M116,315.5v3.2H79.5v-3.2H116z"/>
		<path class="st8" d="M102,308.9l1-2.8l1.8,0.7l-1,2.7L102,308.9z"/>
		<path class="st8" d="M98.8,307.3l0.9-2.6l1.8,0.8l-0.8,2.5L98.8,307.3z"/>
		<path class="st8" d="M95.6,305.6l0.9-2.5c0.6,0.4,1.1,0.7,1.7,0.9l-0.8,2.2L95.6,305.6z"/>
		<path class="st17" d="M80.5,300.5c2-3.4,6.3-4.6,9.7-2.6c0.1,0.1,0.2,0.1,0.4,0.2h0.1c1.5,1.5,3,3,4.7,4.3
			c0.4,0.3,0.7,0.5,1.1,0.8l-0.9,2.5l1.8,0.7l0.8-2.2c0.3,0.1,0.6,0.3,0.9,0.4l0.6,0.3l-0.9,2.6l1.8,0.7l0.9-2.5l1.5,0.6l-1,2.8
			l1.8,0.7l1-2.7l1.5,0.6l-1.5,5.7c3,0.5,6.1-0.9,7.7-3.4c2,0.7,3.3,2.6,3.4,4.7v1.1h-15.5l1.8-5.3c-3.6-1.3-7-3.1-10-5.4l-9.8,2.9
			c0,0-1,4.6,0.8,7.8h-3.6V308C79.5,305.6,79.4,302.8,80.5,300.5z"/>
		<path class="st8" d="M94.5,304.8c0,0-4.1-4.3-4.3-5.5s2.3-3.1,3.2-2.9s1.1,5.2,2,6.1L94.5,304.8z"/>
		<path class="st8" d="M82.4,307.8l9.8-2.9c3,2.3,6.4,4.2,10,5.4l-1.8,5.3H83.2C81.3,312.4,82.4,307.8,82.4,307.8z"/>
		<rect x="83.8" y="313.7" class="st18" width="9.7" height="3.6"/>
		<rect x="100" y="315.5" class="st19" width="9.7" height="1.8"/>
	</g>
</g>
</svg>
