<?xml version="1.0" encoding="utf-8"?>
<!-- Generator: Adobe Illustrator 22.1.0, SVG Export Plug-In . SVG Version: 6.00 Build 0)  -->
<svg version="1.1" id="Layer_1" xmlns="http://www.w3.org/2000/svg" xmlns:xlink="http://www.w3.org/1999/xlink" x="0px" y="0px"
	 viewBox="0 0 154 154" style="enable-background:new 0 0 154 154;" xml:space="preserve">
<style type="text/css">
	.st0{fill:#9FBEAF;}
	.st1{clip-path:url(#SVGID_2_);}
	.st2{fill:#F3D5BB;}
	.st3{fill:#F5F5FA;}
	.st4{fill:#F5E0CD;}
	.st5{fill:#F0D0B3;}
	.st6{fill:#F0DBCB;}
	.st7{fill:#EBC19C;}
	.st8{fill:#A87C4F;}
	.st9{fill:url(#SVGID_3_);}
	.st10{fill:#58595B;}
	.st11{fill:#C3996B;}
	.st12{fill:#FFFFFF;}
	.st13{fill:#A38B7C;}
</style>
<title>ic_toddler_unisex</title>
<circle class="st0" cx="77" cy="77" r="77"/>
<g>
	<g>
		<defs>
			<circle id="SVGID_1_" cx="77" cy="77" r="77"/>
		</defs>
		<clipPath id="SVGID_2_">
			<use xlink:href="#SVGID_1_"  style="overflow:visible;"/>
		</clipPath>
		<g class="st1">
			<path class="st2" d="M91.2,132.1v-4.6H66.4v3.9c-16.2,4.5-28.1,18.6-28.1,36.4c0,21.6,17.6,34.2,39.2,34.2s39.1-12.6,39.1-34.2
				C116.7,150.9,106.1,137.3,91.2,132.1z"/>
			<path class="st3" d="M112.4,164.2v9.8c0,0-38.5,8.1-72.3-0.7l-1.7-1.8c-0.1-1.2-0.2-2.4-0.2-3.6c0-0.9,0-1.7,0.1-2.5
				c4.6-4.1,12.5-12.9,10.9-24c3.3-3.2,7.1-5.8,11.3-7.7c3,2.1,9.4,5.9,16.7,5.8c8.4-0.1,13.3-3.1,16.5-6c5,2.2,9.5,5.4,13.2,9.4
				C106.1,147.1,106.2,154.7,112.4,164.2z"/>
			<path class="st4" d="M114.4,90.5c-1.4,2.2-2.5,4.6-3.1,7.1c-0.3,1.6-0.2,4.2,0.6,4.7c0.3,0.2,1-0.1,1.4-0.3
				c2.1-1.4,3.4-3.8,3.3-6.3C116.8,93.7,115.9,91.7,114.4,90.5z"/>
			<path class="st4" d="M119.7,82.9c-3.2-0.5-8.2,3-8.2,3c-5.8,4.4-2.4,24.5,2.5,23.7s4.5-7.2,4.5-7.2c2.4-1.4,4.5-7.2,4.5-7.2
				C127.3,84.2,119.7,82.9,119.7,82.9z M122.1,89.8c-0.2,0.8-0.5,1.6-0.9,2.3l-1.6-0.6c0.3-0.6,0.6-1.3,0.8-2
				c0.2-0.6,0.1-1.2-0.1-1.8c-0.2-0.5-0.6-0.8-1.2-0.9c-0.4,0-0.8,0-1.2,0.2c-1,0.5-1.9,1.3-2.6,2.2c2,1.5,3.2,4,3,6.5
				c0.1,3.1-1.5,6-4.2,7.6c-0.6,0.4-1.3,0.6-2.1,0.6c-0.4,0-0.9-0.1-1.2-0.3c-2-1.2-1.5-5.4-1.3-6.2c0.7-3.8,4.3-10.6,7.7-11.9
				c0.7-0.3,1.4-0.4,2.1-0.3c1.1,0.2,2,0.9,2.5,1.9C122.2,88,122.3,88.9,122.1,89.8z"/>
			<path class="st5" d="M119.4,85.2c-0.7-0.1-1.4,0-2.1,0.3c-3.4,1.2-7,8-7.7,11.9c-0.1,0.8-0.7,5,1.3,6.2c0.4,0.2,0.8,0.3,1.2,0.3
				c0.7,0,1.4-0.2,2.1-0.6c2.6-1.6,4.2-4.5,4.2-7.6c0.2-2.5-1-5-3-6.5c0.7-0.9,1.5-1.7,2.6-2.2c0.4-0.2,0.8-0.2,1.2-0.2
				c0.5,0.1,0.9,0.5,1.2,0.9c0.2,0.6,0.3,1.2,0.1,1.8c-0.2,0.7-0.4,1.4-0.8,2l1.6,0.6c0.4-0.7,0.7-1.5,0.9-2.3
				c0.2-0.9,0.1-1.8-0.2-2.7C121.4,86.1,120.5,85.4,119.4,85.2z M116.6,95.7c0.1,2.5-1.2,4.9-3.3,6.3c-0.4,0.2-1.1,0.5-1.4,0.3
				c-0.8-0.5-0.9-3-0.6-4.7c0.6-2.5,1.6-4.9,3.1-7.1C115.9,91.8,116.7,93.7,116.6,95.7z"/>
			<path class="st4" d="M39.8,90.5c1.4,2.2,2.5,4.6,3.1,7.1c0.3,1.6,0.2,4.2-0.6,4.7c-0.4,0.2-1-0.1-1.4-0.3
				c-2.1-1.4-3.4-3.8-3.3-6.3C37.4,93.7,38.2,91.7,39.8,90.5z"/>
			<path class="st4" d="M31,95.2c0,0,2.1,5.9,4.5,7.2c0,0-0.5,6.4,4.5,7.2s8.3-19.4,2.5-23.7c0,0-5-3.6-8.2-3
				C34.4,82.9,26.9,84.2,31,95.2z M32.3,87.1c0.5-1,1.4-1.7,2.5-1.9c0.7-0.1,1.4,0,2.1,0.3c3.4,1.2,7,8,7.7,11.9
				c0.1,0.8,0.7,5-1.3,6.2c-0.4,0.2-0.8,0.3-1.2,0.3c-0.7,0-1.4-0.2-2.1-0.6c-2.6-1.6-4.2-4.5-4.1-7.6c-0.2-2.5,1-5,3-6.5
				c-0.7-0.9-1.5-1.7-2.6-2.2c-0.4-0.2-0.8-0.2-1.2-0.2c-0.5,0.1-0.9,0.5-1.2,0.9c-0.2,0.6-0.3,1.2-0.1,1.8c0.2,0.7,0.4,1.4,0.8,2
				L33,92.1c-0.4-0.7-0.7-1.5-0.9-2.3C31.8,88.9,31.9,88,32.3,87.1L32.3,87.1z"/>
			<path class="st5" d="M32.3,87.1c-0.4,0.9-0.5,1.8-0.2,2.7c0.2,0.8,0.5,1.6,0.9,2.3l1.6-0.6c-0.3-0.6-0.6-1.3-0.8-2
				c-0.2-0.6-0.1-1.2,0.1-1.8c0.2-0.5,0.6-0.8,1.2-0.9c0.4,0,0.8,0,1.2,0.2c1,0.5,1.9,1.3,2.6,2.2c-2,1.5-3.2,4-3,6.5
				c-0.1,3.1,1.5,6,4.1,7.6c0.6,0.4,1.3,0.6,2.1,0.6c0.4,0,0.9-0.1,1.2-0.3c2-1.2,1.5-5.4,1.3-6.2c-0.7-3.8-4.3-10.6-7.7-11.9
				c-0.7-0.3-1.4-0.4-2.1-0.3C33.7,85.4,32.7,86.1,32.3,87.1z M39.8,90.5c1.4,2.2,2.5,4.6,3.1,7.1c0.3,1.6,0.2,4.2-0.6,4.7
				c-0.4,0.2-1-0.1-1.4-0.3c-2.1-1.4-3.4-3.8-3.3-6.3C37.4,93.7,38.2,91.7,39.8,90.5L39.8,90.5z"/>
			<path class="st6" d="M77.1,134.7L77.1,134.7c-19,0-40.8-8-40.8-23.5V59.7c2.3-11.2,17.6-24,34.4-28.1H83
				c15,3.2,31.2,15.1,34.4,28.1v51.5C117.3,126.7,96.1,134.7,77.1,134.7z"/>
			<path class="st7" d="M65.3,129.8c6.4,6.5,16.9,6.6,23.4,0.2c0.1-0.1,0.1-0.1,0.2-0.2C81.3,132.6,72.9,132.6,65.3,129.8z"/>
			<path class="st8" d="M96.5,77.2c0.3,0,0.4-0.3,0.2-0.4c-1-0.6-2.2-0.8-3.4-0.7c-1.2,0.1-2.3,0.6-3.2,1.3c-0.2,0.2,0,0.5,0.3,0.4
				c1-0.4,2-0.6,3-0.7C94.4,77,95.4,77.1,96.5,77.2z"/>
			<path class="st8" d="M55.8,78.2c-0.1,0-0.3-0.1-0.3-0.2s0-0.2,0.1-0.3c1.2-0.6,2.5-0.9,3.9-0.8c1.3,0.1,2.6,0.7,3.6,1.5
				c0.2,0.2,0,0.5-0.3,0.4c-1.1-0.4-2.3-0.7-3.5-0.8C58.2,78,57,78.1,55.8,78.2z"/>
			
				<radialGradient id="SVGID_3_" cx="680.7" cy="661.4" r="16.23" gradientTransform="matrix(1 0 0 1 0 -96)" gradientUnits="userSpaceOnUse">
				<stop  offset="0" style="stop-color:#F0BFD9;stop-opacity:0.95"/>
				<stop  offset="4.000000e-02" style="stop-color:#EEBCD3;stop-opacity:0.88"/>
				<stop  offset="0.15" style="stop-color:#E9B3C2;stop-opacity:0.65"/>
				<stop  offset="0.27" style="stop-color:#E4ABB2;stop-opacity:0.45"/>
				<stop  offset="0.39" style="stop-color:#E1A4A6;stop-opacity:0.29"/>
				<stop  offset="0.51" style="stop-color:#DE9F9C;stop-opacity:0.16"/>
				<stop  offset="0.62" style="stop-color:#DC9C96;stop-opacity:7.000000e-02"/>
				<stop  offset="0.73" style="stop-color:#DA9A91;stop-opacity:2.000000e-02"/>
				<stop  offset="0.83" style="stop-color:#DA9990;stop-opacity:0"/>
				<stop  offset="1" style="stop-color:#DA9990;stop-opacity:0"/>
			</radialGradient>
			<ellipse class="st9" cx="104.7" cy="103.9" rx="17.9" ry="16.2"/>
			<path class="st7" d="M77.1,107l3.8-0.6c0.4,0,0.8-0.2,0.8-0.6c0-0.2-0.1-0.5-0.2-0.6l-3.8-3.4c-0.3-0.3-0.8-0.3-1.2,0l-3.8,3.4
				c-0.3,0.3-0.3,0.7,0,1c0.2,0.2,0.4,0.3,0.6,0.2L77.1,107z"/>
			<ellipse class="st10" cx="60" cy="86.1" rx="4.3" ry="3.9"/>
			<ellipse class="st10" cx="93.4" cy="86.1" rx="4.3" ry="3.9"/>
			<path class="st11" d="M59.4,114.7c1.5,4.7,9.1,8.2,18.3,8.2s16.8-3.6,18.3-8.2c-4,1.7-10.7,1.9-18.3,1.9S63.3,116.4,59.4,114.7z"
				/>
			<path class="st12" d="M95.4,115.5c0.4-0.5,0.7-1.1,1-1.7c0.1-0.1-0.3-0.3-0.6-0.2c-4.2,1.5-10.8,1.7-18.1,1.7s-13.9-0.2-18.1-1.7
				c-0.3-0.1-0.7,0-0.6,0.2c0.3,0.6,0.6,1.2,1,1.7c4.2,1.4,10.6,1.5,17.7,1.5S91.2,116.9,95.4,115.5z"/>
			<path class="st13" d="M56.4,57.1c4-4.2,4.4-5.4,7.2-7.3c-4,1.7-7.1,2.2-10.5,1.7c3-3.1,5.2-4.9,7-7.5c2-2.9,6.4-6.6,9.5-8.5
				c12-7.4,26.9-1.8,21,12.7c-2.3,5.7-7.5,8.5-12.9,10.7c-4.2,1.8-9.5,1.7-16.5,1.9c2.4-2.2,3.6-3.9,8.3-6.5
				C66.4,56.4,60.4,57.6,56.4,57.1z"/>
		</g>
	</g>
</g>
</svg>
