<?xml version="1.0" encoding="utf-8"?>
<!-- Generator: Adobe Illustrator 22.1.0, SVG Export Plug-In . SVG Version: 6.00 Build 0)  -->
<svg version="1.1" id="Layer_1" xmlns="http://www.w3.org/2000/svg" xmlns:xlink="http://www.w3.org/1999/xlink" x="0px" y="0px"
	 viewBox="0 0 154 155.1" style="enable-background:new 0 0 154 155.1;" xml:space="preserve">
<style type="text/css">
	.st0{fill:#9FBEAF;}
	.st1{clip-path:url(#SVGID_2_);}
	.st2{fill:#DFE0E0;}
	.st3{fill:#F0DBCB;}
	.st4{fill:#EBC19C;}
	.st5{fill:#E6E7E8;}
	.st6{fill:#E6787B;}
	.st7{fill:#EACBC6;}
	.st8{fill:#ED7987;}
	.st9{clip-path:url(#SVGID_7_);}
	.st10{clip-path:url(#SVGID_8_);}
	.st11{clip-path:url(#SVGID_9_);}
	.st12{clip-path:url(#SVGID_10_);}
	.st13{fill:#EFB100;}
	.st14{clip-path:url(#SVGID_10_);fill:#E6787B;}
	.st15{clip-path:url(#SVGID_10_);fill:#F0DBCB;}
	.st16{fill:#6E6360;}
	.st17{fill:#F0D0B3;}
	.st18{fill:#F5E0CD;}
	.st19{fill:#58595B;}
	.st20{fill:#C3996B;}
	.st21{fill:#FFFFFF;}
	.st22{fill:url(#SVGID_11_);}
</style>
<title>ic_young_girl</title>
<circle class="st0" cx="77" cy="77" r="77"/>
<g>
	<defs>
		<circle id="SVGID_1_" cx="77" cy="77" r="77"/>
	</defs>
	<clipPath id="SVGID_2_">
		<use xlink:href="#SVGID_1_"  style="overflow:visible;"/>
	</clipPath>
	<g class="st1">
		<path class="st2" d="M54.5,122.4c-3.9,8.6-7.8,17.2-11.8,25.6l-1.5,3.1l-0.8,1.5l-0.3,0.5c0,0.1-0.3,0.4-0.4,0.7l-4.1,5.7
			L27.5,171l-4.8,6.9l2.5,1.9l2.5,1.9l11.6-14.3l5.8-7.2l1.5-1.8c0.1-0.2,0.3-0.3,0.4-0.5l0.4-0.6c0.3-0.5,0.5-0.8,0.7-1.1
			c0.4-0.7,0.8-1.4,1.2-2.1l1.2-2c4.7-8.3,9.1-16.6,13.6-25l0,0c2.2-4.1,1.7-8.5-1-9.9l-0.1-0.1C60.2,115.8,56.4,118.1,54.5,122.4z"
			/>
		<path class="st2" d="M97.5,122.4c3.9,8.6,7.8,17.2,11.8,25.6l1.5,3.1l0.8,1.5l0.3,0.5c0.1,0.2,0.3,0.4,0.4,0.7l4.1,5.8l8.2,11.5
			l4.8,6.9l-2.5,1.9l-2.5,1.9l-11.6-14.3l-5.8-7.2l-1.5-1.8c-0.1-0.2-0.2-0.3-0.4-0.5l-0.4-0.6c-0.3-0.5-0.5-0.8-0.7-1.1
			c-0.4-0.7-0.8-1.4-1.2-2.1l-1.2-2c-4.7-8.3-9.1-16.6-13.6-25l0,0c-2.2-4.1-1.7-8.5,1-9.9l0.1-0.1
			C91.8,115.8,95.6,118.1,97.5,122.4z"/>
		<path class="st3" d="M7.8,184c-0.1,6.4,6.8,12.5,13.2,12.5s9.8-6,9.8-12.3c0.3-6.3-4.6-11.8-10.9-12.1S8.1,176.7,7.8,183
			C7.8,183.3,7.8,183.6,7.8,184L7.8,184z"/>
		<path class="st3" d="M21.8,187.7c0,3,1.6,5.9,4.6,5.9c3.8,0,6.6-2.3,7.1-5.9c0.6-4.9-4.5-11.1-6.4-11.4
			C24.2,175.9,21.8,184.7,21.8,187.7z"/>
		<path class="st4" d="M30.4,188.2c-0.4,2.3-1.4,4.4-3,6.1c-1.7,1.7-4,2.7-6.4,2.7l0,0c-0.5-0.1-1-0.2-1.5-0.4s-0.9-0.5-1.3-0.8
			s-0.7-0.7-0.9-1.2c-0.2-0.4-0.3-0.9-0.3-1.4c0,0,0,0,0-0.1l0,0l0,0c0.2,0.4,0.4,0.8,0.7,1.2c0.3,0.3,0.6,0.6,1,0.8
			s0.8,0.4,1.2,0.5c0.4,0.1,0.8,0.2,1.2,0.3l0,0c1,0,2.1-0.1,3.1-0.5s2-0.9,2.8-1.7C28.6,192.3,29.7,190.3,30.4,188.2
			C30.3,188.1,30.3,188.1,30.4,188.2C30.4,188.1,30.4,188.1,30.4,188.2L30.4,188.2z"/>
		<path class="st4" d="M28.2,193.4c3.2-0.7,5.4-3.8,4.9-7.1c-0.3-1.5-0.8-3-1.5-4.4s-1.5-2.8-2.5-4.1 M29.1,177.6L29.1,177.6
			c1.4,1,2.6,2.3,3.4,3.8c0.9,1.5,1.4,3.1,1.5,4.8s-0.4,3.4-1.4,4.8c-1.1,1.3-2.6,2.2-4.3,2.5h-0.1l0.1-0.1L29.1,177.6z"/>
		<polygon class="st3" points="62,170.3 68,170.7 64.9,212 64.9,211.8 65,258.3 59,258.3 59,211.8 59,211.7 59,211.6 		"/>
		<path class="st5" d="M54.2,179l0.1,8.2l0.1,8.2l0,0l0.2,15.9v0.5l0.3,3.1h14.2l0.3-3.1v0.5l3.8-23.8l1.3-8l0,0
			c1.6-10.3-2-19.2-8.2-19.6l-1-0.1C59,160.3,54.1,168.5,54.2,179z"/>
		<polygon class="st3" points="83.5,170.7 89.4,170.3 92.4,211.6 92.5,211.7 92.5,211.8 92.4,258.3 86.4,258.3 86.5,211.8 86.5,212 
					"/>
		<path class="st5" d="M77.1,180.5l1.3,8.1l1.3,8.1l0,0l2.5,15.7v-0.5l0.3,3.1h14.1l0.3-3.1v-0.5l0.3-24.1l0.1-8.2l0,0
			c0.1-10.5-4.8-18.7-11-18.2l-1,0.1C79.1,161.3,75.4,170.1,77.1,180.5z"/>
		<polygon class="st6" points="113.1,261.7 113.1,255.4 93.9,248.9 84.9,248.9 84.9,261.7 		"/>
		<polygon class="st6" points="38.4,261.7 38.4,255.4 57.6,248.9 66.5,248.9 66.5,261.7 		"/>
		<g>
			<path class="st7" d="M106.4,210.2H45.1L56,121.3c0.3-2.6,2.3-4.7,4.6-4.7H91c2.3,0,4.3,2.1,4.6,4.7L106.4,210.2z"/>
			<path class="st6" d="M73.1,140.6c0,1.4,1.2,2.6,2.6,2.6s2.6-1.2,2.6-2.6c0-1.4-1.2-2.6-2.6-2.6l0,0
				C74.2,138,73.1,139.2,73.1,140.6L73.1,140.6z"/>
			<path class="st6" d="M73.1,157.7c0,1.4,1.2,2.6,2.6,2.6s2.6-1.2,2.6-2.6c0-1.4-1.2-2.6-2.6-2.6l0,0
				C74.2,155.1,73.1,156.3,73.1,157.7z"/>
			<path class="st6" d="M73.1,174.8c0,1.4,1.2,2.6,2.6,2.6s2.6-1.2,2.6-2.6c0-1.4-1.2-2.6-2.6-2.6l0,0
				C74.2,172.2,73.1,173.4,73.1,174.8z"/>
			<polygon class="st8" points="67.3,118.5 64.2,119.6 103.7,166.9 107.4,162.8 			"/>
			<g id="_Group_">
				<defs>
					<polygon id="SVGID_3_" points="67.3,118.5 64.2,119.6 103.7,166.9 107.4,162.8 					"/>
				</defs>
				<defs>
					<polygon id="SVGID_4_" points="67.3,118.5 64.2,119.6 103.7,166.9 107.4,162.8 					"/>
				</defs>
				<defs>
					<polygon id="SVGID_5_" points="67.3,118.5 64.2,119.6 103.7,166.9 107.4,162.8 					"/>
				</defs>
				<defs>
					<polygon id="SVGID_6_" points="67.3,118.5 64.2,119.6 103.7,166.9 107.4,162.8 					"/>
				</defs>
				<clipPath id="SVGID_7_">
					<use xlink:href="#SVGID_3_"  style="overflow:visible;"/>
				</clipPath>
				<clipPath id="SVGID_8_" class="st9">
					<use xlink:href="#SVGID_4_"  style="overflow:visible;"/>
				</clipPath>
				<clipPath id="SVGID_9_" class="st10">
					<use xlink:href="#SVGID_5_"  style="overflow:visible;"/>
				</clipPath>
				<clipPath id="SVGID_10_" class="st11">
					<use xlink:href="#SVGID_6_"  style="overflow:visible;"/>
				</clipPath>
				<g class="st12">
					<polygon class="st13" points="62.2,115.3 106.8,167.1 102.8,169.5 58.9,115.7 					"/>
				</g>
				<path class="st14" d="M66.3,115.8c-2.7,1.5-3.7,5-2.2,7.8c0.5,0.9,1.2,1.6,2.1,2.1c5,2.6,9.5-2.3,9.5-2.3s4.5,5,9.5,2.3
					c2.7-1.6,3.6-5.1,2-7.8c-0.5-0.9-1.3-1.6-2.1-2.1H66.3z"/>
				<path class="st15" d="M68.3,116.7c0,2.8,4.3,7,7.4,7s7.4-4.3,7.4-7H68.3z"/>
				<rect x="69.6" y="106" class="st15" width="12.1" height="12.4"/>
			</g>
			<path class="st16" d="M51.1,41c-4.3-4-9.3-3.2-12.2,0c0,0-0.2,0.3-0.6,0.8L38.2,42c-2.1,2.9-7.8,11.8-6.1,21.1
				c1.2,6.6,4.9,8.8,6.8,11c0.3,1.5,0.4,3.3-0.6,4.4l-1.7,2c0,0,2.7-1,3.2-2.8C39.5,78.9,39,80,38.3,81c0,0,7,2.6,9.1-1.5
				c2.6-4.9,0.2-13-1.3-17.6c-1.3-4.1,3-7.8,3-7.8l0,0C52.7,51.7,54.4,46.4,51.1,41z M39.9,76.9L39.9,76.9
				C40,76.8,40,76.8,39.9,76.9L39.9,76.9z"/>
			<path class="st16" d="M115,42.1c0-0.1-0.1-0.1-0.2-0.2c-0.4-0.5-0.6-0.8-0.6-0.8c-3-3.2-8.3-4.1-13-0.1
				c-3.6,5.3-1.8,10.7,1.9,13.2l0,0c0,0,4.5,3.7,3,7.8c-1.7,4.6-4.3,12.6-1.6,17.6c1.4,2.5,4.8,2.5,7.2,2.2c-0.7-1-1.2-2.1-1.2-3.3
				c0.4,1.3,1.3,2.4,2.5,3.1c0.8-0.2,1.3-0.4,1.3-0.4c-5.8-8.3,4.5-6.4,6.9-17.8C123.1,53.9,117.2,45,115,42.1z"/>
			<path class="st17" d="M100.2,77.1c-1,1.6-1.6,3.4-2,5.2c-0.2,1.2-0.1,3.1,0.4,3.4c0.2,0.2,0.7-0.1,1-0.2c1.5-1.1,2.3-2.8,2.2-4.6
				C101.9,79.4,101.3,78,100.2,77.1z"/>
			<path class="st17" d="M103.8,71.5c-2.1-0.4-5.4,2.2-5.4,2.2c-3.8,3.2-1.6,18,1.7,17.4s3-5.3,3-5.3c1.6-1,3-5.3,3-5.3
				C108.8,72.4,103.8,71.5,103.8,71.5z M105.4,76.6c-0.1,0.6-0.3,1.1-0.6,1.7l-1.1-0.5c0.2-0.5,0.4-1,0.5-1.5
				c0.1-0.4,0.1-0.9-0.1-1.3c-0.1-0.3-0.4-0.6-0.8-0.7c-0.3,0-0.5,0-0.8,0.1c-0.7,0.4-1.3,0.9-1.7,1.6c1.4,1.2,2.1,3,2,4.8
				c0.1,2.2-0.9,4.3-2.7,5.6c-0.4,0.3-0.9,0.4-1.4,0.5c-0.3,0-0.6-0.1-0.8-0.2c-1.4-0.9-1-4-0.9-4.6c0.5-2.8,2.9-7.8,5.1-8.7
				c0.4-0.2,0.9-0.3,1.4-0.2c0.7,0.1,1.4,0.7,1.7,1.4C105.5,75.2,105.5,75.9,105.4,76.6L105.4,76.6z"/>
			<path class="st4" d="M103.6,73.2c-0.5-0.1-1,0-1.4,0.2c-2.3,0.9-4.7,5.9-5.1,8.7c-0.1,0.6-0.5,3.7,0.9,4.6
				c0.2,0.2,0.5,0.2,0.8,0.2c0.5,0,1-0.1,1.4-0.4c1.8-1.3,2.8-3.4,2.8-5.6c0.1-1.8-0.6-3.6-2-4.8c0.4-0.7,1-1.2,1.7-1.6
				c0.3-0.1,0.5-0.2,0.8-0.1c0.4,0.1,0.6,0.3,0.8,0.7c0.2,0.4,0.2,0.9,0.1,1.3c-0.1,0.5-0.3,1-0.5,1.5l1.1,0.5
				c0.3-0.5,0.4-1.1,0.6-1.7c0.2-0.7,0.1-1.4-0.2-2C105,73.9,104.4,73.3,103.6,73.2z M101.7,80.9c0.1,1.8-0.7,3.5-2.2,4.6
				c-0.3,0.1-0.7,0.4-1,0.2c-0.5-0.4-0.6-2.2-0.4-3.4c0.4-1.8,1-3.6,2-5.2C101.3,78,101.8,79.4,101.7,80.9z"/>
			<path class="st17" d="M50.7,77.1c1,1.6,1.6,3.4,2,5.2c0.2,1.2,0.1,3.1-0.4,3.4c-0.2,0.2-0.7-0.1-1-0.2c-1.5-1.1-2.3-2.8-2.2-4.6
				C49,79.4,49.6,78,50.7,77.1z"/>
			<path class="st17" d="M44.9,80.5c0,0,1.4,4.3,3,5.3c0,0-0.3,4.7,3,5.3s5.5-14.2,1.7-17.4c0,0-3.3-2.6-5.4-2.2
				C47.1,71.5,42.1,72.4,44.9,80.5z M45.7,74.6c0.3-0.7,0.9-1.2,1.7-1.4c0.5-0.1,1,0,1.4,0.2c2.3,0.9,4.7,5.9,5.1,8.7
				c0.1,0.6,0.5,3.7-0.9,4.6c-0.2,0.2-0.5,0.2-0.8,0.2c-0.5,0-1-0.2-1.4-0.5C49,85.1,48,83,48,80.8c-0.1-1.8,0.6-3.6,2-4.8
				c-0.4-0.7-1-1.2-1.7-1.6c-0.2-0.1-0.5-0.2-0.8-0.1c-0.4,0.1-0.6,0.3-0.8,0.7c-0.2,0.4-0.2,0.9-0.1,1.3c0.1,0.5,0.3,1,0.5,1.5
				L46,78.3c-0.2-0.5-0.4-1.1-0.6-1.7C45.4,75.9,45.4,75.2,45.7,74.6L45.7,74.6z"/>
			<path class="st4" d="M45.7,74.6c-0.2,0.6-0.3,1.3-0.2,2c0.1,0.6,0.3,1.1,0.6,1.7l1.1-0.5c-0.2-0.5-0.4-0.9-0.5-1.5
				c-0.1-0.4-0.1-0.9,0.1-1.3c0.1-0.3,0.4-0.6,0.8-0.7c0.3,0,0.5,0,0.8,0.1c0.7,0.4,1.3,0.9,1.7,1.6c-1.4,1.2-2.1,3-2,4.8
				c-0.1,2.2,1,4.3,2.8,5.6c0.4,0.3,0.9,0.4,1.4,0.5c0.3,0,0.6-0.1,0.8-0.2c1.3-0.9,1-4,0.9-4.6c-0.5-2.8-2.9-7.8-5.1-8.7
				c-0.4-0.2-0.9-0.3-1.4-0.2C46.6,73.3,46,73.9,45.7,74.6z M50.7,77.1c1,1.6,1.6,3.4,2,5.2c0.2,1.2,0.1,3.1-0.4,3.4
				c-0.2,0.2-0.7-0.1-1-0.2c-1.5-1.1-2.3-2.8-2.2-4.6C49,79.4,49.6,78,50.7,77.1L50.7,77.1z"/>
			<path class="st18" d="M75.5,113.8L75.5,113.8c-11.4,0-24.3-10.2-24.3-21.6V54.4c0-11.4,9.2-20.6,20.6-20.6h7.3
				c11.4,0,20.6,9.2,20.6,20.6v37.8C99.7,103.6,86.8,113.8,75.5,113.8z"/>
			<path class="st4" d="M71.4,106.7c1.9,2.2,5.3,2.5,7.5,0.6c0.2-0.2,0.4-0.4,0.6-0.6C76.9,107.8,74,107.8,71.4,106.7z"/>
			<path class="st4" d="M49.8,40.6c-2.9,1-5,2.8-5.8,5.2s-0.1,5.2,1.7,7.6C44.8,48.7,46.3,43.9,49.8,40.6L49.8,40.6z"/>
			<path class="st4" d="M101.8,40.3c2.9,1,5,2.8,5.8,5.2s0.1,5.2-1.7,7.6C106.7,48.4,105.2,43.6,101.8,40.3L101.8,40.3z"/>
			<path class="st4" d="M58,68.5c-0.2,0.1-0.4,0-0.5-0.2c0-0.1,0-0.3,0.1-0.4c2.6-2.6,6.7-3.1,9.8-1.2c0.2,0.1,0.2,0.3,0.1,0.5
				c-0.1,0.1-0.2,0.2-0.3,0.2C64.1,66.9,60.9,67.3,58,68.5z"/>
			<path class="st4" d="M93.4,68.5c0.2,0.1,0.4,0,0.5-0.2c0-0.1,0-0.3-0.1-0.4c-2.6-2.6-6.7-3.1-9.8-1.2c-0.2,0.1-0.2,0.3-0.1,0.5
				c0.1,0.1,0.2,0.2,0.3,0.2C87.3,66.9,90.5,67.3,93.4,68.5z"/>
			<path class="st4" d="M75.5,89.2l2.5-0.5c0.3,0,0.5-0.2,0.6-0.5c0-0.2-0.1-0.3-0.2-0.4l-2.5-2.5c-0.2-0.2-0.5-0.2-0.7,0l0,0
				l-2.5,2.5c-0.2,0.2-0.2,0.5,0,0.8c0.1,0.1,0.2,0.2,0.4,0.2L75.5,89.2z"/>
			<circle class="st19" cx="64.6" cy="75" r="2.9"/>
			<circle class="st19" cx="85.5" cy="75" r="2.9"/>
			<path class="st16" d="M110,57.2c-1.1,0-2.1-0.2-3.1-0.4c0-7.3-1.9-19.6-13.4-25.4c-3.7-1.9-18-6-27.1,0.5c0,0-0.4-2.5,0.5-3.2
				c-2.5,0.4-4.6,2.2-5.3,4.6c0,0-8.3-1.8-10.3,2c1.2-0.1,2.5,0.1,3.6,0.6c-13.6,6.4-9.1,26.5-9.1,26.5C46.3,65,47,72.2,51.2,76
				l0.2-13.4c0,0,3.2-13.1,6.7-13.6c0.5,1.4,1.2,2.6,2.1,3.7c2.4,5,7.6,11.5,18.3,10.3c0,0-6-0.8-8.8-4c5.7,2,14.2,3,26.7,1
				c0,0,1.2-0.1,3-0.2c0.2,0.6,0.3,1.3,0.3,2c0,6.4-0.3,0.3,0,14.8c0,0,5.7-6.9,6.7-14.2c0,0,0.2-0.1,0.3-2.4c1.3-0.4,2.5-1.1,3.5-2
				c0.3-0.1,0.4-0.4,0.3-0.6C110.5,57.3,110.2,57.1,110,57.2L110,57.2z"/>
			<path class="st20" d="M63.3,94.8c1,3.4,6,6,12.2,6s11.2-2.6,12.2-6c-2.6,1.3-7.1,1.4-12.2,1.4S65.9,96.1,63.3,94.8z"/>
			<path class="st21" d="M87.2,95.4c0.3-0.4,0.5-0.8,0.7-1.3c0-0.1-0.2-0.2-0.4-0.1c-2.8,1.1-7.1,1.2-12,1.2s-9.3-0.1-12-1.2
				c-0.2-0.1-0.5,0-0.4,0.1c0.2,0.5,0.4,0.9,0.7,1.3c2.8,1,7,1.1,11.8,1.1S84.4,96.4,87.2,95.4z"/>
			
				<radialGradient id="SVGID_11_" cx="699.6" cy="554.25" r="11.9" gradientTransform="matrix(1 0 0 1 0 -36)" gradientUnits="userSpaceOnUse">
				<stop  offset="0" style="stop-color:#F0BFD9;stop-opacity:0.95"/>
				<stop  offset="4.000000e-02" style="stop-color:#EEBCD3;stop-opacity:0.88"/>
				<stop  offset="0.15" style="stop-color:#E9B3C2;stop-opacity:0.65"/>
				<stop  offset="0.27" style="stop-color:#E4ABB2;stop-opacity:0.45"/>
				<stop  offset="0.39" style="stop-color:#E1A4A6;stop-opacity:0.29"/>
				<stop  offset="0.51" style="stop-color:#DE9F9C;stop-opacity:0.16"/>
				<stop  offset="0.62" style="stop-color:#DC9C96;stop-opacity:7.000000e-02"/>
				<stop  offset="0.73" style="stop-color:#DA9A91;stop-opacity:2.000000e-02"/>
				<stop  offset="0.83" style="stop-color:#DA9990;stop-opacity:0"/>
				<stop  offset="1" style="stop-color:#DA9990;stop-opacity:0"/>
			</radialGradient>
			<circle class="st22" cx="92.8" cy="86.8" r="11.9"/>
			<path class="st4" d="M69.6,115v-1.1h12.1v1.3C79.6,116.5,75.6,118,69.6,115z"/>
			<rect x="95.1" y="157.7" class="st8" width="13.4" height="30.1"/>
			<rect x="93.3" y="155.1" class="st13" width="17" height="3.6"/>
			<path class="st2" d="M101.8,148.7v6.6h-6.6C95.2,151.7,98.1,148.7,101.8,148.7z"/>
			<path class="st8" d="M101.8,148.7c3.6,0,6.6,2.9,6.6,6.6l0,0h-6.6V148.7z"/>
		</g>
	</g>
</g>
</svg>
