<?xml version="1.0" encoding="utf-8"?>
<!-- Generator: Adobe Illustrator 22.1.0, SVG Export Plug-In . SVG Version: 6.00 Build 0)  -->
<svg version="1.1" id="Layer_1" xmlns="http://www.w3.org/2000/svg" xmlns:xlink="http://www.w3.org/1999/xlink" x="0px" y="0px"
	 viewBox="0 0 154 154" style="enable-background:new 0 0 154 154;" xml:space="preserve">
<style type="text/css">
	.st0{fill:#9FBEAF;}
	.st1{clip-path:url(#SVGID_2_);fill:#EFB100;}
	.st2{clip-path:url(#SVGID_2_);fill:#DFE0E0;}
	.st3{clip-path:url(#SVGID_2_);fill:#F0DBCB;}
	.st4{clip-path:url(#SVGID_2_);fill:#005E88;}
	.st5{clip-path:url(#SVGID_2_);fill:none;stroke:#EBC19C;stroke-width:0.99;stroke-linecap:round;stroke-linejoin:round;}
	.st6{clip-path:url(#SVGID_2_);}
	.st7{fill:#27B38F;}
	.st8{fill:#EFB100;}
	.st9{fill:#77C7FF;}
	.st10{fill:#CCCFD9;}
	.st11{clip-path:url(#SVGID_7_);}
	.st12{clip-path:url(#SVGID_8_);}
	.st13{clip-path:url(#SVGID_9_);}
	.st14{clip-path:url(#SVGID_10_);}
	.st15{clip-path:url(#SVGID_10_);fill:#CCCFD9;}
	.st16{clip-path:url(#SVGID_10_);fill:#F0DBCB;}
	.st17{fill:#231F20;}
	.st18{fill:#EBC19C;}
	.st19{fill:#F5E0CD;}
	.st20{fill:#F0D0B3;}
	.st21{fill:#F0DBCB;}
	.st22{fill:#A87C4F;}
	.st23{fill:url(#SVGID_11_);}
	.st24{fill:#58595B;}
	.st25{fill:#4C5258;}
	.st26{fill:#C3996B;}
	.st27{fill:#FFFFFF;}
	.st28{fill:#1B75BB;}
	.st29{fill:#DFE0E0;}
</style>
<title>ic_young_boy</title>
<circle class="st0" cx="77" cy="77" r="77"/>
<g>
	<g>
		<defs>
			<circle id="SVGID_1_" cx="77" cy="77" r="77"/>
		</defs>
		<clipPath id="SVGID_2_">
			<use xlink:href="#SVGID_1_"  style="overflow:visible;"/>
		</clipPath>
		<path class="st1" d="M79.8,39.4c-19.3,0-33.5,4-36.3,15.3c0.1,1,0.3,2.1,0.7,3.1c3.3,9.9,18,17.3,35.7,17.3s32.3-7.5,35.7-17.3
			c0.3-1,0.6-2,0.7-3.1C114.8,44.8,99.2,39.4,79.8,39.4z"/>
		<path class="st2" d="M100.3,123.9c3.9,8.6,7.8,17.2,11.8,25.6l1.5,3.1l0.8,1.5l0.3,0.5c0.1,0.2,0.3,0.5,0.5,0.7l4.1,5.8l8.2,11.5
			l4.8,6.9l-2.5,1.9l-2.5,1.9L115.6,169l-5.8-7.2l-1.5-1.8c-0.1-0.2-0.2-0.3-0.4-0.5l-0.4-0.6c-0.3-0.5-0.5-0.8-0.7-1.1
			c-0.4-0.7-0.8-1.4-1.2-2.1l-1.2-2c-4.7-8.3-9.1-16.6-13.6-25l0,0c-2.2-4.1-1.7-8.5,1-9.9l0.1-0.1
			C94.7,117.4,98.4,119.7,100.3,123.9z"/>
		<polygon class="st3" points="92.6,172.3 86.6,172.8 89.7,214.1 89.7,213.9 89.6,260.4 95.6,260.4 95.7,213.9 95.7,213.8 
			95.6,213.6 		"/>
		<path class="st4" d="M100.3,181l-0.1,8.2l-0.1,8.2l0,0l-0.2,15.9v0.5l-0.3,3.1H85.5l-0.3-3.1v0.5l-3.8-23.8l-1.3-8.1l0,0
			c-1.7-10.3,2-19.2,8.2-19.6l1-0.1C95.6,162.4,100.5,170.6,100.3,181z"/>
		<polygon class="st3" points="71.1,172.8 65.2,172.3 62.2,213.6 62.1,213.8 62.1,213.9 62.2,260.4 68.2,260.4 68.1,213.9 
			68.1,214.1 		"/>
		<path class="st4" d="M77.5,182.5l-1.3,8.1l-1.3,8.1l0,0l-2.5,15.7v-0.5l-0.3,3.1H58l-0.3-3.1v-0.5l-0.3-24.1l-0.1-8.2l0,0
			c-0.1-10.5,4.8-18.6,11-18.2l1,0.1C75.5,163.4,79.2,172.2,77.5,182.5z"/>
		<path class="st3" d="M146.8,186c0.1,6.4-6.8,12.5-13.2,12.5s-9.8-6-9.8-12.3c-0.3-6.3,4.6-11.8,10.9-12.1s11.8,4.6,12.1,10.9
			C146.8,185.4,146.8,185.7,146.8,186L146.8,186z"/>
		<path class="st3" d="M132.8,189.8c0,3-1.6,5.9-4.6,5.9c-3.8,0-6.6-2.3-7.1-5.9c-0.6-4.8,4.5-11.1,6.4-11.4
			C130.4,177.9,132.8,186.8,132.8,189.8z"/>
		<path class="st5" d="M124.2,190.2c1.2,4.7,4.3,8.4,9.3,8.3c0,0,3.5-0.3,4-3.3"/>
		<path class="st5" d="M126.4,195.5c-2.8-0.5-5-2.8-5.3-5.7c-0.4-3.6,2.2-7.9,4.4-10"/>
		<g class="st6">
			<path class="st7" d="M32.8,190.2c0,0,6.2-24.9,6.8-26.7s3.4-2.9,6.2-2.6s13,2.9,13,5.3s-4.3,27.7-5.7,29.8s-3.8,2.2-7.7,1.9
				S32.8,194.4,32.8,190.2z"/>
			<path class="st8" d="M37.2,186.2l-5.6-1.3c0,0,3.1-18.2,4.8-20.7s6.1-7.5,11.8-4.8s8.5,4.4,8.5,4.4l-2.4,2.5c0,0-6-4.1-8.4-1.6
				s-6,17.2-6.3,19S39.6,185.8,37.2,186.2z"/>
			<path class="st7" d="M37.6,182.4c0,0.8-0.6,1.5-1.5,1.5s-1.5-0.6-1.5-1.5c0-0.8,0.6-1.5,1.4-1.5
				C36.9,180.9,37.5,181.5,37.6,182.4L37.6,182.4z"/>
			<ellipse class="st9" cx="78.9" cy="180.1" rx="26.2" ry="24.2"/>
			<path class="st9" d="M48.2,200.7h61.3l-10.9-77.9c-0.3-2.3-2.3-4-4.6-4.1H63.7c-2.3,0.1-4.3,1.8-4.6,4.1L48.2,200.7z"/>
			<path class="st10" d="M81.5,142.7c0,1.4-1.2,2.6-2.6,2.6s-2.6-1.2-2.6-2.6c0-1.4,1.2-2.6,2.6-2.6l0,0
				C80.4,140.1,81.5,141.2,81.5,142.7z"/>
			<path class="st10" d="M81.5,159.8c0,1.4-1.2,2.6-2.6,2.6s-2.6-1.2-2.6-2.6c0-1.4,1.2-2.6,2.6-2.6l0,0
				C80.4,157.2,81.5,158.3,81.5,159.8z"/>
			<path class="st10" d="M81.5,176.9c0,1.4-1.2,2.6-2.6,2.6s-2.6-1.2-2.6-2.6c0-1.4,1.2-2.6,2.6-2.6l0,0
				C80.4,174.3,81.5,175.4,81.5,176.9z"/>
			<polygon class="st7" points="87.3,120.6 90.4,121.6 50.9,168.9 47.2,164.9 			"/>
			<g id="_Group_">
				<defs>
					<polygon id="SVGID_3_" points="87.3,120.5 90.4,121.6 50.9,168.9 47.2,164.9 					"/>
				</defs>
				<defs>
					<polygon id="SVGID_4_" points="87.3,120.5 90.4,121.6 50.9,168.9 47.2,164.9 					"/>
				</defs>
				<defs>
					<polygon id="SVGID_5_" points="87.3,120.5 90.4,121.6 50.9,168.9 47.2,164.9 					"/>
				</defs>
				<defs>
					<polygon id="SVGID_6_" points="87.3,120.5 90.4,121.6 50.9,168.9 47.2,164.9 					"/>
				</defs>
				<clipPath id="SVGID_7_">
					<use xlink:href="#SVGID_3_"  style="overflow:visible;"/>
				</clipPath>
				<clipPath id="SVGID_8_" class="st11">
					<use xlink:href="#SVGID_4_"  style="overflow:visible;"/>
				</clipPath>
				<clipPath id="SVGID_9_" class="st12">
					<use xlink:href="#SVGID_5_"  style="overflow:visible;"/>
				</clipPath>
				<clipPath id="SVGID_10_" class="st13">
					<use xlink:href="#SVGID_6_"  style="overflow:visible;"/>
				</clipPath>
				<g class="st14">
					<polygon class="st8" points="92.4,117.4 47.8,169.2 51.8,171.5 95.7,117.8 					"/>
				</g>
				<path class="st15" d="M88.3,117.8c2.7,1.5,3.7,5,2.2,7.7c-0.5,0.9-1.2,1.6-2.1,2.1c-5,2.6-9.5-2.3-9.5-2.3s-4.5,4.9-9.5,2.3
					c-2.7-1.6-3.6-5.1-2-7.8c0.5-0.9,1.3-1.6,2.1-2.1h18.8V117.8z"/>
				<path class="st16" d="M86.3,118.7c0,2.8-4.3,7-7.4,7s-7.4-4.3-7.4-7H86.3z"/>
				<rect x="72.9" y="108" class="st16" width="12.1" height="12.4"/>
			</g>
			<polygon class="st17" points="41.5,263.8 41.5,257.5 60.7,251 69.7,251 69.7,263.8 			"/>
			<polygon class="st17" points="116.2,263.8 116.2,257.5 97,251 88.1,251 88.1,263.8 			"/>
			<path class="st18" d="M85,117v-1.1H72.9v1.3C75,118.6,79,120,85,117z"/>
			<path class="st19" d="M105.4,81.3c-1,1.5-1.8,3.2-2.2,5c-0.2,1.2-0.1,3,0.4,3.3c0.2,0.1,0.7-0.1,1-0.2c1.5-1,2.4-2.7,2.3-4.5
				C107.1,83.6,106.5,82.2,105.4,81.3z"/>
			<path class="st19" d="M109.2,75.9c-2.3-0.4-5.8,2.1-5.8,2.1c-4.1,3.1-1.7,17.4,1.8,16.8s3.2-5.1,3.2-5.1c1.7-1,3.2-5.1,3.2-5.1
				C114.5,76.9,109.2,75.9,109.2,75.9z M110.9,80.8c-0.1,0.6-0.4,1.1-0.6,1.6l-1.1-0.4c0.2-0.4,0.4-0.9,0.5-1.4
				c0.1-0.4,0.1-0.9-0.1-1.2c-0.1-0.3-0.5-0.6-0.8-0.7c-0.3,0-0.6,0-0.8,0.1c-0.7,0.4-1.4,0.9-1.8,1.6c1.5,1.1,2.3,2.8,2.1,4.6
				c0.1,2.2-1.1,4.2-2.9,5.4c-0.4,0.3-0.9,0.4-1.5,0.4c-0.3,0-0.6-0.1-0.9-0.2c-1.5-0.9-1-3.8-1-4.4c0.5-2.7,3.1-7.5,5.5-8.4
				c0.5-0.2,1-0.2,1.5-0.2c0.8,0.1,1.4,0.6,1.8,1.3C110.9,79.5,111,80.2,110.9,80.8z"/>
			<path class="st20" d="M109,77.6c-0.5,0-1,0-1.5,0.2c-2.4,0.9-5,5.7-5.5,8.4c-0.1,0.6-0.5,3.5,1,4.4c0.3,0.2,0.6,0.2,0.9,0.2
				c0.5,0,1-0.2,1.5-0.4c1.9-1.1,3-3.2,2.9-5.4c0.1-1.8-0.7-3.5-2.1-4.6c0.5-0.7,1.1-1.2,1.8-1.6c0.3-0.1,0.6-0.2,0.8-0.1
				c0.4,0.1,0.7,0.3,0.8,0.7c0.2,0.4,0.2,0.8,0.1,1.2c-0.1,0.5-0.3,1-0.5,1.4l1.1,0.4c0.3-0.5,0.5-1.1,0.6-1.6
				c0.2-0.6,0.1-1.3-0.2-1.9C110.4,78.2,109.8,77.7,109,77.6z M107,85c0.1,1.8-0.8,3.5-2.3,4.5c-0.3,0.1-0.8,0.4-1,0.2
				c-0.6-0.3-0.6-2.1-0.4-3.3c0.4-1.8,1.2-3.5,2.2-5C106.5,82.2,107.1,83.6,107,85z"/>
			<path class="st19" d="M52.5,81.3c1,1.5,1.8,3.2,2.2,5c0.2,1.2,0.2,3-0.4,3.3c-0.2,0.1-0.7-0.1-1-0.2c-1.5-1-2.4-2.7-2.3-4.5
				C50.9,83.6,51.4,82.2,52.5,81.3z"/>
			<path class="st19" d="M46.4,84.6c0,0,1.5,4.2,3.2,5.1c0,0-0.3,4.6,3.2,5.1s5.9-13.7,1.8-16.8c0,0-3.5-2.5-5.8-2.1
				C48.8,75.9,43.4,76.9,46.4,84.6z M47.2,78.9c0.3-0.7,1-1.2,1.8-1.3c0.5,0,1,0,1.5,0.2c2.4,0.9,5,5.7,5.5,8.4
				c0.1,0.6,0.5,3.5-1,4.4c-0.3,0.2-0.6,0.2-0.9,0.2c-0.5,0-1-0.2-1.5-0.4c-1.9-1.1-3-3.2-2.9-5.4c-0.1-1.8,0.7-3.6,2.2-4.6
				c-0.5-0.7-1.1-1.2-1.8-1.6c-0.3-0.1-0.6-0.2-0.8-0.1c-0.4,0.1-0.7,0.3-0.8,0.7c-0.2,0.4-0.2,0.8-0.1,1.2c0.1,0.5,0.3,1,0.5,1.4
				l-1.1,0.4c-0.3-0.5-0.5-1.1-0.6-1.6C46.9,80.2,46.9,79.5,47.2,78.9z"/>
			<path class="st20" d="M47.2,78.9c-0.3,0.6-0.3,1.3-0.2,1.9s0.4,1.1,0.6,1.6l1.1-0.4c-0.2-0.4-0.4-0.9-0.5-1.4
				c-0.1-0.4-0.1-0.9,0.1-1.2c0.2-0.3,0.5-0.6,0.8-0.7c0.3,0,0.6,0,0.8,0.1c0.7,0.4,1.4,0.9,1.8,1.6c-1.5,1.1-2.3,2.8-2.2,4.6
				c-0.1,2.2,1.1,4.2,2.9,5.4c0.4,0.3,0.9,0.4,1.5,0.4c0.3,0,0.6-0.1,0.9-0.2c1.5-0.9,1-3.8,1-4.4c-0.5-2.7-3-7.5-5.5-8.4
				c-0.5-0.2-1-0.2-1.5-0.2C48.2,77.7,47.6,78.2,47.2,78.9z M52.5,81.3c1,1.5,1.8,3.2,2.2,5c0.2,1.2,0.2,3-0.4,3.3
				c-0.2,0.1-0.7-0.1-1-0.2c-1.5-1-2.4-2.7-2.3-4.5C50.9,83.6,51.4,82.2,52.5,81.3z"/>
			<path class="st21" d="M79,116.8L79,116.8c-12.1,0-25.9-9.9-25.9-20.9V59.5c0-11,9.8-19.9,22-19.9h7.8c12.1,0,22,8.9,22,19.9V96
				C104.8,107,91.1,116.8,79,116.8z"/>
			<path class="st18" d="M70.6,109.1c4.5,4.6,11.9,4.7,16.5,0.1l0.1-0.1C81.9,111.2,76,111.2,70.6,109.1z"/>
			<path class="st22" d="M92.7,71.9c0.2,0,0.3-0.2,0.1-0.3c-1.5-0.8-3.3-0.6-4.6,0.5c-0.1,0.1,0,0.3,0.2,0.2
				c0.7-0.3,1.4-0.4,2.1-0.5C91.3,71.8,92,71.8,92.7,71.9z"/>
			<path class="st22" d="M64,72.6c-0.2,0-0.3-0.2-0.1-0.3c0.8-0.5,1.8-0.6,2.8-0.5c0.9,0.1,1.8,0.5,2.6,1.1c0.2,0.1,0,0.4-0.2,0.3
				C67.3,72.5,65.6,72.4,64,72.6L64,72.6z"/>
			
				<radialGradient id="SVGID_11_" cx="674.75" cy="555.3" r="11.5" gradientTransform="matrix(1 0 0 1 0 -34)" gradientUnits="userSpaceOnUse">
				<stop  offset="0" style="stop-color:#F0BFD9;stop-opacity:0.95"/>
				<stop  offset="4.000000e-02" style="stop-color:#EEBCD3;stop-opacity:0.88"/>
				<stop  offset="0.15" style="stop-color:#E9B3C2;stop-opacity:0.65"/>
				<stop  offset="0.27" style="stop-color:#E4ABB2;stop-opacity:0.45"/>
				<stop  offset="0.39" style="stop-color:#E1A4A6;stop-opacity:0.29"/>
				<stop  offset="0.51" style="stop-color:#DE9F9C;stop-opacity:0.16"/>
				<stop  offset="0.62" style="stop-color:#DC9C96;stop-opacity:7.000000e-02"/>
				<stop  offset="0.73" style="stop-color:#DA9A91;stop-opacity:2.000000e-02"/>
				<stop  offset="0.83" style="stop-color:#DA9990;stop-opacity:0"/>
				<stop  offset="1" style="stop-color:#DA9990;stop-opacity:0"/>
			</radialGradient>
			<ellipse class="st23" cx="98.6" cy="90.8" rx="12.7" ry="11.5"/>
			<path class="st18" d="M79,93l2.7-0.4c0.3,0,0.5-0.2,0.6-0.5c0-0.2,0-0.3-0.2-0.4l-2.7-2.4c-0.2-0.2-0.6-0.2-0.8,0l-2.7,2.4
				c-0.2,0.2-0.2,0.5,0,0.7c0.1,0.1,0.3,0.2,0.4,0.2L79,93z"/>
			<ellipse class="st24" cx="66.8" cy="78.2" rx="3.1" ry="2.8"/>
			<ellipse class="st24" cx="90.5" cy="78.2" rx="3.1" ry="2.8"/>
			<path class="st25" d="M51,76.7l-1.6-19.8c0,0,1.7-9.2,9.3-13.3c0,0,9.2-7.4,20.3-7s15.4,3.9,18.1,6.3c0,0,11.9,0.8,11.9,15.2
				s-1.1,18.8-1.1,18.8s-2.8,0.7-3.5,2.7V68c0,0-8.1-8.3-9.1-17.4c0,0-13.2,17.5-40.7,11.5v18.2C54.1,78.6,52.7,77.2,51,76.7z"/>
			<path class="st26" d="M66.4,98.5c1,3.3,6.4,5.8,13,5.8s11.9-2.5,13-5.8c-2.8,1.2-7.6,1.4-13,1.4S69.2,99.7,66.4,98.5z"/>
			<path class="st27" d="M92,99c0.3-0.4,0.5-0.8,0.7-1.2c0-0.1-0.2-0.2-0.5-0.1c-3,1-7.6,1.2-12.8,1.2s-9.9-0.1-12.8-1.2
				c-0.2-0.1-0.5,0-0.5,0.1c0.2,0.4,0.4,0.9,0.7,1.2c3,1,7.5,1.1,12.5,1.1S89,100,92,99z"/>
			<path class="st28" d="M79.8,21.9c9.6,0,17.8,8.1,20.6,19.3h0.4l8.3,8.5h2.4C111.5,34.3,97.3,21.9,79.8,21.9z"/>
			<path class="st28" d="M79.8,21.9c-16.4,0-29.9,11-31.5,25h3.2l7.4-4.2C61.3,30.8,69.7,21.9,79.8,21.9z"/>
			<path class="st8" d="M79.8,21.9c-10.1,0-18.5,8.9-20.9,20.8l2.8-1.6h3.8C67.4,30,73.1,21.9,79.8,21.9z"/>
			<path class="st8" d="M79.8,21.9c6.7,0,12.4,8.1,14.4,19.3h6.2C97.6,30,89.4,21.9,79.8,21.9z"/>
			<path class="st28" d="M79.8,21.9c-6.7,0-12.4,8.1-14.4,19.3h28.8C92.2,30,86.5,21.9,79.8,21.9z"/>
			<path class="st8" d="M43.4,55.1c0-9.7,12.2-21.7,35.8-20.8c22.8,0.8,36.9,11.2,36.9,20.8l-7.5,1.2c0,0-6-12.4-29.2-12.4
				c-23.7,0-27.2,6.1-30.2,13.3L43.4,55.1z"/>
			<path class="st29" d="M63,118.4L63,118.4c-2.9-1.3-6.7,1.5-8.8,6.3l0,0c-2.1,4.8-4.2,9.7-6.3,14.5c-2,4.5-4.1,9-6.3,13.2l-1-1.5
				v11.7h-0.9c0.2,0.1,0.3,0.2,0.6,0.3h0.1l0.2,0.1l0.4,0.1c0.3,0.1,0.6,0.1,0.9,0.1c0.4,0,0.8,0,1.1-0.1c0.4-0.1,0.8-0.2,1.2-0.4
				l0.2-0.1l0.1-0.1l0.3-0.2c0.1-0.1,0.3-0.2,0.4-0.3c0.2-0.1,0.3-0.3,0.5-0.5c0.7-0.7,1.3-1.4,1.8-2.2c0.4-0.6,0.8-1.2,1.2-1.8
				c2.9-4.8,5.4-9.4,7.9-14.2s4.9-9.5,7.2-14.2C66.1,124.4,65.7,119.6,63,118.4z M42.1,158.6L42.1,158.6
				C42.1,158.7,42.1,158.7,42.1,158.6z"/>
		</g>
	</g>
</g>
</svg>
