<?xml version="1.0" encoding="utf-8"?>
<!-- Generator: Adobe Illustrator 22.1.0, SVG Export Plug-In . SVG Version: 6.00 Build 0)  -->
<svg version="1.1" id="Layer_1" xmlns="http://www.w3.org/2000/svg" xmlns:xlink="http://www.w3.org/1999/xlink" x="0px" y="0px"
	 viewBox="0 0 154 154" style="enable-background:new 0 0 154 154;" xml:space="preserve">
<style type="text/css">
	.st0{fill:#9FBEAF;}
	.st1{clip-path:url(#SVGID_2_);}
	.st2{fill:#F5E0CD;}
	.st3{fill:#4C5258;}
	.st4{fill:#787986;}
	.st5{fill:#F1F1F2;}
	.st6{fill:#404041;}
	.st7{opacity:0.55;fill:#BBBDBF;enable-background:new    ;}
	.st8{fill:#EBC19C;}
	.st9{fill:#F0D0B3;}
	.st10{fill:#C3996B;}
	.st11{fill:#FFFFFF;}
	.st12{fill:#8A5D3B;}
	.st13{fill:url(#SVGID_3_);}
	.st14{fill:#58595B;}
</style>
<title>ic_young_female</title>
<g>
	<g id="Layer_1_1_">
		<circle class="st0" cx="77" cy="77" r="77"/>
		<g>
			<g>
				<defs>
					<circle id="SVGID_1_" cx="77" cy="77" r="77"/>
				</defs>
				<clipPath id="SVGID_2_">
					<use xlink:href="#SVGID_1_"  style="overflow:visible;"/>
				</clipPath>
				<g class="st1">
					<path class="st2" d="M68.2,351.8c0,2.6-1.5,4.8-3.4,4.9H64c-1.8,0-3.5-2.1-3.6-4.7l-7.9-153.6c-0.1-2.6,1.3-4.8,3.1-4.9l10-0.2
						c1.8,0,3.3,2.1,3.3,4.7L68.2,351.8z"/>
					<path class="st2" d="M97.2,351.9c-0.1,2.6-1.7,4.8-3.5,4.8h-0.8c-1.8,0-3.4-2.2-3.4-4.8l-3.6-153.7c-0.1-2.6,1.4-4.8,3.2-4.8
						h10c1.8,0,3.3,2.2,3.2,4.8L97.2,351.9z"/>
					<path class="st3" d="M77.4,212c-6.2,0.5-24.3,8.3-30.3,6.5l4.2,67.6c0,0,23.3,13.2,53.5,0c0.7-6,4.2-68.3,4.2-68.3
						C103.5,219.6,83.8,212.6,77.4,212z"/>
					<path class="st4" d="M109.5,219.4L99,180.9l5.4-25.5c0.2-1.1,0.2-2.1-0.1-3.2L98,127.1c-6.8-1.4-13.7-1.9-20.7-1.5
						c-17.6-0.1-19.4,1.5-19.4,1.5l-6.1,24.3c-0.4,1.6-0.4,3.3-0.1,4.9l5.3,24.6l-10.5,38.5l0.5,0.7c4.8,1.5,17.4,5.8,25.4,7.1
						l4.1-12.1l3.3,12.4c8-0.9,24.1-6.5,29-8.1L109.5,219.4z"/>
					<path class="st4" d="M51.9,127.6c3.5-2.6,8-2.2,10,0.7l1.7,2.5c1.9,3,0.4,7.2-3.3,9.4l-37.6,22.3l-0.4,0.2
						c-0.5,0.3-1,0.5-1.6,0.6c-0.6,0.2-1.1,0.2-1.7,0.2c-0.5,0-1.1,0-1.6-0.1c-0.4-0.1-0.9-0.2-1.3-0.4c-1.2-0.5-2.2-1.1-3.1-2
						c-1.1-1.1-2.1-2.3-2.9-3.6c-1.3-2.1-2.5-4.3-3.5-6.6c-2-4.3-3.6-8.6-5.1-12.9c-3-8.6-5.6-17.3-8-26.1l5.9-1.9
						c3.1,8.3,6.5,16.6,10.1,24.7c1.8,4,3.8,8,5.9,11.7c1,1.7,2.1,3.4,3.3,5c0.4,0.6,0.9,1.1,1.5,1.5h0.1l0,0l-0.1,0.2l-0.2,0.3
						c-0.2,0.4-0.4,0.6-0.6,1l-0.2,0.5c-0.1,0.1-0.1,0.2-0.2,0.4c-0.4,1-0.1,1.4-0.3,0.9l-2.1-2.9L51.9,127.6z"/>
					<polygon class="st3" points="29.9,367.6 25.9,369.6 25.9,377.6 48.8,377.6 63.5,370 63.5,377.6 70.5,377.6 70.5,360.7 
						51.3,367.6 					"/>
					<polygon class="st2" points="67.6,338.5 64.5,338.5 56.8,353.7 29.9,367.6 51.3,367.6 70.5,360.7 70.5,353.7 					"/>
					<polygon class="st3" points="59,367.6 55,369.6 55,377.6 77.9,377.6 92.6,370 92.6,377.6 99.6,377.6 99.6,360.7 80.4,367.6 
											"/>
					<polygon class="st2" points="96.7,338.5 93.6,338.5 85.9,353.7 59,367.6 80.4,367.6 99.6,360.7 99.6,353.7 					"/>
					<polygon class="st5" points="61.3,129.3 78,176.6 93.4,129.3 					"/>
					<path class="st6" d="M78.1,18L78.1,18c-21.4,0-38.8,17.3-39,38.7v52.9c0,4.2,2.9,7.7,7,8.6c-0.4-2.1-0.5-4.3-0.4-6.5
						c0,0,0.6,3.5,1.3,6.6c0.3,0,0.6,0,1,0l1.2,0.2c-0.7-2.8-1-5.7-0.8-8.5c0,0,0.9,5.4,1.8,8.7l28,4.7l28-4.7
						c1-3.3,1.8-8.7,1.8-8.7c0.1,2.9-0.2,5.7-0.8,8.5l1.2-0.2c0.3,0,0.6,0,1,0c0.7-3.1,1.3-6.6,1.3-6.6c0.1,2.2,0,4.3-0.4,6.5
						c4.1-0.9,7-4.4,7-8.6V56.7C117,35.3,99.6,17.9,78.1,18z"/>
					<path class="st7" d="M76.8,125.1c-2.5-1.5-10.1-5-16.3,4.7c-0.2,0.3-0.2,0.6-0.2,0.9l3.2,17.3c0,0.5,0.5,0.9,1,0.9
						c0.3,0,0.6-0.2,0.8-0.5c1.9-3.4,5.9-9.2,11.8-10.7c0.2,0,0.3,0,0.5,0c5.9,1.5,9.9,7.3,11.8,10.7c0.2,0.5,0.8,0.6,1.2,0.4
						c0.3-0.2,0.5-0.4,0.5-0.8l3.2-17.3c0.1-0.3,0-0.6-0.2-0.9c-6.2-9.8-13.9-6.2-16.3-4.7C77.5,125.3,77.1,125.3,76.8,125.1z"/>
					<path class="st5" d="M76.9,124c-2.3-1.4-9.5-4.8-15.4,4.5c-0.2,0.2-0.2,0.5-0.2,0.8l3,16.4c0,0.5,0.4,0.9,0.9,0.8
						c0.3,0,0.6-0.2,0.7-0.5c1.8-3.2,5.6-8.7,11.1-10.1c0.1,0,0.3,0,0.5,0c5.5,1.4,9.3,6.9,11.1,10.1c0.2,0.4,0.8,0.6,1.2,0.4
						c0.3-0.1,0.5-0.4,0.5-0.7l3-16.4c0.1-0.3,0-0.6-0.2-0.8c-5.9-9.2-13.1-5.9-15.4-4.5C77.4,124.2,77.1,124.2,76.9,124z"/>
					<path class="st2" d="M78.1,80.3L78.1,80.3c5.1,0,9.2,4.1,9.2,9.2v35.4c0,5.1-4.1,9.2-9.2,9.2l0,0c-5.1,0-9.2-4.1-9.2-9.2V89.5
						C68.9,84.4,73,80.3,78.1,80.3z"/>
					<path class="st8" d="M87.3,119.5V118H68.9v1.7C72.2,121.5,78.3,123.3,87.3,119.5z"/>
					<path class="st9" d="M109.7,72.9c-1.2,2-2.1,4.3-2.6,6.6c-0.2,1.5-0.2,3.9,0.5,4.4c0.3,0.2,0.9-0.1,1.2-0.3
						c1.7-1,2.8-3.3,2.8-5.9C111.7,75.9,111,74.2,109.7,72.9z"/>
					<path class="st9" d="M114.2,65.8c-2.7-0.5-6.9,2.8-6.9,2.8c-4.9,4.1-2,22.8,2.2,22.1s3.8-6.7,3.8-6.7c2.1-1.3,3.8-6.8,3.8-6.8
						C120.6,67.1,114.2,65.8,114.2,65.8z M116.2,72.3c-0.2,0.7-0.4,1.4-0.7,2.1l-1.3-0.6c0.3-0.6,0.5-1.2,0.7-1.8
						c0.1-0.5,0.1-1.1-0.1-1.6c-0.2-0.4-0.5-0.8-1-0.9c-0.3,0-0.7,0-1,0.2c-0.9,0.5-1.6,1.2-2.2,2c1.8,1.5,2.7,3.8,2.6,6.1
						c0,3.1-1.4,5.8-3.5,7.1c-0.5,0.3-1.1,0.5-1.7,0.6c-0.4,0-0.7-0.1-1-0.3c-1.7-1.1-1.2-5-1.1-5.8c0.6-3.6,3.6-9.9,6.5-11
						c0.6-0.2,1.2-0.3,1.8-0.3c1,0.2,1.7,0.8,2.1,1.8C116.3,70.6,116.4,71.4,116.2,72.3L116.2,72.3z"/>
					<path class="st8" d="M113.9,68c-0.6-0.1-1.2,0-1.8,0.3c-2.9,1.1-5.9,7.5-6.5,11c-0.1,0.8-0.6,4.7,1.1,5.8
						c0.3,0.2,0.6,0.3,1,0.3c0.6,0,1.2-0.2,1.7-0.6c2.1-1.3,3.5-4,3.5-7.1c0.2-2.3-0.8-4.6-2.6-6.1c0.5-0.9,1.3-1.6,2.2-2
						c0.3-0.1,0.7-0.2,1-0.2c0.5,0.1,0.8,0.4,1,0.9s0.2,1.1,0.1,1.6c-0.2,0.6-0.4,1.2-0.7,1.8l1.3,0.6c0.3-0.7,0.6-1.4,0.7-2.1
						c0.2-0.8,0.1-1.7-0.2-2.5C115.6,68.9,114.9,68.2,113.9,68z M111.6,77.8c0,2.5-1.1,4.9-2.8,5.9c-0.3,0.2-0.9,0.5-1.2,0.3
						c-0.7-0.4-0.7-2.8-0.5-4.4c0.5-2.3,1.4-4.6,2.6-6.6C111,74.2,111.7,75.9,111.6,77.8L111.6,77.8z"/>
					<path class="st9" d="M46.7,72.9c1.2,2,2.1,4.3,2.6,6.6c0.2,1.5,0.2,3.9-0.5,4.4c-0.3,0.2-0.9-0.1-1.2-0.3
						c-1.7-1-2.8-3.3-2.8-5.9C44.6,75.9,45.3,74.2,46.7,72.9z"/>
					<path class="st9" d="M39.3,77.3c0,0,1.8,5.5,3.8,6.8c0,0-0.4,6,3.8,6.7s7-18,2.1-22.1c0,0-4.2-3.3-6.9-2.8
						C42.2,65.8,35.8,67.1,39.3,77.3z M40.3,69.8c0.4-0.9,1.2-1.6,2.1-1.8c0.6-0.1,1.2,0,1.8,0.3c2.9,1.1,5.9,7.5,6.5,11
						c0.1,0.8,0.6,4.7-1.1,5.8c-0.3,0.2-0.6,0.3-1,0.3c-0.6,0-1.2-0.2-1.7-0.6c-2.1-1.3-3.5-4-3.5-7.1c-0.2-2.3,0.8-4.6,2.5-6.1
						c-0.5-0.9-1.3-1.6-2.2-2c-0.3-0.1-0.7-0.2-1-0.2c-0.5,0.1-0.8,0.4-1,0.9s-0.2,1.1-0.1,1.6c0.2,0.6,0.4,1.2,0.6,1.8l-1.3,0.6
						c-0.3-0.7-0.6-1.4-0.7-2.1C40,71.4,40,70.6,40.3,69.8z"/>
					<path class="st8" d="M40.3,69.8c-0.3,0.8-0.4,1.7-0.2,2.5c0.2,0.7,0.4,1.4,0.7,2.1l1.3-0.6c-0.3-0.6-0.5-1.2-0.6-1.8
						c-0.1-0.5-0.1-1.1,0.1-1.6c0.2-0.4,0.5-0.8,1-0.9c0.3,0,0.7,0,1,0.2c0.9,0.5,1.6,1.2,2.2,2c-1.8,1.5-2.7,3.8-2.5,6.1
						c0,3.1,1.4,5.8,3.5,7.1c0.5,0.4,1.1,0.6,1.7,0.6c0.4,0,0.7-0.1,1-0.3c1.7-1.1,1.3-5,1.1-5.8c-0.6-3.6-3.6-9.9-6.5-11
						C43.6,68,43,68,42.4,68C41.4,68.2,40.7,68.9,40.3,69.8z M46.6,72.9c1.2,2,2.1,4.3,2.6,6.6c0.2,1.5,0.2,3.9-0.5,4.4
						c-0.3,0.2-0.9-0.1-1.2-0.3c-1.7-1-2.8-3.3-2.8-5.9C44.6,75.9,45.3,74.2,46.6,72.9L46.6,72.9z"/>
					<path class="st2" d="M78.2,119.6L78.2,119.6c-14.5,0-30.8-13-30.8-27.5v-48C47.3,29.7,59,18,73.5,18h9.3
						C97.3,18,109,29.7,109,44.2v48C109,106.6,92.6,119.6,78.2,119.6z"/>
					<path class="st10" d="M66.4,96.3c0.9,6.6,5.8,11.7,11.6,11.7s10.7-5,11.6-11.7C87.1,98.7,82.8,99,78,99S69,98.7,66.4,96.3z"/>
					<path class="st11" d="M89.3,97.4c0.3-0.8,0.5-1.6,0.7-2.5c0-0.1-0.1-0.3-0.2-0.3s-0.1,0-0.2,0c-2.7,2.1-6.8,2.4-11.5,2.4
						s-8.8-0.3-11.5-2.4c-0.1-0.1-0.3-0.1-0.4,0c0,0.1-0.1,0.1,0,0.2c0.2,0.8,0.4,1.7,0.7,2.5c2.7,1.9,6.7,2.2,11.2,2.2
						S86.6,99.3,89.3,97.4z"/>
					<path class="st8" d="M72.5,110c2.6,3,7.1,3.4,10.2,0.8c0.3-0.3,0.6-0.5,0.8-0.8C80,111.5,76,111.5,72.5,110z"/>
					<path class="st12" d="M56,62c-0.2,0.1-0.5,0-0.6-0.2s-0.1-0.4,0.1-0.5C58.8,58,64,57.4,68,59.7c0.2,0.1,0.3,0.4,0.1,0.6
						c-0.1,0.1-0.3,0.2-0.4,0.2C63.8,60,59.7,60.5,56,62z"/>
					<path class="st12" d="M101,62c0.2,0.1,0.5,0,0.6-0.2s0-0.4-0.1-0.5C98.2,58,93,57.4,89,59.7c-0.2,0.1-0.3,0.4-0.1,0.6
						c0.1,0.1,0.3,0.2,0.4,0.2C93.2,60,97.3,60.5,101,62z"/>
					
						<radialGradient id="SVGID_3_" cx="699.5" cy="-411.79" r="15.12" gradientTransform="matrix(1 0 0 -1 0 36)" gradientUnits="userSpaceOnUse">
						<stop  offset="0" style="stop-color:#F0BFD9;stop-opacity:0.95"/>
						<stop  offset="4.000000e-02" style="stop-color:#EEBCD3;stop-opacity:0.88"/>
						<stop  offset="0.15" style="stop-color:#E9B3C2;stop-opacity:0.65"/>
						<stop  offset="0.27" style="stop-color:#E4ABB2;stop-opacity:0.45"/>
						<stop  offset="0.39" style="stop-color:#E1A4A6;stop-opacity:0.29"/>
						<stop  offset="0.51" style="stop-color:#DE9F9C;stop-opacity:0.16"/>
						<stop  offset="0.62" style="stop-color:#DC9C96;stop-opacity:7.000000e-02"/>
						<stop  offset="0.73" style="stop-color:#DA9A91;stop-opacity:2.000000e-02"/>
						<stop  offset="0.83" style="stop-color:#DA9990;stop-opacity:0"/>
						<stop  offset="1" style="stop-color:#DA9990;stop-opacity:0"/>
					</radialGradient>
					<ellipse class="st13" cx="96.5" cy="84.7" rx="15.1" ry="7.6"/>
					<path class="st8" d="M78.2,88.3l3.2-0.6c0.4,0,0.7-0.3,0.7-0.7c0-0.2-0.1-0.4-0.2-0.5l-3.2-3.2c-0.3-0.3-0.7-0.3-1,0l0,0
						l-3.2,3.2c-0.3,0.3-0.3,0.7,0,1c0.1,0.1,0.3,0.2,0.5,0.2L78.2,88.3z"/>
					<circle class="st14" cx="64.4" cy="70.3" r="3.7"/>
					<circle class="st14" cx="92.5" cy="70.3" r="3.7"/>
					<path class="st6" d="M122,47.7c-1.4,0-2.7-0.2-4-0.5c0-9.3-2.4-24.9-17-32.3c-4.7-2.4-22.8-7.6-34.5,0.7c0,0-0.5-3.2,0.6-4.1
						c-3.2,0.5-5.8,2.7-6.7,5.8c0,0-10.6-2.3-13.1,2.6c0,0,2.9-0.3,4.5,0.8c-17.3,8.1-11.6,33.7-11.6,33.7
						c0.9,3.3,1.7,12.5,7.1,17.4l0.3-17.1c0,0,4.1-16.6,8.5-17.2c0.6,1.7,1.5,3.3,2.7,4.7c3,6.3,9.7,14.6,23.2,13.1
						c0,0-7.6-1.1-11.1-5.1c7.3,2.6,18.1,3.8,33.9,1.3c0,0,1.5-0.1,3.8-0.3c0.3,0.8,0.4,1.6,0.4,2.5c0,8.1-0.4,0.4,0,18.9
						c0,0,7.3-8.8,8.5-18c0,0,0.2-0.1,0.3-3c1.7-0.6,3.2-1.4,4.5-2.6c0.3-0.2,0.4-0.6,0.2-0.9C122.5,47.8,122.3,47.7,122,47.7z"/>
					<path class="st14" d="M60.2,66.1c0.5,0.9,1.5,1.5,2.5,1.5l-0.9,1.5C61,68.4,60.4,67.3,60.2,66.1z"/>
					<path class="st14" d="M88.1,66.1c0.5,0.9,1.5,1.5,2.5,1.5l-0.9,1.5C88.8,68.4,88.2,67.3,88.1,66.1z"/>
					<path class="st4" d="M96.9,139.4c-3.5-2.7-4.4-7.1-2.1-9.8l2-2.3c2.3-2.7,6.8-2.4,10,0.5l32,29.8l0.3,0.3
						c0.4,0.4,0.7,0.9,1,1.3c0.3,0.5,0.5,1,0.7,1.6c0.2,0.5,0.3,1,0.3,1.5s0,0.9,0,1.4c-0.1,1.2-0.4,2.4-1,3.5
						c-0.7,1.4-1.6,2.7-2.6,3.8c-1.6,1.9-3.4,3.6-5.3,5.2c-3.6,3.1-7.3,5.9-11,8.6c-7.4,5.3-15,10.3-22.8,15l-3.5-5.2
						c7.1-5.3,14.2-10.9,20.8-16.7c3.3-2.9,6.6-5.9,9.5-8.9c1.4-1.4,2.7-3,3.9-4.6c0.4-0.6,0.7-1.2,1-1.8v-0.1l0,0l0.2,0.1l0.3,0.1
						c0.5,0.1,0.8,0.2,1.1,0.3l0.5,0.1c0.1,0,0.3,0.1,0.4,0.1c1.1,0.1,1.3-0.3,0.9,0l-2.2,2.8L96.9,139.4z"/>
					<path class="st2" d="M74.8,189.9c-0.1,1.7,1.1,3.1,2.8,3.3l0,0l3.8,0.3c-0.6,1-1,2.1-1.2,3.3L71.6,211c-0.9,1.4-0.4,3.3,1,4.2
						c0.8,0.5,1.8,0.6,2.7,0.2l-0.3,0.5c-0.9,1.4-0.4,3.3,1,4.2s3.3,0.4,4.2-1l0.1-0.1c0.3,0.5,0.6,0.8,1.1,1.1
						c1.4,0.9,3.3,0.4,4.2-1l1.6-2.7c0.1,0.7,0.5,1.3,1.1,1.6c1.2,0.7,2.7,0.3,3.3-0.8l6.1-10.2c4.5-3.9,5-10.7,1-15.2
						c-2.2-2.5-5.5-3.9-8.8-3.7l-12-0.9c-1.6-0.2-3.1,1-3.3,2.7C74.8,189.8,74.8,189.9,74.8,189.9z"/>
					<path class="st8" d="M82.5,203.6c-1.5,2.8-3,5.6-4.6,8.3c-0.8,1.4-1.5,2.8-2.4,4.1c-0.8,1.3-0.5,2.9,0.7,3.9 M76.1,220
						L76.1,220c-0.8-0.3-1.4-1-1.7-1.8c-0.3-0.9-0.2-1.8,0.2-2.6c0.8-1.4,1.7-2.7,2.5-4c1.7-2.7,3.5-5.3,5.2-8 M82.5,203.6
						L82.5,203.6L82.5,203.6z"/>
					<path class="st8" d="M86.3,206.1c-1.3,2.4-2.6,4.7-3.9,7.1l-1,1.8l-0.5,0.9c-0.2,0.2-0.3,0.5-0.4,0.8c-0.4,1.2-0.1,2.5,0.9,3.3
						 M81.4,220L81.4,220c-1.4-0.6-2.2-2.2-1.8-3.7c0.2-0.7,0.6-1.3,1-1.9l1.1-1.7c1.5-2.3,2.9-4.5,4.5-6.7h0.1c0,0,0,0,0,0.1
						L81.4,220z"/>
					<path class="st8" d="M92.2,206.8c-1,1.9-2,3.8-3,5.6l-0.7,1.4l-0.4,0.7c-0.7,1-0.5,2.3,0.3,3.2 M88.4,217.9L88.4,217.9
						c-1.3-0.4-2-1.7-1.6-3c0.1-0.3,0.2-0.6,0.4-0.9l0.4-0.7l0.9-1.3c1.2-1.8,2.4-3.5,3.6-5.3c0,0,0,0,0.1,0c0,0,0.1,0,0.1,0.1l0,0
						L88.4,217.9z"/>
					<path class="st8" d="M81.3,195c-1.9,3.4-3.8,6.8-5.8,10.2c-1,1.7-1.9,3.4-2.9,5.1c-0.2,0.4-0.6,0.9-0.8,1.2
						c-0.2,0.4-0.3,0.8-0.3,1.2c0,0.9,0.4,1.8,1.1,2.4 M72.7,215.1L72.7,215.1c-1-0.4-1.7-1.4-1.8-2.4c-0.1-0.6,0-1.1,0.2-1.6
						s0.5-0.9,0.7-1.4c1-1.7,2.1-3.3,3.1-5c2.1-3.3,4.2-6.6,6.3-9.9 M81.3,194.9C81.3,194.9,81.3,195,81.3,194.9L81.3,194.9z"/>
					<circle class="st14" cx="77.3" cy="145.5" r="2.1"/>
					<circle class="st14" cx="77.3" cy="153.3" r="2.1"/>
					<path class="st4" d="M117.1,49.9c-4.2,0.3-8.4,0.3-12.5-0.2c-4.2-0.5-8.3-1.3-12.3-2.5s-7.9-3-11.5-5.2c-1.8-1.1-3.4-2.4-5-3.8
						c-1.6-1.4-3-3-4.3-4.6c2.8,3,6.1,5.7,9.7,7.7c3.6,2.1,7.4,3.7,11.4,4.9s8,2.1,12.1,2.7c2,0.3,4.1,0.5,6.2,0.7
						S115.1,49.9,117.1,49.9z"/>
					<path class="st4" d="M104.8,49.9c-4.2,0.3-8.4,0.3-12.5-0.2c-4.2-0.5-8.3-1.3-12.3-2.5s-7.9-3-11.5-5.2c-1.8-1.1-3.4-2.4-5-3.8
						c-1.5-1.4-3-3-4.2-4.6c2.8,3,6.1,5.7,9.7,7.7c3.6,2.1,7.4,3.7,11.3,4.9c4,1.2,8,2.1,12.1,2.7c2,0.3,4.1,0.5,6.2,0.7
						C100.7,49.8,102.8,49.9,104.8,49.9z"/>
				</g>
			</g>
		</g>
	</g>
</g>
</svg>
