<?xml version="1.0" encoding="utf-8"?>
<!-- Generator: Adobe Illustrator 22.1.0, SVG Export Plug-In . SVG Version: 6.00 Build 0)  -->
<svg version="1.1" id="Layer_1" xmlns="http://www.w3.org/2000/svg" xmlns:xlink="http://www.w3.org/1999/xlink" x="0px" y="0px"
	 viewBox="0 0 154 154" style="enable-background:new 0 0 154 154;" xml:space="preserve">
<style type="text/css">
	.st0{fill:#9FBEAF;}
	.st1{clip-path:url(#SVGID_2_);fill:#F0D0B3;}
	.st2{clip-path:url(#SVGID_2_);fill:#734939;}
	.st3{clip-path:url(#SVGID_2_);fill:#005E88;}
	.st4{clip-path:url(#SVGID_2_);fill:#D0D2D3;}
	.st5{clip-path:url(#SVGID_2_);fill:#58595B;}
	.st6{clip-path:url(#SVGID_2_);fill:#EBC19C;}
	.st7{clip-path:url(#SVGID_2_);fill:none;stroke:#EBC19C;stroke-width:0.99;stroke-linecap:round;stroke-linejoin:round;}
	.st8{opacity:0.55;clip-path:url(#SVGID_2_);fill:#BBBDBF;enable-background:new    ;}
	.st9{clip-path:url(#SVGID_2_);fill:#F1F1F2;}
	.st10{clip-path:url(#SVGID_2_);fill:#DEB18A;}
	.st11{clip-path:url(#SVGID_2_);fill:#606161;}
	.st12{clip-path:url(#SVGID_2_);fill:url(#SVGID_3_);}
	.st13{clip-path:url(#SVGID_2_);fill:#B08774;}
	.st14{clip-path:url(#SVGID_2_);fill:#404041;}
	.st15{clip-path:url(#SVGID_2_);fill:#C3996B;}
</style>
<title>ic_young_male</title>
<g>
	<g id="Layer_1_1_">
		<circle class="st0" cx="77" cy="77" r="77"/>
		<g>
			<g>
				<defs>
					<circle id="SVGID_1_" cx="77" cy="77" r="77"/>
				</defs>
				<clipPath id="SVGID_2_">
					<use xlink:href="#SVGID_1_"  style="overflow:visible;"/>
				</clipPath>
				<rect x="64.9" y="352.5" class="st1" width="7" height="7.8"/>
				<rect x="81.7" y="352.5" class="st1" width="7" height="7.8"/>
				<polygon class="st2" points="80,376.7 91.3,376.7 91.3,374.2 108.5,376.7 120,376.7 120,367.8 90.3,358.7 80,358.7 				"/>
				<polygon class="st2" points="73.7,376.7 62.3,376.7 62.3,374.2 45.2,376.7 33.7,376.7 33.7,367.8 63.4,358.7 73.7,358.7 				"/>
				<path class="st3" d="M57,228.5c1.7-2.9,6.1-5.3,9.8-5.3h20.5c3.7,0,8.1,2.4,9.8,5.3s1.7,8,0,11.4L90,254.2
					c-2,3.6-5.7,5.9-9.8,6.1h-6.6c-4.1-0.2-7.8-2.5-9.8-6.1l-7.1-14.3C55.3,236.6,55.3,231.5,57,228.5z"/>
				<path class="st3" d="M69.7,224.7l1.2,56.4l1.5,73.6l-7.7,0.4L58,281.8l-5.1-56.1l0,0c-0.9-9.5,2.5-17.4,7.4-17.7
					S69.5,215.2,69.7,224.7z"/>
				<path class="st3" d="M101.4,225.7l-5.2,56.1l-6.8,73.3l-7.7-0.5l1.7-73.6l1.3-56.4l0,0c0.2-9.5,4.5-17,9.4-16.8
					S102.3,216.2,101.4,225.7z"/>
				<path class="st1" d="M133.5,182.8L133.5,182.8c-0.1-0.1-0.3-0.2-0.5-0.3c-0.3-0.1-0.5-0.2-0.8-0.3c-0.2,0-0.4-0.1-0.6-0.1"/>
				<path class="st1" d="M123.6,172.5c-6-7.8-11.4-16.1-16.2-24.8c-2.4-4.2-6.4-6.5-9.1-5.1l-0.7,0.3c-2.7,1.5-2.9,6.3-0.2,10.6
					c5.5,8.9,11.6,17.4,18.3,25.4c3.5,4.2,7.6,8,12,11.2l0.2,0.2l0.1,0.1c0.2,0.1,0.4,0.3,0.7,0.4c0.4,0.2,0.8,0.4,1.3,0.5
					c0.2,0,0.4,0.1,0.6,0.1h0.5c0.8,0,1.7-0.1,2.5-0.3c0.9-0.3,1.8-0.7,2.6-1.1c1.3-0.7,2.5-1.5,3.7-2.4c2.2-1.6,4.3-3.2,6.3-4.9
					c4-3.3,7.8-6.7,11.5-10.1l2.5-2.8l-5.4-5.9l-2.6,2.6c-3.8,3.3-7.6,6.5-11.4,9.5c-2,1.5-4,3-5.9,4.2c-0.9,0.6-1.8,1.1-2.8,1.6
					L123.6,172.5z"/>
				<path class="st1" d="M159.2,160.9c-1.6,1.5-3.2,3.1-4.9,4.6l3.7,4c1.7-1.5,3.3-3.1,5-4.6L159.2,160.9z"/>
				<path class="st1" d="M19.3,184.9L19.3,184.9c0.1-0.1,0.3-0.2,0.5-0.3c0.3-0.1,0.5-0.2,0.8-0.3c0.2,0,0.4-0.1,0.6-0.1"/>
				<path class="st1" d="M29.2,174.6c6-7.8,11.4-16.1,16.2-24.8c2.4-4.2,6.4-6.5,9.1-5.1l0.7,0.3c2.8,1.5,2.9,6.3,0.2,10.6
					c-5.5,8.9-11.6,17.4-18.3,25.4c-3.5,4.2-7.6,8-12,11.2l-0.1,0.2l-0.1,0.1c-0.2,0.1-0.4,0.3-0.7,0.4c-0.4,0.2-0.8,0.4-1.3,0.5
					c-0.2,0.1-0.4,0.1-0.6,0.1h-0.5c-0.8,0-1.7-0.1-2.5-0.3c-0.9-0.3-1.8-0.7-2.6-1.1c-1.3-0.7-2.5-1.5-3.7-2.4
					c-2.2-1.6-4.3-3.2-6.3-4.9c-4-3.3-7.8-6.7-11.5-10.1l-2.5-2.8l5.4-5.9l2.6,2.5c3.8,3.3,7.6,6.5,11.4,9.5c2,1.5,4,3,5.9,4.2
					c0.9,0.6,1.8,1.1,2.8,1.6L29.2,174.6z"/>
				<path class="st1" d="M-6.4,163c1.6,1.5,3.2,3.1,4.9,4.6l-3.7,4c-1.7-1.5-3.3-3.1-5-4.6L-6.4,163z"/>
				<path class="st4" d="M77.6,137.9L77.6,137.9h-0.4h-0.4l0,0c-4.2,0.3-25.2-2-31,9.7c0,0,4.6,14.6,6.4,18.4L48,232.7
					c0,0,22.4,7.3,29.2,6.7c6.8,0.6,29.9-7.2,29.9-7.2l-5-66.2c1.8-3.8,6.2-18.4,6.2-18.4C102.6,135.9,81.7,138.2,77.6,137.9z"/>
				<polygon class="st5" points="77.3,147.6 69.9,143.2 72.5,156.9 77.3,156.9 82.1,156.9 84.6,143.2 				"/>
				<path class="st4" d="M124.9,173.1c-6.3-8.4-12.1-17.2-17.1-26.4c-2.4-4.2-6.5-3.7-9.2-2.3l-0.7,0.3c-2.8,1.5-2.9,6.3-0.2,10.6
					c5.4,8.9,11.6,17.4,18.3,25.4c3.5,4.2,7.6,8,12,11.2l0.2,0.2l0.1,0.1c0.2,0.1,0.4,0.3,0.7,0.4c0.4,0.2,0.8,0.4,1.3,0.5
					c0.2,0.1,0.4,0.1,0.6,0.1h0.5c0.8,0,1.7-0.1,2.5-0.3c0.9-0.3,1.8-0.7,2.6-1.1c1.3-0.7,2.5-1.5,3.7-2.4c2.2-1.6,4.3-3.2,6.3-4.9
					c4-3.3,7.8-6.7,11.5-10.1l4.3-4.1l-7.3-7.7l-4.4,3.8c-3.8,3.3-7.6,6.5-11.4,9.5c-2,1.5-4,3-5.9,4.2c-0.4,0.3-0.8,0.6-1.2,0.8
					L124.9,173.1z"/>
				<path class="st1" d="M152.5,151c0.3-2.9,1.7-5.1,4-6c0.6-0.2,1.2-0.3,1.8-0.4c0.1-0.9,0.5-1.7,1-2.4c1.2-1.5,3-2.5,4.9-2.6
					c1.4-0.1,2.9,0.4,3.9,1.4c0.8,0.3,1.6,0.7,2.4,1.1c0.8,0.3,1.4,0.8,1.9,1.4c0.5,0.7,0.9,1.5,1.1,2.4l-0.3,0.2
					c1.4,0.3,2.6,1.4,3,2.8c0.3,0.8,0.4,1.8,0.3,2.7l-0.2,0.1c0.5,0.4,0.8,0.8,1.1,1.4c1,3.5,0.5,7.2-1.6,10.2l-0.2,0.3
					c-0.8,1.1-1.9,2-3.1,2.6c-5.8,2.9-13,0.1-16.4-5.4C154.3,158.5,152.2,154.5,152.5,151z"/>
				<path class="st6" d="M173.5,155.9c0.4,0.7,0.3,1.6-0.2,2.2c-0.2,0.4-0.6,0.6-1,0.7c-0.4,0.1-0.8,0.1-1.2,0
					c-0.8-0.2-1.5-0.7-1.9-1.4c-0.3-0.7-0.5-1.6-0.3-2.4c0.1-0.8,0.4-1.6,0.8-2.3c0.5-0.6,1.1-1.2,1.8-1.6c1.5-0.9,3.3-0.9,4.7,0
					c0.7,0.5,1.3,1.1,1.6,1.9c0.3,0.8,0.4,1.6,0.5,2.4c0.1,1.6,0,3.2-0.5,4.7s-1.3,2.9-2.5,4s-2.6,1.8-4.1,2.2h-0.1 M171.3,166.5
					c1.4-0.6,2.6-1.5,3.6-2.6s1.6-2.4,2-3.9c0.4-1.4,0.6-2.9,0.5-4.4c0-0.7-0.1-1.4-0.3-2.1c-0.2-0.6-0.7-1.2-1.2-1.6
					c-1.2-0.8-2.8-0.8-4-0.1c-0.6,0.3-1.2,0.8-1.7,1.4c-0.4,0.6-0.7,1.3-0.8,2s-0.1,1.4,0.2,2.1c0.3,0.7,0.9,1.2,1.6,1.3
					c0.7,0.2,1.5,0,2-0.6s0.6-1.4,0.2-2.1L171.3,166.5z"/>
				<path class="st7" d="M169.2,155.6c-1,0-2-0.4-2.8-1c-1-1-1.2-2.9,0.4-5.5c2-3.2,8-4.5,9.6,0c0.3,0.8,0.4,1.8,0.3,2.7"/>
				<path class="st7" d="M165,151.9c-2.8-0.4-2.6-2.2-2.2-4.4s2.4-4,4.3-5c2-1,5.4-0.6,6.5,3.5"/>
				<path class="st7" d="M161.8,149.2c-3,0.6-3.8-2.4-3.5-4.4c0.4-3,3.1-4.9,6-5.2c1.2-0.1,3.3,0.3,4.1,1.7"/>
				<path class="st1" d="M158.7,162.6c-2-0.2-6.7-6.6-6.2-11.6c0.4-3.8,2.6-6.3,6.5-6.4s6.1,4.2,1.5,6.3c1.3,2.1,1.9,4.5,1.7,6.9
					L158.7,162.6z"/>
				<path class="st6" d="M157.4,162c-1.2-1-2.2-2.2-3-3.5s-1.5-2.8-1.9-4.3c-0.2-0.8-0.3-1.6-0.3-2.4c0-0.8,0.1-1.6,0.3-2.4
					c0.3-1.6,1.3-3,2.6-4c1.4-0.9,3-1.4,4.7-1.3c0.9,0.1,1.7,0.4,2.4,0.8c0.7,0.5,1.3,1.3,1.5,2.2s-0.1,1.8-0.7,2.5
					c-0.5,0.7-1.2,1.2-2,1.5c-1.5,0.7-3.2,0.7-4.7,0c0,0,0,0,0-0.1c0,0,0,0,0.1,0l0,0c1.4,0.4,3,0.2,4.3-0.5c1.3-0.6,2.3-1.9,2-3.2
					c-0.5-1.3-1.6-2.2-3-2.2c-1.4-0.2-2.9,0.2-4.1,0.9c-1.2,0.8-2.1,2.1-2.4,3.5c-0.2,0.7-0.3,1.5-0.3,2.2s0.1,1.5,0.2,2.2
					c0.3,1.5,0.9,2.9,1.7,4.2C155.3,159.7,156.3,160.9,157.4,162L157.4,162C157.4,162.1,157.4,162,157.4,162z"/>
				<path class="st7" d="M160.6,151.2c1.4,1.9,1.9,4.3,1.6,6.6"/>
				<path class="st1" d="M22.1,204L22.1,204c0.1-0.1,0.3-0.2,0.5-0.3c0.3-0.1,0.5-0.2,0.8-0.3c0.2,0,0.4-0.1,0.6-0.1"/>
				<path class="st8" d="M77.1,137.4c-2.3-1.4-9.6-4.8-15.5,4.5c-0.2,0.2-0.2,0.5-0.2,0.8l3,16.4c0,0.5,0.5,0.9,1,0.8
					c0.3,0,0.6-0.2,0.7-0.5c1.8-3.2,5.6-8.7,11.2-10.1c0.1,0,0.3,0,0.4,0c5.6,1.4,9.4,7,11.2,10.1c0.2,0.4,0.8,0.6,1.2,0.4
					c0.3-0.1,0.4-0.4,0.5-0.7l3-16.4c0.1-0.3,0-0.6-0.2-0.8c-5.9-9.3-13.2-5.9-15.5-4.5C77.6,137.5,77.3,137.5,77.1,137.4z"/>
				<path class="st4" d="M28,175.2c6.3-8.4,12-17.2,17.1-26.4c2.4-4.2,6.5-3.7,9.2-2.3l0.7,0.3c2.7,1.5,2.9,6.3,0.2,10.6
					c-5.4,8.9-11.6,17.4-18.3,25.4c-3.5,4.2-7.6,8-12,11.2l-0.2,0.2l-0.1,0.1c-0.2,0.1-0.4,0.3-0.7,0.4c-0.4,0.2-0.8,0.4-1.3,0.5
					c-0.2,0.1-0.4,0.1-0.6,0.1h-0.5c-0.8,0-1.7-0.1-2.5-0.3c-0.9-0.3-1.8-0.7-2.6-1.1c-1.3-0.7-2.5-1.5-3.7-2.4
					c-2.2-1.6-4.2-3.2-6.3-4.9c-4-3.3-7.8-6.7-11.5-10.1l-4.3-4.1l7.3-7.7l4.4,3.8c3.8,3.3,7.6,6.5,11.4,9.5c2,1.5,4,3,5.9,4.2
					c0.4,0.3,0.8,0.6,1.2,0.8L28,175.2z"/>
				<path class="st9" d="M77.1,136.4c-2.2-1.4-9-4.5-14.6,4.2c-0.1,0.2-0.2,0.5-0.2,0.8l2.9,15.5c0,0.5,0.4,0.8,0.9,0.8
					c0.3,0,0.5-0.2,0.7-0.4c1.7-3,5.3-8.2,10.5-9.6c0.1,0,0.3,0,0.4,0c5.2,1.4,8.8,6.6,10.5,9.6c0.2,0.4,0.7,0.6,1.1,0.4
					c0.3-0.1,0.4-0.4,0.5-0.7l2.9-15.5c0.1-0.3,0-0.6-0.1-0.8c-5.6-8.8-12.4-5.6-14.7-4.2C77.7,136.5,77.3,136.5,77.1,136.4z"/>
				<path class="st1" d="M77.3,93.2L77.3,93.2c5.1,0,9.3,4.2,9.3,9.3v35.8c0,5.1-4.2,9.3-9.3,9.3l0,0c-5.1,0-9.3-4.2-9.3-9.3v-35.8
					C68,97.3,72.1,93.2,77.3,93.2z"/>
				<path class="st1" d="M0.3,153.1c-0.3-2.9-1.7-5.1-4.1-6c-0.6-0.2-1.2-0.3-1.8-0.4c-0.1-0.9-0.5-1.7-1-2.4
					c-1.2-1.5-3-2.5-4.9-2.6c-1.4-0.1-2.9,0.4-3.9,1.4c-0.8,0.3-1.6,0.7-2.4,1.1c-0.8,0.3-1.4,0.8-1.9,1.4c-0.5,0.7-0.9,1.5-1.1,2.4
					l0.3,0.2c-1.4,0.3-2.6,1.4-3,2.8c-0.3,0.8-0.4,1.8-0.3,2.7l0.2,0.1c-0.5,0.4-0.8,0.8-1.1,1.4c-1.1,3.5-0.5,7.2,1.6,10.2
					c0.1,0.1,0.1,0.2,0.2,0.3c0.8,1.1,1.9,2,3.1,2.6c5.8,2.9,13,0.1,16.4-5.4C-1.4,160.6,0.6,156.6,0.3,153.1z"/>
				<path class="st6" d="M-20.6,158.1c-0.3,0.7-0.2,1.5,0.2,2.1c0.5,0.6,1.3,0.8,2,0.6s1.3-0.6,1.6-1.3c0.3-0.7,0.3-1.4,0.2-2.1
					c-0.1-0.7-0.4-1.4-0.8-2c-0.5-0.6-1-1-1.7-1.4c-1.2-0.7-2.8-0.7-4,0.1c-0.6,0.4-1,0.9-1.2,1.6c-0.2,0.7-0.3,1.4-0.3,2.1
					c-0.1,1.5,0.1,2.9,0.5,4.4c0.4,1.4,1,2.7,2,3.9c1,1.1,2.3,2,3.6,2.6v0.1c0,0,0,0-0.1,0c-1.5-0.4-2.9-1.1-4.1-2.2
					c-1.2-1.1-2-2.5-2.5-4s-0.6-3.1-0.5-4.7c0.1-0.8,0.2-1.6,0.5-2.4c0.3-0.8,0.9-1.5,1.6-1.9c1.5-0.9,3.3-0.9,4.8,0
					c0.7,0.4,1.3,0.9,1.8,1.6c0.5,0.7,0.8,1.4,0.8,2.3c0.1,0.8,0,1.6-0.3,2.4c-0.4,0.7-1.1,1.3-1.9,1.4c-0.4,0.1-0.8,0.1-1.2,0
					c-0.4-0.1-0.8-0.3-1-0.7c-0.5-0.7-0.5-1.5-0.1-2.2c0,0,0,0,0.1,0V158.1z"/>
				<path class="st7" d="M-16.4,157.7c1,0,2-0.4,2.8-1c1-1,1.2-2.9-0.4-5.5c-2-3.2-8-4.5-9.6,0c-0.3,0.8-0.4,1.8-0.3,2.7"/>
				<path class="st7" d="M-12.2,154c2.8-0.4,2.6-2.2,2.2-4.4s-2.4-4-4.3-5c-2-1-5.4-0.6-6.5,3.5"/>
				<path class="st7" d="M-9,151.4c3,0.6,3.8-2.4,3.5-4.4c-0.4-3-3.1-4.9-6-5.2c-1.1-0.1-3.3,0.3-4.1,1.7"/>
				<path class="st1" d="M-5.9,164.7c2-0.3,6.7-6.6,6.2-11.7c-0.3-3.8-2.6-6.3-6.5-6.4s-6.1,4.2-1.5,6.3c-1.3,2.1-1.9,4.5-1.7,6.9
					L-5.9,164.7z"/>
				<path class="st6" d="M-4.6,164c1.1-1.1,2.1-2.3,2.8-3.6c0.8-1.3,1.3-2.8,1.6-4.2c0.2-0.7,0.3-1.5,0.3-2.2s-0.1-1.5-0.3-2.2
					c-0.3-1.4-1.2-2.7-2.4-3.5s-2.7-1.1-4.1-0.9c-1.4,0.1-2.5,1-3,2.2c-0.3,1.2,0.7,2.5,2,3.2c1.3,0.8,2.9,1,4.3,0.5l0,0h0.1
					c0,0,0,0,0,0.1c-1.5,0.7-3.2,0.7-4.7,0c-0.8-0.3-1.5-0.8-2-1.5c-0.6-0.7-0.8-1.6-0.7-2.5c0.2-0.9,0.7-1.7,1.5-2.2
					c0.7-0.5,1.5-0.8,2.4-0.8c1.7-0.1,3.3,0.3,4.7,1.3c1.3,1,2.2,2.4,2.6,4c0.2,0.8,0.3,1.6,0.3,2.4c0,0.8-0.2,1.6-0.3,2.4
					c-0.4,1.5-1,2.9-1.9,4.3C-2.3,161.8-3.3,163-4.6,164 M-4.6,164C-4.6,164-4.6,164.1-4.6,164L-4.6,164z"/>
				<path class="st7" d="M-7.8,153.4c-1.4,1.9-1.9,4.3-1.6,6.6"/>
				<polygon class="st5" points="67.5,210.7 77.3,219.4 77.3,153.1 74.1,153.4 				"/>
				<polygon class="st5" points="80.4,153.4 77.3,153.1 77.3,219.4 87,210.7 				"/>
				<path class="st6" d="M86.6,133.3v-1.4H68v1.6C71.3,135.2,77.4,137,86.6,133.3z"/>
				<path class="st6" d="M109.4,86.4c-1.3,2.1-2.1,4.3-2.6,6.7c-0.2,1.6-0.2,4,0.5,4.4c0.3,0.2,0.9-0.1,1.2-0.3
					c1.7-1,2.8-3.4,2.8-5.9C111.5,89.5,110.7,87.7,109.4,86.4z"/>
				<path class="st6" d="M113.9,79.2c-2.7-0.5-7,2.9-7,2.9c-4.9,4.1-2,23.1,2.2,22.4s3.8-6.8,3.8-6.8c2.1-1.3,3.9-6.8,3.9-6.8
					C120.4,80.5,113.9,79.2,113.9,79.2z M115.9,85.8c-0.2,0.7-0.4,1.5-0.8,2.1l-1.4-0.6c0.3-0.6,0.5-1.2,0.7-1.9
					c0.1-0.6,0.1-1.1-0.1-1.7c-0.2-0.4-0.5-0.8-1-0.9c-0.3,0-0.7,0-1,0.2c-0.9,0.5-1.7,1.2-2.2,2.1c1.8,1.5,2.8,3.8,2.6,6.1
					c0,3.1-1.4,5.9-3.5,7.2c-0.5,0.4-1.1,0.6-1.8,0.6c-0.4,0-0.7-0.1-1.1-0.3c-1.8-1.1-1.3-5.1-1.2-5.9c0.6-3.6,3.7-10,6.6-11.2
					c0.6-0.2,1.2-0.3,1.8-0.3c1,0.2,1.8,0.9,2.1,1.8C116.1,84,116.2,84.9,115.9,85.8L115.9,85.8z"/>
				<path class="st10" d="M113.7,81.5c-0.6-0.1-1.2,0-1.8,0.3c-2.9,1.1-6,7.5-6.6,11.2c-0.1,0.8-0.6,4.7,1.2,5.9
					c0.3,0.2,0.7,0.3,1.1,0.3c0.6,0,1.2-0.2,1.8-0.6c2.1-1.3,3.5-4,3.5-7.2c0.2-2.3-0.8-4.6-2.6-6.1c0.5-0.9,1.3-1.6,2.2-2.1
					c0.3-0.1,0.7-0.2,1-0.2c0.5,0.1,0.8,0.4,1,0.9s0.2,1.1,0.1,1.7c-0.2,0.6-0.4,1.3-0.7,1.9l1.4,0.6c0.3-0.7,0.6-1.4,0.8-2.1
					c0.2-0.8,0.1-1.7-0.2-2.5C115.4,82.4,114.6,81.7,113.7,81.5z M111.3,91.4c0,2.6-1.1,4.9-2.8,5.9c-0.3,0.2-0.9,0.5-1.2,0.3
					c-0.7-0.5-0.7-2.9-0.5-4.4c0.5-2.4,1.4-4.6,2.6-6.7C110.7,87.7,111.4,89.5,111.3,91.4L111.3,91.4z"/>
				<path class="st6" d="M45.6,86.4c1.3,2.1,2.1,4.3,2.6,6.7c0.2,1.6,0.2,4-0.5,4.4c-0.3,0.2-0.9-0.1-1.2-0.3
					c-1.7-1-2.8-3.4-2.8-5.9C43.5,89.5,44.2,87.7,45.6,86.4z"/>
				<path class="st6" d="M38.1,90.9c0,0,1.8,5.5,3.9,6.8c0,0-0.4,6.1,3.8,6.8s7.1-18.3,2.2-22.4c0,0-4.2-3.4-7-2.9
					C41,79.2,34.5,80.5,38.1,90.9z M39.1,83.2c0.4-0.9,1.2-1.6,2.1-1.8c0.6-0.1,1.2,0,1.8,0.3c2.9,1.1,6,7.5,6.6,11.2
					c0.1,0.8,0.6,4.7-1.2,5.9c-0.3,0.2-0.7,0.3-1.1,0.3c-0.6,0-1.2-0.2-1.8-0.6c-2.2-1.3-3.5-4-3.5-7.2c-0.2-2.3,0.8-4.6,2.6-6.1
					c-0.5-0.9-1.3-1.6-2.2-2.1c-0.3-0.1-0.7-0.2-1-0.2c-0.5,0.1-0.8,0.4-1,0.9s-0.2,1.1-0.1,1.7c0.2,0.6,0.4,1.3,0.7,1.9L39.6,88
					c-0.3-0.7-0.6-1.4-0.8-2.1C38.8,84.9,38.8,84,39.1,83.2L39.1,83.2z"/>
				<path class="st10" d="M39.2,83.2c-0.3,0.8-0.4,1.7-0.2,2.5c0.2,0.7,0.4,1.5,0.8,2.1l1.4-0.6c-0.3-0.6-0.5-1.2-0.7-1.9
					c-0.1-0.6-0.1-1.1,0.1-1.7c0.2-0.4,0.5-0.8,1-0.9c0.3,0,0.7,0,1,0.2c0.9,0.5,1.7,1.2,2.2,2.1c-1.8,1.5-2.8,3.8-2.6,6.1
					c0,3.1,1.4,5.9,3.5,7.2c0.5,0.4,1.1,0.6,1.8,0.6c0.4,0,0.7-0.1,1.1-0.3c1.7-1.1,1.3-5.1,1.2-5.9c-0.6-3.6-3.7-10-6.6-11.2
					c-0.6-0.2-1.2-0.3-1.8-0.3C40.3,81.7,39.5,82.3,39.2,83.2z M45.6,86.4c1.3,2.1,2.1,4.3,2.6,6.7c0.2,1.6,0.2,4-0.5,4.4
					c-0.3,0.2-0.9-0.1-1.2-0.3c-1.7-1-2.8-3.4-2.8-5.9C43.5,89.5,44.2,87.7,45.6,86.4z"/>
				<path class="st1" d="M77.5,133.7L77.5,133.7c-14.6,0-31.2-13.2-31.2-27.8V57.3c0-14.6,11.9-26.5,26.5-26.5h9.5
					c14.6,0,26.5,11.9,26.5,26.5v48.6C108.7,120.5,92.1,133.7,77.5,133.7z"/>
				<path class="st6" d="M72.3,124.6c2.5,2.9,6.8,3.2,9.7,0.8c0.3-0.2,0.5-0.5,0.8-0.8C79.4,126,75.6,126,72.3,124.6z"/>
				<path class="st11" d="M103.5,72c0.4,0.1,0.8-0.1,0.9-0.5c0.1-0.3,0-0.6-0.3-0.8c-6-4.2-14.1-3.9-19.7,0.8
					c-0.3,0.3-0.3,0.7-0.1,1c0.2,0.2,0.5,0.3,0.8,0.2c3-1,6-1.5,9.2-1.7C97.4,70.9,100.5,71.2,103.5,72z"/>
				<path class="st11" d="M48.1,71.9c-0.4,0.1-0.8-0.1-0.9-0.5c-0.1-0.3,0-0.6,0.3-0.8c6-4.1,14.1-3.7,19.7,1c0.3,0.2,0.4,0.7,0.1,1
					c-0.2,0.3-0.5,0.3-0.8,0.2C60.6,70.8,54.2,70.5,48.1,71.9L48.1,71.9z"/>
				
					<radialGradient id="SVGID_3_" cx="677.5001" cy="394.61" r="15.3106" gradientTransform="matrix(1 0 0 1 0 78)" gradientUnits="userSpaceOnUse">
					<stop  offset="0" style="stop-color:#F0BFD9;stop-opacity:0.6"/>
					<stop  offset="0.24" style="stop-color:#E8B2C0;stop-opacity:0.39"/>
					<stop  offset="0.51" style="stop-color:#E1A4A6;stop-opacity:0.18"/>
					<stop  offset="0.72" style="stop-color:#DC9C96;stop-opacity:5.000000e-02"/>
					<stop  offset="0.83" style="stop-color:#DA9990;stop-opacity:0"/>
					<stop  offset="1" style="stop-color:#DA9990;stop-opacity:0"/>
				</radialGradient>
				<ellipse class="st12" cx="96.1" cy="96.1" rx="15.3" ry="7.7"/>
				<path class="st13" d="M77.5,102l3.2-0.6c0.4,0,0.7-0.3,0.7-0.7c0-0.2-0.1-0.4-0.2-0.5L78,97c-0.3-0.3-0.7-0.3-1,0l0,0l-3.2,3.2
					c-0.3,0.3-0.3,0.7,0,1c0.1,0.1,0.3,0.2,0.5,0.2L77.5,102z"/>
				<circle class="st5" cx="61.4" cy="82.3" r="3.7"/>
				<circle class="st5" cx="92.9" cy="82.3" r="3.7"/>
				<path class="st14" d="M46.3,84.2c0,0-1.7-3.8-4.6-4.9V49.1c0,0-0.1-16.8,12.2-22.2c0,0-2.3-10,0.2-14c0,0,11.7,6.9,21.9,5.1
					l-3-4.9c0,0,18.7,1.3,21.6,8.2c0,0,7.4-3.4,12.8,0.8c0,0-4.2-0.2-5.1,3.6c0,0,10.8,6.3,10.8,24.4V80c0,0-3.7,1.6-4.5,4.1V67.9
					l-7.7-6.9c0,0,0.8-9-3.8-12.5c0,0-15.6,6.8-39.7-1.4c-2.8,3.9-4.3,8.6-4.2,13.5l-7.1,6.6L46.3,84.2z"/>
				<path class="st15" d="M76.3,111.5c-6,0-9-2.7-9.2-2.8l1-1.1l-0.5,0.5l0.5-0.5c0.1,0.1,6.2,5.5,19-0.1l0.6,1.4
					C84.2,110.5,80.3,111.4,76.3,111.5z"/>
			</g>
		</g>
	</g>
</g>
</svg>
