<?xml version="1.0" encoding="utf-8"?>
<!-- Generator: Adobe Illustrator 22.1.0, SVG Export Plug-In . SVG Version: 6.00 Build 0)  -->
<svg version="1.1" id="Layer_1" xmlns="http://www.w3.org/2000/svg" xmlns:xlink="http://www.w3.org/1999/xlink" x="0px" y="0px"
	 viewBox="0 0 258.9 473.1" style="enable-background:new 0 0 258.9 473.1;" xml:space="preserve">
<style type="text/css">
	.st0{fill:#4C5258;}
	.st1{fill:#787986;}
	.st2{fill:#6E7377;}
	.st3{fill:#E0E1DD;}
	.st4{fill:#CACBCD;}
	.st5{fill:#C8CAC7;}
	.st6{fill:#929497;}
	.st7{fill:#A4A6A4;}
	.st8{fill:#F5E0CD;}
	.st9{fill:#EBC19C;}
	.st10{fill:#F1F1F2;}
	.st11{fill:#C47C14;}
	.st12{opacity:0.55;fill:#BBBDBF;enable-background:new    ;}
	.st13{fill:#F0D0B3;}
	.st14{fill:#C3996B;}
	.st15{fill:#FFFFFF;}
	.st16{fill:#8A5D3B;}
	.st17{fill:#58595B;}
	.st18{fill:#E7A54E;}
</style>
<g>
	<g>
		<path class="st0" d="M178.6,393.5c-1.9-6.2,1.6-12.7,7.8-14.6s12.7,1.6,14.6,7.8c0.6,2,0.6,4.1,0.2,6c-5.7,0.3-18.3,0.9-22.3,1.7
			C178.8,394.1,178.7,393.8,178.6,393.5z"/>
		<path class="st1" d="M192.8,400.1c-5.4,1.6-11.1-1.2-13.1-6.4c3.7-0.7,15.2-1.3,20.4-1.5C199.3,395.9,196.6,398.9,192.8,400.1z"/>
	</g>
	<rect x="137.5" y="324.2" class="st0" width="16" height="99.1"/>
	<path class="st0" d="M214.6,430.8L82.5,419.4c-2.4-0.2-4.3-2.4-4-4.8l0,0c0.2-2.4,2.4-4.3,4.8-4L215.4,422c2.4,0.2,4.3,2.4,4,4.8
		l0,0C219.2,429.2,217.1,431,214.6,430.8z"/>
	<path class="st0" d="M191.6,387.6l-87.8,71.9c-1.9,1.6-4.7,1.3-6.3-0.6l0,0c-1.6-1.9-1.3-4.7,0.6-6.3l87.8-71.9
		c1.9-1.6,4.7-1.3,6.3,0.6l0,0C193.7,383.3,193.5,386.1,191.6,387.6z"/>
	<g>
		<polygon class="st2" points="70.4,332.8 72.7,332.7 72.6,331.2 		"/>
		<polygon class="st2" points="70.3,282.3 68,282.4 70.4,332.8 72.6,331.2 		"/>
		<polygon class="st0" points="82.2,281.7 80,281.9 82,324.6 72.6,331.2 72.7,332.7 84.3,324.5 		"/>
		<polygon class="st0" points="82,324.6 80,281.9 70.3,282.3 72.6,331.2 		"/>
	</g>
	<g>
		<polygon class="st3" points="232.2,307.3 96.8,299.6 129.3,125.8 240.3,129.6 		"/>
		<polygon class="st4" points="232.2,294.8 240.3,129.6 249.4,137.6 239.3,315.8 232.2,319.6 		"/>
	</g>
	<polygon class="st5" points="96.8,299.6 49.6,334.7 175.3,348.8 232.2,307.3 	"/>
	<polygon class="st6" points="232.2,319.6 177,359.2 175.3,348.8 232.2,307.3 	"/>
	<polygon class="st6" points="175.4,348.7 177,359.2 56.1,343.7 49.6,334.7 	"/>
	<g>
		<polygon class="st2" points="202.1,342 204.3,341.9 204.3,340.5 		"/>
		<polygon class="st2" points="202,291.5 199.7,291.6 202.1,342 204.3,340.5 		"/>
		<polygon class="st0" points="213.9,291 211.7,291.1 213.7,333.8 204.3,340.5 204.3,341.9 215.9,333.7 		"/>
		<polygon class="st0" points="213.7,333.8 211.7,291.1 202,291.5 204.3,340.5 		"/>
	</g>
	<g>
		<polygon class="st5" points="80.8,267.8 34.6,302.2 48.7,304.4 101.9,268.9 		"/>
		<polygon class="st5" points="81,263.7 34.8,298 48.8,300.2 102.1,264.7 		"/>
		<polygon class="st7" points="34.8,298 34.6,302.2 48.7,304.4 48.8,300.2 		"/>
		<polygon class="st7" points="102.1,264.7 101.9,268.9 48.7,304.4 48.8,300.2 		"/>
	</g>
	<g>
		<path class="st0" d="M92,422.2c0-6.5-5.2-11.7-11.7-11.7s-11.7,5.2-11.7,11.7c0,2.1,0.6,4.1,1.5,5.8c5.5-1.4,17.7-4.5,21.8-4.9
			C91.9,422.7,92,422.5,92,422.2z"/>
		<path class="st1" d="M80.3,432.6c5.6,0,10.2-4.4,10.6-9.9c-3.7,0.4-14.9,3.2-19.9,4.5C72.8,430.4,76.3,432.6,80.3,432.6z"/>
	</g>
	<g>
		<path class="st0" d="M200.9,433.2c0-6.5,5.2-11.7,11.7-11.7s11.7,5.2,11.7,11.7c0,2.1-0.6,4.1-1.5,5.8c-5.5-1.4-17.7-4.5-21.8-4.9
			C200.9,433.8,200.9,433.5,200.9,433.2z"/>
		<path class="st1" d="M212.6,443.6c-5.6,0-10.2-4.4-10.6-9.9c3.7,0.4,14.9,3.2,19.9,4.5C220.1,441.5,216.6,443.6,212.6,443.6z"/>
	</g>
	<g>
		<path class="st0" d="M92,463.7c-0.6-6.4,4.1-12.1,10.6-12.7c6.4-0.6,12.1,4.1,12.7,10.6c0.2,2.1-0.2,4.1-1,5.9
			c-5.7-0.9-18.1-2.8-22.2-2.9C92.1,464.3,92,464,92,463.7z"/>
		<path class="st1" d="M104.6,473c-5.6,0.5-10.6-3.4-11.5-8.9c3.8,0.1,15.1,1.8,20.3,2.6C111.8,470.2,108.6,472.7,104.6,473z"/>
	</g>
	<g>
		<g>
			<path class="st8" d="M126.5,425.4c-0.1,3.4-2.1,6.1-4.5,6.1h-1.1c-2.3,0-4.3-2.8-4.4-6.1l-2.9-128c-0.1-3.4,1.8-6.1,4.1-6.1
				l12.8,0.1c2.3,0,4.2,2.8,4.1,6.1L126.5,425.4z"/>
		</g>
		<polygon class="st0" points="77.9,445.5 72.8,448 72.8,458.2 102,458.2 120.7,448.5 120.7,458.2 129.7,458.2 129.7,436.6 
			105.1,445.5 		"/>
		<polygon class="st8" points="125.9,408.3 122,408.3 112.2,427.7 77.9,445.5 105.1,445.5 129.7,436.6 129.7,427.7 		"/>
	</g>
	<g>
		<g>
			<path class="st8" d="M60,415.9c-0.9,3.2-3.5,5.4-5.8,4.8l-1-0.3c-2.3-0.6-3.5-3.7-2.8-7l28.1-125c0.7-3.3,3.2-5.5,5.5-4.9
				l12.4,3.1c2.3,0.6,3.4,3.7,2.4,6.9L60,415.9z"/>
		</g>
		<polygon class="st0" points="8,423.7 2.4,424.9 0,434.8 28.3,441.8 48.9,437 46.6,446.3 55.2,448.5 60.4,427.6 34.5,430.3 		"/>
		<polygon class="st8" points="63.6,399.2 59.8,398.3 45.6,414.7 8,423.7 34.5,430.3 60.4,427.6 62.6,418.9 		"/>
	</g>
	<g>
		<path class="st0" d="M134.6,350.1c1.2-3.4,3.1-6.2,5.4-8.6c2.3-2.4,4.9-4.4,7.6-6.3c2.8-1.9,5.7-3.5,8.7-5.2c3-1.6,6-3.2,8.9-4.9
			c3-1.7,5.9-3.4,8.7-5.2c2.8-1.9,5.5-3.9,8-6.2c2.5-2.3,4.8-4.9,6.8-7.9s3.7-6.4,4.8-10.5s1.7-8.9,1.4-14.6
			c-0.3-5.8-0.9-6.6-1.5-9.9c-0.2-2.6-1-5.6-2.3-8.7c-1.3-3-3.1-6-5.3-8.7s-4.7-5-7.5-6.7s-5.8-2.7-9-2.7c-3.7,0-6.7-0.4-9.5-0.7
			c-2.8-0.2-5.4-0.4-8.2-0.5s-5.8-0.3-9.5-0.4c-3.1-0.1-6,0.8-8.8,2.4c-2.7,1.5-5.2,3.7-7.3,6.2c-2.1,2.4-3.8,5.1-5.1,7.7
			c-1.3,2.6-2,5.1-2.2,7.3c-0.6,3-1,5.9-1.8,7.3s-2.3,2.3-4.2,2.9c-1.9,0.6-4.3,0.9-7,1.2c-2.6,0.3-5.6,0.5-8.7,0.7
			c-3.1,0.3-6.4,0.6-9.9,1.1s-12,5.1-13.6,8.6L134.6,350.1z"/>
	</g>
	<g>
		<g>
			<g>
				<path class="st1" d="M150.6,144.3c4.2,3.7,5,9.4,1.8,12.6l-2.7,2.7c-3.1,3.2-8.8,2.5-12.6-1.6l-38-40.8l-0.4-0.4
					c-0.4-0.6-0.9-1.1-1.2-1.8c-0.3-0.7-0.6-1.4-0.8-2.1c-0.2-0.7-0.3-1.4-0.3-2s0-1.2,0.1-1.7c0.3-2.1,1-3.3,1.6-4.4
					c1.2-2,2.5-3.4,3.7-4.6c2.4-2.4,4.8-4.3,7.2-6.2c4.8-3.6,9.8-6.8,14.7-9.9c9.9-6.1,20-11.7,30.3-17.1l3.9,6.9
					c-9.5,6.1-19,12.6-28,19.3c-4.5,3.4-8.9,6.9-12.9,10.5c-2,1.8-3.9,3.7-5.4,5.5c-0.7,0.9-1.3,1.8-1.5,2.2v0.1l0,0
					c0.1,0-0.1,0-0.2-0.1l-0.4-0.2c-0.6-0.2-0.9-0.4-1.4-0.5l-0.6-0.1c-0.2,0-0.3-0.1-0.5-0.1c-1.4-0.2-1.7,0.3-1.2-0.1l3.1-3.4
					L150.6,144.3z"/>
			</g>
			<g>
				<path class="st8" d="M170.9,74.3c-6.7,3.7-15.1,1.3-18.8-5.4s-1.3-15.1,5.4-18.8s15.1-1.3,18.8,5.4
					C180,62.2,177.6,70.6,170.9,74.3z"/>
				<path class="st8" d="M165.8,75.8l17.1-1.9c2.2-0.2,3.7-2.2,3.5-4.3c-0.2-2.1-2.2-3.7-4.3-3.5L165,68L165.8,75.8z"/>
				<path class="st8" d="M177.1,64.7l8.5-22.4c0.8-2-0.2-4.3-2.3-5.1c-2-0.8-4.3,0.2-5.1,2.3l-8.5,22.4L177.1,64.7z"/>
				<path class="st8" d="M171.6,59.3l8.5-22.4c0.8-2-0.2-4.3-2.3-5.1c-2-0.8-4.3,0.2-5.1,2.3l-8.5,22.4L171.6,59.3z"/>
				<path class="st8" d="M164.9,60.6l8.5-22.4c0.8-2-0.2-4.3-2.3-5.1c-2-0.8-4.3,0.2-5.1,2.3l-8.5,22.4L164.9,60.6z"/>
				<path class="st8" d="M157.7,59.6l6.9-18.1c0.6-1.6-0.2-3.4-1.8-4s-3.4,0.2-4,1.8l-6.9,18.1L157.7,59.6z"/>
				<g>
					<path class="st9" d="M173.5,54.1c1.3-3.9,2.7-7.7,4-11.5c0.7-1.9,1.3-3.9,2.1-5.7c0.4-0.8,0.4-1.8,0-2.7
						c-0.3-0.9-1-1.6-1.9-2.1c0,0,0,0,0-0.1c0,0,0,0,0.1,0c1,0.2,1.9,1,2.5,1.9c0.5,1,0.6,2.2,0.3,3.3c-0.7,1.9-1.5,3.8-2.3,5.7
						C176.8,46.6,175.2,50.3,173.5,54.1C173.6,54.1,173.6,54.1,173.5,54.1C173.6,54.1,173.5,54.1,173.5,54.1z"/>
				</g>
				<g>
					<path class="st9" d="M168.1,51.9c1.1-3.3,2.2-6.6,3.4-9.8l0.8-2.5l0.4-1.2c0.2-0.4,0.3-0.7,0.3-1.1c0.3-1.5-0.5-3.2-2-4
						c0,0,0,0,0-0.1c0,0,0,0,0.1,0c1.8,0.3,3.2,2.3,3,4.2c-0.1,1-0.5,1.8-0.8,2.6l-1,2.4C170.9,45.5,169.6,48.7,168.1,51.9
						C168.2,51.9,168.2,51.9,168.1,51.9C168.2,51.9,168.1,51.9,168.1,51.9z"/>
				</g>
				<g>
					<path class="st9" d="M160.5,52.2c0.8-2.6,1.7-5.2,2.6-7.8l0.6-1.9l0.3-1c0.1-0.3,0.2-0.6,0.2-0.9c0.2-1.1-0.4-2.4-1.5-3.1
						c0,0,0,0,0-0.1c0,0,0,0,0.1,0c1.4,0.2,2.6,1.7,2.5,3.3c0,0.4-0.2,0.8-0.3,1.1l-0.4,0.9l-0.8,1.9
						C162.8,47.2,161.7,49.8,160.5,52.2C160.6,52.3,160.6,52.3,160.5,52.2C160.5,52.3,160.5,52.2,160.5,52.2z"/>
				</g>
				<g>
					<path class="st9" d="M177,64.7c1.6-4.7,3.3-9.5,5-14.2c0.8-2.4,1.6-4.7,2.6-7.1c0.2-0.6,0.5-1.2,0.7-1.7s0.2-1.1,0.1-1.7
						c-0.2-1.1-1-2.2-2.1-2.7c0,0,0,0,0-0.1c0,0,0,0,0.1,0c0.6,0.2,1.2,0.5,1.7,1s0.8,1.1,1,1.7c0.2,0.7,0.2,1.4,0.1,2
						c-0.2,0.7-0.4,1.2-0.6,1.8c-0.8,2.4-1.8,4.7-2.8,7C180.9,55.5,179,60.1,177,64.7C177.1,64.8,177.1,64.8,177,64.7
						C177,64.8,177,64.7,177,64.7z"/>
				</g>
				<g>
					<path class="st9" d="M162.7,67.4c0.4-0.3,0.7-0.7,1.1-1c0.4-0.3,0.8-0.6,1.2-0.9c0.9-0.5,1.9-0.8,2.9-1s2.1-0.2,3.1,0.1
						c1,0.3,1.9,0.9,2.6,1.7v0.1l0,0l0,0c-0.9-0.3-1.8-0.6-2.8-0.8c-0.9-0.2-1.8-0.4-2.7-0.3s-1.9,0.3-2.7,0.7
						c-0.5,0.2-0.9,0.4-1.3,0.7C163.6,66.9,163.2,67.2,162.7,67.4L162.7,67.4C162.8,67.5,162.7,67.5,162.7,67.4
						C162.7,67.5,162.7,67.4,162.7,67.4z"/>
				</g>
			</g>
		</g>
		<g>
			<g>
				<path class="st1" d="M196.8,154.5c-5.1,2.3-7.6,7.5-5.5,11.5l1.7,3.4c2,4,7.7,5,12.5,2.3l48.4-27.6l0.5-0.3
					c0.6-0.4,1.2-0.8,1.7-1.3c0.5-0.5,1-1.1,1.4-1.7c0.4-0.6,0.7-1.3,0.9-1.8c0.2-0.6,0.4-1.2,0.4-1.7c0.3-2.1,0-3.5-0.2-4.7
					c-0.6-2.3-1.3-3.9-2.1-5.5c-1.6-3-3.3-5.6-5-8.1c-3.5-4.9-7.3-9.4-11.1-13.9c-7.7-8.8-15.6-17.2-23.8-25.4l-5.8,5.4
					c7.3,8.7,14.3,17.7,20.9,26.8c3.3,4.6,6.4,9.2,9.2,13.9c1.3,2.3,2.6,4.7,3.5,6.8c0.4,1,0.7,2.1,0.7,2.6v0.1l0,0
					c-0.1,0,0.1,0,0.2,0h0.4c0.6,0,1-0.1,1.5,0l0.7,0.1c0.2,0,0.3,0,0.5,0.1c1.4,0.2,1.5,0.8,1.2,0.2l-1.9-4.1L196.8,154.5z"/>
			</g>
			<g>
				<path class="st8" d="M198.4,81.6c5.3,5.5,14,5.8,19.6,0.5c5.5-5.3,5.8-14,0.5-19.6c-5.3-5.5-14-5.8-19.6-0.5
					C193.4,67.3,193.2,76.1,198.4,81.6z"/>
				<path class="st8" d="M202.8,84.6l-15.7-6.9c-2-0.9-2.9-3.2-2-5.2s3.2-2.9,5.2-2l15.7,6.9L202.8,84.6z"/>
				<path class="st8" d="M195.4,70.6L194,46.8c-0.1-2.2,1.5-4,3.7-4.1s4,1.5,4.1,3.7l1.4,23.9L195.4,70.6z"/>
				<path class="st8" d="M202.2,67.2l-1.4-23.9c-0.1-2.2,1.5-4,3.7-4.1s4,1.5,4.1,3.7l1.4,23.9L202.2,67.2z"/>
				<path class="st8" d="M208.3,70.4l-1.4-23.9c-0.1-2.2,1.5-4,3.7-4.1s4,1.5,4.1,3.7l1.4,23.9L208.3,70.4z"/>
				<path class="st8" d="M215.4,71.6l-1.2-19.3c-0.1-1.7,1.2-3.2,2.9-3.3s3.2,1.2,3.3,2.9l1.2,19.3L215.4,71.6z"/>
				<g>
					<path class="st9" d="M201.9,61.5c-0.4-4.1-0.7-8.1-1.1-12.2c-0.2-2-0.4-4-0.5-6.1c0-1.1,0.4-2.3,1.2-3.1s1.9-1.2,2.9-1.1
						c0,0,0,0,0,0.1l0,0c-1,0.2-1.9,0.7-2.4,1.5c-0.6,0.7-0.8,1.7-0.7,2.6c0.2,2,0.2,4.1,0.3,6.1C201.7,53.4,201.9,57.5,201.9,61.5
						C202,61.6,201.9,61.6,201.9,61.5C201.9,61.6,201.9,61.6,201.9,61.5z"/>
				</g>
				<g>
					<path class="st9" d="M207.7,61c-0.3-3.4-0.7-6.9-1-10.3l-0.2-2.6c0-0.9-0.2-1.7,0-2.7c0.4-1.9,2.3-3.4,4.1-3.1c0,0,0,0,0,0.1
						l0,0c-1.7,0.4-2.9,1.7-3.1,3.2c-0.1,0.4-0.1,0.7,0,1.2l0.1,1.3l0.1,2.6C207.6,54.1,207.7,57.6,207.7,61
						C207.8,61.1,207.7,61.1,207.7,61C207.7,61.1,207.7,61.1,207.7,61z"/>
				</g>
				<g>
					<path class="st9" d="M214.9,63.7c-0.3-2.7-0.6-5.4-0.8-8.2l-0.2-2l-0.1-1c0-0.3,0-0.8,0.1-1.1c0.3-1.6,1.9-2.7,3.4-2.4
						c0,0,0,0,0,0.1l0,0c-1.3,0.4-2.2,1.4-2.4,2.5c-0.1,0.3-0.1,0.5,0,0.9v1v2C214.9,58.2,214.9,60.9,214.9,63.7L214.9,63.7
						L214.9,63.7z"/>
				</g>
				<g>
					<path class="st9" d="M195.4,70.7c-0.4-5-0.9-10-1.2-15c-0.2-2.5-0.5-5-0.5-7.5c0-0.6-0.1-1.2,0-1.9s0.3-1.4,0.7-1.9
						c0.4-0.6,0.9-1,1.5-1.3s1.3-0.4,1.9-0.4c0,0,0,0,0,0.1l0,0c-1.2,0.2-2.3,1-2.8,2c-0.3,0.5-0.4,1.1-0.4,1.6s0.1,1.2,0.1,1.8
						c0.2,2.5,0.3,5,0.3,7.5C195.1,60.6,195.3,65.6,195.4,70.7C195.5,70.7,195.4,70.7,195.4,70.7L195.4,70.7z"/>
				</g>
				<g>
					<path class="st9" d="M208.2,77.6c-0.3-0.4-0.6-0.8-0.9-1.2c-0.4-0.3-0.6-0.7-1-1c-0.7-0.7-1.5-1.1-2.4-1.5
						c-0.9-0.3-1.8-0.4-2.7-0.5s-1.9-0.1-2.9-0.1l0,0h-0.1l0,0c0.9-0.6,1.9-0.8,2.9-0.8s2.1,0.3,3,0.8s1.8,1.1,2.4,1.8
						c0.4,0.3,0.6,0.8,0.9,1.2C207.8,76.7,208,77.1,208.2,77.6C208.3,77.6,208.3,77.6,208.2,77.6L208.2,77.6L208.2,77.6z"/>
				</g>
			</g>
		</g>
		<g>
			<path class="st1" d="M195.7,270.3l-5.8-50.5l11.8-31c0.5-1.3,0.7-2.7,0.5-4l-3.1-32.9c0,0-10.6-4.3-25.8-5.8
				c-22.1-3.5-24.7-1.9-24.7-1.9l-12.4,29.4c-0.8,2-1.2,4.1-1.1,6.2l1.9,32l-20.6,46.5l0.5,1c5.8,2.8,20.8,10.6,30.6,13.9l7.5-14.5
				l1.8,16.3c10.3,0.5,31.7-3.6,38.1-4.7L195.7,270.3z"/>
		</g>
		<polygon class="st10" points="152.3,147.5 164.2,210.3 192.8,153.7 		"/>
		<path class="st11" d="M195,10.4L195,10.4c-27-4.1-52.4,14.5-56.6,41.3l-10.2,66.7c-0.8,5.3,2.3,10.3,7.2,12.2
			c0-2.5,0.1-5.6,0.7-8.2c0,0,0,4.5,0.4,8.6c0.4,0.1,0.8,0.2,1.2,0.3l1.4,0.5c-0.2-2.6-0.3-7.3,0.6-10.9c0,0,0.1,7,0.6,11.3
			l34.3,11.3l36.1-0.5c1.9-4,4-10.6,4-10.6c-0.2,3.7-1.8,8.2-2.7,10.6h1.5c0.4,0.1,0.8,0.1,1.2,0.1c1.5-3.8,2.9-8.1,2.9-8.1
			c-0.2,2.7-1,5.7-1.8,8.1c5.2-0.3,9.7-4.2,10.5-9.5l10.2-66.7C240.7,39.9,222,14.5,195,10.4z"/>
		<g>
			<path class="st12" d="M172.8,145.2c-2.8-2.4-11.8-8.3-21.5,2.8c-0.2,0.3-0.4,0.7-0.4,1.1l0.7,22.4c0,1.2,1.4,1.8,2.1,0.8
				c3-3.9,9.2-10.4,16.9-11.2c0.2,0,0.4,0,0.6,0.1c7.1,3,11,11.2,12.8,15.8c0.4,1.1,1.9,1,2.3-0.1l7.4-21.2c0.1-0.4,0.1-0.8,0-1.1
				c-6-13.5-16.3-10.5-19.7-9.1C173.5,145.6,173.1,145.5,172.8,145.2z"/>
			<path class="st10" d="M173,143.8c-2.7-2.3-11.1-7.9-20.3,2.6c-0.2,0.3-0.4,0.6-0.4,1l0.7,21.2c0,1.2,1.3,1.7,2,0.8
				c2.9-3.7,8.7-9.9,16-10.6c0.2,0,0.4,0,0.6,0.1c6.7,2.9,10.4,10.5,12.1,14.9c0.4,1.1,1.8,1,2.2-0.1l7-20c0.1-0.3,0.1-0.7,0-1.1
				c-5.6-12.8-15.4-10-18.6-8.6C173.7,144.2,173.3,144.1,173,143.8z"/>
		</g>
		<path class="st8" d="M172.7,156.7L172.7,156.7c-6.4-1-10.8-7-9.8-13.3l6.8-44.6c1-6.4,6.9-10.8,13.3-9.8l0,0
			c6.4,1,10.8,6.9,9.8,13.3l-6.8,44.6C185,153.3,179,157.7,172.7,156.7z"/>
		<path class="st9" d="M187,140.1l0.3-1.8l-23.2-3.5l-0.3,2.2C167.6,139.7,174.9,143.2,187,140.1z"/>
		<g>
			<g>
				<path class="st13" d="M224.2,85.8c-2,2.4-3.8,5.5-4.6,7.8c-0.6,1.9-1,4.9-0.2,5.6c0.3,0.3,1.1,0,1.6-0.1c2.3-1,4.1-3.6,4.7-6.8
					C226.1,89.5,225.6,87.2,224.2,85.8z"/>
				<path class="st13" d="M231.3,77.7c-3.3-1.2-9.2,2.2-9.2,2.2c-6.9,4.2-6.9,28.4-1.6,28.3c5.4-0.1,6-7.7,6-7.7
					c2.8-1.2,6.1-7.8,6.1-7.8C239.1,80.5,231.3,77.7,231.3,77.7z M232.6,86.2c-0.3,0.9-0.8,1.7-1.3,2.5l-1.6-1
					c0.5-0.7,0.9-1.4,1.2-2.2c0.2-0.5,0.4-1.3,0.2-2.1c-0.2-0.6-0.6-1.1-1.1-1.3c-0.3-0.1-0.7-0.1-1.3,0c-0.9,0.2-2,1-3.1,2.2
					c1.8,1.8,2.6,4.8,2,8.2c-0.6,3.9-2.9,7-5.8,8.3c-0.9,0.4-1.6,0.5-2.3,0.4c-0.5-0.1-0.9-0.3-1.3-0.6c-2-1.8-0.6-6.6-0.3-7.5
					c1.4-4.4,6.5-11.8,10.3-12.7c0.6-0.1,1.4-0.3,2.3,0c1.1,0.4,2,1.4,2.3,2.6C233.1,84,233,85.1,232.6,86.2z"/>
				<path class="st9" d="M230.5,80.4c-0.9-0.3-1.7-0.1-2.3,0c-3.8,0.9-8.9,8.3-10.3,12.7c-0.3,1-1.6,5.8,0.3,7.5
					c0.4,0.3,0.8,0.5,1.3,0.6c0.7,0.1,1.4,0,2.3-0.4c2.9-1.2,5.1-4.4,5.8-8.3c0.6-3.3-0.2-6.3-2-8.2c1.1-1.1,2.2-2,3.1-2.2
					c0.6-0.1,1-0.1,1.3,0c0.5,0.2,0.9,0.7,1.1,1.3c0.2,0.8,0,1.6-0.2,2.1c-0.3,0.8-0.7,1.5-1.2,2.2l1.6,1c0.5-0.8,1-1.6,1.3-2.5
					c0.4-1.1,0.5-2.2,0.3-3.2C232.5,81.7,231.6,80.7,230.5,80.4z M225.7,92.2c-0.5,3.2-2.4,5.9-4.7,6.8c-0.4,0.2-1.2,0.5-1.6,0.1
					c-0.8-0.7-0.4-3.7,0.2-5.6c0.8-2.4,2.6-5.5,4.6-7.8C225.6,87.2,226.1,89.5,225.7,92.2z"/>
			</g>
			<g>
				<path class="st13" d="M144.8,73.6c1.2,2.8,2,6.3,2,8.8c0,2-0.5,5-1.5,5.4c-0.4,0.2-1.1-0.3-1.5-0.6c-1.9-1.6-2.8-4.7-2.4-7.9
					C141.8,76.6,143.1,74.5,144.8,73.6z"/>
				<path class="st13" d="M134.7,77.7c0,0,1.2,7.2,3.5,9.2c0,0-1.7,7.5,3.4,9.2c5.1,1.7,12.3-21.4,7-27.5c0,0-4.6-5-8.1-4.9
					C140.5,63.7,132.2,64.1,134.7,77.7z M137.4,68.4c0.7-1.1,1.8-1.8,3-1.8c0.9,0,1.7,0.4,2.2,0.7c3.4,2,6,10.6,6.1,15.2
					c0,1-0.2,6-2.6,7.1c-0.4,0.2-0.9,0.3-1.4,0.2c-0.7-0.1-1.4-0.5-2.1-1.1c-2.4-2-3.6-5.7-3-9.6c0.5-3.3,2.1-6,4.4-7.2
					c-0.7-1.4-1.5-2.5-2.4-3c-0.5-0.3-0.9-0.4-1.2-0.4c-0.5,0-1.1,0.4-1.4,0.9c-0.4,0.7-0.5,1.5-0.4,2.1c0,0.8,0.2,1.6,0.5,2.4
					l-1.8,0.5c-0.2-0.9-0.5-1.8-0.5-2.8C136.6,70.3,136.9,69.2,137.4,68.4z"/>
				<path class="st9" d="M137.4,68.4c-0.5,0.9-0.8,1.9-0.7,3.1c0,1,0.3,1.9,0.5,2.8l1.8-0.5c-0.2-0.8-0.4-1.6-0.5-2.4
					c0-0.6,0-1.4,0.4-2.1c0.3-0.5,0.9-0.9,1.4-0.9c0.3,0,0.7,0.1,1.2,0.4c0.8,0.5,1.6,1.6,2.4,3c-2.3,1.2-3.9,3.8-4.4,7.2
					c-0.5,3.9,0.6,7.6,3,9.6c0.7,0.6,1.4,1,2.1,1.1c0.5,0.1,0.9,0,1.4-0.2c2.4-1.1,2.6-6.1,2.6-7.1c0-4.6-2.7-13.2-6.1-15.2
					c-0.5-0.3-1.3-0.7-2.2-0.7C139.2,66.6,138.1,67.3,137.4,68.4z M144.8,73.6c1.2,2.8,2,6.3,2,8.8c0,2-0.5,5-1.5,5.4
					c-0.4,0.2-1.1-0.3-1.5-0.6c-1.9-1.6-2.8-4.7-2.4-7.9C141.8,76.6,143.1,74.5,144.8,73.6z"/>
			</g>
		</g>
		<path class="st8" d="M175.5,138.5L175.5,138.5c-18.2-2.8-36.4-22.4-33.6-40.6l9.3-60.5c2.8-18.1,19.8-30.7,38-27.9l11.8,1.8
			c18.2,2.8,30.7,19.8,27.9,38.1l-9.3,60.5C216.9,128.1,193.7,141.3,175.5,138.5z"/>
		<g>
			<path class="st14" d="M165.2,106.9c-0.1,8.5,5,15.8,12.3,16.9s14.4-4.3,16.9-12.5c-3.6,2.6-9.1,2.1-15.1,1.2
				S167.9,110.4,165.2,106.9z"/>
			<path class="st15" d="M193.7,112.6c0.5-0.9,0.9-1.9,1.3-3c0.1-0.3-0.2-0.5-0.5-0.4c-3.7,2.1-9,1.7-14.9,0.8
				c-5.9-0.9-11.1-2.1-14-5.2c-0.2-0.2-0.6-0.1-0.6,0.2c0,1.1,0.2,2.2,0.4,3.2c3,2.9,8,4.1,13.7,4.9S190,114.6,193.7,112.6z"/>
		</g>
		<path class="st9" d="M170.2,125.3c1.5,2.3,3.8,3.9,6.4,4.3c2.7,0.4,5.3-0.4,7.4-2.1c-2.1,0.6-4.6,0.7-7.2,0.3
			C174.4,127.4,172.1,126.5,170.2,125.3z"/>
		<g>
			<path class="st16" d="M158.7,61.7c-0.6,0.2-1-0.7-0.5-1c2.4-1.7,5.2-2.6,8.1-2.5c2.9,0.1,5.7,1.2,8,2.9c0.5,0.4,0.1,1.2-0.5,1
				c-2.3-0.7-4.8-1.2-7.5-1.3C163.6,60.7,161,61,158.7,61.7z"/>
			<path class="st16" d="M215.3,70.3c0.5,0.3,1.2-0.3,0.8-0.8c-1.8-2.3-4.2-4-7-4.8c-2.8-0.8-5.8-0.6-8.5,0.4
				c-0.6,0.2-0.4,1.1,0.2,1.1c2.4,0,4.9,0.3,7.5,1C211,68,213.3,69,215.3,70.3z"/>
		</g>
		<path class="st9" d="M181.5,99.1l4.1-0.1c0.8,0.1,1.3-0.8,0.8-1.4L183,93c-0.3-0.4-0.8-0.5-1.2-0.2l-4.6,3.4
			c-0.6,0.5-0.4,1.5,0.4,1.6L181.5,99.1z"/>
		<g>
			<g>
				<g>
					<circle class="st17" cx="167.6" cy="73.7" r="4.7"/>
				</g>
			</g>
		</g>
		<g>
			<g>
				<g>
					<circle class="st17" cx="203" cy="79.1" r="4.7"/>
				</g>
			</g>
		</g>
		<path class="st11" d="M244.6,56.4c-1.4-0.2-3.1-0.7-4.9-1.4c1.8-11.7,1.8-31.9-15.2-44c-5.5-4-27.3-14.2-43.6-5.9
			c0,0,0-4.2,1.6-5.1c0,0-6.8-0.3-9.6,6.1c0,0-12.9-5-17.1,0.7c0,0,3.7,0.2,5.6,1.8c-23.4,6.9-21.1,40.2-21.1,40.2
			c0.5,4.4-0.2,16.1,5.6,23.3l3.6-21.5c0,0,8.4-20.2,14.1-20.1c0,0,0.3,2.7,2.4,6.5c2.6,8.6,9.4,20.2,26.8,21c0,0-9.4-2.8-13-8.6
			c8.7,4.6,22,8.3,42.5,8.2c0,0,1.9,0.2,4.8,0.3c0.2,1.1,0.2,2.2,0,3.2c-1.6,10.3-0.5,0.4-3.6,23.8c0,0,10.9-9.6,14.3-21.1
			c0,0,0.3-0.1,1-3.7c2.1-0.1,4.2-1.3,6.1-2.4C245.6,57.5,245.4,56.5,244.6,56.4z"/>
		<path class="st17" d="M163.2,67.6c0.8,2.2,2.9,2.4,2.9,2.4l-1.4,1.7C164.7,71.7,162.9,69.7,163.2,67.6z"/>
		<path class="st17" d="M198.3,73c0.8,2.2,2.9,2.4,2.9,2.4l-1.4,1.7C199.8,77.1,198,75.1,198.3,73z"/>
		<circle class="st17" cx="169.4" cy="170.9" r="2.7"/>
		<circle class="st17" cx="167.9" cy="180.8" r="2.7"/>
		<g>
			<g>
				<path class="st18" d="M238.1,58.1c-5.3-0.4-10.6-1.4-15.7-2.8c-5.2-1.4-10.2-3.3-15-5.6c-4.8-2.4-9.4-5.2-13.4-8.7
					c-2-1.7-3.9-3.7-5.6-5.7c-1.7-2.1-3.2-4.3-4.5-6.6c2.9,4.4,6.5,8.4,10.6,11.7s8.6,6.1,13.4,8.4c4.7,2.3,9.7,4.2,14.8,5.7
					c2.5,0.8,5.1,1.4,7.7,2C232.8,57.3,235.4,57.7,238.1,58.1z"/>
			</g>
			<g>
				<path class="st18" d="M222.6,55.8c-5.3-0.4-10.6-1.4-15.7-2.8c-5.2-1.4-10.2-3.3-15-5.6c-4.8-2.4-9.4-5.2-13.4-8.7
					c-2-1.7-3.9-3.7-5.6-5.7c-1.7-2.1-3.2-4.3-4.5-6.6c2.9,4.4,6.5,8.4,10.6,11.7s8.6,6.1,13.4,8.4c4.7,2.3,9.7,4.2,14.8,5.7
					c2.5,0.8,5.1,1.4,7.7,2C217.3,54.9,219.9,55.4,222.6,55.8z"/>
			</g>
		</g>
	</g>
	<g>
		<polygon class="st5" points="216.2,276.9 167,316.9 182.6,318.6 239.4,277.1 		"/>
		<polygon class="st5" points="216.2,272.4 167,312.3 182.6,314.1 239.4,272.5 		"/>
		<polygon class="st7" points="167,312.3 167,316.9 182.6,318.6 182.6,314.1 		"/>
		<polygon class="st7" points="239.4,272.5 239.4,277.1 182.6,318.6 182.6,314.1 		"/>
	</g>
</g>
</svg>
