<?xml version="1.0" encoding="utf-8"?>
<!-- Generator: Adobe Illustrator 22.1.0, SVG Export Plug-In . SVG Version: 6.00 Build 0)  -->
<svg version="1.1" id="Layer_1" xmlns="http://www.w3.org/2000/svg" xmlns:xlink="http://www.w3.org/1999/xlink" x="0px" y="0px"
	 viewBox="0 0 204 461.1" style="enable-background:new 0 0 204 461.1;" xml:space="preserve">
<style type="text/css">
	.st0{fill:#DFE0E0;}
	.st1{fill:#F0D0B3;}
	.st2{fill:#EDD8B7;}
	.st3{fill:#F5E0CD;}
	.st4{fill:#EBC19C;}
	.st5{fill:#FFD7BE;}
	.st6{fill:#C1B49A;}
	.st7{fill:#6E6360;}
	.st8{fill:#F1F1F2;}
	.st9{opacity:0.55;fill:#BBBDBF;enable-background:new    ;}
	.st10{fill:#808184;}
	.st11{fill:#58595B;}
	.st12{fill:#BBBDBF;}
	.st13{fill:#6D6E70;}
	.st14{fill:#C3996B;}
	.st15{fill:#CCCFD9;}
	.st16{fill:#929497;}
	.st17{fill:#E6E7E8;}
	.st18{opacity:0.25;}
	.st19{fill:#757E84;}
	.st20{fill:#EC1C24;}
	.st21{fill:#787986;}
</style>
<g>
	<g>
		<path class="st0" d="M43.4,147.9c1.8,3.6,3.7,7.3,5.6,11l-8.8,4.6c-1.9-3.7-3.8-7.4-5.7-11.1L43.4,147.9z"/>
		<path class="st1" d="M96.5,158.7C96.5,158.7,96.4,158.7,96.5,158.7c0.3-0.1,0.5-0.1,0.8-0.2c0.5,0,0.8,0,1.2,0
			c0.4,0.1,0.6,0.1,0.8,0.2"/>
		<path class="st2" d="M82.1,180.7c11.1-6.9,23.6-16.8,33.7-25.5c4.9-4.3,9.9-1.8,12.7,1.3l0.7,0.7c2.8,3.1,0.8,9.3-4.6,13.5
			c-11,8.6-22.3,16.7-34.8,23.7c-6.2,3.5-12.8,6.6-20.2,8.7l-0.3,0.1l-0.2,0.1c-0.3,0.1-0.7,0.1-1,0.2c-0.8,0.1-1.3,0.1-1.8,0
			c-0.3,0-0.6-0.1-0.8-0.1c-0.2,0-0.4-0.1-0.6-0.2c-1.5-0.5-2.3-1.1-3-1.5c-1.3-1-2-1.8-2.8-2.6c-1.4-1.6-2.5-3.1-3.6-4.6
			c-2.1-3-3.9-6-5.7-9.1c-3.5-6-6.8-12-9.9-18.1l-3.6-7.1l12.7-6.5l3.8,6.8c3.3,5.8,6.6,11.6,10.1,17.2c1.8,2.8,3.7,5.5,5.6,8
			c0.9,1.2,0.3,0.6,1.2,1.5L82.1,180.7z"/>
	</g>
	<g>
		<path class="st3" d="M43,132.5c4.9,5.9,4.1,14.6-1.8,19.5s-14.6,4.1-19.5-1.8c-4.9-5.9-4.1-14.6,1.8-19.5S38.1,126.6,43,132.5z"/>
		<path class="st3" d="M45.4,137.2l-5-16.4c-0.6-2.1-2.8-3.2-4.9-2.6c-2.1,0.6-3.2,2.8-2.6,4.9l5,16.4L45.4,137.2z"/>
		<path class="st3" d="M32.4,128.2L8.9,124c-2.1-0.4-4.2,1-4.5,3.2c-0.4,2.1,1,4.2,3.2,4.5l23.6,4.2L32.4,128.2z"/>
		<path class="st3" d="M28.2,134.6l-23.6-4.2c-2.1-0.4-4.2,1-4.5,3.2c-0.4,2.1,1,4.2,3.2,4.5l23.5,4.2L28.2,134.6z"/>
		<path class="st3" d="M30.6,141L7,136.8c-2.1-0.4-4.2,1-4.5,3.2c-0.4,2.1,1,4.2,3.2,4.5l23.6,4.2L30.6,141z"/>
		<path class="st3" d="M31,148.1l-19-3.3c-1.7-0.3-3.3,0.8-3.6,2.5s0.8,3.3,2.5,3.6l19.1,3.4L31,148.1z"/>
		<g>
			<path class="st4" d="M22.6,133.7c-4-0.6-8.1-1.2-12.1-1.8c-2-0.3-4-0.6-6-1c-0.9-0.2-1.8,0-2.6,0.4c-0.8,0.5-1.4,1.3-1.8,2.2
				c0,0,0,0-0.1,0l0,0c0-1,0.6-2.1,1.5-2.8s2.1-1,3.2-0.9c2,0.3,4,0.8,6,1.2C14.6,131.9,18.6,132.7,22.6,133.7
				C22.6,133.6,22.7,133.6,22.6,133.7C22.6,133.6,22.6,133.7,22.6,133.7z"/>
		</g>
		<g>
			<path class="st4" d="M21.4,139.4c-3.4-0.5-6.8-1-10.3-1.5l-2.6-0.4l-1.3-0.2c-0.4-0.1-0.8-0.1-1.2-0.1c-1.5,0-3,1.1-3.6,2.7
				c0,0,0,0-0.1,0l0,0c0-1.8,1.6-3.5,3.6-3.7c1-0.1,1.8,0.2,2.7,0.3l2.5,0.5C14.7,137.8,18.1,138.5,21.4,139.4
				C21.5,139.3,21.5,139.3,21.4,139.4C21.5,139.4,21.5,139.4,21.4,139.4z"/>
		</g>
		<g>
			<path class="st4" d="M23.2,146.8c-2.7-0.3-5.4-0.7-8.1-1.1l-2-0.3l-1-0.2c-0.3-0.1-0.6-0.1-0.9-0.1c-1.2,0-2.3,0.8-2.8,2.1
				c0,0,0,0-0.1,0l0,0c-0.1-1.4,1.2-2.9,2.8-3.1c0.4-0.1,0.8,0,1.2,0.1l1,0.2l2,0.5C17.9,145.5,20.6,146.1,23.2,146.8
				C23.3,146.7,23.3,146.7,23.2,146.8C23.3,146.8,23.3,146.8,23.2,146.8z"/>
		</g>
		<g>
			<path class="st4" d="M32.4,128.3c-5-0.7-9.9-1.5-14.9-2.3c-2.5-0.4-5-0.7-7.4-1.2c-0.6-0.1-1.3-0.3-1.8-0.4c-0.6,0-1.1,0-1.7,0.2
				c-1.1,0.4-2,1.4-2.3,2.6c0,0,0,0-0.1,0c0,0,0,0,0-0.1c0-0.6,0.3-1.3,0.6-1.8c0.4-0.6,0.9-1,1.5-1.3s1.3-0.5,2-0.5
				s1.3,0.2,1.9,0.2c2.5,0.4,4.9,0.9,7.4,1.4C22.6,126.2,27.5,127.2,32.4,128.3C32.5,128.2,32.5,128.2,32.4,128.3
				C32.5,128.3,32.4,128.3,32.4,128.3z"/>
		</g>
		<g>
			<path class="st4" d="M37.8,141.8c-0.4-0.3-0.8-0.6-1.2-0.9c-0.4-0.4-0.8-0.7-1.1-1.1c-0.7-0.7-1.2-1.7-1.5-2.6
				c-0.4-1-0.6-2-0.4-3.1c0.1-1,0.5-2,1.2-2.8c0,0,0,0,0.1,0l0,0l0,0c-0.1,1-0.3,1.9-0.3,2.9c0,0.9,0,1.9,0.2,2.8
				c0.2,0.9,0.6,1.8,1.2,2.6c0.2,0.4,0.6,0.8,0.9,1.1C37.1,141,37.5,141.4,37.8,141.8L37.8,141.8C37.8,141.7,37.8,141.8,37.8,141.8
				L37.8,141.8z"/>
		</g>
	</g>
	<g>
		<g>
			<path class="st5" d="M129.1,276.7c-0.1,1.8,1.2,3.4,3.1,3.5l4.1,0.3c-0.6,1.1-1.1,2.3-1.3,3.6l-9.3,15.4
				c-0.9,1.6-0.4,3.6,1.1,4.5c0.9,0.6,2,0.6,2.9,0.2l-0.3,0.5c-0.9,1.6-0.4,3.6,1.1,4.5c1.6,0.9,3.6,0.4,4.5-1.1l0.1-0.1
				c0.3,0.5,0.7,0.9,1.2,1.2c1.6,0.9,3.6,0.4,4.5-1.1l1.8-3c0.1,0.7,0.6,1.4,1.2,1.8c1.3,0.8,2.9,0.4,3.6-0.9l6.7-11
				c3.5-3,5-8,3.4-12.6c-1.7-5.1-6.7-8.2-11.8-7.9l-13.1-0.9C130.8,273.5,129.3,274.9,129.1,276.7z"/>
			<g>
				<path class="st4" d="M137.5,291.6c-1.7,3-3.3,6-5,9c-0.8,1.5-1.6,3-2.6,4.5c-0.4,0.6-0.6,1.4-0.5,2.2c0.1,0.8,0.5,1.5,1.2,2.1
					c0,0,0,0,0,0.1c0,0,0,0-0.1,0c-0.8-0.3-1.5-1.1-1.8-2s-0.2-2,0.3-2.8c0.8-1.5,1.8-2.9,2.7-4.4
					C133.6,297.3,135.5,294.4,137.5,291.6C137.4,291.5,137.4,291.5,137.5,291.6C137.5,291.5,137.5,291.5,137.5,291.6z"/>
			</g>
			<g>
				<path class="st4" d="M141.6,294.2c-1.4,2.6-2.8,5.1-4.2,7.7l-1,1.9l-0.5,1c-0.2,0.3-0.3,0.6-0.4,0.9c-0.4,1.2-0.1,2.6,1,3.6v0.1
					c0,0,0,0-0.1,0c-1.4-0.5-2.4-2.4-1.9-4c0.3-0.9,0.7-1.4,1.1-2l1.2-1.8C138.3,299,139.9,296.6,141.6,294.2
					C141.5,294.1,141.6,294.1,141.6,294.2L141.6,294.2z"/>
			</g>
			<g>
				<path class="st4" d="M148,295c-1.1,2.1-2.2,4.1-3.3,6.1l-0.8,1.5l-0.4,0.8c-0.2,0.3-0.2,0.4-0.3,0.7c-0.3,0.9-0.1,2,0.7,2.8v0.1
					c0,0,0,0-0.1,0c-1.2-0.4-2-1.8-1.6-3.2c0.1-0.3,0.2-0.7,0.4-0.9l0.5-0.7l1-1.4C145.3,298.8,146.6,296.9,148,295L148,295L148,295
					z"/>
			</g>
			<g>
				<path class="st4" d="M136.2,282.2c-2.1,3.7-4.1,7.4-6.3,11.1c-1,1.8-2,3.7-3.2,5.5c-0.3,0.4-0.6,0.9-0.8,1.3
					c-0.2,0.4-0.3,0.9-0.3,1.4c0,1,0.4,1.9,1.3,2.6c0,0,0,0,0,0.1c0,0,0,0-0.1,0c-0.5-0.2-0.9-0.6-1.3-1c-0.3-0.5-0.5-1-0.6-1.6
					s0-1.2,0.2-1.7c0.2-0.6,0.5-1,0.8-1.5c1-1.8,2.2-3.6,3.4-5.4C131.5,289.3,133.8,285.7,136.2,282.2
					C136.1,282.1,136.1,282.1,136.2,282.2C136.2,282.1,136.2,282.2,136.2,282.2z"/>
			</g>
		</g>
		<polygon class="st6" points="181,248.3 182.6,254.3 165.3,276.1 159.7,271.3 		"/>
		<g>
			<path class="st2" d="M182.7,161.8l0.2,0.8c0,0.1,0.1,0.2,0.1,0.3c2.7,11.3,5.3,22.6,7.6,34c1.2,5.7,2.3,11.4,3.2,17.3
				c0.5,3,1,5.8,1.2,9.3v0.7v0.3v0.5c0,0.7,0,1.4-0.1,2.2c-0.1,0.5-0.2,1.2-0.4,1.8l-0.1,0.4l-0.1,0.2l-0.2,0.4l-0.4,0.9l-0.3,0.6
				c-0.9,1.7-1.8,2.9-2.6,4.2c-3.7,5.7-7.5,10.8-11.4,16s-7.8,10.3-11.7,15.4c-0.4,0.5-1.2,0.4-1.5,0.2l-9.3-7.1
				c-0.3-0.2-0.6-1.1-0.3-1.5c0,0,5.7-7.6,11.3-15.2c2.8-3.8,5.5-7.7,7.5-10.6c1-1.5,1.8-2.7,2.4-3.5c0.5-0.8,0.9-1.3,0.9-1.4l0,0
				c0.7-1.1,1.4-2.3,1.8-3.2l0.2-0.3c0-0.1,0-0.1,0-0.1l0,0l0,0l0,0l0,0l0.2,0.1l1.3,0.5c0.3,0.1,0.5,0.3,0.8,0.4
				c0.6,0.2,1.1,0.4,1.7,0.6c0.3,0.1,0.6,0.1,0.9,0.2h0.5h0.1c1.3,0.2-1.6-0.2-1.4-0.2l-0.4-0.1c-0.9-0.2-1.9-0.3-2.8-0.4l-1.3-0.1
				l0,0l0,0v-0.2l-0.1-0.4c-0.2-2.2-0.8-5.1-1.4-7.7c-1.2-5.5-2.5-11-3.9-16.5c-2.8-11.1-5.8-22.1-8.9-33.1c0-0.1,0-0.2-0.1-0.3
				l-0.2-0.7c-1.7-5.4,0.1-10.7,4-11.9l3.4-0.9C177.1,152.3,181.5,156.1,182.7,161.8z"/>
			<polygon class="st5" points="153,281 147.1,276.4 153.2,268.5 159.2,273.1 			"/>
			<polygon class="st0" points="159.9,273.6 152.5,267.9 157.9,261 165.2,266.6 			"/>
		</g>
	</g>
	<g>
		<path class="st3" d="M134.4,437.7c0,3.3-1.9,6-4.1,6h-1c-2.3,0.1-4.3-2.6-4.4-5.8l-9.7-189.7c-0.2-3.3,1.6-6,3.8-6l12.4-0.3
			c2.3-0.1,4.1,2.6,4.1,5.8L134.4,437.7z"/>
	</g>
	<g>
		<path class="st3" d="M170.8,435.2c-0.1,3.3-2,5.9-4.3,5.9h-1c-2.3,0-4.2-2.7-4.3-5.9l-4.4-189.8c-0.1-3.3,1.7-5.9,4-5.9l12.4,0.1
			c2.3,0,4,2.7,3.9,5.9L170.8,435.2z"/>
	</g>
	<path class="st7" d="M146.5,258.6c-7.7,0.5-30,8.9-37.4,6.9L87.8,398.8c0,0,53.9,23.1,116.2,0c0-3.8-19.1-133.9-19.1-133.9
		C178.2,266.8,154.4,259.2,146.5,258.6z"/>
	<g>
		<path class="st2" d="M186.1,267.7l-12.9-47.5l6.7-31.4c0.3-1.3,0.3-2.7-0.1-3.9l-7.8-31c0,0-10.8-2.5-25.5-1.8
			c-21.7-0.1-23.9,1.8-23.9,1.8l-7.5,30c-0.5,2-0.5,4.1-0.1,6.1l6.5,30.4l-12.9,47.5l0.7,0.9c5.9,1.8,21.5,7.1,31.4,8.8l5.1-15
			l4.1,15.3c9.9-1.1,29.8-8.1,35.8-10.1L186.1,267.7L186.1,267.7z"/>
	</g>
	<polygon class="st8" points="127.1,154.9 147.1,215.7 165.6,154.9 	"/>
	<g>
		<path class="st9" d="M145.8,151.3c-3-1.9-12.5-6.2-20.2,5.8c-0.2,0.3-0.3,0.7-0.2,1.1l4,21.4c0.2,1.2,1.6,1.5,2.2,0.5
			c2.3-4.2,7.3-11.3,14.5-13.2c0.2,0,0.4,0,0.6,0c7.2,1.9,12.2,9.1,14.5,13.2c0.6,1,2,0.7,2.2-0.5l4-21.4c0.1-0.4,0-0.8-0.2-1.1
			c-7.7-12.1-17.1-7.7-20.2-5.8C146.6,151.6,146.1,151.6,145.8,151.3z"/>
		<path class="st8" d="M145.8,150c-2.9-1.8-11.8-5.9-19.1,5.5c-0.2,0.3-0.3,0.7-0.2,1l3.7,20.2c0.2,1.1,1.5,1.4,2.1,0.4
			c2.2-3.9,6.9-10.7,13.7-12.5c0.2,0,0.4,0,0.5,0c6.8,1.8,11.5,8.6,13.7,12.5c0.5,1,1.8,0.7,2.1-0.4l3.7-20.2c0.1-0.4,0-0.7-0.2-1
			c-7.3-11.4-16.2-7.3-19.1-5.5C146.6,150.2,146.2,150.2,145.8,150z"/>
	</g>
	<path class="st3" d="M147.4,162.4h-0.2c-6.2,0-11.3-5-11.3-11.3v-43.9c0-6.2,5-11.3,11.3-11.3h0.2c6.2,0,11.3,5,11.3,11.3v43.9
		C158.7,157.3,153.7,162.4,147.4,162.4z"/>
	<path class="st4" d="M158.7,144.3v-1.8H136v2.1C140,146.8,147.5,149.1,158.7,144.3z"/>
	<g>
		<g>
			<g>
				<path class="st1" d="M183.8,89c-1.5,2.5-2.7,5.6-3.1,7.9c-0.3,1.8-0.2,4.7,0.6,5.2c0.4,0.2,1.1-0.1,1.4-0.4c2-1.2,3.3-3.9,3.3-7
					C186.1,92.3,185.3,90.1,183.8,89z"/>
				<path class="st1" d="M189.2,80.6C186,80,181,84,181,84c-5.8,4.9-2.4,27.2,2.6,26.3c4.9-0.8,4.5-8,4.5-8c2.4-1.5,4.6-8,4.6-8
					C196.8,82,189.2,80.6,189.2,80.6z M191.6,88.3c-0.2,0.9-0.5,1.7-0.9,2.5l-1.6-0.7c0.3-0.7,0.6-1.5,0.8-2.2
					c0.1-0.5,0.2-1.3-0.1-2c-0.2-0.5-0.7-1-1.2-1c-0.3,0-0.7,0-1.2,0.2c-0.8,0.3-1.7,1.2-2.6,2.4c2,1.4,3.1,4.1,3,7.2
					c0,3.7-1.6,6.9-4.2,8.4c-0.8,0.5-1.4,0.7-2.1,0.7c-0.5,0-0.9-0.1-1.2-0.4c-2.1-1.4-1.5-6-1.4-6.9c0.7-4.3,4.3-11.8,7.8-13.1
					c0.5-0.2,1.3-0.4,2.1-0.3c1.1,0.2,2,1,2.5,2.1C191.8,86.1,191.8,87.2,191.6,88.3z"/>
				<path class="st4" d="M188.9,83.2c-0.8-0.1-1.6,0.1-2.1,0.3c-3.4,1.3-7.1,8.9-7.8,13.1c-0.1,0.9-0.7,5.6,1.4,6.9
					c0.4,0.2,0.8,0.4,1.2,0.4c0.6,0,1.3-0.2,2.1-0.7c2.5-1.5,4.1-4.8,4.2-8.4c0-3.1-1.1-5.8-3-7.2c0.9-1.2,1.8-2.1,2.6-2.4
					c0.5-0.2,0.9-0.3,1.2-0.2c0.5,0.1,0.9,0.5,1.2,1c0.3,0.7,0.2,1.4,0.1,2c-0.1,0.7-0.5,1.4-0.8,2.2l1.6,0.7
					c0.3-0.8,0.7-1.6,0.9-2.5c0.2-1.1,0.1-2.1-0.2-3C190.9,84.2,190,83.4,188.9,83.2z M186.1,94.8c0,3-1.3,5.8-3.3,7
					c-0.4,0.2-1.1,0.6-1.4,0.4c-0.8-0.5-0.9-3.4-0.6-5.2c0.4-2.3,1.6-5.4,3.1-7.9C185.3,90.1,186.1,92.3,186.1,94.8z"/>
			</g>
			<g>
				<path class="st1" d="M108.8,89c1.5,2.5,2.7,5.6,3.1,7.9c0.3,1.8,0.2,4.7-0.6,5.2c-0.4,0.2-1.1-0.1-1.4-0.4c-2-1.2-3.3-3.9-3.3-7
					C106.5,92.3,107.3,90.1,108.8,89z"/>
				<path class="st1" d="M100,94.2c0,0,2.1,6.5,4.6,8c0,0-0.5,7.2,4.5,8c4.9,0.8,8.3-21.5,2.6-26.3c0,0-5-4-8.2-3.4
					C103.4,80.6,95.8,82,100,94.2z M101.3,85.3c0.5-1.1,1.4-1.9,2.5-2.1c0.8-0.1,1.6,0.1,2.1,0.3c3.4,1.3,7.1,8.9,7.8,13.1
					c0.1,0.9,0.7,5.6-1.4,6.9c-0.4,0.2-0.8,0.4-1.2,0.4c-0.6,0-1.3-0.2-2.1-0.7c-2.5-1.5-4.1-4.8-4.2-8.4c0-3.1,1.1-5.8,3-7.2
					c-0.9-1.2-1.8-2.1-2.6-2.4c-0.5-0.2-0.9-0.3-1.2-0.2c-0.5,0.1-0.9,0.5-1.2,1c-0.3,0.7-0.2,1.4-0.1,2c0.1,0.7,0.5,1.4,0.8,2.2
					l-1.6,0.7c-0.3-0.8-0.7-1.6-0.9-2.5C100.8,87.2,100.9,86.1,101.3,85.3z"/>
				<path class="st4" d="M101.3,85.3c-0.4,0.9-0.4,1.9-0.2,3c0.2,0.9,0.5,1.7,0.9,2.5l1.6-0.7c-0.3-0.7-0.6-1.5-0.8-2.2
					c-0.1-0.5-0.2-1.3,0.1-2c0.2-0.5,0.7-1,1.2-1c0.3,0,0.7,0,1.2,0.2c0.8,0.3,1.7,1.2,2.6,2.4c-2,1.4-3.1,4.1-3,7.2
					c0,3.7,1.6,6.9,4.2,8.4c0.8,0.5,1.4,0.7,2.1,0.7c0.5,0,0.9-0.1,1.2-0.4c2.1-1.4,1.5-6,1.4-6.9c-0.7-4.3-4.3-11.8-7.8-13.1
					c-0.5-0.2-1.3-0.4-2.1-0.3C102.7,83.4,101.7,84.2,101.3,85.3z M108.8,89c1.5,2.5,2.7,5.6,3.1,7.9c0.3,1.8,0.2,4.7-0.6,5.2
					c-0.4,0.2-1.1-0.1-1.4-0.4c-2-1.2-3.3-3.9-3.3-7C106.5,92.3,107.3,90.1,108.8,89z"/>
			</g>
		</g>
		<path class="st3" d="M146.3,144.7L146.3,144.7c-17.2,0-36.7-15.5-36.7-32.7V54.8c0-17.2,14-31.2,31.2-31.2h11.1
			c17.2,0,31.2,14,31.2,31.2v57.1C183.1,129.2,163.5,144.7,146.3,144.7z"/>
		<g>
			<path class="st10" d="M119.9,76.1c-0.6,0.2-1-0.5-0.6-0.9c2-1.9,4.4-3.1,7.1-3.4c2.7-0.3,5.4,0.3,7.8,1.6c0.5,0.3,0.2,1.1-0.4,1
				c-2.2-0.4-4.6-0.4-7.1-0.1S122,75.2,119.9,76.1z"/>
			<path class="st10" d="M173.4,76.1c0.6,0.2,1-0.5,0.6-0.9c-2-1.9-4.4-3.1-7.1-3.4s-5.4,0.3-7.8,1.6c-0.5,0.3-0.2,1.1,0.4,1
				c2.2-0.4,4.6-0.4,7.1-0.1C169.1,74.5,171.4,75.2,173.4,76.1z"/>
		</g>
		<path class="st4" d="M146.3,107.4l3.8-0.7c0.7,0,1.1-0.9,0.6-1.4l-3.8-3.8c-0.3-0.3-0.8-0.3-1.2,0l-3.8,3.8
			c-0.5,0.5-0.2,1.4,0.6,1.4L146.3,107.4z"/>
		<g>
			<g>
				<g>
					<circle class="st11" cx="129.9" cy="85.9" r="4.4"/>
				</g>
			</g>
		</g>
		<g>
			<g>
				<g>
					<circle class="st11" cx="161.6" cy="85.9" r="4.4"/>
				</g>
			</g>
		</g>
		<path class="st12" d="M198.5,59c-1.3,0-3-0.2-4.7-0.6c0-11-2.8-29.7-20.3-38.5c-5.6-2.8-27.2-9.1-41.1,0.8c0,0-0.6-3.9,0.7-4.9
			c0,0-6.3,0.7-8,7c0,0-12.6-2.8-15.6,3.1c0,0,3.5-0.4,5.4,0.9c-20.6,9.7-13.8,40.1-13.8,40.1c1.1,3.9,2.1,14.9,8.5,20.7l0.3-20.3
			c0,0,4.9-19.8,10.2-20.5c0,0,0.7,2.5,3.2,5.6c3.6,7.5,11.5,17.3,27.7,15.6c0,0-9-1.3-13.2-6.1c8.7,3,21.5,4.5,40.4,1.6
			c0,0,1.8-0.1,4.5-0.4c0.3,1,0.5,2,0.5,3c0,9.7-0.5,0.4,0,22.5c0,0,8.7-10.4,10.2-21.5c0,0,0.3-0.1,0.4-3.6
			c1.9-0.4,3.7-1.8,5.3-3.1C199.6,60,199.2,59.1,198.5,59z"/>
		<g>
			<path class="st12" d="M186.3,21.1c0,11.6-16.7,13.8-27.7,13.8c-10.9,0-11.9-2.1-11.9-13.8S155.6,0,166.5,0
				C177.5,0,186.3,9.4,186.3,21.1z"/>
			<path class="st13" d="M147.8,17c6.7-4.4,14-5.9,20.5-3.5c6.5,2.5,10.9,8.4,13,16.2c-3.7-4.5-8.9-8.3-15.1-10.7
				C160,16.7,153.6,16.1,147.8,17z"/>
		</g>
		<g>
			<path class="st4" d="M141,133.9c1.6,1.8,3.8,2.8,6.1,2.8c2.4,0,4.5-1.1,6.1-2.8c-1.7,0.8-3.9,1.2-6.1,1.2S142.8,134.7,141,133.9z
				"/>
			<path class="st4" d="M128.9,116c-1.6,1.8-2.5,4-2.3,6.3c0.2,2.4,1.4,4.4,3.3,5.9c-0.9-1.7-1.6-3.7-1.7-6
				C128,120,128.3,117.8,128.9,116z"/>
			<path class="st4" d="M165.5,116c1.6,1.8,2.5,4,2.3,6.3c-0.2,2.4-1.4,4.4-3.3,5.9c0.9-1.7,1.6-3.7,1.7-6
				C166.5,120,166.2,117.8,165.5,116z"/>
		</g>
		<g>
			<path class="st14" d="M145.8,124.5c-7.1,0-10.6-3.1-10.8-3.3l1.2-1.3l-0.6,0.6l0.6-0.6c0.1,0.1,7.3,6.4,22.4-0.2l0.7,1.6
				C153.9,123.7,149.4,124.5,145.8,124.5z"/>
		</g>
	</g>
	<g>
		<g>
			<path class="st3" d="M113.4,455.1c11.4-0.3,18.8-2.8,21.3-3.8v-0.1l-0.2-16.1l-9.7,0.7c-0.2,3.9,0,11.1-14.9,13.7
				c-2.2,0.4-4.6,0.7-6.8,1.2c-0.4,0.1-0.7,0.2-1.1,0.3C100.9,453,102.1,455.3,113.4,455.1z"/>
			<path class="st15" d="M136.1,455.1V455c0.1-0.5-0.6-4.2-0.5-4.2c0,0-0.3,0.2-0.9,0.4c0,0,0,0,0-0.1v0.1c-2.5,1-9.8,3.5-21.3,3.8
				c-11.3,0.3-12.6-2-11.5-4.1c0.3-0.1,0.7-0.2,1.1-0.3c-0.3,0-0.7,0.1-1,0.1c-0.6,0.1-1.1,0.2-1.5,0.3c-1.2,0.3-2.6,0.5-3.9,0.7
				c-3.2,0.6-6.2,1.3-6.8,4.2c-0.8,3.5,3.9,5.1,6.4,5.1c11,0.1,18.1-0.7,29-1.7l0.7,1.7l9.5-0.1
				C135.4,459.1,136.3,457.1,136.1,455.1z"/>
		</g>
		<g>
			<path class="st3" d="M149.6,455.1c11.4-0.3,18.8-2.8,21.3-3.8v-0.1v-16h-9.6c-0.2,3.9-0.4,11.7-15.3,14.3
				c-2.2,0.4-4.6,0.7-6.8,1.2c-0.4,0.1-0.7,0.2-1.1,0.3C137,453,138.3,455.3,149.6,455.1z"/>
			<path class="st15" d="M172.2,455.1V455c0.1-0.5-0.6-4.2-0.5-4.2c0,0-0.3,0.2-0.9,0.4c0,0,0,0,0-0.1v0.1c-2.5,1-9.8,3.5-21.3,3.8
				c-11.3,0.3-12.6-2-11.5-4.1c0.3-0.1,0.7-0.2,1.1-0.3c-0.3,0-0.7,0.1-1,0.1c-0.6,0.1-1.1,0.2-1.5,0.3c-1.2,0.3-2.6,0.5-3.9,0.7
				c-3.2,0.6-6.2,1.3-6.8,4.2c-0.8,3.5,3.9,5.1,6.4,5.1c11,0.1,18.1-0.7,29-1.7l0.7,1.7l9.5-0.1
				C171.5,459.1,172.5,457.1,172.2,455.1z"/>
		</g>
	</g>
	<g>
		<polygon class="st16" points="103.9,70.7 109.9,67.2 109.9,72.7 103.9,75.3 		"/>
		<polygon class="st17" points="105.3,75.8 109.9,73.1 109.9,76.2 105.3,78.3 		"/>
	</g>
	<g>
		<polygon class="st16" points="189.1,68.3 183.1,64.8 183.1,70.3 189.1,72.9 		"/>
		<polygon class="st17" points="187.7,73.4 183.1,70.7 183.1,73.8 187.7,75.9 		"/>
	</g>
	<g>
		<g class="st18">
			<path class="st19" d="M171.4,81.8c-0.5,0-1.1,0-1.6,0c-3.7,0-6.9,0.6-9.5,1.7c-2.1,0.7-4.6,2.2-7.6,1.7c-2.8-0.5-3.7-0.6-4.7-0.6
				s-1.7,0.2-4.6,0.6c-3,0.5-5.4-1-7.6-1.7c-2.5-1.1-5.7-1.7-9.5-1.7c-0.5,0-1.1,0-1.6,0c-2.2,0-8.9,0.5-21.7,5.1v3.3
				c0,0,1.6,0.5,1.8,2.7c0.8,9.2,2.1,12,3.2,14.1c0.3,0.6,0.6,1.1,0.9,1.6v-0.1c0.7,1,1.4,1.9,2.2,2.7c3,2.8,7.3,4.3,12.3,4.3
				c0.4,0,0.9,0,1.3,0c5.1-0.3,10.5-3.4,14.1-8.1c2-2.7,5.1-7.9,5.1-17.2c0,0,0.5-2,4.1-2s4.1,2,4.1,2c0,9.3,3,14.6,5.1,17.2
				c3.6,4.7,9,7.9,14.1,8.1c0.4,0,0.9,0,1.3,0c5,0,9.3-1.5,12.3-4.3c0.8-0.8,1.6-1.7,2.2-2.7v0.1c0.3-0.5,0.6-1,0.9-1.6
				c1.1-2.1,2.4-4.9,3.2-14.1c0.2-2.2,1.8-2.7,1.8-2.7v-3.3C180.3,82.3,173.6,81.8,171.4,81.8z M124.7,113.6
				c-8.8,0.4-17-3.7-17.4-17.7c0,0,0-6.9,5.8-9.9c4.4-2.3,25.2-6,27.8,5.6C143.5,103.3,133.4,113.2,124.7,113.6z M171.5,113.6
				c-8.6-0.4-18.7-10.3-16.2-22c2.6-11.6,23.3-7.9,27.8-5.6c5.8,3,5.8,9.9,5.8,9.9C188.5,110,180.3,114.1,171.5,113.6z"/>
		</g>
		<g>
			<path class="st19" d="M171.4,78.5c-0.5,0-1.1,0-1.6,0c-3.7,0-6.9,0.6-9.5,1.7c-2.1,0.7-4.6,2.2-7.6,1.7c-2.8-0.5-3.7-0.6-4.7-0.6
				s-1.7,0.2-4.6,0.6c-3,0.5-5.4-1-7.6-1.7c-2.5-1.1-5.7-1.7-9.5-1.7c-0.5,0-1.1,0-1.6,0c-2.2,0-8.9,0.5-21.7,5.1v3.3
				c0,0,1.6,0.5,1.8,2.7c0.8,9.2,2.1,12,3.2,14.1c0.3,0.6,0.6,1.1,0.9,1.6v-0.1c0.7,1,1.4,1.9,2.2,2.7c3,2.8,7.3,4.3,12.3,4.3
				c0.4,0,0.9,0,1.3,0c5.1-0.3,10.5-3.4,14.1-8.1c2-2.7,5.1-7.9,5.1-17.2c0,0,0.5-2,4.1-2s4.1,2,4.1,2c0,9.3,3,14.6,5.1,17.2
				c3.6,4.7,9,7.9,14.1,8.1c0.4,0,0.9,0,1.3,0c5,0,9.3-1.5,12.3-4.3c0.8-0.8,1.6-1.7,2.2-2.7v0.1c0.3-0.5,0.6-1,0.9-1.6
				c1.1-2.1,2.4-4.9,3.2-14.1c0.2-2.2,1.8-2.7,1.8-2.7v-3.3C180.3,78.9,173.6,78.5,171.4,78.5z M124.7,110.3
				c-8.8,0.4-17-3.7-17.4-17.7c0,0,0-6.9,5.8-9.9c4.4-2.3,25.2-6,27.8,5.6C143.5,99.9,133.4,109.8,124.7,110.3z M171.5,110.3
				c-8.6-0.4-18.7-10.3-16.2-22c2.6-11.6,23.3-7.9,27.8-5.6c5.8,3,5.8,9.9,5.8,9.9C188.5,106.6,180.3,110.7,171.5,110.3z"/>
		</g>
	</g>
	<g>
		<g class="st18">
			<path class="st19" d="M171.4,81.8c-0.5,0-1.1,0-1.6,0c-3.7,0-6.9,0.6-9.5,1.7c-2.1,0.7-4.6,2.2-7.6,1.7c-2.8-0.5-3.7-0.6-4.7-0.6
				s-1.7,0.2-4.6,0.6c-3,0.5-5.4-1-7.6-1.7c-2.5-1.1-5.7-1.7-9.5-1.7c-0.5,0-1.1,0-1.6,0c-2.2,0-8.9,0.5-21.7,5.1v3.3
				c0,0,1.6,0.5,1.8,2.7c0.8,9.2,2.1,12,3.2,14.1c0.3,0.6,0.6,1.1,0.9,1.6v-0.1c0.7,1,1.4,1.9,2.2,2.7c3,2.8,7.3,4.3,12.3,4.3
				c0.4,0,0.9,0,1.3,0c5.1-0.3,10.5-3.4,14.1-8.1c2-2.7,5.1-7.9,5.1-17.2c0,0,0.5-2,4.1-2s4.1,2,4.1,2c0,9.3,3,14.6,5.1,17.2
				c3.6,4.7,9,7.9,14.1,8.1c0.4,0,0.9,0,1.3,0c5,0,9.3-1.5,12.3-4.3c0.8-0.8,1.6-1.7,2.2-2.7v0.1c0.3-0.5,0.6-1,0.9-1.6
				c1.1-2.1,2.4-4.9,3.2-14.1c0.2-2.2,1.8-2.7,1.8-2.7v-3.3C180.3,82.3,173.6,81.8,171.4,81.8z M124.7,113.6
				c-8.8,0.4-17-3.7-17.4-17.7c0,0,0-6.9,5.8-9.9c4.4-2.3,25.2-6,27.8,5.6C143.5,103.3,133.4,113.2,124.7,113.6z M171.5,113.6
				c-8.6-0.4-18.7-10.3-16.2-22c2.6-11.6,23.3-7.9,27.8-5.6c5.8,3,5.8,9.9,5.8,9.9C188.5,110,180.3,114.1,171.5,113.6z"/>
		</g>
		<g>
			<path class="st20" d="M171.4,78.5c-0.5,0-1.1,0-1.6,0c-3.7,0-6.9,0.6-9.5,1.7c-2.1,0.7-4.6,2.2-7.6,1.7c-2.8-0.5-3.7-0.6-4.7-0.6
				s-1.7,0.2-4.6,0.6c-3,0.5-5.4-1-7.6-1.7c-2.5-1.1-5.7-1.7-9.5-1.7c-0.5,0-1.1,0-1.6,0c-2.2,0-8.9,0.5-21.7,5.1v3.3
				c0,0,1.6,0.5,1.8,2.7c0.8,9.2,2.1,12,3.2,14.1c0.3,0.6,0.6,1.1,0.9,1.6v-0.1c0.7,1,1.4,1.9,2.2,2.7c3,2.8,7.3,4.3,12.3,4.3
				c0.4,0,0.9,0,1.3,0c5.1-0.3,10.5-3.4,14.1-8.1c2-2.7,5.1-7.9,5.1-17.2c0,0,0.5-2,4.1-2s4.1,2,4.1,2c0,9.3,3,14.6,5.1,17.2
				c3.6,4.7,9,7.9,14.1,8.1c0.4,0,0.9,0,1.3,0c5,0,9.3-1.5,12.3-4.3c0.8-0.8,1.6-1.7,2.2-2.7v0.1c0.3-0.5,0.6-1,0.9-1.6
				c1.1-2.1,2.4-4.9,3.2-14.1c0.2-2.2,1.8-2.7,1.8-2.7v-3.3C180.3,78.9,173.6,78.5,171.4,78.5z M124.7,110.3
				c-8.8,0.4-17-3.7-17.4-17.7c0,0,0-6.9,5.8-9.9c4.4-2.3,25.2-6,27.8,5.6C143.5,99.9,133.4,109.8,124.7,110.3z M171.5,110.3
				c-8.6-0.4-18.7-10.3-16.2-22c2.6-11.6,23.3-7.9,27.8-5.6c5.8,3,5.8,9.9,5.8,9.9C188.5,106.6,180.3,110.7,171.5,110.3z"/>
		</g>
	</g>
	<g>
		<g>
			<path class="st21" d="M200.5,60.1c-4.9,0.4-9.8,0.1-14.7-0.5c-4.9-0.7-9.7-1.8-14.3-3.5c-2.3-0.8-4.6-1.8-6.7-3
				c-2.2-1.1-4.3-2.4-6.3-3.8c-2-1.4-3.9-3-5.6-4.8c-1.7-1.7-3.3-3.7-4.7-5.6c3.1,3.8,6.7,7.1,10.7,9.8s8.4,4.9,12.9,6.5
				c4.5,1.7,9.3,2.9,14.1,3.7c2.4,0.4,4.8,0.7,7.2,0.9C195.6,60,198.1,60.1,200.5,60.1z"/>
		</g>
		<g>
			<path class="st21" d="M186.5,60c-4.9,0.4-9.8,0.1-14.7-0.5c-4.9-0.7-9.7-1.8-14.3-3.5c-2.3-0.8-4.6-1.8-6.7-3
				c-2.2-1.1-4.3-2.4-6.3-3.8c-2-1.4-3.9-3-5.6-4.8c-1.7-1.7-3.3-3.7-4.7-5.6c3.1,3.8,6.7,7.1,10.7,9.8s8.4,4.9,12.9,6.5
				c4.5,1.7,9.3,2.9,14.1,3.7c2.4,0.4,4.8,0.7,7.2,0.9C181.6,59.9,184,60,186.5,60z"/>
		</g>
	</g>
</g>
</svg>
