<?xml version="1.0" encoding="utf-8"?>
<!-- Generator: Adobe Illustrator 22.1.0, SVG Export Plug-In . SVG Version: 6.00 Build 0)  -->
<svg version="1.1" id="Layer_1" xmlns="http://www.w3.org/2000/svg" xmlns:xlink="http://www.w3.org/1999/xlink" x="0px" y="0px"
	 viewBox="0 0 254.4 470.8" style="enable-background:new 0 0 254.4 470.8;" xml:space="preserve">
<style type="text/css">
	.st0{fill:#4C5258;}
	.st1{fill:#787986;}
	.st2{fill:#6E7377;}
	.st3{fill:#E0E1DD;}
	.st4{fill:#CACBCD;}
	.st5{fill:#C8CAC7;}
	.st6{fill:#929497;}
	.st7{fill:#A4A6A4;}
	.st8{fill:#F0D0B3;}
	.st9{fill:#A87C4F;}
	.st10{fill:#C3996B;}
	.st11{fill:#F1F1F2;}
	.st12{fill:#EBC19C;}
	.st13{fill:#E6E7E8;}
	.st14{clip-path:url(#SVGID_2_);}
	.st15{opacity:0.62;}
	.st16{fill:#CFBCBB;}
	.st17{fill:#C9D4E8;}
	.st18{opacity:0.55;fill:#BBBDBF;enable-background:new    ;}
	.st19{fill:#BBBDBF;}
	.st20{fill:#F5E0CD;}
	.st21{fill:#808184;}
	.st22{fill:#58595B;}
	.st23{opacity:0.25;}
	.st24{fill:#757E84;}
	.st25{fill:#8A5D3B;}
	.st26{fill:#9A1420;}
	.st27{fill:#BE1E2D;}
	.st28{fill:#754C28;}
</style>
<g>
	<path class="st0" d="M168.2,391.2c-1.9-6.2,1.6-12.7,7.8-14.6s12.7,1.6,14.6,7.8c0.6,2,0.6,4.1,0.2,6c-5.7,0.3-18.3,0.9-22.3,1.7
		C168.4,391.8,168.3,391.5,168.2,391.2z"/>
	<path class="st1" d="M182.4,397.8c-5.4,1.6-11.1-1.2-13.1-6.4c3.7-0.7,15.2-1.3,20.4-1.5C188.9,393.5,186.2,396.6,182.4,397.8z"/>
</g>
<rect x="127.1" y="321.9" class="st0" width="16" height="99.1"/>
<path class="st0" d="M204.2,428.5L72.1,417.1c-2.4-0.2-4.3-2.4-4-4.8l0,0c0.2-2.4,2.4-4.3,4.8-4L205,419.6c2.4,0.2,4.3,2.4,4,4.8
	l0,0C208.8,426.9,206.7,428.7,204.2,428.5z"/>
<path class="st0" d="M181.2,385.3l-87.8,71.9c-1.9,1.6-4.7,1.3-6.3-0.6l0,0c-1.6-1.9-1.3-4.7,0.6-6.3l87.8-71.9
	c1.9-1.6,4.7-1.3,6.3,0.6l0,0C183.4,381,183.1,383.8,181.2,385.3z"/>
<g>
	<polygon class="st2" points="60,330.5 62.3,330.3 62.2,328.9 	"/>
	<polygon class="st2" points="59.9,280 57.6,280.1 60,330.5 62.2,328.9 	"/>
	<polygon class="st0" points="71.9,279.4 69.6,279.5 71.6,322.3 62.2,328.9 62.3,330.3 73.9,322.2 	"/>
	<polygon class="st0" points="71.6,322.3 69.6,279.5 59.9,280 62.2,328.9 	"/>
</g>
<g>
	<polygon class="st3" points="221.8,304.9 86.4,297.3 118.9,123.5 229.9,127.3 	"/>
	<polygon class="st4" points="221.8,292.5 229.9,127.3 239.1,135.3 228.9,313.4 221.8,317.3 	"/>
</g>
<polygon class="st5" points="86.4,297.3 39.2,332.4 164.9,346.5 221.8,304.9 "/>
<polygon class="st6" points="221.8,317.3 166.6,356.9 164.9,346.5 221.8,304.9 "/>
<polygon class="st6" points="165,346.4 166.6,356.9 45.7,341.4 39.2,332.4 "/>
<g>
	<polygon class="st2" points="191.7,339.7 193.9,339.6 193.9,338.1 	"/>
	<polygon class="st2" points="191.6,289.2 189.3,289.3 191.7,339.7 193.9,338.1 	"/>
	<polygon class="st0" points="203.5,288.7 201.3,288.8 203.3,331.5 193.9,338.1 193.9,339.6 205.6,331.4 	"/>
	<polygon class="st0" points="203.3,331.5 201.3,288.8 191.6,289.2 193.9,338.1 	"/>
</g>
<g>
	<polygon class="st5" points="70.4,265.5 24.2,299.8 38.3,302 91.6,266.5 	"/>
	<polygon class="st5" points="70.6,261.3 24.4,295.7 38.4,297.9 91.7,262.4 	"/>
	<polygon class="st7" points="24.4,295.7 24.2,299.8 38.3,302 38.4,297.9 	"/>
	<polygon class="st7" points="91.7,262.4 91.6,266.5 38.3,302 38.4,297.9 	"/>
</g>
<g>
	<path class="st0" d="M81.6,419.9c0-6.5-5.2-11.7-11.7-11.7s-11.7,5.2-11.7,11.7c0,2.1,0.6,4.1,1.5,5.8c5.5-1.4,17.7-4.5,21.8-4.9
		C81.6,420.4,81.6,420.1,81.6,419.9z"/>
	<path class="st1" d="M69.9,430.3c5.6,0,10.2-4.4,10.6-9.9c-3.7,0.4-14.9,3.2-19.9,4.5C62.4,428.1,65.9,430.3,69.9,430.3z"/>
</g>
<g>
	<path class="st0" d="M190.5,430.9c0-6.5,5.2-11.7,11.7-11.7s11.7,5.2,11.7,11.7c0,2.1-0.6,4.1-1.5,5.8c-5.5-1.4-17.7-4.5-21.8-4.9
		C190.5,431.5,190.5,431.2,190.5,430.9z"/>
	<path class="st1" d="M202.2,441.3c-5.6,0-10.2-4.4-10.6-9.9c3.7,0.4,14.9,3.2,19.9,4.5C209.7,439.2,206.2,441.3,202.2,441.3z"/>
</g>
<g>
	<path class="st0" d="M81.6,461.4c-0.6-6.4,4.1-12.1,10.6-12.7s12.1,4.1,12.7,10.6c0.2,2.1-0.2,4.1-1,5.9
		c-5.7-0.9-18.1-2.8-22.2-2.9C81.7,462,81.7,461.7,81.6,461.4z"/>
	<path class="st1" d="M94.2,470.7c-5.6,0.5-10.6-3.4-11.5-8.9c3.8,0.1,15.1,1.8,20.3,2.6C101.5,467.9,98.2,470.4,94.2,470.7z"/>
</g>
<g>
	
		<rect x="41.4" y="424" transform="matrix(0.9993 -3.681884e-02 3.681884e-02 0.9993 -15.7711 1.9883)" class="st8" width="9.4" height="10.4"/>
	<g>
		<g>
			<g>
				<polygon class="st9" points="54.2,456.2 38.9,456.7 38.8,453.4 15.9,457.6 0.4,458.1 0,446.3 39.5,432.5 53.3,432 				"/>
			</g>
		</g>
	</g>
</g>
<path class="st10" d="M108.8,253c5.1-4,15.5-5.3,23-2.8l41.8,13.7c7.6,2.5,15.2,9.6,16.9,15.9s-9.4,33.7-14.6,38.5l-19.8,6.9
	c-5.3,4.8-10.5,1.9-18.1-0.6l-13.5-4.4c-7.6-2.5-14.9-10.2-16.4-17.2l-10.3-10C96.5,286.1,103.7,257,108.8,253z"/>
<g>
	<path class="st10" d="M154.2,327.3c-13.6,1.2-27.1,2.4-40.4,4c-6.7,0.8-13.3,1.7-19.9,2.7s-13.1,2.2-19.1,3.9
		c-2,0.5-3.8,1.1-5.5,1.7l-1.6,0.7c-0.2,0.1-0.5,0.3-1,0.8c-0.8,0.9-1.8,2.3-2.7,3.9c-0.9,1.6-1.7,3.4-2.4,5.3
		c-1.5,3.7-2.7,7.7-3.8,11.9c-1.1,4.1-2,8.3-2.8,12.6c-1.6,8.5-2.6,17.2-3.3,25.8c-0.6,8.7-0.9,17.4-0.4,26l-10.1,0.9
		c-1.1-9.2-1.4-18.3-1.4-27.4c0.1-9.1,0.6-18.3,1.7-27.4c0.6-4.6,1.2-9.1,2.1-13.7c0.9-4.6,2-9.2,3.5-13.8c1.6-4.7,3.3-9.4,7.3-14.4
		c1-1.3,2.3-2.5,3.9-3.7c0.4-0.3,0.9-0.6,1.3-0.9l0.3-0.2l0.2-0.1l0.5-0.2c0.6-0.3,1.3-0.7,1.9-1c1.2-0.5,2.4-1.1,3.6-1.5l1.8-0.7
		l1.7-0.6c7-2.4,13.9-4,20.7-5.6c6.8-1.5,13.6-2.9,20.4-4.1c13.6-2.5,27.2-4.6,40.7-6.7l0,0c6.8-1,13.2-0.6,17.9,0.8
		s7.8,3.9,8.3,7.1s-2,6.5-6.3,9C167.1,324.8,161,326.7,154.2,327.3z"/>
</g>
<g>
	
		<rect x="80.1" y="365.1" transform="matrix(0.579 -0.8153 0.8153 0.579 -266.163 225.0542)" class="st8" width="9.4" height="10.4"/>
	<g>
		<g>
			<g>
				<polygon class="st9" points="111.1,380.3 102.2,392.7 99.5,390.8 88.9,411.5 79.9,424.2 70.2,417.3 83.3,377.6 91.4,366.3 				
					"/>
			</g>
		</g>
	</g>
</g>
<g>
	<path class="st10" d="M112.2,310.4c-13.4,1-26.7,2-40,3.3c-6.6,0.7-13.2,1.4-19.7,2.3s-13,1.9-19.2,3.2l-3,0.7l-2.9,0.8
		c-0.9,0.3-1.9,0.5-2.7,0.8l-1.3,0.4l-1.1,0.5l-0.5,0.2c0,0-0.1,0,0,0c0,0,0.3-0.2,0.6-0.7c0.4-0.5,0.8-1.4,0.9-2.4s-0.1-1.7-0.2-2
		s-0.2-0.3-0.2-0.3c0,0.1,0.1,0.3,0.3,0.5c0.3,0.5,0.9,1.1,1.5,1.7c2.5,2.5,5.9,5.1,9.3,7.7c3.4,2.5,7,5,10.6,7.5
		c14.4,10,29.1,20.2,42.9,31.6l-6.4,8.3C67,364.3,52.2,355.4,37,346.3c-3.8-2.3-7.6-4.6-11.4-7c-3.8-2.5-7.6-4.9-11.6-8.4
		c-1-0.9-2-1.9-3.1-3.1c-1-1.3-2.2-2.7-3.2-5.4c-0.5-1.4-0.8-3.2-0.5-5.2c0.1-1,0.4-2,0.8-3c0.2-0.4,0.4-0.9,0.7-1.3
		c0.2-0.4,0.5-0.7,0.8-1.1c1-1.3,2.2-2.3,3.1-2.9c0.5-0.4,0.9-0.6,1.4-0.9l0.3-0.2l0.2-0.1l0.5-0.2l1.9-0.9l1.8-0.8
		c1.2-0.5,2.3-0.9,3.5-1.3l3.4-1.1l3.4-1c6.9-1.9,13.6-3.5,20.4-4.8c6.7-1.4,13.5-2.6,20.2-3.7c13.4-2.2,26.9-4.2,40.2-6l0,0
		c6.8-0.9,13-0.4,17.7,1.1c4.6,1.6,7.7,4.1,8.1,7.5c0.5,3.3-2,6.6-6.3,9.2C125,308.1,118.9,309.9,112.2,310.4z"/>
</g>
<g>
	<g>
		<g>
			<path class="st8" d="M100.6,93.6C100.6,93.6,100.6,93.5,100.6,93.6c0,0.3,0.1,0.5,0.1,0.8c0,0.5-0.1,0.8-0.1,1.2
				c-0.1,0.4-0.2,0.5-0.2,0.7"/>
			<path class="st8" d="M107,111.7c5.6,11.8,12.6,23.2,20.1,34.3c3.7,5.4,4,11.6,0.6,14l-0.8,0.6c-3.4,2.4-9.3-0.3-12.9-6.1
				c-7.3-11.9-14-24.1-19.5-37.3c-2.7-6.6-5.1-13.4-6.3-21.1l-0.1-0.4v-0.2c0-0.3-0.1-0.7-0.1-1c0-0.8,0.1-1.3,0.2-1.8
				c0.1-0.3,0.1-0.6,0.2-0.8c0.1-0.2,0.2-0.4,0.2-0.6c0.7-1.5,1.3-2.2,1.9-2.8c1.1-1.2,2-1.8,2.9-2.5c1.8-1.2,3.4-2.1,5-3
				c3.3-1.7,6.5-3.2,9.7-4.6c6.3-2.8,12.7-5.3,19.1-7.8l4.9-1.3l3.8,10l-4.6,1.6c-6.2,2.6-12.3,5.2-18.3,8.1c-3,1.5-5.9,3-8.6,4.6
				c-1.3,0.8-2.6,1.6-3.6,2.4L107,111.7z"/>
			<path class="st8" d="M142.4,75.7c-2.8,1-5.6,2.1-8.4,3.1l-2.6-6.8c2.8-1.1,5.7-2.1,8.5-3.2L142.4,75.7z"/>
		</g>
		<path class="st11" d="M107,109.8c5.6,11.8,14,25.4,21.5,36.4c3.7,5.4,0.6,10-2.8,12.5l-0.8,0.6c-3.4,2.4-9.3-0.3-12.9-6.1
			c-7.3-11.9-14-24.1-19.5-37.3c-2.7-6.6-5.1-13.4-6.3-21.1l-0.1-0.4v-0.2c0-0.3-0.1-0.7-0.1-1c0-0.8,0.1-1.3,0.2-1.8
			c0.1-0.3,0.1-0.6,0.2-0.8c0.1-0.2,0.2-0.4,0.2-0.6c0.7-1.5,1.3-2.2,1.9-2.8c1.1-1.2,2-1.8,2.9-2.5c1.8-1.2,3.4-2.1,5-3
			c3.3-1.7,6.5-3.2,9.7-4.6c6.3-2.8,12.7-5.3,19.1-7.8l7.5-2.7l5,13.4l-7.2,3c-6.2,2.6-12.3,5.2-18.3,8.1c-3,1.5-5.9,3-8.6,4.6
			c-1.3,0.8-0.7,0.3-1.7,1L107,109.8z"/>
	</g>
	<g>
		<path class="st8" d="M161.8,78.1c-6,4.7-14.7,3.7-19.4-2.3s-3.7-14.7,2.3-19.4s14.7-3.7,19.4,2.3
			C168.9,64.7,167.8,73.4,161.8,78.1z"/>
		<path class="st8" d="M157.1,80.4l16.6-4.5c2.1-0.6,3.3-2.7,2.7-4.8c-0.6-2.1-2.7-3.3-4.8-2.7L155,72.8L157.1,80.4z"/>
		<path class="st8" d="M166.4,67.7l4.9-23.4c0.4-2.1-0.9-4.2-3-4.6c-2.1-0.4-4.2,0.9-4.6,3l-4.9,23.4L166.4,67.7z"/>
		<path class="st8" d="M160.2,63.2l4.9-23.4c0.4-2.1-0.9-4.2-3-4.6c-2.1-0.4-4.2,0.9-4.6,3l-4.9,23.4L160.2,63.2z"/>
		<path class="st8" d="M153.7,65.5l4.9-23.4c0.4-2.1-0.9-4.2-3-4.6c-2.1-0.4-4.2,0.9-4.6,3l-4.9,23.4L153.7,65.5z"/>
		<path class="st8" d="M146.5,65.7l3.9-19c0.4-1.7-0.7-3.4-2.4-3.7c-1.7-0.4-3.3,0.7-3.7,2.4l-3.9,19L146.5,65.7z"/>
		<g>
			<path class="st12" d="M161.3,57.7c0.7-4,1.4-8,2.1-12c0.4-2,0.7-4,1.1-6c0.2-0.9,0.1-1.8-0.4-2.6c-0.4-0.8-1.2-1.5-2.2-1.8
				c0,0,0,0,0-0.1c0,0,0,0,0.1,0c1,0.1,2.1,0.6,2.7,1.5c0.7,0.9,1,2.1,0.8,3.2c-0.3,2-0.9,4-1.3,6C163.3,49.8,162.3,53.7,161.3,57.7
				C161.4,57.7,161.3,57.7,161.3,57.7L161.3,57.7z"/>
		</g>
		<g>
			<path class="st12" d="M155.6,56.4c0.6-3.4,1.2-6.8,1.8-10.2l0.4-2.6l0.2-1.3c0.1-0.4,0.2-0.8,0.2-1.2c0-1.5-1-3-2.6-3.6
				c0,0,0,0,0-0.1l0,0c1.8,0.1,3.5,1.7,3.6,3.7c0,1-0.3,1.8-0.4,2.7l-0.6,2.5C157.3,49.7,156.5,53,155.6,56.4
				C155.7,56.4,155.7,56.4,155.6,56.4L155.6,56.4z"/>
		</g>
		<g>
			<path class="st12" d="M148.1,57.9c0.4-2.7,0.9-5.4,1.3-8.1l0.3-2l0.2-1c0.1-0.3,0.1-0.6,0.1-0.9c0-1.2-0.7-2.3-2-2.9
				c0,0,0,0,0-0.1l0,0c1.4,0,2.9,1.3,3,2.9c0,0.4,0,0.8-0.1,1.1l-0.2,1l-0.5,2C149.6,52.7,148.9,55.3,148.1,57.9
				C148.2,58,148.2,58,148.1,57.9C148.1,58,148.1,58,148.1,57.9z"/>
		</g>
		<g>
			<path class="st12" d="M166.4,67.7c0.9-4.9,1.8-9.9,2.7-14.8c0.5-2.5,0.9-4.9,1.4-7.4c0.1-0.6,0.3-1.3,0.4-1.8
				c0.1-0.6,0-1.1-0.2-1.7c-0.4-1.1-1.3-2-2.5-2.4c0,0,0,0,0-0.1c0,0,0,0,0.1,0c0.6,0.1,1.3,0.3,1.8,0.7s1,0.9,1.3,1.5
				s0.4,1.3,0.4,2c-0.1,0.7-0.2,1.3-0.3,1.9c-0.4,2.5-1.1,4.9-1.6,7.3C168.8,57.9,167.6,62.8,166.4,67.7
				C166.5,67.7,166.4,67.7,166.4,67.7L166.4,67.7z"/>
		</g>
		<g>
			<path class="st12" d="M152.7,72.6c0.3-0.4,0.6-0.8,0.9-1.2c0.4-0.3,0.7-0.7,1.1-1c0.8-0.7,1.7-1.1,2.7-1.5c1-0.3,2-0.5,3.1-0.3
				c1,0.2,2,0.6,2.8,1.2v0.1l0,0l0,0c-1-0.2-1.9-0.3-2.8-0.3c-0.9,0-1.8-0.1-2.8,0.1c-0.9,0.2-1.8,0.5-2.6,1.1
				c-0.4,0.2-0.8,0.6-1.2,0.8C153.5,72,153.1,72.3,152.7,72.6L152.7,72.6C152.8,72.7,152.7,72.7,152.7,72.6L152.7,72.6z"/>
		</g>
	</g>
</g>
<g>
	<polygon class="st6" points="227.9,66 217.8,60.3 216.8,66.5 227.1,71.2 	"/>
	<polygon class="st13" points="226.8,72.8 216.7,67 215.9,71.6 226.2,76.3 	"/>
</g>
<g>
	<g>
		<path class="st8" d="M240.3,122.3C240.3,122.3,240.3,122.2,240.3,122.3c-0.2,0.2-0.3,0.4-0.4,0.7c-0.2,0.5-0.3,0.8-0.3,1.1
			c-0.1,0.4-0.1,0.6-0.1,0.8"/>
		<path class="st8" d="M227.1,136.3c-9.9,8.5-20.9,16.2-32.2,23.2c-5.5,3.4-8.4,8.9-6.2,12.5l0.5,0.8c2.1,3.6,8.6,3.5,14.3-0.4
			c11.5-7.9,22.6-16.4,32.9-26.2c5.1-4.9,10.1-10.2,14.3-16.8l0.2-0.3l0.1-0.2c0.2-0.3,0.3-0.6,0.5-0.9c0.3-0.7,0.4-1.2,0.5-1.7
			c0-0.3,0.1-0.6,0.1-0.8c0-0.2,0-0.4,0-0.6c0-1.6-0.3-2.5-0.6-3.3c-0.5-1.5-1.1-2.5-1.7-3.4c-1.1-1.8-2.2-3.3-3.4-4.8
			c-2.3-2.9-4.6-5.5-7-8.1c-4.7-5.1-9.5-10-14.3-14.8l-3.9-3.1l-7.6,7.6l3.6,3.3c4.6,4.8,9.2,9.8,13.5,14.8c2.1,2.5,4.2,5.1,6,7.7
			c0.9,1.3,1.8,2.6,2.4,3.7L227.1,136.3z"/>
		<path class="st8" d="M209.3,89.1c2.1,2.1,4.3,4.2,6.4,6.3l5.1-5.2c-2.2-2.1-4.3-4.3-6.5-6.4L209.3,89.1z"/>
	</g>
	<path class="st11" d="M227.8,134.6c-9.9,8.5-23,17.5-34.4,24.6c-5.5,3.4-4.6,8.9-2.5,12.5l0.5,0.8c2.1,3.6,8.6,3.5,14.3-0.4
		c11.5-7.9,22.6-16.4,32.9-26.2c5.1-4.9,10.1-10.2,14.3-16.8l0.2-0.3l0.1-0.2c0.2-0.3,0.3-0.6,0.5-0.9c0.3-0.7,0.4-1.2,0.5-1.7
		c0-0.3,0.1-0.6,0.1-0.8c0-0.2,0-0.4,0-0.6c0-1.6-0.3-2.5-0.6-3.3c-0.5-1.5-1.1-2.5-1.7-3.4c-1.1-1.8-2.2-3.3-3.4-4.8
		c-2.3-2.9-4.6-5.5-7-8.1c-4.7-5.1-9.5-10-14.3-14.8l-5.7-5.5l-9.9,10.2l5.4,5.7c4.6,4.8,9.2,9.8,13.5,14.8c2.1,2.5,4.2,5.1,6,7.7
		c0.9,1.3,0.5,0.5,1.1,1.6L227.8,134.6z"/>
	<g>
		<g>
			<path class="st8" d="M196.5,98.8c-3.9-0.2-6.9-1.9-8.3-5.1c-0.3-0.7-0.5-1.5-0.7-2.4c-1.2-0.2-2.3-0.6-3.2-1.2
				c-2.1-1.4-3.4-3.8-3.8-6.5c-0.2-1.4,0.2-4,1.7-5.3c0.3-1.1,0.8-2.2,1.4-3.3c0.3-1,0.9-1.9,1.8-2.7c0.8-0.7,1.8-1.2,3.1-1.7
				l0.3,0.4c0.3-1.8,1.4-3.4,3.5-4.3c2.2-0.9,3.6-0.6,3.6-0.6l0.1,0.3c0.4-0.6,1-1.1,1.8-1.5c1.6-0.9,8.5-2,13.7,1.6
				c0.1,0.1,0.3,0.2,0.4,0.3c1.7,1.3,3,2.7,3.7,4c4.2,7.6,0.9,17.4-6.2,22.3C206.4,95.9,201.2,99,196.5,98.8z"/>
			<path class="st8" d="M211.6,89.7c-0.2,2.7-8.4,9.4-15.3,9.1c-5.1-0.2-8.7-3.1-9-8.4c-0.4-5.3,5.3-8.5,8.4-2.5
				c2.9-1.8,6.6-3,9.2-2.7L211.6,89.7z"/>
		</g>
	</g>
</g>
<path class="st11" d="M162.5,146.7L162.5,146.7c0-0.1-0.2-0.1-0.5-0.1c-0.3-0.1-0.5-0.1-0.5-0.1v0.1c-5.6-0.4-32.8-7.7-43.2,6.2
	c0,0,3,20.3,4.6,25.7L103,266.2c0,0,23.5,29.5,32.6,30.2c8.9,2.2,56-7.2,56-7.2l-2.4-100.1c3.2-4.6,12.2-23,12.2-23
	C196.2,149.4,167.9,148.1,162.5,146.7z"/>
<g>
	<g>
		<defs>
			<path id="SVGID_1_" d="M189,194.5c-0.2-0.1-0.4-0.2-0.7-0.3c-17.6-7.9,6.1-37.5,6.1-37.5s0.1,0,0.2-0.1
				c-4.5-3.4-10.3-5.5-15.7-6.9c0,0.1,0,0.3,0,0.4c-1.8,17.4-22.8,28-22.8,28s-17-16.7-13.3-33.8c0-0.1,0-0.1,0-0.2
				c-5-0.2-10.3,0.2-14.9,1.8c0,0,13.3,35.6-5.9,37.5L103.3,266c0,0,23.2,29.5,32.3,30.2c8.9,2.2,56-7.2,56-7.2L189,194.5z"/>
		</defs>
		<clipPath id="SVGID_2_">
			<use xlink:href="#SVGID_1_"  style="overflow:visible;"/>
		</clipPath>
		<g class="st14">
			<g>
				<g class="st15">
					
						<rect x="29.5" y="148.5" transform="matrix(0.8105 -0.5858 0.5858 0.8105 -67.9078 97.1705)" class="st16" width="173.4" height="10.1"/>
				</g>
				<g class="st15">
					
						<rect x="41" y="164.5" transform="matrix(0.8105 -0.5858 0.5858 0.8105 -75.1094 106.9579)" class="st16" width="173.4" height="10.1"/>
				</g>
				<g class="st15">
					
						<rect x="52.6" y="180.4" transform="matrix(0.8105 -0.5858 0.5858 0.8105 -82.2251 116.732)" class="st16" width="173.4" height="10.1"/>
				</g>
				<g class="st15">
					
						<rect x="64.1" y="196.4" transform="matrix(0.8105 -0.5858 0.5858 0.8105 -89.4269 126.5195)" class="st16" width="173.4" height="10.1"/>
				</g>
			</g>
			<g>
				<g class="st15">
					
						<rect x="76" y="212.8" transform="matrix(0.8105 -0.5858 0.5858 0.8105 -96.7832 136.5824)" class="st16" width="173.4" height="10.1"/>
				</g>
				<g class="st15">
					
						<rect x="87.5" y="228.8" transform="matrix(0.8105 -0.5858 0.5858 0.8105 -103.9849 146.3698)" class="st16" width="173.4" height="10.1"/>
				</g>
				<g class="st15">
					
						<rect x="99.1" y="244.8" transform="matrix(0.8105 -0.5858 0.5858 0.8105 -111.1369 156.1935)" class="st16" width="173.4" height="10.1"/>
				</g>
				<g class="st15">
					
						<rect x="110.6" y="260.8" transform="matrix(0.8105 -0.5858 0.5858 0.8105 -118.3387 165.981)" class="st16" width="173.4" height="10.1"/>
				</g>
			</g>
			<g>
				<g>
					
						<rect x="142.8" y="128.8" transform="matrix(0.8105 -0.5858 0.5858 0.8105 -104.0721 129.3036)" class="st17" width="10" height="193.4"/>
				</g>
				<g>
					
						<rect x="128" y="139.4" transform="matrix(0.8105 -0.5858 0.5858 0.8105 -113.1194 122.6464)" class="st17" width="10" height="193.4"/>
				</g>
				<g>
					
						<rect x="113.3" y="150.1" transform="matrix(0.8105 -0.5858 0.5858 0.8105 -122.1533 116.0752)" class="st17" width="10" height="193.4"/>
				</g>
				<g>
					
						<rect x="98.6" y="160.7" transform="matrix(0.8105 -0.5858 0.5858 0.8105 -131.151 109.4543)" class="st17" width="10" height="193.4"/>
				</g>
			</g>
			<g>
				<g>
					
						<rect x="202.9" y="85.4" transform="matrix(0.8105 -0.5858 0.5858 0.8105 -67.2485 156.2973)" class="st17" width="10" height="193.4"/>
				</g>
				<g>
					
						<rect x="188.1" y="96" transform="matrix(0.8105 -0.5858 0.5858 0.8105 -76.2958 149.6401)" class="st17" width="10" height="193.4"/>
				</g>
				<g>
					
						<rect x="173.4" y="106.7" transform="matrix(0.8105 -0.5858 0.5858 0.8105 -85.3298 143.0689)" class="st17" width="10" height="193.4"/>
				</g>
				<g>
					
						<rect x="158.7" y="117.3" transform="matrix(0.8105 -0.5858 0.5858 0.8105 -94.3274 136.448)" class="st17" width="10" height="193.4"/>
				</g>
			</g>
		</g>
	</g>
</g>
<path class="st18" d="M161.9,145.9c-2.8-2.4-11.7-8.4-21.5,2.6c-0.3,0.3-0.4,0.7-0.4,1.1l0.5,22.4c0,1.2,1.4,1.8,2.1,0.8
	c3.1-3.9,9.3-10.4,17-11.1c0.2,0,0.4,0,0.6,0.1c7.1,3.1,11,11.2,12.6,15.9c0.4,1.1,1.9,1.1,2.3-0.1l7.6-21.1c0.1-0.4,0.1-0.8,0-1.1
	c-5.9-13.6-16.2-10.7-19.6-9.3C162.7,146.3,162.2,146.2,161.9,145.9z"/>
<path class="st11" d="M162.2,144.6c-2.6-2.3-11-7.9-20.3,2.5c-0.2,0.3-0.4,0.6-0.4,1l0.5,21.2c0,1.2,1.3,1.7,2,0.8
	c2.9-3.6,8.8-9.8,16-10.5c0.2,0,0.4,0,0.6,0.1c1.1,0.5,2.2,1.1,3.2,1.9c4.7,3.6,7.4,9.5,8.8,13.1c0.4,1.1,1.8,1,2.2-0.1l7.1-20
	c0.1-0.3,0.1-0.7,0-1.1c-5.5-12.8-15.3-10.1-18.5-8.7C162.9,144.9,162.5,144.8,162.2,144.6z"/>
<path class="st8" d="M160.8,159.6l-1.6-0.3c-6.4-1-10.7-7-9.7-13.4l7.9-49.1c1-6.4,7-10.7,13.4-9.7l1.6,0.3c6.4,1,10.7,7,9.7,13.4
	l-7.9,49.1C173.2,156.3,167.2,160.6,160.8,159.6z"/>
<path class="st12" d="M175.4,142.6l0.3-1.8l-24.7-4l-0.3,2.2C154.7,141.8,162.5,145.5,175.4,142.6z"/>
<path class="st19" d="M141.7,26.4l0.3,17.4c0,0-10.8,18.1-12.5,43.5c0,0-12.1-28.9,0.7-56.3c13.5-28.7,39.5-36.7,48.4-27.1
	C178.6,3.9,156.6,3.2,141.7,26.4z"/>
<path class="st19" d="M218.7,38.8L213,55.2c0,0,4.5,20.6-1.7,45.2c0,0,20.6-23.6,17-53.7c-3.8-31.5-26-47.2-37.5-40.9
	C190.8,5.9,211.9,12.1,218.7,38.8z"/>
<g>
	<g>
		<path class="st20" d="M215.4,85c-2.1,2.5-4.1,5.8-4.9,8.3c-0.6,2-1.1,5.2-0.3,6c0.4,0.3,1.2,0.1,1.7-0.1c2.5-1,4.4-3.8,5-7.3
			C217.4,89.1,216.8,86.5,215.4,85z"/>
		<path class="st20" d="M223,76.4c-3.5-1.3-9.9,2.3-9.9,2.3c-7.4,4.4-7.6,30.2-1.9,30.2c5.7-0.1,6.5-8.2,6.5-8.2
			c3-1.3,6.6-8.2,6.6-8.2C231.3,79.5,223,76.4,223,76.4z M224.3,85.5c-0.4,1-0.9,1.9-1.4,2.7l-1.7-1.1c0.5-0.8,1-1.5,1.3-2.3
			c0.2-0.6,0.4-1.4,0.2-2.2c-0.2-0.7-0.6-1.2-1.1-1.4c-0.3-0.1-0.8-0.1-1.4,0c-1,0.2-2.2,1.1-3.4,2.3c1.9,2,2.7,5.2,2.1,8.7
			c-0.7,4.1-3.1,7.5-6.2,8.8c-0.9,0.4-1.8,0.5-2.5,0.4c-0.5-0.1-1-0.3-1.3-0.6c-2.1-1.9-0.6-7-0.3-8.1c1.6-4.7,7-12.5,11.1-13.4
			c0.6-0.1,1.5-0.3,2.4,0c1.2,0.4,2.1,1.5,2.5,2.8C224.8,83.2,224.7,84.3,224.3,85.5z"/>
		<path class="st8" d="M222.1,79.3c-0.9-0.3-1.8-0.2-2.4,0c-4.1,0.9-9.6,8.7-11.1,13.4c-0.3,1-1.8,6.2,0.3,8.1
			c0.4,0.3,0.8,0.6,1.3,0.6c0.7,0.1,1.5,0,2.5-0.4c3.1-1.3,5.5-4.6,6.2-8.8c0.6-3.5-0.2-6.8-2.1-8.7c1.2-1.2,2.4-2.1,3.4-2.3
			c0.6-0.1,1-0.1,1.4,0c0.5,0.2,1,0.7,1.1,1.4c0.2,0.8,0,1.7-0.2,2.2c-0.3,0.8-0.8,1.5-1.3,2.3l1.7,1.1c0.5-0.8,1.1-1.7,1.4-2.7
			c0.4-1.2,0.5-2.4,0.3-3.4C224.2,80.8,223.3,79.7,222.1,79.3z M216.9,91.9c-0.6,3.4-2.6,6.3-5,7.3c-0.5,0.2-1.3,0.5-1.7,0.1
			c-0.8-0.7-0.4-4,0.3-6c0.8-2.5,2.8-5.8,4.9-8.3C216.8,86.5,217.4,89.1,216.9,91.9z"/>
	</g>
	<g>
		<path class="st20" d="M130.7,71.4c1.2,3,2.1,6.8,2.1,9.4c0,2.1-0.6,5.3-1.6,5.8c-0.4,0.2-1.2-0.3-1.6-0.7c-2-1.7-3-5-2.5-8.5
			C127.5,74.6,128.9,72.4,130.7,71.4z"/>
		<path class="st20" d="M119.9,75.7c0,0,1.2,7.7,3.7,9.9c0,0-1.8,8,3.6,9.8c5.4,1.9,13.3-22.7,7.7-29.2c0,0-4.9-5.4-8.6-5.3
			C126.2,60.8,117.3,61.1,119.9,75.7z M122.9,65.8c0.7-1.2,2-1.9,3.2-1.9c1,0,1.8,0.4,2.3,0.7c3.6,2.1,6.3,11.3,6.4,16.2
			c0,1.1-0.2,6.4-2.8,7.6c-0.5,0.2-1,0.3-1.5,0.2c-0.7-0.1-1.4-0.5-2.2-1.2c-2.6-2.2-3.8-6.1-3.2-10.3c0.5-3.5,2.3-6.4,4.7-7.6
			c-0.8-1.5-1.6-2.7-2.5-3.2c-0.5-0.3-1-0.5-1.3-0.5c-0.5,0-1.1,0.4-1.5,1c-0.4,0.7-0.5,1.6-0.5,2.2c0,0.9,0.2,1.7,0.5,2.6l-1.9,0.5
			c-0.2-1-0.5-2-0.5-3C122.1,67.8,122.3,66.7,122.9,65.8z"/>
		<path class="st8" d="M122.9,65.8c-0.6,0.9-0.8,2.1-0.8,3.3c0,1.1,0.3,2.1,0.5,3l1.9-0.5c-0.2-0.9-0.4-1.8-0.5-2.6
			c0-0.6,0-1.5,0.5-2.2c0.4-0.6,1-1,1.5-1c0.4,0,0.8,0.1,1.3,0.5c0.9,0.5,1.7,1.7,2.5,3.2c-2.5,1.3-4.2,4.1-4.7,7.6
			c-0.6,4.2,0.6,8.1,3.2,10.3c0.8,0.7,1.5,1,2.2,1.2c0.5,0.1,1,0,1.5-0.2c2.6-1.2,2.8-6.5,2.8-7.6c0-4.9-2.7-14.1-6.4-16.2
			c-0.5-0.3-1.4-0.7-2.3-0.7C124.9,63.9,123.6,64.6,122.9,65.8z M130.7,71.4c1.2,3,2.1,6.8,2.1,9.4c0,2.1-0.6,5.3-1.6,5.8
			c-0.4,0.2-1.2-0.3-1.6-0.7c-2-1.7-3-5-2.5-8.5C127.5,74.6,128.9,72.4,130.7,71.4z"/>
	</g>
</g>
<path class="st20" d="M163,140.9L163,140.9c-19.4-3.1-38.6-24.1-35.5-43.6l10.4-64.5c3.1-19.4,21.4-32.6,40.8-29.5l12.5,2
	c19.4,3.1,32.6,21.4,29.5,40.8l-10.4,64.5C207.2,130.1,182.4,144.1,163,140.9z"/>
<g>
	<path class="st12" d="M158,127.7c1.5,2.3,3.7,3.9,6.4,4.3c2.7,0.4,5.3-0.4,7.4-2.1c-2.1,0.6-4.6,0.7-7.2,0.3
		C162.1,129.8,159.8,128.9,158,127.7z"/>
	<path class="st12" d="M148.2,101.4c-2.2,1.7-3.6,4-3.8,6.7s0.8,5.2,2.7,7.3c-0.7-2.1-1.1-4.5-0.9-7.1
		C146.4,105.6,147.1,103.3,148.2,101.4z"/>
	<path class="st12" d="M189.5,108c1.5,2.3,2.1,5,1.5,7.6s-2.4,4.7-4.8,6c1.3-1.7,2.4-3.9,3-6.5S189.9,110.2,189.5,108z"/>
</g>
<path class="st12" d="M197.8,44.6c-4.9,1.3-11.3,1.5-18,0.4s-12.7-3.2-17-6c4.8,1.7,10.8,3.1,17.3,4.2S192.7,44.7,197.8,44.6z"/>
<path class="st21" d="M139.8,56.6c-0.8,0.3-1.5-0.7-0.8-1.3c2.9-2.6,6.4-4.3,10.4-4.7c3.9-0.4,7.8,0.5,11.1,2.5
	c0.7,0.4,0.3,1.6-0.6,1.4c-3.2-0.6-6.6-0.8-10.2-0.4C146.2,54.5,142.8,55.3,139.8,56.6z"/>
<path class="st21" d="M193.7,61.5c-0.9,0-1-1.3-0.2-1.5c3.7-1.1,7.7-1.2,11.4,0.1s6.8,3.8,9,7c0.5,0.7-0.4,1.6-1.1,1
	c-2.6-1.9-5.7-3.5-9.1-4.7C200.3,62.3,196.9,61.7,193.7,61.5z"/>
<path class="st12" d="M169.7,98.9l4.4-0.1c0.8,0.1,1.4-0.8,0.9-1.5l-3.6-5c-0.3-0.4-0.9-0.5-1.3-0.2l-5,3.6
	c-0.7,0.5-0.4,1.6,0.4,1.7L169.7,98.9z"/>
<circle class="st22" cx="152.5" cy="69.2" r="5"/>
<circle class="st22" cx="194.4" cy="76" r="5"/>
<g>
	<g class="st23">
		<path class="st24" d="M197.4,74.8c-0.5-0.1-1.1-0.2-1.6-0.3c-3.7-0.6-6.9-0.5-9.5,0.1c-2.2,0.4-4.9,1.5-7.7,0.5
			c-2.7-0.9-3.6-1.2-4.5-1.4c-0.9-0.2-1.7-0.1-4.6-0.1c-3,0-5.2-1.9-7.2-2.9c-2.3-1.5-5.3-2.5-9-3.1c-0.5-0.1-1.1-0.2-1.6-0.2
			c-2.1-0.3-8.8-0.9-22.1,1.6l-0.5,3.2c0,0,1.5,0.8,1.3,3c-0.7,9.1,0.2,12.1,0.9,14.3c0.2,0.6,0.4,1.2,0.6,1.7v-0.1
			c0.5,1.1,1.1,2,1.8,3c2.5,3.3,6.5,5.4,11.4,6.2c0.4,0.1,0.9,0.1,1.3,0.2c5,0.6,10.8-1.6,15.1-5.7c2.4-2.3,6.2-6.9,7.7-16.1
			c0,0,0.8-1.9,4.3-1.3s3.7,2.6,3.7,2.6c-1.5,9.1,0.7,14.7,2.2,17.7c2.8,5.2,7.6,9.1,12.6,10.2c0.4,0.1,0.9,0.2,1.3,0.2
			c4.9,0.8,9.3,0,12.7-2.3c1-0.6,1.8-1.4,2.6-2.2v0.1c0.4-0.4,0.8-0.9,1.1-1.4c1.4-1.9,3.2-4.4,5.4-13.3c0.5-2.1,2.2-2.4,2.2-2.4
			l0.5-3.2C206,76.7,199.5,75.2,197.4,74.8z M146.7,98.6c-8.7-1-16.1-6.3-14.3-20c0,0,1.1-6.7,7.3-8.8c4.7-1.6,25.6-1.9,26.3,9.9
			C166.6,91.5,155.2,99.6,146.7,98.6z M192.4,106c-8.4-1.8-16.7-13.1-12.4-24.1c4.4-11,24.1-4.1,28.1-1.1c5.2,3.9,4.1,10.6,4.1,10.6
			C209.6,105.1,201,107.8,192.4,106z"/>
	</g>
	<g>
		<path class="st25" d="M197.9,71.6c-0.5-0.1-1.1-0.2-1.6-0.3c-3.7-0.6-6.9-0.5-9.5,0.1c-2.2,0.4-4.9,1.5-7.7,0.5
			c-2.7-0.9-3.6-1.2-4.5-1.4c-0.9-0.2-1.7-0.1-4.6-0.1c-3,0-5.2-1.9-7.2-2.9c-2.3-1.5-5.3-2.5-9-3.1c-0.5-0.1-1.1-0.2-1.6-0.2
			c-2.1-0.3-8.8-0.9-22.1,1.6l-0.5,3.2c0,0,1.5,0.8,1.3,3c-0.7,9.1,0.2,12.1,0.9,14.3c0.2,0.6,0.4,1.2,0.6,1.7v-0.1
			c0.5,1.1,1.1,2,1.8,3c2.5,3.3,6.5,5.4,11.4,6.2c0.4,0.1,0.9,0.1,1.3,0.2c5,0.6,10.8-1.6,15.1-5.7c2.4-2.3,6.2-6.9,7.7-16.1
			c0,0,0.8-1.9,4.3-1.3s3.7,2.6,3.7,2.6c-1.5,9.1,0.7,14.7,2.2,17.7c2.8,5.2,7.6,9.1,12.6,10.2c0.4,0.1,0.9,0.2,1.3,0.2
			c4.9,0.8,9.3,0,12.7-2.3c1-0.6,1.8-1.4,2.6-2.2v0.1c0.4-0.4,0.8-0.9,1.1-1.4c1.4-1.9,3.2-4.4,5.4-13.3c0.5-2.1,2.2-2.4,2.2-2.4
			l0.5-3.2C206.6,73.4,200,71.9,197.9,71.6z M147.2,95.4c-8.7-1-16.1-6.3-14.3-20c0,0,1.1-6.7,7.3-8.8c4.7-1.6,25.6-1.9,26.3,9.9
			C167.2,88.2,155.7,96.3,147.2,95.4z M192.9,102.7c-8.4-1.8-16.7-13.1-12.4-24.1c4.4-11,24.1-4.1,28.1-1.1
			c5.2,3.9,4.1,10.6,4.1,10.6C210.2,101.8,201.5,104.5,192.9,102.7z"/>
	</g>
</g>
<ellipse transform="matrix(0.1589 -0.9873 0.9873 0.1589 24.5276 263.2795)" class="st10" cx="166.8" cy="117.2" rx="2.7" ry="11.5"/>
<path class="st24" d="M169.1,104.7c-21.4-3.4-19.6,12.2-19.6,12.2l3.4-4.6l29.3,4.7l1.8,5.4C184,122.5,190.6,108.2,169.1,104.7z"/>
<g>
	<polygon class="st6" points="124.1,49.3 135.5,47.1 134.5,53.3 123.3,54.5 	"/>
	<polygon class="st13" points="123.1,56.1 134.5,53.8 133.7,58.4 122.5,59.6 	"/>
</g>
<g>
	<g>
		<polygon class="st26" points="174.4,160.8 163.3,161.6 162.3,167.9 172.6,172.1 		"/>
		<polygon class="st26" points="145.4,167.7 156.6,167 157.6,160.6 147.2,156.4 		"/>
	</g>
	<path class="st27" d="M162.7,168.7l-6.8-1.1c-0.9-0.1-1.5-1-1.4-1.9l0.7-4.6c0.1-0.9,1-1.5,1.9-1.4l6.8,1.1c0.9,0.1,1.5,1,1.4,1.9
		l-0.7,4.6C164.5,168.3,163.6,168.9,162.7,168.7z"/>
</g>
<g>
	<polygon class="st5" points="205.8,274.6 156.6,314.6 172.2,316.3 229,274.8 	"/>
	<polygon class="st5" points="205.8,270 156.6,310 172.2,311.8 229,270.2 	"/>
	<polygon class="st7" points="156.6,310 156.6,314.6 172.2,316.3 172.2,311.8 	"/>
	<polygon class="st7" points="229,270.2 229,274.8 172.2,316.3 172.2,311.8 	"/>
</g>
<path class="st28" d="M204.9,264.8c-12.8-2.2-25.1,5.1-29.5,16.9c-0.9,2.5,0.6,5.2,3.2,5.7l4.4,0.8v-0.1
	c1.7-9.5,10.8-15.9,20.3-14.3c9.5,1.7,15.9,10.8,14.3,20.3v0.1l0,0l-3.4,19.7l-3,16.9l-23.4,133.9c-0.4,2.3,1.1,4.5,3.5,4.9l0.6,0.1
	c2.3,0.4,4.5-1.1,4.9-3.5l23.4-133.9l6.4-36.6v-0.1C229.1,281.2,219.4,267.4,204.9,264.8z"/>
</svg>
