<?xml version="1.0" encoding="utf-8"?>
<!-- Generator: Adobe Illustrator 22.1.0, SVG Export Plug-In . SVG Version: 6.00 Build 0)  -->
<svg version="1.1" id="Layer_1" xmlns="http://www.w3.org/2000/svg" xmlns:xlink="http://www.w3.org/1999/xlink" x="0px" y="0px"
	 viewBox="0 0 230.8 467.4" style="enable-background:new 0 0 230.8 467.4;" xml:space="preserve">
<style type="text/css">
	.st0{fill:#787986;}
	.st1{fill:#F5E0CD;}
	.st2{fill:#EBC19C;}
	.st3{fill:#4C5258;}
	.st4{fill:#F1F1F2;}
	.st5{fill:#C47C14;}
	.st6{opacity:0.55;fill:#BBBDBF;enable-background:new    ;}
	.st7{fill:#F0D0B3;}
	.st8{fill:#C3996B;}
	.st9{fill:#FFFFFF;}
	.st10{fill:#8A5D3B;}
	.st11{fill:#58595B;}
	.st12{fill:#E7A54E;}
</style>
<g>
	<g>
		<g>
			<g>
				<path class="st0" d="M174.5,163.7c-4.4-3.4-5.6-9-2.7-12.4l2.5-2.9c2.9-3.4,8.6-3.1,12.7,0.7l40.7,38l0.4,0.4
					c0.5,0.5,0.9,1.1,1.3,1.7c0.4,0.6,0.7,1.3,0.9,2s0.4,1.4,0.4,2c0.1,0.6,0.1,1.2,0,1.7c-0.2,2.1-0.8,3.4-1.3,4.5
					c-1.1,2.1-2.2,3.5-3.3,4.9c-2.2,2.6-4.5,4.7-6.8,6.7c-4.6,4-9.3,7.5-14,10.9c-9.5,6.8-19.1,13.1-29,19.2l-4.4-6.6
					c9.1-6.8,18.1-13.9,26.6-21.3c4.2-3.7,8.4-7.5,12.1-11.4c1.8-1.9,3.6-4,5-5.8c0.6-0.9,1.2-1.9,1.3-2.3v-0.1l0,0
					c-0.1,0,0.1,0,0.2,0.1l0.4,0.1c0.6,0.1,0.9,0.3,1.4,0.4l0.6,0.1c0.2,0,0.3,0.1,0.5,0.1c1.4,0.1,1.7-0.4,1.2,0.1l-2.8,3.6
					L174.5,163.7z"/>
			</g>
			<g>
				<path class="st1" d="M146.2,228.1c-0.1,2.1,1.5,4,3.6,4.2l4.8,0.3c-0.7,1.3-1.2,2.7-1.5,4.2l-10.9,18.1
					c-1.1,1.8-0.5,4.2,1.3,5.3c1.1,0.7,2.4,0.7,3.4,0.3l-0.4,0.6c-1.1,1.8-0.5,4.2,1.3,5.3c1.8,1.1,4.2,0.5,5.3-1.3l0.1-0.2
					c0.3,0.6,0.8,1.1,1.4,1.4c1.8,1.1,4.2,0.5,5.3-1.3l2.1-3.5c0.2,0.8,0.7,1.6,1.4,2.1c1.5,0.9,3.4,0.4,4.3-1.1l7.8-13
					c4.1-3.6,5.8-9.4,4-14.8c-2-6-7.9-9.7-13.9-9.3l-15.4-1.1C148.2,224.3,146.4,225.9,146.2,228.1z"/>
				<g>
					<path class="st2" d="M156,245.6c-2,3.5-4,7.1-6,10.6c-1,1.8-2,3.6-3,5.2c-0.5,0.7-0.7,1.7-0.5,2.6s0.7,1.8,1.4,2.4
						c0,0,0,0,0,0.1c0,0,0,0-0.1,0c-1-0.4-1.7-1.3-2.1-2.3c-0.4-1-0.2-2.3,0.3-3.3c1-1.8,2.1-3.4,3.2-5.2
						C151.5,252.3,153.7,248.9,156,245.6C155.9,245.5,156,245.5,156,245.6C156,245.5,156,245.5,156,245.6z"/>
				</g>
				<g>
					<path class="st2" d="M160.9,248.7c-1.6,3-3.3,6-5,9l-1.2,2.3l-0.7,1c-0.2,0.4-0.4,0.7-0.5,1c-0.5,1.4-0.1,3.2,1.3,4.3
						c0,0,0,0,0,0.1c0,0,0,0-0.1,0c-1.7-0.6-2.7-2.8-2.2-4.7c0.3-1,0.8-1.6,1.3-2.4l1.4-2.2C157.1,254.4,158.9,251.5,160.9,248.7
						C160.8,248.6,160.9,248.6,160.9,248.7C160.9,248.6,160.9,248.6,160.9,248.7z"/>
				</g>
				<g>
					<path class="st2" d="M168.4,249.7c-1.3,2.4-2.6,4.8-3.9,7.2l-1,1.8l-0.5,0.9c-0.2,0.3-0.3,0.5-0.4,0.8
						c-0.4,1.1-0.1,2.4,0.9,3.3v0.1c0,0,0,0-0.1,0c-1.4-0.5-2.3-2.2-1.8-3.7c0.1-0.4,0.3-0.8,0.5-1l0.5-0.9l1.1-1.7
						C165.3,254.1,166.8,251.9,168.4,249.7C168.4,249.6,168.4,249.6,168.4,249.7C168.4,249.6,168.5,249.6,168.4,249.7z"/>
				</g>
				<g>
					<path class="st2" d="M154.5,234.5c-2.4,4.3-4.9,8.7-7.4,13c-1.2,2.2-2.4,4.4-3.8,6.5c-0.3,0.5-0.7,1.1-1,1.5
						c-0.2,0.5-0.4,1.1-0.4,1.6c0,1.1,0.6,2.3,1.5,3.1c0,0,0,0,0,0.1c0,0,0,0-0.1,0c-0.6-0.3-1.1-0.7-1.5-1.2s-0.6-1.2-0.7-1.9
						c-0.1-0.7,0-1.4,0.3-2c0.3-0.7,0.6-1.1,0.9-1.7c1.2-2.2,2.6-4.2,3.9-6.3C149.1,242.9,151.7,238.7,154.5,234.5
						C154.4,234.5,154.5,234.5,154.5,234.5L154.5,234.5z"/>
				</g>
			</g>
		</g>
		<g>
			<path class="st1" d="M137.8,434.5c0,3.4-1.9,6.2-4.3,6.2h-1.1c-2.3,0.1-4.4-2.7-4.6-6l-10-195.8c-0.2-3.4,1.6-6.2,3.9-6.2
				l12.8-0.3c2.3-0.1,4.2,2.7,4.2,6L137.8,434.5z"/>
		</g>
		<g>
			<path class="st1" d="M174.8,434.6c-0.1,3.4-2.1,6.1-4.5,6.1h-1.1c-2.3,0-4.3-2.8-4.4-6.1l-4.6-196c-0.1-3.4,1.8-6.1,4.1-6.1
				l12.8,0.1c2.3,0,4.2,2.8,4.1,6.1L174.8,434.6z"/>
		</g>
		<path class="st3" d="M149.6,256.3c-7.9,0.7-31,10.6-38.6,8.2l5.3,86.1c0,0,29.7,16.8,68.2,0c0.9-7.7,5.3-87.1,5.3-87.1
			C182.9,265.9,157.8,257,149.6,256.3z"/>
		<g>
			<path class="st0" d="M190.5,265.7l-13.4-49.1l6.9-32.5c0.3-1.3,0.3-2.7-0.1-4.1l-8.1-32.1c0,0-11.1-2.6-26.3-1.9
				c-22.4-0.1-24.7,1.9-24.7,1.9l-7.8,31c-0.5,2.1-0.6,4.2-0.1,6.3l6.7,31.4l-13.4,49.1l0.7,0.9c6.1,1.9,22.2,7.3,32.4,9.1l5.2-15.5
				l4.3,15.8c10.2-1.1,30.8-8.4,37-10.4h0.7V265.7z"/>
		</g>
		<g>
			<path class="st0" d="M115.6,154.3c2.9-4.8,8.3-6.6,12-4.1l3.2,2.1c3.7,2.5,4.1,8.2,0.8,12.7l-33,44.9l-0.3,0.4
				c-0.5,0.5-1,1.1-1.5,1.5c-0.6,0.4-1.3,0.9-1.9,1.1c-0.6,0.3-1.3,0.5-1.9,0.6s-1.2,0.2-1.7,0.2c-2.1,0.1-3.5-0.4-4.6-0.8
				c-2.2-0.8-3.8-1.8-5.2-2.7c-2.8-1.9-5.2-3.9-7.4-6c-4.5-4.1-8.5-8.3-12.5-12.6c-7.9-8.6-15.2-17.5-22.4-26.6l6-5.1
				c7.8,8.2,15.9,16.3,24.2,23.9c4.2,3.8,8.4,7.5,12.7,10.7c2.1,1.6,4.4,3.1,6.4,4.2c1,0.5,2,1,2.5,1h0.1l0,0c0-0.1,0,0.1-0.1,0.2
				l-0.1,0.4c-0.1,0.6-0.2,1-0.2,1.4v0.7c0,0.2,0,0.3,0,0.5c0,1.4,0.6,1.6,0.1,1.2l-3.9-2.4L115.6,154.3z"/>
		</g>
		<polygon class="st3" points="89,454.7 83.9,457.2 83.9,467.4 113.1,467.4 131.9,457.7 131.9,467.4 140.8,467.4 140.8,445.8 
			116.3,454.7 		"/>
		<polygon class="st1" points="137,417.5 133.1,417.5 123.4,436.9 89,454.7 116.3,454.7 140.8,445.8 140.8,436.9 		"/>
		<polygon class="st3" points="126.1,454.7 121,457.2 121,467.4 150.2,467.4 169,457.7 169,467.4 177.9,467.4 177.9,445.8 
			153.4,454.7 		"/>
		<polygon class="st1" points="174.2,417.5 170.2,417.5 160.5,436.9 126.1,454.7 153.4,454.7 177.9,445.8 177.9,436.9 		"/>
		<polygon class="st4" points="129,150.8 150.3,211.2 169.9,150.8 		"/>
		<path class="st5" d="M150.4,8.9L150.4,8.9c-27.3,0-49.6,22.2-49.6,49.4v67.5c0,5.4,3.8,9.9,8.9,10.9c-0.4-2.5-0.8-5.6-0.6-8.2
			c0,0,0.7,4.5,1.7,8.4c0.4,0,0.8,0.1,1.2,0.1l1.5,0.2c-0.6-2.5-1.4-7.2-1.1-10.9c0,0,1.1,6.9,2.4,11.1l35.6,6l35.6-6
			c1.2-4.2,2.4-11.1,2.4-11.1c0.3,3.7-0.5,8.3-1.1,10.9l1.5-0.2c0.4,0,0.8,0,1.2-0.1c0.9-4,1.7-8.4,1.7-8.4c0.2,2.7-0.1,5.8-0.6,8.2
			c5.1-1.1,8.9-5.6,8.9-10.9V58.3C200.1,31.1,177.7,8.9,150.4,8.9z"/>
		<g>
			<path class="st6" d="M148.9,145.5c-3.1-1.9-12.9-6.4-20.8,6c-0.2,0.3-0.3,0.7-0.2,1.1l4.1,22.1c0.2,1.2,1.7,1.5,2.2,0.5
				c2.4-4.3,7.5-11.7,15-13.6c0.2-0.1,0.4-0.1,0.6,0c7.5,1.9,12.6,9.4,15,13.6c0.6,1.1,2,0.8,2.2-0.5l4.1-22.1
				c0.1-0.4,0-0.8-0.2-1.1c-8-12.5-17.7-8-20.8-6C149.7,145.7,149.3,145.7,148.9,145.5z"/>
			<path class="st4" d="M148.9,144.1c-3-1.8-12.2-6.1-19.7,5.7c-0.2,0.3-0.3,0.7-0.2,1.1l3.9,20.8c0.2,1.2,1.6,1.4,2.1,0.4
				c2.3-4.1,7.1-11.1,14.2-12.9c0.2,0,0.4,0,0.6,0c7.1,1.8,11.9,8.8,14.2,12.9c0.6,1,1.9,0.7,2.1-0.4l3.9-20.8
				c0.1-0.4,0-0.8-0.2-1.1c-7.5-11.8-16.7-7.5-19.7-5.7C149.7,144.3,149.3,144.3,148.9,144.1z"/>
		</g>
		<path class="st1" d="M150.5,156.9L150.5,156.9c-6.5,0-11.7-5.2-11.7-11.7V100c0-6.5,5.2-11.7,11.7-11.7l0,0
			c6.5,0,11.7,5.2,11.7,11.7v45.2C162.2,151.7,157,156.9,150.5,156.9z"/>
		<path class="st2" d="M162.2,138.3v-1.9h-23.4v2.2C143,140.8,150.7,143.2,162.2,138.3z"/>
		<g>
			<g>
				<path class="st7" d="M190.8,78.9c-1.6,2.6-2.9,6-3.3,8.4c-0.3,2-0.2,5,0.6,5.6c0.4,0.3,1.1-0.1,1.5-0.4c2.1-1.3,3.5-4.2,3.6-7.5
					C193.2,82.4,192.3,80.1,190.8,78.9z"/>
				<path class="st7" d="M196.5,69.9c-3.4-0.6-8.8,3.6-8.8,3.6c-6.2,5.2-2.6,29.1,2.7,28.2s4.8-8.6,4.8-8.6c2.6-1.6,4.9-8.6,4.9-8.6
					C204.7,71.5,196.5,69.9,196.5,69.9z M199.1,78.1c-0.2,1-0.6,1.9-0.9,2.7l-1.7-0.7c0.3-0.8,0.7-1.6,0.8-2.3
					c0.1-0.6,0.2-1.4-0.1-2.1c-0.2-0.6-0.8-1-1.3-1.1c-0.3-0.1-0.7,0-1.3,0.2c-0.9,0.3-1.8,1.3-2.8,2.6c2.1,1.5,3.3,4.4,3.3,7.8
					c-0.1,3.9-1.8,7.4-4.5,9c-0.8,0.5-1.6,0.7-2.2,0.7c-0.5,0-0.9-0.1-1.3-0.4c-2.2-1.5-1.6-6.4-1.5-7.4c0.7-4.6,4.6-12.6,8.3-14.1
					c0.5-0.2,1.4-0.5,2.3-0.3c1.1,0.2,2.2,1,2.7,2.2C199.2,75.8,199.3,76.9,199.1,78.1z"/>
				<path class="st2" d="M196.1,72.7c-0.9-0.1-1.7,0.1-2.3,0.3c-3.7,1.4-7.6,9.5-8.3,14.1c-0.1,1-0.7,6,1.5,7.4
					c0.4,0.3,0.8,0.4,1.3,0.4c0.7,0,1.4-0.2,2.2-0.7c2.7-1.6,4.4-5.1,4.5-9c0-3.4-1.2-6.2-3.3-7.8c0.9-1.3,1.9-2.3,2.8-2.6
					c0.5-0.2,0.9-0.3,1.3-0.2c0.5,0.1,1,0.5,1.3,1.1c0.3,0.7,0.2,1.5,0.1,2.1c-0.2,0.8-0.5,1.5-0.8,2.3l1.7,0.7
					c0.4-0.9,0.7-1.7,0.9-2.7c0.2-1.2,0.2-2.3-0.2-3.2C198.3,73.7,197.3,72.9,196.1,72.7z M193.2,85.1c0,3.2-1.4,6.2-3.6,7.5
					c-0.4,0.3-1.2,0.6-1.5,0.4c-0.9-0.6-0.9-3.6-0.6-5.6c0.4-2.5,1.7-5.8,3.3-8.4C192.3,80.1,193.2,82.4,193.2,85.1z"/>
			</g>
			<g>
				<path class="st7" d="M110.4,78.9c1.6,2.6,2.9,6,3.3,8.4c0.3,2,0.2,5-0.6,5.6c-0.4,0.3-1.1-0.1-1.5-0.4c-2.1-1.3-3.5-4.2-3.6-7.5
					C107.9,82.4,108.8,80.1,110.4,78.9z"/>
				<path class="st7" d="M101,84.5c0,0,2.3,7,4.9,8.6c0,0-0.5,7.7,4.8,8.6s8.9-23,2.7-28.2c0,0-5.3-4.2-8.8-3.6
					C104.6,69.9,96.5,71.5,101,84.5z M102.3,74.9c0.5-1.2,1.5-2,2.7-2.2c0.9-0.1,1.7,0.1,2.3,0.3c3.7,1.4,7.6,9.5,8.3,14.1
					c0.1,1,0.7,6-1.5,7.4c-0.4,0.3-0.8,0.4-1.3,0.4c-0.7,0-1.4-0.2-2.2-0.7c-2.7-1.6-4.4-5.1-4.5-9c0-3.4,1.2-6.2,3.3-7.8
					c-0.9-1.3-1.9-2.3-2.8-2.6c-0.5-0.2-0.9-0.3-1.3-0.2c-0.5,0.1-1,0.5-1.3,1.1c-0.3,0.7-0.2,1.5-0.1,2.1c0.2,0.8,0.5,1.5,0.8,2.3
					l-1.7,0.7c-0.4-0.9-0.7-1.7-0.9-2.7C101.8,76.9,101.9,75.8,102.3,74.9z"/>
				<path class="st2" d="M102.3,74.9c-0.4,0.9-0.5,2-0.2,3.2c0.2,1,0.6,1.9,0.9,2.7l1.7-0.7c-0.3-0.8-0.7-1.6-0.8-2.3
					c-0.1-0.6-0.2-1.4,0.1-2.1c0.2-0.6,0.8-1,1.3-1.1c0.3-0.1,0.7,0,1.3,0.2c0.9,0.3,1.8,1.3,2.8,2.6c-2.1,1.5-3.3,4.4-3.3,7.8
					c0.1,3.9,1.8,7.4,4.5,9c0.8,0.5,1.6,0.7,2.2,0.7c0.5,0,0.9-0.1,1.3-0.4c2.2-1.5,1.6-6.4,1.5-7.4c-0.7-4.6-4.6-12.6-8.3-14.1
					c-0.5-0.2-1.4-0.5-2.3-0.3C103.8,72.9,102.8,73.7,102.3,74.9z M110.4,78.9c1.6,2.6,2.9,6,3.3,8.4c0.3,2,0.2,5-0.6,5.6
					c-0.4,0.3-1.1-0.1-1.5-0.4c-2.1-1.3-3.5-4.2-3.6-7.5C107.9,82.4,108.8,80.1,110.4,78.9z"/>
			</g>
		</g>
		<path class="st1" d="M150.6,138.5L150.6,138.5c-18.4,0-39.3-16.6-39.3-35V42.3c0-18.4,14.9-33.4,33.4-33.4h11.9
			C175,8.9,190,23.8,190,42.3v61.2C189.9,121.9,169,138.5,150.6,138.5z"/>
		<g>
			<path class="st8" d="M135.6,108.8c1.2,8.4,7.3,14.9,14.8,14.9c7.4,0,13.6-6.4,14.8-14.9c-3.2,3.1-8.6,3.5-14.8,3.5
				S138.8,111.8,135.6,108.8z"/>
			<path class="st9" d="M164.7,110.1c0.4-1,0.6-2,0.8-3.1c0.1-0.3-0.3-0.5-0.5-0.3c-3.4,2.7-8.7,3-14.6,3s-11.3-0.4-14.6-3
				c-0.2-0.2-0.6,0-0.5,0.3c0.2,1.1,0.5,2.1,0.8,3.1c3.4,2.5,8.5,2.8,14.3,2.8S161.3,112.6,164.7,110.1z"/>
		</g>
		<path class="st2" d="M143.4,126.2c1.9,2,4.3,3.2,7,3.2s5.2-1.2,7-3.2c-2,0.9-4.4,1.4-7,1.4C147.8,127.7,145.4,127.1,143.4,126.2z"
			/>
		<g>
			<path class="st10" d="M122.3,65c-0.6,0.3-1.1-0.5-0.6-0.9c2.1-2,4.7-3.3,7.6-3.7c2.9-0.4,5.8,0.3,8.3,1.7
				c0.6,0.3,0.2,1.2-0.4,1.1c-2.4-0.4-4.9-0.5-7.6-0.1C127,63.4,124.5,64.1,122.3,65z"/>
			<path class="st10" d="M179.6,65c0.6,0.3,1.1-0.5,0.6-0.9c-2.1-2-4.7-3.3-7.6-3.7c-2.9-0.4-5.8,0.3-8.3,1.7
				c-0.6,0.3-0.2,1.2,0.4,1.1c2.4-0.4,4.9-0.5,7.6-0.1C174.9,63.4,177.4,64.1,179.6,65z"/>
		</g>
		<path class="st2" d="M150.6,98.6l4.1-0.7c0.8,0,1.2-1,0.6-1.5l-4.1-4.1c-0.3-0.3-0.9-0.3-1.3,0l-4.1,4.1c-0.6,0.6-0.2,1.5,0.6,1.5
			L150.6,98.6z"/>
		<g>
			<g>
				<g>
					<circle class="st11" cx="133" cy="75.6" r="4.7"/>
				</g>
			</g>
		</g>
		<g>
			<g>
				<g>
					<circle class="st11" cx="168.8" cy="75.6" r="4.7"/>
				</g>
			</g>
		</g>
		<path class="st5" d="M206.5,46.8c-1.4,0-3.2-0.2-5-0.7c0-11.8-3-31.8-21.7-41.2c-6-3-29.1-9.8-44,0.9c0,0-0.6-4.1,0.8-5.3
			c0,0-6.7,0.7-8.6,7.5c0,0-13.5-3-16.8,3.3c0,0,3.7-0.4,5.8,1c-22.1,10.4-14.8,43-14.8,43c1.2,4.2,2.2,16,9.1,22.2l0.3-21.8
			c0,0,5.3-21.2,10.9-22c0,0,0.7,2.7,3.4,6c3.9,8.1,12.3,18.6,29.6,16.8c0,0-9.7-1.4-14.2-6.5c9.3,3.3,23,4.8,43.3,1.7
			c0,0,1.9-0.1,4.8-0.4c0.3,1,0.5,2.1,0.5,3.2c0,10.4-0.5,0.5,0,24c0,0,9.3-11.2,10.9-23c0,0,0.3-0.1,0.4-3.8c2-0.5,4-2,5.7-3.3
			C207.6,47.8,207.2,46.8,206.5,46.8z"/>
		<path class="st11" d="M127.7,70.2c1.1,2,3.2,2,3.2,2l-1.1,1.9C129.8,74.1,127.7,72.4,127.7,70.2z"/>
		<path class="st11" d="M163.2,70.2c1.1,2,3.2,2,3.2,2l-1.1,1.9C165.3,74.1,163.2,72.4,163.2,70.2z"/>
		<circle class="st11" cx="149.5" cy="171.4" r="2.7"/>
		<circle class="st11" cx="149.5" cy="181.4" r="2.7"/>
	</g>
	<g>
		<g>
			<path class="st12" d="M200.2,49.6c-5.3,0.4-10.7,0.2-16-0.3c-5.3-0.6-10.6-1.7-15.7-3.2c-5.1-1.6-10.1-3.7-14.6-6.6
				c-2.3-1.4-4.4-3-6.4-4.8s-3.8-3.7-5.5-5.8c3.6,3.9,7.7,7.3,12.3,10s9.4,4.8,14.5,6.3c5,1.6,10.2,2.7,15.5,3.4
				c2.6,0.4,5.3,0.7,7.9,0.8C194.9,49.5,197.6,49.6,200.2,49.6z"/>
		</g>
		<g>
			<path class="st12" d="M184.6,49.6c-5.3,0.4-10.7,0.2-16-0.3c-5.3-0.6-10.6-1.7-15.7-3.2c-5.1-1.6-10.1-3.7-14.6-6.6
				c-2.3-1.4-4.4-3-6.4-4.8s-3.8-3.7-5.5-5.8c3.6,3.9,7.7,7.3,12.3,10s9.4,4.8,14.5,6.3c5,1.6,10.2,2.7,15.5,3.4
				c2.6,0.4,5.3,0.7,7.9,0.8C179.3,49.5,181.9,49.6,184.6,49.6z"/>
		</g>
	</g>
	<g>
		<path class="st1" d="M43,147.5c4.9,5.9,4.1,14.6-1.8,19.5s-14.6,4.1-19.5-1.8c-4.9-5.9-4.1-14.6,1.8-19.5S38.1,141.6,43,147.5z"/>
		<path class="st1" d="M45.4,152.1l-5-16.4c-0.6-2.1-2.8-3.2-4.9-2.6c-2.1,0.6-3.2,2.8-2.6,4.9l5,16.4L45.4,152.1z"/>
		<path class="st1" d="M32.4,143.2L8.9,139c-2.1-0.4-4.2,1-4.5,3.2c-0.4,2.1,1,4.2,3.2,4.5l23.6,4.2L32.4,143.2z"/>
		<path class="st1" d="M28.2,149.6l-23.6-4.2c-2.1-0.4-4.2,1-4.5,3.2c-0.4,2.1,1,4.2,3.2,4.5l23.5,4.2L28.2,149.6z"/>
		<path class="st1" d="M30.6,155.9L7,151.7c-2.1-0.4-4.2,1-4.5,3.2c-0.4,2.1,1,4.2,3.2,4.5l23.6,4.2L30.6,155.9z"/>
		<path class="st1" d="M31,163.1l-19-3.4c-1.7-0.3-3.3,0.8-3.6,2.5s0.8,3.3,2.5,3.6l19.1,3.4L31,163.1z"/>
		<g>
			<path class="st2" d="M22.6,148.6c-4-0.6-8.1-1.2-12.1-1.8c-2-0.3-4-0.6-6-1c-0.9-0.2-1.8,0-2.6,0.4c-0.8,0.5-1.4,1.3-1.8,2.2
				c0,0,0,0-0.1,0l0,0c0-1,0.6-2.1,1.5-2.8s2.1-1,3.2-0.9c2,0.3,4,0.8,6,1.2C14.6,146.8,18.6,147.7,22.6,148.6
				C22.6,148.5,22.7,148.5,22.6,148.6L22.6,148.6z"/>
		</g>
		<g>
			<path class="st2" d="M21.4,154.3c-3.4-0.5-6.8-1-10.3-1.5l-2.6-0.4l-1.3-0.2c-0.4-0.1-0.8-0.1-1.2-0.1c-1.5,0-3,1.1-3.6,2.7
				c0,0,0,0-0.1,0l0,0c0-1.8,1.6-3.5,3.6-3.7c1-0.1,1.8,0.2,2.7,0.3l2.5,0.5C14.7,152.8,18.1,153.5,21.4,154.3
				C21.5,154.2,21.5,154.3,21.4,154.3C21.5,154.3,21.5,154.3,21.4,154.3z"/>
		</g>
		<g>
			<path class="st2" d="M23.2,161.8c-2.7-0.3-5.4-0.7-8.1-1.1l-2-0.3l-1-0.2c-0.3-0.1-0.6-0.1-0.9-0.1c-1.2,0-2.3,0.8-2.8,2.1
				c0,0,0,0-0.1,0l0,0c-0.1-1.4,1.2-2.9,2.8-3.1c0.4-0.1,0.8,0,1.2,0.1l1,0.2l2,0.5C17.9,160.5,20.6,161.1,23.2,161.8
				C23.3,161.7,23.3,161.7,23.2,161.8C23.3,161.8,23.3,161.8,23.2,161.8z"/>
		</g>
		<g>
			<path class="st2" d="M32.4,143.2c-5-0.7-9.9-1.5-14.9-2.3c-2.5-0.4-5-0.7-7.4-1.2c-0.6-0.1-1.3-0.3-1.8-0.4c-0.6,0-1.1,0-1.7,0.2
				c-1.1,0.4-2,1.4-2.3,2.6c0,0,0,0-0.1,0c0,0,0,0,0-0.1c0-0.6,0.3-1.3,0.6-1.8c0.4-0.6,0.9-1,1.5-1.3s1.3-0.5,2-0.5
				s1.3,0.2,1.9,0.2c2.5,0.4,4.9,0.9,7.4,1.4C22.6,141.1,27.5,142.1,32.4,143.2C32.5,143.1,32.5,143.2,32.4,143.2
				C32.5,143.2,32.4,143.2,32.4,143.2z"/>
		</g>
		<g>
			<path class="st2" d="M37.8,156.7c-0.4-0.3-0.8-0.6-1.2-0.9c-0.4-0.4-0.8-0.7-1.1-1.1c-0.7-0.7-1.2-1.7-1.5-2.6
				c-0.4-1-0.6-2-0.4-3.1c0.1-1,0.5-2,1.2-2.8h0.1l0,0l0,0c-0.1,1-0.3,1.9-0.3,2.9c0,0.9,0,1.9,0.2,2.8c0.2,0.9,0.6,1.8,1.2,2.6
				c0.2,0.4,0.6,0.8,0.9,1.1C37.1,156,37.5,156.3,37.8,156.7L37.8,156.7L37.8,156.7C37.8,156.8,37.8,156.8,37.8,156.7z"/>
		</g>
	</g>
</g>
</svg>
