<?xml version="1.0" encoding="utf-8"?>
<!-- Generator: Adobe Illustrator 22.1.0, SVG Export Plug-In . SVG Version: 6.00 Build 0)  -->
<svg version="1.1" id="Layer_1" xmlns="http://www.w3.org/2000/svg" xmlns:xlink="http://www.w3.org/1999/xlink" x="0px" y="0px"
	 viewBox="0 0 246.6 466.9" style="enable-background:new 0 0 246.6 466.9;" xml:space="preserve">
<style type="text/css">
	.st0{fill:#F0D0B3;}
	.st1{fill:#A87C4F;}
	.st2{fill:#929497;}
	.st3{fill:#E6E7E8;}
	.st4{fill:#F2F2F2;}
	.st5{fill:#754C28;}
	.st6{fill:#F1F1F2;}
	.st7{fill:#C3996B;}
	.st8{clip-path:url(#SVGID_2_);}
	.st9{opacity:0.62;}
	.st10{fill:#CFBCBB;}
	.st11{fill:#C9D4E8;}
	.st12{opacity:0.55;fill:#BBBDBF;enable-background:new    ;}
	.st13{fill:#EBC19C;}
	.st14{fill:#BBBDBF;}
	.st15{fill:#F5E0CD;}
	.st16{fill:#808184;}
	.st17{fill:#58595B;}
	.st18{opacity:0.25;}
	.st19{fill:#757E84;}
	.st20{fill:#8A5D3B;}
	.st21{fill:#9A1420;}
	.st22{fill:#BE1E2D;}
</style>
<g>
	<rect x="138.9" y="434.5" class="st0" width="9.4" height="10.4"/>
	<rect x="161.5" y="434.5" class="st0" width="9.4" height="10.4"/>
	<g>
		<g>
			<g>
				<polygon class="st1" points="159.1,466.9 174.4,466.9 174.4,463.6 197.4,466.9 212.9,466.9 212.9,455 173,442.7 159.1,442.7 
									"/>
			</g>
		</g>
	</g>
	<g>
		<g>
			<g>
				<polygon class="st1" points="150.7,466.9 135.4,466.9 135.4,463.6 112.4,466.9 96.9,466.9 96.9,455 136.8,442.7 150.7,442.7 
									"/>
			</g>
		</g>
	</g>
	<g>
		<polygon class="st2" points="207.7,56 196.8,51.9 196.8,58.2 207.7,61.2 		"/>
		<polygon class="st3" points="207.7,62.8 196.8,58.7 196.8,63.4 207.7,66.4 		"/>
	</g>
	<g>
		<path class="st4" d="M220.7,197l10.5,13.2c-0.7,1-1.7,2.2-2.8,3.4c-2.1,2.3-4.5,4.6-6.9,6.9c-4.9,4.5-10,8.8-15.1,13l-4,2.8
			l0.7,0.9c-0.4,0.3-0.7,0.6-1.1,0.8l-1.4-1.9l6-5c5.2-4.3,10.3-8.6,15.1-13c2.4-2.3,4.8-4.6,6.9-6.9c1-1.2,0.6-0.4,1.3-1.5l-8.7-11
			c-1.9-2.1-4-4.2-6.1-6.4l1.1-0.2C217.8,193.8,219.3,195.3,220.7,197z"/>
		<path class="st4" d="M245.8,207.4l0.1,0.2c0.1,0.3,0.3,0.6,0.4,1c0.2,0.7,0.3,1.2,0.3,1.8c0,0.3,0,0.6,0,0.8s0,0.4-0.1,0.6
			c-0.2,1.6-0.6,2.5-1,3.2c-0.7,1.4-1.4,2.3-2.1,3.2c-1.3,1.7-2.6,3-3.9,4.3c-2.6,2.6-5.2,4.9-7.9,7.2c-5.2,4.5-10.6,8.8-16,13
			l-6.4,4.8l-2.8-3.7c0.4-0.3,0.8-0.6,1.1-0.9l1.4,1.8l4.3-2.6c5.4-4.2,10.7-8.5,16-13c2.7-2.3,5.3-4.6,7.9-7.2
			c1.3-1.3,2.6-2.7,3.9-4.3c0.7-0.9,1.3-1.8,2.1-3.2c0.3-0.7,0.8-1.6,1-3.2c0-0.2,0-0.4,0.1-0.6c0-0.2,0-0.5,0-0.8
			c0-0.6-0.1-1.1-0.3-1.8c-0.1-0.3-0.2-0.7-0.4-1l-0.1-0.2l-0.2-0.3c-3.1-6.4-7-11.9-11.1-17l1.6-0.3c4.4,5.4,8.5,11.1,11.8,17.9
			L245.8,207.4z"/>
		<path class="st4" d="M209,241.9c-0.5,0.4-0.9,0.7-1.4,1l1.4,1.8l4.3-2.6c5.4-4.2,10.7-8.5,16-13c2.7-2.3,5.3-4.6,7.9-7.2
			c1.3-1.3,2.6-2.7,3.9-4.3c0.7-0.9,1.3-1.8,2.1-3.2c0.3-0.7,0.8-1.6,1-3.2c0-0.2,0-0.4,0.1-0.6c0-0.2,0-0.5,0-0.8
			c0-0.6-0.1-1.1-0.3-1.8c-0.1-0.3-0.2-0.7-0.4-1l-0.1-0.2l-0.2-0.3c-3.1-6.4-7-11.9-11.1-17l-16,2.7c1.5,1.6,3.1,3.2,4.5,4.8
			l10.5,13.2c-0.7,1-1.7,2.2-2.8,3.4c-2.1,2.3-4.5,4.6-6.9,6.9c-4.9,4.5-10,8.8-15.1,13l-4,2.8l0.7,0.9c0.5-0.3,0.9-0.7,1.4-1
			L209,241.9z M231.6,210.5c0-0.4,0-0.6,0-0.8l0.5,2.6l0,0l0,0l0,0c-0.1-0.2-0.2-0.4-0.3-0.7C231.7,211.2,231.7,210.9,231.6,210.5z"
			/>
		<path class="st4" d="M231.7,209.8l0.5,2.6l0,0c-0.1-0.2-0.2-0.4-0.3-0.7c-0.1-0.5-0.2-0.8-0.2-1.2
			C231.6,210.1,231.7,210,231.7,209.8z"/>
		<path class="st4" d="M232.1,212.4L232.1,212.4L232.1,212.4z"/>
		<path class="st4" d="M207.6,243c-0.4,0.3-0.8,0.6-1.1,0.9l-4.4-5.8c0.4-0.3,0.7-0.6,1.1-0.8L207.6,243z"/>
		<path class="st4" d="M204.5,236.2l4.5,5.7c-0.5,0.4-0.9,0.7-1.4,1l-4.5-5.7C203.6,236.9,204.1,236.5,204.5,236.2z"/>
	</g>
	<g>
		<path class="st5" d="M188.3,244.2c-12.8-2.2-25.1,5.1-29.5,16.9c-0.9,2.5,0.6,5.2,3.2,5.7l4.4,0.8v-0.1
			c1.7-9.5,10.8-15.9,20.3-14.3c9.5,1.7,15.9,10.8,14.3,20.3v0.1l0,0l-3.4,19.7l-3,16.9L171.2,444c-0.4,2.3,1.1,4.5,3.5,4.9l0.6,0.1
			c2.3,0.4,4.5-1.1,4.9-3.5l23.4-133.9L210,275v-0.1C212.5,260.6,202.8,246.8,188.3,244.2z"/>
		<g>
			<g>
				<path class="st0" d="M60.2,188.1L60.2,188.1c0.3-0.1,0.5-0.1,0.8-0.1c0.5,0,0.8,0,1.2,0.1s0.5,0.1,0.7,0.2"/>
				<path class="st0" d="M78.1,181.2c11.6-5.9,22.9-13.3,33.7-21.1c5.3-3.8,11.4-4.4,14-1.1l0.6,0.8c2.5,3.3,0,9.3-5.7,13.1
					C109,180.5,97,187.6,84,193.5c-6.5,2.9-13.3,5.5-20.9,6.9l-0.4,0.1h-0.2c-0.3,0.1-0.7,0.1-1,0.1c-0.8,0-1.3-0.1-1.8-0.2
					c-0.3-0.1-0.6-0.1-0.8-0.2c-0.2-0.1-0.4-0.1-0.6-0.2c-1.5-0.6-2.2-1.3-2.8-1.8c-1.2-1.1-1.9-2-2.5-2.8c-1.3-1.7-2.2-3.3-3.2-4.9
					c-1.8-3.2-3.4-6.4-4.9-9.5c-3-6.3-5.7-12.5-8.3-18.8l-1.4-4.8l9.9-4.1l1.7,4.6c2.7,6.1,5.6,12.2,8.6,18c1.6,2.9,3.2,5.8,4.8,8.5
					c0.8,1.3,1.7,2.6,2.5,3.6L78.1,181.2z"/>
				<path class="st0" d="M41.2,146.9c1.1,2.8,2.2,5.6,3.4,8.3l-6.7,2.8c-1.2-2.8-2.3-5.6-3.4-8.5L41.2,146.9z"/>
			</g>
			<path class="st6" d="M76.3,181.2c11.6-5.9,24.9-14.7,35.7-22.5c5.3-3.8,10-0.9,12.5,2.4l0.6,0.8c2.5,3.3,0,9.3-5.7,13.1
				c-11.7,7.6-23.7,14.7-36.7,20.6c-6.5,2.9-13.3,5.5-20.9,6.9l-0.4,0.1h-0.2c-0.3,0.1-0.7,0.1-1,0.1c-0.8,0-1.3-0.1-1.8-0.2
				c-0.3-0.1-0.6-0.1-0.8-0.2c-0.2-0.1-0.4-0.1-0.6-0.2c-1.5-0.6-2.2-1.3-2.8-1.8c-1.2-1.1-1.9-2-2.5-2.8c-1.3-1.7-2.2-3.3-3.2-4.9
				c-1.8-3.2-3.4-6.4-4.9-9.5c-3-6.3-5.7-12.5-8.3-18.8l-2.9-7.4l13.2-5.3l3.2,7.1c2.7,6.1,5.6,12.2,8.6,18c1.6,2.9,3.2,5.8,4.8,8.5
				c0.8,1.3,0.3,0.7,1.1,1.6L76.3,181.2z"/>
		</g>
		<g>
			<g>
				<path class="st0" d="M232.1,212.4C232.1,212.4,232.2,212.5,232.1,212.4c-0.1-0.3-0.2-0.5-0.3-0.7c-0.1-0.5-0.2-0.8-0.2-1.2
					s0-0.6,0-0.8"/>
				<path class="st0" d="M220.7,197c-8.8-9.6-18.8-18.6-29.2-26.9c-5.1-4.1-7.2-9.9-4.7-13.2l0.6-0.8c2.5-3.3,9-2.4,14.1,2.1
					c10.4,9.2,20.5,19,29.5,30c4.5,5.5,8.8,11.4,12.2,18.4l0.2,0.3l0.1,0.2c0.1,0.3,0.3,0.6,0.4,1c0.2,0.7,0.3,1.2,0.3,1.8
					c0,0.3,0,0.6,0,0.8s0,0.4-0.1,0.6c-0.2,1.6-0.6,2.5-1,3.2c-0.7,1.4-1.4,2.3-2.1,3.2c-1.3,1.7-2.6,3-3.9,4.3
					c-2.6,2.6-5.2,4.9-7.9,7.2c-5.2,4.5-10.6,8.8-16,13l-4.3,2.6l-6.6-8.5l4-2.8c5.2-4.3,10.3-8.6,15.1-13c2.4-2.3,4.8-4.6,6.9-6.9
					c1-1.2,2.1-2.3,2.8-3.4L220.7,197z"/>
				<path class="st0" d="M197.4,241.6c2.4-1.8,4.8-3.6,7.1-5.5l4.5,5.7c-2.4,1.9-4.8,3.7-7.2,5.5L197.4,241.6z"/>
			</g>
			<path class="st6" d="M221.3,198.7c-8.8-9.6-20.8-20.2-31.1-28.5c-5.1-4.1-3.5-9.4-1-12.7l0.6-0.8c2.5-3.3,9-2.4,14.1,2.1
				c10.4,9.2,20.5,19,29.5,30c4.5,5.5,8.8,11.4,12.2,18.4l0.2,0.3l0.1,0.2c0.1,0.3,0.3,0.6,0.4,1c0.2,0.7,0.3,1.2,0.3,1.8
				c0,0.3,0,0.6,0,0.8s0,0.4-0.1,0.6c-0.2,1.6-0.6,2.5-1,3.2c-0.7,1.4-1.4,2.3-2.1,3.2c-1.3,1.7-2.6,3-3.9,4.3
				c-2.6,2.6-5.2,4.9-7.9,7.2c-5.2,4.5-10.6,8.8-16,13l-6.4,4.8l-8.6-11.3l6-5c5.2-4.3,10.3-8.6,15.1-13c2.4-2.3,4.8-4.6,6.9-6.9
				c1-1.2,0.6-0.4,1.3-1.5L221.3,198.7z"/>
			<g>
				<g>
					<path class="st0" d="M185.8,230.5c-3.9-0.3-7.1,1.1-8.8,4c-0.4,0.7-0.7,1.4-0.9,2.3c-1.2,0-2.3,0.3-3.3,0.8
						c-2.2,1.2-3.9,3.4-4.5,6c-0.4,1.4-0.3,4,1,5.5c0.2,1.2,0.5,2.3,1,3.4c0.2,1,0.6,2,1.4,2.9c0.7,0.8,1.6,1.5,2.9,2l0.4-0.4
						c0.1,1.8,1,3.6,3,4.7c2.1,1.1,3.5,1,3.5,1l0.2-0.2c0.4,0.6,0.9,1.2,1.6,1.7c1.5,1,8.2,3,13.8,0.1c0.1-0.1,0.3-0.1,0.4-0.2
						c1.9-1.1,3.3-2.3,4.2-3.5c5.1-7,3-17.2-3.5-22.9C195.4,234.5,190.5,230.8,185.8,230.5z"/>
					<path class="st0" d="M199.8,241.3c0.1-2.7-7.2-10.4-14.1-10.9c-5-0.4-9,2-10,7.2s4.2,9.1,8,3.4c2.6,2.2,6.2,3.8,8.8,3.8
						L199.8,241.3z"/>
				</g>
			</g>
		</g>
		<g>
			<path class="st7" d="M128.3,267.8c2.3-3.9,8.2-7.1,13.2-7.1h27.6c5,0,10.9,3.2,13.2,7.1s2.3,10.8,0.1,15.3l-9.5,19.3
				c-2.2,4.5-8.1,8.2-13.1,8.2h-8.9c-5,0-10.9-3.7-13.1-8.2l-9.5-19.3C126,278.6,126.1,271.8,128.3,267.8z"/>
			<g>
				<path class="st7" d="M145.3,262.7l1.6,75.7l2.1,99l-10.4,0.6l-9-98.6l-6.9-75.4l0,0c-1.2-12.7,3.3-23.4,10-23.8
					C139.4,239.8,145,249.9,145.3,262.7z"/>
			</g>
			<g>
				<path class="st7" d="M188,264l-7,75.4l-9.2,98.6l-10.4-0.6l2.3-99l1.7-75.7l0,0c0.3-12.8,6-22.9,12.6-22.5
					C184.7,240.6,189.2,251.3,188,264z"/>
			</g>
		</g>
		<path class="st6" d="M155.9,146L155.9,146c0-0.1-0.2-0.1-0.5,0c-0.3,0-0.5,0-0.5,0v0.1c-5.6,0.5-33.6-2.4-41.7,13
			c0,0,6.2,19.6,8.6,24.7l-5.7,89.7c0,0,30.1,9.8,39.2,9c9.1,0.8,40.2-9.7,40.2-9.7l-6.7-89c2.4-5.1,8.4-24.7,8.4-24.7
			C189.6,143.3,161.5,146.5,155.9,146z"/>
		<g>
			<g>
				<defs>
					<path id="SVGID_1_" d="M189.7,189c-0.2-0.1-0.5-0.1-0.7-0.2c-18.7-5,0.1-38,0.1-38s0.1-0.1,0.2-0.1c-4.9-2.6-11-3.8-16.6-4.3
						c0,0.1,0,0.3,0,0.4c1,17.5-18.1,31.3-18.1,31.3s-19.5-13.8-18.5-31.3c0-0.1,0-0.1,0-0.2c-5,0.6-10.2,1.9-14.5,4.2
						c0,0,18.8,33,0.1,38l-5.3,84.5c0,0,30.1,9.8,39.2,9c9.1,0.8,40.2-9.7,40.2-9.7L189.7,189z"/>
				</defs>
				<clipPath id="SVGID_2_">
					<use xlink:href="#SVGID_1_"  style="overflow:visible;"/>
				</clipPath>
				<g class="st8">
					<g>
						<g class="st9">
							
								<rect x="24.6" y="155.1" transform="matrix(0.7071 -0.7071 0.7071 0.7071 -80.6138 125.6068)" class="st10" width="173.4" height="10.1"/>
						</g>
						<g class="st9">
							
								<rect x="38.5" y="169" transform="matrix(0.7071 -0.7071 0.7071 0.7071 -86.4025 139.5066)" class="st10" width="173.4" height="10.1"/>
						</g>
						<g class="st9">
							
								<rect x="52.5" y="182.9" transform="matrix(0.7071 -0.7071 0.7071 0.7071 -92.1206 153.4357)" class="st10" width="173.4" height="10.1"/>
						</g>
						<g class="st9">
							
								<rect x="66.4" y="196.9" transform="matrix(0.7071 -0.7071 0.7071 0.7071 -97.9387 167.4064)" class="st10" width="173.4" height="10.1"/>
						</g>
					</g>
					<g>
						<g class="st9">
							
								<rect x="80.7" y="211.2" transform="matrix(0.7071 -0.7071 0.7071 0.7071 -103.9 181.7062)" class="st10" width="173.4" height="10.1"/>
						</g>
						<g class="st9">
							
								<rect x="94.7" y="225.2" transform="matrix(0.7071 -0.7071 0.7071 0.7071 -109.6473 195.706)" class="st10" width="173.4" height="10.1"/>
						</g>
						<g class="st9">
							
								<rect x="108.6" y="239.1" transform="matrix(0.7071 -0.7071 0.7071 0.7071 -115.436 209.6059)" class="st10" width="173.4" height="10.1"/>
						</g>
						<g class="st9">
							
								<rect x="122.5" y="253" transform="matrix(0.7071 -0.7071 0.7071 0.7071 -121.2248 223.5058)" class="st10" width="173.4" height="10.1"/>
						</g>
					</g>
					<g>
						<g>
							
								<rect x="148.9" y="129.5" transform="matrix(0.7071 -0.7071 0.7071 0.7071 -114.8548 175.0803)" class="st11" width="10" height="193.4"/>
						</g>
						<g>
							
								<rect x="136" y="142.3" transform="matrix(0.7071 -0.7071 0.7071 0.7071 -127.7253 169.71)" class="st11" width="10" height="193.4"/>
						</g>
						<g>
							
								<rect x="123.1" y="155.1" transform="matrix(0.7071 -0.7071 0.7071 0.7071 -140.5252 164.369)" class="st11" width="10" height="193.4"/>
						</g>
						<g>
							
								<rect x="110.4" y="168" transform="matrix(0.7071 -0.7071 0.7071 0.7071 -153.3543 159.0987)" class="st11" width="10" height="193.4"/>
						</g>
					</g>
					<g>
						<g>
							
								<rect x="201.3" y="77" transform="matrix(0.7071 -0.7071 0.7071 0.7071 -62.426 196.7459)" class="st11" width="10" height="193.4"/>
						</g>
						<g>
							
								<rect x="188.5" y="89.9" transform="matrix(0.7071 -0.7071 0.7071 0.7071 -75.2551 191.4756)" class="st11" width="10" height="193.4"/>
						</g>
						<g>
							
								<rect x="175.6" y="102.7" transform="matrix(0.7071 -0.7071 0.7071 0.7071 -88.1257 186.1053)" class="st11" width="10" height="193.4"/>
						</g>
						<g>
							
								<rect x="162.8" y="115.6" transform="matrix(0.7071 -0.7071 0.7071 0.7071 -100.9548 180.835)" class="st11" width="10" height="193.4"/>
						</g>
					</g>
				</g>
			</g>
		</g>
		<path class="st12" d="M155.2,145.4c-3.1-1.9-12.9-6.4-20.8,6c-0.2,0.3-0.3,0.7-0.2,1.1l4.1,22.1c0.2,1.2,1.7,1.5,2.2,0.5
			c2.4-4.3,7.5-11.7,15-13.6c0.2-0.1,0.4-0.1,0.6,0c7.5,1.9,12.6,9.4,15,13.6c0.6,1.1,2,0.8,2.2-0.5l4.1-22.1c0.1-0.4,0-0.8-0.2-1.1
			c-8-12.5-17.7-8-20.8-6C156.1,145.6,155.6,145.6,155.2,145.4z"/>
		<path class="st6" d="M155.3,143.9c-3-1.8-12.2-6.1-19.7,5.7c-0.2,0.3-0.3,0.7-0.2,1.1l3.9,20.8c0.2,1.2,1.6,1.4,2.1,0.4
			c2.3-4.1,7.1-11.1,14.2-12.9c0.2,0,0.4,0,0.6,0c1.2,0.3,2.4,0.8,3.4,1.4c5.2,2.8,8.9,8.2,10.7,11.5c0.6,1,1.9,0.7,2.1-0.4
			l3.9-20.8c0.1-0.4,0-0.8-0.2-1.1c-7.5-11.8-16.7-7.5-19.7-5.7C156,144.2,155.6,144.2,155.3,143.9z"/>
		<path class="st0" d="M156.4,159h-1.6c-6.5,0-11.7-5.2-11.7-11.7V97.6c0-6.5,5.2-11.7,11.7-11.7h1.6c6.5,0,11.7,5.2,11.7,11.7v49.7
			C168,153.8,162.8,159,156.4,159z"/>
		<path class="st13" d="M168,139.9V138h-25v2.2C147.5,142.4,155.8,144.8,168,139.9z"/>
		<path class="st14" d="M116.3,30.6l3,17.1c0,0-7.7,19.6-5.5,44.9c0,0-16.6-26.6-8.2-55.7c8.7-30.5,33.2-42.5,43.5-34.4
			C149.1,2.5,127.3,5.2,116.3,30.6z"/>
		<path class="st14" d="M194.3,30.6l-3,17.1c0,0,7.7,19.6,5.5,44.9c0,0,16.6-26.6,8.2-55.7c-8.7-30.5-33.2-42.5-43.5-34.4
			C161.5,2.5,183.3,5.2,194.3,30.6z"/>
		<g>
			<g>
				<path class="st15" d="M198.3,76.7c-1.7,2.8-3.1,6.4-3.5,9c-0.3,2.1-0.2,5.3,0.7,5.9c0.4,0.3,1.2-0.1,1.6-0.4
					c2.3-1.4,3.8-4.5,3.8-8C201,80.4,200,78,198.3,76.7z"/>
				<path class="st15" d="M204.5,67c-3.7-0.7-9.4,3.8-9.4,3.8c-6.6,5.6-2.7,31.1,2.9,30.1c5.7-1,5.1-9.1,5.1-9.1
					c2.8-1.7,5.2-9.2,5.2-9.2C213.2,68.7,204.5,67,204.5,67z M207.2,75.8c-0.2,1-0.6,2-1,2.9l-1.8-0.8c0.4-0.9,0.7-1.7,0.9-2.5
					c0.1-0.6,0.2-1.5-0.1-2.2c-0.3-0.6-0.8-1.1-1.3-1.2c-0.4-0.1-0.8,0-1.4,0.2c-0.9,0.4-2,1.4-3,2.8c2.2,1.6,3.5,4.7,3.5,8.3
					c-0.1,4.2-1.9,7.9-4.8,9.6c-0.9,0.5-1.7,0.8-2.4,0.8c-0.5,0-1-0.1-1.4-0.4c-2.3-1.6-1.7-6.9-1.6-7.9c0.8-4.9,5-13.5,8.9-15
					c0.6-0.2,1.5-0.5,2.4-0.4c1.2,0.2,2.3,1.1,2.9,2.4C207.4,73.4,207.5,74.6,207.2,75.8z"/>
				<path class="st0" d="M204.1,70c-0.9-0.2-1.8,0.1-2.4,0.4c-3.9,1.5-8.1,10.2-8.9,15c-0.2,1-0.8,6.4,1.6,7.9
					c0.4,0.3,0.9,0.4,1.4,0.4c0.7,0,1.5-0.3,2.4-0.8c2.9-1.7,4.7-5.4,4.8-9.6c0-3.6-1.2-6.6-3.5-8.3c1-1.4,2-2.4,3-2.8
					c0.6-0.2,1-0.3,1.4-0.2c0.5,0.1,1.1,0.6,1.3,1.2c0.3,0.8,0.3,1.6,0.1,2.2c-0.2,0.8-0.5,1.6-0.9,2.5l1.8,0.8
					c0.4-0.9,0.8-1.8,1-2.9c0.3-1.3,0.2-2.4-0.3-3.4C206.4,71.1,205.3,70.2,204.1,70z M200.9,83.3c0,3.5-1.5,6.6-3.8,8
					c-0.4,0.3-1.2,0.7-1.6,0.4c-0.9-0.6-1-3.8-0.7-5.9c0.4-2.6,1.9-6.2,3.5-9C200,78,201,80.4,200.9,83.3z"/>
			</g>
			<g>
				<path class="st15" d="M112.6,76.7c1.7,2.8,3.1,6.4,3.5,9c0.3,2.1,0.2,5.3-0.7,5.9c-0.4,0.3-1.2-0.1-1.6-0.4
					c-2.3-1.4-3.8-4.5-3.8-8C110,80.4,110.9,78,112.6,76.7z"/>
				<path class="st15" d="M102.6,82.6c0,0,2.4,7.4,5.2,9.2c0,0-0.5,8.2,5.1,9.1c5.7,1,9.5-24.5,2.9-30.1c0,0-5.7-4.5-9.4-3.8
					C106.5,67,97.7,68.7,102.6,82.6z M104,72.4c0.5-1.3,1.6-2.2,2.9-2.4c0.9-0.2,1.8,0.1,2.4,0.4c3.9,1.5,8.1,10.2,8.9,15
					c0.2,1,0.8,6.4-1.6,7.9c-0.4,0.3-0.9,0.4-1.4,0.4c-0.7,0-1.5-0.3-2.4-0.8c-2.9-1.7-4.7-5.4-4.8-9.6c0-3.6,1.2-6.6,3.5-8.3
					c-1-1.4-2-2.4-3-2.8c-0.6-0.2-1-0.3-1.4-0.2c-0.5,0.1-1.1,0.6-1.3,1.2c-0.3,0.8-0.3,1.6-0.1,2.2c0.2,0.8,0.5,1.6,0.9,2.5
					l-1.8,0.8c-0.4-0.9-0.8-1.8-1-2.9C103.5,74.6,103.6,73.4,104,72.4z"/>
				<path class="st0" d="M104,72.4c-0.4,1-0.5,2.2-0.3,3.4c0.2,1,0.6,2,1,2.9l1.8-0.8c-0.4-0.9-0.7-1.7-0.9-2.5
					c-0.1-0.6-0.2-1.5,0.1-2.2c0.3-0.6,0.8-1.1,1.3-1.2c0.4-0.1,0.8,0,1.4,0.2c0.9,0.4,2,1.4,3,2.8c-2.2,1.6-3.5,4.7-3.5,8.3
					c0.1,4.2,1.9,7.9,4.8,9.6c0.9,0.5,1.7,0.8,2.4,0.8c0.5,0,1-0.1,1.4-0.4c2.3-1.6,1.7-6.9,1.6-7.9c-0.8-4.9-5-13.5-8.9-15
					c-0.6-0.2-1.5-0.5-2.4-0.4C105.6,70.2,104.5,71.1,104,72.4z M112.6,76.7c1.7,2.8,3.1,6.4,3.5,9c0.3,2.1,0.2,5.3-0.7,5.9
					c-0.4,0.3-1.2-0.1-1.6-0.4c-2.3-1.4-3.8-4.5-3.8-8C110,80.4,110.9,78,112.6,76.7z"/>
			</g>
		</g>
		<path class="st15" d="M155.5,140.2L155.5,140.2c-19.7,0-42-17.7-42-37.4V37.6c0-19.7,15.9-35.6,35.6-35.6h12.7
			c19.7,0,35.6,15.9,35.6,35.6v65.3C197.4,122.5,175.1,140.2,155.5,140.2z"/>
		<g>
			<path class="st13" d="M148.4,127.9c1.9,2,4.3,3.2,7,3.2s5.2-1.2,7-3.2c-2,0.9-4.4,1.4-7,1.4S150.4,128.8,148.4,127.9z"/>
			<path class="st13" d="M134.6,103.5c-1.9,2-2.9,4.6-2.7,7.3c0.2,2.7,1.6,5.1,3.8,6.7c-1.1-1.9-1.8-4.3-2-6.9
				C133.5,108,133.8,105.6,134.6,103.5z"/>
			<path class="st13" d="M176.4,103.5c1.9,2,2.9,4.6,2.7,7.3c-0.2,2.7-1.6,5.1-3.8,6.7c1.1-1.9,1.8-4.3,2-6.9
				C177.5,108,177.2,105.6,176.4,103.5z"/>
		</g>
		<path class="st13" d="M174.6,39.6c-4.7,2-10.9,3.3-17.7,3.3s-13-1.2-17.7-3.2c5,0.9,11.1,1.4,17.7,1.4
			C163.4,41,169.5,40.5,174.6,39.6z"/>
		<path class="st16" d="M119.2,60.6c-0.7,0.5-1.6-0.4-1-1.1c2.4-3,5.7-5.3,9.5-6.3s7.7-0.7,11.4,0.7c0.8,0.3,0.5,1.5-0.3,1.5
			c-3.2-0.1-6.6,0.3-10.1,1.2C125.1,57.6,122,58.9,119.2,60.6z"/>
		<path class="st16" d="M173.2,57c-0.9,0.1-1.2-1.1-0.4-1.5c3.5-1.7,7.4-2.4,11.3-1.7c3.9,0.7,7.3,2.7,10,5.5
			c0.6,0.6-0.2,1.6-0.9,1.2c-2.9-1.4-6.1-2.5-9.7-3.2C179.8,56.7,176.4,56.6,173.2,57z"/>
		<path class="st13" d="M155.5,97.6l4.3-0.8c0.8,0,1.3-1,0.7-1.6l-4.3-4.3c-0.4-0.4-1-0.4-1.3,0l-4.3,4.3c-0.6,0.6-0.2,1.6,0.7,1.6
			L155.5,97.6z"/>
		<circle class="st17" cx="133.8" cy="71.1" r="5"/>
		<circle class="st17" cx="176.2" cy="71.1" r="5"/>
		<g>
			<g class="st18">
				<path class="st19" d="M179,69.5c-0.5,0-1.1,0-1.6,0c-3.7,0-6.9,0.6-9.4,1.6c-2.1,0.7-4.6,2.2-7.5,1.7c-2.8-0.5-3.7-0.6-4.7-0.6
					s-1.7,0.2-4.5,0.6c-3,0.5-5.4-1-7.5-1.7c-2.5-1.1-5.7-1.6-9.4-1.6c-0.5,0-1.1,0-1.6,0c-2.2,0-8.8,0.5-21.6,5.1v3.2
					c0,0,1.6,0.5,1.7,2.7c0.8,9.1,2.1,11.9,3.2,14c0.3,0.6,0.6,1.1,0.9,1.6V96c0.7,1,1.4,1.8,2.2,2.6c3,2.8,7.2,4.3,12.2,4.3
					c0.4,0,0.9,0,1.3,0c5.1-0.3,10.4-3.3,14-8c2-2.6,5-7.8,5-17.1c0,0,0.5-2,4-2s4.1,2,4.1,2c0,9.3,3,14.4,5,17.1
					c3.6,4.7,9,7.8,14,8c0.4,0,0.9,0,1.3,0c5,0,9.2-1.5,12.2-4.3c0.8-0.8,1.6-1.7,2.2-2.6v0.1c0.3-0.5,0.6-1,0.9-1.6
					c1.1-2.1,2.4-4.9,3.2-14c0.2-2.2,1.7-2.7,1.7-2.7v-3.2C187.8,70,181.1,69.5,179,69.5z M132.7,101.1c-8.8,0.4-16.9-3.6-17.3-17.5
					c0,0,0-6.8,5.8-9.8c4.4-2.3,25-6,27.6,5.6C151.2,90.8,141.2,100.6,132.7,101.1z M179,101.1c-8.5-0.4-18.6-10.3-16-21.8
					s23.1-7.8,27.6-5.6c5.8,3,5.8,9.8,5.8,9.8C195.9,97.4,187.7,101.5,179,101.1z"/>
			</g>
			<g>
				<path class="st20" d="M179,66.2c-0.5,0-1.1,0-1.6,0c-3.7,0-6.9,0.6-9.4,1.6c-2.1,0.7-4.6,2.2-7.5,1.7c-2.8-0.5-3.7-0.6-4.7-0.6
					s-1.7,0.2-4.5,0.6c-3,0.5-5.4-1-7.5-1.7c-2.5-1.1-5.7-1.6-9.4-1.6c-0.5,0-1.1,0-1.6,0c-2.2,0-8.8,0.5-21.6,5.1v3.2
					c0,0,1.6,0.5,1.7,2.7c0.8,9.1,2.1,11.9,3.2,14c0.3,0.6,0.6,1.1,0.9,1.6v-0.1c0.7,1,1.4,1.8,2.2,2.6c3,2.8,7.2,4.3,12.2,4.3
					c0.4,0,0.9,0,1.3,0c5.1-0.3,10.4-3.3,14-8c2-2.6,5-7.8,5-17.1c0,0,0.5-2,4-2s4.1,2,4.1,2c0,9.3,3,14.4,5,17.1
					c3.6,4.7,9,7.8,14,8c0.4,0,0.9,0,1.3,0c5,0,9.2-1.5,12.2-4.3c0.8-0.8,1.6-1.7,2.2-2.6v0.1c0.3-0.5,0.6-1,0.9-1.6
					c1.1-2.1,2.4-4.9,3.2-14c0.2-2.2,1.7-2.7,1.7-2.7v-3.2C187.8,66.7,181.1,66.2,179,66.2z M132.7,97.7
					c-8.8,0.4-16.9-3.6-17.3-17.5c0,0,0-6.8,5.8-9.8c4.4-2.3,25-6,27.6,5.6C151.2,87.5,141.2,97.3,132.7,97.7z M179,97.7
					c-8.5-0.4-18.6-10.3-16-21.8s23.1-7.8,27.6-5.6c5.8,3,5.8,9.8,5.8,9.8C195.9,94.1,187.7,98.2,179,97.7z"/>
			</g>
		</g>
		<ellipse class="st7" cx="155.5" cy="116.3" rx="11.5" ry="2.7"/>
		<path class="st19" d="M155.8,103.5c-21.7,0-17.5,15.1-17.5,15.1l2.6-5h29.6l2.6,5C173.3,118.7,177.5,103.5,155.8,103.5z"/>
		<g>
			<polygon class="st2" points="102.6,56 113.5,51.9 113.5,58.2 102.6,61.2 			"/>
			<polygon class="st3" points="102.6,62.8 113.5,58.7 113.5,63.4 102.6,66.4 			"/>
		</g>
		<g>
			<g>
				<polygon class="st21" points="170,158.1 159.1,160.5 159.1,167 170,169.5 				"/>
				<polygon class="st21" points="142.4,169.5 153.3,167 153.3,160.5 142.4,158.1 				"/>
			</g>
			<path class="st22" d="M159.7,167.7h-6.9c-0.9,0-1.6-0.7-1.6-1.6v-4.7c0-0.9,0.7-1.6,1.6-1.6h6.9c0.9,0,1.6,0.7,1.6,1.6v4.7
				C161.3,167,160.6,167.7,159.7,167.7z"/>
		</g>
		<g>
			<path class="st0" d="M43,127.4c4.9,5.9,4.1,14.6-1.8,19.5s-14.6,4.1-19.5-1.8c-4.9-5.9-4.1-14.6,1.8-19.5S38.1,121.5,43,127.4z"
				/>
			<path class="st0" d="M45.4,132.1l-5-16.4c-0.6-2.1-2.8-3.2-4.9-2.6c-2.1,0.6-3.2,2.8-2.6,4.9l5,16.4L45.4,132.1z"/>
			<path class="st0" d="M32.4,123.1l-23.6-4.2c-2.1-0.4-4.2,1-4.5,3.2c-0.4,2.1,1,4.2,3.2,4.5l23.6,4.2L32.4,123.1z"/>
			<path class="st0" d="M28.2,129.5l-23.6-4.2c-2.1-0.4-4.2,1-4.5,3.2c-0.4,2.1,1,4.2,3.2,4.5l23.5,4.2L28.2,129.5z"/>
			<path class="st0" d="M30.6,135.8L7,131.6c-2.1-0.4-4.2,1-4.5,3.2c-0.4,2.1,1,4.2,3.2,4.5l23.6,4.2L30.6,135.8z"/>
			<path class="st0" d="M31,143l-19-3.4c-1.7-0.3-3.3,0.8-3.6,2.5s0.8,3.3,2.5,3.6l19.1,3.4L31,143z"/>
			<g>
				<path class="st13" d="M22.6,128.5c-4-0.6-8.1-1.2-12.1-1.8c-2-0.3-4-0.6-6-1c-0.9-0.2-1.8,0-2.6,0.4c-0.8,0.5-1.4,1.3-1.8,2.2
					c0,0,0,0-0.1,0l0,0c0-1,0.6-2.1,1.5-2.8c0.9-0.7,2.1-1,3.2-0.9c2,0.3,4,0.8,6,1.2C14.6,126.7,18.6,127.6,22.6,128.5
					C22.6,128.4,22.7,128.5,22.6,128.5L22.6,128.5z"/>
			</g>
			<g>
				<path class="st13" d="M21.4,134.2c-3.4-0.5-6.8-1-10.3-1.5l-2.6-0.4l-1.3-0.2C6.8,132,6.4,132,6,132c-1.5,0-3,1.1-3.6,2.7
					c0,0,0,0-0.1,0l0,0c0-1.8,1.6-3.5,3.6-3.7c1-0.1,1.8,0.2,2.7,0.3l2.5,0.5C14.7,132.7,18.1,133.4,21.4,134.2
					C21.5,134.2,21.5,134.2,21.4,134.2C21.5,134.2,21.5,134.2,21.4,134.2z"/>
			</g>
			<g>
				<path class="st13" d="M23.2,141.7c-2.7-0.3-5.4-0.7-8.1-1.1l-2-0.3l-1-0.2c-0.3-0.1-0.6-0.1-0.9-0.1c-1.2,0-2.3,0.8-2.8,2.1
					c0,0,0,0-0.1,0l0,0c-0.1-1.4,1.2-2.9,2.8-3.1c0.4-0.1,0.8,0,1.2,0.1l1,0.2l2,0.5C17.9,140.4,20.6,141,23.2,141.7
					C23.3,141.6,23.3,141.6,23.2,141.7C23.3,141.7,23.3,141.7,23.2,141.7z"/>
			</g>
			<g>
				<path class="st13" d="M32.4,123.1c-5-0.7-9.9-1.5-14.9-2.3c-2.5-0.4-5-0.7-7.4-1.2c-0.6-0.1-1.3-0.3-1.8-0.4
					c-0.6,0-1.1,0-1.7,0.2c-1.1,0.4-2,1.4-2.3,2.6c0,0,0,0-0.1,0c0,0,0,0,0-0.1c0-0.6,0.3-1.3,0.6-1.8c0.4-0.6,0.9-1,1.5-1.3
					s1.3-0.5,2-0.5s1.3,0.2,1.9,0.2c2.5,0.4,4.9,0.9,7.4,1.4C22.6,121,27.5,122,32.4,123.1C32.5,123.1,32.5,123.1,32.4,123.1
					C32.5,123.1,32.4,123.1,32.4,123.1z"/>
			</g>
			<g>
				<path class="st13" d="M37.8,136.7c-0.4-0.3-0.8-0.6-1.2-0.9c-0.4-0.4-0.8-0.7-1.1-1.1c-0.7-0.7-1.2-1.7-1.5-2.6
					c-0.4-1-0.6-2-0.4-3.1c0.1-1,0.5-2,1.2-2.8c0,0,0,0,0.1,0l0,0l0,0c-0.1,1-0.3,1.9-0.3,2.9c0,0.9,0,1.9,0.2,2.8
					c0.2,0.9,0.6,1.8,1.2,2.6c0.2,0.4,0.6,0.8,0.9,1.1C37.1,135.9,37.5,136.2,37.8,136.7L37.8,136.7
					C37.8,136.6,37.8,136.6,37.8,136.7L37.8,136.7z"/>
			</g>
		</g>
	</g>
</g>
</svg>
