<?xml version="1.0" encoding="utf-8"?>
<!-- Generator: Adobe Illustrator 22.1.0, SVG Export Plug-In . SVG Version: 6.00 Build 0)  -->
<svg version="1.1" id="Layer_1" xmlns="http://www.w3.org/2000/svg" xmlns:xlink="http://www.w3.org/1999/xlink" x="0px" y="0px"
	 viewBox="0 0 149.1 478" style="enable-background:new 0 0 149.1 478;" xml:space="preserve">
<style type="text/css">
	.st0{fill:#F0D0B3;}
	.st1{fill:#A87C4F;}
	.st2{fill:#F1F1F2;}
	.st3{fill:#C3996B;}
	.st4{clip-path:url(#SVGID_2_);}
	.st5{opacity:0.62;}
	.st6{fill:#CFBCBB;}
	.st7{fill:#C9D4E8;}
	.st8{fill:#754C28;}
	.st9{opacity:0.55;fill:#BBBDBF;enable-background:new    ;}
	.st10{fill:#EBC19C;}
	.st11{fill:#BBBDBF;}
	.st12{fill:#F5E0CD;}
	.st13{fill:#808184;}
	.st14{fill:url(#SVGID_3_);}
	.st15{fill:#58595B;}
	.st16{opacity:0.25;}
	.st17{fill:#757E84;}
	.st18{fill:#8A5D3B;}
	.st19{fill:#929497;}
	.st20{fill:#E6E7E8;}
	.st21{fill:#9A1420;}
	.st22{fill:#BE1E2D;}
	.st23{fill:#F2F2F2;}
</style>
<title>img_old_over_60</title>
<g id="Layer_1_1_">
	<rect x="61.6" y="444.8" class="st0" width="9.7" height="10.7"/>
	<rect x="84.7" y="444.8" class="st0" width="9.7" height="10.7"/>
	<polygon class="st1" points="82.3,478 97.9,478 97.9,474.6 121.5,478 137.3,478 137.3,465.8 96.4,453.2 82.3,453.2 	"/>
	<polygon class="st1" points="73.6,478 58,478 58,474.6 34.4,478 18.6,478 18.6,465.8 59.5,453.2 73.6,453.2 	"/>
	<path class="st0" d="M14.9,222.4L14.9,222.4c0.1-0.2,0.1-0.5,0.2-0.7c0-0.4,0-0.8,0-1.2c0-0.3-0.1-0.5-0.2-0.8"/>
	<path class="st0" d="M23.8,204.8c7.5-11.3,15.8-22.1,24.9-32.1c4.4-5,5.6-11.2,2.5-14.1l-0.7-0.7c-3.1-2.9-9.5-0.9-13.9,4.5
		c-9.1,11.1-17.4,22.9-24.7,35.3c-3.9,6.5-7,13.4-9.2,20.6l-0.1,0.3l-0.1,0.2c-0.1,0.3-0.2,0.7-0.2,1c-0.1,0.6-0.1,1.3,0,1.9
		c0,0.3,0.1,0.6,0.1,0.8s0.1,0.4,0.2,0.6c0.3,1.1,0.9,2.1,1.5,3.1c0.8,1,1.7,2,2.6,2.9c1.5,1.3,3.1,2.6,4.7,3.7
		c3.1,2.2,6.1,4.1,9.2,5.9c6.1,3.7,12.2,7.1,18.4,10.4l4.8,1.9l5.2-9.7l-4.5-2.2c-5.9-3.4-11.8-6.9-17.5-10.6
		c-2.8-1.9-5.6-3.8-8.2-5.8c-1.2-0.9-2.3-1.9-3.4-2.9L23.8,204.8z"/>
	<path class="st0" d="M55,245.9c-2.7-1.4-5.4-2.8-8.1-4.3l-3.5,6.6c2.7,1.5,5.5,2.9,8.3,4.4L55,245.9z"/>
	<path class="st2" d="M23.6,206.7c7.2-11.3,17.5-23.9,26.5-34.2c4.4-5,1.9-10.1-1.2-13l-0.7-0.7c-3.1-2.9-9.5-0.9-13.9,4.5
		c-9.1,11.1-17.4,22.9-24.7,35.3c-3.9,6.5-6.9,13.4-9.2,20.6l-0.1,0.4l-0.1,0.2c-0.1,0.3-0.2,0.7-0.2,1c-0.1,0.6-0.1,1.2,0,1.9
		c0,0.3,0.1,0.5,0.1,0.8c0,0.2,0.1,0.4,0.2,0.6c0.3,1.1,0.9,2.1,1.5,3.1c0.8,1,1.7,2,2.6,2.9c1.5,1.3,3.1,2.6,4.7,3.7
		c3.1,2.2,6.1,4.1,9.2,5.9c6.1,3.7,12.2,7.1,18.4,10.4l7.2,3.7l6.8-12.9l-6.9-4c-5.9-3.4-11.8-6.9-17.5-10.6
		c-2.8-1.9-5.6-3.8-8.2-5.8c-1.3-1-0.6-0.3-1.6-1.3L23.6,206.7z"/>
	<path class="st0" d="M64.8,232.7c3.9-0.9,7.3-0.1,9.6,2.6c0.5,0.6,1,1.4,1.3,2.1c1.2-0.2,2.4-0.1,3.5,0.3c2.5,0.9,4.6,2.8,5.6,5.2
		c0.8,1.8,0.8,3.9-0.1,5.7c0,1.2-0.1,2.4-0.4,3.6c0,1.1-0.4,2.2-1,3.2c-0.7,1-1.5,1.9-2.5,2.5l-0.4-0.3c0.3,2-0.6,4-2.2,5.2
		c-0.9,0.8-2.1,1.4-3.3,1.6l-0.2-0.2c-0.3,0.8-0.7,1.5-1.3,2c-1.3,1.3-7.8,4.5-13.9,2.5c-0.2,0-0.3-0.1-0.4-0.2
		c-1.8-0.6-3.4-1.5-4.8-2.8c-6.3-6.2-5.9-16.8-0.4-23.7C55.9,238.4,60.1,233.8,64.8,232.7z"/>
	<path class="st0" d="M52.6,246c-0.6-2.7,5.5-11.7,12.3-13.3c5-1.2,9.4,0.5,11.3,5.6s-2.7,9.9-7.5,4.9c-2.3,2.7-5.6,4.9-8.3,5.3
		L52.6,246z"/>
	<path class="st0" d="M134.3,227.7C134.3,227.7,134.3,227.8,134.3,227.7c0-0.2,0-0.5,0-0.7c0-0.4,0.1-0.8,0.2-1.2
		c0.1-0.3,0.2-0.5,0.3-0.7"/>
	<path class="st0" d="M128.4,209c-5.5-12.4-11.9-24.4-19.3-35.8c-3.6-5.6-3.7-12-0.1-14.3l0.8-0.6c3.6-2.4,9.5,0.6,13,6.7
		c7.2,12.5,13.4,25.5,18.6,38.9c2.8,7,4.7,14.4,5.7,21.8l0.1,0.4v0.2c0,0.4,0,0.7,0,1.1c0,0.6-0.1,1.2-0.3,1.8
		c-0.1,0.3-0.2,0.6-0.2,0.8c-0.1,0.2-0.2,0.4-0.3,0.6c-0.5,1-1.2,2-2,2.8c-0.9,0.9-2,1.7-3.1,2.4c-1.7,1.1-3.4,2-5.3,2.9
		c-3.4,1.6-6.7,3-10.1,4.3c-6.6,2.7-13.2,5-19.8,7.3l-5,1.1L97.5,241l4.8-1.4c6.4-2.4,12.8-4.9,19-7.6c3.1-1.4,6.1-2.8,9-4.4
		c1.3-0.7,2.6-1.5,3.8-2.3L128.4,209z"/>
	<path class="st0" d="M90.9,244.4c2.9-0.9,5.8-1.9,8.7-2.9l2.4,7.1c-2.9,1-5.9,2-8.9,2.9L90.9,244.4z"/>
	<path class="st2" d="M128.3,210.8c-5.3-12.3-13.3-26.5-20.6-38c-3.6-5.6-0.3-10.3,3.3-12.7l0.8-0.6c3.6-2.4,9.5,0.6,13,6.7
		c7.2,12.4,13.4,25.4,18.6,38.8c2.7,7,4.6,14.4,5.6,21.8l0.1,0.4v0.2c0,0.3,0,0.7,0,1c0,0.6-0.1,1.3-0.3,1.9
		c-0.1,0.3-0.2,0.6-0.2,0.8s-0.2,0.4-0.3,0.6c-0.5,1-1.2,2-2,2.8c-0.9,0.9-2,1.7-3.1,2.4c-1.7,1.1-3.4,2-5.3,2.9
		c-3.4,1.6-6.7,3-10.1,4.3c-6.6,2.6-13.2,5-19.8,7.2l-7.7,2.5L95.8,240l7.5-2.8c6.4-2.4,12.8-4.9,19-7.6c3.1-1.4,6.1-2.8,9-4.4
		c1.4-0.8,0.7-0.2,1.8-1L128.3,210.8z"/>
	<path class="st0" d="M83.4,229.8c-3.7-1.6-7.2-1.3-9.9,1c-0.6,0.6-1.2,1.2-1.6,1.9c-1.1-0.4-2.3-0.5-3.5-0.3
		c-2.6,0.4-4.9,2-6.4,4.2c-1.1,1.7-1.4,3.7-0.8,5.6c-0.2,1.2-0.3,2.4-0.2,3.6c-0.2,1.1,0,2.2,0.4,3.3c0.5,1.1,1.2,2.1,2,2.9l0.5-0.2
		c-0.6,1.9-0.1,4.1,1.3,5.5c0.8,1,1.9,1.7,3.1,2.1l0.2-0.2c0.2,0.8,0.5,1.6,1,2.2c1.1,1.5,7,5.7,13.3,4.7l0.5-0.1
		c1.9-0.3,3.6-1,5.2-2c7.2-5.1,8.6-15.6,4.2-23.3C91.3,236.8,87.8,231.6,83.4,229.8z"/>
	<path class="st0" d="M93.3,244.9c1-2.6-3.5-12.4-10-15.2c-4.8-2-9.3-1-12,3.7s1,10.2,6.6,6c1.8,3,4.8,5.7,7.3,6.6L93.3,244.9z"/>
	<path class="st3" d="M50.8,274.2c2.3-4,8.4-7.3,13.5-7.3h28.3c5.1,0,11.2,3.3,13.5,7.3s2.3,11,0.1,15.6l-9.7,19.7
		c-2.7,4.9-7.8,8.1-13.4,8.4H74c-5.6-0.3-10.7-3.5-13.4-8.4l-9.7-19.7C48.4,285.2,48.4,278.2,50.8,274.2z"/>
	<path class="st3" d="M68.1,268.9l1.6,77.5l2.1,101.3l-10.6,0.6L52,347.5l-7-77.2l0,0c-1.2-13,3.4-24,10.2-24.4
		S67.8,255.9,68.1,268.9z"/>
	<path class="st3" d="M111.8,270.3l-7.2,77.2l-9.4,100.9l-10.6-0.6l2.3-101.3l1.7-77.5l0,0c0.3-13.1,6.1-23.5,12.9-23.1
		S113,257.2,111.8,270.3z"/>
	<path class="st2" d="M79,149.5L79,149.5l-0.5-0.1H78v0.1c-5.7,0.5-34.4-2.4-42.7,13.3c0,0,6.4,20.1,8.8,25.2l-5.8,91.9
		c0,0,30.9,10,40.2,9.2c9.3,0.8,41.2-10,41.2-10l-6.8-91.1c2.4-5.2,8.6-25.2,8.6-25.2C113.5,146.7,84.7,150,79,149.5z"/>
	<g>
		<g>
			<defs>
				<path id="SVGID_1_" d="M113.6,193.5l-0.7-0.2c-19.1-5.1,0.1-38.9,0.1-38.9l0.2-0.1c-5.1-2.7-11.3-3.9-17-4.4v0.5
					c1,17.9-18.5,32-18.5,32s-20-14.1-18.9-32c0-0.1,0-0.1,0-0.2c-5.2,0.5-10.2,2-14.8,4.3c0,0,19.2,33.8,0.1,38.9l-5.5,86.5
					c0,0,30.9,10,40.2,9.2c9.3,0.8,41.2-10,41.2-10L113.6,193.5z"/>
			</defs>
			<clipPath id="SVGID_2_">
				<use xlink:href="#SVGID_1_"  style="overflow:visible;"/>
			</clipPath>
			<g class="st4">
				<g class="st5">
					
						<rect x="-55.5" y="158.7" transform="matrix(0.7071 -0.7071 0.7071 0.7071 -106.1493 71.4823)" class="st6" width="177.5" height="10.3"/>
				</g>
				<g class="st5">
					
						<rect x="-41.2" y="173" transform="matrix(0.7071 -0.7071 0.7071 0.7071 -112.0499 85.7779)" class="st6" width="177.5" height="10.3"/>
				</g>
				<g class="st5">
					
						<rect x="-26.9" y="187.3" transform="matrix(0.7071 -0.7071 0.7071 0.7071 -117.9444 100.0795)" class="st6" width="177.5" height="10.3"/>
				</g>
				<g class="st5">
					
						<rect x="-12.7" y="201.5" transform="matrix(0.7071 -0.7071 0.7071 0.7071 -123.8822 114.2769)" class="st6" width="177.5" height="10.3"/>
				</g>
				<g class="st5">
					
						<rect x="2" y="216.2" transform="matrix(0.7071 -0.7071 0.7071 0.7071 -129.9604 128.9826)" class="st6" width="177.5" height="10.3"/>
				</g>
				<g class="st5">
					
						<rect x="16.3" y="230.5" transform="matrix(0.7071 -0.7071 0.7071 0.7071 -135.855 143.2783)" class="st6" width="177.5" height="10.3"/>
				</g>
				<g class="st5">
					
						<rect x="30.5" y="244.8" transform="matrix(0.7071 -0.7071 0.7071 0.7071 -141.8221 157.5464)" class="st6" width="177.5" height="10.3"/>
				</g>
				<g class="st5">
					
						<rect x="44.8" y="259" transform="matrix(0.7071 -0.7071 0.7071 0.7071 -147.6933 171.7773)" class="st6" width="177.5" height="10.3"/>
				</g>
				<g>
					
						<rect x="71.8" y="132.5" transform="matrix(0.7071 -0.7071 0.7071 0.7071 -141.1847 122.1646)" class="st7" width="10.2" height="198"/>
				</g>
				<g>
					
						<rect x="58.6" y="145.7" transform="matrix(0.7071 -0.7071 0.7071 0.7071 -154.3857 116.7394)" class="st7" width="10.2" height="198"/>
				</g>
				<g>
					
						<rect x="45.5" y="158.8" transform="matrix(0.7071 -0.7071 0.7071 0.7071 -167.4867 111.2668)" class="st7" width="10.2" height="198"/>
				</g>
				<g>
					
						<rect x="32.3" y="172" transform="matrix(0.7071 -0.7071 0.7071 0.7071 -180.6817 105.8356)" class="st7" width="10.2" height="198"/>
				</g>
				<g>
					
						<rect x="125.5" y="78.8" transform="matrix(0.7071 -0.7071 0.7071 0.7071 -87.4804 144.3902)" class="st7" width="10.2" height="198"/>
				</g>
				<g>
					
						<rect x="112.3" y="92" transform="matrix(0.7071 -0.7071 0.7071 0.7071 -100.6856 138.9693)" class="st7" width="10.2" height="198"/>
				</g>
				<g>
					
						<rect x="99.2" y="105.1" transform="matrix(0.7071 -0.7071 0.7071 0.7071 -113.7866 133.4967)" class="st7" width="10.2" height="198"/>
				</g>
				<g>
					
						<rect x="86" y="118.3" transform="matrix(0.7071 -0.7071 0.7071 0.7071 -126.9816 128.0656)" class="st7" width="10.2" height="198"/>
				</g>
			</g>
		</g>
	</g>
	<path class="st8" d="M66.3,257.5c-12.9-2.3-25.6,5-30.2,17.3c-0.8,2.3,0.3,4.8,2.6,5.6c0.2,0.1,0.5,0.2,0.7,0.2l4.5,0.8v-0.1
		c2-9.7,11.4-16,21.2-14.1c9.4,1.9,15.6,10.8,14.2,20.2v0.1l0,0l-3.5,20.1l-3,17.3L48.8,462c-0.4,2.4,1.2,4.6,3.5,5l0.6,0.1
		c2.4,0.4,4.6-1.2,5-3.5l23.9-137l6.5-37.4V289C91.1,274.2,81.2,260.1,66.3,257.5L66.3,257.5z"/>
	<path class="st9" d="M78.3,148.8c-3.2-2-13.2-6.6-21.3,6.1c-0.2,0.3-0.3,0.8-0.2,1.1l4.2,22.6c0,0.7,0.6,1.2,1.3,1.1
		c0.4,0,0.8-0.3,1-0.6c2.5-4.4,7.7-12,15.4-14c0.2-0.1,0.4-0.1,0.6,0c7.6,2,12.9,9.6,15.4,14c0.3,0.6,1.1,0.8,1.7,0.5
		c0.4-0.2,0.6-0.6,0.6-1l4.2-22.6c0.1-0.4,0-0.8-0.2-1.1c-8.2-12.7-18.1-8.1-21.3-6.1C79.1,149,78.6,149,78.3,148.8z"/>
	<path class="st2" d="M78.3,147.4c-3.1-1.9-12.5-6.2-20.1,5.8c-0.2,0.3-0.3,0.7-0.2,1.1l4,21.3c0,0.6,0.6,1.1,1.2,1.1
		c0.4,0,0.8-0.3,1-0.6c2.3-4.1,7.3-11.3,14.5-13.2c0.2-0.1,0.4-0.1,0.6,0c1.2,0.3,2.4,0.8,3.5,1.4c5.3,2.9,9.1,8.4,11,11.8
		c0.3,0.6,1,0.8,1.5,0.5c0.4-0.2,0.6-0.6,0.6-1l4-21.3c0.1-0.4,0-0.8-0.2-1.1c-7.7-12-17.1-7.7-20.1-5.8
		C79.1,147.6,78.7,147.6,78.3,147.4z"/>
	<path class="st0" d="M77.8,87.9h1.7c6.6,0,12,5.4,12,12v50.9c0,6.6-5.4,12-12,12h-1.7c-6.6,0-12-5.4-12-12V99.9
		C65.8,93.3,71.1,87.9,77.8,87.9z"/>
	<path class="st10" d="M91.4,143.2v-1.9H65.8v2.2C70.4,145.8,78.8,148.2,91.4,143.2z"/>
	<path class="st11" d="M38.4,31.3l3.1,17.5c-5.1,14.8-7,30.4-5.6,46c0,0-16.9-27.2-8.4-57.1C36.4,6.5,61.4-5.8,72,2.5
		C72,2.5,49.7,5.4,38.4,31.3z"/>
	<path class="st11" d="M118.3,31.3l-3.1,17.5c5.1,14.8,7,30.4,5.6,46c0,0,16.9-27.2,8.4-57.1C120.3,6.5,95.3-5.8,84.7,2.5
		C84.7,2.5,107.1,5.4,118.3,31.3z"/>
	<path class="st12" d="M122.4,78.5c-1.7,2.8-3,6-3.6,9.2c-0.3,2.1-0.2,5.5,0.7,6.1c0.4,0.3,1.2-0.1,1.7-0.4c2.3-1.4,3.8-4.6,3.9-8.2
		C125.1,82.3,124.1,79.8,122.4,78.5z"/>
	<path class="st12" d="M128.7,68.6c-3.8-0.7-9.6,3.9-9.6,3.9c-6.8,5.7-2.8,31.7,3,30.8c5.8-0.9,5.2-9.4,5.2-9.4
		c2.9-1.8,5.4-9.4,5.4-9.4C137.6,70.3,128.7,68.6,128.7,68.6z M131.5,77.6c-0.2,1-0.6,2-1,3l-1.9-0.8c0.4-0.8,0.7-1.7,0.9-2.6
		c0.2-0.8,0.1-1.6-0.1-2.3c-0.2-0.6-0.7-1.1-1.4-1.2c-0.5,0-1,0.1-1.4,0.3c-1.3,0.7-2.3,1.7-3.1,2.9c2.3,1.7,3.6,4.8,3.6,8.5
		c-0.1,4.3-1.9,8.1-4.9,9.9c-0.7,0.5-1.6,0.8-2.4,0.8c-0.5,0-1-0.2-1.5-0.4c-2.4-1.6-1.8-7-1.6-8.1c0.8-5,5.1-13.8,9.1-15.4
		c0.8-0.3,1.6-0.5,2.5-0.4c1.3,0.3,2.4,1.2,2.9,2.4C131.6,75.2,131.7,76.4,131.5,77.6L131.5,77.6z"/>
	<path class="st0" d="M128.3,71.7c-0.8-0.1-1.7,0-2.5,0.4c-4,1.6-8.3,10.4-9.1,15.4c-0.2,1-0.8,6.5,1.6,8.1c0.4,0.3,0.9,0.4,1.5,0.4
		c0.9,0,1.7-0.3,2.4-0.8c2.9-1.8,4.8-5.6,4.9-9.9c0.1-3.7-1.3-6.8-3.6-8.5c0.8-1.2,1.8-2.2,3.1-2.9c0.4-0.2,0.9-0.3,1.4-0.3
		c0.6,0.2,1.1,0.6,1.4,1.2c0.3,0.7,0.3,1.5,0.1,2.3c-0.2,0.9-0.5,1.7-0.9,2.6l1.9,0.8c0.4-0.9,0.8-1.9,1-3c0.3-1.2,0.2-2.4-0.3-3.5
		C130.7,72.8,129.6,71.9,128.3,71.7z M125,85.3c0,3.5-1.6,6.7-3.9,8.2c-0.5,0.3-1.3,0.7-1.7,0.4c-0.9-0.6-1-3.9-0.7-6.1
		c0.7-3.3,1.9-6.4,3.6-9.2C124.1,79.8,125.1,82.3,125,85.3L125,85.3z"/>
	<path class="st12" d="M34.6,78.5c1.7,2.8,3,6,3.6,9.2c0.3,2.1,0.2,5.5-0.7,6.1c-0.4,0.3-1.2-0.1-1.7-0.4C33.5,92,32,88.8,32,85.2
		C31.9,82.3,32.9,79.8,34.6,78.5z"/>
	<path class="st12" d="M24.4,84.6c0,0,2.5,7.6,5.3,9.4c0,0-0.5,8.4,5.3,9.4s9.8-25.1,3-30.8c0,0-5.8-4.6-9.6-3.9
		C28.3,68.6,19.4,70.3,24.4,84.6z M25.8,74.1c0.5-1.3,1.6-2.2,2.9-2.4c0.8-0.1,1.7,0,2.5,0.4c4,1.6,8.3,10.4,9.1,15.4
		c0.2,1,0.8,6.5-1.6,8.1c-0.4,0.3-0.9,0.4-1.5,0.4c-0.9,0-1.7-0.3-2.4-0.8c-2.9-1.8-4.8-5.6-4.9-9.9c0-3.7,1.3-6.8,3.6-8.5
		c-0.8-1.2-1.8-2.2-3.1-2.9c-0.4-0.2-0.9-0.3-1.4-0.3c-0.6,0.2-1.1,0.6-1.4,1.2c-0.3,0.7-0.3,1.5-0.1,2.3c0.2,0.9,0.5,1.7,0.9,2.6
		l-1.9,0.8c-0.4-0.9-0.8-1.9-1-3C25.3,76.4,25.4,75.2,25.8,74.1L25.8,74.1z"/>
	<path class="st0" d="M25.8,74.1c-0.4,1.1-0.5,2.3-0.3,3.5c0.2,1,0.6,2,1,3l1.9-0.8c-0.4-0.8-0.7-1.7-0.9-2.6
		c-0.2-0.8-0.1-1.6,0.1-2.3c0.2-0.6,0.7-1.1,1.4-1.2c0.5,0,1,0.1,1.4,0.3c1.3,0.7,2.3,1.7,3.1,2.9c-2.3,1.7-3.6,4.8-3.6,8.5
		c0.1,4.3,1.9,8.1,4.9,9.9c0.7,0.5,1.6,0.8,2.4,0.8c0.5,0,1-0.2,1.5-0.4c2.4-1.6,1.7-7,1.6-8.1c-0.8-5-5.1-13.8-9.1-15.4
		c-0.8-0.3-1.6-0.5-2.5-0.4C27.4,71.9,26.3,72.8,25.8,74.1z M34.6,78.5c1.7,2.8,3,6,3.6,9.2c0.3,2.1,0.2,5.5-0.7,6.1
		c-0.4,0.3-1.2-0.1-1.7-0.4C33.5,92,32,88.8,32,85.2C31.9,82.3,32.9,79.8,34.6,78.5z"/>
	<path class="st12" d="M78.5,143.6L78.5,143.6c-20.1,0-43-18.1-43-38.3V38.5C35.5,18.3,51.8,2,72,2l0,0h13
		c20.1,0,36.5,16.3,36.5,36.5v66.8C121.5,125.4,98.6,143.6,78.5,143.6z"/>
	<path class="st10" d="M71.3,131c3.4,4,9.4,4.4,13.3,1c0.4-0.3,0.7-0.6,1-1C81.1,132.9,75.9,132.9,71.3,131z"/>
	<path class="st10" d="M57.1,106c-3.7,3.7-3.7,9.7,0,13.3c0.4,0.4,0.7,0.7,1.2,1c-1.2-2.2-1.9-4.6-2-7.1
		C56,110.8,56.3,108.3,57.1,106z"/>
	<path class="st10" d="M100,106c3.7,3.7,3.7,9.7,0,13.4c-0.4,0.4-0.7,0.7-1.1,1C101.1,115.9,101.5,110.7,100,106z"/>
	<path class="st10" d="M98.1,40.5C86.4,45,73.5,45,61.8,40.6C73.8,42.5,86,42.5,98.1,40.5z"/>
	<path class="st13" d="M41.4,62c-0.4,0.2-0.9,0.1-1.1-0.3c-0.1-0.3-0.1-0.6,0-0.8c5-6.5,13.8-8.9,21.4-5.7c0.4,0.2,0.6,0.6,0.5,1
		c-0.1,0.3-0.5,0.5-0.8,0.5C54.4,56.6,47.5,58.4,41.4,62L41.4,62z"/>
	<path class="st13" d="M96.6,58.4c-0.4,0-0.8-0.3-0.9-0.7c0-0.3,0.1-0.6,0.4-0.8c7.3-3.7,16.2-2.1,21.8,3.9c0.3,0.3,0.3,0.8,0,1.1
		c-0.3,0.2-0.6,0.3-0.9,0.1C110.7,58.9,103.6,57.7,96.6,58.4z"/>
	
		<radialGradient id="SVGID_3_" cx="683.5325" cy="210.6538" r="21.0576" gradientTransform="matrix(1 0 0 1 0 179.0723)" gradientUnits="userSpaceOnUse">
		<stop  offset="0" style="stop-color:#F0BFD9;stop-opacity:0.95"/>
		<stop  offset="4.000000e-02" style="stop-color:#EEBCD3;stop-opacity:0.88"/>
		<stop  offset="0.15" style="stop-color:#E9B3C2;stop-opacity:0.65"/>
		<stop  offset="0.27" style="stop-color:#E4ABB2;stop-opacity:0.45"/>
		<stop  offset="0.39" style="stop-color:#E1A4A6;stop-opacity:0.29"/>
		<stop  offset="0.51" style="stop-color:#DE9F9C;stop-opacity:0.16"/>
		<stop  offset="0.62" style="stop-color:#DC9C96;stop-opacity:7.000000e-02"/>
		<stop  offset="0.73" style="stop-color:#DA9A91;stop-opacity:2.000000e-02"/>
		<stop  offset="0.83" style="stop-color:#DA9990;stop-opacity:0"/>
		<stop  offset="1" style="stop-color:#DA9990;stop-opacity:0"/>
	</radialGradient>
	<ellipse class="st14" cx="104.1" cy="94.8" rx="21.1" ry="10.5"/>
	<path class="st10" d="M78.5,99.9l4.4-0.8c0.5,0,1-0.4,1-1c0-0.3-0.1-0.5-0.3-0.7L79.2,93c-0.4-0.4-1-0.4-1.4,0l-4.4,4.4
		c-0.4,0.4-0.4,1,0,1.4c0.2,0.2,0.4,0.3,0.7,0.3L78.5,99.9z"/>
	<circle class="st15" cx="56.3" cy="72.8" r="5.1"/>
	<circle class="st15" cx="99.8" cy="72.8" r="5.1"/>
	<g class="st16">
		<path class="st17" d="M102.6,71.2c-0.6,0-1.1,0-1.7,0c-3.3-0.1-6.6,0.5-9.6,1.7c-2.2,0.7-4.7,2.3-7.7,1.8
			c-1.6-0.3-3.2-0.5-4.8-0.7c-1.6,0.1-3.1,0.3-4.6,0.7c-3.1,0.5-5.5-1-7.7-1.8c-3.1-1.2-6.3-1.8-9.6-1.7c-0.6,0-1.1,0-1.7,0
			c-2.2,0-9,0.5-22.1,5.2v3.3c1.1,0.5,1.8,1.6,1.8,2.8c0.8,9.3,2.1,12.2,3.3,14.3c0.3,0.6,0.6,1.1,0.9,1.6v-0.1
			c0.7,1,1.4,1.9,2.3,2.7c3.1,2.9,7.4,4.4,12.5,4.4c0.4,0,0.9,0,1.4,0c5.2-0.3,10.7-3.4,14.3-8.2c2-2.7,5.1-8,5.1-17.5
			c0,0,0.5-2,4.1-2s4.2,2,4.2,2c0,9.5,3.1,14.8,5.1,17.5c3.7,4.8,9.2,8,14.3,8.2c0.5,0,0.9,0,1.4,0c5.1,0,9.4-1.5,12.5-4.4
			c0.9-0.8,1.6-1.7,2.3-2.7v0.1c0.3-0.5,0.6-1.1,0.9-1.6c1.1-2.1,2.5-5,3.3-14.3c0-1.2,0.7-2.3,1.8-2.8v-3.3
			C111.6,71.7,104.8,71.2,102.6,71.2z M55.2,103.5c-9,0.5-17.3-3.7-17.7-17.9c0,0,0-7,5.9-10.1c4.5-2.3,25.6-6.1,28.2,5.7
			C74.2,93,63.9,103,55.2,103.5L55.2,103.5z M102.6,103.5c-8.8-0.4-19-10.5-16.4-22.3c2.7-11.8,23.7-8,28.2-5.7
			c5.9,3.1,5.9,10.1,5.9,10.1C119.9,99.8,111.6,103.9,102.6,103.5z"/>
	</g>
	<path class="st18" d="M102.6,67.8c-0.6,0-1.1,0-1.7,0c-3.3-0.1-6.6,0.5-9.6,1.7c-2.2,0.7-4.7,2.3-7.7,1.8c-1.6-0.3-3.2-0.5-4.8-0.7
		c-1.6,0.1-3.1,0.3-4.6,0.7c-3.1,0.5-5.5-1-7.7-1.8c-3.1-1.2-6.3-1.8-9.6-1.7c-0.6,0-1.1,0-1.7,0c-2.2,0-9,0.5-22.1,5.2v3.3
		c1.1,0.5,1.8,1.6,1.8,2.8c0.8,9.3,2.1,12.2,3.3,14.3c0.3,0.6,0.6,1.1,0.9,1.6v-0.1c0.7,1,1.4,1.9,2.3,2.7c3.1,2.9,7.4,4.4,12.5,4.4
		c0.4,0,0.9,0,1.4,0c5.2-0.3,10.7-3.4,14.3-8.2c2-2.7,5.1-8,5.1-17.5c0,0,0.5-2,4.1-2s4.2,2,4.2,2c0,9.5,3.1,14.8,5.1,17.5
		c3.7,4.8,9.2,8,14.3,8.2c0.5,0,0.9,0,1.4,0c5.1,0,9.4-1.5,12.5-4.4c0.9-0.8,1.6-1.7,2.3-2.7V95c0.3-0.5,0.6-1.1,0.9-1.6
		c1.1-2.1,2.5-5,3.3-14.3c0-1.2,0.7-2.3,1.8-2.8V73C111.6,68.3,104.8,67.8,102.6,67.8z M55.2,100.1c-9,0.5-17.3-3.7-17.7-17.9
		c0,0,0-7,5.9-10.1c4.5-2.3,25.6-6.1,28.2,5.7C74.2,89.6,63.9,99.6,55.2,100.1L55.2,100.1z M102.6,100.1c-8.8-0.4-19-10.5-16.4-22.3
		c2.7-11.8,23.7-8,28.2-5.7c5.9,3.1,5.9,10.1,5.9,10.1C119.9,96.3,111.6,100.5,102.6,100.1z"/>
	<ellipse class="st3" cx="78.5" cy="119" rx="11.8" ry="2.7"/>
	<path class="st17" d="M78.9,106C56.7,106,61,121.5,61,121.5l2.7-5.1h30.4l2.7,5.1C96.7,121.5,101.1,106,78.9,106z"/>
	<polygon class="st19" points="24.4,57.3 35.5,53.2 35.5,59.6 24.4,62.7 	"/>
	<polygon class="st20" points="24.4,64.3 35.5,60.1 35.5,64.9 24.4,68 	"/>
	<polygon class="st19" points="132,57.3 120.8,53.2 120.8,59.6 132,62.7 	"/>
	<polygon class="st20" points="132,64.3 120.8,60.1 120.8,64.9 132,68 	"/>
	<polygon class="st21" points="93.4,161.8 82.2,164.4 82.2,170.9 93.4,173.5 	"/>
	<polygon class="st21" points="65.1,173.5 76.3,170.9 76.3,164.3 65.1,161.8 	"/>
	<path class="st22" d="M75.7,163.6h7.1c0.9,0,1.7,0.8,1.7,1.7v4.8c0,0.9-0.8,1.7-1.7,1.7h-7.1c-0.9,0-1.7-0.8-1.7-1.7v-4.8
		C74,164.3,74.8,163.6,75.7,163.6z"/>
	<path class="st12" d="M89.3,247c2.7-1.4,5.4-2.8,8.1-4.3l3.5,6.6c-2.7,1.5-5.5,2.9-8.3,4.4L89.3,247z"/>
	<path class="st12" d="M70.4,244.9c-3.5,2-5.4,4.9-5.2,8.5c0.1,0.8,0.2,1.7,0.5,2.5c-1,0.7-1.8,1.6-2.4,2.6
		c-1.2,2.4-1.4,5.2-0.5,7.7c0.7,1.9,2.1,3.4,4,4.1c0.9,0.9,1.8,1.6,2.8,2.3c0.8,0.8,1.8,1.4,2.9,1.6c1.2,0.3,2.4,0.3,3.6,0.1
		l0.1-0.5c1.2,1.6,3.2,2.5,5.2,2.2c1.3,0,2.5-0.4,3.5-1.1v-0.3c0.7,0.4,1.5,0.6,2.3,0.6c1.9,0,8.7-2.1,11.8-7.8
		c0.1-0.1,0.2-0.3,0.2-0.4c0.9-1.7,1.4-3.5,1.5-5.3c0.3-8.9-7.3-16.3-16.1-17.4C80.8,242.9,74.6,242.5,70.4,244.9z"/>
	<path class="st12" d="M88.4,246.2c-1.5-2.3-12.1-4.7-18.2-1.2c-4.5,2.6-6.5,6.8-4.3,11.8c2.1,5,8.7,5.3,8.8-1.7
		c3.5,0.4,7.4-0.4,9.6-1.8L88.4,246.2z"/>
	<path class="st23" d="M128.4,209l5.7,16.2c-1.2,0.9-2.5,1.6-3.8,2.3c-2.8,1.5-5.9,3-9,4.4c-6.1,2.7-12.6,5.2-19,7.6l-4.8,1.4
		l0.4,1.1l-1.3,0.5l-0.8-2.3l7.5-2.8c6.4-2.4,12.8-4.9,19-7.6c3.1-1.4,6.1-2.8,9-4.4c1.4-0.8,0.7-0.2,1.8-1l-4.8-13.6
		c-1.1-2.7-2.4-5.4-3.8-8.2l1.1,0.2C126.6,204.9,127.5,206.9,128.4,209z"/>
	<path class="st23" d="M149.1,227.4v0.2c0,0.3,0,0.7,0,1c0,0.6-0.1,1.3-0.3,1.9c-0.1,0.3-0.2,0.6-0.2,0.8s-0.2,0.4-0.3,0.6
		c-0.5,1-1.2,2-2,2.8c-0.9,0.9-2,1.7-3.1,2.4c-1.7,1.1-3.4,2-5.3,2.9c-3.4,1.6-6.7,3-10.1,4.3c-6.6,2.6-13.2,5-19.8,7.2l-7.7,2.5
		l-1.5-4.5l1.4-0.5l0.8,2.2l5-1.1c6.6-2.3,13.2-4.6,19.8-7.3c3.3-1.3,6.7-2.7,10.1-4.3c1.8-0.9,3.6-1.8,5.3-2.9
		c1.1-0.7,2.1-1.5,3.1-2.4c0.8-0.8,1.5-1.7,2-2.8c0.1-0.2,0.2-0.4,0.3-0.6c0.1-0.2,0.2-0.5,0.2-0.8c0.2-0.6,0.3-1.2,0.3-1.8
		c0-0.4,0-0.7,0-1.1V226l-0.1-0.4c-0.9-6.9-2.6-13.6-5-20.1l1.6,0.3c2.6,6.8,4.4,14,5.4,21.2L149.1,227.4z"/>
	<path class="st23" d="M102,248.5l-1.7,0.6l0.8,2.2l5-1.1c6.6-2.3,13.2-4.6,19.8-7.3c3.3-1.3,6.7-2.7,10.1-4.3
		c1.8-0.9,3.6-1.8,5.3-2.9c1.1-0.7,2.1-1.5,3.1-2.4c0.8-0.8,1.5-1.7,2-2.8c0.1-0.2,0.2-0.4,0.3-0.6c0.1-0.2,0.2-0.5,0.2-0.8
		c0.2-0.6,0.3-1.2,0.3-1.8c0-0.4,0-0.7,0-1.1V226l-0.1-0.4c-0.9-6.9-2.6-13.6-5-20.1l-16.4-2.7c1,2,1.9,4.1,2.8,6.1l5.7,16.2
		c-1.2,0.9-2.5,1.6-3.8,2.3c-2.8,1.5-5.9,3-9,4.4c-6.1,2.7-12.6,5.2-19,7.6l-4.8,1.4L98,242l1.7-0.6L102,248.5z M134.4,225.7
		c0.1-0.3,0.2-0.5,0.3-0.7l-0.4,2.7l0,0l0,0c0-0.2,0-0.5,0-0.7C134.3,226.5,134.3,226.1,134.4,225.7L134.4,225.7z"/>
	<path class="st23" d="M134.7,225l-0.4,2.7l0,0c0-0.2,0-0.5,0-0.7c0-0.4,0.1-0.8,0.2-1.2C134.5,225.5,134.6,225.2,134.7,225z"/>
	<path class="st23" d="M134.3,227.7L134.3,227.7z"/>
	<path class="st23" d="M100.3,249.1l-1.4,0.5l-2.3-7.1l1.3-0.5L100.3,249.1z"/>
	<path class="st23" d="M99.6,241.5l2.4,7.1l-1.7,0.6l-2.4-7.1L99.6,241.5z"/>
	<path class="st10" d="M100.6,261c0,1.9-0.5,3.9-1.3,5.6c-0.8,1.8-2,3.4-3.5,4.7c-1.5,1.3-3.1,2.4-4.9,3.2c-0.9,0.4-1.9,0.7-2.8,0.9
		c-1,0.1-2.1,0-3.1-0.4l0.6-0.4v0.3c0,0.1-0.1,0.2-0.1,0.3c-0.7,0.5-1.5,0.9-2.4,1.1c-0.8,0.2-1.7,0.3-2.5,0.3
		c-0.9,0-1.7-0.2-2.5-0.6s-1.5-1-2-1.6l0.9-0.2l-0.1,0.5c0,0.2-0.2,0.4-0.4,0.4c-1.2,0.3-2.4,0.3-3.7,0.1c-1.2-0.2-2.4-0.8-3.3-1.7
		l0.1,0.1c-1.1-0.7-2-1.4-2.9-2.3l0.2,0.1c-1.5-0.5-2.8-1.4-3.6-2.7c-0.4-0.6-0.8-1.3-1-2s-0.4-1.4-0.5-2.2c-0.2-1.5,0-3,0.5-4.4
		s1.5-2.6,2.7-3.5l-0.1,0.4c-0.4-1.1-0.6-2.2-0.6-3.3s0.2-2.3,0.7-3.3c1-2,2.6-3.7,4.6-4.7c-1.9,1.1-3.3,2.8-4.2,4.8
		c-0.8,2-0.7,4.3,0.1,6.3c0.1,0.1,0,0.3-0.1,0.3l0,0c-1.1,0.9-1.9,2-2.3,3.3c-0.4,1.3-0.6,2.7-0.4,4.1c0.1,1.4,0.6,2.7,1.4,3.8
		c0.7,1.1,1.8,1.9,3.1,2.3c0.1,0,0.2,0.1,0.2,0.1c0.9,0.8,1.8,1.5,2.8,2.1c0,0,0.1,0,0.1,0.1c0.8,0.7,1.8,1.2,2.8,1.4
		c1.1,0.2,2.2,0.2,3.3-0.1l-0.4,0.4l0.1-0.5l0,0c0-0.3,0.3-0.4,0.5-0.4l0,0c0.1,0,0.2,0.1,0.3,0.2c0.9,1.2,2.3,1.9,3.8,1.9
		c0.8,0,1.5-0.1,2.3-0.3c0.7-0.2,1.4-0.5,2-0.9l-0.1,0.3v-0.3c0-0.2,0.2-0.4,0.4-0.4c0.1,0,0.1,0,0.2,0c0.8,0.4,1.7,0.5,2.6,0.4
		c0.9-0.2,1.8-0.4,2.7-0.8c1.8-0.7,3.4-1.7,4.8-2.9c1.5-1.2,2.7-2.7,3.5-4.4C99.8,264.8,100.4,262.9,100.6,261z"/>
	<path class="st12" d="M55.8,248.2c-2.7-1.4-5.4-2.8-8.1-4.3l-3.5,6.6c2.7,1.5,5.5,2.9,8.3,4.4L55.8,248.2z"/>
	<path class="st12" d="M77.8,251.9c2.8,2.9,3.8,6.3,2.6,9.6c-0.3,0.8-0.7,1.5-1.2,2.2c0.8,0.9,1.3,2,1.5,3.2
		c0.5,2.6-0.1,5.3-1.7,7.5c-1.2,1.6-3,2.6-5,2.8c-1.1,0.6-2.2,1.1-3.3,1.5c-1,0.5-2.1,0.8-3.2,0.8c-1.2-0.1-2.4-0.4-3.5-0.9l0.1-0.5
		c-1.6,1.2-3.8,1.5-5.6,0.7c-1.2-0.4-2.3-1.1-3.1-2l0.1-0.3c-0.8,0.1-1.6,0.1-2.4-0.1c-1.8-0.5-7.8-4.5-9.1-10.8l-0.1-0.5
		c-0.4-1.8-0.4-3.7,0-5.6c2.2-8.6,11.6-13.6,20.3-12.2C68.4,247,74.5,248.5,77.8,251.9z"/>
	<path class="st12" d="M60.2,248.1c2-1.8,12.9-1.1,17.8,4c3.6,3.7,4.3,8.3,0.9,12.6s-9.9,2.6-8-4.1c-3.4-0.6-7-2.4-8.7-4.5
		L60.2,248.1z"/>
	<path class="st10" d="M43.9,259.5c-0.6,3.8,0.3,7.7,2.5,10.9c1.1,1.5,2.5,2.9,4,4c0.8,0.6,1.6,1,2.4,1.4c0.8,0.3,1.7,0.4,2.6,0.2
		c0.2,0,0.5,0.1,0.5,0.3l0,0c0,0.1,0,0.1,0,0.2l-0.1,0.3l-0.1-0.3c0.5,0.6,1.1,1,1.7,1.4c0.7,0.4,1.4,0.7,2.1,0.8c1.5,0.3,3,0,4.2-1
		c0.2-0.2,0.5-0.1,0.7,0.1c0.1,0.1,0.1,0.2,0.1,0.3l0,0v0.5l-0.3-0.5c1,0.5,2.1,0.8,3.2,0.9s2.1-0.2,3.1-0.7h0.1
		c1.1-0.4,2.2-0.8,3.2-1.4c0.1,0,0.2-0.1,0.2-0.1c1.3-0.1,2.6-0.6,3.6-1.5s1.8-2.1,2.3-3.3c0.5-1.3,0.7-2.7,0.6-4
		c-0.1-1.4-0.6-2.7-1.5-3.8l0,0c-0.1-0.1-0.1-0.3,0-0.4c1.3-1.7,1.9-3.9,1.7-6c-0.4-2.2-1.4-4.2-2.9-5.7c1.7,1.5,2.8,3.5,3.3,5.7
		c0.2,1.1,0.2,2.3-0.1,3.4c-0.3,1.1-0.8,2.1-1.4,3.1v-0.4c0.9,1.2,1.5,2.6,1.7,4.1s0,3-0.5,4.4c-0.3,0.7-0.6,1.4-1,2
		s-0.9,1.2-1.5,1.7c-1.1,1.1-2.6,1.7-4.2,1.8l0.2-0.1c-1.1,0.6-2.2,1.1-3.4,1.5H71c-1.1,0.6-2.4,0.9-3.6,0.8s-2.4-0.5-3.5-1
		c-0.2-0.1-0.3-0.3-0.3-0.5l0.1-0.5l0.8,0.4c-0.7,0.5-1.5,0.9-2.4,1.1s-1.7,0.2-2.6,0c-0.8-0.2-1.6-0.5-2.4-1c-0.8-0.4-1.5-1-2-1.7
		c-0.1-0.1-0.1-0.2-0.1-0.3l0,0l0.1-0.3l0.5,0.5c-1,0.2-2.1,0.1-3.1-0.3c-0.9-0.4-1.7-1-2.5-1.6c-1.6-1.2-2.9-2.6-4-4.3
		C43.7,267.5,43,263.5,43.9,259.5L43.9,259.5z"/>
	<path class="st23" d="M23.8,204.6l-8.3,15.1c1.1,1,2.2,2,3.4,2.9c2.5,2,5.3,3.9,8.2,5.8c5.7,3.7,11.6,7.2,17.5,10.6l4.5,2.2l-0.6,1
		l1.2,0.7l1.1-2.1l-6.9-4c-5.9-3.4-11.8-6.9-17.5-10.6c-2.8-1.9-5.6-3.8-8.2-5.8c-1.3-1-0.7-0.3-1.6-1.3l6.9-12.6
		c1.6-2.4,3.3-4.9,5.1-7.5h-1.1C26.3,200.9,25,202.7,23.8,204.6z"/>
	<path class="st23" d="M0.3,219.4l-0.1,0.2c-0.1,0.3-0.2,0.7-0.2,1c-0.1,0.6-0.1,1.2,0,1.9c0,0.3,0.1,0.6,0.1,0.8s0.1,0.4,0.2,0.6
		c0.3,1.1,0.9,2.1,1.5,3.1c0.8,1,1.7,2,2.6,2.9c1.5,1.3,3.1,2.6,4.7,3.7c3.1,2.2,6.1,4.1,9.2,5.9c6.1,3.7,12.2,7.1,18.4,10.4
		l7.2,3.7l2.2-4.2l-1.3-0.7l-1.1,2l-4.8-1.9c-6.1-3.3-12.3-6.7-18.4-10.4c-3.1-1.8-6.1-3.7-9.2-5.9c-1.6-1.1-3.2-2.4-4.7-3.7
		c-1-0.9-1.9-1.8-2.6-2.9c-0.7-0.9-1.2-2-1.5-3.1c-0.1-0.2-0.1-0.4-0.2-0.6c-0.1-0.2-0.1-0.5-0.1-0.8c-0.1-1,0-2,0.2-2.9l0.1-0.2
		l0.1-0.3c2-6.6,4.8-13,8.3-19H9.3c-3.7,6.3-6.7,13-8.8,20.1L0.3,219.4z"/>
	<path class="st23" d="M46.9,241.4l1.5,0.8l0.6-1l-4.5-2.2c-5.9-3.4-11.8-6.9-17.5-10.6c-2.8-1.9-5.6-3.8-8.2-5.8
		c-1.2-0.9-2.3-1.9-3.4-2.9l8.3-15.1c1.2-1.9,2.5-3.7,3.7-5.6H10.9c-3.5,6-6.3,12.4-8.3,19l-0.1,0.3l-0.1,0.2
		c-0.3,1-0.3,1.9-0.2,2.9c0,0.3,0.1,0.6,0.1,0.8s0.1,0.4,0.2,0.6c0.3,1.1,0.9,2.1,1.5,3.1c0.8,1,1.7,2,2.6,2.9
		c1.5,1.3,3.1,2.6,4.7,3.7c3.1,2.2,6.1,4.1,9.2,5.9c6.1,3.7,12.2,7.1,18.4,10.4l4.8,1.9l1.1-2l-1.5-0.8L46.9,241.4z M15.1,221.4
		c0,0.2-0.1,0.5-0.2,0.7l0,0l0,0l0,0v-2.7c0.1,0.3,0.1,0.5,0.2,0.8C15.2,220.6,15.2,221,15.1,221.4L15.1,221.4z"/>
	<path class="st23" d="M14.9,219.4v2.8c0.1-0.2,0.1-0.5,0.2-0.7c0-0.4,0-0.8,0-1.2C15.1,219.9,15,219.7,14.9,219.4z"/>
	<path class="st23" d="M14.9,222.2L14.9,222.2L14.9,222.2z"/>
	<path class="st23" d="M44.9,248.8l1.3,0.7l3.4-6.6l-1.2-0.7L44.9,248.8z"/>
	<path class="st23" d="M46.9,241.4l-3.5,6.6l1.5,0.8l3.5-6.6L46.9,241.4z"/>
</g>
</svg>
