<?xml version="1.0" encoding="utf-8"?>
<!-- Generator: Adobe Illustrator 22.1.0, SVG Export Plug-In . SVG Version: 6.00 Build 0)  -->
<svg version="1.1" id="Layer_1" xmlns="http://www.w3.org/2000/svg" xmlns:xlink="http://www.w3.org/1999/xlink" x="0px" y="0px"
	 viewBox="0 0 134.9 478" style="enable-background:new 0 0 134.9 478;" xml:space="preserve">
<style type="text/css">
	.st0{fill:#F5E0CD;}
	.st1{fill:#4C5258;}
	.st2{fill:#005E88;}
	.st3{fill:#F1F1F2;}
	.st4{opacity:0.55;fill:#BBBDBF;enable-background:new    ;}
	.st5{fill:#58595B;}
	.st6{fill:#EBC19C;}
	.st7{fill:#5A4A42;}
	.st8{fill:#F0D0B3;}
	.st9{fill:#606161;}
	.st10{fill:url(#SVGID_1_);}
	.st11{fill:#C3996B;}
	.st12{fill:#E6E7E8;}
	.st13{opacity:0.25;}
	.st14{fill:#757E84;}
	.st15{fill:#A87C4F;}
	.st16{fill:#FFD7BE;}
</style>
<title>img_middle_age_female</title>
<path class="st0" d="M54.8,444.5c0,3.4-2,6.3-4.4,6.3h-1.1c-2.4,0.1-4.5-2.7-4.6-6.1l-10.2-199c-0.2-3.4,1.6-6.3,4-6.3l13-0.3
	c2.4-0.1,4.3,2.7,4.3,6.1L54.8,444.5z"/>
<path class="st0" d="M92.4,444.7c-0.1,3.4-2.1,6.2-4.5,6.2h-1.1c-2.4,0-4.4-2.8-4.5-6.2l-4.7-199.3c-0.1-3.4,1.8-6.2,4.2-6.2l13,0.1
	c2.4,0,4.2,2.8,4.1,6.2L92.4,444.7z"/>
<path class="st1" d="M66.8,263.4c-8,0.7-31.5,10.8-39.2,8.4l5.4,87.6c0,0,30.2,17.1,69.4,0c0.9-7.8,5.4-88.5,5.4-88.5
	C100.6,273.1,75.1,264.1,66.8,263.4z"/>
<path class="st2" d="M105.5,272.9L92,223l7-33c0.3-1.4,0.3-2.8-0.1-4.1l-8.2-32.6c-8.8-1.8-17.8-2.4-26.7-1.9
	c-22.8-0.1-25.1,1.9-25.1,1.9L31,184.8c-0.5,2.1-0.6,4.3-0.1,6.4l6.8,31.9L24.1,273l0.7,0.9c6.2,1.9,22.6,7.5,32.9,9.2l5.3-15.8
	l4.3,16.1c10.4-1.1,31.3-8.5,37.6-10.6L105.5,272.9L105.5,272.9z"/>
<polygon class="st1" points="5.2,465.1 0,467.7 0,478 29.7,478 48.8,468.2 48.8,478 57.9,478 57.9,456.1 32.9,465.1 "/>
<polygon class="st0" points="54,427.3 50,427.3 40.1,447 5.2,465.1 32.9,465.1 57.9,456.1 57.9,447 "/>
<polygon class="st1" points="42.9,465.1 37.7,467.7 37.7,478 67.4,478 86.5,468.2 86.5,478 95.6,478 95.6,456.1 70.7,465.1 "/>
<polygon class="st0" points="91.7,427.3 87.8,427.3 77.8,447 42.9,465.1 70.7,465.1 95.6,456.1 95.6,447 "/>
<polygon class="st3" points="45.9,156.2 67.5,217.5 87.4,156.2 "/>
<path class="st4" d="M66,150.7c-3.2-2-13.1-6.5-21.2,6.1c-0.2,0.3-0.3,0.7-0.2,1.1l4.2,22.5c0,0.7,0.6,1.2,1.3,1.1
	c0.4,0,0.8-0.3,1-0.6c2.5-4.4,7.7-11.9,15.3-13.9c0.2-0.1,0.4-0.1,0.6,0c7.6,2,12.8,9.5,15.3,13.9c0.3,0.6,1,0.8,1.6,0.5
	c0.4-0.2,0.6-0.6,0.6-1l4.2-22.5c0.1-0.4,0-0.8-0.2-1.1c-8.1-12.7-18-8.1-21.2-6.1C66.9,150.9,66.4,150.9,66,150.7z"/>
<path class="st3" d="M66.1,149.3c-3.1-1.9-12.4-6.2-20,5.8c-0.2,0.3-0.3,0.7-0.2,1.1l3.9,21.2c0,0.6,0.6,1.1,1.2,1.1
	c0.4,0,0.7-0.3,0.9-0.6c2.3-4.1,7.2-11.2,14.4-13.1c0.2-0.1,0.4-0.1,0.6,0c7.2,1.9,12.1,9,14.4,13.1c0.3,0.6,1,0.8,1.5,0.5
	c0.4-0.2,0.6-0.5,0.6-0.9l3.9-21.2c0.1-0.4,0-0.7-0.2-1.1c-7.6-12-17-7.6-20-5.8C66.9,149.5,66.4,149.5,66.1,149.3z"/>
<circle class="st5" cx="66.7" cy="177.1" r="2.8"/>
<circle class="st5" cx="66.7" cy="187.2" r="2.8"/>
<path class="st0" d="M67.3,92.1L67.3,92.1c6.6,0,11.9,5.3,11.9,11.9v45.9c0,6.6-5.3,11.9-11.9,11.9h-0.1c-6.6,0-11.9-5.3-11.9-11.9
	V104C55.4,97.4,60.7,92.1,67.3,92.1z"/>
<path class="st6" d="M79.2,142.9V141H55.4v2.2C59.6,145.4,67.5,147.9,79.2,142.9z"/>
<path class="st7" d="M124.9,59.6c3.5-2.6,4.3-7.6,1.6-11.2c-0.7-0.9-1.5-1.7-2.5-2.2c0.9-1.1,1.6-2.4,1.8-3.8
	c0.7-4.2-1.8-8.1-5.6-8.9c0.3-0.7,0.5-1.4,0.7-2.1c0.7-4.2-1.8-8.1-5.6-8.9c-0.9-0.2-1.8-0.2-2.7,0c0.6-4.1-1.9-8-5.6-8.7
	c-1.4-0.3-2.9-0.1-4.3,0.6c-0.2-3.2-2.5-5.9-5.7-6.6c-2.5-0.5-5.1,0.5-6.6,2.5c-5-1.4-10.1-2.3-15.3-2.4l-8.4-2
	c-0.5-2.8-2.6-5-5.3-5.7C58.2-0.5,55,1,53.6,3.9c-0.9-1.2-2.2-2-3.7-2.3c-3.9-0.8-7.7,1.8-8.5,5.7c-0.7-0.5-1.5-0.9-2.4-1.1
	c-3.8-0.9-7.6,1.7-8.6,5.8c-0.2,0.7-0.2,1.5-0.2,2.2c-3.8-0.9-7.6,1.7-8.6,5.8c-0.3,1.4-0.3,2.9,0.2,4.3c-3.4,0.2-6.2,2.7-6.9,6
	c-0.5,2-0.2,4.1,0.9,5.9c-2.9,0.7-5.2,3-5.8,5.9V42c-0.7,2.9,0.3,6,2.6,7.8c-1.7,1.1-2.9,2.9-3.4,4.9c-0.8,3.3,0.6,6.8,3.5,8.5
	c-1,1-1.7,2.3-2,3.7c-1.1,3.9,1.2,8,5.2,9.1c-0.4,0.6-0.6,1.3-0.8,2c-1,4.1,1.4,8.1,5.1,9.1c0.9,0.2,1.8,0.2,2.7,0.1
	c-0.8,4.1,1.4,8,5.2,8.9c1.4,0.3,3,0.2,4.3-0.4c0.1,3.2,2.2,6,5.3,6.8c2.8,0.6,5.8-0.5,7.3-2.9l4.1,1l0.3,0.5l9.8,2l9.7,2.3l0.4-0.3
	l4.1,0.8c0.5,2.9,2.7,5.1,5.6,5.7c3.2,0.5,6.3-1.1,7.5-4.1c1,1.1,2.3,1.9,3.8,2.2c3.9,0.6,7.6-2.1,8.2-6l0,0c0.7,0.5,1.6,0.9,2.5,1
	c3.8,0.7,7.5-2,8.2-6.2c0.1-0.7,0.2-1.5,0.1-2.2c3.8,0.8,7.5-2,8.2-6.2c0.3-1.4,0.1-2.9-0.4-4.3c3.4-0.3,6.1-2.9,6.5-6.3
	c0.4-2-0.1-4.1-1.2-5.9c2.9-0.8,5-3.2,5.4-6.1v-0.1C128.4,64.4,127.3,61.4,124.9,59.6z M45.5,15.7l-0.6-0.1c0.2,0,0.5-0.1,0.7-0.1
	C45.5,15.6,45.5,15.6,45.5,15.7z"/>
<path class="st0" d="M106.9,84.4c-1.5,2.6-2.6,5.4-3.3,8.3c-0.3,2-0.2,5,0.6,5.5c0.4,0.3,1.1-0.1,1.5-0.4c2.1-1.3,3.5-4.2,3.5-7.4
	C109.3,87.8,108.5,85.6,106.9,84.4z"/>
<path class="st0" d="M112.6,75.4c-3.4-0.6-8.7,3.6-8.7,3.6c-6.2,5.2-2.6,28.9,2.7,28c5.3-0.9,4.8-8.5,4.8-8.5
	c2.6-1.6,4.9-8.6,4.9-8.6C120.7,77,112.6,75.4,112.6,75.4z M115.2,83.6c-0.2,0.9-0.5,1.8-0.9,2.7l-1.7-0.7c0.4-0.7,0.6-1.5,0.8-2.3
	c0.2-0.7,0.1-1.4-0.1-2.1c-0.2-0.6-0.7-1-1.2-1.1c-0.4,0-0.9,0-1.3,0.2c-1.1,0.6-2.1,1.5-2.8,2.6c2,1.5,3.3,4.4,3.2,7.7
	c-0.1,3.9-1.8,7.4-4.4,9c-0.7,0.4-1.4,0.7-2.2,0.7c-0.5,0-0.9-0.1-1.3-0.4c-2.2-1.4-1.6-6.4-1.4-7.4c0.7-4.5,4.6-12.6,8.3-14
	c0.7-0.3,1.5-0.4,2.2-0.3c1.2,0.2,2.2,1.1,2.7,2.2C115.3,81.4,115.4,82.5,115.2,83.6L115.2,83.6z"/>
<path class="st8" d="M112.3,78.2c-0.8-0.1-1.5,0-2.2,0.3c-3.6,1.4-7.5,9.5-8.3,14c-0.1,1-0.7,5.9,1.4,7.4c0.4,0.3,0.9,0.4,1.3,0.4
	c0.8,0,1.6-0.3,2.2-0.7c2.7-1.6,4.4-5.1,4.4-9c0-3.3-1.2-6.2-3.2-7.7c0.7-1.1,1.6-2,2.8-2.6c0.4-0.2,0.8-0.3,1.3-0.2
	c0.6,0.1,1,0.5,1.2,1.1c0.3,0.7,0.3,1.4,0.1,2.1c-0.2,0.8-0.5,1.6-0.8,2.3l1.7,0.7c0.4-0.9,0.7-1.8,0.9-2.7c0.2-1.1,0.2-2.2-0.2-3.2
	C114.5,79.2,113.5,78.4,112.3,78.2z M109.3,90.5c0,3.2-1.4,6.1-3.5,7.4c-0.4,0.3-1.2,0.6-1.5,0.4c-0.9-0.6-0.9-3.6-0.6-5.5
	c0.6-3,1.7-5.8,3.3-8.4C108.5,85.6,109.3,87.8,109.3,90.5L109.3,90.5z"/>
<path class="st0" d="M27,84.4c1.6,2.6,2.7,5.4,3.3,8.4c0.3,2,0.2,5-0.6,5.5c-0.4,0.3-1.1-0.1-1.5-0.4c-2.1-1.3-3.5-4.2-3.5-7.4
	C24.6,87.8,25.5,85.6,27,84.4z"/>
<path class="st0" d="M17.7,89.9c0,0,2.3,6.9,4.9,8.6c0,0-0.5,7.6,4.8,8.5s8.9-22.9,2.7-28c0,0-5.3-4.2-8.7-3.6
	C21.3,75.4,13.2,77,17.7,89.9z M19,80.4c0.5-1.1,1.5-2,2.7-2.2c0.8-0.1,1.5,0,2.2,0.3c3.6,1.4,7.5,9.5,8.3,14c0.1,1,0.7,5.9-1.4,7.4
	c-0.4,0.3-0.9,0.4-1.3,0.4c-0.8,0-1.6-0.3-2.2-0.7c-2.7-1.6-4.4-5.1-4.4-9c0-3.3,1.2-6.2,3.2-7.7c-0.7-1.1-1.6-2-2.8-2.6
	C22.8,80,22.4,80,21.9,80c-0.6,0.1-1,0.5-1.2,1.1c-0.3,0.7-0.3,1.4-0.1,2.1c0.2,0.8,0.5,1.6,0.8,2.3l-1.7,0.7
	c-0.4-0.9-0.7-1.8-0.9-2.7C18.5,82.5,18.6,81.4,19,80.4L19,80.4z"/>
<path class="st8" d="M19,80.4c-0.4,1-0.5,2.1-0.2,3.2c0.2,0.9,0.5,1.8,0.9,2.7l1.7-0.7c-0.4-0.7-0.6-1.5-0.8-2.3
	c-0.2-0.7-0.1-1.4,0.1-2.1c0.2-0.6,0.7-1,1.2-1.1c0.4,0,0.9,0,1.3,0.2c1.1,0.6,2.1,1.5,2.8,2.6c-2,1.5-3.3,4.4-3.2,7.7
	c0.1,3.9,1.8,7.4,4.4,9c0.7,0.4,1.4,0.7,2.2,0.7c0.5,0,0.9-0.1,1.3-0.4c2.2-1.4,1.6-6.4,1.4-7.4c-0.7-4.5-4.6-12.6-8.3-14
	c-0.7-0.3-1.5-0.4-2.2-0.3C20.4,78.4,19.4,79.2,19,80.4z M27,84.4c1.6,2.6,2.7,5.4,3.3,8.4c0.3,2,0.2,5-0.6,5.5
	c-0.4,0.3-1.1-0.1-1.5-0.4c-2.1-1.3-3.5-4.2-3.5-7.4C24.6,87.8,25.5,85.6,27,84.4L27,84.4z"/>
<path class="st0" d="M67,143.6L67,143.6c-18.3,0-39.1-16.5-39.1-34.8V48c0-18.3,14.9-33.2,33.2-33.2l0,0h11.8
	c18.3,0,33.2,14.9,33.2,33.2l0,0v60.8C106.1,127.1,85.3,143.6,67,143.6z"/>
<path class="st6" d="M60.4,132.2c3.1,3.6,8.5,4,12.1,1c0.3-0.3,0.7-0.6,1-1C69.3,133.9,64.6,133.9,60.4,132.2z"/>
<path class="st9" d="M38.9,70.6c-0.3,0.1-0.6,0-0.8-0.3c-0.1-0.2-0.1-0.5,0.1-0.7c4.2-4.1,10.7-5,15.9-2c0.2,0.2,0.3,0.6,0.1,0.8
	c-0.1,0.1-0.3,0.2-0.5,0.2C48.7,67.9,43.6,68.5,38.9,70.6L38.9,70.6z"/>
<path class="st9" d="M95.8,70.6c0.3,0.1,0.6,0,0.8-0.3c0.1-0.2,0.1-0.5-0.1-0.7c-4.2-4.1-10.7-5-15.9-2c-0.2,0.2-0.3,0.6-0.1,0.8
	c0.1,0.1,0.3,0.2,0.5,0.2C86,67.9,91.2,68.5,95.8,70.6L95.8,70.6z"/>
<radialGradient id="SVGID_1_" cx="717.6221" cy="208.8493" r="19.1666" gradientTransform="matrix(1 0 0 1 0 179.8254)" gradientUnits="userSpaceOnUse">
	<stop  offset="0" style="stop-color:#F0BFD9;stop-opacity:0.95"/>
	<stop  offset="4.000000e-02" style="stop-color:#EEBCD3;stop-opacity:0.88"/>
	<stop  offset="0.15" style="stop-color:#E9B3C2;stop-opacity:0.65"/>
	<stop  offset="0.27" style="stop-color:#E4ABB2;stop-opacity:0.45"/>
	<stop  offset="0.39" style="stop-color:#E1A4A6;stop-opacity:0.29"/>
	<stop  offset="0.51" style="stop-color:#DE9F9C;stop-opacity:0.16"/>
	<stop  offset="0.62" style="stop-color:#DC9C96;stop-opacity:7.000000e-02"/>
	<stop  offset="0.73" style="stop-color:#DA9A91;stop-opacity:2.000000e-02"/>
	<stop  offset="0.83" style="stop-color:#DA9990;stop-opacity:0"/>
	<stop  offset="1" style="stop-color:#DA9990;stop-opacity:0"/>
</radialGradient>
<ellipse class="st10" cx="90.2" cy="99.2" rx="19.2" ry="9.6"/>
<path class="st6" d="M66.9,103.9l4.1-0.7c0.5,0,0.9-0.4,0.9-0.9c0-0.2-0.1-0.5-0.3-0.6l-4.1-4.1c-0.3-0.3-0.9-0.3-1.3,0l-4.1,4.1
	c-0.3,0.3-0.3,0.9,0,1.3c0.2,0.2,0.4,0.3,0.6,0.3L66.9,103.9z"/>
<circle class="st5" cx="49.4" cy="81" r="4.7"/>
<circle class="st5" cx="83.2" cy="81" r="4.7"/>
<path class="st7" d="M122.5,52.5c-1.7,0-3.4-0.2-5-0.7c0-11.7-3.1-31.6-21.6-41c-6-3.1-29-9.7-43.7,0.9c0,0-0.6-4.1,0.8-5.2
	c0,0-6.7,0.7-8.5,7.4c0,0-13.4-2.9-16.7,3.3c0,0,3.7-0.4,5.7,1c-22,10.3-14.7,42.7-14.7,42.7c1.2,4.2,2.2,15.9,9,22l0.3-21.6
	c0,0,5.2-21.1,10.8-21.9c0.7,2.2,1.9,4.2,3.4,6c3.9,8,12.3,18.5,29.5,16.7c0,0-9.6-1.4-14.1-6.4c9.2,3.2,22.9,4.8,43,1.7
	c0,0,1.9-0.1,4.7-0.4c0.3,1,0.5,2.1,0.5,3.1c0,10.3-0.5,0.5,0,23.9c0,0,9.2-11.1,10.8-22.9c0,0,0.3-0.1,0.4-3.8c2-0.4,4-2,5.7-3.3
	c0.4-0.3,0.4-0.8,0.2-1.1C123,52.6,122.8,52.5,122.5,52.5z"/>
<path class="st11" d="M66.4,123.1c-7.5,0-11.2-3.3-11.5-3.5l1.3-1.4l-0.6,0.7l0.6-0.7c0.1,0.1,7.7,6.8,23.8-0.2l0.7,1.7
	C76.3,121.8,71.4,122.9,66.4,123.1z"/>
<polygon class="st11" points="19.9,65.5 27.8,61.8 27.8,67.5 19.9,70.3 "/>
<polygon class="st12" points="19.9,71.7 27.8,68 27.8,72.3 19.9,75 "/>
<polygon class="st11" points="115.1,65.1 107.2,61.4 107.2,67.2 115.1,69.9 "/>
<polygon class="st12" points="115.1,71.3 107.2,67.6 107.2,71.9 115.1,74.6 "/>
<g class="st13">
	<path class="st14" d="M91.5,81.6h-1.7c-3.3-0.1-6.5,0.5-9.5,1.7c-2.2,0.7-4.6,2.2-7.6,1.8c-1.6-0.3-3.1-0.5-4.7-0.7
		c-1.5,0.1-3.1,0.3-4.6,0.7c-3.1,0.5-5.5-1-7.6-1.8c-3-1.2-6.3-1.8-9.6-1.7c-0.5,0-1.1,0-1.6,0c-2.2,0-9,0.5-21.9,5.2v3.3
		c1.1,0.5,1.8,1.6,1.8,2.8c0.8,9.2,2.1,12.1,3.3,14.2c0.3,0.6,0.6,1.1,0.9,1.6v-0.1c0.7,1,1.4,1.9,2.3,2.7c3.1,2.9,7.4,4.4,12.4,4.4
		c0.4,0,0.9,0,1.4,0c5.1-0.3,10.6-3.4,14.2-8.1c2-2.7,5.1-8,5.1-17.4c0,0,0.5-2,4.1-2s4.1,2,4.1,2c0,9.4,3.1,14.7,5.1,17.4
		c3.7,4.8,9.2,7.9,14.2,8.1c0.5,0,0.9,0,1.4,0c5.1,0,9.4-1.5,12.4-4.4c0.9-0.8,1.6-1.7,2.3-2.7v0.1c0.3-0.5,0.6-1,0.9-1.6
		c1.1-2.1,2.5-5,3.3-14.2c0-1.2,0.7-2.3,1.8-2.8v-3.3C100.4,82.1,93.6,81.6,91.5,81.6z M44.4,113.7c-8.9,0.4-17.2-3.7-17.6-17.8
		c0,0,0-6.9,5.9-10c4.5-2.3,25.4-6.1,28,5.6S53,113.3,44.4,113.7L44.4,113.7z M91.5,113.7c-8.7-0.4-18.9-10.4-16.3-22.2
		c2.6-11.7,23.5-8,28-5.6c5.9,3.1,5.9,10,5.9,10C108.6,110,100.3,114.2,91.5,113.7L91.5,113.7z"/>
</g>
<path class="st15" d="M91.5,78.3c-0.6,0-1.1,0-1.7,0c-3.3-0.1-6.5,0.5-9.5,1.7c-2.2,0.7-4.6,2.2-7.6,1.8c-1.6-0.3-3.1-0.5-4.7-0.7
	c-1.5,0.1-3.1,0.3-4.6,0.7c-3.1,0.5-5.5-1-7.6-1.8c-3-1.2-6.3-1.8-9.6-1.7c-0.5,0-1.1,0-1.6,0c-2.2,0-9,0.5-21.9,5.2v3.3
	c1.1,0.5,1.8,1.6,1.8,2.8c0.8,9.2,2.1,12.1,3.3,14.2c0.3,0.6,0.6,1.1,0.9,1.6v-0.1c0.7,1,1.4,1.9,2.3,2.7c3.1,2.9,7.4,4.4,12.4,4.4
	c0.4,0,0.9,0,1.4,0c5.1-0.3,10.6-3.4,14.2-8.1c2-2.7,5.1-8,5.1-17.4c0,0,0.5-2,4.1-2s4.1,2,4.1,2c0,9.4,3.1,14.7,5.1,17.4
	c3.7,4.8,9.2,7.9,14.2,8.1c0.5,0,0.9,0,1.4,0c5.1,0,9.4-1.5,12.4-4.4c0.9-0.8,1.6-1.7,2.3-2.7v0.1c0.3-0.5,0.7-1,0.9-1.6
	c1.1-2.1,2.5-5,3.3-14.2c0-1.2,0.7-2.3,1.8-2.8v-3.3C100.4,78.7,93.6,78.3,91.5,78.3z M44.4,110.3c-8.9,0.4-17.2-3.7-17.6-17.8
	c0,0,0-6.9,5.9-10c4.5-2.3,25.4-6.1,28,5.6S53,109.9,44.4,110.3L44.4,110.3z M91.5,110.3c-8.7-0.4-18.9-10.4-16.3-22.2
	c2.6-11.7,23.5-8,28-5.6c5.9,3.1,5.9,10,5.9,10C108.6,106.6,100.3,110.8,91.5,110.3L91.5,110.3z"/>
<path class="st15" d="M110.5,54.7c-4.5,0.3-9,0.2-13.5-0.5c-4.5-0.6-8.9-1.7-13.2-3.2c-2.1-0.8-4.2-1.7-6.2-2.8
	c-4.1-2.1-7.8-4.8-11-8c-1.6-1.6-3-3.4-4.3-5.2c2.9,3.5,6.2,6.5,9.9,9s7.7,4.5,11.9,6c4.2,1.6,8.5,2.7,13,3.4
	c2.2,0.4,4.4,0.7,6.7,0.9C106,54.6,108.3,54.7,110.5,54.7z"/>
<path class="st15" d="M97.6,54.6c-4.5,0.3-9,0.2-13.5-0.5c-4.5-0.6-8.9-1.7-13.2-3.2c-2.1-0.8-4.2-1.7-6.2-2.8c-4-2.1-7.7-4.8-11-8
	c-1.6-1.6-3-3.4-4.3-5.2c2.9,3.5,6.2,6.5,9.9,9c3.7,2.5,7.7,4.5,11.9,6c4.2,1.6,8.5,2.7,13,3.4c2.2,0.4,4.4,0.7,6.7,0.9
	C93,54.5,95.3,54.6,97.6,54.6z"/>
<polygon class="st16" points="20.8,284 13.6,283.7 13.5,240.8 24.4,241.4 "/>
<path class="st2" d="M44.5,164.1c-3,11.8-6.4,23.1-9.8,34.4l-5.2,16.9l-2.5,8.4c-0.4,1.4-0.8,2.8-1.1,4.1l-0.3,1l-0.1,0.5l-0.1,0.3
	l-0.1,0.3c0,0.1-0.1,0.2-0.1,0.4l-0.1,1.1l0,0l-0.8,10l-10.8-0.6v-10.1l0,0v-1.1c0-0.1,0-0.5,0-0.7l0.1-0.8l0.1-0.8l0.1-0.6l0.2-1.2
	c0.3-1.6,0.6-3.1,0.9-4.5l1.8-8.7l3.7-17.3c2.4-11.5,4.9-23,6.7-34.3c0.2-1.2,0.6-2.5,1.1-3.6c0.5-1,1.2-1.9,2-2.7
	c1.4-1.5,3.5-2.2,5.6-2l3.5,0.5c2.1,0.4,3.9,1.8,4.6,3.8c0.5,1.1,0.8,2.3,0.9,3.6C44.9,161.4,44.8,162.8,44.5,164.1z"/>
<polygon class="st0" points="24.4,241.4 20.8,284 13.6,283.7 13.5,240.8 19,241.1 "/>
<path class="st0" d="M41.2,296.2c-1.5,1.6-4,1.6-5.6,0.1l-3.5-3.3c-0.5,1.4-1.2,2.8-2.1,4l-6.2,20.6c-0.6,2.1-2.8,3.3-4.9,2.7
	c-1.2-0.4-2.2-1.2-2.6-2.4l-0.2,0.7c-0.6,2.1-2.8,3.3-4.9,2.7c-2.1-0.6-3.3-2.8-2.7-4.9l0,0v-0.2c-0.7,0.2-1.4,0.2-2,0
	c-2.1-0.6-3.3-2.8-2.7-4.9l0,0l1.2-4c-0.8,0.5-1.7,0.6-2.5,0.3c-1.7-0.5-2.6-2.3-2.1-3.9l4.4-14.8c-0.2-7.7,6-14.1,13.7-14.3
	c4.4-0.1,8.5,1.9,11.2,5.3L41,290.8C42.6,292.2,42.7,294.7,41.2,296.2z"/>
<path class="st6" d="M21.5,300.9c-1,4-2.1,8-3.2,11.9c-0.5,2-1,4-1.7,5.9c-0.4,1.1-1.2,2-2.2,2.5s-2.2,0.5-3.2,0v-0.1 M11.3,321.2
	c1,0.2,2-0.1,2.8-0.6s1.4-1.3,1.6-2.2c0.5-2,1.2-3.9,1.9-5.9c1.3-3.9,2.6-7.8,3.9-11.7c0,0,0,0,0.1,0l0,0L11.3,321.2z"/>
<path class="st6" d="M15.8,299.3c-0.9,3.4-1.7,6.8-2.7,10.2l-0.7,2.5c-0.2,0.9-0.5,1.8-0.9,2.6c-1,1.7-3.2,2.4-5,1.6c0,0,0,0,0-0.1
	l0,0c1.6,0.3,3.3-0.5,4.1-2c0.2-0.3,0.3-0.7,0.4-1.1l0.4-1.2l0.8-2.5c1.1-3.3,2.2-6.6,3.3-9.9C15.7,299.4,15.7,299.4,15.8,299.3
	C15.7,299.4,15.8,299.3,15.8,299.3z"/>
<path class="st6" d="M9.9,294.3c-0.7,2.7-1.3,5.4-2,8l-0.5,2l-0.3,1c-0.1,0.4-0.3,0.7-0.5,1.1c-0.9,1.4-2.6,1.8-4.1,1.2
	c0,0,0,0,0-0.1c0,0,0,0,0.1,0c1.3,0.2,2.5-0.5,3.2-1.6c0.2-0.3,0.3-0.5,0.3-0.8l0.3-1l0.7-2C8,299.6,8.9,296.9,9.9,294.3
	C9.8,294.3,9.8,294.3,9.9,294.3L9.9,294.3z"/>
<path class="st6" d="M30.8,294.5c-1.3,4.9-2.7,9.8-4.1,14.7c-0.7,2.5-1.3,4.9-2,7.3c-0.2,0.6-0.4,1.2-0.7,1.8
	c-0.3,0.6-0.8,1.2-1.3,1.6c-0.6,0.4-1.2,0.6-1.9,0.7c-0.7,0.1-1.3,0-1.9-0.3 M18.9,320.3L18.9,320.3c1.2,0.2,2.4-0.1,3.4-0.9
	c0.4-0.4,0.8-0.9,1-1.4s0.3-1.2,0.5-1.8c0.7-2.5,1.5-4.8,2.3-7.2c1.5-4.8,3.1-9.6,4.7-14.5h0.1L18.9,320.3z"/>
<polygon class="st16" points="113.4,284 120.6,283.7 120.7,240.8 109.9,241.4 "/>
<path class="st2" d="M89.8,164.1c2.9,11.8,6.4,23.1,9.8,34.4l5.1,16.9l2.5,8.4c0.4,1.4,0.8,2.8,1.1,4.1l0.3,1l0.1,0.5v0.3l0.1,0.3
	c0,0.1,0.1,0.2,0.1,0.4l0.1,1.1l0,0l0.8,10l10.8-0.6v-10.1l0,0v-1.1c0-0.2,0-0.5-0.1-0.7l-0.1-0.8l-0.1-0.8l-0.1-0.6l-0.2-1.2
	c-0.3-1.6-0.6-3.1-0.9-4.5l-1.8-8.7l-3.7-17.3c-2.4-11.5-4.8-23-6.7-34.3c-0.2-1.2-0.6-2.5-1.1-3.6c-0.5-1-1.2-1.9-2-2.7
	c-1.4-1.5-3.5-2.2-5.6-2l-3.5,0.5c-2.1,0.4-3.9,1.8-4.6,3.8c-0.5,1.1-0.8,2.3-0.9,3.6C89.2,161.4,89.4,162.8,89.8,164.1z"/>
<polygon class="st0" points="109.9,241.4 113.4,284 120.6,283.7 120.7,240.8 115.3,241.1 "/>
<path class="st0" d="M94,296.2c1.5,1.6,4,1.6,5.6,0.1l3.5-3.4c0.5,1.4,1.2,2.8,2.1,4l6.2,20.6c0.6,2.1,2.8,3.3,4.9,2.7
	c1.2-0.4,2.2-1.2,2.6-2.4l0.2,0.7c0.5,2.1,2.7,3.4,4.8,2.9c2.1-0.5,3.4-2.7,2.9-4.8c0-0.1-0.1-0.2-0.1-0.3v-0.2c0.7,0.2,1.4,0.2,2,0
	c2.1-0.6,3.3-2.8,2.7-4.9l0,0l-1.3-4c1.5,0.9,3.4,0.4,4.3-1c0.5-0.8,0.6-1.7,0.3-2.6l-4.4-14.8c0.2-7.7-6-14.1-13.7-14.3
	c-4.4-0.1-8.5,1.9-11.2,5.3l-11.3,10.8C92.5,292.2,92.5,294.7,94,296.2z"/>
<path class="st6" d="M113.9,300.9c1.4,3.9,2.6,7.8,3.9,11.7c0.6,2,1.3,3.9,1.9,5.9c0.2,0.9,0.8,1.7,1.6,2.2c0.8,0.5,1.8,0.7,2.8,0.6
	h0.1l0,0c-1,0.5-2.2,0.5-3.2,0c-1.1-0.5-1.9-1.4-2.2-2.5c-0.7-2-1.1-4-1.7-5.9C115.9,308.8,114.8,304.8,113.9,300.9 M113.8,300.8
	C113.8,300.7,113.9,300.8,113.8,300.8C113.9,300.8,113.9,300.8,113.8,300.8L113.8,300.8z"/>
<path class="st6" d="M119.6,299.3c1.1,3.3,2.3,6.6,3.3,9.9l0.8,2.5l0.4,1.2c0.1,0.4,0.2,0.8,0.4,1.1c0.8,1.4,2.4,2.2,4.1,2
	c0,0,0.1,0,0.1,0.1l0,0c-1.8,0.8-3.9,0.1-5-1.6c-0.4-0.8-0.7-1.7-0.9-2.6l-0.7-2.5C121.2,306,120.3,302.6,119.6,299.3
	c-0.1-0.1-0.1-0.1-0.1-0.1h0.1C119.6,299.2,119.6,299.3,119.6,299.3L119.6,299.3z"/>
<path class="st6" d="M125.5,294.3c0.9,2.6,1.8,5.2,2.7,7.8l0.7,2l0.3,1c0.1,0.3,0.2,0.6,0.3,0.8c0.6,1.1,1.9,1.7,3.2,1.6
	c0,0,0.1,0,0.1,0.1c0,0,0,0,0,0.1c-1.5,0.7-3.2,0.2-4.1-1.2c-0.2-0.3-0.4-0.7-0.5-1.1l-0.3-1l-0.5-2c-0.7-2.7-1.4-5.3-2-8
	c0,0,0,0,0-0.1C125.4,294.2,125.4,294.2,125.5,294.3L125.5,294.3z"/>
<path class="st6" d="M104.5,294.4c1.6,4.8,3.2,9.6,4.7,14.5c0.8,2.4,1.6,4.8,2.3,7.2c0.2,0.6,0.3,1.3,0.5,1.8s0.5,1,1,1.4
	c0.9,0.8,2.2,1.1,3.4,0.9 M116.4,320.2C116.4,320.3,116.4,320.3,116.4,320.2c-0.6,0.3-1.3,0.4-1.9,0.3c-0.7-0.1-1.3-0.3-1.9-0.7
	c-0.6-0.4-1-1-1.3-1.6c-0.3-0.7-0.4-1.2-0.7-1.8c-0.8-2.4-1.4-4.9-2-7.3c-1.4-4.9-2.7-9.8-4.1-14.7c-2-7.3,0-0.1,0-0.1L116.4,320.2z
	"/>
</svg>
