<?xml version="1.0" encoding="utf-8"?>
<!-- Generator: Adobe Illustrator 22.1.0, SVG Export Plug-In . SVG Version: 6.00 Build 0)  -->
<svg version="1.1" id="Layer_1" xmlns="http://www.w3.org/2000/svg" xmlns:xlink="http://www.w3.org/1999/xlink" x="0px" y="0px"
	 viewBox="0 0 140.5 243.6" style="enable-background:new 0 0 140.5 243.6;" xml:space="preserve">
<style type="text/css">
	.st0{fill:#EFB100;}
	.st1{fill:#DFE0E0;}
	.st2{fill:#F0DBCB;}
	.st3{fill:#005E88;}
	.st4{fill:none;stroke:#EBC19C;stroke-width:0.99;stroke-linecap:round;stroke-linejoin:round;}
	.st5{fill:#EBC19C;}
	.st6{fill:#27B38F;}
	.st7{fill:#77C7FF;}
	.st8{fill:#CCCFD9;}
	.st9{clip-path:url(#SVGID_2_);}
	.st10{fill:#231F20;}
	.st11{fill:#F5E0CD;}
	.st12{fill:#F0D0B3;}
	.st13{fill:#A87C4F;}
	.st14{fill:url(#SVGID_3_);}
	.st15{fill:#58595B;}
	.st16{fill:#4C5258;}
	.st17{fill:#C3996B;}
	.st18{fill:#FFFFFF;}
	.st19{fill:#1B75BB;}
</style>
<title>img_young_boy</title>
<path class="st0" d="M73.1,17.6c-19.5,0-33.8,4-36.6,15.5c0.1,1.1,0.3,2.1,0.7,3.1c3.4,10,18.2,17.5,35.9,17.5s32.5-7.5,35.9-17.5
	c0.3-1,0.6-2,0.7-3.1C108.3,23,92.6,17.6,73.1,17.6z"/>
<path class="st1" d="M93.7,102.7c3.9,8.6,7.8,17.3,11.9,25.8l1.5,3.1l0.8,1.5l0.3,0.5c0.1,0.2,0.3,0.5,0.4,0.7l4.1,5.8l8.2,11.6
	l4.9,6.9l-2.5,1.9l-2.5,1.9l-11.7-14.4l-5.9-7.2l-1.5-1.8c-0.1-0.2-0.3-0.3-0.4-0.5l-0.4-0.6c-0.3-0.5-0.5-0.8-0.7-1.1
	c-0.4-0.7-0.8-1.4-1.2-2.1l-1.2-2c-4.7-8.4-9.2-16.8-13.7-25.2l0,0c-2.2-4.1-1.8-8.6,1-9.9l0.1-0.1C88,96.1,91.8,98.5,93.7,102.7z"
	/>
<path class="st1" d="M56.9,108c-2.4,4.8-4.8,9.6-7.3,14.3s-5,9.5-7.9,14.3c-0.4,0.6-0.8,1.2-1.2,1.8c-0.5,0.8-1.1,1.5-1.8,2.2
	c-0.1,0.1-0.3,0.3-0.5,0.5s-0.3,0.2-0.4,0.3l-0.3,0.2l-0.1,0.1l-0.2,0.1c-0.4,0.2-0.8,0.3-1.2,0.4c-0.4,0.1-0.8,0.1-1.2,0.1
	c-0.3,0-0.6-0.1-0.9-0.1l-0.4-0.1l-0.2-0.1l-0.1,0c-0.5-0.2-1-0.5-1.4-0.8c-0.3-0.2-0.5-0.4-0.7-0.7c-0.6-0.6-1.2-1.3-1.7-2
	c-1.6-2.3-3-4.8-4.3-7.3c-2.6-4.8-4.9-9.6-7.2-14.5c-1.3-2.9-2.7-5.8-4-8.7l2.9-1.4l2.8-1.4c3.2,6.1,6.4,12.1,9.9,18
	c1.7,2.9,3.5,5.9,5.3,8.5c0.5,0.6,0.9,1.3,1.4,1.8c0.2,0.3,0.5,0.5,0.6,0.7l0.2,0.2l0,0l-0.1,0.1c-0.2,0.2-0.4,0.4-0.5,0.7l-0.2,0.4
	l-0.2,0.3c-0.1,0.2-0.3,0.4-0.4,0.6c-0.2,0.3-0.3,0.6-0.4,0.9c0,0.1,0,0.1,0,0.2c0,0,0,0.1,0,0.1v0.1c0-0.1,0,0.2,0,0.1l0,0
	c0-0.1,0-0.1-0.1-0.2c-0.1-0.1-0.2-0.4-0.3-0.5c-0.1-0.1-0.1-0.2-0.2-0.3c-0.1-0.1-0.2-0.3-0.3-0.4c-0.2-0.3-0.4-0.5-0.7-0.7
	c-0.3-0.3-0.6-0.6-0.9-0.9l0.4-0.5c0.4-0.6,0.8-1.3,1.1-2c2.4-4.4,4.6-9.3,6.8-14.1s4.3-9.7,6.4-14.6l0,0c2-4.8,5.9-7.7,8.7-6.4
	l0.1,0C58.9,98.4,59.3,103.3,56.9,108z"/>
<polygon class="st2" points="85.9,151.5 79.9,151.9 83,193.5 83,193.3 83,240.1 89,240.1 89,193.3 89,193.2 89,193.1 "/>
<path class="st3" d="M93.8,160.2l-0.1,8.2l-0.1,8.2l0,0l-0.2,16v0.5l-0.3,3.1H78.8l-0.3-3.1v0.5l-3.8-24l-1.3-8.1l0,0
	c-1.7-10.4,2-19.3,8.2-19.7l1-0.1C88.9,141.4,93.9,149.7,93.8,160.2z"/>
<polygon class="st2" points="64.3,151.9 58.3,151.5 55.3,193.1 55.3,193.2 55.3,193.3 55.3,240.1 61.3,240.1 61.3,193.3 61.3,193.5 
	"/>
<path class="st3" d="M70.8,161.7l-1.3,8.1l-1.3,8.1l0,0l-2.5,15.8v-0.5l-0.3,3.1H51.1l-0.3-3.1v-0.5l-0.3-24.3l-0.1-8.2l0,0
	c-0.1-10.5,4.8-18.8,11-18.3l1.1,0.1C68.8,142.4,72.5,151.3,70.8,161.7z"/>
<path class="st2" d="M140.5,165.2c0.1,6.4-6.9,12.6-13.3,12.6s-9.8-6-9.9-12.4c-0.1-6.4,5.1-11.6,11.5-11.7
	C135.2,153.7,140.4,158.8,140.5,165.2z"/>
<path class="st2" d="M126.4,169c0,3-1.7,5.9-4.7,5.9c-3.8,0-6.7-2.3-7.1-5.9c-0.6-4.9,4.5-11.2,6.4-11.5
	C124,157.1,126.4,166,126.4,169z"/>
<path class="st4" d="M117.8,169.5c1.2,4.7,4.4,8.4,9.4,8.4c0,0,3.5-0.3,4-3.3"/>
<path class="st4" d="M120,174.8c-2.9-0.5-5-2.9-5.3-5.7c-0.4-3.6,2.2-8,4.4-10.1"/>
<path class="st2" d="M23.6,98.8c0.5,6-3.9,11.3-10,11.8c-6,0.5-11.3-3.9-11.8-10c-0.5-6,3.9-11.3,9.9-11.8
	C17.8,88.3,23.1,92.8,23.6,98.8C23.6,98.8,23.6,98.8,23.6,98.8z"/>
<path class="st2" d="M23.1,103L27.2,90c0.5-1.6-0.5-3.4-2.2-3.8c-1.6-0.4-3.2,0.4-3.7,1.9l-4.2,12.9L23.1,103z"/>
<path class="st2" d="M18.7,91.3L5.3,77.9c-1.2-1.2-3.2-1.2-4.4,0s-1.2,3.2,0,4.4l13.4,13.3L18.7,91.3z"/>
<path class="st5" d="M18.7,91.3c-3.1-2.5-6-5.2-8.8-8c-1.4-1.4-2.8-2.8-4.1-4.3c-0.3-0.4-0.7-0.8-1-1c-0.3-0.3-0.8-0.5-1.2-0.6
	c-0.9-0.2-1.9,0-2.7,0.6c0.7-0.8,1.7-1.2,2.8-1.1c0.5,0.1,1.1,0.3,1.5,0.6c0.4,0.3,0.8,0.6,1.2,1c1.5,1.3,2.9,2.7,4.3,4.1
	C13.4,85.4,16.1,88.2,18.7,91.3z"/>
<path class="st5" d="M15.4,102.5c-0.2-0.3-0.4-0.7-0.5-1.1c-0.1-0.4-0.2-0.8-0.3-1.2c-0.1-0.8,0-1.7,0.2-2.5
	c0.3-0.8,0.7-1.5,1.3-2.1c0.5-0.6,1.2-1,2-1.3c-1.1,1-1.9,2.3-2.4,3.7c-0.2,0.7-0.4,1.4-0.4,2.1c0,0.4,0,0.8,0,1.1
	C15.3,101.8,15.4,102.1,15.4,102.5z"/>
<g id="_Group_">
	<path class="st6" d="M25.7,169.4c0,0,6.2-25.1,6.9-26.9s3.5-2.9,6.3-2.6s13.1,2.9,13.1,5.4s-4.4,27.9-5.7,30s-3.8,2.2-7.7,1.9
		S25.8,173.6,25.7,169.4z"/>
	<path class="st0" d="M30.2,165.4l-5.7-1.3c0,0,3.2-18.4,4.9-20.9s6.2-7.5,11.9-4.8s8.5,4.4,8.5,4.4l-2.4,2.5c0,0-6.1-4.1-8.5-1.6
		s-6,17.4-6.3,19.1S32.7,165.1,30.2,165.4z"/>
	<path class="st6" d="M30.5,161.6c0,0.8-0.6,1.5-1.5,1.5c-0.8,0-1.5-0.6-1.5-1.5c0-0.8,0.6-1.5,1.5-1.5
		C29.8,160.1,30.5,160.8,30.5,161.6C30.5,161.6,30.5,161.6,30.5,161.6z"/>
	<ellipse class="st7" cx="72.1" cy="159.3" rx="26.3" ry="24.4"/>
	<path class="st7" d="M41.3,180H103l-10.9-78.4c-0.3-2.3-2.3-4.1-4.6-4.1H56.8c-2.3,0.1-4.3,1.8-4.6,4.1L41.3,180z"/>
	<path class="st8" d="M74.8,121.6c0,1.5-1.2,2.6-2.6,2.6c-1.5,0-2.6-1.2-2.6-2.6c0-1.5,1.2-2.6,2.6-2.6c0,0,0,0,0,0
		C73.6,119,74.8,120.1,74.8,121.6z"/>
	<path class="st8" d="M74.8,138.8c0,1.5-1.2,2.6-2.6,2.6c-1.5,0-2.6-1.2-2.6-2.6c0-1.5,1.2-2.6,2.6-2.6c0,0,0,0,0,0
		C73.6,136.2,74.8,137.4,74.8,138.8z"/>
	<path class="st8" d="M74.8,156c0,1.5-1.2,2.6-2.6,2.6s-2.6-1.2-2.6-2.6c0-1.5,1.2-2.6,2.6-2.6c0,0,0,0,0,0
		C73.6,153.4,74.8,154.6,74.8,156C74.8,156,74.8,156,74.8,156z"/>
	<polygon class="st6" points="80.7,99.3 83.8,100.4 44,148 40.3,144 	"/>
	<g>
		<defs>
			<polygon id="SVGID_1_" points="80.6,99.3 83.8,100.4 44,148 40.3,144 			"/>
		</defs>
		<clipPath id="SVGID_2_">
			<use xlink:href="#SVGID_1_"  style="overflow:visible;"/>
		</clipPath>
		<g class="st9">
			<polygon class="st0" points="85.8,96.1 40.9,148.3 44.8,150.6 89,96.5 			"/>
		</g>
	</g>
	<path class="st8" d="M81.6,96.6c2.8,1.5,3.8,5,2.2,7.8c-0.5,0.9-1.2,1.6-2.1,2.1c-5,2.7-9.5-2.3-9.5-2.3s-4.5,5-9.6,2.3
		c-2.7-1.6-3.6-5.1-2-7.9c0.5-0.9,1.3-1.6,2.1-2.1H81.6z"/>
	<path class="st2" d="M79.6,97.5c0,2.8-4.3,7.1-7.4,7.1s-7.4-4.3-7.4-7.1H79.6z"/>
	<rect x="66.1" y="86.7" class="st2" width="12.2" height="12.5"/>
</g>
<polygon class="st10" points="34.5,243.6 34.5,237.2 53.9,230.7 62.9,230.7 62.9,243.6 "/>
<polygon class="st10" points="109.7,243.6 109.7,237.2 90.4,230.7 81.4,230.7 81.4,243.6 "/>
<path class="st5" d="M78.3,95.8v-1.1H66.1V96C68.2,97.3,72.3,98.8,78.3,95.8z"/>
<path class="st11" d="M98.8,59.8c-1,1.5-1.8,3.3-2.2,5.1c-0.2,1.2-0.1,3,0.4,3.4c0.2,0.1,0.8-0.1,1-0.2c1.5-1,2.4-2.7,2.4-4.5
	C100.5,62.1,99.9,60.7,98.8,59.8z"/>
<path class="st11" d="M102.7,54.4c-2.3-0.4-5.8,2.2-5.8,2.2c-4.1,3.1-1.7,17.5,1.8,16.9s3.2-5.1,3.2-5.1c1.7-1,3.2-5.2,3.2-5.2
	C108,55.3,102.7,54.4,102.7,54.4z M104.4,59.3c-0.1,0.6-0.4,1.1-0.6,1.6l-1.1-0.4c0.2-0.4,0.4-0.9,0.5-1.4c0.1-0.4,0.1-0.9-0.1-1.3
	c-0.2-0.3-0.5-0.6-0.8-0.7c-0.3,0-0.6,0-0.8,0.1c-0.7,0.4-1.4,0.9-1.8,1.6c1.5,1.1,2.3,2.8,2.2,4.6c0,2.2-1.1,4.3-3,5.4
	c-0.4,0.3-0.9,0.4-1.5,0.4c-0.3,0-0.6-0.1-0.9-0.2c-1.5-0.9-1.1-3.9-1-4.5c0.5-2.7,3.1-7.6,5.5-8.5c0.5-0.2,1-0.3,1.5-0.2
	c0.8,0.1,1.4,0.6,1.8,1.3C104.4,58,104.5,58.7,104.4,59.3L104.4,59.3z"/>
<path class="st12" d="M102.4,56.1c-0.5-0.1-1,0-1.5,0.2c-2.4,0.9-5,5.7-5.5,8.5c-0.1,0.6-0.5,3.6,1,4.5c0.3,0.2,0.6,0.2,0.9,0.2
	c0.5,0,1-0.2,1.5-0.4c1.9-1.1,3-3.2,3-5.4c0.1-1.8-0.7-3.6-2.2-4.6c0.5-0.7,1.1-1.2,1.8-1.6c0.3-0.1,0.6-0.2,0.8-0.1
	c0.4,0.1,0.7,0.3,0.8,0.7c0.2,0.4,0.2,0.8,0.1,1.3c-0.1,0.5-0.3,1-0.5,1.4l1.1,0.4c0.3-0.5,0.5-1.1,0.6-1.6c0.2-0.6,0.1-1.3-0.2-1.9
	C103.9,56.7,103.2,56.2,102.4,56.1z M100.4,63.5c0,1.8-0.8,3.5-2.4,4.5c-0.3,0.1-0.8,0.4-1,0.2c-0.6-0.3-0.6-2.2-0.4-3.4
	c0.4-1.8,1.2-3.5,2.2-5.1C99.9,60.7,100.5,62.1,100.4,63.5L100.4,63.5z"/>
<path class="st11" d="M45.6,59.8c1,1.5,1.8,3.3,2.2,5.1c0.2,1.2,0.2,3-0.4,3.4c-0.2,0.1-0.8-0.1-1-0.2c-1.5-1-2.4-2.7-2.4-4.5
	C43.9,62.1,44.5,60.7,45.6,59.8z"/>
<path class="st11" d="M39.4,63.2c0,0,1.5,4.2,3.2,5.2c0,0-0.3,4.6,3.2,5.1s5.9-13.8,1.9-16.9c0,0-3.5-2.5-5.8-2.2
	C41.8,54.4,36.4,55.3,39.4,63.2z M40.3,57.4c0.3-0.7,1-1.2,1.8-1.3c0.5-0.1,1,0,1.5,0.2c2.4,0.9,5,5.7,5.5,8.5
	c0.1,0.6,0.5,3.6-1,4.5c-0.3,0.2-0.6,0.2-0.9,0.2c-0.5,0-1-0.2-1.5-0.4c-1.9-1.2-3-3.2-3-5.4c-0.1-1.8,0.7-3.6,2.2-4.6
	c-0.5-0.7-1.1-1.2-1.8-1.6c-0.3-0.1-0.6-0.2-0.8-0.1c-0.4,0.1-0.7,0.3-0.8,0.7c-0.2,0.4-0.2,0.8-0.1,1.3c0.1,0.5,0.3,1,0.5,1.4
	l-1.1,0.4c-0.3-0.5-0.5-1.1-0.6-1.6C39.9,58.7,40,58,40.3,57.4L40.3,57.4z"/>
<path class="st12" d="M40.3,57.4c-0.3,0.6-0.3,1.3-0.2,1.9c0.1,0.6,0.4,1.1,0.6,1.6l1.1-0.4c-0.2-0.4-0.4-0.9-0.5-1.4
	c-0.1-0.4-0.1-0.9,0.1-1.3c0.1-0.3,0.5-0.6,0.8-0.7c0.3,0,0.6,0,0.8,0.1c0.7,0.4,1.4,0.9,1.8,1.6c-1.5,1.1-2.3,2.8-2.2,4.6
	c-0.1,2.2,1.1,4.3,3,5.4c0.4,0.3,1,0.4,1.5,0.4c0.3,0,0.6-0.1,0.9-0.2c1.5-0.9,1-3.9,1-4.5c-0.5-2.7-3.1-7.6-5.5-8.5
	c-0.5-0.2-1-0.3-1.5-0.2C41.3,56.2,40.6,56.7,40.3,57.4z M45.6,59.8c1,1.5,1.8,3.3,2.2,5.1c0.2,1.2,0.2,3-0.4,3.4
	c-0.2,0.1-0.8-0.1-1-0.2c-1.5-1-2.4-2.7-2.4-4.5C43.9,62.1,44.5,60.7,45.6,59.8L45.6,59.8z"/>
<path class="st2" d="M72.2,95.6L72.2,95.6c-12.2,0-26-10-26-21V37.8c0-11.1,9.9-20,22.1-20h7.9c12.2,0,22.1,9,22.1,20v36.7
	C98.3,85.6,84.4,95.6,72.2,95.6z"/>
<path class="st5" d="M63.8,87.8c4.6,4.6,12,4.7,16.7,0.1c0,0,0.1-0.1,0.1-0.1C75.2,89.9,69.2,89.9,63.8,87.8z"/>
<path class="st13" d="M86.1,50.3c0.2,0,0.3-0.2,0.1-0.3c-0.7-0.4-1.6-0.6-2.4-0.5c-0.8,0.1-1.6,0.4-2.2,0.9c-0.1,0.1,0,0.3,0.2,0.2
	c0.7-0.3,1.4-0.4,2.2-0.5C84.6,50.2,85.3,50.2,86.1,50.3z"/>
<path class="st13" d="M57.1,51.1c-0.2,0-0.3-0.2-0.1-0.3c0.8-0.5,1.8-0.7,2.8-0.6c0.9,0.1,1.8,0.5,2.6,1.1c0.2,0.1,0,0.4-0.2,0.3
	c-0.8-0.3-1.6-0.5-2.5-0.6C58.8,50.9,57.9,50.9,57.1,51.1z"/>
<radialGradient id="SVGID_3_" cx="675.37" cy="-264.71" r="11.58" gradientTransform="matrix(1 0 0 -1 0 246)" gradientUnits="userSpaceOnUse">
	<stop  offset="0" style="stop-color:#F0BFD9;stop-opacity:0.95"/>
	<stop  offset="4.000000e-02" style="stop-color:#EEBCD3;stop-opacity:0.88"/>
	<stop  offset="0.15" style="stop-color:#E9B3C2;stop-opacity:0.65"/>
	<stop  offset="0.27" style="stop-color:#E4ABB2;stop-opacity:0.45"/>
	<stop  offset="0.39" style="stop-color:#E1A4A6;stop-opacity:0.29"/>
	<stop  offset="0.51" style="stop-color:#DE9F9C;stop-opacity:0.16"/>
	<stop  offset="0.62" style="stop-color:#DC9C96;stop-opacity:7.000000e-02"/>
	<stop  offset="0.73" style="stop-color:#DA9A91;stop-opacity:2.000000e-02"/>
	<stop  offset="0.83" style="stop-color:#DA9990;stop-opacity:0"/>
	<stop  offset="1" style="stop-color:#DA9990;stop-opacity:0"/>
</radialGradient>
<ellipse class="st14" cx="92" cy="69.4" rx="12.8" ry="11.6"/>
<path class="st5" d="M72.2,71.6l2.7-0.5c0.3,0,0.6-0.2,0.6-0.5c0-0.2,0-0.3-0.2-0.4l-2.6-2.5c-0.2-0.2-0.6-0.2-0.8,0l-2.7,2.4
	c-0.2,0.2-0.2,0.5,0,0.7c0.1,0.1,0.3,0.2,0.4,0.2L72.2,71.6z"/>
<ellipse class="st15" cx="60" cy="56.7" rx="3.1" ry="2.8"/>
<ellipse class="st15" cx="83.9" cy="56.7" rx="3.1" ry="2.8"/>
<path class="st16" d="M44,55.2l-1.6-19.9c0,0,1.7-9.3,9.3-13.4c0,0,9.3-7.4,20.5-7s15.5,3.9,18.2,6.3c0,0,12,0.8,12,15.4
	s-1.1,18.9-1.1,18.9s-2.9,0.7-3.5,2.7V46.4c0,0-8.2-8.3-9.1-17.5c0,0-13.3,17.6-41,11.6v18.3C47.1,57.1,45.8,55.7,44,55.2z"/>
<path class="st17" d="M59.6,77.1c1,3.3,6.5,5.9,13,5.9s12-2.5,13-5.9c-2.8,1.2-7.6,1.4-13,1.4S62.4,78.3,59.6,77.1z"/>
<path class="st18" d="M85.3,77.6c0.3-0.4,0.5-0.8,0.7-1.2c0-0.1-0.2-0.2-0.5-0.1c-3,1.1-7.7,1.2-12.9,1.2s-9.9-0.1-12.9-1.2
	c-0.2-0.1-0.5,0-0.5,0.1c0.2,0.4,0.4,0.9,0.7,1.2c3,1,7.5,1.1,12.6,1.1S82.3,78.6,85.3,77.6z"/>
<path class="st19" d="M73.1,0C82.8,0,91,8.1,93.8,19.4h0.4l8.4,8.6h2.4C105,12.5,90.7,0,73.1,0z"/>
<path class="st19" d="M73.1,0C56.5,0,42.9,11,41.3,25.2h3.2L52,21C54.4,8.9,62.9,0,73.1,0z"/>
<path class="st0" d="M73.1,0C62.9,0,54.4,8.9,52,21l2.8-1.6h3.8C60.5,8.1,66.3,0,73.1,0z"/>
<path class="st0" d="M73.1,0c6.8,0,12.5,8.1,14.5,19.4h6.2C91,8.1,82.8,0,73.1,0z"/>
<path class="st19" d="M73.1,0c-6.8,0-12.5,8.1-14.5,19.4h29C85.6,8.1,79.8,0,73.1,0z"/>
<path class="st0" d="M36.4,33.4c0-9.8,12.3-21.9,36.1-21c23,0.8,37.2,11.2,37.2,21l-7.5,1.2c0,0-6.1-12.5-29.4-12.5
	c-23.8,0-27.3,6.2-30.4,13.4L36.4,33.4z"/>
</svg>
