<?xml version="1.0" encoding="utf-8"?>
<!-- Generator: Adobe Illustrator 22.1.0, SVG Export Plug-In . SVG Version: 6.00 Build 0)  -->
<svg version="1.1" id="Layer_1" xmlns="http://www.w3.org/2000/svg" xmlns:xlink="http://www.w3.org/1999/xlink" x="0px" y="0px"
	 viewBox="0 0 210.9 478" style="enable-background:new 0 0 210.9 478;" xml:space="preserve">
<style type="text/css">
	.st0{fill:#F5E0CD;}
	.st1{fill:#4C5258;}
	.st2{fill:#787986;}
	.st3{fill:#F1F1F2;}
	.st4{fill:#404041;}
	.st5{opacity:0.55;fill:#BBBDBF;enable-background:new    ;}
	.st6{fill:#EBC19C;}
	.st7{fill:#F0D0B3;}
	.st8{fill:#C3996B;}
	.st9{fill:#FFFFFF;}
	.st10{fill:#8A5D3B;}
	.st11{fill:url(#SVGID_1_);}
	.st12{fill:#58595B;}
</style>
<title>img_young_female</title>
<g>
	<g id="Layer_1_1_">
		<path class="st0" d="M115.9,444.3c0,3.4-2,6.3-4.4,6.4h-1.1c-2.4,0.1-4.5-2.7-4.7-6.1L95.4,244.3c-0.2-3.4,1.6-6.3,4-6.4l13-0.3
			c2.4-0.1,4.3,2.7,4.3,6.1L115.9,444.3z"/>
		<path class="st0" d="M153.6,444.5c-0.1,3.4-2.2,6.2-4.6,6.2h-1c-2.4,0-4.4-2.8-4.5-6.3L138.8,244c-0.1-3.4,1.8-6.2,4.2-6.2
			l13.1,0.1c2.4,0,4.3,2.8,4.1,6.3L153.6,444.5z"/>
		<path class="st1" d="M127.9,262.1c-8.1,0.7-31.7,10.9-39.5,8.4l5.4,88.1c0,0,30.4,17.2,69.8,0c0.9-7.9,5.5-89,5.5-89
			C161.9,271.9,136.2,262.8,127.9,262.1z"/>
		<path class="st2" d="M169.7,271.7L156,221.5l7.1-33.2c0.3-1.4,0.3-2.8-0.1-4.2l-8.2-32.8c-8.9-1.8-17.9-2.4-26.9-1.9
			c-22.9-0.1-25.3,1.9-25.3,1.9l-8,31.7c-0.5,2.1-0.6,4.3-0.1,6.4l6.9,32.1l-13.7,50.2l0.7,0.9c6.3,2,22.7,7.5,33.1,9.3l5.3-15.8
			l4.3,16.2c10.4-1.1,31.5-8.5,37.8-10.6H169.7z"/>
		<path class="st2" d="M94.6,152c4.6-3.3,10.5-2.9,13,0.9l2.1,3.3c2.5,3.9,0.6,9.4-4.4,12.3l-49.1,29l-0.5,0.3
			c-0.7,0.3-1.3,0.6-2,0.8s-1.5,0.3-2.2,0.3s-1.4,0-2-0.2c-0.6-0.1-1.1-0.3-1.7-0.5c-1.5-0.6-2.9-1.5-4.1-2.6
			c-1.5-1.4-2.7-3-3.8-4.7c-1.7-2.7-3.3-5.6-4.6-8.6c-2.6-5.6-4.7-11.3-6.7-16.9c-3.9-11.3-7.3-22.6-10.4-34l7.7-2.4
			c4.1,10.9,8.4,21.7,13.2,32.2c2.4,5.2,4.9,10.4,7.7,15.2c1.3,2.3,2.7,4.5,4.3,6.5c0.6,0.7,1.2,1.4,1.9,2l0.1,0.1l0,0l-0.2,0.2
			l-0.2,0.4c-0.3,0.5-0.6,0.8-0.8,1.3l-0.3,0.6c-0.1,0.2-0.2,0.3-0.2,0.5c-0.5,1.3-0.1,1.8-0.4,1.1l-2.7-3.8L94.6,152z"/>
		<polygon class="st1" points="65.9,465 60.7,467.6 60.7,478 90.6,478 109.8,468.1 109.8,478 118.9,478 118.9,455.9 93.8,465 		"/>
		<polygon class="st0" points="115,427 111,427 101,446.8 65.9,465 93.8,465 118.9,455.9 118.9,446.8 		"/>
		<polygon class="st1" points="103.9,465 98.7,467.6 98.7,478 128.5,478 147.7,468.1 147.7,478 156.9,478 156.9,455.9 131.8,465 		
			"/>
		<polygon class="st0" points="153,427 149,427 139,446.8 103.9,465 131.8,465 156.9,455.9 156.9,446.8 		"/>
		<polygon class="st3" points="106.8,154.3 128.6,216 148.7,154.3 		"/>
		<path class="st4" d="M128.7,9.1L128.7,9.1c-27.9,0-50.6,22.6-50.8,50.5v69c0,5.4,3.8,10.1,9.1,11.2c-0.5-2.8-0.7-5.6-0.6-8.4
			c0,0,0.7,4.6,1.7,8.6c0.4,0,0.8,0.1,1.2,0.1l1.5,0.3c-0.9-3.6-1.2-7.4-1.1-11.1c0,0,1.1,7,2.4,11.4l36.4,6.1l36.5-6.1
			c1.3-4.3,2.4-11.4,2.4-11.4c0.1,3.7-0.2,7.5-1.1,11.1l1.5-0.3c0.4,0,0.8,0,1.2-0.1c1-4,1.7-8.6,1.7-8.6c0.2,2.8,0,5.7-0.6,8.4
			c5.3-1.1,9.1-5.8,9.1-11.2v-69C179.3,31.7,156.7,9.1,128.7,9.1z"/>
		<path class="st5" d="M127.1,148.8c-3.2-2-13.2-6.6-21.3,6.1c-0.2,0.3-0.3,0.7-0.2,1.1l4.2,22.6c0,0.7,0.6,1.2,1.3,1.1
			c0.4,0,0.8-0.3,1-0.6c2.5-4.4,7.7-12,15.3-14c0.2-0.1,0.4-0.1,0.6,0c7.7,2,12.9,9.6,15.3,14c0.3,0.6,1,0.8,1.6,0.5
			c0.4-0.2,0.6-0.6,0.6-1l4.2-22.6c0.1-0.4,0-0.8-0.2-1.1c-8.1-12.7-18.1-8.2-21.3-6.1C128,149,127.5,149,127.1,148.8z"/>
		<path class="st3" d="M127.2,147.4c-3.1-1.9-12.4-6.2-20.1,5.8c-0.2,0.3-0.3,0.7-0.2,1.1l4,21.3c0,0.6,0.6,1.1,1.2,1.1
			c0.4,0,0.7-0.3,0.9-0.6c2.3-4.2,7.3-11.3,14.5-13.2c0.2-0.1,0.4-0.1,0.6,0c7.2,1.9,12.2,9,14.5,13.2c0.3,0.6,1,0.8,1.5,0.5
			c0.4-0.2,0.6-0.5,0.6-0.9l4-21.3c0.1-0.4,0-0.8-0.2-1.1c-7.7-12-17.1-7.7-20.1-5.8C128,147.6,127.5,147.6,127.2,147.4z"/>
		<path class="st0" d="M128.8,90.4L128.8,90.4c6.7,0,12,5.4,12,12v46.2c0,6.6-5.4,12-12,12h-0.1c-6.6,0-12-5.4-12-12v-46.2
			C116.8,95.7,122.2,90.4,128.8,90.4z"/>
		<path class="st6" d="M140.8,141.4v-1.9h-24v2.2C121.1,144,129,146.5,140.8,141.4z"/>
		<path class="st7" d="M170,80.7c-1.6,2.7-2.8,5.6-3.4,8.6c-0.3,2-0.2,5.1,0.7,5.7c0.4,0.3,1.2-0.1,1.6-0.4c2.2-1.3,3.6-4.3,3.6-7.6
			C172.5,84.3,171.5,81.9,170,80.7z"/>
		<path class="st7" d="M175.8,71.5c-3.5-0.7-9,3.7-9,3.7c-6.3,5.3-2.6,29.8,2.8,28.8c5.4-0.9,4.9-8.8,4.9-8.8c2.7-1.7,5-8.8,5-8.8
			C184.2,73.1,175.8,71.5,175.8,71.5z M178.5,79.9c-0.2,1-0.6,1.9-1,2.8l-1.8-0.8c0.4-0.8,0.6-1.6,0.8-2.4c0.2-0.7,0.1-1.5-0.1-2.2
			c-0.2-0.6-0.7-1-1.3-1.1c-0.5,0-0.9,0.1-1.3,0.2c-1.2,0.6-2.1,1.6-2.8,2.7c2.1,1.6,3.4,4.5,3.3,7.9c-0.1,4-1.8,7.6-4.6,9.2
			c-0.7,0.5-1.5,0.7-2.3,0.8c-0.5,0-1-0.1-1.4-0.4c-2.2-1.5-1.6-6.6-1.5-7.6c0.8-4.7,4.7-12.9,8.5-14.4c0.7-0.3,1.5-0.4,2.3-0.3
			c1.2,0.2,2.3,1.1,2.8,2.3C178.6,77.6,178.7,78.8,178.5,79.9z"/>
		<path class="st6" d="M175.5,74.3c-0.8-0.1-1.6,0-2.3,0.3c-3.7,1.5-7.7,9.7-8.5,14.4c-0.1,1-0.8,6.1,1.5,7.6
			c0.4,0.3,0.9,0.4,1.4,0.4c0.8,0,1.6-0.3,2.3-0.8c2.8-1.7,4.5-5.2,4.6-9.2c0-3.4-1.2-6.4-3.3-7.9c0.7-1.1,1.7-2,2.8-2.7
			c0.4-0.2,0.9-0.3,1.3-0.2c0.6,0.2,1.1,0.6,1.3,1.1c0.3,0.7,0.3,1.4,0.1,2.2c-0.2,0.8-0.5,1.6-0.8,2.4l1.8,0.8
			c0.4-0.9,0.7-1.8,1-2.8c0.2-1.1,0.2-2.2-0.2-3.3C177.8,75.4,176.7,74.6,175.5,74.3z M172.4,87c0,3.3-1.5,6.3-3.6,7.6
			c-0.4,0.3-1.2,0.7-1.6,0.4c-0.9-0.6-0.9-3.7-0.7-5.7c0.6-3,1.8-6,3.4-8.6C171.5,81.9,172.5,84.3,172.4,87L172.4,87z"/>
		<path class="st7" d="M87.8,80.7c1.6,2.7,2.8,5.6,3.4,8.6c0.3,2,0.2,5.1-0.7,5.7c-0.4,0.3-1.2-0.1-1.6-0.4
			c-2.2-1.3-3.6-4.3-3.6-7.6C85.2,84.3,86.2,81.9,87.8,80.7z"/>
		<path class="st7" d="M78.2,86.4c0,0,2.3,7.2,5,8.8c0,0-0.5,7.8,4.9,8.8c5.4,0.9,9.1-23.5,2.8-28.8c0,0-5.5-4.3-9-3.7
			C81.9,71.5,73.5,73.1,78.2,86.4z M79.5,76.6c0.5-1.2,1.5-2,2.8-2.3c0.8-0.1,1.6,0,2.3,0.3c3.7,1.5,7.7,9.7,8.5,14.4
			c0.1,1,0.8,6.1-1.5,7.6c-0.4,0.3-0.9,0.4-1.4,0.4c-0.8,0-1.6-0.3-2.3-0.8c-2.8-1.7-4.5-5.2-4.6-9.2c0-3.4,1.2-6.4,3.3-7.9
			c-0.7-1.1-1.7-2-2.8-2.7c-0.4-0.2-0.9-0.3-1.3-0.2c-0.6,0.1-1.1,0.6-1.3,1.1C81,78,81,78.8,81.1,79.5c0.2,0.8,0.5,1.6,0.8,2.4
			l-1.8,0.8c-0.4-0.9-0.7-1.8-1-2.8C79,78.8,79.1,77.6,79.5,76.6L79.5,76.6z"/>
		<path class="st6" d="M79.5,76.6c-0.4,1-0.5,2.2-0.2,3.3c0.2,1,0.6,1.9,1,2.8l1.8-0.8c-0.4-0.8-0.6-1.6-0.8-2.4
			c-0.3-0.7-0.3-1.5,0-2.2c0.2-0.6,0.7-1,1.3-1.1c0.5,0,0.9,0.1,1.3,0.2c1.2,0.6,2.1,1.5,2.8,2.7c-2.1,1.6-3.4,4.5-3.3,7.9
			c0,4,1.8,7.6,4.6,9.2c0.7,0.5,1.5,0.7,2.3,0.8c0.5,0,1-0.1,1.4-0.4c2.2-1.5,1.6-6.6,1.5-7.6c-0.8-4.7-4.7-12.9-8.5-14.4
			c-0.7-0.3-1.5-0.4-2.3-0.3C81,74.5,80,75.4,79.5,76.6z M87.8,80.7c1.6,2.7,2.8,5.6,3.4,8.6c0.3,2,0.2,5.1-0.7,5.7
			c-0.4,0.3-1.2-0.1-1.6-0.4c-2.2-1.3-3.6-4.3-3.6-7.6C85.2,84.3,86.2,81.9,87.8,80.7L87.8,80.7z"/>
		<path class="st0" d="M128.9,141.6L128.9,141.6c-18.9,0-40.2-17-40.2-35.8V43.2c0-18.9,15.3-34.1,34.1-34.1l0,0H135
			c18.8,0,34.1,15.3,34.1,34.1v62.6C169.1,124.7,147.7,141.6,128.9,141.6z"/>
		<path class="st8" d="M113.5,111.2c1.2,8.6,7.5,15.2,15.1,15.2s13.9-6.6,15.1-15.2c-3.3,3.2-8.8,3.6-15.1,3.6
			S116.8,114.4,113.5,111.2z"/>
		<path class="st9" d="M143.3,112.6c0.4-1,0.7-2.1,0.9-3.2c0-0.2-0.1-0.4-0.3-0.4c-0.1,0-0.2,0-0.2,0.1c-3.5,2.7-8.9,3.1-15,3.1
			s-11.5-0.4-15-3.1c-0.2-0.1-0.4-0.1-0.5,0.1c0,0.1-0.1,0.2-0.1,0.2c0.2,1.1,0.5,2.1,0.9,3.2c3.5,2.5,8.7,2.9,14.6,2.9
			C134.6,115.5,139.8,115.2,143.3,112.6z"/>
		<path class="st6" d="M121.5,129.1c3.4,4,9.3,4.4,13.3,1c0.4-0.3,0.7-0.7,1-1C131.2,131,126.1,131,121.5,129.1z"/>
		<path class="st10" d="M100,66.5c-0.3,0.1-0.6,0-0.8-0.3c-0.1-0.2-0.1-0.5,0.1-0.7c4.4-4.3,11.1-5.1,16.4-2
			c0.3,0.2,0.4,0.5,0.2,0.8c-0.1,0.2-0.4,0.3-0.6,0.3C110.1,63.8,104.8,64.5,100,66.5L100,66.5z"/>
		<path class="st10" d="M158.6,66.5c0.3,0.1,0.6,0,0.8-0.3c0.1-0.2,0.1-0.5-0.1-0.7c-4.4-4.3-11.1-5.2-16.4-2
			c-0.3,0.2-0.4,0.5-0.2,0.8c0.1,0.2,0.4,0.3,0.6,0.3C148.4,63.8,153.7,64.5,158.6,66.5L158.6,66.5z"/>
		
			<radialGradient id="SVGID_1_" cx="746.6733" cy="210.3825" r="19.7184" gradientTransform="matrix(1 0 0 1 0 180.6133)" gradientUnits="userSpaceOnUse">
			<stop  offset="0" style="stop-color:#F0BFD9;stop-opacity:0.95"/>
			<stop  offset="4.000000e-02" style="stop-color:#EEBCD3;stop-opacity:0.88"/>
			<stop  offset="0.15" style="stop-color:#E9B3C2;stop-opacity:0.65"/>
			<stop  offset="0.27" style="stop-color:#E4ABB2;stop-opacity:0.45"/>
			<stop  offset="0.39" style="stop-color:#E1A4A6;stop-opacity:0.29"/>
			<stop  offset="0.51" style="stop-color:#DE9F9C;stop-opacity:0.16"/>
			<stop  offset="0.62" style="stop-color:#DC9C96;stop-opacity:7.000000e-02"/>
			<stop  offset="0.73" style="stop-color:#DA9A91;stop-opacity:2.000000e-02"/>
			<stop  offset="0.83" style="stop-color:#DA9990;stop-opacity:0"/>
			<stop  offset="1" style="stop-color:#DA9990;stop-opacity:0"/>
		</radialGradient>
		<ellipse class="st11" cx="152.8" cy="96" rx="19.7" ry="9.9"/>
		<path class="st6" d="M128.9,100.8l4.1-0.8c0.5,0,0.9-0.4,0.9-0.9c0-0.2-0.1-0.5-0.3-0.6l-4.1-4.1c-0.3-0.4-0.9-0.4-1.3,0l0,0
			l-4.2,4.1c-0.4,0.4-0.4,0.9,0,1.3c0.2,0.2,0.4,0.3,0.6,0.3L128.9,100.8z"/>
		<circle class="st12" cx="110.8" cy="77.3" r="4.8"/>
		<circle class="st12" cx="147.5" cy="77.3" r="4.8"/>
		<path class="st4" d="M186,47.9c-1.7,0-3.4-0.3-5.1-0.7c0-12.1-3.1-32.5-22.2-42.2c-6.1-3.1-29.8-10-45,0.9c0,0-0.6-4.2,0.8-5.4
			c0,0-6.9,0.8-8.8,7.6c0,0-13.8-3.1-17.1,3.4c0,0,3.8-0.4,5.9,1c-22.6,10.6-15.1,44-15.1,44c1.2,4.3,2.3,16.4,9.3,22.7L89,56.9
			c0,0,5.4-21.7,11.1-22.5c0.8,2.2,1.9,4.3,3.5,6.1c4,8.3,12.6,19,30.3,17.1c0,0-9.9-1.4-14.5-6.6c9.5,3.3,23.5,5,44.3,1.7
			c0,0,2-0.1,4.9-0.4c0.4,1,0.5,2.1,0.6,3.2c0,10.6-0.5,0.5,0,24.5c0,0,9.5-11.4,11.1-23.5c0,0,0.3-0.1,0.4-3.9c2-0.5,4.1-2,5.8-3.4
			c0.4-0.3,0.4-0.8,0.2-1.2C186.5,48,186.3,47.9,186,47.9z"/>
		<path class="st12" d="M105.5,71.8c0.7,1.2,1.9,2,3.3,2l-1.1,1.9C107.6,75.8,105.5,74,105.5,71.8z"/>
		<path class="st12" d="M141.7,71.8c0.7,1.2,1.9,2,3.3,2l-1.1,1.9C143.9,75.8,141.8,74,141.7,71.8z"/>
		<path class="st2" d="M153.3,167.4c-4.5-3.5-5.7-9.2-2.8-12.7l2.5-3c3-3.5,8.8-3.2,13,0.7l41.7,38.9l0.4,0.4c0.5,0.5,1,1.1,1.4,1.7
			c0.4,0.6,0.7,1.3,0.9,2s0.4,1.4,0.4,2c0.1,0.6,0.1,1.2,0,1.8c-0.2,1.6-0.6,3.2-1.3,4.6c-0.9,1.8-2.1,3.5-3.4,5
			c-2.1,2.4-4.5,4.7-6.9,6.9c-4.7,4.1-9.5,7.7-14.3,11.2c-9.7,7-19.6,13.4-29.7,19.6l-4.5-6.7c9.3-6.9,18.4-14.2,27.2-21.7
			c4.3-3.8,8.6-7.7,12.4-11.6c1.8-1.9,3.6-3.9,5.1-6c0.5-0.7,1-1.5,1.4-2.4V198l0,0l0.2,0.1l0.4,0.1c0.6,0.2,1,0.3,1.4,0.4l0.7,0.1
			c0.2,0,0.3,0.1,0.5,0.1c1.4,0.1,1.7-0.4,1.2,0.1l-2.9,3.7L153.3,167.4z"/>
		<path class="st0" d="M124.4,233.2c-0.2,2.2,1.5,4.1,3.7,4.3l4.9,0.3c-0.7,1.3-1.3,2.8-1.6,4.3l-11.2,18.5
			c-1.1,1.9-0.5,4.3,1.3,5.5c1.1,0.7,2.4,0.8,3.5,0.3l-0.4,0.6c-1.2,1.8-0.8,4.3,1.1,5.5c1.8,1.2,4.3,0.8,5.5-1.1
			c0.1-0.1,0.2-0.2,0.2-0.4l0.1-0.2c1,1.9,3.4,2.6,5.4,1.6c0.6-0.3,1.1-0.8,1.5-1.5l2.1-3.6c0.2,0.9,0.7,1.6,1.5,2.1
			c1.5,0.9,3.5,0.4,4.4-1.1l8-13.3c5.9-5.1,6.5-14,1.3-19.8c-2.9-3.3-7.1-5.1-11.5-4.8l-15.7-1.1
			C126.5,229.4,124.6,231.1,124.4,233.2z"/>
		<path class="st6" d="M134.4,251.1c-2,3.6-4.1,7.2-6.1,10.8c-1,1.8-2,3.6-3.1,5.4c-0.5,0.8-0.7,1.7-0.5,2.6c0.2,1,0.7,1.9,1.5,2.5
			v0.1 M126.1,272.5c-1-0.5-1.8-1.3-2.1-2.4c-0.4-1.1-0.2-2.3,0.3-3.3c1-1.8,2.2-3.5,3.3-5.3c2.2-3.5,4.5-7,6.7-10.5h0.1
			L126.1,272.5z"/>
		<path class="st6" d="M139.4,254.3c-1.7,3.1-3.4,6.1-5.1,9.2l-1.3,2.3l-0.7,1.1c-0.2,0.3-0.4,0.7-0.5,1c-0.5,1.6,0,3.3,1.3,4.4v0.1
			c0,0,0,0-0.1,0c-1.8-0.8-2.8-2.8-2.2-4.8c0.3-0.9,0.8-1.7,1.3-2.4l1.4-2.2c1.9-3,3.8-5.9,5.7-8.8h0.1L139.4,254.3z"/>
		<path class="st6" d="M147.1,255.3c-1.3,2.5-2.6,4.9-4,7.3l-1,1.8l-0.5,0.9c-0.2,0.2-0.3,0.5-0.4,0.8c-0.4,1.2,0,2.6,0.9,3.4
			 M142.2,269.7C142.1,269.7,142.1,269.7,142.2,269.7c-1.5-0.6-2.3-2.2-1.9-3.8c0.1-0.4,0.3-0.7,0.5-1l0.6-0.9l1.2-1.7
			c1.5-2.3,3-4.6,4.6-6.9h0.1c0,0,0,0,0.1,0L142.2,269.7z"/>
		<path class="st6" d="M132.9,239.9c-2.5,4.4-5,8.9-7.6,13.3c-1.3,2.2-2.5,4.4-3.9,6.6c-0.3,0.5-0.7,1.1-1,1.6
			c-0.2,0.5-0.4,1.1-0.4,1.7c0,1.2,0.6,2.4,1.6,3.1c0,0,0,0,0,0.1c0,0,0,0-0.1,0c-0.6-0.3-1.1-0.7-1.5-1.3c-0.4-0.6-0.6-1.2-0.7-1.9
			c-0.1-0.7,0-1.4,0.3-2c0.3-0.7,0.6-1.2,0.9-1.7c1.3-2.2,2.7-4.3,4-6.5c2.7-4.3,5.5-8.6,8.2-12.9L132.9,239.9z"/>
		<circle class="st12" cx="127.8" cy="175.3" r="2.8"/>
		<circle class="st12" cx="127.8" cy="185.5" r="2.8"/>
		<path class="st0" d="M18.5,104.6c-7.9,0-14.3,6.4-14.3,14.3c0,5.6,3.2,10.6,8.3,13c5,2.3,9.9,0.7,14.6-2
			c9.2-5.1,13.1-11.6,13.3-15.3l-16,6.2l-2.5-8.9L18.5,104.6z"/>
		<path class="st0" d="M31.2,123.9c0.4,0,0.7-0.1,1.1-0.1c6.8-1.2,10.8-8.3,9.5-15.6c-0.4-2-1.6-3.4-3.6-3.1s-4.2,2.3-3.8,4.4
			c0.5,2.9-2,5.5-2.7,5.6c-1.2,0.2-2.2,0.3-3.1-0.4c-1-1-1.7-2.3-1.9-3.7c-0.4-2.2-1-4.1-0.5-6c0.2-0.9,0.6-1.8,1.3-2.5
			c1,0.4,1.9,0.9,2.8,1.4c0.7,0.4,1.4,0.7,2.1,1c1.9,0.9,4.1,0.1,5.1-1.8c0.9-1.9,0.1-4.1-1.8-5.1c-0.6-0.3-1.3-0.6-1.9-1
			c-2.7-1.4-5-2.6-7.4-2.2c-2.1,0.4-6,2-7.6,8.2c-0.8,3.3-0.9,6.7-0.3,10c0.5,3.2,2,6.1,4.4,8.2C25.2,123.3,28.2,124.2,31.2,123.9z"
			/>
		<path class="st6" d="M41.7,108.2c-0.1-0.7-0.4-1.4-0.8-2c-0.4-0.6-1-0.9-1.7-1c-1.4-0.1-2.8,0.5-3.8,1.6c-0.5,0.5-0.8,1.1-0.9,1.8
			c-0.1,0.3-0.1,0.7,0,1c0.1,0.4,0.1,0.8,0,1.1c-0.2,1.5-0.9,2.9-1.9,3.9c-0.3,0.3-0.6,0.5-1,0.7c-0.4,0.1-0.7,0.1-1.1,0.2
			c-0.8,0.1-1.6-0.2-2.2-0.7c-1.1-1.1-1.7-2.5-1.9-4c-0.4-1.4-0.6-2.9-0.7-4.3c0-0.8,0.1-1.5,0.4-2.2c0.2-0.8,0.6-1.5,1.2-2
			c0.1-0.1,0.2-0.1,0.3-0.1l0,0c1.6,0.6,3,1.4,4.5,2.1l0.5,0.3c0.5,0.2,1,0.3,1.6,0.3c1.8-0.1,3.2-1.7,3.1-3.5
			c0-0.4-0.1-0.8-0.3-1.1c-0.3-0.6-0.8-1.2-1.4-1.5l-2.2-1.1c-1.4-0.8-2.8-1.5-4.3-2c-0.7-0.2-1.5-0.3-2.3-0.3
			c-0.8,0.1-1.5,0.3-2.3,0.6c-1.5,0.6-2.7,1.6-3.6,2.9s-1.6,2.8-2,4.4c0,0,0,0-0.1,0c0,0,0,0,0-0.1c0.3-1.6,0.9-3.2,1.8-4.6
			s2.2-2.6,3.7-3.3c0.8-0.4,1.6-0.6,2.5-0.7s1.7,0,2.6,0.2c1.6,0.5,3.1,1.1,4.6,2l2.2,1.1c2.1,1.1,2.8,3.7,1.7,5.8
			c-0.3,0.5-0.6,0.9-1.1,1.3c-0.7,0.6-1.6,0.9-2.5,1c-0.5,0-0.9-0.1-1.4-0.2c-0.2-0.1-0.4-0.1-0.6-0.2l-0.5-0.3
			c-1.5-0.7-2.9-1.6-4.3-2.2h0.3c-0.5,0.4-0.8,1-1,1.6c-0.2,0.7-0.4,1.3-0.4,2c0.1,1.4,0.3,2.8,0.6,4.2c0.1,1.4,0.7,2.7,1.7,3.7
			c0.5,0.5,1.1,0.7,1.8,0.6c0.3,0,0.7-0.1,1-0.1c0.3-0.1,0.6-0.3,0.8-0.5c1-1,1.7-2.3,1.9-3.7c0-0.3,0-0.7,0-1
			c-0.1-0.4-0.1-0.8,0-1.1c0.1-0.7,0.5-1.4,1-2c1-1.1,2.5-1.7,4-1.6c0.7,0.1,1.4,0.5,1.8,1.2c0.4,0.6,0.7,1.3,0.8,2c0,0,0,0,0,0.1
			C41.8,108.3,41.7,108.2,41.7,108.2z"/>
		<path class="st0" d="M23,112l-6.6-23.8c-0.6-2.1-2.8-3.4-5-2.8c-2.1,0.6-3.4,2.8-2.8,5l0,0l6.6,23.7L23,112z"/>
		<path class="st0" d="M18.2,117.1l-6.6-23.7c-0.6-2.1-2.8-3.4-5-2.8c-2.1,0.6-3.4,2.8-2.8,5l6.6,23.8L18.2,117.1z"/>
		<path class="st0" d="M11.7,120.6l-5.3-19.2c-0.5-1.7-2.2-2.7-4-2.3c-1.7,0.5-2.7,2.2-2.3,4l0,0l5.3,19.2L11.7,120.6z"/>
		<path class="st6" d="M21.4,106.4c-1.3-4-2.5-8-3.7-12c-0.6-2-1.3-4-1.8-6c-0.2-0.9-0.8-1.7-1.6-2.2c-0.8-0.6-1.9-0.8-2.9-0.6
			c0,0,0,0,0-0.1l0,0c1-0.4,2.2-0.4,3.2,0.1c1.1,0.5,1.9,1.4,2.2,2.6c0.6,2,1,4.1,1.6,6.1C19.4,98.4,20.5,102.5,21.4,106.4
			c0.1,0.1,0.1,0.1,0.1,0.2c0,0-0.1,0.1-0.2,0C21.4,106.5,21.3,106.4,21.4,106.4z"/>
		<path class="st6" d="M15.5,107.9c-1.1-3.4-2.1-6.8-3.2-10.2l-0.8-2.6l-0.4-1.3c-0.1-0.4-0.2-0.8-0.4-1.1c-0.8-1.5-2.4-2.3-4.1-2
			c0,0-0.1,0-0.1-0.1l0,0c1.9-0.7,4,0,5,1.7c0.4,0.8,0.7,1.7,0.9,2.6l0.6,2.6C14,101,14.8,104.4,15.5,107.9
			C16.9,113.1,15.6,108,15.5,107.9L15.5,107.9z"/>
		<path class="st6" d="M9.4,112.8c-0.9-2.7-1.7-5.4-2.6-8l-0.7-2l-0.3-1c-0.1-0.3-0.2-0.6-0.3-0.9c-0.6-1.1-1.9-1.8-3.2-1.7
			 M2.4,99.1L2.4,99.1c1.5-0.7,3.2-0.2,4.1,1.2c0.2,0.3,0.4,0.7,0.5,1.1l0.3,1l0.5,2c0.7,2.7,1.3,5.5,1.9,8.2c0.9,4.1,0,0,0,0.1
			c0,0,0,0.1-0.1,0.1c0,0-0.1,0-0.1-0.1l0,0L2.4,99.1z"/>
		<path class="st6" d="M19.7,124.8c0.1-0.5,0.1-1,0.2-1.5s0.2-1,0.4-1.5c0.3-1,0.9-1.9,1.5-2.7c0.7-0.9,1.5-1.5,2.5-2
			c1-0.4,2-0.6,3.1-0.5c0,0,0.1,0,0,0.1s0,0,0,0l0,0c-0.9,0.4-1.8,0.8-2.7,1.3c-0.8,0.4-1.6,1-2.3,1.6c-0.7,0.7-1.3,1.5-1.7,2.4
			c-0.2,0.4-0.4,0.9-0.6,1.4C20,123.8,19.9,124.3,19.7,124.8L19.7,124.8C19.8,124.8,19.8,124.8,19.7,124.8L19.7,124.8z"/>
		<path class="st2" d="M179.7,50.7c-5.5,0.4-10.9,0.3-16.4-0.4c-5.4-0.6-10.8-1.7-16-3.3s-10.3-3.9-14.9-6.8
			c-2.3-1.5-4.5-3.1-6.6-4.9c-2-1.8-3.9-3.8-5.6-6c3.7,4,7.9,7.5,12.6,10.2c4.7,2.7,9.7,4.9,14.8,6.4c5.2,1.6,10.5,2.8,15.9,3.5
			c2.7,0.4,5.4,0.7,8.1,0.8C174.2,50.6,176.9,50.7,179.7,50.7z"/>
		<path class="st2" d="M163.6,50.7c-5.5,0.4-10.9,0.3-16.4-0.4c-5.4-0.6-10.8-1.7-16-3.3s-10.3-3.9-14.9-6.8
			c-2.3-1.5-4.5-3.1-6.6-4.9c-2-1.8-3.9-3.8-5.6-6c3.7,4,7.9,7.5,12.6,10.2s9.7,4.9,14.8,6.4c5.2,1.6,10.5,2.8,15.9,3.5
			c2.7,0.4,5.4,0.7,8.1,0.8C158.2,50.6,160.9,50.7,163.6,50.7z"/>
	</g>
</g>
</svg>
