<?xml version="1.0" encoding="utf-8"?>
<!-- Generator: Adobe Illustrator 22.1.0, SVG Export Plug-In . SVG Version: 6.00 Build 0)  -->
<svg version="1.1" id="Layer_1" xmlns="http://www.w3.org/2000/svg" xmlns:xlink="http://www.w3.org/1999/xlink" x="0px" y="0px"
	 viewBox="0 0 268.1 478" style="enable-background:new 0 0 268.1 478;" xml:space="preserve">
<style type="text/css">
	.st0{fill:#DFE0E0;}
	.st1{fill:#F0DBCB;}
	.st2{fill:#EBC19C;}
	.st3{fill:#E6E7E8;}
	.st4{fill:#E6787B;}
	.st5{fill:#EACBC6;}
	.st6{fill:#ED7987;}
	.st7{clip-path:url(#SVGID_2_);}
	.st8{fill:#EFB100;}
	.st9{fill:#6E6360;}
	.st10{fill:#F0D0B3;}
	.st11{fill:#F5E0CD;}
	.st12{fill:#58595B;}
	.st13{fill:#C3996B;}
	.st14{fill:#FFFFFF;}
	.st15{fill:url(#SVGID_3_);}
</style>
<title>img_young_girl</title>
<path class="st0" d="M184.8,206.9c10.9,0,21.8,0,32.7-0.2s21.8-0.4,33.2-1.4c1.4-0.1,2.9-0.3,4.5-0.5c1.9-0.2,3.8-0.6,5.7-1.2
	c0.3-0.1,0.9-0.3,1.3-0.5c0.3-0.1,0.7-0.3,1-0.5l0.5-0.3l0.3-0.2l0.4-0.3c0.7-0.5,1.3-1.2,1.9-1.9c0.5-0.6,0.8-1.3,1.2-2
	c0.2-0.6,0.4-1.1,0.5-1.7c0-0.3,0.1-0.5,0.1-0.8V195v-0.3c0.1-1.1,0-2.2-0.2-3.3c-0.1-0.7-0.3-1.3-0.5-1.9c-0.6-1.7-1.3-3.4-2.2-5
	c-2.8-5-5.9-9.9-9.3-14.6c-6.4-9.1-13-17.7-19.8-26.3c-4.1-5.1-8-10.2-12.2-15.2l-5.1,3.9l-5.1,3.9c8.1,11.3,16.3,22.8,23.8,34.4
	c3.8,5.8,7.5,11.7,10.6,17.4c0.8,1.4,1.5,2.9,2,4.2c0.3,0.6,0.5,1.2,0.7,1.7c0.1,0.2,0.1,0.3,0.1,0.5l0,0h0.2
	c0.6-0.2,1.1-0.3,1.7-0.4l0.9-0.1l0.7-0.1c0.5-0.1,0.9-0.1,1.4-0.1c0.7-0.1,1.4-0.1,2,0l0.3,0.1h0.2h0.1l0,0l0.2,0.2l0,0
	c-0.1-0.1-0.3-0.2-0.3-0.3c0-0.2-0.5-0.7-0.7-1.1c-0.1-0.2-0.2-0.4-0.3-0.7c-0.2-0.3-0.3-0.6-0.4-0.9c-0.3-0.6-0.5-1.3-0.7-1.9
	c-0.3-0.8-0.6-1.7-0.8-2.4l-1.3,0.2c-1.4,0.1-3,0.2-4.6,0.3c-10.2,0.3-21.1-0.1-31.8-0.6c-10.7-0.4-21.5-1-32.3-1.7l0,0
	c-10.5-0.6-19.3,3.8-19.6,10v0.4C165.6,201.7,174.2,206.9,184.8,206.9z"/>
<path class="st0" d="M95.7,192.5c-8,17.6-16,35.2-24.2,52.5l-3.1,6.4l-1.5,3l-0.5,1c-0.3,0.5-0.6,0.9-0.9,1.4L57,268.7l-16.8,23.6
	l-9.9,14l5.1,3.9l5.1,3.9l23.8-29.4L76.2,270l3-3.7c0.3-0.3,0.4-0.5,0.8-1l0.9-1.3c0.7-1,1-1.6,1.5-2.3c0.9-1.5,1.7-2.9,2.5-4.3
	l2.4-4.1c9.5-17.1,18.7-34.1,27.8-51.2l0,0c4.5-8.4,3.6-17.5-2-20.2h-0.2C107.4,179.2,99.6,183.9,95.7,192.5z"/>
<path class="st1" d="M0,318.7c-0.1,13,14,25.5,27,25.7c13,0.1,20-12.2,20.2-25.2c0.5-13-9.7-24-22.7-24.5s-24,9.7-24.5,22.7
	C0,317.8,0,318.3,0,318.7z"/>
<path class="st1" d="M28.7,326.4c0,6.1,3.4,12,9.5,12.1c7.7,0,13.6-4.7,14.5-12c1.2-9.9-9.2-22.7-13-23.3
	C33.5,302.2,28.7,320.3,28.7,326.4z"/>
<path class="st2" d="M46.3,327.4c-0.9,4.7-3.1,9-6.3,12.5c-3.4,3.6-8.1,5.6-13,5.6l0,0c-1-0.1-2-0.4-3-0.8s-1.8-0.9-2.6-1.6
	c-0.8-0.7-1.4-1.5-1.9-2.4c-0.4-0.9-0.7-1.9-0.7-2.9c0-0.1,0-0.1,0.1-0.1l0,0l0,0c0.3,0.9,0.8,1.7,1.3,2.4c0.6,0.7,1.3,1.3,2,1.7
	c0.7,0.4,1.5,0.8,2.4,1.1c0.8,0.2,1.7,0.4,2.5,0.5l0,0c2.2,0,4.4-0.3,6.5-1s4-1.9,5.7-3.4C42.6,335.8,45,331.8,46.3,327.4
	 M46.3,327.3l0.1,0.1L46.3,327.3z"/>
<path class="st2" d="M41.7,338c6.7-1.4,11.1-7.8,10.2-14.5c-0.6-3.2-1.6-6.2-3.2-9.1c-1.5-3-3.2-5.8-5.1-8.5v-0.1h0.1
	c2.7,2.1,5,4.7,6.6,7.7c1.8,3,2.8,6.4,3,9.9c0.3,3.5-0.8,7-2.9,9.8c-2.2,2.7-5.3,4.5-8.7,5L41.7,338C41.7,338.1,41.7,338,41.7,338z"
	/>
<polygon class="st1" points="111,290.7 123.2,291.6 116.9,376.2 116.9,375.7 117,471 104.8,471 104.7,375.7 104.7,375.5 
	104.7,375.3 "/>
<path class="st3" d="M95.2,308.5l0.2,16.7l0.2,16.7l0,0l0.4,32.5v1.1l0.5,6.3h29l0.5-6.3v1.1l7.8-48.8l2.6-16.5l0,0
	c3.4-21.2-4.1-39.2-16.7-40.2l-2-0.2C104.9,270.3,94.8,287.1,95.2,308.5z"/>
<polygon class="st1" points="154.9,291.6 167.1,290.7 173.3,375.3 173.3,375.5 173.3,375.7 173.3,471 161,471 161.1,375.7 
	161.1,376.2 "/>
<path class="st3" d="M141.8,311.6l2.6,16.5l2.7,16.5l0,0l5.2,32.2v-1.1l0.5,6.3h29l0.5-6.3v-1.1l0.5-49.3l0.2-16.7l0,0
	c0.2-21.4-9.9-38.2-22.4-37.3l-2.1,0.2C146,272.3,138.4,290.4,141.8,311.6z"/>
<polygon class="st4" points="215.6,478 215.6,465.1 176.2,451.8 157.9,451.8 157.9,478 "/>
<polygon class="st4" points="62.6,478 62.6,465.1 101.9,451.8 120.3,451.8 120.3,478 "/>
<g id="_Group_">
	<path class="st5" d="M201.8,372.4H76.3l22.3-182c0.5-5.2,4.8-9.6,9.4-9.6h62.2c4.6,0,8.9,4.3,9.4,9.6L201.8,372.4z"/>
	<path class="st4" d="M133.6,229.9c0,3,2.4,5.4,5.3,5.4c3,0,5.4-2.4,5.4-5.3c0-3-2.4-5.4-5.3-5.4l0,0
		C136,224.6,133.7,227,133.6,229.9z"/>
	<path class="st4" d="M133.6,265c0,3,2.4,5.4,5.3,5.4c3,0,5.4-2.4,5.4-5.3c0-3-2.4-5.4-5.3-5.4l0,0C136,259.6,133.7,262,133.6,265z"
		/>
	<path class="st4" d="M133.6,300c0,3,2.4,5.3,5.3,5.3s5.3-2.4,5.3-5.3s-2.4-5.3-5.3-5.3S133.6,297.1,133.6,300L133.6,300z"/>
	<polygon class="st6" points="121.7,184.6 115.4,186.8 196.4,283.7 203.9,275.4 	"/>
	<g>
		<g>
			<defs>
				<polygon id="SVGID_1_" points="121.7,184.6 115.4,186.8 196.4,283.7 203.9,275.4 				"/>
			</defs>
			<clipPath id="SVGID_2_">
				<use xlink:href="#SVGID_1_"  style="overflow:visible;"/>
			</clipPath>
			<g class="st7">
				<polygon class="st8" points="111.3,178.2 202.6,284.3 194.6,289 104.7,179 				"/>
			</g>
		</g>
	</g>
	<path class="st4" d="M119.8,179c-5.6,3.1-7.7,10.2-4.6,15.8c1,1.8,2.5,3.4,4.3,4.4c10.2,5.4,19.4-4.7,19.4-4.7s9.2,10.2,19.4,4.7
		c5.5-3.3,7.4-10.4,4.1-16c-1.1-1.8-2.6-3.2-4.4-4.3h-38.2V179z"/>
	<path class="st1" d="M123.8,180.9c0,5.6,8.8,14.4,15.2,14.4s15.1-8.7,15.1-14.4H123.8z"/>
	<rect x="126.6" y="159" class="st1" width="24.8" height="25.4"/>
</g>
<path class="st9" d="M88.6,26c-8.9-8.3-19.2-6.5-24.9,0c0,0-0.5,0.6-1.2,1.6c-0.1,0.1-0.2,0.3-0.3,0.4c-4.3,5.9-16,24.1-12.5,43.3
	c2.4,13.5,10.2,18,13.9,22.6c0.6,3,0.8,6.8-1.2,9l-3.5,4c0,0,5.6-2,6.7-5.8c-0.7,2.4-1.8,4.8-3.3,6.8c0,0,14.2,5.3,18.7-3
	c5.3-10,0.4-26.6-2.6-36C75.7,60.5,84.5,53,84.5,53l0,0C91.9,47.9,95.4,37,88.6,26z M65.8,99.4L65.8,99.4z"/>
<path class="st9" d="M219.5,28.1l-0.3-0.4c-0.8-1-1.3-1.6-1.3-1.6c-6.1-6.5-17-8.4-26.6-0.2c-7.4,10.9-3.8,21.9,3.9,27l0,0
	c0,0,9.3,7.6,6.2,16c-3.4,9.4-8.8,25.9-3.4,36c2.8,5.2,9.8,5.2,14.7,4.4c-1.5-2-2.4-4.3-2.6-6.8c0.8,2.7,2.7,4.9,5.1,6.3
	c0.9-0.2,1.8-0.4,2.7-0.7c-11.9-17,9.3-13.1,14.2-36.5C236.2,52.3,224,34,219.5,28.1z"/>
<path class="st10" d="M189.3,99.9c-2,3.3-3.4,6.9-4.2,10.7c-0.4,2.5-0.3,6.3,0.8,7c0.5,0.3,1.4-0.2,2-0.5c3-2.2,4.7-5.7,4.5-9.4
	C192.7,104.7,191.5,101.8,189.3,99.9z"/>
<path class="st10" d="M196.6,88.3c-4.4-0.8-11.1,4.6-11.1,4.6c-7.8,6.6-3.2,36.8,3.5,35.6c6.7-1.1,6.1-10.8,6.1-10.8
	c3.3-2,6.1-10.9,6.1-10.9C206.9,90.3,196.6,88.3,196.6,88.3z M199.8,98.7c-0.3,1.2-0.7,2.3-1.2,3.4l-2.2-0.9c0.5-0.9,0.8-1.9,1.1-3
	c0.2-0.9,0.1-1.8-0.2-2.7c-0.3-0.7-0.9-1.2-1.6-1.4c-0.6-0.1-1.1,0-1.6,0.3c-1.4,0.8-2.6,1.9-3.5,3.3c2.9,2.4,4.4,6.1,4.1,9.8
	c0.2,4.5-1.9,8.8-5.6,11.4c-0.8,0.6-1.8,0.9-2.8,0.9c-0.6,0-1.2-0.2-1.7-0.5c-2.8-1.8-2-8.1-1.8-9.4c0.9-5.8,5.9-16,10.5-17.8
	c0.9-0.4,1.9-0.5,2.8-0.4c1.5,0.3,2.8,1.3,3.4,2.8C200,95.9,200.1,97.4,199.8,98.7L199.8,98.7z"/>
<path class="st2" d="M196.1,91.9c-1-0.1-2,0-2.8,0.4c-4.6,1.8-9.6,12-10.5,17.8c-0.2,1.2-0.9,7.5,1.8,9.4c0.5,0.3,1.1,0.5,1.7,0.5
	c1-0.1,2-0.4,2.8-0.9c3.7-2.6,5.8-6.9,5.6-11.4c0.3-3.7-1.2-7.4-4.1-9.8c0.9-1.4,2.1-2.5,3.5-3.3c0.5-0.2,1.1-0.3,1.6-0.3
	c0.7,0.2,1.3,0.7,1.6,1.4c0.3,0.9,0.4,1.8,0.2,2.7c-0.2,1-0.6,2-1.1,3l2.2,0.9c0.5-1.1,0.9-2.2,1.2-3.4c0.3-1.4,0.2-2.8-0.3-4.1
	C199,93.2,197.7,92.1,196.1,91.9z M192.4,107.6c0.1,3.7-1.5,7.2-4.5,9.4c-0.5,0.3-1.5,0.8-2,0.5c-1.1-0.7-1.2-4.6-0.8-7
	c0.8-3.7,2.3-7.3,4.3-10.6C191.5,101.8,192.6,104.7,192.4,107.6z"/>
<path class="st10" d="M87.8,99.9c2,3.3,3.4,6.9,4.2,10.7c0.3,2.5,0.3,6.3-0.8,7c-0.5,0.3-1.4-0.2-2-0.5c-3-2.2-4.7-5.7-4.5-9.4
	C84.4,104.7,85.6,101.8,87.8,99.9z"/>
<path class="st10" d="M75.9,106.8c0,0,2.9,8.8,6.1,10.9c0,0-0.6,9.7,6.1,10.8c6.7,1.1,11.3-29.1,3.5-35.6c0,0-6.8-5.3-11.1-4.6
	C80.5,88.3,70.2,90.3,75.9,106.8z M77.5,94.6c0.6-1.5,1.9-2.5,3.4-2.8c1-0.1,2,0,2.9,0.4c4.6,1.8,9.5,12,10.5,17.8
	c0.2,1.2,0.9,7.5-1.9,9.4c-0.5,0.3-1.1,0.5-1.7,0.5c-1-0.1-2-0.4-2.8-0.9c-3.7-2.6-5.8-6.9-5.7-11.4c-0.3-3.7,1.2-7.4,4.1-9.8
	c-0.9-1.4-2.1-2.5-3.5-3.3c-0.5-0.2-1.1-0.3-1.6-0.3c-0.7,0.2-1.3,0.7-1.6,1.4c-0.3,0.9-0.4,1.8-0.2,2.7c0.2,1,0.6,2,1,3l-2.2,0.9
	c-0.5-1.1-0.9-2.2-1.2-3.4C76.9,97.3,77,95.9,77.5,94.6L77.5,94.6z"/>
<path class="st2" d="M77.5,94.7c-0.5,1.3-0.6,2.7-0.3,4.1c0.3,1.2,0.7,2.3,1.2,3.4l2.2-0.9c-0.4-1-0.8-1.9-1-3
	c-0.2-0.9-0.2-1.8,0.2-2.7c0.3-0.7,0.9-1.2,1.6-1.4c0.6-0.1,1.1,0,1.6,0.3c1.4,0.8,2.7,1.9,3.5,3.3c-2.8,2.4-4.4,6.1-4.1,9.8
	c-0.2,4.5,2,8.8,5.7,11.4c0.8,0.6,1.8,0.9,2.8,0.9c0.6,0,1.2-0.2,1.7-0.5c2.8-1.8,2-8.1,1.9-9.4c-1-5.8-5.9-16-10.5-17.8
	c-1-0.3-2-0.4-3-0.3C79.4,92.2,78.1,93.2,77.5,94.7z M87.7,99.8c2,3.3,3.4,6.9,4.2,10.7c0.3,2.5,0.3,6.3-0.8,7
	c-0.5,0.3-1.4-0.2-2-0.5c-3-2.2-4.7-5.7-4.5-9.4C84.4,104.7,85.6,101.8,87.7,99.8L87.7,99.8z"/>
<path class="st11" d="M138.5,175.1L138.5,175.1c-23.3,0-49.7-21-49.7-44.3V53.6c0-23.3,18.9-42.2,42.2-42.2l0,0h15
	c23.3,0,42.2,18.9,42.2,42.2v77.3C188.3,154.1,161.8,175.1,138.5,175.1z"/>
<path class="st2" d="M130.2,160.5c3.9,4.6,10.8,5.1,15.4,1.2c0.4-0.4,0.8-0.8,1.2-1.2C141.5,162.7,135.5,162.7,130.2,160.5z"/>
<path class="st2" d="M86,25.1c-5.9,1.9-10.2,5.6-11.9,10.7S74,46.4,77.7,51.3c-1-4.7-0.7-9.6,0.8-14.2C79.9,32.5,82.5,28.4,86,25.1z
	"/>
<path class="st2" d="M192.4,24.5c5.9,1.9,10.2,5.6,11.8,10.7s0.1,10.6-3.5,15.5C202.6,41.1,199.5,31.2,192.4,24.5z"/>
<path class="st2" d="M102.8,82.2c-0.3,0.2-0.8,0.1-1-0.2c-0.2-0.3-0.1-0.7,0.2-0.9c2.6-2.6,6-4.2,9.6-4.7c3.6-0.4,7.3,0.3,10.5,2.1
	c0.4,0.2,0.5,0.6,0.3,1c-0.2,0.3-0.5,0.4-0.8,0.4c-3.2-0.5-6.4-0.6-9.6-0.2C108.9,80.1,105.8,80.9,102.8,82.2z"/>
<path class="st2" d="M175.2,82.2c0.4,0.2,0.8,0,1-0.4c0.1-0.3,0.1-0.6-0.1-0.8c-5.4-5.3-13.6-6.3-20.2-2.5c-0.4,0.2-0.5,0.6-0.3,1
	c0.2,0.3,0.5,0.4,0.8,0.4c3.2-0.5,6.4-0.6,9.6-0.2C169.2,80.1,172.3,80.9,175.2,82.2z"/>
<path class="st2" d="M138.5,124.6l5.1-0.9c0.6,0,1.1-0.5,1.1-1.1c0-0.3-0.1-0.6-0.3-0.8l-5.1-5.1c-0.4-0.4-1.1-0.5-1.6,0l0,0
	l-5.1,5.1c-0.4,0.4-0.4,1.1,0,1.6c0.2,0.2,0.5,0.3,0.8,0.3L138.5,124.6z"/>
<circle class="st12" cx="116.3" cy="95.5" r="5.9"/>
<circle class="st12" cx="159.2" cy="95.5" r="5.9"/>
<path class="st9" d="M209.2,59.2c-2.2,0-4.3-0.3-6.4-0.9c0-14.9-3.8-40.2-27.4-52.1c-7.6-3.8-36.8-12.3-55.6,1.1c0,0-0.8-5.2,1-6.7
	c-5.2,0.7-9.4,4.4-10.9,9.4c0,0-17.1-3.7-21.2,4.1c2.5-0.3,5,0.1,7.3,1.2C68.1,28.4,77.4,69.6,77.4,69.6c1.5,5.3,2.8,20.2,11.5,28
	l0.4-27.5c0,0,6.7-26.8,13.8-27.8c0.9,2.8,2.4,5.4,4.3,7.6c4.9,10.2,15.6,23.5,37.4,21.2c0,0-12.2-1.7-17.9-8.1
	c11.8,4.1,29.1,6.1,54.7,2.1c0,0,2.4-0.1,6.1-0.5c0.4,1.3,0.7,2.7,0.7,4.1c0,13.1-0.6,0.6,0,30.4c0,0,11.7-14.1,13.8-29.1
	c0,0,0.3-0.1,0.5-4.8c2.7-0.9,5.1-2.2,7.2-4.1c0.5-0.2,0.8-0.8,0.6-1.3C210.3,59.3,209.7,59,209.2,59.2z"/>
<path class="st13" d="M113.6,136.1c2,7,12.4,12.4,24.9,12.4s22.9-5.3,24.9-12.4c-5.4,2.6-14.5,2.9-24.9,2.9
	C128.2,139,119,138.7,113.6,136.1z"/>
<path class="st14" d="M162.6,137.3c0.6-0.8,1.1-1.7,1.4-2.6c0-0.2-0.5-0.4-0.9-0.2c-5.7,2.2-14.6,2.5-24.7,2.5s-19-0.3-24.7-2.5
	c-0.4-0.2-1,0-0.9,0.2c0.4,0.9,0.8,1.8,1.4,2.6c5.7,2,14.4,2.3,24.1,2.3S157,139.3,162.6,137.3z"/>
<radialGradient id="SVGID_3_" cx="1429.498" cy="849.6411" r="24.368" gradientTransform="matrix(1 0 0 1 0 178.9984)" gradientUnits="userSpaceOnUse">
	<stop  offset="0" style="stop-color:#F0BFD9;stop-opacity:0.95"/>
	<stop  offset="4.000000e-02" style="stop-color:#EEBCD3;stop-opacity:0.88"/>
	<stop  offset="0.15" style="stop-color:#E9B3C2;stop-opacity:0.65"/>
	<stop  offset="0.27" style="stop-color:#E4ABB2;stop-opacity:0.45"/>
	<stop  offset="0.39" style="stop-color:#E1A4A6;stop-opacity:0.29"/>
	<stop  offset="0.51" style="stop-color:#DE9F9C;stop-opacity:0.16"/>
	<stop  offset="0.62" style="stop-color:#DC9C96;stop-opacity:7.000000e-02"/>
	<stop  offset="0.73" style="stop-color:#DA9A91;stop-opacity:2.000000e-02"/>
	<stop  offset="0.83" style="stop-color:#DA9990;stop-opacity:0"/>
	<stop  offset="1" style="stop-color:#DA9990;stop-opacity:0"/>
</radialGradient>
<circle class="st15" cx="174" cy="119.7" r="24.4"/>
<path class="st1" d="M201.2,135.5c10.5,6.4,24.2,3.2,30.6-7.3c6.4-10.5,3.2-24.2-7.3-30.6s-24.2-3.2-30.6,7.3
	C187.5,115.3,190.8,129,201.2,135.5z"/>
<path class="st1" d="M209.2,138.3l-27.3-4.2c-3.4-0.6-5.8-3.8-5.2-7.2c0.6-3.4,3.8-5.8,7.2-5.2l0,0l27.2,4.2L209.2,138.3z"/>
<path class="st1" d="M192,119.7l-12-36.6c-1.3-3.2,0.4-6.9,3.6-8.2c3.2-1.3,6.9,0.4,8.2,3.6c0.1,0.2,0.1,0.4,0.2,0.6l12,36.6
	L192,119.7z"/>
<path class="st2" d="M192,119.7c-3.3-7.4-6-15-8.5-22.7c-1.3-3.8-2.5-7.7-3.6-11.6c-0.3-1-0.6-1.9-0.8-3s0-2.2,0.3-3.3
	c0.7-2,2.4-3.6,4.5-4.1c-1.8,0.8-3.1,2.4-3.6,4.3c-0.2,0.9-0.2,1.8,0,2.7c0.2,0.8,0.7,1.9,1,2.8c1.4,3.8,2.7,7.6,4.1,11.4
	C187.8,104.1,190.2,111.8,192,119.7z"/>
<path class="st2" d="M215.4,124c-0.8-0.4-1.4-0.8-2-1.2c-0.7-0.4-1.3-0.8-2-1c-1.3-0.6-2.8-1-4.2-1.3c-3-0.4-6.1-0.1-8.9,1
	c1.1-1.2,2.6-2.1,4.2-2.6c1.6-0.5,3.3-0.6,5-0.4c1.7,0.3,3.3,0.9,4.7,1.9c0.7,0.5,1.3,1,1.9,1.6C214.6,122.6,215,123.3,215.4,124z"
	/>
<path class="st2" d="M126.6,177.5v-2.3h24.8v2.7C147,180.6,138.8,183.6,126.6,177.5z"/>
<rect x="178.6" y="265" class="st6" width="27.5" height="61.7"/>
<rect x="175" y="259.6" class="st8" width="34.7" height="7.3"/>
<path class="st0" d="M192.4,246.6V260h-13.5C178.9,252.6,184.9,246.6,192.4,246.6z"/>
<path class="st6" d="M192.4,246.6c7.4,0,13.4,6,13.4,13.5h-13.4V246.6z"/>
</svg>
