<?xml version="1.0" encoding="utf-8"?>
<!-- Generator: Adobe Illustrator 22.1.0, SVG Export Plug-In . SVG Version: 6.00 Build 0)  -->
<svg version="1.1" id="Layer_1" xmlns="http://www.w3.org/2000/svg" xmlns:xlink="http://www.w3.org/1999/xlink" x="0px" y="0px"
	 viewBox="0 0 258.9 475.3" style="enable-background:new 0 0 258.9 475.3;" xml:space="preserve">
<style type="text/css">
	.st0{fill:#4C5258;}
	.st1{fill:#787986;}
	.st2{fill:#6E7377;}
	.st3{fill:#E0E1DD;}
	.st4{fill:#CACBCD;}
	.st5{fill:#C8CAC7;}
	.st6{fill:#929497;}
	.st7{fill:#A4A6A4;}
	.st8{fill:#F5E0CD;}
	.st9{fill:#005E88;}
	.st10{fill:#EBC19C;}
	.st11{fill:#F1F1F2;}
	.st12{opacity:0.55;fill:#BBBDBF;enable-background:new    ;}
	.st13{fill:#58595B;}
	.st14{fill:#5A4A42;}
	.st15{fill:#F0D0B3;}
	.st16{fill:#606161;}
	.st17{fill:#C3996B;}
	.st18{fill:#E6E7E8;}
	.st19{opacity:0.25;}
	.st20{fill:#757E84;}
	.st21{fill:#A87C4F;}
</style>
<g>
	<g>
		<path class="st0" d="M214.6,433.1L82.5,421.6c-2.4-0.2-4.3-2.4-4-4.8l0,0c0.2-2.4,2.4-4.3,4.8-4l132.1,11.4c2.4,0.2,4.3,2.4,4,4.8
			l0,0C219.2,431.4,217.1,433.3,214.6,433.1z"/>
		<g>
			<path class="st0" d="M92,424.4c0-6.5-5.2-11.7-11.7-11.7s-11.7,5.2-11.7,11.7c0,2.1,0.6,4.1,1.5,5.8c5.5-1.4,17.7-4.5,21.8-4.9
				C91.9,425,92,424.7,92,424.4z"/>
			<path class="st1" d="M80.3,434.8c5.6,0,10.2-4.4,10.6-9.9c-3.7,0.4-14.9,3.2-19.9,4.5C72.8,432.6,76.3,434.8,80.3,434.8z"/>
		</g>
		<g>
			<path class="st0" d="M200.9,435.5c0-6.5,5.2-11.7,11.7-11.7s11.7,5.2,11.7,11.7c0,2.1-0.6,4.1-1.5,5.8
				c-5.5-1.4-17.7-4.5-21.8-4.9C200.9,436,200.9,435.7,200.9,435.5z"/>
			<path class="st1" d="M212.6,445.9c-5.6,0-10.2-4.4-10.6-9.9c3.7,0.4,14.9,3.2,19.9,4.5C220.1,443.7,216.6,445.9,212.6,445.9z"/>
		</g>
		<g>
			<path class="st0" d="M92,466c-0.6-6.4,4.1-12.1,10.6-12.7c6.4-0.6,12.1,4.1,12.7,10.6c0.2,2.1-0.2,4.1-1,5.9
				c-5.7-0.9-18.1-2.8-22.2-2.9C92.1,466.5,92,466.3,92,466z"/>
			<path class="st1" d="M104.6,475.3c-5.6,0.5-10.6-3.4-11.5-8.9c3.8,0.1,15.1,1.8,20.3,2.6C111.8,472.4,108.6,474.9,104.6,475.3z"
				/>
		</g>
		<g>
			<g>
				<path class="st0" d="M178.6,395.8c-1.9-6.2,1.6-12.7,7.8-14.6s12.7,1.6,14.6,7.8c0.6,2,0.6,4.1,0.2,6
					c-5.7,0.3-18.3,0.9-22.3,1.7C178.8,396.3,178.7,396,178.6,395.8z"/>
				<path class="st1" d="M192.8,402.3c-5.4,1.6-11.1-1.2-13.1-6.4c3.7-0.7,15.2-1.3,20.4-1.5C199.3,398.1,196.6,401.2,192.8,402.3z"
					/>
			</g>
			<rect x="137.5" y="326.5" class="st0" width="16" height="99.1"/>
			<path class="st0" d="M191.6,389.8l-87.8,71.9c-1.9,1.6-4.7,1.3-6.3-0.6l0,0c-1.6-1.9-1.3-4.7,0.6-6.3l87.8-71.9
				c1.9-1.6,4.7-1.3,6.3,0.6l0,0C193.7,385.5,193.5,388.3,191.6,389.8z"/>
			<g>
				<polygon class="st2" points="70.4,335 72.7,334.9 72.6,333.5 				"/>
				<polygon class="st2" points="70.3,284.5 68,284.6 70.4,335 72.6,333.5 				"/>
				<polygon class="st0" points="82.2,284 80,284.1 82,326.8 72.6,333.5 72.7,334.9 84.3,326.7 				"/>
				<polygon class="st0" points="82,326.8 80,284.1 70.3,284.5 72.6,333.5 				"/>
			</g>
			<g>
				<polygon class="st3" points="232.2,309.5 96.8,301.9 129.3,128.1 240.3,131.8 				"/>
				<polygon class="st4" points="232.2,297 240.3,131.8 249.4,139.9 239.3,318 232.2,321.9 				"/>
			</g>
			<polygon class="st5" points="96.8,301.9 49.6,336.9 175.3,351.1 232.2,309.5 			"/>
			<polygon class="st6" points="232.2,321.9 177,361.4 175.3,351.1 232.2,309.5 			"/>
			<polygon class="st6" points="175.4,350.9 177,361.4 56.1,345.9 49.6,336.9 			"/>
			<g>
				<polygon class="st2" points="202.1,344.2 204.3,344.1 204.3,342.7 				"/>
				<polygon class="st2" points="202,293.8 199.7,293.9 202.1,344.2 204.3,342.7 				"/>
				<polygon class="st0" points="213.9,293.2 211.7,293.3 213.7,336.1 204.3,342.7 204.3,344.1 215.9,336 				"/>
				<polygon class="st0" points="213.7,336.1 211.7,293.3 202,293.8 204.3,342.7 				"/>
			</g>
			<g>
				<polygon class="st5" points="80.8,270 34.6,304.4 48.7,306.6 101.9,271.1 				"/>
				<polygon class="st5" points="81,265.9 34.8,300.2 48.8,302.4 102.1,266.9 				"/>
				<polygon class="st7" points="34.8,300.2 34.6,304.4 48.7,306.6 48.8,302.4 				"/>
				<polygon class="st7" points="102.1,266.9 101.9,271.1 48.7,306.6 48.8,302.4 				"/>
			</g>
			<g>
				<g>
					<path class="st8" d="M126.5,427.6c-0.1,3.4-2.1,6.1-4.5,6.1h-1.1c-2.3,0-4.3-2.8-4.4-6.1l-2.9-128c-0.1-3.4,1.8-6.1,4.1-6.1
						l12.8,0.1c2.3,0,4.2,2.8,4.1,6.1L126.5,427.6z"/>
				</g>
				<polygon class="st0" points="77.9,447.7 72.8,450.3 72.8,460.4 102,460.4 120.7,450.7 120.7,460.4 129.7,460.4 129.7,438.8 
					105.1,447.7 				"/>
				<polygon class="st8" points="125.9,410.6 122,410.6 112.2,429.9 77.9,447.7 105.1,447.7 129.7,438.8 129.7,429.9 				"/>
			</g>
			<g>
				<g>
					<path class="st8" d="M60,418.1c-0.9,3.2-3.5,5.4-5.8,4.8l-1-0.3c-2.3-0.6-3.5-3.7-2.8-7l28.1-125c0.7-3.3,3.2-5.5,5.5-4.9
						l12.4,3.1c2.3,0.6,3.4,3.7,2.4,6.9L60,418.1z"/>
				</g>
				<polygon class="st0" points="8,425.9 2.4,427.1 0,437 28.3,444 48.9,439.2 46.6,448.6 55.2,450.7 60.4,429.8 34.5,432.5 				"/>
				<polygon class="st8" points="63.6,401.4 59.8,400.5 45.6,416.9 8,425.9 34.5,432.5 60.4,429.8 62.6,421.1 				"/>
			</g>
			<g>
				<path class="st0" d="M134.6,352.3c1.2-3.4,3.1-6.2,5.4-8.6c2.3-2.4,4.9-4.4,7.6-6.3c2.8-1.9,5.7-3.5,8.7-5.2
					c3-1.6,6-3.2,8.9-4.9c3-1.7,5.9-3.4,8.7-5.2c2.8-1.9,5.5-3.9,8-6.2c2.5-2.3,4.8-4.9,6.8-7.9s3.7-6.4,4.8-10.5s1.7-8.9,1.4-14.6
					c-0.3-5.8-0.9-6.6-1.5-9.9c-0.2-2.6-1-5.6-2.3-8.7c-1.3-3-3.1-6-5.3-8.7s-4.7-5-7.5-6.7s-5.8-2.7-9-2.7c-3.7,0-6.7-0.4-9.5-0.7
					c-2.8-0.2-5.4-0.4-8.2-0.5s-5.8-0.3-9.5-0.4c-3.1-0.1-6,0.8-8.8,2.4c-2.7,1.5-5.2,3.7-7.3,6.2c-2.1,2.4-3.8,5.1-5.1,7.7
					c-1.3,2.6-2,5.1-2.2,7.3c-0.6,3-1,5.9-1.8,7.3s-2.3,2.3-4.2,2.9c-1.9,0.6-4.3,0.9-7,1.2c-2.6,0.3-5.6,0.5-8.7,0.7
					c-3.1,0.3-6.4,0.6-9.9,1.1s-12,5.1-13.6,8.6L134.6,352.3z"/>
			</g>
			<g>
				<g>
					<g>
						<path class="st9" d="M150.6,146.6c4.2,3.7,5,9.4,1.8,12.6l-2.7,2.7c-3.1,3.2-8.8,2.5-12.6-1.6l-38-40.8l-0.4-0.4
							c-0.4-0.6-0.9-1.1-1.2-1.8c-0.3-0.7-0.6-1.4-0.8-2.1c-0.2-0.7-0.3-1.4-0.3-2s0-1.2,0.1-1.7c0.3-2.1,1-3.3,1.6-4.4
							c1.2-2,2.5-3.4,3.7-4.6c2.4-2.4,4.8-4.3,7.2-6.2c4.8-3.6,9.8-6.8,14.7-9.9c9.9-6.1,20-11.7,30.3-17.1l3.9,6.9
							c-9.5,6.1-19,12.6-28,19.3c-4.5,3.4-8.9,6.9-12.9,10.5c-2,1.8-3.9,3.7-5.4,5.5c-0.7,0.9-1.3,1.8-1.5,2.2v0.1l0,0
							c0.1,0-0.1,0-0.2-0.1l-0.4-0.2c-0.6-0.2-0.9-0.4-1.4-0.5l-0.6-0.1c-0.2,0-0.3-0.1-0.5-0.1c-1.4-0.2-1.7,0.3-1.2-0.1l3.1-3.4
							L150.6,146.6z"/>
					</g>
					<g>
						<path class="st8" d="M170.9,76.5c-6.7,3.7-15.1,1.3-18.8-5.4c-3.7-6.7-1.3-15.1,5.4-18.8s15.1-1.3,18.8,5.4
							C180,64.4,177.6,72.8,170.9,76.5z"/>
						<path class="st8" d="M165.8,78l17.1-1.9c2.2-0.2,3.7-2.2,3.5-4.3c-0.2-2.1-2.2-3.7-4.3-3.5L165,70.2L165.8,78z"/>
						<path class="st8" d="M177.1,66.9l8.5-22.4c0.8-2-0.2-4.3-2.3-5.1c-2-0.8-4.3,0.2-5.1,2.3l-8.5,22.4L177.1,66.9z"/>
						<path class="st8" d="M171.6,61.6l8.5-22.4c0.8-2-0.2-4.3-2.3-5.1c-2-0.8-4.3,0.2-5.1,2.3l-8.5,22.4L171.6,61.6z"/>
						<path class="st8" d="M164.9,62.8l8.5-22.4c0.8-2-0.2-4.3-2.3-5.1c-2-0.8-4.3,0.2-5.1,2.3L157.6,60L164.9,62.8z"/>
						<path class="st8" d="M157.7,61.9l6.9-18.1c0.6-1.6-0.2-3.4-1.8-4s-3.4,0.2-4,1.8l-6.9,18.1L157.7,61.9z"/>
						<g>
							<path class="st10" d="M173.5,56.3c1.3-3.9,2.7-7.7,4-11.5c0.7-1.9,1.3-3.9,2.1-5.7c0.4-0.8,0.4-1.8,0-2.7
								c-0.3-0.9-1-1.6-1.9-2.1c0,0,0,0,0-0.1c0,0,0,0,0.1,0c1,0.2,1.9,1,2.5,1.9c0.5,1,0.6,2.2,0.3,3.3c-0.7,1.9-1.5,3.8-2.3,5.7
								C176.8,48.8,175.2,52.6,173.5,56.3C173.6,56.3,173.6,56.4,173.5,56.3C173.6,56.3,173.5,56.3,173.5,56.3z"/>
						</g>
						<g>
							<path class="st10" d="M168.1,54.1c1.1-3.3,2.2-6.6,3.4-9.8l0.8-2.5l0.4-1.2c0.2-0.4,0.3-0.7,0.3-1.1c0.3-1.5-0.5-3.2-2-4
								c0,0,0,0,0-0.1c0,0,0,0,0.1,0c1.8,0.3,3.2,2.3,3,4.2c-0.1,1-0.5,1.8-0.8,2.6l-1,2.4C170.9,47.7,169.6,50.9,168.1,54.1
								C168.2,54.1,168.2,54.1,168.1,54.1C168.2,54.1,168.1,54.1,168.1,54.1z"/>
						</g>
						<g>
							<path class="st10" d="M160.5,54.4c0.8-2.6,1.7-5.2,2.6-7.8l0.6-1.9l0.3-1c0.1-0.3,0.2-0.6,0.2-0.9c0.2-1.1-0.4-2.4-1.5-3.1
								c0,0,0,0,0-0.1c0,0,0,0,0.1,0c1.4,0.2,2.6,1.7,2.5,3.3c0,0.4-0.2,0.8-0.3,1.1l-0.4,0.9l-0.8,1.9
								C162.8,49.5,161.7,52,160.5,54.4C160.6,54.5,160.6,54.5,160.5,54.4C160.5,54.5,160.5,54.5,160.5,54.4z"/>
						</g>
						<g>
							<path class="st10" d="M177,66.9c1.6-4.7,3.3-9.5,5-14.2c0.8-2.4,1.6-4.7,2.6-7.1c0.2-0.6,0.5-1.2,0.7-1.7s0.2-1.1,0.1-1.7
								c-0.2-1.1-1-2.2-2.1-2.7c0,0,0,0,0-0.1c0,0,0,0,0.1,0c0.6,0.2,1.2,0.5,1.7,1s0.8,1.1,1,1.7c0.2,0.7,0.2,1.4,0.1,2
								c-0.2,0.7-0.4,1.2-0.6,1.8c-0.8,2.4-1.8,4.7-2.8,7C180.9,57.7,179,62.3,177,66.9C177.1,67,177.1,67,177,66.9
								C177,67,177,67,177,66.9z"/>
						</g>
						<g>
							<path class="st10" d="M162.7,69.7c0.4-0.3,0.7-0.7,1.1-1c0.4-0.3,0.8-0.6,1.2-0.9c0.9-0.5,1.9-0.8,2.9-1s2.1-0.2,3.1,0.1
								c1,0.3,1.9,0.9,2.6,1.7v0.1l0,0l0,0c-0.9-0.3-1.8-0.6-2.8-0.8c-0.9-0.2-1.8-0.4-2.7-0.3s-1.9,0.3-2.7,0.7
								c-0.5,0.2-0.9,0.4-1.3,0.7C163.6,69.2,163.2,69.5,162.7,69.7L162.7,69.7C162.8,69.8,162.7,69.7,162.7,69.7L162.7,69.7z"/>
						</g>
					</g>
				</g>
				<g>
					<g>
						<path class="st9" d="M196.8,156.8c-5.1,2.3-7.6,7.5-5.5,11.5l1.7,3.4c2,4,7.7,5,12.5,2.3l48.4-27.6l0.5-0.3
							c0.6-0.4,1.2-0.8,1.7-1.3c0.5-0.5,1-1.1,1.4-1.7c0.4-0.6,0.7-1.3,0.9-1.8c0.2-0.6,0.4-1.2,0.4-1.7c0.3-2.1,0-3.5-0.2-4.7
							c-0.6-2.3-1.3-3.9-2.1-5.5c-1.6-3-3.3-5.6-5-8.1c-3.5-4.9-7.3-9.4-11.1-13.9c-7.7-8.8-15.6-17.2-23.8-25.4l-5.8,5.4
							c7.3,8.7,14.3,17.7,20.9,26.8c3.3,4.6,6.4,9.2,9.2,13.9c1.3,2.3,2.6,4.7,3.5,6.8c0.4,1,0.7,2.1,0.7,2.6v0.1l0,0
							c-0.1,0,0.1,0,0.2,0h0.4c0.6,0,1-0.1,1.5,0l0.7,0.1c0.2,0,0.3,0,0.5,0.1c1.4,0.2,1.5,0.8,1.2,0.2l-1.9-4.1L196.8,156.8z"/>
					</g>
					<g>
						<path class="st8" d="M198.4,83.9c5.3,5.5,14,5.8,19.6,0.5c5.5-5.3,5.8-14,0.5-19.6c-5.3-5.5-14-5.8-19.6-0.5
							C193.4,69.6,193.2,78.3,198.4,83.9z"/>
						<path class="st8" d="M202.8,86.8l-15.7-6.9c-2-0.9-2.9-3.2-2-5.2s3.2-2.9,5.2-2l15.7,6.9L202.8,86.8z"/>
						<path class="st8" d="M195.4,72.9L194,49c-0.1-2.2,1.5-4,3.7-4.1s4,1.5,4.1,3.7l1.4,23.9L195.4,72.9z"/>
						<path class="st8" d="M202.2,69.4l-1.4-23.9c-0.1-2.2,1.5-4,3.7-4.1s4,1.5,4.1,3.7L210,69L202.2,69.4z"/>
						<path class="st8" d="M208.3,72.6l-1.4-23.9c-0.1-2.2,1.5-4,3.7-4.1s4,1.5,4.1,3.7l1.4,23.9L208.3,72.6z"/>
						<path class="st8" d="M215.4,73.8l-1.2-19.3c-0.1-1.7,1.2-3.2,2.9-3.3s3.2,1.2,3.3,2.9l1.2,19.3L215.4,73.8z"/>
						<g>
							<path class="st10" d="M201.9,63.8c-0.4-4.1-0.7-8.1-1.1-12.2c-0.2-2-0.4-4-0.5-6.1c0-1.1,0.4-2.3,1.2-3.1s1.9-1.2,2.9-1.1
								c0,0,0,0,0,0.1l0,0c-1,0.2-1.9,0.7-2.4,1.5c-0.6,0.7-0.8,1.7-0.7,2.6c0.2,2,0.2,4.1,0.3,6.1
								C201.7,55.6,201.9,59.7,201.9,63.8C202,63.8,201.9,63.8,201.9,63.8L201.9,63.8z"/>
						</g>
						<g>
							<path class="st10" d="M207.7,63.3c-0.3-3.4-0.7-6.9-1-10.3l-0.2-2.6c0-0.9-0.2-1.7,0-2.7c0.4-1.9,2.3-3.4,4.1-3.1
								c0,0,0,0,0,0.1l0,0c-1.7,0.4-2.9,1.7-3.1,3.2c-0.1,0.4-0.1,0.7,0,1.2l0.1,1.3l0.1,2.6C207.6,56.4,207.7,59.8,207.7,63.3
								C207.8,63.3,207.7,63.3,207.7,63.3L207.7,63.3z"/>
						</g>
						<g>
							<path class="st10" d="M214.9,65.9c-0.3-2.7-0.6-5.4-0.8-8.2l-0.2-2l-0.1-1c0-0.3,0-0.8,0.1-1.1c0.3-1.6,1.9-2.7,3.4-2.4
								c0,0,0,0,0,0.1l0,0c-1.3,0.4-2.2,1.4-2.4,2.5c-0.1,0.3-0.1,0.5,0,0.9v1v2C214.9,60.4,214.9,63.2,214.9,65.9
								C214.9,65.9,214.9,66,214.9,65.9C214.9,66,214.9,65.9,214.9,65.9z"/>
						</g>
						<g>
							<path class="st10" d="M195.4,72.9c-0.4-5-0.9-10-1.2-15c-0.2-2.5-0.5-5-0.5-7.5c0-0.6-0.1-1.2,0-1.9s0.3-1.4,0.7-1.9
								c0.4-0.6,0.9-1,1.5-1.3s1.3-0.4,1.9-0.4c0,0,0,0,0,0.1l0,0c-1.2,0.2-2.3,1-2.8,2c-0.3,0.5-0.4,1.1-0.4,1.6s0.1,1.2,0.1,1.8
								c0.2,2.5,0.3,5,0.3,7.5C195.1,62.9,195.3,67.9,195.4,72.9C195.5,72.9,195.4,72.9,195.4,72.9L195.4,72.9z"/>
						</g>
						<g>
							<path class="st10" d="M208.2,79.8c-0.3-0.4-0.6-0.8-0.9-1.2c-0.4-0.3-0.6-0.7-1-1c-0.7-0.7-1.5-1.1-2.4-1.5
								c-0.9-0.3-1.8-0.4-2.7-0.5s-1.9-0.1-2.9-0.1l0,0h-0.1l0,0c0.9-0.6,1.9-0.8,2.9-0.8s2.1,0.3,3,0.8s1.8,1.1,2.4,1.8
								c0.4,0.3,0.6,0.8,0.9,1.2C207.8,78.9,208,79.3,208.2,79.8C208.3,79.8,208.3,79.8,208.2,79.8L208.2,79.8L208.2,79.8z"/>
						</g>
					</g>
				</g>
				<g>
					<path class="st9" d="M195.7,272.5l-5.8-50.5l11.8-31c0.5-1.3,0.7-2.7,0.5-4l-3.1-32.9c0,0-10.6-4.3-25.8-5.8
						c-22.1-3.5-24.7-1.9-24.7-1.9l-12.4,29.4c-0.8,2-1.2,4.1-1.1,6.2l1.9,32l-20.6,46.5l0.5,1c5.8,2.8,20.8,10.6,30.6,13.9
						l7.5-14.5l1.8,16.3c10.3,0.5,31.7-3.6,38.1-4.7L195.7,272.5z"/>
				</g>
				<polygon class="st11" points="152.3,149.7 164.2,212.5 192.8,155.9 				"/>
				<g>
					<path class="st12" d="M172.8,147.4c-2.8-2.4-11.8-8.3-21.5,2.8c-0.2,0.3-0.4,0.7-0.4,1.1l0.7,22.4c0,1.2,1.4,1.8,2.1,0.8
						c3-3.9,9.2-10.4,16.9-11.2c0.2,0,0.4,0,0.6,0.1c7.1,3,11,11.2,12.8,15.8c0.4,1.1,1.9,1,2.3-0.1l7.4-21.2c0.1-0.4,0.1-0.8,0-1.1
						c-6-13.5-16.3-10.5-19.7-9.1C173.5,147.8,173.1,147.7,172.8,147.4z"/>
					<path class="st11" d="M173,146.1c-2.7-2.3-11.1-7.9-20.3,2.6c-0.2,0.3-0.4,0.6-0.4,1l0.7,21.2c0,1.2,1.3,1.7,2,0.8
						c2.9-3.7,8.7-9.9,16-10.6c0.2,0,0.4,0,0.6,0.1c6.7,2.9,10.4,10.5,12.1,14.9c0.4,1.1,1.8,1,2.2-0.1l7-20c0.1-0.3,0.1-0.7,0-1.1
						c-5.6-12.8-15.4-10-18.6-8.6C173.7,146.4,173.3,146.3,173,146.1z"/>
				</g>
				<path class="st8" d="M172.7,159L172.7,159c-6.4-1-10.8-7-9.8-13.3l6.8-44.6c1-6.4,6.9-10.8,13.3-9.8l0,0
					c6.4,1,10.8,6.9,9.8,13.3l-6.8,44.6C185,155.6,179,159.9,172.7,159z"/>
				<circle class="st13" cx="169.4" cy="173.1" r="2.7"/>
				<circle class="st13" cx="167.9" cy="183" r="2.7"/>
			</g>
			<g>
				<polygon class="st5" points="216.2,279.1 167,319.1 182.6,320.9 239.4,279.3 				"/>
				<polygon class="st5" points="216.2,274.6 167,314.6 182.6,316.3 239.4,274.7 				"/>
				<polygon class="st7" points="167,314.6 167,319.1 182.6,320.9 182.6,316.3 				"/>
				<polygon class="st7" points="239.4,274.7 239.4,279.3 182.6,320.9 182.6,316.3 				"/>
			</g>
			<g>
				<path class="st14" d="M244.2,68.4c1.7-0.8,3.1-2.4,3.8-4.4c1.1-3.3,0-6.9-2.6-8.7c1-0.9,1.9-2,2.3-3.4c1.3-3.9-0.5-8.2-4.1-9.5
					c0.4-0.6,0.7-1.2,1-2c1.3-3.9-0.5-8.2-4.1-9.5c-0.9-0.3-1.7-0.4-2.6-0.4c1.2-3.9-0.6-8-4.1-9.3c-1.4-0.5-2.9-0.5-4.2-0.1
					c0.2-3.2-1.6-6.2-4.5-7.3c-3.3-1.2-5.8,0.4-6.8,1.3c-3.9-1.8-9-3.7-14.5-4.7c-2.5-1-5.2-2.1-7.9-3.2c0,0,0.1-4.6-4.3-6.4
					c-2.9-1.2-6.2-0.1-8.1,2.4c-0.7-1.2-1.8-2.2-3.2-2.8c-3.5-1.4-7.6,0.4-9.2,4.2c-0.6-0.6-1.3-1.1-2.2-1.5
					c-3.5-1.4-7.7,0.5-9.2,4.4c-0.3,0.7-0.5,1.4-0.5,2.1c-3.5-1.4-7.7,0.5-9.2,4.4c-0.6,1.4-0.7,2.8-0.5,4.2
					c-3.1-0.4-6.3,1.5-7.6,4.8c-0.8,2-0.8,4.1,0,5.9c-2.7,0.1-5.3,1.9-6.5,4.8v0.1c-1.2,2.9-0.5,6,1.3,8c-1.7,0.8-3.2,2.2-4,4.2
					c-1.3,3.3-0.3,6.9,2.2,8.8c-1.1,0.8-2,2-2.5,3.3c-1.6,3.9,0.1,8.1,3.6,9.6c-0.4,0.6-0.8,1.2-1.1,1.9c-1.6,3.9,0.1,8.1,3.6,9.6
					c0.8,0.3,1.7,0.5,2.6,0.5c-1.4,3.8,0.2,8,3.7,9.4c1.4,0.6,2.9,0.6,4.2,0.2c-0.3,3.2,1.3,6.3,4.2,7.4c2.7,1.1,5.6,0.4,7.6-1.7
					l3.8,1.6l0.2,0.5l9.2,3.4l9.1,3.7l0.5-0.2l3.9,1.4c0.1,2.9,1.9,5.4,4.5,6.4c2.9,1.1,6.1-0.1,7.9-2.8c0.8,1.2,1.9,2.2,3.3,2.7
					c3.5,1.3,7.5-0.8,8.9-4.6c0.6,0.6,1.4,1.1,2.2,1.4c3.6,1.3,7.6-0.8,9-4.7c0.2-0.7,0.4-1.4,0.4-2.1c3.6,1.3,7.6-0.8,9-4.7
					c0.5-1.4,0.6-2.9,0.3-4.2c3.1,0.3,6.2-1.8,7.3-5.1c0.7-2,0.5-4.1-0.3-5.9c2.7-0.2,5.2-2.2,6.2-5.1v-0.1
					C246.9,73.5,246.1,70.3,244.2,68.4z M173.7,13.6c0,0-0.2-0.1-0.6-0.2c0.2,0,0.5,0,0.7,0C173.8,13.5,173.8,13.5,173.7,13.6z"/>
				<g>
					<g>
						<path class="st8" d="M222.9,89.7c-1.9,2.3-3.7,5.3-4.5,7.6c-0.6,1.8-1,4.8-0.2,5.5c0.3,0.3,1.1,0,1.6-0.1
							c2.2-0.9,4-3.5,4.6-6.7C224.8,93.4,224.2,91.1,222.9,89.7z"/>
						<path class="st8" d="M229.8,81.8c-3.2-1.1-9,2.1-9,2.1c-6.8,4.1-6.9,27.7-1.7,27.7c5.3-0.1,5.9-7.5,5.9-7.5
							c2.8-1.2,6-7.6,6-7.6C237.5,84.6,229.8,81.8,229.8,81.8z M231.1,90.2c-0.3,0.9-0.8,1.7-1.3,2.5l-1.6-1
							c0.5-0.7,0.9-1.4,1.2-2.1c0.2-0.5,0.4-1.3,0.2-2c-0.1-0.6-0.6-1.1-1-1.3c-0.3-0.1-0.7-0.1-1.3,0c-0.9,0.2-2,1-3.1,2.1
							c1.8,1.8,2.5,4.7,2,8c-0.7,3.8-2.8,6.9-5.7,8.1c-0.9,0.4-1.6,0.5-2.3,0.4c-0.5-0.1-0.9-0.3-1.2-0.6c-1.9-1.7-0.6-6.5-0.3-7.4
							c1.4-4.3,6.4-11.5,10.2-12.3c0.6-0.1,1.4-0.3,2.2,0c1.1,0.4,1.9,1.3,2.3,2.6C231.6,88,231.5,89.1,231.1,90.2z"/>
						<path class="st15" d="M229.1,84.5c-0.8-0.3-1.7-0.1-2.2,0c-3.8,0.8-8.7,8-10.2,12.3c-0.3,0.9-1.6,5.6,0.3,7.4
							c0.3,0.3,0.8,0.5,1.2,0.6c0.6,0.1,1.4,0,2.3-0.4c2.9-1.2,5-4.3,5.7-8.1c0.6-3.2-0.2-6.2-2-8c1.1-1.1,2.2-1.9,3.1-2.1
							c0.6-0.1,1-0.1,1.3,0c0.5,0.2,0.9,0.7,1,1.3c0.2,0.7,0,1.5-0.2,2c-0.3,0.7-0.7,1.4-1.2,2.1l1.6,1c0.5-0.8,1-1.6,1.3-2.5
							c0.4-1.1,0.5-2.2,0.3-3.1C231,85.8,230.2,84.8,229.1,84.5z M224.3,96c-0.5,3.1-2.3,5.7-4.6,6.7c-0.4,0.2-1.2,0.4-1.6,0.1
							c-0.7-0.7-0.3-3.6,0.2-5.5c0.8-2.3,2.6-5.3,4.5-7.6C224.2,91.1,224.8,93.4,224.3,96z"/>
					</g>
					<g>
						<path class="st8" d="M145.3,77.5c1.1,2.8,1.9,6.2,1.9,8.7c0,1.9-0.5,4.9-1.5,5.3c-0.4,0.2-1.1-0.3-1.4-0.6
							c-1.9-1.6-2.8-4.6-2.3-7.7C142.4,80.4,143.6,78.4,145.3,77.5z"/>
						<path class="st8" d="M135.4,81.4c0,0,1.1,7.1,3.4,9.1c0,0-1.6,7.3,3.3,9c5,1.7,12.1-20.9,6.9-26.8c0,0-4.5-4.9-7.9-4.8
							C141.1,67.8,133,68.1,135.4,81.4z M138.1,72.3c0.7-1.1,1.8-1.7,2.9-1.7c0.9,0,1.6,0.4,2.1,0.7c3.3,1.9,5.9,10.3,5.9,14.9
							c0,1-0.2,5.9-2.5,6.9c-0.4,0.2-0.9,0.3-1.4,0.2c-0.6-0.1-1.3-0.5-2-1.1c-2.4-2-3.5-5.6-2.9-9.4c0.5-3.3,2.1-5.8,4.3-7
							c-0.7-1.4-1.5-2.5-2.3-2.9c-0.5-0.3-0.9-0.4-1.2-0.4c-0.5,0-1.1,0.4-1.4,0.9c-0.4,0.7-0.5,1.5-0.4,2c0,0.8,0.2,1.6,0.4,2.4
							l-1.8,0.4c-0.2-0.9-0.5-1.8-0.5-2.8C137.3,74.2,137.6,73.2,138.1,72.3z"/>
						<path class="st15" d="M138.1,72.3c-0.5,0.8-0.8,1.9-0.7,3.1c0,1,0.3,1.9,0.5,2.8l1.8-0.4c-0.2-0.8-0.4-1.6-0.4-2.4
							c0-0.6,0-1.4,0.4-2c0.3-0.5,0.9-0.9,1.4-0.9c0.3,0,0.7,0.1,1.2,0.4c0.8,0.5,1.6,1.5,2.3,2.9c-2.3,1.2-3.9,3.7-4.3,7
							c-0.5,3.8,0.6,7.4,2.9,9.4c0.7,0.6,1.4,1,2,1.1c0.5,0.1,0.9,0,1.4-0.2c2.3-1.1,2.5-6,2.5-6.9c0-4.5-2.6-12.9-5.9-14.9
							c-0.5-0.3-1.3-0.7-2.1-0.7C139.9,70.6,138.8,71.3,138.1,72.3z M145.3,77.5c1.1,2.8,1.9,6.2,1.9,8.7c0,1.9-0.5,4.9-1.5,5.3
							c-0.4,0.2-1.1-0.3-1.4-0.6c-1.9-1.6-2.8-4.6-2.3-7.7C142.4,80.4,143.6,78.4,145.3,77.5z"/>
					</g>
				</g>
				<path class="st8" d="M175,141.1L175,141.1c-17.8-2.8-35.5-22-32.7-39.8l9.3-59.1c2.8-17.8,19.5-30,37.3-27.2l11.5,1.8
					c17.8,2.8,30,19.5,27.2,37.3l-9.3,59.1C215.6,131.1,192.8,143.9,175,141.1z"/>
				<path class="st10" d="M170.4,129c1.4,2.1,3.4,3.5,5.9,3.9c2.4,0.4,4.9-0.4,6.8-1.9c-1.9,0.5-4.2,0.7-6.6,0.3
					C174.2,130.9,172.1,130.1,170.4,129z"/>
				<g>
					<path class="st16" d="M158.9,65.9c-0.6,0.2-1-0.6-0.5-1c2.3-1.6,5.1-2.5,7.9-2.4c2.9,0.1,5.5,1.2,7.8,2.9
						c0.5,0.4,0.1,1.2-0.5,1c-2.2-0.7-4.7-1.2-7.3-1.3C163.7,65,161.2,65.3,158.9,65.9z"/>
					<path class="st16" d="M214.3,74.6c0.5,0.3,1.1-0.3,0.8-0.8c-1.7-2.3-4-3.9-6.8-4.7c-2.8-0.8-5.6-0.6-8.3,0.4
						c-0.6,0.2-0.4,1.1,0.2,1.1c2.3,0,4.8,0.3,7.4,1S212.3,73.3,214.3,74.6z"/>
				</g>
				<path class="st10" d="M181.1,102.5l4-0.1c0.8,0.1,1.3-0.7,0.8-1.4l-3.3-4.5c-0.3-0.4-0.8-0.5-1.2-0.2l-4.5,3.3
					c-0.6,0.5-0.4,1.4,0.4,1.6L181.1,102.5z"/>
				<g>
					<g>
						<g>
							<circle class="st13" cx="167.6" cy="77.7" r="4.6"/>
						</g>
					</g>
				</g>
				<g>
					<g>
						<g>
							<circle class="st13" cx="200.4" cy="82.8" r="4.6"/>
						</g>
					</g>
				</g>
				<path class="st14" d="M243,61.1c-1.3-0.2-3-0.7-4.8-1.4c1.8-11.4,1.9-31.2-14.7-43.1c-5.4-3.9-26.6-13.9-42.6-5.9
					c0,0,0-4.1,1.6-5c0,0-6.6-0.3-9.4,5.9c0,0-12.6-4.9-16.7,0.6c0,0,3.6,0.2,5.4,1.8C138.9,20.7,141,53.2,141,53.2
					c0.5,4.3-0.3,15.8,5.4,22.8l3.6-21c0,0,8.3-19.7,13.9-19.6c0,0,0.3,2.7,2.4,6.4c2.5,8.4,9.1,19.8,26.1,20.7
					c0,0-9.1-2.8-12.7-8.4c8.5,4.6,21.5,8.2,41.5,8.2c0,0,1.9,0.2,4.7,0.4c0.2,1.1,0.2,2.1,0,3.1c-1.6,10-0.5,0.4-3.7,23.2
					c0,0,10.7-9.4,14-20.6c0,0,0.3-0.1,1-3.6c2-0.1,4.2-1.3,6-2.3C243.9,62.2,243.7,61.2,243,61.1z"/>
				<g>
					<path class="st17" d="M177.7,121.1c-7.3-1.2-10.4-5-10.6-5.2l1.4-1.1l-0.7,0.6l0.7-0.6c0.1,0.1,6.5,7.8,23.2,3.5l0.5,1.8
						C186.1,121.6,181.4,121.6,177.7,121.1z"/>
				</g>
			</g>
			<g>
				<polygon class="st17" points="141.3,58 149.6,55.7 148.7,61.2 140.6,62.7 				"/>
				<polygon class="st18" points="140.4,64.1 148.6,61.7 148,65.8 139.9,67.3 				"/>
			</g>
			<g>
				<polygon class="st17" points="233.8,72.2 226.7,67.4 225.8,73 233.1,76.9 				"/>
				<polygon class="st18" points="232.8,78.3 225.7,73.5 225.1,77.6 232.3,81.5 				"/>
			</g>
		</g>
	</g>
	<g>
		<g class="st19">
			<path class="st20" d="M209,80.6c-0.5-0.1-1.1-0.2-1.6-0.3c-3.7-0.6-6.9-0.5-9.5,0.2c-2.2,0.4-4.9,1.5-7.7,0.5
				c-2.7-0.9-3.6-1.2-4.5-1.4c-0.9-0.1-1.7-0.1-4.6-0.1c-3,0-5.2-1.8-7.2-2.9c-2.3-1.5-5.4-2.5-9-3.1c-0.5-0.1-1.1-0.2-1.6-0.2
				c-2.1-0.3-8.8-0.9-22.1,1.7l-0.5,3.2c0,0,1.5,0.8,1.3,2.9c-0.6,9.1,0.2,12.1,1,14.3c0.2,0.6,0.4,1.2,0.6,1.7V97
				c0.5,1.1,1.1,2,1.8,2.9c2.5,3.2,6.5,5.4,11.4,6.2c0.4,0.1,0.9,0.1,1.3,0.2c5,0.5,10.8-1.7,15.1-5.8c2.4-2.3,6.2-7,7.6-16.1
				c0,0,0.8-1.9,4.3-1.4c3.5,0.6,3.7,2.6,3.7,2.6c-1.4,9.1,0.7,14.7,2.3,17.7c2.8,5.2,7.6,9.1,12.6,10.1c0.4,0.1,0.9,0.2,1.3,0.2
				c4.9,0.8,9.3,0,12.7-2.3c0.9-0.6,1.8-1.4,2.6-2.3v0.1c0.4-0.4,0.8-0.9,1.1-1.4c1.4-1.9,3.2-4.5,5.3-13.3c0.5-2.1,2.1-2.4,2.1-2.4
				l0.5-3.2C217.7,82.4,211.1,80.9,209,80.6z M158.4,104.5c-8.7-0.9-16.1-6.2-14.4-20c0,0,1.1-6.8,7.2-8.8c4.7-1.6,25.6-2,26.4,9.8
				C178.3,97.3,166.9,105.5,158.4,104.5z M204.1,111.8c-8.4-1.8-16.8-13-12.4-24c4.3-11,24.1-4.1,28.1-1.2
				c5.2,3.9,4.2,10.6,4.2,10.6C221.4,110.8,212.7,113.6,204.1,111.8z"/>
		</g>
		<g>
			<path class="st21" d="M209.5,77.3c-0.5-0.1-1.1-0.2-1.6-0.3c-3.7-0.6-6.9-0.5-9.5,0.2c-2.2,0.4-4.9,1.5-7.7,0.5
				c-2.7-0.9-3.6-1.2-4.5-1.4c-0.9-0.1-1.7-0.1-4.6-0.1c-3,0-5.2-1.8-7.2-2.9c-2.3-1.5-5.4-2.5-9-3.1c-0.5-0.1-1.1-0.2-1.6-0.2
				c-2.1-0.3-8.8-0.9-22.1,1.7l-0.5,3.2c0,0,1.5,0.8,1.3,2.9c-0.6,9.1,0.2,12.1,1,14.3c0.2,0.6,0.4,1.2,0.6,1.7v-0.1
				c0.5,1.1,1.1,2,1.8,2.9c2.5,3.2,6.5,5.4,11.4,6.2c0.4,0.1,0.9,0.1,1.3,0.2c5,0.5,10.8-1.7,15.1-5.8c2.4-2.3,6.2-7,7.6-16.1
				c0,0,0.8-1.9,4.3-1.4c3.5,0.6,3.7,2.6,3.7,2.6c-1.4,9.1,0.7,14.7,2.3,17.7c2.8,5.2,7.6,9.1,12.6,10.1c0.4,0.1,0.9,0.2,1.3,0.2
				c4.9,0.8,9.3,0,12.7-2.3c0.9-0.6,1.8-1.4,2.6-2.3v0.1c0.4-0.4,0.8-0.9,1.1-1.4c1.4-1.9,3.2-4.5,5.3-13.3c0.5-2.1,2.1-2.4,2.1-2.4
				l0.5-3.2C218.2,79.1,211.7,77.6,209.5,77.3z M158.9,101.3c-8.7-0.9-16.1-6.2-14.4-20c0,0,1.1-6.8,7.2-8.8
				c4.7-1.6,25.6-2,26.4,9.8C178.8,94,167.4,102.2,158.9,101.3z M204.7,108.5c-8.4-1.8-16.8-13-12.4-24c4.3-11,24.1-4.1,28.1-1.2
				c5.2,3.9,4.2,10.6,4.2,10.6C221.9,107.5,213.2,110.3,204.7,108.5z"/>
		</g>
	</g>
</g>
</svg>
