<?xml version="1.0" encoding="utf-8"?>
<!-- Generator: Adobe Illustrator 22.1.0, SVG Export Plug-In . SVG Version: 6.00 Build 0)  -->
<svg version="1.1" id="Layer_1" xmlns="http://www.w3.org/2000/svg" xmlns:xlink="http://www.w3.org/1999/xlink" x="0px" y="0px"
	 viewBox="0 0 116.2 461.1" style="enable-background:new 0 0 116.2 461.1;" xml:space="preserve">
<style type="text/css">
	.st0{fill:#F5E0CD;}
	.st1{fill:#6E6360;}
	.st2{fill:#EDD8B7;}
	.st3{fill:#F1F1F2;}
	.st4{fill:#FFD7BE;}
	.st5{fill:#EBC19C;}
	.st6{fill:#C1B49A;}
	.st7{fill:#DFE0E0;}
	.st8{opacity:0.55;fill:#BBBDBF;enable-background:new    ;}
	.st9{fill:#F0D0B3;}
	.st10{fill:#808184;}
	.st11{fill:url(#SVGID_1_);}
	.st12{fill:#58595B;}
	.st13{fill:#BBBDBF;}
	.st14{fill:#6D6E70;}
	.st15{fill:#C3996B;}
	.st16{fill:#CCCFD9;}
	.st17{fill:#929497;}
	.st18{fill:#E6E7E8;}
	.st19{opacity:0.25;}
	.st20{fill:#757E84;}
	.st21{fill:#EC1C24;}
	.st22{fill:#787986;}
</style>
<title>img_old_female</title>
<g>
	<g id="Layer_1_1_">
		<path class="st0" d="M46.6,437.7c0,3.3-1.9,6-4.1,6h-1c-2.3,0.1-4.3-2.6-4.4-5.8l-9.7-189.6c-0.2-3.3,1.5-6,3.8-6l12.3-0.3
			c2.3,0,4.1,2.6,4.1,5.8L46.6,437.7z"/>
		<path class="st0" d="M83,435.2c-0.1,3.2-2,5.9-4.3,5.9h-1c-2.3,0-4.2-2.7-4.3-5.9L69,245.4c-0.1-3.3,1.7-5.9,4-5.9h12.4
			c2.3,0,4,2.7,3.9,6L83,435.2z"/>
		<path class="st1" d="M58.7,258.6c-7.7,0.5-30,8.9-37.4,6.9L0,398.8c0,0,53.9,23.1,116.2,0c0-3.8-19.1-133.9-19.1-133.9
			C90.3,266.8,66.6,259.2,58.7,258.6z"/>
		<path class="st2" d="M98.3,267.7l-12.9-47.5l6.7-31.4c0.3-1.3,0.3-2.6-0.1-3.9l-7.8-31c-8.4-1.7-17-2.3-25.5-1.8
			c-21.7-0.1-23.9,1.8-23.9,1.8l-7.5,30c-0.5,2-0.5,4.1-0.1,6.1l6.5,30.4l-13,47.5l0.7,0.9c5.9,1.9,21.5,7.1,31.3,8.8l5.1-15
			l4.1,15.3c9.9-1.1,29.8-8.1,35.8-10.1L98.3,267.7z"/>
		<polygon class="st3" points="39.3,154.9 59.3,215.7 77.8,154.9 		"/>
		<path class="st4" d="M41.3,276.7c-0.1,1.8,1.2,3.4,3.1,3.5l4.1,0.3c-0.6,1.1-1.1,2.3-1.3,3.6l-9.3,15.4c-0.9,1.6-0.4,3.6,1.1,4.5
			c0.9,0.5,2,0.6,2.9,0.2l-0.3,0.5c-1,1.5-0.6,3.6,0.9,4.6c1.5,1,3.6,0.6,4.6-0.9c0.1-0.1,0.1-0.2,0.2-0.3l0.1-0.1
			c0.3,0.5,0.7,0.9,1.2,1.2c1.6,0.9,3.6,0.4,4.5-1.1c0,0,0,0,0,0l1.8-3c0.3,1.4,1.7,2.4,3.1,2.1c0.7-0.1,1.4-0.6,1.8-1.2l6.7-11
			c4.9-4.2,5.4-11.6,1.1-16.5c-2.4-2.7-5.9-4.2-9.6-4l-13.1-0.9C43,273.5,41.5,274.9,41.3,276.7z"/>
		<path class="st5" d="M49.6,291.6c-1.7,3-3.3,6-5,9c-0.8,1.5-1.6,3-2.6,4.5c-0.4,0.6-0.6,1.4-0.5,2.1c0.1,0.8,0.6,1.5,1.2,2.1
			c0,0,0,0,0,0.1c0,0,0,0-0.1,0c-0.9-0.4-1.5-1.1-1.8-2c-0.3-0.9-0.2-2,0.3-2.8c0.8-1.5,1.8-2.9,2.8-4.4
			C45.8,297.2,47.7,294.3,49.6,291.6c-0.1-0.1-0.1-0.2,0-0.2s0.1,0,0.1,0C49.7,291.4,49.7,291.4,49.6,291.6L49.6,291.6z"/>
		<path class="st5" d="M53.8,294.2c-1.4,2.6-2.8,5.1-4.2,7.7l-1,1.9l-0.5,1c-0.2,0.3-0.3,0.6-0.4,0.9c-0.4,1.3,0,2.7,1,3.6
			 M48.6,309.4C48.5,309.4,48.5,309.4,48.6,309.4c-1.6-0.7-2.4-2.4-2-4c0.3-0.7,0.6-1.4,1.1-2l1.2-1.8c1.6-2.4,3.2-4.9,4.8-7.3
			L48.6,309.4z"/>
		<path class="st5" d="M60.2,295c-1.1,2-2.2,4.1-3.3,6.1l-0.8,1.5l-0.4,0.8c-0.1,0.2-0.2,0.4-0.3,0.6c-0.3,1-0.1,2.1,0.7,2.8
			 M56.1,307L56.1,307c-1.3-0.5-2-1.9-1.6-3.2c0.1-0.3,0.2-0.6,0.4-0.9l0.5-0.7l1-1.4c1.3-1.9,2.6-3.8,3.9-5.8c0,0,0,0,0.1,0
			c0,0,0,0-0.1,0.1L56.1,307z"/>
		<path class="st5" d="M48.4,282.2c-2.1,3.7-4.2,7.4-6.3,11.1c-1,1.8-2,3.7-3.2,5.5c-0.3,0.4-0.6,0.9-0.8,1.3
			c-0.2,0.4-0.3,0.9-0.3,1.4c0,1,0.5,2,1.3,2.6c0,0,0,0,0,0.1c0,0,0,0-0.1,0c-0.5-0.2-0.9-0.6-1.3-1c-0.3-0.5-0.6-1-0.6-1.6
			c-0.1-0.6,0-1.2,0.2-1.7c0.2-0.5,0.5-1,0.8-1.5c1-1.9,2.2-3.6,3.4-5.4c2.3-3.6,4.5-7.1,6.8-10.7 M48.3,282.2
			C48.4,282.2,48.4,282.2,48.3,282.2L48.3,282.2z"/>
		<polygon class="st6" points="93.2,248.3 94.8,254.3 77.4,276.1 71.9,271.3 		"/>
		<path class="st2" d="M94.9,161.8l0.2,0.8l0.1,0.3c2.7,11.3,5.3,22.6,7.6,34c1.2,5.7,2.3,11.4,3.2,17.3c0.5,3,1,5.8,1.2,9.4v0.7
			v0.3v0.5c0,0.7,0,1.5-0.1,2.2c-0.1,0.6-0.2,1.2-0.4,1.8l-0.2,0.5l-0.1,0.2l-0.2,0.4l-0.4,0.9l-0.3,0.6c-0.9,1.7-1.8,2.9-2.6,4.2
			c-3.7,5.7-7.5,10.8-11.4,16s-7.8,10.3-11.7,15.4c-0.4,0.4-1,0.5-1.5,0.1l-9.3-7.1c-0.4-0.4-0.5-1-0.3-1.5c0,0,5.7-7.6,11.3-15.2
			c2.8-3.8,5.5-7.7,7.5-10.6c1-1.5,1.8-2.7,2.3-3.5s0.9-1.4,0.9-1.4l0,0c0.7-1.1,1.4-2.3,1.8-3.2l0.2-0.3c0,0,0-0.1,0-0.1l0,0l0,0
			l0.2,0.1l1.3,0.5c0.3,0.1,0.5,0.3,0.8,0.4c0.6,0.2,1.2,0.4,1.8,0.6c0.3,0.1,0.6,0.1,0.9,0.2l0.5,0h0.1l-1.4-0.2l-0.4-0.1
			c-0.9-0.2-1.9-0.3-2.8-0.4l-1.3-0.1l0,0V225v-0.4c-0.2-2.2-0.8-5.1-1.4-7.7c-1.2-5.5-2.5-11-3.9-16.5c-2.8-11.1-5.8-22.1-8.9-33.1
			l-0.1-0.3l-0.2-0.7c-1.7-5.4,0.1-10.7,4-11.9l3.4-1C89.3,152.3,93.6,156.1,94.9,161.8z"/>
		<polygon class="st4" points="65.2,281 59.3,276.4 65.4,268.5 71.3,273.1 		"/>
		<polygon class="st7" points="72.1,273.6 64.7,268 70,261 77.4,266.6 		"/>
		<path class="st4" d="M74.2,275.2c0.1,1.8-1.2,3.4-3.1,3.5L67,279c0.6,1.1,1.1,2.3,1.3,3.6l9.3,15.4c0.9,1.6,0.4,3.6-1.1,4.5
			c-0.9,0.5-2,0.6-2.9,0.2l0.3,0.5c1,1.5,0.6,3.6-0.9,4.6c-1.5,1-3.6,0.6-4.6-0.9c-0.1-0.1-0.1-0.2-0.2-0.3l-0.1-0.1
			c-0.9,1.6-2.9,2.2-4.5,1.3c-0.5-0.3-0.9-0.7-1.2-1.2l-1.8-3c-0.3,1.4-1.7,2.4-3.1,2.1c-0.7-0.1-1.4-0.6-1.8-1.2l-6.7-11
			c-4.9-4.2-5.4-11.6-1.1-16.5c2.4-2.7,5.9-4.2,9.6-4l13.1-0.9C72.5,272,74.1,273.4,74.2,275.2C74.2,275.2,74.2,275.2,74.2,275.2z"
			/>
		<path class="st5" d="M65.9,290.1c1.9,2.9,3.8,5.8,5.6,8.7c0.9,1.5,1.9,2.9,2.8,4.4c0.5,0.9,0.6,1.9,0.3,2.8
			c-0.3,0.9-0.9,1.6-1.8,2 M72.7,307.9C72.7,307.9,72.7,307.9,72.7,307.9c0.6-0.6,1-1.3,1.2-2.1c0.1-0.7,0-1.5-0.5-2.1
			c-0.9-1.4-1.7-3-2.6-4.5c-1.7-3-3.4-6-5-9c0,0,0,0,0-0.1c0,0,0,0,0.1,0L72.7,307.9z"/>
		<path class="st5" d="M61.8,292.7c1.6,2.4,3.2,4.9,4.8,7.3l1.2,1.8c0.4,0.6,0.8,1.3,1.1,2c0.5,1.6-0.3,3.3-1.9,4c0,0,0,0-0.1,0
			c0,0,0,0,0-0.1c1-0.9,1.4-2.3,1-3.6c-0.1-0.3-0.3-0.6-0.4-0.9l-0.5-1l-1-1.9C64.5,297.9,63.1,295.3,61.8,292.7
			C59.7,288.9,61.7,292.8,61.8,292.7C61.7,292.6,61.8,292.7,61.8,292.7z"/>
		<path class="st5" d="M55.4,293.5c1.3,1.9,2.6,3.8,3.9,5.8l1,1.4l0.5,0.7c0.2,0.3,0.3,0.6,0.4,0.9c0.4,1.3-0.4,2.7-1.6,3.2
			c0,0,0,0-0.1,0 M59.4,305.5c0.8-0.7,1.1-1.8,0.7-2.8c-0.1-0.2-0.2-0.4-0.3-0.6l-0.4-0.8l-0.8-1.5c-1.1-2-2.2-4-3.3-6.1
			c0,0,0,0,0-0.1c0,0,0.1,0,0.1,0L59.4,305.5z"/>
		<path class="st5" d="M67.2,280.7c2.3,3.5,4.6,7.1,6.8,10.7c1.1,1.8,2.3,3.5,3.4,5.4c0.2,0.5,0.5,0.9,0.8,1.5
			c0.2,0.5,0.3,1.1,0.2,1.7c-0.1,0.6-0.3,1.1-0.6,1.6c-0.3,0.4-0.8,0.8-1.3,1 M76.5,302.6C76.4,302.6,76.4,302.5,76.5,302.6
			c0.8-0.7,1.3-1.6,1.3-2.6c0-0.5-0.1-0.9-0.3-1.4c-0.2-0.4-0.5-0.9-0.8-1.3c-1.2-1.8-2.2-3.6-3.2-5.5c-2.1-3.7-4.2-7.4-6.3-11.1
			c0,0,0,0,0-0.1c0,0,0,0,0.1,0c0,0,0,0,0,0.1l0,0L76.5,302.6z"/>
		<polygon class="st6" points="25.7,249.7 24,255.7 38.4,274.5 43.9,269.8 		"/>
		<path class="st2" d="M20.6,160.3l-0.2,0.8l-0.1,0.3c-2.7,11.3-5.3,22.6-7.6,34c-1.2,5.7-2.3,11.4-3.2,17.3c-0.5,3-1,5.8-1.2,9.4
			v0.7v0.4v0.5c0,0.7,0,1.4,0.1,2.1c0.1,0.6,0.2,1.2,0.4,1.8l0.2,0.5l0.1,0.2l0.2,0.4l0.4,0.9l0.3,0.6c0.9,1.7,1.8,2.9,2.6,4.2
			c3.7,5.7,7.5,10.8,11.4,16s7.8,10.3,11.7,15.4c0.4,0.4,1,0.5,1.5,0.1l9.3-7.1c0.4-0.4,0.5-1,0.3-1.5c0,0-5.7-7.6-11.3-15.2
			c-2.8-3.8-5.5-7.7-7.5-10.6c-1-1.5-1.8-2.7-2.3-3.5s-0.9-1.4-0.9-1.4l0,0c-0.7-1.1-1.4-2.3-1.8-3.2l-0.2-0.3c0,0,0-0.1,0-0.1l0,0
			l0,0l0,0l-0.2,0.1l-1.3,0.5c-0.3,0.1-0.5,0.3-0.8,0.4c-0.6,0.2-1.2,0.4-1.8,0.6c-0.3,0.1-0.6,0.1-0.9,0.2l-0.5,0h-0.1
			c-1.3,0.2,1.6-0.2,1.4-0.2l0.4-0.1c0.9-0.2,1.9-0.3,2.8-0.4l1.3-0.1l0,0v-0.2l0-0.4c0.2-2.2,0.8-5.1,1.4-7.7
			c1.2-5.5,2.5-11,3.9-16.5c2.8-11.1,5.8-22.1,8.9-33.1l0.1-0.3l0.2-0.7c1.7-5.4-0.1-10.7-4-11.9l-3.4-1
			C26.2,150.9,21.9,154.6,20.6,160.3z"/>
		<polygon class="st4" points="50.3,279.5 56.2,274.9 50.1,267 44.2,271.6 		"/>
		<polygon class="st7" points="43.5,272.2 50.8,266.5 45.5,259.6 38.1,265.2 		"/>
		<path class="st8" d="M58,151.3c-3-1.9-12.5-6.2-20.2,5.8c-0.2,0.3-0.3,0.7-0.2,1.1l4,21.4c0,0.6,0.6,1.1,1.2,1.1
			c0.4,0,0.8-0.3,0.9-0.6c2.3-4.2,7.3-11.3,14.5-13.2c0.2-0.1,0.4-0.1,0.6,0c7.2,1.9,12.2,9.1,14.5,13.2c0.3,0.6,1,0.8,1.5,0.5
			c0.4-0.2,0.6-0.5,0.6-0.9l4-21.4c0.1-0.4,0-0.8-0.2-1.1c-7.7-12.1-17.1-7.7-20.2-5.8C58.8,151.6,58.3,151.6,58,151.3z"/>
		<path class="st3" d="M58,150c-2.9-1.8-11.8-5.9-19.1,5.5c-0.2,0.3-0.2,0.7-0.2,1l3.8,20.2c0,0.6,0.6,1.1,1.2,1
			c0.4,0,0.7-0.2,0.9-0.6c2.2-3.9,6.9-10.7,13.7-12.5c0.2-0.1,0.4-0.1,0.5,0c6.8,1.8,11.5,8.5,13.7,12.5c0.3,0.5,1,0.7,1.5,0.3
			c0.3-0.2,0.5-0.5,0.5-0.8l3.8-20.2c0.1-0.3,0-0.7-0.2-1c-7.3-11.4-16.2-7.3-19.1-5.5C58.7,150.2,58.3,150.2,58,150z"/>
		<path class="st0" d="M59.4,96h0.2c6.2,0,11.2,5,11.2,11.2v43.9c0,6.2-5,11.2-11.2,11.2h-0.2c-6.2,0-11.2-5-11.2-11.2v-43.9
			C48.2,101,53.2,96,59.4,96z"/>
		<path class="st5" d="M70.9,144.3v-1.8H48.2v2.1C52.2,146.8,59.7,149.1,70.9,144.3z"/>
		<path class="st9" d="M96,89c-1.5,2.4-2.5,5.1-3.1,7.9c-0.3,1.8-0.2,4.7,0.6,5.2c0.4,0.2,1.1-0.1,1.5-0.4c2-1.2,3.3-3.9,3.3-7
			C98.3,92.2,97.5,90.1,96,89z"/>
		<path class="st9" d="M101.4,80.6c-3.2-0.6-8.2,3.4-8.2,3.4c-5.8,4.9-2.4,27.2,2.5,26.3s4.5-8,4.5-8c2.4-1.5,4.6-8,4.6-8
			C109,82.1,101.4,80.6,101.4,80.6z M103.8,88.3c-0.2,0.9-0.5,1.7-0.9,2.5l-1.6-0.7c0.3-0.7,0.6-1.4,0.8-2.2c0.2-0.7,0.1-1.4-0.1-2
			c-0.2-0.5-0.6-0.9-1.2-1c-0.4,0-0.8,0-1.2,0.2c-1.1,0.6-2,1.4-2.6,2.4c2,1.4,3.1,4.1,3,7.2c0,3.7-1.6,6.9-4.2,8.4
			c-0.6,0.4-1.3,0.7-2.1,0.7c-0.4,0-0.9-0.1-1.2-0.4c-2-1.4-1.5-6-1.4-6.9c0.7-4.2,4.3-11.8,7.8-13.1c0.7-0.3,1.4-0.4,2.1-0.3
			c1.1,0.2,2.1,1,2.5,2.1C103.9,86.2,104,87.2,103.8,88.3L103.8,88.3z"/>
		<path class="st5" d="M101.1,83.2c-0.7-0.1-1.5,0-2.1,0.3c-3.4,1.3-7,8.9-7.8,13.1c-0.1,0.9-0.7,5.6,1.4,6.9
			c0.4,0.2,0.8,0.4,1.2,0.4c0.7,0,1.5-0.3,2.1-0.7c2.5-1.5,4.1-4.8,4.2-8.4c0-3.1-1.1-5.8-3-7.2c0.6-1,1.5-1.9,2.6-2.4
			c0.4-0.2,0.8-0.3,1.2-0.2c0.5,0.1,1,0.5,1.2,1c0.2,0.6,0.3,1.3,0.1,2c-0.2,0.8-0.4,1.5-0.8,2.2l1.6,0.7c0.4-0.8,0.7-1.7,0.9-2.5
			c0.2-1,0.2-2-0.2-3C103.2,84.2,102.2,83.4,101.1,83.2z M98.3,94.8c0,3-1.3,5.8-3.3,7c-0.4,0.2-1.1,0.6-1.5,0.4
			c-0.8-0.5-0.8-3.4-0.6-5.2c0.6-2.8,1.6-5.4,3.1-7.9C97.5,90.1,98.3,92.2,98.3,94.8L98.3,94.8z"/>
		<path class="st9" d="M21,89c1.5,2.4,2.5,5.1,3.1,7.9c0.3,1.8,0.2,4.7-0.6,5.2c-0.4,0.2-1.1-0.1-1.4-0.4c-2-1.2-3.3-3.9-3.3-7
			C18.7,92.2,19.5,90.1,21,89z"/>
		<path class="st9" d="M12.2,94.2c0,0,2.1,6.5,4.6,8c0,0-0.5,7.1,4.5,8s8.3-21.5,2.6-26.3c0,0-5-3.9-8.2-3.4
			C15.6,80.6,8,82.1,12.2,94.2z M13.4,85.2c0.4-1.1,1.4-1.9,2.5-2.1c0.7-0.1,1.4,0,2.1,0.3c3.4,1.3,7.1,8.9,7.8,13.1
			c0.1,0.9,0.7,5.6-1.3,6.9c-0.4,0.2-0.8,0.4-1.2,0.4c-0.7,0-1.5-0.3-2.1-0.7c-2.5-1.5-4.1-4.8-4.2-8.4c0-3.1,1.1-5.8,3-7.2
			c-0.6-1-1.5-1.9-2.6-2.4c-0.4-0.2-0.8-0.3-1.2-0.2c-0.5,0.1-1,0.5-1.2,1c-0.2,0.6-0.3,1.3-0.1,2c0.2,0.8,0.4,1.5,0.8,2.2l-1.6,0.7
			c-0.4-0.8-0.7-1.7-0.9-2.5C13,87.2,13,86.2,13.4,85.2L13.4,85.2z"/>
		<path class="st5" d="M13.4,85.2c-0.4,1-0.5,2-0.2,3c0.2,0.9,0.5,1.7,0.9,2.5l1.6-0.7c-0.3-0.7-0.6-1.4-0.8-2.2
			c-0.2-0.7-0.1-1.4,0.1-2c0.2-0.5,0.6-0.9,1.2-1c0.4,0,0.8,0,1.2,0.2c1.1,0.6,2,1.4,2.6,2.4c-2,1.4-3.1,4.1-3,7.2
			c0,3.7,1.7,6.9,4.2,8.4c0.6,0.4,1.3,0.7,2.1,0.7c0.4,0,0.9-0.1,1.2-0.4c2-1.4,1.5-6,1.3-6.9c-0.7-4.2-4.3-11.8-7.8-13.1
			c-0.7-0.3-1.4-0.4-2.1-0.3C14.8,83.3,13.9,84.1,13.4,85.2z M21,89c1.5,2.4,2.5,5.1,3.1,7.9c0.3,1.8,0.2,4.7-0.6,5.2
			c-0.4,0.2-1.1-0.1-1.4-0.4c-2-1.2-3.3-3.9-3.3-7C18.7,92.2,19.5,90.1,21,89L21,89z"/>
		<path class="st0" d="M58.5,144.7L58.5,144.7c-17.2,0-36.8-15.4-36.8-32.7V54.8c0-17.2,14-31.2,31.2-31.2H64
			c17.2,0,31.2,14,31.2,31.2V112C95.2,129.2,75.7,144.7,58.5,144.7z"/>
		<path class="st10" d="M32.1,76.1c-0.3,0.1-0.6,0.1-0.7-0.2c-0.1-0.2-0.1-0.5,0.1-0.7c4-3.9,10.1-4.7,14.9-1.9
			c0.3,0.1,0.4,0.5,0.2,0.7c-0.1,0.2-0.3,0.3-0.6,0.3C41.4,73.6,36.5,74.2,32.1,76.1L32.1,76.1z"/>
		<path class="st10" d="M85.6,76.1c0.3,0.1,0.6,0,0.7-0.3c0.1-0.2,0-0.4-0.1-0.6c-4-3.9-10.1-4.7-14.9-1.9c-0.3,0.1-0.4,0.4-0.3,0.7
			s0.4,0.4,0.7,0.3l0,0C76.4,73.6,81.2,74.2,85.6,76.1L85.6,76.1z"/>
		
			<radialGradient id="SVGID_1_" cx="705.61" cy="60.98" r="18.01" gradientTransform="matrix(1 0 0 -1 0 462)" gradientUnits="userSpaceOnUse">
			<stop  offset="0" style="stop-color:#F0BFD9;stop-opacity:0.95"/>
			<stop  offset="4.000000e-02" style="stop-color:#EEBCD3;stop-opacity:0.88"/>
			<stop  offset="0.15" style="stop-color:#E9B3C2;stop-opacity:0.65"/>
			<stop  offset="0.27" style="stop-color:#E4ABB2;stop-opacity:0.45"/>
			<stop  offset="0.39" style="stop-color:#E1A4A6;stop-opacity:0.29"/>
			<stop  offset="0.51" style="stop-color:#DE9F9C;stop-opacity:0.16"/>
			<stop  offset="0.62" style="stop-color:#DC9C96;stop-opacity:7.000000e-02"/>
			<stop  offset="0.73" style="stop-color:#DA9A91;stop-opacity:2.000000e-02"/>
			<stop  offset="0.83" style="stop-color:#DA9990;stop-opacity:0"/>
			<stop  offset="1" style="stop-color:#DA9990;stop-opacity:0"/>
		</radialGradient>
		<ellipse class="st11" cx="80.3" cy="103" rx="18" ry="9"/>
		<path class="st5" d="M58.5,107.4l3.8-0.7c0.5,0,0.8-0.4,0.8-0.8c0-0.2-0.1-0.4-0.2-0.6l-3.8-3.8c-0.3-0.3-0.8-0.3-1.2,0l-3.8,3.8
			c-0.3,0.3-0.3,0.9,0,1.2c0.2,0.2,0.4,0.2,0.6,0.2L58.5,107.4z"/>
		<circle class="st12" cx="42.1" cy="85.9" r="4.4"/>
		<circle class="st12" cx="73.8" cy="85.9" r="4.4"/>
		<path class="st13" d="M110.7,59c-1.6,0-3.2-0.2-4.7-0.6c0-11-2.8-29.7-20.3-38.5c-5.6-2.8-27.2-9.1-41.1,0.8c0,0-0.6-3.9,0.7-4.9
			c-3.8,0.6-6.9,3.3-8,7c0,0-12.7-2.8-15.7,3c0,0,3.5-0.4,5.4,0.9C6.5,36.4,13.3,66.8,13.3,66.8c1.1,3.9,2.1,14.9,8.5,20.7l0.3-20.3
			c0,0,4.9-19.8,10.2-20.5c0.7,2.1,1.8,4,3.2,5.6c3.6,7.5,11.5,17.3,27.7,15.6c0,0-9-1.3-13.2-6.1c8.7,3.1,21.5,4.5,40.4,1.6
			c0,0,1.8-0.1,4.5-0.4c0.3,1,0.5,2,0.5,3c0,9.7-0.5,0.4,0,22.4c0,0,8.7-10.4,10.2-21.5c0,0,0.2-0.1,0.4-3.6
			c1.9-0.4,3.7-1.9,5.3-3.1c0.4-0.2,0.5-0.7,0.3-1C111.3,59.2,111,59,110.7,59z"/>
		<path class="st13" d="M98.5,21.1c0,11.6-16.7,13.8-27.7,13.8s-11.9-2.1-11.9-13.8S67.8,0,78.7,0S98.5,9.4,98.5,21.1z"/>
		<path class="st14" d="M60,17c6.8-4.4,14-5.9,20.5-3.5s10.9,8.4,13,16.2C85.2,20,72.6,15.2,60,17L60,17z"/>
		<path class="st5" d="M53.2,133.9c2.9,3.4,8,3.8,11.4,0.9c0.3-0.3,0.6-0.6,0.9-0.9C61.6,135.6,57.2,135.6,53.2,133.9z"/>
		<path class="st5" d="M41.1,116c-3.1,3.2-3.1,8.3,0,11.4c0.3,0.3,0.6,0.6,1,0.8C40.1,124.5,39.8,120.1,41.1,116z"/>
		<path class="st5" d="M77.7,116c3.1,3.2,3.1,8.3-0.1,11.4c-0.3,0.3-0.6,0.6-0.9,0.8C78.7,124.4,79.1,120,77.7,116L77.7,116z"/>
		<path class="st15" d="M58,124.5c-7.1,0-10.6-3.1-10.8-3.3l1.2-1.3l-0.6,0.6l0.6-0.6c0.1,0.1,7.3,6.4,22.4-0.2l0.7,1.6
			C67.3,123.3,62.7,124.4,58,124.5z"/>
		<path class="st0" d="M25.6,455.1c11.4-0.3,18.8-2.8,21.3-3.8v-0.1L46.6,435l-9.7,0.7c-0.2,3.9,0,11.1-14.9,13.7
			c-2.2,0.4-4.6,0.7-6.8,1.2c-0.4,0.1-0.7,0.2-1.1,0.3C13,453,14.3,455.4,25.6,455.1z"/>
		<path class="st16" d="M48.3,455.1C48.3,455.1,48.3,455.1,48.3,455.1c0.1-0.6-0.6-4.3-0.5-4.3s-0.3,0.2-0.9,0.4v-0.1v0.1
			c-2.5,1-9.8,3.5-21.3,3.8s-12.5-2-11.5-4.1c0.3-0.1,0.7-0.2,1.1-0.3l-1,0.1c-0.5,0.1-1,0.2-1.5,0.3c-1.2,0.3-2.6,0.5-3.9,0.8
			c-3.2,0.5-6.2,1.3-6.8,4.2c-0.8,3.5,3.8,5.1,6.4,5.1c11,0.1,18.1-0.7,29-1.7l0.7,1.7h9.5C47.6,459.1,48.5,457.1,48.3,455.1z"/>
		<path class="st0" d="M61.7,455.1c11.4-0.3,18.8-2.8,21.3-3.8v-0.1v-16l-9.6,0c-0.2,3.9-0.4,11.7-15.3,14.3
			c-2.2,0.4-4.6,0.7-6.8,1.2c-0.3,0.1-0.7,0.2-1,0.3C49.2,453,50.4,455.4,61.7,455.1z"/>
		<path class="st16" d="M84.4,455.1C84.4,455.1,84.4,455.1,84.4,455.1c0.1-0.6-0.6-4.3-0.5-4.3s-0.3,0.2-0.9,0.4v-0.1v0.1
			c-2.5,1-9.8,3.5-21.3,3.8s-12.5-2-11.5-4.1c0.3-0.1,0.7-0.2,1-0.3l-1,0.1c-0.5,0.1-1,0.2-1.5,0.3c-1.2,0.3-2.6,0.5-3.9,0.8
			c-3.2,0.5-6.2,1.3-6.8,4.2c-0.8,3.5,3.9,5.1,6.5,5.1c11,0.1,18.1-0.7,29-1.7l0.7,1.7h9.5C83.7,459.1,84.7,457.1,84.4,455.1z"/>
		<polygon class="st17" points="16.1,70.7 22.1,67.2 22.1,72.7 16.1,75.3 		"/>
		<polygon class="st18" points="17.5,75.8 22.1,73.1 22.1,76.2 17.5,78.3 		"/>
		<polygon class="st17" points="101.3,68.3 95.3,64.8 95.3,70.3 101.3,72.9 		"/>
		<polygon class="st18" points="99.9,73.4 95.3,70.7 95.3,73.8 99.9,75.9 		"/>
		<g class="st19">
			<path class="st20" d="M83.6,81.8c-0.5,0-1.1,0-1.6,0c-3.2-0.1-6.5,0.5-9.5,1.7c-2.2,0.7-4.6,2.2-7.6,1.8
				c-1.5-0.3-3.1-0.5-4.7-0.6c-1.5,0.1-3.1,0.3-4.6,0.6c-3,0.5-5.4-1-7.6-1.8c-3-1.2-6.2-1.7-9.5-1.7c-0.5,0-1.1,0-1.6,0
				c-2.2,0-8.9,0.5-21.7,5.1v3.3c1.1,0.5,1.8,1.6,1.8,2.7c0.8,9.2,2.1,12,3.2,14.1c0.3,0.6,0.6,1.1,0.9,1.6v-0.1
				c0.6,1,1.4,1.9,2.2,2.6c3,2.8,7.3,4.3,12.3,4.3c0.4,0,0.9,0,1.3,0c5.1-0.2,10.5-3.4,14.1-8.1c2-2.7,5-7.9,5-17.2c0,0,0.5-2,4.1-2
				s4.1,2,4.1,2c0,9.3,3,14.6,5,17.2c3.6,4.8,9,7.9,14.1,8.1c0.5,0,0.9,0,1.3,0c5,0,9.3-1.5,12.3-4.3c0.8-0.8,1.6-1.7,2.2-2.6v0.1
				c0.3-0.5,0.6-1,0.9-1.6c1.1-2.1,2.5-4.9,3.2-14.1c0-1.2,0.7-2.2,1.8-2.7V87C92.5,82.3,85.8,81.8,83.6,81.8z M36.9,113.6
				c-8.8,0.5-17-3.7-17.4-17.7c0,0,0-6.9,5.8-9.9c4.5-2.3,25.2-6,27.8,5.6S45.5,113.2,36.9,113.6z M83.7,113.6
				c-8.6-0.4-18.8-10.3-16.2-22s23.3-7.9,27.8-5.6c5.8,3,5.8,9.9,5.8,9.9C100.7,110,92.5,114.1,83.7,113.6z"/>
		</g>
		<path class="st20" d="M83.6,78.4c-0.5,0-1.1,0-1.6,0c-3.2-0.1-6.5,0.5-9.5,1.7c-2.2,0.7-4.6,2.2-7.6,1.8c-1.6-0.3-3.1-0.5-4.7-0.6
			c-1.5,0.1-3.1,0.3-4.6,0.6c-3,0.5-5.4-1-7.6-1.8c-3-1.2-6.2-1.7-9.5-1.7c-0.5,0-1.1,0-1.6,0c-2.2,0-8.9,0.5-21.7,5.1v3.3
			c1.1,0.5,1.8,1.6,1.8,2.7c0.8,9.2,2.1,12,3.2,14.1c0.3,0.5,0.6,1.1,0.9,1.6v-0.1c0.6,1,1.4,1.9,2.2,2.6c3,2.8,7.3,4.3,12.3,4.3
			c0.4,0,0.9,0,1.3,0c5.1-0.3,10.5-3.4,14.1-8.1c2-2.7,5-7.9,5-17.2c0,0,0.5-2,4.1-2s4.1,2,4.1,2c0,9.3,3,14.6,5,17.2
			c3.6,4.8,9,7.9,14.1,8.1h1.3c5,0,9.3-1.5,12.3-4.3c0.9-0.8,1.6-1.7,2.2-2.6v0.1c0.3-0.5,0.6-1,0.9-1.6c1.1-2.1,2.5-4.9,3.2-14.1
			c0-1.2,0.7-2.2,1.8-2.7v-3.3C92.5,78.9,85.8,78.5,83.6,78.4z M36.9,110.3c-8.8,0.4-17-3.7-17.4-17.7c0,0,0-6.9,5.8-9.9
			c4.5-2.3,25.2-6,27.8,5.6S45.5,109.8,36.9,110.3z M83.7,110.3c-8.6-0.4-18.8-10.3-16.2-22s23.3-7.9,27.8-5.6
			c5.8,3,5.8,9.9,5.8,9.9C100.7,106.6,92.5,110.7,83.7,110.3z"/>
		<g class="st19">
			<path class="st20" d="M83.6,81.8c-0.5,0-1.1,0-1.6,0c-3.2-0.1-6.5,0.5-9.5,1.7c-2.2,0.7-4.6,2.2-7.6,1.8
				c-1.5-0.3-3.1-0.5-4.7-0.6c-1.5,0.1-3.1,0.3-4.6,0.6c-3,0.5-5.4-1-7.6-1.8c-3-1.2-6.2-1.7-9.5-1.7c-0.5,0-1.1,0-1.6,0
				c-2.2,0-8.9,0.5-21.7,5.1v3.3c1.1,0.5,1.8,1.6,1.8,2.7c0.8,9.2,2.1,12,3.2,14.1c0.3,0.6,0.6,1.1,0.9,1.6v-0.1
				c0.6,1,1.4,1.9,2.2,2.6c3,2.8,7.3,4.3,12.3,4.3c0.4,0,0.9,0,1.3,0c5.1-0.2,10.5-3.4,14.1-8.1c2-2.7,5-7.9,5-17.2c0,0,0.5-2,4.1-2
				s4.1,2,4.1,2c0,9.3,3,14.6,5,17.2c3.6,4.8,9,7.9,14.1,8.1c0.5,0,0.9,0,1.3,0c5,0,9.3-1.5,12.3-4.3c0.8-0.8,1.6-1.7,2.2-2.6v0.1
				c0.3-0.5,0.6-1,0.9-1.6c1.1-2.1,2.5-4.9,3.2-14.1c0-1.2,0.7-2.2,1.8-2.7V87C92.5,82.3,85.8,81.8,83.6,81.8z M36.9,113.6
				c-8.8,0.5-17-3.7-17.4-17.7c0,0,0-6.9,5.8-9.9c4.5-2.3,25.2-6,27.8,5.6S45.5,113.2,36.9,113.6z M83.7,113.6
				c-8.6-0.4-18.8-10.3-16.2-22s23.3-7.9,27.8-5.6c5.8,3,5.8,9.9,5.8,9.9C100.7,110,92.5,114.1,83.7,113.6z"/>
		</g>
		<path class="st21" d="M83.6,78.4c-0.5,0-1.1,0-1.6,0c-3.2-0.1-6.5,0.5-9.5,1.7c-2.2,0.7-4.6,2.2-7.6,1.8c-1.6-0.3-3.1-0.5-4.7-0.6
			c-1.5,0.1-3.1,0.3-4.6,0.6c-3,0.5-5.4-1-7.6-1.8c-3-1.2-6.2-1.7-9.5-1.7c-0.5,0-1.1,0-1.6,0c-2.2,0-8.9,0.5-21.7,5.1v3.3
			c1.1,0.5,1.8,1.6,1.8,2.7c0.8,9.2,2.1,12,3.2,14.1c0.3,0.5,0.6,1.1,0.9,1.6v-0.1c0.6,1,1.4,1.9,2.2,2.6c3,2.8,7.3,4.3,12.3,4.3
			c0.4,0,0.9,0,1.3,0c5.1-0.3,10.5-3.4,14.1-8.1c2-2.7,5-7.9,5-17.2c0,0,0.5-2,4.1-2s4.1,2,4.1,2c0,9.3,3,14.6,5,17.2
			c3.6,4.8,9,7.9,14.1,8.1h1.3c5,0,9.3-1.5,12.3-4.3c0.9-0.8,1.6-1.7,2.2-2.6v0.1c0.3-0.5,0.6-1,0.9-1.6c1.1-2.1,2.5-4.9,3.2-14.1
			c0-1.2,0.7-2.2,1.8-2.7v-3.3C92.5,78.9,85.8,78.5,83.6,78.4z M36.9,110.3c-8.8,0.4-17-3.7-17.4-17.7c0,0,0-6.9,5.8-9.9
			c4.5-2.3,25.2-6,27.8,5.6S45.5,109.8,36.9,110.3z M83.7,110.3c-8.6-0.4-18.8-10.3-16.2-22s23.3-7.9,27.8-5.6
			c5.8,3,5.8,9.9,5.8,9.9C100.7,106.6,92.5,110.7,83.7,110.3z"/>
		<path class="st22" d="M105.5,62.3c-4.9,0.3-9.8,0.2-14.7-0.5c-4.9-0.7-9.7-1.9-14.3-3.5c-2.3-0.9-4.6-1.9-6.7-3
			c-2.2-1.1-4.3-2.4-6.3-3.9c-2-1.4-3.9-3-5.6-4.8c-1.7-1.7-3.3-3.6-4.7-5.6C56.3,44.7,60,48,64,50.7c4,2.7,8.4,4.9,12.9,6.5
			c4.6,1.7,9.3,2.9,14.1,3.7c2.4,0.4,4.8,0.7,7.2,0.9S103.1,62.3,105.5,62.3z"/>
		<path class="st22" d="M91.5,62.1c-4.9,0.3-9.8,0.2-14.7-0.5c-4.9-0.7-9.7-1.8-14.3-3.5c-2.3-0.9-4.6-1.9-6.8-3
			c-4.4-2.2-8.4-5.1-11.9-8.6c-1.7-1.7-3.3-3.6-4.7-5.6c3.1,3.8,6.7,7.1,10.7,9.8c4,2.7,8.4,4.9,12.9,6.5c4.6,1.7,9.3,2.9,14.1,3.7
			c2.4,0.4,4.8,0.7,7.2,0.9S89.1,62.1,91.5,62.1z"/>
	</g>
</g>
</svg>
