<?xml version="1.0" encoding="utf-8"?>
<!-- Generator: Adobe Illustrator 22.1.0, SVG Export Plug-In . SVG Version: 6.00 Build 0)  -->
<svg version="1.1" id="Layer_1" xmlns="http://www.w3.org/2000/svg" xmlns:xlink="http://www.w3.org/1999/xlink" x="0px" y="0px"
	 viewBox="0 0 268 478" style="enable-background:new 0 0 268 478;" xml:space="preserve">
<style type="text/css">
	.st0{fill:#F0D0B3;}
	.st1{fill:#734939;}
	.st2{fill:#005E88;}
	.st3{fill:#D0D2D3;}
	.st4{fill:#58595B;}
	.st5{fill:#EBC19C;}
	.st6{fill:none;stroke:#EBC19C;stroke-width:0.99;stroke-linecap:round;stroke-linejoin:round;}
	.st7{opacity:0.55;fill:#BBBDBF;enable-background:new    ;}
	.st8{fill:#F1F1F2;}
	.st9{fill:#DEB18A;}
	.st10{fill:#606161;}
	.st11{fill:url(#SVGID_1_);}
	.st12{fill:#B08774;}
	.st13{fill:#404041;}
	.st14{fill:#C3996B;}
	.st15{fill:#787986;}
</style>
<title>img_young_male</title>
<g>
	<g id="Layer_1_1_">
		<rect x="118.9" y="446.3" class="st0" width="9.2" height="10.2"/>
		<rect x="141" y="446.3" class="st0" width="9.2" height="10.2"/>
		<polygon class="st1" points="138.6,478 153.6,478 153.6,474.8 176.1,478 191.2,478 191.2,466.4 152.2,454.4 138.6,454.4 		"/>
		<polygon class="st1" points="130.4,478 115.5,478 115.5,474.8 92.9,478 77.8,478 77.8,466.4 116.8,454.4 130.4,454.4 		"/>
		<path class="st2" d="M108.5,283.4c2.2-3.8,8-7,12.9-7h27c4.9,0,10.7,3.1,12.9,7c2.2,3.8,2.2,10.6,0.1,14.9l-9.3,18.8
			c-2.6,4.7-7.5,7.7-12.8,8h-8.7c-5.4-0.3-10.2-3.3-12.8-8l-9.3-18.8C106.3,293.9,106.3,287.2,108.5,283.4z"/>
		<path class="st2" d="M125.1,278.4l1.6,74.1l2,96.8l-10.2,0.6l-8.8-96.4l-6.7-73.8l0,0c-1.1-12.4,3.3-22.9,9.8-23.3
			C119.3,256,124.8,265.9,125.1,278.4z"/>
		<path class="st2" d="M166.8,279.6l-6.8,73.8l-9,96.4l-10.2-0.6l2.2-96.8l1.7-74.1l0,0c0.3-12.5,5.9-22.4,12.3-22
			C163.6,256.7,168,267.2,166.8,279.6z"/>
		<path class="st0" d="M209.1,223.2L209.1,223.2c-0.2-0.1-0.4-0.3-0.6-0.4c-0.4-0.2-0.7-0.3-1.1-0.4c-0.2-0.1-0.5-0.1-0.7-0.1"/>
		<path class="st0" d="M196,209.7c-7.9-10.3-15-21.2-21.2-32.5c-3.1-5.5-8.4-8.6-12-6.7l-0.9,0.4c-3.6,1.9-3.8,8.3-0.3,14
			c7.2,11.7,15.2,22.9,24.1,33.3c4.6,5.5,9.9,10.5,15.7,14.7l0.3,0.2l0.2,0.1c0.3,0.2,0.6,0.4,0.9,0.5c0.5,0.3,1.1,0.5,1.7,0.6
			c0.2,0.1,0.5,0.1,0.8,0.1h0.6c1.1,0,2.2-0.1,3.2-0.4c1.2-0.4,2.3-0.9,3.4-1.5c1.7-0.9,3.3-2,4.8-3.1c2.9-2.1,5.6-4.3,8.2-6.5
			c5.2-4.3,10.2-8.8,15.1-13.3l3.2-3.7l-7.1-7.7l-3.3,3.3c-4.9,4.3-9.9,8.5-15,12.5c-2.6,2-5.2,3.9-7.8,5.5
			c-1.2,0.8-2.4,1.5-3.7,2.1L196,209.7z"/>
		<path class="st0" d="M242.8,194.4c-2.1,2-4.3,4-6.4,6l4.8,5.2c2.2-2,4.4-4,6.5-6.1L242.8,194.4z"/>
		<path class="st0" d="M58.9,226L58.9,226c0.2-0.1,0.4-0.3,0.6-0.4c0.4-0.2,0.7-0.3,1.1-0.4c0.2-0.1,0.5-0.1,0.7-0.1"/>
		<path class="st0" d="M72,212.5c7.9-10.3,15-21.2,21.2-32.5c3.1-5.5,8.4-8.6,12-6.7l0.9,0.4c3.6,1.9,3.8,8.3,0.3,14
			c-7.2,11.7-15.2,22.9-24.1,33.3c-4.6,5.5-9.9,10.5-15.7,14.7l-0.3,0.2l-0.2,0.1c-0.3,0.2-0.6,0.4-0.9,0.5
			c-0.5,0.3-1.1,0.5-1.7,0.6c-0.2,0.1-0.5,0.1-0.8,0.1h-0.6c-1.1,0-2.2-0.1-3.2-0.4c-1.2-0.4-2.3-0.9-3.4-1.5
			c-1.7-0.9-3.3-2-4.8-3.1c-2.9-2.1-5.6-4.3-8.2-6.5c-5.2-4.3-10.2-8.8-15.1-13.3l-3.2-3.7l7.1-7.7l3.4,3.3c4.9,4.3,9.9,8.5,15,12.5
			c2.6,2,5.2,3.9,7.8,5.5c1.2,0.8,2.4,1.5,3.7,2.1L72,212.5z"/>
		<path class="st0" d="M25.1,197.2c2.1,2,4.3,4,6.4,6l-4.8,5.2c-2.2-2-4.4-4-6.5-6.1L25.1,197.2z"/>
		<path class="st3" d="M135.5,164.3L135.5,164.3l-0.5-0.1h-0.5v0.1c-5.4,0.4-33.2-2.6-40.8,12.7c0,0,6.1,19.2,8.4,24.1l-5.6,87.7
			c0,0,29.5,9.6,38.4,8.8c8.9,0.7,39.3-9.5,39.3-9.5l-6.5-87c2.3-5,8.2-24.1,8.2-24.1C168.4,161.6,140.9,164.7,135.5,164.3z"/>
		<polygon class="st4" points="135.1,177.1 125.5,171.2 128.8,189.2 135.1,189.2 141.4,189.2 144.8,171.2 		"/>
		<path class="st3" d="M197.6,210.5c-7.9-10-16.1-23.3-22.5-34.7c-3.1-5.6-8.5-4.9-12.1-3l-0.9,0.4c-3.6,1.9-3.8,8.3-0.3,14
			c7.2,11.7,15.2,22.9,24.1,33.3c4.6,5.5,9.9,10.5,15.7,14.7l0.3,0.2l0.2,0.1c0.3,0.2,0.6,0.4,0.9,0.5c0.5,0.3,1.1,0.5,1.7,0.6
			c0.2,0.1,0.5,0.1,0.8,0.1h0.6c1.1,0,2.2-0.1,3.2-0.4c1.2-0.4,2.3-0.9,3.4-1.5c1.7-0.9,3.3-2,4.8-3.1c2.9-2.1,5.6-4.3,8.2-6.5
			c5.2-4.3,10.2-8.8,15.1-13.3l5.6-5.4l-9.5-10.2l-5.8,5c-4.9,4.3-9.9,8.5-15,12.5c-2.6,2-5.2,3.9-7.8,5.5c-1.3,0.8-0.5,0.5-1.6,1
			L197.6,210.5z"/>
		<path class="st0" d="M234,181.5c0.4-3.8,2.2-6.6,5.3-7.8c0.8-0.3,1.5-0.5,2.3-0.5c0.2-1.1,0.7-2.2,1.3-3.1c1.6-2,3.9-3.2,6.5-3.4
			c1.9-0.2,3.8,0.5,5.1,1.9c1.1,0.4,2.1,0.9,3.1,1.5c1,0.4,1.9,1,2.6,1.9s1.2,2,1.5,3.1l-0.4,0.3c1.9,0.4,3.4,1.8,4,3.6
			c0.4,1.1,0.6,2.3,0.4,3.5l-0.3,0.1c0.6,0.5,1.1,1.1,1.4,1.8c0.8,1.6,1.6,8.4-2.2,13.3l-0.3,0.4c-1.1,1.4-2.5,2.6-4,3.5
			c-7.6,3.8-17.1,0.1-21.5-7.1C236.3,191.4,233.5,186.1,234,181.5z"/>
		<path class="st5" d="M261.5,188c0.5,0.9,0.4,2.1-0.2,2.9c-0.3,0.5-0.7,0.8-1.3,0.9c-1.6,0.4-3.3-0.3-4-1.8c-0.4-1-0.6-2-0.4-3.1
			c0.1-1.1,0.5-2.1,1.1-2.9s1.4-1.5,2.4-2c1.9-1.1,4.2-1.1,6.1,0c0.9,0.6,1.6,1.5,2.1,2.5c0.3,1,0.6,2,0.6,3.1
			c0.2,2.1-0.1,4.2-0.7,6.1c-0.6,2-1.7,3.8-3.2,5.3c-1.5,1.4-3.3,2.4-5.3,3 M258.8,201.8c1.8-0.8,3.5-1.9,4.8-3.4s2.2-3.2,2.7-5.1
			c0.5-1.9,0.7-3.8,0.6-5.8c0-1-0.2-1.9-0.5-2.8c-0.3-0.9-0.9-1.6-1.7-2.1c-1.6-1-3.7-1.1-5.4-0.1c-0.9,0.4-1.6,1.1-2.2,1.8
			c-0.6,0.8-0.9,1.7-1.1,2.6c-0.2,1-0.1,1.9,0.3,2.8s1.2,1.5,2.1,1.8c0.9,0.3,2,0,2.6-0.8c0.6-0.8,0.7-1.9,0.3-2.8c0,0,0,0,0-0.1
			L258.8,201.8z"/>
		<path class="st6" d="M255.9,187.5c-1.3,0-2.6-0.5-3.7-1.4c-1.3-1.3-1.6-3.8,0.5-7.2c2.6-4.2,10.6-5.9,12.6,0
			c0.4,1.1,0.6,2.3,0.4,3.5"/>
		<path class="st6" d="M250.4,182.7c-3.7-0.6-3.4-2.9-2.8-5.9c0.6-2.9,3.2-5.3,5.6-6.6c2.6-1.4,7.1-0.7,8.5,4.7"/>
		<path class="st6" d="M246.2,179.2c-3.9,0.8-5-3.1-4.6-5.7c0.5-4,4-6.5,7.9-6.8c1.5-0.1,4.3,0.4,5.4,2.2"/>
		<path class="st0" d="M242.2,196.7c-2.6-0.3-8.8-8.6-8.2-15.3c0.5-4.9,3.4-8.3,8.6-8.4c5.2-0.1,8.1,5.5,2,8.3
			c1.7,2.9,2.6,6.6,2.2,9.1L242.2,196.7z"/>
		<path class="st5" d="M240.4,195.9c-1.5-1.3-2.9-2.9-3.9-4.7c-1.1-1.7-1.9-3.6-2.4-5.6c-0.2-1-0.4-2-0.4-3.1c0-1,0.1-2.1,0.4-3.1
			c0.4-2.1,1.6-3.9,3.3-5.2c1.8-1.2,3.9-1.8,6.1-1.6c1.1,0.1,2.2,0.5,3.1,1.1c0.9,0.6,1.6,1.6,1.9,2.7c0.2,1.1-0.1,2.3-0.8,3.2
			c-0.7,0.8-1.6,1.5-2.6,1.9c-1.9,1-4.1,1-6.1,0.1c0,0,0,0,0-0.1 M238.9,181.6L238.9,181.6c1.9,0.6,4,0.4,5.7-0.6
			c0.4-0.2,0.8-0.5,1.2-0.8c0.4-0.3,0.7-0.6,1-1c0.5-0.7,0.7-1.6,0.5-2.5s-0.8-1.6-1.5-2.1c-0.8-0.5-1.6-0.9-2.6-1
			c-1.9-0.2-3.9,0.3-5.5,1.3c-1.6,1.1-2.7,2.8-3.2,4.7c-0.3,1-0.4,1.9-0.4,2.9s0.1,2,0.4,2.9c0.5,2,1.2,3.8,2.2,5.6
			c1,1.8,2.2,3.4,3.7,4.8L238.9,181.6z"/>
		<path class="st6" d="M244.6,181.8c1.8,2.5,2.6,5.7,2.1,8.7"/>
		<path class="st0" d="M62.5,251.1L62.5,251.1c0.2-0.1,0.4-0.3,0.6-0.4c0.3-0.2,0.7-0.3,1.1-0.4c0.2,0,0.5-0.1,0.7-0.1"/>
		<path class="st7" d="M134.8,163.6c-3.1-1.9-12.6-6.3-20.4,5.9c-0.2,0.3-0.3,0.7-0.2,1.1l4,21.6c0.1,0.6,0.6,1.1,1.3,1.1
			c0.4,0,0.7-0.3,0.9-0.6c2.4-4.2,7.4-11.4,14.7-13.3c0.2,0,0.4,0,0.6,0c7.3,1.9,12.3,9.1,14.7,13.3c0.3,0.6,1,0.8,1.6,0.5
			c0.3-0.2,0.6-0.5,0.6-0.9l4-21.6c0.1-0.4,0-0.8-0.2-1.1c-7.8-12.2-17.3-7.8-20.4-5.9C135.6,163.8,135.2,163.8,134.8,163.6z"/>
		<path class="st3" d="M70.4,213.3c7.9-10,16.1-23.3,22.5-34.7c3.1-5.6,8.5-4.9,12.1-3l0.9,0.4c3.6,1.9,3.8,8.3,0.3,14
			C99,201.7,90.9,212.9,82,223.3c-4.6,5.5-9.9,10.5-15.6,14.7l-0.3,0.2l-0.2,0.1c-0.3,0.2-0.6,0.4-0.9,0.5c-0.5,0.3-1.1,0.5-1.7,0.6
			c-0.2,0.1-0.5,0.1-0.8,0.1h-0.6c-1.1,0-2.2-0.1-3.3-0.4c-1.2-0.4-2.3-0.9-3.4-1.5c-1.7-0.9-3.3-2-4.8-3.1
			c-2.9-2.1-5.6-4.3-8.2-6.5c-5.2-4.3-10.2-8.8-15.1-13.3l-5.7-5.3l9.6-10.2l5.8,5c4.9,4.3,9.9,8.5,15,12.5c2.6,2,5.2,3.9,7.8,5.5
			c1.3,0.8,0.5,0.5,1.6,1L70.4,213.3z"/>
		<path class="st8" d="M134.9,162.2c-2.9-1.8-11.9-5.9-19.2,5.6c-0.2,0.3-0.3,0.7-0.2,1l3.8,20.4c0,0.6,0.5,1.1,1.2,1
			c0.4,0,0.7-0.3,0.9-0.6c2.2-4,7-10.8,13.9-12.6c0.2,0,0.4,0,0.6,0c6.9,1.8,11.6,8.6,13.9,12.6c0.3,0.5,0.9,0.8,1.5,0.5
			c0.4-0.2,0.6-0.5,0.6-0.9l3.8-20.4c0.1-0.4,0-0.7-0.2-1c-7.3-11.5-16.3-7.3-19.2-5.6C135.6,162.5,135.2,162.5,134.9,162.2z"/>
		<path class="st0" d="M134.3,105.5h1.6c6.3,0,11.4,5.1,11.4,11.4v48.7c0,6.3-5.1,11.4-11.4,11.4h-1.6c-6.3,0-11.4-5.1-11.4-11.4
			v-48.7C122.9,110.6,128,105.5,134.3,105.5z"/>
		<path class="st0" d="M34,184.3c-0.4-3.8-2.2-6.6-5.3-7.8c-0.8-0.3-1.5-0.5-2.3-0.5c-0.2-1.1-0.7-2.2-1.3-3.1
			c-1.6-2-3.9-3.2-6.5-3.4c-1.9-0.2-3.8,0.5-5.1,1.9c-1.1,0.4-2.1,0.9-3.1,1.5c-1,0.4-1.9,1-2.6,1.9c-0.7,0.9-1.2,2-1.5,3.1l0.4,0.3
			c-1.9,0.4-3.4,1.8-4,3.6c-0.4,1.1-0.6,2.3-0.4,3.5l0.3,0.1c-0.6,0.5-1.1,1.1-1.4,1.8c-0.8,1.6-1.6,8.4,2.2,13.3
			c0.1,0.1,0.2,0.2,0.3,0.4c1.1,1.4,2.5,2.6,4,3.5c7.6,3.8,17,0.1,21.5-7.1C31.7,194.2,34.4,188.9,34,184.3z"/>
		<path class="st5" d="M6.5,190.8c-0.5,0.9-0.3,2,0.3,2.8c0.6,0.8,1.6,1.1,2.6,0.8c1-0.2,1.7-0.9,2.1-1.8c0.4-0.9,0.5-1.9,0.3-2.8
			c-0.1-1-0.5-1.9-1.1-2.6c-0.6-0.8-1.4-1.4-2.2-1.8c-1.7-1-3.7-0.9-5.4,0.1c-0.8,0.5-1.4,1.3-1.7,2.1c-0.3,0.9-0.4,1.9-0.5,2.8
			c-0.1,2,0.1,3.9,0.6,5.8c0.5,1.9,1.4,3.6,2.7,5.1c1.4,1.4,3,2.6,4.8,3.4 M9.2,204.7c-2-0.5-3.8-1.6-5.3-3
			c-1.5-1.5-2.6-3.3-3.2-5.3s-0.8-4.1-0.7-6.1c0.1-1.1,0.3-2.1,0.6-3.1c0.4-1,1.2-1.9,2.1-2.5c1.9-1.1,4.2-1.1,6.1,0
			c0.9,0.5,1.7,1.2,2.4,2c0.6,0.9,1,1.9,1.1,2.9c0.2,1,0,2.1-0.4,3.1c-0.5,1-1.4,1.7-2.4,1.9c-0.5,0.1-1,0.1-1.5,0s-1-0.4-1.3-0.9
			c-0.6-0.9-0.7-2-0.2-2.9L9.2,204.7z"/>
		<path class="st6" d="M12.1,190.3c1.3,0,2.6-0.5,3.7-1.3c1.3-1.3,1.6-3.8-0.5-7.2c-2.6-4.2-10.6-5.9-12.6,0
			c-0.4,1.1-0.6,2.3-0.4,3.5"/>
		<path class="st6" d="M17.5,185.5c3.7-0.6,3.4-2.9,2.8-5.8c-0.6-2.9-3.2-5.3-5.6-6.6c-2.6-1.4-7.1-0.7-8.5,4.7"/>
		<path class="st6" d="M21.8,181.9c3.9,0.8,5-3.1,4.6-5.7c-0.5-4-4-6.5-7.9-6.8c-1.5-0.1-4.3,0.4-5.4,2.2"/>
		<path class="st0" d="M25.8,199.5c2.6-0.3,8.8-8.6,8.2-15.3c-0.5-4.9-3.4-8.3-8.6-8.4c-5.2-0.1-8.1,5.5-2,8.3
			c-1.7,2.9-2.6,6.6-2.2,9.1L25.8,199.5z"/>
		<path class="st5" d="M27.5,198.6c1.5-1.4,2.7-3,3.7-4.8c1-1.7,1.7-3.6,2.2-5.6c0.2-1,0.3-1.9,0.4-2.9c0-1-0.2-2-0.4-2.9
			c-0.4-1.9-1.6-3.6-3.2-4.7c-1.6-1-3.6-1.5-5.5-1.3c-0.9,0.1-1.8,0.4-2.6,1c-0.8,0.5-1.3,1.2-1.5,2.1s0,1.8,0.5,2.5
			c0.3,0.4,0.6,0.7,1,1c0.4,0.3,0.8,0.6,1.2,0.8c1.7,1,3.8,1.2,5.7,0.6l0,0c0,0,0,0,0.1,0c0,0,0,0,0,0.1c-1.9,0.9-4.1,0.9-6-0.1
			c-1-0.4-1.9-1.1-2.6-1.9c-0.7-0.9-1-2.1-0.8-3.2c0.3-1.1,0.9-2.1,1.9-2.7c0.9-0.6,2-1,3.1-1.1c2.1-0.2,4.3,0.4,6.1,1.6
			c1.7,1.3,2.9,3.1,3.3,5.2c0.2,1,0.4,2,0.4,3.1c0,1-0.2,2.1-0.4,3.1c-0.5,2-1.3,3.9-2.4,5.6C30.5,195.8,29.1,197.3,27.5,198.6
			C27.6,198.7,27.5,198.7,27.5,198.6C27.5,198.7,27.5,198.6,27.5,198.6L27.5,198.6L27.5,198.6z"/>
		<path class="st6" d="M23.3,184.6c-1.8,2.5-2.6,5.7-2.1,8.7"/>
		<polygon class="st4" points="122.3,259.9 135.1,271.4 135.1,184.2 130.9,184.6 		"/>
		<polygon class="st4" points="139.3,184.6 135.1,184.2 135.1,271.4 147.9,259.9 		"/>
		<path class="st5" d="M147.4,158.3v-1.8h-24.5v2.1C127.3,160.7,135.3,163.1,147.4,158.3z"/>
		<path class="st5" d="M177.3,96.6c-1.7,2.7-2.8,5.7-3.5,8.8c-0.3,2-0.2,5.2,0.7,5.8c0.4,0.3,1.2-0.1,1.6-0.4
			c2.2-1.3,3.7-4.4,3.7-7.8C179.9,100.2,178.9,97.9,177.3,96.6z"/>
		<path class="st5" d="M183.3,87.2c-3.6-0.7-9.2,3.8-9.2,3.8c-6.5,5.4-2.7,30.4,2.9,29.4s5-8.9,5-8.9c2.7-1.7,5.1-9,5.1-9
			C191.8,88.8,183.3,87.2,183.3,87.2z M186,95.8c-0.2,1-0.6,1.9-1,2.8l-1.8-0.8c0.4-0.8,0.7-1.6,0.9-2.4c0.2-0.7,0.1-1.5-0.1-2.2
			c-0.2-0.6-0.7-1-1.3-1.2c-0.5,0-0.9,0.1-1.3,0.2c-1.2,0.6-2.2,1.6-2.9,2.7c2.2,1.6,3.4,4.6,3.4,8.1c-0.1,4.1-1.8,7.7-4.7,9.4
			c-0.7,0.5-1.5,0.7-2.3,0.8c-0.5,0-1-0.1-1.4-0.4c-2.3-1.5-1.7-6.7-1.5-7.7c0.8-4.8,4.9-13.2,8.7-14.7c0.7-0.3,1.6-0.4,2.4-0.4
			c1.3,0.2,2.3,1.1,2.8,2.3C186.1,93.5,186.2,94.7,186,95.8L186,95.8z"/>
		<path class="st9" d="M182.9,90.1c-0.8-0.1-1.6,0-2.4,0.4c-3.8,1.5-7.9,9.9-8.7,14.7c-0.1,1-0.8,6.2,1.5,7.7
			c0.4,0.3,0.9,0.4,1.4,0.4c0.8,0,1.6-0.3,2.3-0.8c2.8-1.7,4.6-5.3,4.7-9.4c0-3.5-1.2-6.5-3.4-8.1c0.7-1.2,1.7-2.1,2.9-2.7
			c0.4-0.2,0.9-0.3,1.3-0.2c0.6,0.2,1.1,0.6,1.3,1.2c0.3,0.7,0.3,1.5,0.1,2.2c-0.2,0.8-0.5,1.7-0.9,2.4l1.8,0.8
			c0.4-0.9,0.8-1.9,1-2.8c0.3-1.1,0.2-2.3-0.2-3.3C185.3,91.2,184.2,90.3,182.9,90.1z M179.8,103.1c0,3.4-1.5,6.4-3.7,7.8
			c-0.4,0.3-1.2,0.7-1.6,0.4c-0.9-0.6-1-3.8-0.7-5.8c0.6-3.1,1.8-6.1,3.5-8.8C178.9,97.9,179.9,100.2,179.8,103.1z"/>
		<path class="st5" d="M93.5,96.6c1.6,2.7,2.8,5.7,3.5,8.8c0.3,2,0.2,5.2-0.7,5.8c-0.4,0.3-1.2-0.1-1.6-0.4
			c-2.2-1.3-3.7-4.4-3.7-7.8C90.9,100.2,91.8,97.9,93.5,96.6z"/>
		<path class="st5" d="M83.7,102.4c0,0,2.4,7.3,5.1,9c0,0-0.5,8,5,8.9s9.3-24,2.8-29.4c0,0-5.6-4.4-9.2-3.8
			C87.5,87.2,79,88.8,83.7,102.4z M85,92.4c0.5-1.2,1.5-2.1,2.8-2.3c0.8-0.1,1.6,0,2.4,0.4c3.8,1.5,7.9,9.9,8.7,14.7
			c0.2,1,0.8,6.2-1.5,7.7c-0.4,0.3-0.9,0.4-1.4,0.4c-0.8,0-1.6-0.3-2.3-0.8c-2.8-1.7-4.6-5.3-4.7-9.4c0-3.5,1.2-6.5,3.4-8.1
			c-0.7-1.1-1.7-2.1-2.9-2.7c-0.4-0.2-0.9-0.3-1.3-0.2c-0.6,0.2-1.1,0.6-1.3,1.2c-0.3,0.7-0.3,1.5-0.1,2.2c0.2,0.8,0.5,1.7,0.9,2.4
			l-1.8,0.8c-0.4-0.9-0.7-1.9-1-2.8C84.5,94.7,84.6,93.5,85,92.4L85,92.4z"/>
		<path class="st9" d="M85,92.4c-0.4,1.1-0.5,2.2-0.3,3.3c0.2,1,0.6,1.9,1,2.8l1.8-0.8c-0.4-0.8-0.7-1.6-0.9-2.4
			c-0.2-0.7-0.1-1.5,0.1-2.2c0.2-0.6,0.7-1,1.3-1.2c0.5,0,0.9,0.1,1.3,0.2c1.2,0.6,2.2,1.6,2.9,2.7c-2.2,1.6-3.5,4.6-3.4,8.1
			c0.1,4.1,1.8,7.7,4.7,9.4c0.7,0.5,1.5,0.7,2.3,0.8c0.5,0,1-0.1,1.4-0.4c2.3-1.5,1.7-6.7,1.5-7.7c-0.8-4.8-4.8-13.2-8.7-14.7
			c-0.7-0.3-1.6-0.4-2.4-0.4C86.6,90.4,85.5,91.2,85,92.4z M93.5,96.6c1.6,2.7,2.8,5.7,3.5,8.8c0.3,2,0.2,5.2-0.7,5.8
			c-0.4,0.3-1.2-0.1-1.6-0.4c-2.2-1.3-3.7-4.4-3.7-7.8C90.9,100.2,91.8,97.9,93.5,96.6z"/>
		<path class="st0" d="M135.4,158.8L135.4,158.8c-19.2,0-41.1-17.3-41.1-36.5V58.4c0-19.2,15.6-34.8,34.8-34.8l0,0h12.5
			c19.2,0,34.8,15.6,34.8,34.8l0,0v63.8C176.4,141.5,154.6,158.8,135.4,158.8z"/>
		<path class="st5" d="M128.5,146.8c3.3,3.8,9,4.2,12.7,0.9c0.3-0.3,0.7-0.6,0.9-0.9C137.8,148.6,132.9,148.6,128.5,146.8z"/>
		<path class="st10" d="M169.6,77.6c0.5,0,1-0.4,1-0.9c0-0.3-0.1-0.5-0.3-0.7c-7.9-5.5-18.5-5.1-25.9,1c-0.3,0.4-0.3,1,0.1,1.4
			c0.2,0.2,0.5,0.3,0.8,0.2C153.3,76,161.7,75.6,169.6,77.6L169.6,77.6z"/>
		<path class="st10" d="M96.8,77.5c-0.5,0-1-0.4-1-0.9c0-0.3,0.1-0.5,0.3-0.7c7.9-5.5,18.5-4.9,25.9,1.3c0.3,0.4,0.3,1-0.1,1.4
			c-0.2,0.2-0.5,0.3-0.8,0.2C113.2,76,104.9,75.6,96.8,77.5L96.8,77.5z"/>
		
			<radialGradient id="SVGID_1_" cx="706.787" cy="193.4858" r="20.57" gradientTransform="matrix(0.9778 0 0 0.9778 2.7135 193.1668)" gradientUnits="userSpaceOnUse">
			<stop  offset="0" style="stop-color:#F0BFD9;stop-opacity:0.6"/>
			<stop  offset="0.24" style="stop-color:#E8B2C0;stop-opacity:0.39"/>
			<stop  offset="0.51" style="stop-color:#E1A4A6;stop-opacity:0.18"/>
			<stop  offset="0.72" style="stop-color:#DC9C96;stop-opacity:5.000000e-02"/>
			<stop  offset="0.83" style="stop-color:#DA9990;stop-opacity:0"/>
			<stop  offset="1" style="stop-color:#DA9990;stop-opacity:0"/>
		</radialGradient>
		<ellipse class="st11" cx="159.8" cy="109.3" rx="20.1" ry="10.1"/>
		<path class="st12" d="M135.4,117.1l4.3-0.7c0.5-0.1,0.9-0.5,0.9-1.1c0-0.2-0.1-0.3-0.2-0.5l-4.3-4.3c-0.4-0.4-0.9-0.4-1.3,0l0,0
			l-4.2,4.2c-0.3,0.4-0.3,1,0.2,1.4c0.1,0.1,0.3,0.2,0.5,0.2L135.4,117.1z"/>
		<circle class="st4" cx="114.2" cy="91.2" r="4.9"/>
		<circle class="st4" cx="155.7" cy="91.2" r="4.9"/>
		<path class="st13" d="M94.5,93.7c0,0-2.2-5-6.1-6.5V47.5c0,0-0.2-22,16-29.1c0,0-3-13.2,0.2-18.4c0,0,15.4,9.1,28.8,6.7l-3.9-6.5
			c0,0,24.5,1.7,28.4,10.8c0,0,9.8-4.5,16.8,1.1c0,0-5.5-0.2-6.7,4.8c0,0,14.2,8.3,14.2,32.1v39.3c0,0-4.9,2.2-5.9,5.4V72.3
			l-10.1-9.1c0,0,1-11.9-5.1-16.4c0,0-20.5,8.9-52.1-1.9c-3.7,5.1-5.6,11.4-5.5,17.7l-9.3,8.6L94.5,93.7z"/>
		<path class="st14" d="M133.9,129.6c-7.9,0-11.8-3.5-12-3.7l1.3-1.4l-0.7,0.7l0.7-0.7c0.1,0.1,8.1,7.2,25-0.2l0.8,1.8
			C144.3,128.3,139.1,129.5,133.9,129.6z"/>
		<path class="st15" d="M105.7,8.1c0.7,1.6,1.5,3.3,2.4,4.8c0.4,0.8,0.9,1.5,1.3,2.3s1,1.5,1.5,2.2c2,2.9,4.3,5.6,6.9,8
			c1.3,1.2,2.6,2.3,4.1,3.4c0.7,0.5,1.5,1,2.2,1.5c0.4,0.2,0.7,0.5,1.1,0.7l1.2,0.6c0.8,0.4,1.6,0.9,2.4,1.2l2.5,1
			c0.8,0.4,1.7,0.7,2.5,0.9c0.9,0.3,1.7,0.5,2.6,0.8c-3.6-0.5-7-1.6-10.3-3.2l-1.2-0.6c-0.4-0.2-0.8-0.5-1.2-0.7
			c-0.8-0.5-1.5-1-2.3-1.4c-1.5-1.1-2.9-2.2-4.2-3.4c-2.6-2.5-4.9-5.3-6.8-8.4C108.3,14.9,106.8,11.6,105.7,8.1z"/>
		<path class="st15" d="M109.5,17.1c0.7,1.6,1.5,3.2,2.3,4.8c0.4,0.8,0.9,1.5,1.3,2.3s1,1.5,1.5,2.2c2,2.9,4.3,5.6,6.9,8
			c1.3,1.2,2.6,2.3,4.1,3.4c0.7,0.5,1.5,1,2.2,1.5c0.4,0.2,0.7,0.5,1.1,0.7l1.2,0.6c0.8,0.4,1.5,0.9,2.4,1.2l2.5,1
			c0.8,0.4,1.7,0.7,2.5,0.9c0.9,0.2,1.7,0.5,2.6,0.8c-3.6-0.5-7-1.6-10.3-3.2l-1.2-0.6c-0.4-0.2-0.8-0.5-1.2-0.7
			c-0.8-0.5-1.6-1-2.3-1.4c-1.5-1.1-2.9-2.2-4.2-3.4c-2.6-2.5-4.9-5.3-6.8-8.4C112.1,23.8,110.6,20.6,109.5,17.1z"/>
	</g>
</g>
</svg>
