<?xml version="1.0" encoding="utf-8"?>
<!-- Generator: Adobe Illustrator 22.1.0, SVG Export Plug-In . SVG Version: 6.00 Build 0)  -->
<svg version="1.1" id="Layer_1" xmlns="http://www.w3.org/2000/svg" xmlns:xlink="http://www.w3.org/1999/xlink" x="0px" y="0px"
	 viewBox="0 0 182.3 478.9" style="enable-background:new 0 0 182.3 478.9;" xml:space="preserve">
<style type="text/css">
	.st0{fill:#F0D0B3;}
	.st1{fill:#404041;}
	.st2{fill:#929497;}
	.st3{fill:#E6E7E8;}
	.st4{fill:#58595B;}
	.st5{opacity:0.55;fill:#BBBDBF;enable-background:new    ;}
	.st6{fill:#F1F1F2;}
	.st7{fill:#EBC19C;}
	.st8{fill:#DEB18A;}
	.st9{fill:#F5E0CD;}
	.st10{fill:#C3996B;}
	.st11{fill:#FFFFFF;}
	.st12{fill:#606161;}
	.st13{fill:url(#SVGID_1_);}
	.st14{fill:#6D6E70;}
	.st15{opacity:0.4;}
	.st16{fill:#E9DDD5;}
	.st17{fill:#BBBDBF;}
	.st18{opacity:0.25;}
	.st19{fill:#757E84;}
</style>
<title>img_middle_45_60</title>
<g id="Layer_1_1_">
	<path class="st0" d="M14.2,213.1L14.2,213.1c0.1-0.2,0.3-0.4,0.4-0.6c0.2-0.4,0.3-0.7,0.4-1.1c0.1-0.3,0.1-0.5,0.1-0.8"/>
	<path class="st0" d="M28,199.8c10.5-8.1,21.6-15.4,33.1-21.7c5.7-3.2,8.7-8.6,6.8-12.2l-0.5-0.9c-2-3.7-8.5-3.9-14.2-0.3
		c-11.9,7.3-23.3,15.6-33.9,24.7c-5.6,4.7-10.6,10.2-15,16.1L4,205.7l-0.1,0.2c-0.2,0.3-0.4,0.6-0.5,0.9c-0.3,0.5-0.5,1.1-0.6,1.7
		c-0.1,0.3-0.1,0.5-0.1,0.8c0,0.2,0,0.4,0,0.6c0,1.1,0.1,2.2,0.4,3.3c0.4,1.2,0.9,2.4,1.5,3.5c1,1.7,2,3.3,3.2,4.9
		c2.1,3,4.4,5.7,6.6,8.4c4.4,5.3,9,10.4,13.6,15.4l3.8,3.3l7.9-7.3l-3.5-3.4c-4.4-5-8.7-10.1-12.8-15.3c-2-2.6-4-5.3-5.7-7.9
		c-0.8-1.2-1.5-2.5-2.2-3.8L28,199.8z"/>
	<path class="st0" d="M43.7,247.5c-2-2.1-4.1-4.3-6.1-6.5l-5.3,4.9c2.1,2.2,4.1,4.4,6.2,6.6L43.7,247.5z"/>
	<path class="st1" d="M27.2,201.4c10.2-8.1,23.7-16.5,35.3-23c5.7-3.2,5-8.7,3.1-12.4l-0.4-0.8c-2-3.7-8.5-3.9-14.2-0.3
		c-11.9,7.3-23.3,15.6-33.9,24.7c-5.6,4.7-10.6,10.1-15,16.1L1.7,206l-0.1,0.2c-0.2,0.3-0.4,0.6-0.5,0.9c-0.3,0.5-0.5,1.1-0.6,1.7
		c-0.1,0.3-0.1,0.5-0.1,0.8c0,0.2,0,0.4,0,0.6c0,1.1,0.1,2.2,0.4,3.3c0.4,1.2,0.9,2.4,1.5,3.5c0.9,1.7,2,3.4,3.2,4.9
		c2.1,3,4.4,5.7,6.6,8.4c4.4,5.3,9,10.4,13.6,15.4l5.5,5.7l10.3-9.8l-5.1-5.9c-4.4-5-8.7-10.1-12.8-15.3c-2-2.6-4-5.3-5.7-7.9
		c-0.8-1.3-0.5-0.5-1-1.7L27.2,201.4z"/>
	<path class="st0" d="M56.9,238.5c3.9,0.4,6.8,2.2,8,5.4c0.3,0.8,0.5,1.6,0.5,2.4c1.1,0.2,2.2,0.7,3.2,1.4c2,1.6,3.3,4,3.5,6.6
		c0.2,1.9-0.5,3.8-1.9,5.2c-0.4,1.1-0.9,2.2-1.5,3.2c-0.4,1-1,1.9-1.9,2.6s-2,1.2-3.2,1.5l-0.3-0.4c-0.4,1.9-1.8,3.5-3.7,4.1
		c-1.1,0.5-2.4,0.6-3.6,0.4l-0.1-0.2c-0.5,0.6-1.1,1.1-1.8,1.4c-1.6,0.8-8.6,1.6-13.6-2.2l-0.4-0.3c-1.4-1.1-2.7-2.5-3.5-4.1
		c-3.9-7.7-0.1-17.4,7.2-22C46.8,240.9,52.2,238,56.9,238.5z"/>
	<path class="st0" d="M41.4,246.9c0.3-2.7,8.8-9,15.6-8.4c5,0.5,8.5,3.4,8.6,8.7s-5.6,8.2-8.5,2.1c-2.9,1.7-6.7,2.7-9.3,2.3
		L41.4,246.9z"/>
	<path class="st0" d="M168.1,215.1L168.1,215.1c-0.1-0.2-0.3-0.4-0.4-0.6c-0.2-0.4-0.3-0.7-0.4-1.1c-0.1-0.3-0.1-0.5-0.1-0.8"/>
	<path class="st0" d="M154.4,201.7c-10.5-8.1-21.6-15.4-33.1-21.7c-5.7-3.2-8.7-8.6-6.8-12.2l0.5-0.9c2-3.7,8.5-3.9,14.2-0.3
		c11.9,7.3,23.3,15.6,33.9,24.7c5.6,4.7,10.6,10.1,15,16.1l0.2,0.3l0.1,0.2c0.2,0.3,0.4,0.6,0.5,0.9c0.3,0.5,0.5,1.1,0.6,1.7
		c0.1,0.3,0.1,0.5,0.1,0.8c0,0.2,0,0.4,0,0.6c0,1.1-0.1,2.2-0.4,3.3c-0.4,1.2-0.9,2.4-1.5,3.5c-1,1.7-2,3.3-3.2,4.9
		c-2.1,3-4.4,5.7-6.6,8.4c-4.4,5.3-9,10.4-13.6,15.4l-3.8,3.3l-7.9-7.3l3.4-3.4c4.4-5,8.7-10.1,12.8-15.3c2-2.6,4-5.3,5.7-7.9
		c0.8-1.2,1.5-2.5,2.2-3.8L154.4,201.7z"/>
	<path class="st0" d="M138.6,249.5c2-2.1,4.1-4.3,6.1-6.5l5.3,4.9c-2.1,2.2-4.1,4.4-6.2,6.6L138.6,249.5z"/>
	<path class="st1" d="M155.2,203.4c-10.2-8.1-23.7-16.5-35.3-23c-5.7-3.2-5-8.7-3.1-12.4l0.5-0.9c2-3.7,8.5-3.9,14.3-0.3
		c11.9,7.3,23.3,15.6,33.9,24.7c5.6,4.7,10.6,10.1,15,16.1l0.2,0.3l0.1,0.2c0.2,0.3,0.4,0.6,0.5,0.9c0.3,0.5,0.5,1.1,0.6,1.7
		c0,0.3,0.1,0.6,0.1,0.8s0,0.4,0,0.6c0,1.1-0.1,2.2-0.4,3.3c-0.4,1.2-0.9,2.4-1.5,3.5c-0.9,1.7-2,3.4-3.2,4.9
		c-2.1,3-4.4,5.7-6.6,8.4c-4.4,5.3-9,10.4-13.6,15.4l-5.5,5.7l-10.3-9.8l5.1-5.9c4.4-5,8.7-10.1,12.8-15.3c2-2.6,4-5.3,5.7-7.9
		c0.4-0.5,0.7-1.1,1-1.7L155.2,203.4z"/>
	<path class="st0" d="M125.5,240.4c-3.9,0.4-6.8,2.2-8,5.4c-0.3,0.8-0.5,1.6-0.5,2.4c-1.1,0.2-2.2,0.7-3.2,1.4c-2,1.6-3.3,4-3.5,6.6
		c-0.2,1.9,0.5,3.8,1.9,5.2c0.4,1.1,0.9,2.2,1.5,3.2c0.4,1,1,1.9,1.9,2.6s2,1.2,3.2,1.5l0.3-0.4c0.4,1.9,1.8,3.5,3.7,4.1
		c1.1,0.5,2.4,0.6,3.6,0.4l0.1-0.2c0.5,0.6,1.1,1.1,1.9,1.4c1.6,0.8,8.6,1.6,13.6-2.2l0.3-0.3c1.5-1.1,2.7-2.5,3.5-4.1
		c3.9-7.7,0.1-17.4-7.2-22C135.5,242.8,130.1,240,125.5,240.4z"/>
	<path class="st0" d="M140.9,248.8c-0.3-2.7-8.8-9-15.6-8.4c-5,0.5-8.5,3.4-8.6,8.7s5.6,8.2,8.5,2.1c2.9,1.7,6.7,2.7,9.3,2.3
		L140.9,248.8z"/>
	<rect x="74.3" y="446.1" class="st2" width="9.4" height="10.4"/>
	<rect x="96.9" y="446.1" class="st2" width="9.4" height="10.4"/>
	<polygon class="st1" points="94.5,478.5 109.7,478.5 109.7,475.2 132.7,478.5 148.2,478.5 148.2,466.6 108.3,454.3 94.5,454.3 	"/>
	<polygon class="st1" points="86.1,478.5 70.8,478.5 70.8,475.2 47.8,478.5 32.4,478.5 32.4,466.6 72.2,454.3 86.1,454.3 	"/>
	<path class="st1" d="M63.7,279.8c2.2-3.9,8.2-7.1,13.2-7.1h27.5c5,0,10.9,3.2,13.2,7.1s2.3,10.8,0.1,15.2l-9.5,19.2
		c-2.7,4.8-7.6,7.9-13.1,8.1h-8.9c-5.5-0.3-10.4-3.4-13.1-8.1L63.7,295C61.4,290.5,61.5,283.7,63.7,279.8z"/>
	<path class="st1" d="M80.7,274.7l1.6,75.6l2.1,98.8L74,449.7l-9-98.4L58.1,276l0,0c-1.2-12.7,3.3-23.4,10-23.8
		S80.4,261.9,80.7,274.7z"/>
	<path class="st1" d="M123.3,276l-7,75.3l-9.2,98.4L96.8,449l2.3-98.8l1.7-75.6l0,0c0.3-12.8,6-22.9,12.6-22.5
		S124.5,263.2,123.3,276z"/>
	<path class="st3" d="M91.3,158.2L91.3,158.2l-0.5-0.1h-0.5v0.1c-5.6,0.5-33.9-2.7-41.6,13c0,0,6.2,19.6,8.6,24.6l-5.7,89.6
		c0,0,30.1,9.8,39.2,9c9.1,0.8,40.1-9.7,40.1-9.7l-6.6-88.8c2.4-5.1,8.4-24.6,8.4-24.6C125,155.5,96.8,158.7,91.3,158.2z"/>
	<path class="st1" d="M71,161.8l2,134.7l-30.4-6.1l6.1-119.3c0,0,1.3-13.4,41.9-15C131.2,154.5,71,161.8,71,161.8z"/>
	<path class="st1" d="M110.5,161.8l-2,134.7l30.4-6.1l-6.1-119.3c0,0-1.3-13.4-41.9-15C50.3,154.5,110.5,161.8,110.5,161.8z"/>
	<polygon class="st4" points="90.9,171.3 81.1,165.3 84.5,183.6 90.9,183.6 97.3,183.6 100.8,165.3 	"/>
	<path class="st0" d="M16.8,246.8L16.8,246.8c0.2-0.1,0.4-0.3,0.6-0.4c0.4-0.2,0.7-0.3,1.1-0.4c0.3-0.1,0.5-0.1,0.8-0.1"/>
	<path class="st5" d="M90.6,157.5c-3.1-1.9-12.9-6.4-20.8,6c-0.2,0.3-0.3,0.7-0.2,1.1l4.1,22c0,0.7,0.6,1.1,1.3,1.1
		c0.4,0,0.8-0.3,1-0.6c2.4-4.3,7.5-11.7,15-13.6c0.2,0,0.4,0,0.6,0c7.5,1.9,12.6,9.3,15,13.6c0.3,0.6,1,0.8,1.6,0.5
		c0.4-0.2,0.6-0.6,0.6-1l4.1-22c0.1-0.4,0-0.8-0.2-1.1c-8-12.4-17.7-7.9-20.8-6C91.4,157.8,91,157.8,90.6,157.5z"/>
	<path class="st6" d="M90.6,156.1c-3-1.8-12.1-6.1-19.6,5.7c-0.2,0.3-0.3,0.7-0.2,1.1l3.9,20.8c0,0.6,0.6,1.1,1.2,1.1
		c0.4,0,0.8-0.3,0.9-0.6c2.3-4,7.1-11,14.1-12.9c0.2-0.1,0.4-0.1,0.6,0c7,1.8,11.9,8.8,14.2,12.9c0.3,0.5,1,0.8,1.5,0.5
		c0.3-0.2,0.6-0.5,0.6-0.9l3.9-20.8c0.1-0.4,0-0.7-0.2-1.1c-7.5-11.7-16.7-7.5-19.6-5.7C91.4,156.3,91,156.3,90.6,156.1z"/>
	<path class="st0" d="M90.1,98.2h1.6c6.4,0,11.7,5.2,11.7,11.7v49.7c0,6.4-5.2,11.7-11.7,11.7h-1.6c-6.4,0-11.7-5.2-11.7-11.7v-49.7
		C78.4,103.4,83.6,98.2,90.1,98.2z"/>
	<polygon class="st4" points="77.8,255.8 90.9,267.5 90.9,178.6 86.6,178.9 	"/>
	<polygon class="st4" points="95.1,178.9 90.9,178.6 90.9,267.5 103.9,255.8 	"/>
	<path class="st7" d="M103.4,152.1v-1.9h-25v2.2C82.9,154.6,91.1,157,103.4,152.1z"/>
	<path class="st0" d="M133.2,89.1c-1.7,2.8-2.9,5.8-3.5,9c-0.3,2.1-0.2,5.3,0.7,5.9c0.4,0.3,1.2-0.1,1.6-0.4c2.3-1.4,3.8-4.5,3.8-8
		C135.8,92.8,134.8,90.4,133.2,89.1z"/>
	<path class="st0" d="M139.3,79.5c-3.7-0.7-9.3,3.9-9.3,3.9c-6.6,5.5-2.7,31,2.9,30c5.6-1,5.1-9.1,5.1-9.1c2.8-1.7,5.2-9.2,5.2-9.2
		C148,81.2,139.3,79.5,139.3,79.5z M142,88.3c-0.2,1-0.6,2-1,2.9l-1.8-0.8c0.4-0.8,0.7-1.6,0.9-2.5c0.2-0.7,0.1-1.5-0.1-2.2
		c-0.2-0.6-0.7-1-1.3-1.2c-0.5,0-0.9,0-1.4,0.2c-1.2,0.6-2.3,1.6-3,2.8c2.2,1.6,3.5,4.7,3.5,8.3c0,4.2-1.9,7.9-4.8,9.6
		c-0.7,0.5-1.5,0.7-2.4,0.8c-0.5,0-1-0.1-1.4-0.4c-2.3-1.5-1.7-6.8-1.5-7.9c0.8-4.9,5-13.5,8.8-15c0.8-0.3,1.6-0.5,2.4-0.4
		c1.3,0.2,2.4,1.1,2.9,2.4C142.2,85.9,142.3,87.1,142,88.3L142,88.3z"/>
	<path class="st8" d="M138.9,82.5c-0.8-0.1-1.6,0-2.4,0.4c-3.9,1.5-8,10.1-8.8,15c-0.1,1-0.8,6.3,1.5,7.9c0.4,0.3,0.9,0.4,1.4,0.4
		c0.8,0,1.7-0.3,2.4-0.8c2.9-1.7,4.7-5.4,4.8-9.6c0-3.6-1.2-6.6-3.5-8.3c0.7-1.2,1.8-2.1,3-2.8c0.4-0.2,0.9-0.3,1.4-0.2
		c0.6,0.2,1.1,0.6,1.3,1.2c0.3,0.7,0.3,1.5,0.1,2.2c-0.2,0.9-0.5,1.7-0.9,2.5l1.8,0.8c0.4-0.9,0.8-1.9,1-2.9
		c0.3-1.1,0.2-2.3-0.2-3.4C141.3,83.6,140.2,82.7,138.9,82.5z M135.8,95.7c0,3.5-1.5,6.6-3.8,8c-0.4,0.3-1.2,0.7-1.6,0.4
		c-0.9-0.6-1-3.8-0.7-5.9c0.7-3.2,1.9-6.2,3.5-9C134.8,90.4,135.8,92.8,135.8,95.7L135.8,95.7z"/>
	<path class="st0" d="M47.6,89.1c1.7,2.8,2.9,5.8,3.5,9c0.3,2.1,0.2,5.3-0.7,5.9c-0.4,0.3-1.2-0.1-1.6-0.4c-2.3-1.4-3.7-4.5-3.8-8
		C45,92.8,45.9,90.4,47.6,89.1z"/>
	<path class="st0" d="M37.6,95.1c0,0,2.4,7.4,5.2,9.2c0,0-0.5,8.2,5.1,9.1s9.5-24.5,2.9-30c0,0-5.7-4.5-9.4-3.8
		C41.5,79.5,32.8,81.2,37.6,95.1z M39,84.8c0.5-1.2,1.6-2.1,2.9-2.4c0.8-0.1,1.6,0,2.4,0.4c3.9,1.5,8.1,10.1,8.8,15
		c0.2,1,0.8,6.3-1.5,7.9c-0.4,0.3-0.9,0.4-1.4,0.4c-0.8,0-1.7-0.3-2.4-0.8c-2.9-1.7-4.7-5.4-4.8-9.6c0-3.6,1.2-6.6,3.5-8.3
		c-0.7-1.2-1.8-2.1-3-2.8c-0.4-0.2-0.9-0.3-1.4-0.2c-0.6,0.2-1.1,0.6-1.3,1.2c-0.3,0.7-0.3,1.5-0.1,2.2c0.2,0.9,0.5,1.7,0.9,2.5
		l-1.8,0.8c-0.4-0.9-0.8-1.9-1-2.9C38.5,87.1,38.6,85.9,39,84.8z"/>
	<path class="st8" d="M39,84.8c-0.4,1.1-0.5,2.3-0.3,3.4c0.2,1,0.6,2,1,2.9l1.8-0.8c-0.4-0.8-0.7-1.6-0.9-2.5
		c-0.2-0.7-0.1-1.5,0.1-2.2c0.2-0.6,0.7-1,1.3-1.2c0.5,0,0.9,0.1,1.4,0.2c1.2,0.7,2.3,1.6,3,2.8c-2.2,1.6-3.5,4.7-3.5,8.3
		c0.1,4.2,1.9,7.9,4.8,9.6c0.7,0.5,1.5,0.7,2.4,0.8c0.5,0,1-0.1,1.4-0.4c2.3-1.5,1.7-6.8,1.5-7.9c-0.8-4.9-5-13.5-8.8-15
		c-0.8-0.3-1.6-0.5-2.4-0.4C40.6,82.7,39.5,83.6,39,84.8z M47.6,89.1c1.7,2.8,2.9,5.8,3.5,9c0.3,2.1,0.2,5.3-0.7,5.9
		c-0.4,0.3-1.2-0.1-1.6-0.4c-2.3-1.4-3.7-4.5-3.8-8C45,92.8,45.9,90.4,47.6,89.1L47.6,89.1z"/>
	<path class="st9" d="M90.4,152.6L90.4,152.6c-19.6,0-41.9-17.7-41.9-37.3V50.1c0-19.6,15.9-35.5,35.5-35.5l0,0h12.7
		c19.6,0,35.5,15.9,35.5,35.5v65.2C132.3,134.9,110,152.6,90.4,152.6z"/>
	<path class="st10" d="M75.6,121.9c1.2,8.4,7.3,14.9,14.7,14.9s13.6-6.4,14.8-14.9c-3.2,3.1-8.6,3.5-14.8,3.5S78.8,124.9,75.6,121.9
		z"/>
	<path class="st11" d="M104.7,123.3c0.4-1,0.6-2.1,0.8-3.1c0-0.2-0.1-0.3-0.3-0.4c-0.1,0-0.2,0-0.2,0.1c-3.4,2.7-8.7,3-14.6,3
		s-11.2-0.4-14.6-3c-0.1-0.1-0.3-0.1-0.4,0.1c-0.1,0.1-0.1,0.2-0.1,0.3c0.2,1.1,0.5,2.1,0.8,3.1c3.4,2.5,8.5,2.8,14.3,2.8
		S101.3,125.7,104.7,123.3z"/>
	<path class="st7" d="M83.4,140.3c3.3,3.9,9.1,4.3,13,1c0.4-0.3,0.7-0.6,1-1C92.9,142.2,87.8,142.2,83.4,140.3z"/>
	<path class="st12" d="M125.5,64.9c0.6,0,1-0.4,1-1c0-0.3-0.1-0.6-0.3-0.8C117.8,58,107,59.2,99.9,66c-0.3,0.5-0.2,1.1,0.2,1.4
		c0.2,0.2,0.5,0.2,0.8,0.2C108.6,64.4,117.2,63.4,125.5,64.9L125.5,64.9z"/>
	<path class="st12" d="M52.4,69.4c-0.5,0.2-1.1-0.1-1.3-0.6c-0.1-0.3-0.1-0.6,0-0.8c6-7.8,16.5-10.6,25.5-6.8
		c0.5,0.3,0.6,0.9,0.3,1.4c-0.2,0.2-0.4,0.4-0.7,0.4C67.9,62.8,59.6,65,52.4,69.4z"/>
	
		<radialGradient id="SVGID_1_" cx="707.4162" cy="210.8017" r="20.57" gradientTransform="matrix(0.998 0 0 0.998 6.490149e-02 180.3009)" gradientUnits="userSpaceOnUse">
		<stop  offset="0" style="stop-color:#F0BFD9;stop-opacity:0.95"/>
		<stop  offset="4.000000e-02" style="stop-color:#EEBCD3;stop-opacity:0.88"/>
		<stop  offset="0.15" style="stop-color:#E9B3C2;stop-opacity:0.65"/>
		<stop  offset="0.27" style="stop-color:#E4ABB2;stop-opacity:0.45"/>
		<stop  offset="0.39" style="stop-color:#E1A4A6;stop-opacity:0.29"/>
		<stop  offset="0.51" style="stop-color:#DE9F9C;stop-opacity:0.16"/>
		<stop  offset="0.62" style="stop-color:#DC9C96;stop-opacity:7.000000e-02"/>
		<stop  offset="0.73" style="stop-color:#DA9A91;stop-opacity:2.000000e-02"/>
		<stop  offset="0.83" style="stop-color:#DA9990;stop-opacity:0"/>
		<stop  offset="1" style="stop-color:#DA9990;stop-opacity:0"/>
	</radialGradient>
	<ellipse class="st13" cx="115.3" cy="105" rx="20.5" ry="10.3"/>
	<path class="st7" d="M90.4,110l4.3-0.8c0.5-0.1,0.9-0.6,0.9-1.1c0-0.2-0.1-0.4-0.2-0.5l-4.3-4.3c-0.4-0.3-1-0.3-1.3,0l-4.3,4.3
		c-0.3,0.4-0.3,1.1,0.2,1.4c0.1,0.1,0.3,0.2,0.5,0.2L90.4,110z"/>
	<circle class="st4" cx="68.8" cy="83.6" r="5"/>
	<circle class="st4" cx="111.1" cy="83.6" r="5"/>
	<path class="st14" d="M138.3,44.4c5.2-1.5,7.7-9.7,7.7-9.7c-3.5,2.1-8.1-0.2-8.1-0.2S124.6,9.3,95.6,2C77.5-2.6,68.1,4.1,63.5,9.7
		c-1.2,1-2.2,2.2-3.1,3.6c0,0-1.5-4.2-0.8-5.6c0,0-4.8,2-4.4,9.3c0,0-10.7-0.6-11.5,6.5c0,0,2.6-1.1,4.5-0.1c-1.7,2.8-3,5.8-3.7,9
		c-1.3,3.6-2,7.5-2,11.3v36.2c3.5,0.4,6.2,5.8,6.2,5.8V58.3c0-13.7,2.5-16.4,2.5-16.4c5.6-9.7,18.1-5.2,18.1-5.2
		c0.6-2.9,4.6-7.3,4.6-7.3c9.6-9.1,18.3,6.8,18.3,6.8c14.7,26.4,38.4,30.2,38.4,30.2l0.4,18c1.6-1.6,3.5-2.8,5.6-3.5V58.7
		c9.6-3.1,12.7-10.6,12.7-10.6C141.5,46.9,138.3,44.4,138.3,44.4z"/>
	<g class="st15">
		<path class="st16" d="M132.3,115.4V90c-0.7,6.4-3.5,22.4-16.2,35.3l-5.8-8.5c-5.6-7.8-12-7.2-15.3-5.1c-2,1.2-1,6.7,2.1,4.4
			c4.2-3.2,9.5,3.4,9.5,3.4c1.8,2,3.5,4.2,4.8,6.5c2.7,4.2-3.8,8.8-13.1,14.3l-3.5-3.3h-8.9l-3.5,3.3c-9.3-5.5-15.7-10.1-13.1-14.3
			c1.4-2.3,3-4.5,4.8-6.5c0,0,5.4-6.6,9.5-3.4c3,2.3,4-3.2,2.1-4.4c-3.4-2.1-9.7-2.6-15.3,5.1l-5.8,8.5C52,112.4,49.1,96.4,48.5,90
			v25.4c0,18.6,20,35.4,38.7,37.1c1.2,0,2.3,0,3.2,0c0.9,0,2,0,3.2,0C112.3,150.8,132.3,134,132.3,115.4z"/>
	</g>
	<path class="st1" d="M90.7,111.6c-21.7,0-17.4,15.1-17.4,15.1l2.6-5h29.6l2.6,5C108.2,126.7,112.4,111.6,90.7,111.6z"/>
	<polygon class="st17" points="42.6,68.7 48.8,65.8 48.8,70.3 42.6,72.5 	"/>
	<polygon class="st3" points="42.6,73.6 48.8,70.7 48.8,74 42.6,76.2 	"/>
	<polygon class="st17" points="136.7,69.5 130.8,66.6 130.8,71.1 136.7,73.2 	"/>
	<polygon class="st3" points="136.7,74.3 130.8,71.5 130.8,74.8 136.7,76.9 	"/>
	<g class="st18">
		<path class="st19" d="M114.8,72.5c-0.5,0-1.1,0-1.6,0c-3.2-0.1-6.4,0.5-9.4,1.6c-2.1,0.7-4.6,2.2-7.5,1.7
			c-1.5-0.3-3.1-0.5-4.6-0.6c-1.5,0.1-3,0.3-4.5,0.6c-3,0.5-5.4-1-7.5-1.7c-3-1.2-6.2-1.7-9.4-1.6c-0.5,0-1.1,0-1.6,0
			c-2.2,0-8.8,0.5-21.5,5.1v3.2c1.1,0.5,1.7,1.5,1.7,2.7c0.8,9.1,2.1,11.9,3.2,14c0.3,0.5,0.6,1.1,0.9,1.6V99c0.6,1,1.4,1.8,2.2,2.6
			c3,2.8,7.2,4.3,12.2,4.3c0.4,0,0.9,0,1.3,0c5-0.2,10.4-3.3,14-8c2-2.6,5-7.8,5-17.1c0,0,0.5-2,4-2s4.1,2,4.1,2
			c0,9.2,3,14.4,5,17.1c3.6,4.7,9,7.8,14,8c0.4,0,0.9,0,1.3,0c5,0,9.2-1.5,12.2-4.3c0.8-0.8,1.6-1.7,2.2-2.6v0.1
			c0.3-0.5,0.6-1,0.9-1.6c1.1-2.1,2.4-4.9,3.2-14c0-1.2,0.7-2.2,1.7-2.7v-3.2C123.6,73,117,72.5,114.8,72.5z M68.6,104
			c-8.7,0.4-16.8-3.6-17.3-17.5c0,0,0-6.8,5.8-9.8c4.4-2.3,25-6,27.5,5.5S77.1,103.6,68.6,104L68.6,104z M114.8,104
			c-8.5-0.4-18.6-10.2-16-21.7s23.1-7.8,27.5-5.5c5.8,3,5.8,9.8,5.8,9.8C131.7,100.4,123.6,104.4,114.8,104L114.8,104z"/>
	</g>
	<path class="st19" d="M114.8,69.2c-0.5,0-1.1,0-1.6,0c-3.2-0.1-6.4,0.5-9.4,1.6c-2.1,0.7-4.6,2.2-7.5,1.7c-1.5-0.3-3.1-0.5-4.6-0.6
		c-1.5,0.1-3,0.3-4.5,0.6c-3,0.5-5.4-1-7.5-1.7c-3-1.2-6.2-1.7-9.4-1.6c-0.5,0-1.1,0-1.6,0c-2.2,0-8.8,0.5-21.5,5.1v3.2
		c1.1,0.5,1.7,1.5,1.7,2.7c0.8,9.1,2.1,11.9,3.2,14c0.3,0.5,0.6,1.1,0.9,1.6v-0.1c0.6,1,1.4,1.8,2.2,2.6c3,2.8,7.2,4.3,12.2,4.3
		c0.4,0,0.9,0,1.3,0c5-0.2,10.4-3.3,14-8c2-2.6,5-7.8,5-17.1c0,0,0.5-2,4-2s4.1,2,4.1,2c0,9.2,3,14.4,5,17.1c3.6,4.7,9,7.8,14,8
		c0.4,0,0.9,0,1.3,0c5,0,9.2-1.5,12.2-4.3c0.8-0.8,1.6-1.7,2.2-2.6v0.1c0.3-0.5,0.6-1,0.9-1.6c1.1-2.1,2.4-4.9,3.2-14
		c0-1.2,0.7-2.2,1.7-2.7v-3.2C123.6,69.7,117,69.2,114.8,69.2z M68.6,100.7c-8.7,0.4-16.8-3.6-17.3-17.5c0,0,0-6.8,5.8-9.8
		c4.4-2.3,25-6,27.5,5.5S77.1,100.2,68.6,100.7z M114.8,100.7c-8.5-0.4-18.6-10.2-16-21.7s23.1-7.8,27.5-5.5c5.8,3,5.8,9.8,5.8,9.8
		C131.7,97,123.6,101.1,114.8,100.7z"/>
</g>
</svg>
