<?xml version="1.0" encoding="utf-8"?>
<!-- Generator: Adobe Illustrator 22.1.0, SVG Export Plug-In . SVG Version: 6.00 Build 0)  -->
<svg version="1.1" id="Layer_1" xmlns="http://www.w3.org/2000/svg" xmlns:xlink="http://www.w3.org/1999/xlink" x="0px" y="0px"
	 viewBox="0 0 251.1 471.8" style="enable-background:new 0 0 251.1 471.8;" xml:space="preserve">
<style type="text/css">
	.st0{fill:#4C5258;}
	.st1{fill:#787986;}
	.st2{fill:#6E7377;}
	.st3{fill:#E0E1DD;}
	.st4{fill:#CACBCD;}
	.st5{fill:#C8CAC7;}
	.st6{fill:#929497;}
	.st7{fill:#A4A6A4;}
	.st8{fill:#404041;}
	.st9{fill:#F0D0B3;}
	.st10{fill:#EBC19C;}
	.st11{fill:#E6E7E8;}
	.st12{fill:#58595B;}
	.st13{opacity:0.55;fill:#BBBDBF;enable-background:new    ;}
	.st14{fill:#F1F1F2;}
	.st15{fill:#C3996B;}
	.st16{fill:#FFFFFF;}
	.st17{fill:#BBBDBF;}
	.st18{fill:#DEB18A;}
	.st19{fill:#F5E0CD;}
	.st20{fill:#606161;}
	.st21{fill:#6D6E70;}
	.st22{opacity:0.4;}
	.st23{fill:#E9DDD5;}
	.st24{opacity:0.25;}
	.st25{fill:#757E84;}
	.st26{fill:#DFE0E0;}
</style>
<g>
	<g>
		<path class="st0" d="M168.2,392.3c-1.9-6.2,1.6-12.7,7.8-14.6s12.7,1.6,14.6,7.8c0.6,2,0.6,4.1,0.2,6c-5.7,0.3-18.3,0.9-22.3,1.7
			C168.4,392.8,168.3,392.5,168.2,392.3z"/>
		<path class="st1" d="M182.4,398.8c-5.4,1.6-11.1-1.2-13.1-6.4c3.7-0.7,15.2-1.3,20.4-1.5C188.9,394.6,186.2,397.7,182.4,398.8z"/>
	</g>
	<rect x="127.1" y="323" class="st0" width="16" height="99.1"/>
	<path class="st0" d="M204.2,429.5L72.1,418.1c-2.4-0.2-4.3-2.4-4-4.8l0,0c0.2-2.4,2.4-4.3,4.8-4L205,420.7c2.4,0.2,4.3,2.4,4,4.8
		l0,0C208.8,427.9,206.7,429.8,204.2,429.5z"/>
	<path class="st0" d="M181.2,386.3l-87.8,71.9c-1.9,1.6-4.7,1.3-6.3-0.6l0,0c-1.6-1.9-1.3-4.7,0.6-6.3l87.8-71.9
		c1.9-1.6,4.7-1.3,6.3,0.6l0,0C183.4,382,183.1,384.8,181.2,386.3z"/>
	<g>
		<polygon class="st2" points="60,331.5 62.3,331.4 62.2,330 		"/>
		<polygon class="st2" points="59.9,281 57.6,281.1 60,331.5 62.2,330 		"/>
		<polygon class="st0" points="71.9,280.5 69.6,280.6 71.6,323.3 62.2,330 62.3,331.4 73.9,323.2 		"/>
		<polygon class="st0" points="71.6,323.3 69.6,280.6 59.9,281 62.2,330 		"/>
	</g>
	<g>
		<polygon class="st3" points="221.8,306 86.4,298.4 118.9,124.6 229.9,128.3 		"/>
		<polygon class="st4" points="221.8,293.5 229.9,128.3 239.1,136.4 228.9,314.5 221.8,318.3 		"/>
	</g>
	<polygon class="st5" points="86.4,298.4 39.2,333.4 164.9,347.6 221.8,306 	"/>
	<polygon class="st6" points="221.8,318.3 166.6,357.9 164.9,347.6 221.8,306 	"/>
	<polygon class="st6" points="165,347.4 166.6,357.9 45.7,342.4 39.2,333.4 	"/>
	<g>
		<polygon class="st2" points="191.7,340.7 193.9,340.6 193.9,339.2 		"/>
		<polygon class="st2" points="191.6,290.2 189.3,290.4 191.7,340.7 193.9,339.2 		"/>
		<polygon class="st0" points="203.5,289.7 201.3,289.8 203.3,332.6 193.9,339.2 193.9,340.6 205.6,332.5 		"/>
		<polygon class="st0" points="203.3,332.6 201.3,289.8 191.6,290.2 193.9,339.2 		"/>
	</g>
	<g>
		<polygon class="st5" points="70.4,266.5 24.2,300.9 38.3,303.1 91.6,267.6 		"/>
		<polygon class="st5" points="70.6,262.4 24.4,296.7 38.4,298.9 91.7,263.4 		"/>
		<polygon class="st7" points="24.4,296.7 24.2,300.9 38.3,303.1 38.4,298.9 		"/>
		<polygon class="st7" points="91.7,263.4 91.6,267.6 38.3,303.1 38.4,298.9 		"/>
	</g>
	<g>
		<path class="st0" d="M81.6,420.9c0-6.5-5.2-11.7-11.7-11.7s-11.7,5.2-11.7,11.7c0,2.1,0.6,4.1,1.5,5.8c5.5-1.4,17.7-4.5,21.8-4.9
			C81.6,421.5,81.6,421.2,81.6,420.9z"/>
		<path class="st1" d="M69.9,431.3c5.6,0,10.2-4.4,10.6-9.9c-3.7,0.4-14.9,3.2-19.9,4.5C62.4,429.1,65.9,431.3,69.9,431.3z"/>
	</g>
	<g>
		<path class="st0" d="M190.5,431.9c0-6.5,5.2-11.7,11.7-11.7s11.7,5.2,11.7,11.7c0,2.1-0.6,4.1-1.5,5.8c-5.5-1.4-17.7-4.5-21.8-4.9
			C190.5,432.5,190.5,432.2,190.5,431.9z"/>
		<path class="st1" d="M202.2,442.4c-5.6,0-10.2-4.4-10.6-9.9c3.7,0.4,14.9,3.2,19.9,4.5C209.7,440.2,206.2,442.4,202.2,442.4z"/>
	</g>
	<g>
		<path class="st0" d="M81.6,462.5c-0.6-6.4,4.1-12.1,10.6-12.7c6.4-0.6,12.1,4.1,12.7,10.6c0.2,2.1-0.2,4.1-1,5.9
			c-5.7-0.9-18.1-2.8-22.2-2.9C81.7,463,81.7,462.7,81.6,462.5z"/>
		<path class="st1" d="M94.2,471.8c-5.6,0.5-10.6-3.4-11.5-8.9c3.8,0.1,15.1,1.8,20.3,2.6C101.5,468.9,98.2,471.4,94.2,471.8z"/>
	</g>
	<g>
		
			<rect x="41.4" y="425" transform="matrix(0.9993 -3.681884e-02 3.681884e-02 0.9993 -15.8079 1.9889)" class="st6" width="9.4" height="10.4"/>
		<g>
			<g>
				<g>
					<polygon class="st8" points="54.2,457.2 38.9,457.8 38.8,454.4 15.9,458.6 0.4,459.2 0,447.3 39.5,433.5 53.3,433 					"/>
				</g>
			</g>
		</g>
	</g>
	<g>
		<g>
			<g>
				<g>
					<path class="st9" d="M90.4,113.4C90.4,113.4,90.3,113.4,90.4,113.4c0.1,0.3,0.1,0.5,0.2,0.7c0.1,0.5,0.1,0.8,0.1,1.2
						c0,0.4-0.1,0.6-0.1,0.8"/>
					<path class="st9" d="M99.6,130.2c7.4,10.7,16.2,20.9,25.4,30.5c4.5,4.7,5.9,10.7,2.9,13.7l-0.7,0.7c-2.9,3-9.3,1.2-13.7-3.9
						c-9.1-10.5-17.8-21.5-25.4-33.6c-3.8-6.1-7.3-12.4-9.7-19.8l-0.1-0.3l-0.1-0.2c-0.1-0.3-0.2-0.7-0.2-1
						c-0.1-0.7-0.1-1.3-0.1-1.8c0-0.3,0.1-0.6,0.1-0.8c0-0.2,0.1-0.4,0.1-0.6c0.4-1.6,1-2.4,1.4-3c0.9-1.3,1.7-2.1,2.5-2.9
						c1.5-1.5,3-2.7,4.5-3.8c2.9-2.2,5.8-4.2,8.8-6.1c5.8-3.8,11.6-7.4,17.5-10.8l4.6-2.1l5.4,9.3l-4.3,2.3
						c-5.7,3.5-11.3,7.2-16.7,10.9c-2.7,1.9-5.4,3.9-7.8,5.9c-1.2,1-2.3,2-3.2,3L99.6,130.2z"/>
					<path class="st9" d="M128.6,89c-2.6,1.5-5.2,3-7.8,4.5l-3.7-6.3c2.6-1.5,5.2-3,7.9-4.6L128.6,89z"/>
				</g>
				<path class="st8" d="M99.3,128.4c7.4,10.7,17.9,22.7,27.1,32.4c4.5,4.7,2.3,9.8-0.7,12.8l-0.7,0.7c-2.9,3-9.3,1.2-13.7-3.9
					c-9.1-10.5-17.8-21.5-25.4-33.6c-3.8-6.1-7.3-12.4-9.7-19.8l-0.1-0.3l-0.1-0.2c-0.1-0.3-0.2-0.7-0.2-1c-0.1-0.7-0.1-1.3-0.1-1.8
					c0-0.3,0.1-0.6,0.1-0.8c0-0.2,0.1-0.4,0.1-0.6c0.4-1.6,1-2.4,1.4-3c0.9-1.3,1.7-2.1,2.5-2.9c1.5-1.5,3-2.7,4.5-3.8
					c2.9-2.2,5.8-4.2,8.8-6.1c5.8-3.8,11.6-7.4,17.5-10.8l6.9-3.9l7.1,12.4l-6.6,4.1c-5.7,3.5-11.3,7.2-16.7,10.9
					c-2.7,1.9-5.4,3.9-7.8,5.9c-1.2,1-0.6,0.4-1.5,1.3L99.3,128.4z"/>
			</g>
			<g>
				<path class="st9" d="M148.1,91.1c-5.4,5.4-14.1,5.5-19.6,0.1c-5.4-5.4-5.5-14.1-0.1-19.6c5.4-5.4,14.1-5.5,19.6-0.1
					C153.4,76.9,153.5,85.7,148.1,91.1z"/>
				<path class="st9" d="M143.7,94l15.9-6.6c2-0.8,2.9-3.1,2.1-5.1c-0.8-2-3.1-2.9-5.1-2.1l-15.9,6.6L143.7,94z"/>
				<path class="st9" d="M151.4,80.2l1.9-23.8c0.2-2.2-1.4-4-3.6-4.2c-2.2-0.2-4,1.4-4.2,3.6l-1.9,23.8L151.4,80.2z"/>
				<path class="st9" d="M144.6,76.6l1.9-23.9c0.2-2.2-1.4-4-3.6-4.2c-2.2-0.2-4,1.4-4.2,3.6L136.8,76L144.6,76.6z"/>
				<path class="st9" d="M138.5,79.7l1.9-23.8c0.2-2.2-1.4-4-3.6-4.2c-2.2-0.2-4,1.4-4.2,3.6l-1.9,23.8L138.5,79.7z"/>
				<path class="st9" d="M131.4,80.7l1.5-19.3c0.1-1.7-1.1-3.2-2.9-3.4c-1.7-0.1-3.2,1.1-3.4,2.9l-1.5,19.3L131.4,80.7z"/>
				<g>
					<path class="st10" d="M145,71c0.2-4.1,0.4-8.1,0.6-12.2c0.1-2,0.2-4.1,0.4-6.1c0.1-0.9-0.2-1.8-0.7-2.6s-1.4-1.3-2.4-1.5
						c0,0,0,0,0-0.1l0,0c1-0.1,2.1,0.4,2.9,1.2c0.8,0.8,1.2,1.9,1.2,3.1c-0.1,2-0.4,4.1-0.6,6.1C146,62.9,145.6,66.9,145,71
						C145.1,71,145.1,71,145,71L145,71z"/>
				</g>
				<g>
					<path class="st10" d="M139.2,70.4c0.1-3.5,0.3-6.9,0.5-10.4l0.1-2.6l0.1-1.3c0.1-0.5,0.1-0.8,0-1.2c-0.2-1.5-1.4-2.9-3.1-3.3
						c0,0,0,0,0-0.1l0,0c1.8-0.2,3.7,1.3,4,3.2c0.2,1,0,1.8-0.1,2.7l-0.3,2.6C140.1,63.5,139.7,66.9,139.2,70.4
						C139.3,70.4,139.3,70.4,139.2,70.4L139.2,70.4z"/>
				</g>
				<g>
					<path class="st10" d="M132,72.9c0.1-2.7,0.2-5.5,0.3-8.2l0.1-2l0.1-1c0-0.3,0-0.6,0-0.9c-0.1-1.2-1-2.2-2.3-2.6c0,0,0,0,0-0.1
						l0,0c1.4-0.2,3,0.9,3.3,2.5c0.1,0.4,0.1,0.8,0.1,1.2l-0.1,1l-0.3,2C132.8,67.4,132.4,70.2,132,72.9
						C132.1,72.9,132,72.9,132,72.9L132,72.9z"/>
				</g>
				<g>
					<path class="st10" d="M151.3,80.2c0.3-5,0.5-10,0.8-15c0.1-2.5,0.2-5,0.5-7.5c0.1-0.6,0.2-1.3,0.2-1.8c0-0.6-0.2-1.1-0.4-1.6
						c-0.5-1-1.5-1.8-2.8-2.1c0,0,0,0,0-0.1l0,0c0.6,0,1.3,0.1,1.9,0.4c0.6,0.3,1.1,0.8,1.5,1.4c0.4,0.6,0.6,1.2,0.7,1.9
						c0,0.7,0,1.3,0,1.9c-0.1,2.5-0.4,5-0.7,7.5C152.5,70.2,151.9,75.2,151.3,80.2C151.4,80.2,151.4,80.3,151.3,80.2
						C151.3,80.3,151.3,80.2,151.3,80.2z"/>
				</g>
				<g>
					<path class="st10" d="M138.4,86.8c0.3-0.4,0.5-0.9,0.8-1.3s0.6-0.8,0.9-1.2c0.7-0.8,1.5-1.3,2.5-1.8c0.9-0.4,2-0.8,3-0.7
						c1,0,2.1,0.3,2.9,0.9c0,0,0,0,0,0.1l0,0l0,0c-1-0.1-1.9-0.1-2.9,0c-0.9,0.1-1.8,0.1-2.7,0.5c-0.9,0.3-1.7,0.8-2.4,1.4
						c-0.4,0.3-0.7,0.7-1.1,1C139.1,86.1,138.8,86.5,138.4,86.8L138.4,86.8C138.4,86.9,138.4,86.9,138.4,86.8
						C138.4,86.9,138.4,86.9,138.4,86.8z"/>
				</g>
			</g>
		</g>
		<g>
			<g>
				<path class="st9" d="M236.9,133.6C236.9,133.6,236.9,133.5,236.9,133.6c-0.1,0.2-0.3,0.5-0.4,0.7c-0.2,0.5-0.3,0.8-0.3,1.1
					c-0.1,0.4-0.1,0.6-0.1,0.8"/>
				<path class="st9" d="M223.9,147.7c-9.8,8.6-20.7,16.4-32,23.5c-5.5,3.5-8.3,9-6.1,12.6l0.5,0.8c2.1,3.6,8.7,3.4,14.3-0.5
					c11.4-8,22.4-16.6,32.7-26.5c5.1-5,10-10.3,14.1-16.9l0.2-0.3l0.1-0.2c0.2-0.3,0.3-0.6,0.5-0.9c0.3-0.7,0.4-1.2,0.5-1.8
					c0-0.3,0.1-0.6,0.1-0.8s0-0.4,0-0.6c0-1.6-0.4-2.5-0.6-3.3c-0.6-1.5-1.1-2.5-1.7-3.4c-1.1-1.8-2.3-3.3-3.4-4.8
					c-2.3-2.9-4.7-5.5-7.1-8c-4.7-5.1-9.6-9.9-14.5-14.7l-4-3.1l-7.5,7.7l3.6,3.3c4.7,4.8,9.3,9.7,13.6,14.6
					c2.2,2.5,4.3,5.1,6.1,7.6c0.9,1.3,1.8,2.5,2.4,3.7L223.9,147.7z"/>
				<path class="st9" d="M205.6,100.7c2.2,2,4.3,4.1,6.5,6.2l5.1-5.2c-2.2-2.1-4.4-4.2-6.6-6.3L205.6,100.7z"/>
			</g>
			<path class="st8" d="M224.6,146c-9.8,8.6-22.8,17.8-34.1,24.9c-5.5,3.5-4.5,9-2.4,12.6l0.5,0.8c2.1,3.6,8.7,3.4,14.3-0.5
				c11.4-8,22.4-16.6,32.7-26.5c5.1-5,10-10.3,14.1-16.9l0.2-0.3l0.1-0.2c0.2-0.3,0.3-0.6,0.5-0.9c0.3-0.7,0.4-1.2,0.5-1.8
				c0-0.3,0.1-0.6,0.1-0.8s0-0.4,0-0.6c0-1.6-0.4-2.5-0.6-3.3c-0.6-1.5-1.1-2.5-1.7-3.4c-1.1-1.8-2.3-3.3-3.4-4.8
				c-2.3-2.9-4.7-5.5-7.1-8c-4.7-5.1-9.6-9.9-14.5-14.7l-5.8-5.4l-9.8,10.3l5.4,5.6c4.7,4.8,9.3,9.7,13.6,14.6
				c2.2,2.5,4.3,5.1,6.1,7.6c0.9,1.3,0.5,0.5,1.1,1.6L224.6,146z"/>
			<g>
				<g>
					<path class="st9" d="M192.9,110.5c-3.9-0.1-6.9-1.8-8.3-5c-0.3-0.7-0.5-1.5-0.7-2.3c-1.2-0.1-2.3-0.6-3.2-1.2
						c-2.1-1.4-3.5-3.8-3.9-6.4c-0.2-1.4,0.2-4,1.6-5.3c0.3-1.1,0.8-2.2,1.4-3.3c0.3-1,0.9-1.9,1.8-2.7c0.8-0.7,1.8-1.3,3.1-1.7
						L185,83c0.3-1.8,1.3-3.4,3.5-4.3s3.6-0.6,3.6-0.6l0.1,0.2c0.4-0.6,1-1.1,1.8-1.5c1.6-0.9,8.5-2.1,13.7,1.4
						c0.1,0.1,0.3,0.2,0.4,0.3c1.7,1.3,3.1,2.7,3.8,3.9c4.3,7.5,1.1,17.4-6,22.4C202.8,107.6,197.6,110.7,192.9,110.5z"/>
					<path class="st9" d="M207.9,101.3c-0.2,2.7-8.3,9.5-15.2,9.2c-5.1-0.2-8.7-3-9.1-8.3c-0.4-5.3,5.2-8.5,8.4-2.5
						c2.8-1.9,6.6-3.1,9.2-2.8L207.9,101.3z"/>
				</g>
			</g>
		</g>
		<path class="st8" d="M108.8,254.1c5.1-4,15.5-5.3,23-2.8l41.8,13.7c7.6,2.5,15.2,9.6,16.9,15.9s-9.4,33.7-14.6,38.5l-19.8,6.9
			c-5.3,4.8-10.5,1.9-18.1-0.6l-13.5-4.4c-7.6-2.5-14.9-10.2-16.4-17.2l-10.3-10C96.5,287.1,103.7,258.1,108.8,254.1z"/>
		<path class="st11" d="M157,158L157,158c0-0.1-0.2-0.1-0.5-0.1c-0.3-0.1-0.5-0.1-0.5-0.1v0.1c-5.6-0.2-33.4-6.6-42.9,8.1
			c0,0,3.9,20.2,5.7,25.5l-16,88.5c0,0,28.8,13.2,37.9,13.5c9,1.8,41.1-5,41.1-5l3.6-89.2c3-4.8,11.2-23.5,11.2-23.5
			C190.8,159.2,162.4,159.1,157,158z"/>
		<path class="st8" d="M136.4,159.3l-13.5,134.3l-29.5-9.5l19.8-118c0,0,2.8-13.2,43.5-10.1C197.2,158.9,136.4,159.3,136.4,159.3z"
			/>
		<path class="st8" d="M175.7,163.8l-17.5,133.9l30.9-2.5l7.7-119.4c0,0,0.3-13.4-40-19.8S175.7,163.8,175.7,163.8z"/>
		<polygon class="st12" points="155.1,171 146,163.9 147.3,182.5 153.7,183.3 160.1,184 165.6,166.2 		"/>
		<path class="st13" d="M156.4,157.3c-2.9-2.3-12.1-7.9-21.4,3.6c-0.2,0.3-0.4,0.7-0.3,1.1l1.5,22.4c0.1,1.2,1.5,1.7,2.2,0.7
			c2.9-4,8.8-10.8,16.5-11.8c0.2,0,0.4,0,0.6,0.1c7.2,2.8,11.4,10.7,13.3,15.3c0.5,1.1,1.9,1,2.3-0.2l6.6-21.5
			c0.1-0.4,0.1-0.8-0.1-1.1c-6.5-13.3-16.7-9.9-20-8.4C157.2,157.6,156.7,157.5,156.4,157.3z"/>
		<path class="st14" d="M156.6,155.9c-2.7-2.2-11.4-7.4-20.2,3.4c-0.2,0.3-0.3,0.7-0.3,1l1.4,21.2c0.1,1.2,1.4,1.6,2.1,0.7
			c2.7-3.8,8.3-10.2,15.6-11.2c0.2,0,0.4,0,0.6,0.1c6.8,2.6,10.8,10.1,12.6,14.4c0.4,1.1,1.8,0.9,2.2-0.2l6.2-20.3
			c0.1-0.4,0.1-0.7-0.1-1.1c-6.1-12.5-15.7-9.4-18.9-7.9C157.3,156.2,156.9,156.1,156.6,155.9z"/>
		<g>
			<polygon class="st12" points="132.3,253.6 144,266.8 154.2,178.2 149.9,178.1 			"/>
			<polygon class="st12" points="158.4,179.1 154.2,178.2 144,266.8 158.3,256.6 			"/>
		</g>
		<path class="st10" d="M169.7,153.3l0.2-1.8l-24.8-2.9l-0.3,2.2C149,153.5,156.9,156.8,169.7,153.3z"/>
		<g>
			<path class="st15" d="M145.6,120c0.2,8.5,5.6,15.6,13,16.5s14.2-4.8,16.4-13.1c-3.5,2.7-9,2.5-15.1,1.8
				C153.8,124.5,148.4,123.5,145.6,120z"/>
			<path class="st16" d="M174.3,124.8c0.5-1,0.9-2,1.2-3c0.1-0.3-0.2-0.5-0.5-0.4c-3.7,2.3-9,2-14.9,1.3S149,121.1,146,118
				c-0.2-0.2-0.6,0-0.5,0.2c0.1,1.1,0.2,2.2,0.5,3.2c3.1,2.8,8.2,3.8,13.9,4.4C165.5,126.6,170.7,126.8,174.3,124.8z"/>
		</g>
		<path class="st10" d="M151.2,139.3c1.6,2.2,3.9,3.7,6.6,4c2.7,0.3,5.3-0.6,7.3-2.4c-2.1,0.7-4.5,0.9-7.1,0.6
			C155.4,141.2,153,140.4,151.2,139.3z"/>
		<path class="st8" d="M161.8,111.6c-21.6-2.5-19.1,13-19.1,13l3.2-4.7l29.5,3.4l2,5.3C177.4,128.6,183.4,114.1,161.8,111.6z"/>
		<g>
			<polygon class="st17" points="118.8,63.3 125.3,61.2 124.8,65.6 118.4,67.1 			"/>
			<polygon class="st11" points="118.3,68.2 124.8,66 124.4,69.3 118,70.7 			"/>
		</g>
		<g>
			<path class="st9" d="M155.9,171l-1.6-0.2c-6.4-0.7-11-6.5-10.3-13l5.7-49.4c0.7-6.4,6.5-11,13-10.3l1.6,0.2
				c6.4,0.7,11,6.5,10.3,13l-5.7,49.4C168.1,167.1,162.3,171.7,155.9,171z"/>
			<g>
				<g>
					<path class="st9" d="M206.6,94.1c-2,2.6-3.8,6-4.6,8.5c-0.5,2-0.8,5.3,0,6c0.4,0.3,1.2,0,1.7-0.2c2.4-1.1,4.2-4,4.7-7.5
						C208.8,98.1,208.1,95.6,206.6,94.1z"/>
					<path class="st9" d="M213.8,85.2c-3.6-1.1-9.8,2.7-9.8,2.7c-7.2,4.8-6.3,30.5-0.6,30.2s6.1-8.5,6.1-8.5c3-1.4,6.2-8.5,6.2-8.5
						C222.3,87.9,213.8,85.2,213.8,85.2z M215.5,94.2c-0.3,1-0.8,1.9-1.3,2.8l-1.7-1c0.5-0.8,0.9-1.6,1.2-2.4
						c0.2-0.6,0.4-1.4,0.1-2.2c-0.2-0.6-0.7-1.2-1.2-1.3c-0.3-0.1-0.8-0.1-1.4,0.1c-1,0.3-2.1,1.2-3.3,2.4c2,1.9,3,5.1,2.5,8.6
						c-0.5,4.2-2.8,7.6-5.8,9c-0.9,0.4-1.7,0.6-2.4,0.5c-0.5-0.1-1-0.3-1.4-0.6c-2.1-1.8-0.9-7-0.6-8c1.4-4.7,6.5-12.8,10.5-13.9
						c0.6-0.2,1.5-0.3,2.4-0.1c1.2,0.3,2.2,1.4,2.6,2.7C216,91.9,215.9,93,215.5,94.2z"/>
					<path class="st18" d="M213.1,88.1c-0.9-0.3-1.8-0.1-2.4,0.1c-4.1,1.1-9.2,9.2-10.5,13.9c-0.3,1-1.5,6.2,0.6,8
						c0.4,0.3,0.8,0.5,1.4,0.6c0.7,0.1,1.5-0.1,2.4-0.5c3.1-1.4,5.3-4.9,5.8-9c0.5-3.6-0.5-6.7-2.5-8.6c1.2-1.3,2.3-2.2,3.3-2.4
						c0.6-0.2,1-0.2,1.4-0.1c0.5,0.1,1,0.7,1.2,1.3c0.2,0.8,0.1,1.7-0.1,2.2c-0.3,0.8-0.7,1.6-1.2,2.4l1.7,1c0.5-0.9,1-1.7,1.3-2.8
						c0.4-1.2,0.4-2.4,0.1-3.4C215.3,89.5,214.3,88.5,213.1,88.1z M208.4,100.9c-0.4,3.4-2.3,6.4-4.7,7.5c-0.5,0.2-1.3,0.5-1.7,0.2
						c-0.8-0.7-0.5-3.9,0-6c0.7-2.6,2.6-5.9,4.6-8.5C208.1,95.6,208.8,98.1,208.4,100.9z"/>
				</g>
				<g>
					<path class="st9" d="M121.4,84.3c1.3,3,2.4,6.7,2.5,9.3c0.1,2.1-0.4,5.3-1.4,5.8c-0.4,0.2-1.2-0.3-1.6-0.6
						c-2.1-1.6-3.2-4.9-2.9-8.3C118.4,87.6,119.6,85.3,121.4,84.3z"/>
					<path class="st9" d="M110.8,89c0,0,1.6,7.7,4.1,9.7c0,0-1.5,8.1,4,9.7s12.3-23.3,6.4-29.6c0,0-5.1-5.1-8.9-4.9
						C116.5,73.9,107.6,74.6,110.8,89z M113.4,79c0.7-1.2,1.9-2,3.1-2c1,0,1.8,0.3,2.4,0.6c3.7,2,6.8,11,7.1,15.9
						c0,1.1,0.1,6.4-2.5,7.7c-0.5,0.2-0.9,0.3-1.5,0.3c-0.7-0.1-1.5-0.4-2.3-1.1c-2.7-2.1-4-5.9-3.6-10.1c0.4-3.6,2-6.5,4.4-7.8
						c-0.8-1.5-1.7-2.6-2.6-3.1c-0.6-0.3-1-0.4-1.3-0.4c-0.5,0-1.1,0.4-1.5,1c-0.4,0.7-0.4,1.6-0.4,2.2c0.1,0.9,0.3,1.7,0.6,2.6
						l-1.9,0.6c-0.3-0.9-0.6-1.9-0.7-3C112.6,81.1,112.9,79.9,113.4,79z"/>
					<path class="st18" d="M113.4,79c-0.5,0.9-0.8,2.1-0.6,3.4c0.1,1.1,0.4,2,0.7,3l1.9-0.6c-0.3-0.9-0.5-1.7-0.6-2.6
						c-0.1-0.6,0-1.5,0.4-2.2c0.3-0.6,0.9-1,1.5-1c0.4,0,0.8,0.1,1.3,0.4c0.9,0.5,1.8,1.6,2.6,3.1c-2.4,1.4-4,4.2-4.4,7.8
						c-0.4,4.2,1,8.1,3.6,10.1c0.8,0.6,1.6,1,2.3,1.1c0.5,0.1,1,0,1.5-0.3c2.5-1.3,2.5-6.6,2.5-7.7c-0.2-4.9-3.4-14-7.1-15.9
						c-0.6-0.3-1.4-0.7-2.4-0.6C115.3,77,114.1,77.8,113.4,79z M121.4,84.3c1.3,3,2.4,6.7,2.5,9.3c0.1,2.1-0.4,5.3-1.4,5.8
						c-0.4,0.2-1.2-0.3-1.6-0.6c-2.1-1.6-3.2-4.9-2.9-8.3C118.4,87.6,119.6,85.3,121.4,84.3z"/>
				</g>
			</g>
			<path class="st19" d="M156.7,152.3L156.7,152.3c-19.5-2.3-39.7-22.4-37.4-41.9l7.5-64.9c2.3-19.5,19.9-33.5,39.5-31.3l12.6,1.5
				c19.5,2.3,33.5,19.9,31.3,39.5l-7.5,64.9C200.5,139.6,176.3,154.6,156.7,152.3z"/>
			<path class="st20" d="M201.8,69.1c1,0.3,1.7-1,0.9-1.7c-3.8-2.9-8.4-4.5-13.2-4.6c-4.9,0-9.4,1.6-13.3,4.4
				c-0.9,0.6-0.2,2,0.8,1.7c3.8-1.1,8-1.7,12.4-1.7C193.8,67.3,198,67.9,201.8,69.1z"/>
			<path class="st20" d="M128.5,65.1c-1,0.4-1.8-0.8-1.1-1.5c3.4-3.4,7.6-5.7,12.5-6.4c4.8-0.7,9.5,0.2,13.8,2.5
				c0.9,0.5,0.5,1.9-0.6,1.8c-3.9-0.6-8.1-0.6-12.5,0.1C136.1,62.2,132.1,63.4,128.5,65.1z"/>
			<path class="st10" d="M161.6,110l4.4-0.3c0.8,0.1,1.4-0.9,0.9-1.5l-3.8-4.8c-0.3-0.4-0.9-0.5-1.3-0.2L157,107
				c-0.7,0.5-0.4,1.6,0.5,1.7L161.6,110z"/>
			<circle class="st12" cx="143.2" cy="81.1" r="5"/>
			<circle class="st12" cx="185.3" cy="86" r="5"/>
			<path class="st21" d="M216.8,50.2c5.4-0.9,8.8-8.7,8.8-8.7c-3.7,1.7-8-1.1-8-1.1s-10.3-26.7-38.3-37.3c-17.5-6.6-27.7-1.1-32.9,4
				c-1.3,0.8-2.4,1.9-3.5,3.2c0,0-1-4.3-0.1-5.6c0,0-5,1.4-5.4,8.7c0,0-10.6-1.8-12.2,5.1c0,0,2.7-0.8,4.5,0.4c0,0-2.5,2.7-4.7,8.5
				c-2.9,5.9-3.3,11-3.3,11l-4.2,36C121,75.3,123,81,123,81s1.6-13.6,3.2-27.3c1.6-13.6,4.4-16,4.4-16c6.7-9,18.6-3.1,18.6-3.1
				c0.9-2.8,5.5-6.8,5.5-6.8c10.6-7.9,17.5,8.8,17.5,8.8c11.5,28,34.7,34.6,34.7,34.6l-1.7,17.9c2.2-2.1,6-2.8,6-2.8l2.6-22.1
				c10-2,13.9-9.1,13.9-9.1C219.8,53.1,216.8,50.2,216.8,50.2z"/>
			<g class="st22">
				<path class="st23" d="M202.7,120.1l2.9-25.3c-1.4,6.3-6.1,21.9-20.2,33.3l-4.8-9.1c-4.7-8.4-11.1-8.5-14.7-6.9
					c-2.1,1-1.7,6.6,1.6,4.6c4.5-2.7,9.1,4.5,9.1,4.5s1.8,2.2,4.1,7c2.2,4.5-4.8,8.3-14.7,12.8l-3.1-3.7l-1.1-0.1l-3.3-0.4l-3.3-0.4
					l-1.1-0.1l-3.9,2.9c-8.6-6.6-14.5-11.9-11.4-15.8c3.3-4.1,5.6-5.9,5.6-5.9s6.1-5.9,9.9-2.3c2.7,2.7,4.4-2.7,2.6-4.2
					c-3.1-2.4-9.4-3.7-15.8,3.3l-6.7,7.8c-11.1-14.3-12.1-30.6-12-37l-2.9,25.3c-2.1,18.5,15.8,37.5,34.3,41.4
					c1.2,0.2,2.3,0.3,3.2,0.4c0.9,0.1,2,0.3,3.2,0.4C178.8,153.1,200.6,138.6,202.7,120.1z"/>
			</g>
			<g>
				<polygon class="st17" points="212.4,75 206.9,71.4 206.4,75.9 212,78.7 				"/>
				<polygon class="st11" points="211.9,79.8 206.3,76.2 206,79.5 211.6,82.4 				"/>
			</g>
			<g>
				<g class="st24">
					<path class="st25" d="M190.2,75.4c-0.5-0.1-1.1-0.2-1.6-0.2c-3.7-0.4-6.9-0.2-9.5,0.6c-2.2,0.5-4.8,1.7-7.7,0.9
						c-2.7-0.8-3.6-1.1-4.6-1.2c-0.9-0.1-1.7,0-4.6,0.1c-3,0.1-5.2-1.6-7.3-2.6c-2.4-1.4-5.5-2.3-9.1-2.7c-0.5-0.1-1.1-0.1-1.6-0.2
						c-2.1-0.2-8.8-0.5-22,2.6l-0.4,3.2c0,0,1.5,0.7,1.4,2.9c-0.3,9.1,0.7,12.1,1.6,14.2c0.2,0.6,0.4,1.2,0.7,1.7v-0.1
						c0.5,1,1.2,2,1.9,2.9c2.7,3.1,6.7,5.1,11.6,5.7c0.4,0,0.9,0.1,1.3,0.1c5,0.3,10.7-2.1,14.8-6.4c2.3-2.4,5.9-7.2,6.9-16.4
						c0,0,0.7-1.9,4.2-1.5s3.8,2.5,3.8,2.5c-1.1,9.2,1.3,14.7,3,17.5c3,5.1,8,8.8,13,9.6c0.4,0.1,0.9,0.1,1.3,0.2
						c4.9,0.6,9.3-0.4,12.6-2.9c0.9-0.7,1.8-1.5,2.5-2.4v0.1c0.4-0.4,0.7-0.9,1.1-1.5c1.3-1.9,3-4.6,4.8-13.5c0.4-2.1,2-2.5,2-2.5
						l0.4-3.2C199,76.9,192.4,75.7,190.2,75.4z M140.6,101.4c-8.7-0.6-16.3-5.5-15.2-19.4c0,0,0.8-6.8,6.9-9.1
						c4.6-1.8,25.5-3.1,26.7,8.7C160.3,93.4,149.2,102,140.6,101.4z M186.7,106.8c-8.4-1.4-17.3-12.3-13.4-23.5
						c3.9-11.2,23.9-5.1,28-2.3c5.4,3.6,4.6,10.4,4.6,10.4C203.8,105.1,195.3,108.2,186.7,106.8z"/>
				</g>
				<g>
					<path class="st25" d="M190.6,72.1c-0.5-0.1-1.1-0.2-1.6-0.2c-3.7-0.4-6.9-0.2-9.5,0.6c-2.2,0.5-4.8,1.7-7.7,0.9
						c-2.7-0.8-3.6-1.1-4.6-1.2c-0.9-0.1-1.7,0-4.6,0.1c-3,0.1-5.2-1.6-7.3-2.6c-2.4-1.4-5.5-2.3-9.1-2.7c-0.5-0.1-1.1-0.1-1.6-0.2
						c-2.1-0.2-8.8-0.5-22,2.6l-0.4,3.2c0,0,1.5,0.7,1.4,2.9c-0.3,9.1,0.7,12.1,1.6,14.2c0.2,0.6,0.4,1.2,0.7,1.7v-0.1
						c0.5,1,1.2,2,1.9,2.9c2.7,3.1,6.7,5.1,11.6,5.7c0.4,0,0.9,0.1,1.3,0.1c5,0.3,10.7-2.1,14.8-6.4c2.3-2.4,5.9-7.2,6.9-16.4
						c0,0,0.7-1.9,4.2-1.5s3.8,2.5,3.8,2.5c-1.1,9.2,1.3,14.7,3,17.5c3,5.1,8,8.8,13,9.6c0.4,0.1,0.9,0.1,1.3,0.2
						c4.9,0.6,9.3-0.4,12.6-2.9c0.9-0.7,1.8-1.5,2.5-2.4v0.1c0.4-0.4,0.7-0.9,1.1-1.5c1.3-1.9,3-4.6,4.8-13.5c0.4-2.1,2-2.5,2-2.5
						l0.4-3.2C199.4,73.6,192.8,72.4,190.6,72.1z M141,98.1c-8.7-0.6-16.3-5.5-15.2-19.4c0,0,0.8-6.8,6.9-9.1
						c4.6-1.8,25.5-3.1,26.7,8.7C160.6,90.1,149.5,98.7,141,98.1z M187,103.5c-8.4-1.4-17.3-12.3-13.4-23.5
						c3.9-11.2,23.9-5.1,28-2.3c5.4,3.6,4.6,10.4,4.6,10.4C204.2,101.8,195.7,104.9,187,103.5z"/>
				</g>
			</g>
			<g>
				<g>
					<path class="st26" d="M163.9,16.6c1.6,1.6,3.2,3.2,4.9,4.7c1.7,1.5,3.4,2.9,5.2,4.3c3.6,2.7,7.3,5.2,11.3,7.2
						c4,2.1,8.2,3.7,12.5,4.8s8.9,1.5,13.4,1.3c-2.2,0.3-4.5,0.4-6.8,0.3c-2.3-0.1-4.5-0.4-6.8-0.8c-2.2-0.4-4.4-1.1-6.6-1.9
						c-2.1-0.8-4.2-1.7-6.3-2.7c-4-2.1-7.8-4.6-11.3-7.5C170,23.3,166.7,20.1,163.9,16.6z"/>
				</g>
				<g>
					<path class="st26" d="M172.9,26c1.6,1.6,3.2,3.2,4.9,4.7s3.4,2.9,5.2,4.3c3.6,2.7,7.3,5.2,11.3,7.2c4,2.1,8.2,3.7,12.5,4.8
						s8.9,1.5,13.4,1.3c-2.2,0.3-4.5,0.4-6.8,0.3c-2.3-0.1-4.5-0.4-6.8-0.8c-2.2-0.4-4.4-1.1-6.6-1.9c-2.1-0.8-4.2-1.7-6.3-2.7
						c-4-2.1-7.8-4.6-11.3-7.5C179,32.7,175.7,29.6,172.9,26z"/>
				</g>
			</g>
		</g>
	</g>
	<g>
		<path class="st8" d="M154.2,328.3c-13.6,1.2-27.1,2.4-40.4,4c-6.7,0.8-13.3,1.7-19.9,2.7s-13.1,2.2-19.1,3.9
			c-2,0.5-3.8,1.1-5.5,1.7l-1.6,0.7c-0.2,0.1-0.5,0.3-1,0.8c-0.8,0.9-1.8,2.3-2.7,3.9c-0.9,1.6-1.7,3.4-2.4,5.3
			c-1.5,3.7-2.7,7.7-3.8,11.9c-1.1,4.1-2,8.3-2.8,12.6c-1.6,8.5-2.6,17.2-3.3,25.8c-0.6,8.7-0.9,17.4-0.4,26l-10.1,0.9
			c-1.1-9.2-1.4-18.3-1.4-27.4c0.1-9.1,0.6-18.3,1.7-27.4c0.6-4.6,1.2-9.1,2.1-13.7c0.9-4.6,2-9.2,3.5-13.8
			c1.6-4.7,3.3-9.4,7.3-14.4c1-1.3,2.3-2.5,3.9-3.7c0.4-0.3,0.9-0.6,1.3-0.9l0.3-0.2l0.2-0.1l0.5-0.2c0.6-0.3,1.3-0.7,1.9-1
			c1.2-0.5,2.4-1.1,3.6-1.5l1.8-0.7l1.7-0.6c7-2.4,13.9-4,20.7-5.6c6.8-1.5,13.6-2.9,20.4-4.1c13.6-2.5,27.2-4.6,40.7-6.7l0,0
			c6.8-1,13.2-0.6,17.9,0.8s7.8,3.9,8.3,7.1s-2,6.5-6.3,9C167.1,325.8,161,327.7,154.2,328.3z"/>
	</g>
	<g>
		
			<rect x="80.2" y="366.1" transform="matrix(0.579 -0.8153 0.8153 0.579 -267.006 225.5142)" class="st6" width="9.4" height="10.4"/>
		<g>
			<g>
				<g>
					<polygon class="st8" points="111.1,381.3 102.2,393.8 99.5,391.9 88.9,412.6 79.9,425.2 70.2,418.3 83.3,378.6 91.4,367.3 
											"/>
				</g>
			</g>
		</g>
	</g>
	<g>
		<path class="st8" d="M112.2,311.4c-13.4,1-26.7,2-40,3.3c-6.6,0.7-13.2,1.4-19.7,2.3s-13,1.9-19.2,3.2l-3,0.7l-2.9,0.8
			c-0.9,0.3-1.9,0.5-2.7,0.8l-1.3,0.4l-1.1,0.5l-0.5,0.2c0,0-0.1,0,0,0c0,0,0.3-0.2,0.6-0.7c0.4-0.5,0.8-1.4,0.9-2.4s-0.1-1.7-0.2-2
			s-0.2-0.3-0.2-0.3c0,0.1,0.1,0.3,0.3,0.5c0.3,0.5,0.9,1.1,1.5,1.7c2.5,2.5,5.9,5.1,9.3,7.7c3.4,2.5,7,5,10.6,7.5
			c14.4,10,29.1,20.2,42.9,31.6l-6.4,8.3C67,365.4,52.2,356.4,37,347.3c-3.8-2.3-7.6-4.6-11.4-7c-3.8-2.5-7.6-4.9-11.6-8.4
			c-1-0.9-2-1.9-3.1-3.1c-1-1.3-2.2-2.7-3.2-5.4c-0.5-1.4-0.8-3.2-0.5-5.2c0.1-1,0.4-2,0.8-3c0.2-0.4,0.4-0.9,0.7-1.3
			c0.2-0.4,0.5-0.7,0.8-1.1c1-1.3,2.2-2.3,3.1-2.9c0.5-0.4,0.9-0.6,1.4-0.9l0.3-0.2l0.2-0.1l0.5-0.2l1.9-0.9l1.8-0.8
			c1.2-0.5,2.3-0.9,3.5-1.3l3.4-1.1l3.4-1c6.9-1.9,13.6-3.5,20.4-4.8c6.7-1.4,13.5-2.6,20.2-3.7c13.4-2.2,26.9-4.2,40.2-6l0,0
			c6.8-0.9,13-0.4,17.7,1.1c4.6,1.6,7.7,4.1,8.1,7.5c0.5,3.3-2,6.6-6.3,9.2C125,309.1,118.9,310.9,112.2,311.4z"/>
	</g>
	<g>
		<g>
			<path class="st15" d="M145.4,121.8c0.3,8.5,5.7,15.6,13.1,16.3c7.4,0.8,14.2-5,16.3-13.2c-3.5,2.7-8.9,2.6-15.1,1.9
				C153.6,126.2,148.2,125.2,145.4,121.8z"/>
			<path class="st16" d="M174.1,126.3c0.5-1,0.8-2,1.2-3c0.1-0.3-0.2-0.5-0.5-0.4c-3.6,2.3-8.9,2.1-14.9,1.5
				c-5.9-0.6-11.2-1.5-14.2-4.5c-0.2-0.2-0.6,0-0.5,0.3c0.1,1.1,0.3,2.2,0.5,3.2c3.1,2.8,8.2,3.7,13.9,4.3
				C165.4,128.1,170.5,128.3,174.1,126.3z"/>
		</g>
		<path class="st8" d="M161.5,113.2c-21.6-2.3-19,13.2-19,13.2l3.1-4.7l29.5,3.1l2.1,5.3C177.3,130.1,183.1,115.5,161.5,113.2z"/>
	</g>
	<path class="st10" d="M151,141c1.6,2.2,3.8,3.8,6.5,4.2s5.3-0.5,7.4-2.3c-2.1,0.6-4.6,0.8-7.1,0.5C155.2,143,152.9,142.1,151,141z"
		/>
	<g>
		<polygon class="st5" points="205.8,275.6 156.6,315.6 172.2,317.4 229,275.8 		"/>
		<polygon class="st5" points="205.8,271.1 156.6,311.1 172.2,312.8 229,271.2 		"/>
		<polygon class="st7" points="156.6,311.1 156.6,315.6 172.2,317.4 172.2,312.8 		"/>
		<polygon class="st7" points="229,271.2 229,275.8 172.2,317.4 172.2,312.8 		"/>
	</g>
</g>
</svg>
