<?xml version="1.0" encoding="utf-8"?>
<!-- Generator: Adobe Illustrator 22.1.0, SVG Export Plug-In . SVG Version: 6.00 Build 0)  -->
<svg version="1.1" id="Layer_1" xmlns="http://www.w3.org/2000/svg" xmlns:xlink="http://www.w3.org/1999/xlink" x="0px" y="0px"
	 viewBox="0 0 230.8 469.2" style="enable-background:new 0 0 230.8 469.2;" xml:space="preserve">
<style type="text/css">
	.st0{fill:#005E88;}
	.st1{fill:#F5E0CD;}
	.st2{fill:#EBC19C;}
	.st3{fill:#4C5258;}
	.st4{fill:#F1F1F2;}
	.st5{opacity:0.55;fill:#BBBDBF;enable-background:new    ;}
	.st6{fill:#58595B;}
	.st7{fill:#5A4A42;}
	.st8{fill:#F0D0B3;}
	.st9{fill:#606161;}
	.st10{fill:#C3996B;}
	.st11{fill:#E6E7E8;}
	.st12{opacity:0.25;}
	.st13{fill:#757E84;}
	.st14{fill:#A87C4F;}
</style>
<g>
	<g>
		<g>
			<g>
				<path class="st0" d="M174.5,165.5c-4.4-3.4-5.6-9-2.7-12.4l2.5-2.9c2.9-3.4,8.6-3.1,12.7,0.7l40.7,38l0.4,0.4
					c0.5,0.5,0.9,1.1,1.3,1.7c0.4,0.6,0.7,1.3,0.9,2s0.4,1.4,0.4,2c0.1,0.6,0.1,1.2,0,1.7c-0.2,2.1-0.8,3.4-1.3,4.5
					c-1.1,2.1-2.2,3.5-3.3,4.9c-2.2,2.6-4.5,4.7-6.8,6.7c-4.6,4-9.3,7.5-14,10.9c-9.5,6.8-19.1,13.1-29,19.2l-4.4-6.6
					c9.1-6.8,18.1-13.9,26.6-21.3c4.2-3.7,8.4-7.5,12.1-11.4c1.8-1.9,3.6-4,5-5.8c0.6-0.9,1.2-1.9,1.3-2.3v-0.1l0,0
					c-0.1,0,0.1,0,0.2,0.1l0.4,0.1c0.6,0.1,0.9,0.3,1.4,0.4l0.6,0.1c0.2,0,0.3,0.1,0.5,0.1c1.4,0.1,1.7-0.4,1.2,0.1l-2.8,3.6
					L174.5,165.5z"/>
			</g>
			<g>
				<path class="st1" d="M146.2,229.9c-0.1,2.1,1.5,4,3.6,4.2l4.8,0.3c-0.7,1.3-1.2,2.7-1.5,4.2l-10.9,18.1
					c-1.1,1.8-0.5,4.2,1.3,5.3c1.1,0.7,2.4,0.7,3.4,0.3l-0.4,0.6c-1.1,1.8-0.5,4.2,1.3,5.3c1.8,1.1,4.2,0.5,5.3-1.3l0.1-0.2
					c0.3,0.6,0.8,1.1,1.4,1.4c1.8,1.1,4.2,0.5,5.3-1.3l2.1-3.5c0.2,0.8,0.7,1.6,1.4,2.1c1.5,0.9,3.4,0.4,4.3-1.1l7.8-13
					c4.1-3.6,5.8-9.4,4-14.8c-2-6-7.9-9.7-13.9-9.3l-15.4-1.1C148.2,226.1,146.4,227.7,146.2,229.9z"/>
				<g>
					<path class="st2" d="M156,247.3c-2,3.5-4,7.1-6,10.6c-1,1.8-2,3.6-3,5.2c-0.5,0.7-0.7,1.7-0.5,2.6s0.7,1.8,1.4,2.4
						c0,0,0,0,0,0.1c0,0,0,0-0.1,0c-1-0.4-1.7-1.3-2.1-2.3c-0.4-1-0.2-2.3,0.3-3.3c1-1.8,2.1-3.4,3.2-5.2
						C151.5,254.1,153.7,250.7,156,247.3C155.9,247.3,156,247.3,156,247.3L156,247.3z"/>
				</g>
				<g>
					<path class="st2" d="M160.9,250.4c-1.6,3-3.3,6-5,9l-1.2,2.3l-0.6,1.1c-0.2,0.4-0.4,0.7-0.5,1c-0.5,1.4-0.1,3.2,1.3,4.3
						c0,0,0,0,0,0.1c0,0,0,0-0.1,0c-1.7-0.6-2.7-2.8-2.2-4.7c0.3-1,0.8-1.6,1.3-2.4l1.4-2.2C157.1,256.1,158.9,253.3,160.9,250.4
						C160.8,250.4,160.9,250.4,160.9,250.4L160.9,250.4z"/>
				</g>
				<g>
					<path class="st2" d="M168.4,251.4c-1.3,2.4-2.6,4.8-3.9,7.2l-1,1.8l-0.5,0.9c-0.2,0.3-0.3,0.5-0.4,0.8
						c-0.4,1.1-0.1,2.4,0.9,3.3v0.1c0,0,0,0-0.1,0c-1.4-0.5-2.3-2.2-1.8-3.7c0.1-0.4,0.3-0.8,0.5-1l0.5-0.9l1.1-1.7
						C165.3,255.9,166.8,253.6,168.4,251.4L168.4,251.4C168.4,251.4,168.5,251.4,168.4,251.4z"/>
				</g>
				<g>
					<path class="st2" d="M154.5,236.3c-2.4,4.3-4.9,8.7-7.4,13c-1.2,2.2-2.4,4.4-3.8,6.5c-0.3,0.5-0.7,1.1-1,1.5
						c-0.2,0.5-0.4,1.1-0.4,1.6c0,1.1,0.6,2.3,1.5,3.1c0,0,0,0,0,0.1c0,0,0,0-0.1,0c-0.6-0.3-1.1-0.7-1.5-1.2s-0.6-1.2-0.7-1.9
						c-0.1-0.7,0-1.4,0.3-2c0.3-0.7,0.6-1.1,0.9-1.7c1.2-2.2,2.6-4.2,3.9-6.3C149.1,244.7,151.7,240.5,154.5,236.3
						C154.4,236.2,154.5,236.2,154.5,236.3L154.5,236.3z"/>
				</g>
			</g>
		</g>
		<g>
			<path class="st1" d="M137.8,436.2c0,3.4-1.9,6.2-4.3,6.2h-1.1c-2.3,0.1-4.4-2.7-4.6-6l-10-195.8c-0.2-3.4,1.6-6.2,3.9-6.2
				l12.8-0.3c2.3-0.1,4.2,2.7,4.2,6L137.8,436.2z"/>
		</g>
		<g>
			<path class="st1" d="M174.8,436.4c-0.1,3.4-2.1,6.1-4.5,6.1h-1.1c-2.3,0-4.3-2.8-4.4-6.1l-4.6-196c-0.1-3.4,1.8-6.1,4.1-6.1
				l12.8,0.1c2.3,0,4.2,2.8,4.1,6.1L174.8,436.4z"/>
		</g>
		<path class="st3" d="M149.6,258.1c-7.9,0.7-31,10.6-38.6,8.2l5.3,86.1c0,0,29.7,16.8,68.2,0c0.9-7.7,5.3-87.1,5.3-87.1
			C182.9,267.7,157.8,258.7,149.6,258.1z"/>
		<g>
			<path class="st0" d="M190.5,267.5l-13.4-49.1l6.9-32.5c0.3-1.3,0.3-2.7-0.1-4.1l-8.1-32.1c0,0-11.1-2.6-26.3-1.9
				c-22.4-0.1-24.7,1.9-24.7,1.9l-7.8,31c-0.5,2.1-0.6,4.2-0.1,6.3l6.7,31.4l-13.4,49.1l0.7,0.9c6.1,1.9,22.2,7.3,32.4,9.1l5.2-15.5
				l4.3,15.8c10.2-1.1,30.8-8.4,37-10.4h0.7V267.5z"/>
		</g>
		<g>
			<path class="st0" d="M115.6,156.1c2.9-4.8,8.3-6.6,12-4.1l3.2,2.1c3.7,2.5,4.1,8.2,0.8,12.7l-33,44.9l-0.3,0.4
				c-0.5,0.5-1,1.1-1.5,1.5c-0.6,0.4-1.3,0.9-1.9,1.1c-0.6,0.3-1.3,0.5-1.9,0.6s-1.2,0.2-1.7,0.2c-2.1,0.1-3.5-0.4-4.6-0.8
				c-2.2-0.8-3.8-1.8-5.2-2.7c-2.8-1.9-5.2-3.9-7.4-6c-4.5-4.1-8.5-8.3-12.5-12.6c-7.9-8.6-15.2-17.5-22.4-26.6l6-5.1
				c7.8,8.2,15.9,16.3,24.2,23.9c4.2,3.8,8.4,7.5,12.7,10.7c2.1,1.6,4.4,3.1,6.4,4.2c1,0.5,2,1,2.5,1h0.1l0,0c0-0.1,0,0.1-0.1,0.2
				l-0.1,0.4c-0.1,0.6-0.2,1-0.2,1.4v0.7c0,0.2,0,0.3,0,0.5c0,1.4,0.6,1.6,0.1,1.2l-3.9-2.4L115.6,156.1z"/>
		</g>
		<polygon class="st3" points="89,456.5 83.9,459 83.9,469.2 113.1,469.2 131.9,459.5 131.9,469.2 140.8,469.2 140.8,447.6 
			116.3,456.5 		"/>
		<polygon class="st1" points="137,419.3 133.1,419.3 123.4,438.7 89,456.5 116.3,456.5 140.8,447.6 140.8,438.7 		"/>
		<polygon class="st3" points="126.1,456.5 121,459 121,469.2 150.2,469.2 169,459.5 169,469.2 177.9,469.2 177.9,447.6 
			153.4,456.5 		"/>
		<polygon class="st1" points="174.2,419.3 170.2,419.3 160.5,438.7 126.1,456.5 153.4,456.5 177.9,447.6 177.9,438.7 		"/>
		<polygon class="st4" points="129,152.6 150.3,212.9 169.9,152.6 		"/>
		<g>
			<path class="st5" d="M148.9,147.3c-3.1-1.9-12.9-6.4-20.8,6c-0.2,0.3-0.3,0.7-0.2,1.1l4.1,22.1c0.2,1.2,1.7,1.5,2.2,0.5
				c2.4-4.3,7.5-11.7,15-13.6c0.2-0.1,0.4-0.1,0.6,0c7.5,1.9,12.6,9.4,15,13.6c0.6,1.1,2,0.8,2.2-0.5l4.1-22.1
				c0.1-0.4,0-0.8-0.2-1.1c-8-12.5-17.7-8-20.8-6C149.7,147.5,149.3,147.5,148.9,147.3z"/>
			<path class="st4" d="M148.9,145.9c-3-1.8-12.2-6.1-19.7,5.7c-0.2,0.3-0.3,0.7-0.2,1.1l3.9,20.8c0.2,1.2,1.6,1.4,2.1,0.4
				c2.3-4.1,7.1-11.1,14.2-12.9c0.2,0,0.4,0,0.6,0c7.1,1.8,11.9,8.8,14.2,12.9c0.6,1,1.9,0.7,2.1-0.4l3.9-20.8
				c0.1-0.4,0-0.8-0.2-1.1c-7.5-11.8-16.7-7.5-19.7-5.7C149.7,146.1,149.3,146.1,148.9,145.9z"/>
		</g>
		<path class="st1" d="M150.5,158.7L150.5,158.7c-6.5,0-11.7-5.2-11.7-11.7v-45.2c0-6.5,5.2-11.7,11.7-11.7l0,0
			c6.5,0,11.7,5.2,11.7,11.7V147C162.2,153.5,157,158.7,150.5,158.7z"/>
		<path class="st2" d="M162.2,140.1v-1.9h-23.4v2.2C143,142.6,150.7,145,162.2,140.1z"/>
		<circle class="st6" cx="149.5" cy="173.2" r="2.7"/>
		<circle class="st6" cx="149.5" cy="183.2" r="2.7"/>
	</g>
	<g>
		<path class="st1" d="M43,149.2c4.9,5.9,4.1,14.6-1.8,19.5s-14.6,4.1-19.5-1.8c-4.9-5.9-4.1-14.6,1.8-19.5
			C29.4,142.6,38.1,143.4,43,149.2z"/>
		<path class="st1" d="M45.4,153.9l-5-16.4c-0.6-2.1-2.8-3.2-4.9-2.6c-2.1,0.6-3.2,2.8-2.6,4.9l5,16.4L45.4,153.9z"/>
		<path class="st1" d="M32.4,145l-23.6-4.2c-2.1-0.4-4.2,1-4.5,3.2c-0.4,2.1,1,4.2,3.2,4.5l23.6,4.2L32.4,145z"/>
		<path class="st1" d="M28.2,151.3l-23.6-4.2c-2.1-0.4-4.2,1-4.5,3.2c-0.4,2.1,1,4.2,3.2,4.5l23.5,4.2L28.2,151.3z"/>
		<path class="st1" d="M30.6,157.7L7,153.5c-2.1-0.4-4.2,1-4.5,3.2c-0.4,2.1,1,4.2,3.2,4.5l23.6,4.2L30.6,157.7z"/>
		<path class="st1" d="M31,164.9l-19-3.4c-1.7-0.3-3.3,0.8-3.6,2.5s0.8,3.3,2.5,3.6L30,171L31,164.9z"/>
		<g>
			<path class="st2" d="M22.6,150.4c-4-0.6-8.1-1.2-12.1-1.8c-2-0.3-4-0.6-6-1c-0.9-0.2-1.8,0-2.6,0.4c-0.8,0.5-1.4,1.3-1.8,2.2
				c0,0,0,0-0.1,0l0,0c0-1,0.6-2.1,1.5-2.8s2.1-1,3.2-0.9c2,0.3,4,0.8,6,1.2C14.6,148.6,18.6,149.4,22.6,150.4
				C22.6,150.3,22.7,150.3,22.6,150.4L22.6,150.4z"/>
		</g>
		<g>
			<path class="st2" d="M21.4,156.1c-3.4-0.5-6.8-1-10.3-1.5l-2.6-0.4L7.2,154c-0.4-0.1-0.8-0.1-1.2-0.1c-1.5,0-3,1.1-3.6,2.7
				c0,0,0,0-0.1,0l0,0c0-1.8,1.6-3.5,3.6-3.7c1-0.1,1.8,0.2,2.7,0.3l2.5,0.5C14.7,154.5,18.1,155.3,21.4,156.1
				C21.5,156,21.5,156,21.4,156.1C21.5,156.1,21.5,156.1,21.4,156.1z"/>
		</g>
		<g>
			<path class="st2" d="M23.2,163.5c-2.7-0.3-5.4-0.7-8.1-1.1l-2-0.3l-1-0.2c-0.3-0.1-0.6-0.1-0.9-0.1c-1.2,0-2.3,0.8-2.8,2.1
				c0,0,0,0-0.1,0l0,0c-0.1-1.4,1.2-2.9,2.8-3.1c0.4-0.1,0.8,0,1.2,0.1l1,0.2l2,0.5C17.9,162.2,20.6,162.8,23.2,163.5
				C23.3,163.5,23.3,163.5,23.2,163.5C23.3,163.5,23.3,163.5,23.2,163.5z"/>
		</g>
		<g>
			<path class="st2" d="M32.4,145c-5-0.7-9.9-1.5-14.9-2.3c-2.5-0.4-5-0.7-7.4-1.2c-0.6-0.1-1.3-0.3-1.8-0.4c-0.6,0-1.1,0-1.7,0.2
				c-1.1,0.4-2,1.4-2.3,2.6c0,0,0,0-0.1,0c0,0,0,0,0-0.1c0-0.6,0.3-1.3,0.6-1.8c0.4-0.6,0.9-1,1.5-1.3s1.3-0.5,2-0.5
				s1.3,0.2,1.9,0.2c2.5,0.4,4.9,0.9,7.4,1.4C22.6,142.9,27.5,143.9,32.4,145C32.5,144.9,32.5,144.9,32.4,145
				C32.5,145,32.4,145,32.4,145z"/>
		</g>
		<g>
			<path class="st2" d="M37.8,158.5c-0.4-0.3-0.8-0.6-1.2-0.9c-0.4-0.4-0.8-0.7-1.1-1.1c-0.7-0.7-1.2-1.7-1.5-2.6
				c-0.4-1-0.6-2-0.4-3.1c0.1-1,0.5-2,1.2-2.8h0.1l0,0l0,0c-0.1,1-0.3,1.9-0.3,2.9c0,0.9,0,1.9,0.2,2.8c0.2,0.9,0.6,1.8,1.2,2.6
				c0.2,0.4,0.6,0.8,0.9,1.1C37.1,157.8,37.5,158.1,37.8,158.5L37.8,158.5L37.8,158.5L37.8,158.5z"/>
		</g>
	</g>
	<g>
		<g>
			<g>
				<path class="st7" d="M205.9,58.7c1.5-1.1,2.7-2.8,3-4.9c0.6-3.5-1.1-6.8-3.9-8.2c0.9-1,1.5-2.3,1.8-3.8c0.7-4.1-1.7-8-5.5-8.7
					c0.3-0.6,0.5-1.3,0.7-2.1c0.7-4.1-1.7-8-5.5-8.7c-0.9-0.2-1.8-0.1-2.6,0c0.6-4-1.8-7.8-5.5-8.6c-1.5-0.3-2.9,0-4.2,0.6
					c-0.3-3.2-2.5-5.9-5.6-6.5c-3.5-0.7-5.7,1.3-6.6,2.4c-4.1-1.2-9.4-2.2-15.1-2.4c-2.6-0.6-5.4-1.3-8.3-2c0,0-0.7-4.5-5.3-5.6
					c-3-0.7-6.1,0.9-7.6,3.7c-0.9-1.1-2.1-1.9-3.6-2.3c-3.7-0.9-7.4,1.6-8.4,5.6c-0.7-0.5-1.5-0.9-2.4-1.1c-3.7-0.9-7.5,1.7-8.4,5.7
					c-0.2,0.7-0.2,1.5-0.2,2.2c-3.7-0.9-7.5,1.7-8.4,5.7c-0.3,1.4-0.3,2.9,0.2,4.2c-3.1,0.1-6,2.5-6.8,5.9c-0.5,2.1-0.1,4.1,0.9,5.8
					c-2.7,0.5-5,2.7-5.7,5.8v0.1c-0.7,3,0.4,6,2.6,7.7c-1.6,1-2.8,2.7-3.3,4.8c-0.8,3.4,0.7,6.8,3.5,8.3c-0.9,1-1.6,2.2-2,3.7
					c-0.9,4,1.3,8,5.1,8.9c-0.3,0.6-0.6,1.3-0.8,2c-0.9,4,1.3,8,5.1,8.9c0.9,0.2,1.8,0.2,2.6,0.1c-0.8,4,1.4,7.9,5.1,8.7
					c1.5,0.3,2.9,0.2,4.2-0.4c0.2,3.2,2.2,6,5.3,6.7c2.8,0.7,5.6-0.5,7.2-2.9l4,0.9l0.3,0.4l9.6,1.9l9.5,2.2l0.4-0.3l4,0.8
					c0.6,2.9,2.7,5.1,5.5,5.6c3.1,0.6,6-1.1,7.4-4c1,1.1,2.2,1.9,3.7,2.1c3.7,0.7,7.3-1.9,8.1-5.9c0.7,0.5,1.5,0.9,2.4,1
					c3.8,0.7,7.4-2,8.1-6.1c0.1-0.7,0.2-1.5,0.1-2.2c3.8,0.7,7.4-2,8.1-6.1c0.3-1.5,0.1-2.9-0.4-4.2c3.1-0.2,5.8-2.7,6.4-6.2
					c0.4-2.1-0.1-4.2-1.2-5.8c2.6-0.6,4.8-2.9,5.4-6V66C209.4,63.2,208.2,60.3,205.9,58.7z M127.8,15.5c0,0-0.2-0.1-0.6-0.1
					c0.2,0,0.5-0.1,0.7-0.1C127.9,15.4,127.9,15.4,127.8,15.5z"/>
				<g>
					<g>
						<path class="st1" d="M188.3,83c-1.5,2.6-2.9,5.8-3.3,8.2c-0.3,1.9-0.2,4.9,0.6,5.4c0.4,0.2,1.1-0.1,1.5-0.4
							c2.1-1.3,3.4-4.1,3.5-7.3C190.7,86.4,189.8,84.2,188.3,83z"/>
						<path class="st1" d="M193.9,74.2c-3.4-0.6-8.6,3.5-8.6,3.5c-6.1,5.1-2.5,28.5,2.7,27.6s4.7-8.4,4.7-8.4
							c2.6-1.6,4.8-8.4,4.8-8.4C201.9,75.7,193.9,74.2,193.9,74.2z M196.4,82.2c-0.2,1-0.6,1.8-0.9,2.6l-1.7-0.7
							c0.3-0.8,0.7-1.5,0.8-2.3c0.1-0.5,0.2-1.3-0.1-2.1c-0.2-0.6-0.7-1-1.2-1.1c-0.3,0-0.7,0-1.3,0.2c-0.8,0.3-1.8,1.3-2.7,2.6
							c2,1.5,3.2,4.3,3.2,7.6c-0.1,3.8-1.7,7.2-4.4,8.8c-0.8,0.5-1.5,0.7-2.2,0.7c-0.5,0-0.9-0.1-1.3-0.4c-2.1-1.4-1.6-6.3-1.4-7.2
							c0.7-4.5,4.5-12.4,8.1-13.8c0.5-0.2,1.3-0.5,2.2-0.3c1.1,0.2,2.1,1,2.6,2.2C196.5,80,196.6,81.1,196.4,82.2z"/>
						<path class="st8" d="M193.5,76.9c-0.9-0.1-1.7,0.1-2.2,0.3c-3.6,1.4-7.4,9.3-8.1,13.8c-0.1,1-0.7,5.8,1.4,7.2
							c0.4,0.3,0.8,0.4,1.3,0.4c0.6,0,1.4-0.2,2.2-0.7c2.6-1.6,4.3-5,4.4-8.8c0-3.3-1.1-6.1-3.2-7.6c0.9-1.3,1.9-2.2,2.7-2.6
							c0.5-0.2,0.9-0.3,1.3-0.2c0.5,0.1,1,0.5,1.2,1.1c0.3,0.7,0.2,1.5,0.1,2.1c-0.2,0.8-0.5,1.5-0.8,2.3l1.7,0.7
							c0.4-0.8,0.7-1.7,0.9-2.6c0.2-1.1,0.2-2.2-0.2-3.1C195.7,77.9,194.7,77.1,193.5,76.9z M190.6,89.1c0,3.2-1.4,6-3.5,7.3
							c-0.4,0.2-1.1,0.6-1.5,0.4c-0.8-0.6-0.9-3.5-0.6-5.4c0.4-2.4,1.7-5.7,3.3-8.2C189.8,84.2,190.7,86.4,190.6,89.1z"/>
					</g>
					<g>
						<path class="st1" d="M109.7,83c1.5,2.6,2.9,5.8,3.3,8.2c0.3,1.9,0.2,4.9-0.6,5.4c-0.4,0.2-1.1-0.1-1.5-0.4
							c-2.1-1.3-3.4-4.1-3.5-7.3C107.3,86.4,108.1,84.2,109.7,83z"/>
						<path class="st1" d="M100.5,88.5c0,0,2.2,6.8,4.8,8.4c0,0-0.5,7.5,4.7,8.4s8.7-22.5,2.7-27.6c0,0-5.2-4.1-8.6-3.5
							C104.1,74.2,96.1,75.7,100.5,88.5z M101.8,79.1c0.5-1.2,1.5-2,2.6-2.2c0.9-0.1,1.7,0.1,2.2,0.3c3.6,1.4,7.4,9.3,8.1,13.8
							c0.1,1,0.7,5.8-1.4,7.2c-0.4,0.3-0.8,0.4-1.3,0.4c-0.6,0-1.4-0.2-2.2-0.7c-2.6-1.6-4.3-5-4.4-8.8c0-3.3,1.1-6.1,3.2-7.6
							c-0.9-1.3-1.9-2.2-2.7-2.6c-0.5-0.2-0.9-0.3-1.3-0.2c-0.5,0.1-1,0.5-1.2,1.1c-0.3,0.7-0.2,1.5-0.1,2.1
							c0.2,0.8,0.5,1.5,0.8,2.3l-1.7,0.7c-0.4-0.8-0.7-1.7-0.9-2.6C101.3,81.1,101.4,80,101.8,79.1z"/>
						<path class="st8" d="M101.8,79.1c-0.4,0.9-0.5,2-0.2,3.1c0.2,1,0.6,1.8,0.9,2.6l1.7-0.7c-0.3-0.8-0.7-1.5-0.8-2.3
							c-0.1-0.5-0.2-1.3,0.1-2.1c0.2-0.6,0.7-1,1.2-1.1c0.3,0,0.7,0,1.3,0.2c0.8,0.3,1.8,1.3,2.7,2.6c-2,1.5-3.2,4.3-3.2,7.6
							c0.1,3.8,1.7,7.2,4.4,8.8c0.8,0.5,1.5,0.7,2.2,0.7c0.5,0,0.9-0.1,1.3-0.4c2.1-1.4,1.6-6.3,1.4-7.2c-0.7-4.5-4.5-12.4-8.1-13.8
							c-0.5-0.2-1.3-0.5-2.2-0.3C103.3,77.1,102.3,77.9,101.8,79.1z M109.7,83c1.5,2.6,2.9,5.8,3.3,8.2c0.3,1.9,0.2,4.9-0.6,5.4
							c-0.4,0.2-1.1-0.1-1.5-0.4c-2.1-1.3-3.4-4.1-3.5-7.3C107.3,86.4,108.1,84.2,109.7,83z"/>
					</g>
				</g>
				<path class="st1" d="M149,141.3L149,141.3c-18,0-38.5-16.2-38.5-34.2V47.2c0-18,14.6-32.6,32.6-32.6h11.6
					c18,0,32.6,14.6,32.6,32.6V107C187.4,125.1,167,141.3,149,141.3z"/>
				<path class="st2" d="M142.5,130c1.7,1.8,4,3,6.4,3s4.7-1.1,6.4-3c-1.8,0.8-4,1.3-6.4,1.3C146.6,131.3,144.4,130.8,142.5,130z"/>
				<g>
					<path class="st9" d="M121.4,69.4c-0.6,0.3-1.1-0.5-0.6-0.9c2.1-2,4.6-3.3,7.5-3.6c2.9-0.4,5.7,0.3,8.1,1.7
						c0.6,0.3,0.2,1.1-0.4,1c-2.3-0.4-4.8-0.4-7.4-0.1C125.9,67.8,123.5,68.5,121.4,69.4z"/>
					<path class="st9" d="M177.4,69.4c0.6,0.3,1.1-0.5,0.6-0.9c-2.1-2-4.6-3.3-7.5-3.6c-2.9-0.4-5.7,0.3-8.1,1.7
						c-0.6,0.3-0.2,1.1,0.4,1c2.3-0.4,4.8-0.4,7.4-0.1C172.8,67.8,175.2,68.5,177.4,69.4z"/>
				</g>
				<path class="st2" d="M149,102.2l4-0.7c0.8,0,1.2-0.9,0.6-1.5l-4-4c-0.3-0.3-0.9-0.3-1.2,0l-4,4c-0.5,0.5-0.2,1.5,0.6,1.5
					L149,102.2z"/>
				<g>
					<g>
						<g>
							<circle class="st6" cx="131.7" cy="79.7" r="4.6"/>
						</g>
					</g>
				</g>
				<g>
					<g>
						<g>
							<circle class="st6" cx="164.9" cy="79.7" r="4.6"/>
						</g>
					</g>
				</g>
				<path class="st7" d="M203.6,51.6c-1.4,0-3.1-0.2-4.9-0.7c0-11.5-3-31.1-21.2-40.3c-5.9-3-28.5-9.5-43,0.8c0,0-0.6-4,0.8-5.2
					c0,0-6.6,0.7-8.4,7.3c0,0-13.2-2.9-16.4,3.2c0,0,3.6-0.4,5.6,0.9c-21.6,10.1-14.5,42-14.5,42c1.2,4.1,2.2,15.6,8.9,21.7
					l0.3-21.3c0,0,5.1-20.7,10.6-21.5c0,0,0.7,2.6,3.3,5.9c3.8,7.9,12.1,18.2,29,16.4c0,0-9.5-1.3-13.9-6.3
					c9.1,3.2,22.5,4.7,42.3,1.7c0,0,1.9-0.1,4.7-0.4c0.3,1,0.5,2.1,0.5,3.1c0,10.1-0.5,0.4,0,23.5c0,0,9.1-10.9,10.7-22.5
					c0,0,0.3-0.1,0.4-3.7c2-0.4,3.9-1.9,5.6-3.2C204.7,52.6,204.4,51.6,203.6,51.6z"/>
				<g>
					<path class="st10" d="M148.4,121.1c-7.4,0-11.1-3.3-11.3-3.5l1.2-1.3l-0.6,0.7l0.6-0.7c0.1,0.1,7.6,6.7,23.4-0.2l0.7,1.7
						C156.9,120.2,152.2,121.1,148.4,121.1z"/>
				</g>
			</g>
			<g>
				<polygon class="st10" points="102.7,64.5 110.5,60.8 110.5,66.5 102.7,69.2 				"/>
				<polygon class="st11" points="102.7,70.6 110.5,66.9 110.5,71.1 102.7,73.8 				"/>
			</g>
			<g>
				<polygon class="st10" points="196.3,64.1 188.5,60.4 188.5,66.1 196.3,68.8 				"/>
				<polygon class="st11" points="196.3,70.2 188.5,66.5 188.5,70.7 196.3,73.4 				"/>
			</g>
		</g>
		<g>
			<g class="st12">
				<path class="st13" d="M173,80.3c-0.5,0-1.1,0-1.6,0c-3.7,0-6.9,0.6-9.4,1.6c-2.1,0.7-4.6,2.2-7.5,1.7c-2.8-0.5-3.7-0.6-4.7-0.6
					s-1.7,0.2-4.5,0.6c-3,0.5-5.4-1-7.5-1.7c-2.5-1.1-5.7-1.6-9.4-1.6c-0.5,0-1.1,0-1.6,0c-2.2,0-8.8,0.5-21.6,5.1v3.2
					c0,0,1.6,0.5,1.7,2.7c0.8,9.1,2.1,11.9,3.2,14c0.3,0.6,0.6,1.1,0.9,1.6v-0.1c0.7,1,1.4,1.8,2.2,2.6c3,2.8,7.2,4.3,12.2,4.3
					c0.4,0,0.9,0,1.3,0c5.1-0.3,10.4-3.3,14-8c2-2.6,5-7.8,5-17.1c0,0,0.5-2,4-2s4.1,2,4.1,2c0,9.3,3,14.4,5,17.1
					c3.6,4.7,9,7.8,14,8c0.4,0,0.9,0,1.3,0c5,0,9.2-1.5,12.2-4.3c0.8-0.8,1.6-1.7,2.2-2.6v0.1c0.3-0.5,0.6-1,0.9-1.6
					c1.1-2.1,2.4-4.9,3.2-14c0.2-2.2,1.7-2.7,1.7-2.7v-3.2C181.8,80.8,175.2,80.3,173,80.3z M126.7,111.9
					c-8.8,0.4-16.9-3.6-17.3-17.5c0,0,0-6.8,5.8-9.8c4.4-2.3,25-6,27.6,5.6C145.3,101.6,135.3,111.4,126.7,111.9z M173.1,111.9
					c-8.5-0.4-18.6-10.3-16-21.8s23.1-7.8,27.6-5.6c5.8,3,5.8,9.8,5.8,9.8C189.9,108.2,181.8,112.3,173.1,111.9z"/>
			</g>
			<g>
				<path class="st14" d="M173,77c-0.5,0-1.1,0-1.6,0c-3.7,0-6.9,0.6-9.4,1.6c-2.1,0.7-4.6,2.2-7.5,1.7c-2.8-0.5-3.7-0.6-4.7-0.6
					s-1.7,0.2-4.5,0.6c-3,0.5-5.4-1-7.5-1.7c-2.5-1.1-5.7-1.6-9.4-1.6c-0.5,0-1.1,0-1.6,0c-2.2,0-8.8,0.5-21.6,5.1v3.2
					c0,0,1.6,0.5,1.7,2.7c0.8,9.1,2.1,11.9,3.2,14c0.3,0.6,0.6,1.1,0.9,1.6v-0.1c0.7,1,1.4,1.8,2.2,2.6c3,2.8,7.2,4.3,12.2,4.3
					c0.4,0,0.9,0,1.3,0c5.1-0.3,10.4-3.3,14-8c2-2.6,5-7.8,5-17.1c0,0,0.5-2,4-2s4.1,2,4.1,2c0,9.3,3,14.4,5,17.1
					c3.6,4.7,9,7.8,14,8c0.4,0,0.9,0,1.3,0c5,0,9.2-1.5,12.2-4.3c0.8-0.8,1.6-1.7,2.2-2.6v0.1c0.3-0.5,0.6-1,0.9-1.6
					c1.1-2.1,2.4-4.9,3.2-14c0.2-2.2,1.7-2.7,1.7-2.7v-3.2C181.8,77.5,175.2,77,173,77z M126.7,108.5c-8.8,0.4-16.9-3.6-17.3-17.5
					c0,0,0-6.8,5.8-9.8c4.4-2.3,25-6,27.6,5.6C145.3,98.3,135.3,108.1,126.7,108.5z M173.1,108.5c-8.5-0.4-18.6-10.3-16-21.8
					s23.1-7.8,27.6-5.6c5.8,3,5.8,9.8,5.8,9.8C189.9,104.9,181.8,109,173.1,108.5z"/>
			</g>
		</g>
	</g>
</g>
</svg>
