<?xml version="1.0" encoding="utf-8"?>
<!-- Generator: Adobe Illustrator 22.1.0, SVG Export Plug-In . SVG Version: 6.00 Build 0)  -->
<svg version="1.1" id="Layer_1" xmlns="http://www.w3.org/2000/svg" xmlns:xlink="http://www.w3.org/1999/xlink" x="0px" y="0px"
	 viewBox="0 0 202.4 138.9" style="enable-background:new 0 0 202.4 138.9;" xml:space="preserve">
<style type="text/css">
	.st0{fill:#668980;}
	.st1{fill:#FCD385;}
</style>
<g>
	<g>
		<path class="st0" d="M194.4,4.4c0-2.4-2.2-4.4-4.9-4.4H13.3c-2.7,0-4.9,2-4.9,4.4s2.2,4.4,4.9,4.4h176.2
			C192.2,8.7,194.4,6.8,194.4,4.4z"/>
	</g>
	<g>
		<path class="st0" d="M165.6,27.4c0-2.4-1.5-4.4-3.4-4.4H39.8c-1.9,0-3.4,2-3.4,4.4s1.5,4.4,3.4,4.4h122.3
			C164.1,31.7,165.6,29.8,165.6,27.4z"/>
	</g>
	<g>
		<g>
			<path class="st0" d="M41.2,124c0-8.2,6.7-14.9,14.9-14.9c8.2,0,14.9,6.7,14.9,14.9c0,8.2-6.7,14.9-14.9,14.9
				C47.9,138.9,41.2,132.3,41.2,124z"/>
		</g>
		<path class="st1" d="M61.2,115.5l12.3-11.8H38.7L51,115.5c-2.9,1.7-4.8,4.9-4.8,8.5c0,5.5,4.5,9.9,9.9,9.9c5.5,0,9.9-4.5,9.9-9.9
			C66.1,120.4,64.1,117.3,61.2,115.5z"/>
		<g>
			<path class="st0" d="M111.4,124c0-8.2,6.7-14.9,14.9-14.9c8.2,0,14.9,6.7,14.9,14.9c0,8.2-6.7,14.9-14.9,14.9
				C118.1,138.9,111.4,132.3,111.4,124z"/>
		</g>
		<path class="st1" d="M131.5,115.5l12.3-11.8H109l12.3,11.8c-2.9,1.7-4.8,4.9-4.8,8.5c0,5.5,4.5,9.9,9.9,9.9c5.5,0,9.9-4.5,9.9-9.9
			C136.3,120.4,134.4,117.3,131.5,115.5z"/>
	</g>
	<g>
		<path class="st0" d="M19.4,56H8.8c-2.4,0-4.3-1.9-4.3-4.3v-23c0-2.4,1.9-4.3,4.3-4.3h10.5v-4.5H8.8c-4.9,0-8.8,4-8.8,8.8v23
			c0,4.9,4,8.8,8.8,8.8h10.5V56z"/>
	</g>
	<g>
		<g>
			<path class="st1" d="M197.9,51.7v-23c0-2.4-1.9-4.3-4.3-4.3H183V56h10.5C195.9,56,197.9,54.1,197.9,51.7z"/>
		</g>
		<g>
			<path class="st1" d="M4,51.7v-23c0-2.4,1.9-4.3,4.3-4.3h10.5V56H8.3C5.9,56,4,54.1,4,51.7z"/>
		</g>
	</g>
	<g>
		<path class="st0" d="M183,56h10.5c2.4,0,4.3-1.9,4.3-4.3v-23c0-2.4-1.9-4.3-4.3-4.3H183v-4.5h10.5c4.9,0,8.8,4,8.8,8.8v23
			c0,4.9-4,8.8-8.8,8.8H183V56z"/>
	</g>
	<g>
		<path class="st0" d="M17.8,0.7v80.2c0,12.9,13.6,23.3,30.4,23.3h106.2c16.8,0,30.4-10.4,30.4-23.3V0.7H17.8z M176.6,77.1
			c0,11.1-13.1,20.2-28,20.2H54c-14.9,0-28-9-28-20.2V7.7h150.6V77.1z"/>
	</g>
</g>
</svg>
