<?xml version="1.0" encoding="utf-8"?>
<!-- Generator: Adobe Illustrator 22.1.0, SVG Export Plug-In . SVG Version: 6.00 Build 0)  -->
<svg version="1.1" id="Layer_1" xmlns="http://www.w3.org/2000/svg" xmlns:xlink="http://www.w3.org/1999/xlink" x="0px" y="0px"
	 viewBox="0 0 288.8 464.9" style="enable-background:new 0 0 288.8 464.9;" xml:space="preserve">
<style type="text/css">
	.st0{fill:#4C5258;}
	.st1{fill:#787986;}
	.st2{fill:#6E7377;}
	.st3{fill:#E0E1DD;}
	.st4{fill:#CACBCD;}
	.st5{fill:#C8CAC7;}
	.st6{fill:#929497;}
	.st7{fill:#A4A6A4;}
	.st8{fill:#F5E0CD;}
	.st9{fill:#CCCFD9;}
	.st10{fill:#6E6360;}
	.st11{fill:#DFE0E0;}
	.st12{fill:#EDD8B7;}
	.st13{fill:#EBC19C;}
	.st14{fill:#F1F1F2;}
	.st15{opacity:0.55;fill:#BBBDBF;enable-background:new    ;}
	.st16{fill:#F0D0B3;}
	.st17{fill:#808184;}
	.st18{fill:#58595B;}
	.st19{fill:#BBBDBF;}
	.st20{fill:#6D6E70;}
	.st21{fill:#C3996B;}
	.st22{fill:#E6E7E8;}
	.st23{opacity:0.25;}
	.st24{fill:#757E84;}
	.st25{fill:#EC1C24;}
</style>
<g>
	<g>
		<path class="st0" d="M208,385.4c-1.9-6.2,1.6-12.7,7.8-14.6s12.7,1.6,14.6,7.8c0.6,2,0.6,4.1,0.2,6c-5.7,0.3-18.3,0.9-22.3,1.7
			C208.2,385.9,208.1,385.6,208,385.4z"/>
		<path class="st1" d="M222.2,391.9c-5.4,1.6-11.1-1.2-13.1-6.4c3.7-0.7,15.2-1.3,20.4-1.5C228.7,387.7,226,390.8,222.2,391.9z"/>
	</g>
	<rect x="166.9" y="316.1" class="st0" width="16" height="99.1"/>
	<path class="st0" d="M244,422.6l-132.1-11.4c-2.4-0.2-4.3-2.4-4-4.8l0,0c0.2-2.4,2.4-4.3,4.8-4l132.1,11.4c2.4,0.2,4.3,2.4,4,4.8
		l0,0C248.6,421,246.5,422.9,244,422.6z"/>
	<path class="st0" d="M221,379.4l-87.8,71.9c-1.9,1.6-4.7,1.3-6.3-0.6l0,0c-1.6-1.9-1.3-4.7,0.6-6.3l87.8-71.9
		c1.9-1.6,4.7-1.3,6.3,0.6l0,0C223.2,375.1,222.9,377.9,221,379.4z"/>
	<g>
		<polygon class="st2" points="99.8,324.6 102.1,324.5 102,323.1 		"/>
		<polygon class="st2" points="99.7,274.1 97.4,274.2 99.8,324.6 102,323.1 		"/>
		<polygon class="st0" points="111.7,273.6 109.4,273.7 111.4,316.4 102,323.1 102.1,324.5 113.7,316.3 		"/>
		<polygon class="st0" points="111.4,316.4 109.4,273.7 99.7,274.1 102,323.1 		"/>
	</g>
	<g>
		<polygon class="st3" points="261.6,299.1 126.2,291.5 158.7,117.7 269.7,121.4 		"/>
		<polygon class="st4" points="261.6,286.6 269.7,121.4 278.9,129.5 268.7,307.6 261.6,311.4 		"/>
	</g>
	<polygon class="st5" points="126.2,291.5 79,326.5 204.7,340.7 261.6,299.1 	"/>
	<polygon class="st6" points="261.6,311.4 206.4,351 204.7,340.7 261.6,299.1 	"/>
	<polygon class="st6" points="204.8,340.5 206.4,351 85.5,335.5 79,326.5 	"/>
	<g>
		<polygon class="st2" points="231.5,333.8 233.7,333.7 233.7,332.3 		"/>
		<polygon class="st2" points="231.4,283.4 229.1,283.5 231.5,333.8 233.7,332.3 		"/>
		<polygon class="st0" points="243.3,282.8 241.1,282.9 243.1,325.7 233.7,332.3 233.7,333.7 245.4,325.6 		"/>
		<polygon class="st0" points="243.1,325.7 241.1,282.9 231.4,283.4 233.7,332.3 		"/>
	</g>
	<g>
		<polygon class="st5" points="110.2,259.6 64,294 78.1,296.2 131.4,260.7 		"/>
		<polygon class="st5" points="110.4,255.5 64.2,289.8 78.2,292 131.5,256.5 		"/>
		<polygon class="st7" points="64.2,289.8 64,294 78.1,296.2 78.2,292 		"/>
		<polygon class="st7" points="131.5,256.5 131.4,260.7 78.1,296.2 78.2,292 		"/>
	</g>
	<g>
		<path class="st0" d="M121.4,414c0-6.5-5.2-11.7-11.7-11.7S98,407.5,98,414c0,2.1,0.6,4.1,1.5,5.8c5.5-1.4,17.7-4.5,21.8-4.9
			C121.4,414.6,121.4,414.3,121.4,414z"/>
		<path class="st1" d="M109.7,424.4c5.6,0,10.2-4.4,10.6-9.9c-3.7,0.4-14.9,3.2-19.9,4.5C102.2,422.2,105.7,424.4,109.7,424.4z"/>
	</g>
	<g>
		<path class="st0" d="M230.3,425c0-6.5,5.2-11.7,11.7-11.7s11.7,5.2,11.7,11.7c0,2.1-0.6,4.1-1.5,5.8c-5.5-1.4-17.7-4.5-21.8-4.9
			C230.3,425.6,230.3,425.3,230.3,425z"/>
		<path class="st1" d="M242,435.5c-5.6,0-10.2-4.4-10.6-9.9c3.7,0.4,14.9,3.2,19.9,4.5C249.5,433.3,246,435.5,242,435.5z"/>
	</g>
	<g>
		<path class="st0" d="M121.4,455.6c-0.6-6.4,4.1-12.1,10.6-12.7c6.4-0.6,12.1,4.1,12.7,10.6c0.2,2.1-0.2,4.1-1,5.9
			c-5.7-0.9-18.1-2.8-22.2-2.9C121.5,456.1,121.5,455.8,121.4,455.6z"/>
		<path class="st1" d="M134,464.9c-5.6,0.5-10.6-3.4-11.5-8.9c3.8,0.1,15.1,1.8,20.3,2.6C141.3,462,138,464.5,134,464.9z"/>
	</g>
	<g>
		<g>
			<g>
				<path class="st8" d="M150.2,407.1c-0.1,3.3-2,5.9-4.3,5.9h-1c-2.3,0-4.2-2.7-4.3-5.9l0.9-103.8c-0.1-3.3,1.7-5.9,4-5.9l12.4,0.1
					c2.3,0,4,2.7,3.9,5.9L150.2,407.1z"/>
			</g>
			<g>
				<path class="st8" d="M128.9,426.9c11.4-0.3,18.8-2.8,21.3-3.8V423v-16h-9.6c-0.2,3.9-0.4,11.7-15.3,14.3
					c-2.2,0.4-4.6,0.7-6.8,1.2c-0.4,0.1-0.7,0.2-1.1,0.3C116.4,424.9,117.6,427.2,128.9,426.9z"/>
				<path class="st9" d="M151.6,427v-0.1c0.1-0.5-0.6-4.2-0.5-4.2c0,0-0.3,0.2-0.9,0.4c0,0,0,0,0-0.1v0.1c-2.5,1-9.8,3.5-21.3,3.8
					c-11.3,0.3-12.6-2-11.5-4.1c0.3-0.1,0.7-0.2,1.1-0.3c-0.3,0-0.7,0.1-1,0.1c-0.6,0.1-1.1,0.2-1.5,0.3c-1.2,0.3-2.6,0.5-3.9,0.7
					c-3.2,0.6-6.2,1.3-6.8,4.2c-0.8,3.5,3.9,5.1,6.4,5.1c11,0.1,18.1-0.7,29-1.7l0.7,1.7l9.5-0.1C150.9,431,151.9,429,151.6,427z"/>
			</g>
		</g>
		<g>
			<g>
				<path class="st8" d="M48,341.3c-2.4,2.2-5.6,2.7-7.2,1.1l-0.7-0.7c-1.6-1.6-1.1-4.9,1.2-7.2l53.3-52.7c2.2-2.4,5.4-3,7-1.4
					l8.7,8.8c1.6,1.6,1,4.7-1.4,7L48,341.3z"/>
			</g>
			<g>
				<path class="st8" d="M18.9,340.4c8.3,7.9,15.3,11.3,17.8,12.3l0.1-0.1L48,341.3l-6.8-6.8c-2.9,2.6-8.6,8-20.9-0.7
					c-1.8-1.3-3.7-2.7-5.7-3.9c-0.3-0.2-0.6-0.4-0.9-0.6C11.4,330.1,10.7,332.6,18.9,340.4z"/>
				<path class="st9" d="M34.9,356.5C34.9,356.4,35,356.4,34.9,356.5c0.5-0.3,2.6-3.4,2.7-3.4c0,0-0.3-0.1-0.9-0.4c0,0,0,0,0-0.1
					l-0.1,0.1c-2.5-1-9.5-4.4-17.8-12.3c-8.2-7.8-7.5-10.3-5.2-11c0.3,0.2,0.6,0.4,0.9,0.6c-0.3-0.2-0.5-0.4-0.8-0.6
					c-0.5-0.3-0.9-0.6-1.3-0.9c-1.1-0.6-2.2-1.4-3.3-2.2c-2.6-1.9-5.3-3.5-7.8-1.8c-3,2-0.8,6.3,1,8.1c7.7,7.8,13.3,12.3,21.7,19.3
					l-0.7,1.7l6.7,6.6C31.6,358.8,33.7,358,34.9,356.5z"/>
			</g>
		</g>
		<path class="st10" d="M229.3,272.6c-0.3-5.8-0.9-6.6-1.5-9.9c-0.2-2.6-1-5.6-2.3-8.7c-1.3-3-3.1-6-5.3-8.7s-4.7-5-7.5-6.7
			s-5.8-2.7-9-2.7c-3.7,0-6.7-0.4-9.5-0.7c-2.8-0.2-5.4-0.4-8.2-0.5s-5.8-0.3-9.5-0.4c-3.1-0.1-6,0.8-8.8,2.4
			c-2.7,1.5-5.2,3.7-7.3,6.2c-2.1,2.4-3.8,5.1-5.1,7.7c-1.3,2.6-2,5.1-2.2,7.3c-0.6,3-1,5.9-1.8,7.3s-2.3,2.3-4.2,2.9
			s-4.3,0.9-7,1.2c-2.6,0.3-5.6,0.5-8.7,0.7c-3.1,0.3-6.4,0.6-9.9,1.1s-7.1,1.2-10.8,2.2c-3.8,1-7.7,2.4-11.7,4.4
			c-4.1,2-8.2,4.5-12.6,8.2s-8.8,8.3-13.1,14.3c1.3,0.1,2.2,0.3,3.2,0.6l-3.2-0.6L62,312.4l94.6,58.9l12.3-29.6
			c1.2-3.4,3.1-6.2,5.4-8.6c2.3-2.4,4.9-4.4,7.6-6.3c2.8-1.9,5.7-3.5,8.7-5.2c3-1.6,6-3.2,8.9-4.9c3-1.7,5.9-3.4,8.7-5.2
			c2.8-1.9,5.5-3.9,8-6.2c2.5-2.3,4.8-4.9,6.8-7.9s3.7-6.4,4.8-10.5C229,283.1,229.6,278.3,229.3,272.6z"/>
	</g>
	<g>
		<g>
			<g>
				<path class="st11" d="M243,86c2.9,2.9,5.8,5.8,8.7,8.8l7.2-6.9c-2.9-3-5.8-5.9-8.8-8.9L243,86z"/>
				<path class="st12" d="M262,133c-10,8.3-23.4,17.1-34.8,23.9c-5.6,3.3-4.8,8.8-2.8,12.5l0.5,0.9c2,3.6,8.6,3.7,14.3-0.1
					c11.6-7.7,22.9-15.9,33.4-25.6c5.2-4.8,10.3-10,14.6-16.5l0.2-0.3l0.1-0.2c0.2-0.3,0.4-0.6,0.5-0.9c0.3-0.7,0.5-1.2,0.6-1.7
					c0.1-0.3,0.1-0.6,0.1-0.8c0-0.2,0-0.4,0-0.6c0-1.6-0.3-2.6-0.5-3.3c-0.5-1.5-1.1-2.5-1.6-3.5c-1.1-1.9-2.2-3.4-3.3-4.9
					c-2.2-2.9-4.5-5.6-6.8-8.2c-4.6-5.2-9.3-10.2-14-15.1l-5.6-5.6l-10.1,10l5.3,5.8c4.5,4.9,9,9.9,13.2,15c2.1,2.6,4.1,5.2,5.9,7.8
					c0.9,1.3,0.5,0.5,1.1,1.6L262,133z"/>
			</g>
			<g>
				<path class="st8" d="M228.5,80.8c4,6.5,12.6,8.5,19.1,4.4c6.5-4,8.5-12.6,4.4-19.1c-4-6.5-12.6-8.5-19.1-4.4
					C226.4,65.7,224.5,74.3,228.5,80.8z"/>
				<path class="st8" d="M232.2,84.5l-14-9.9c-1.8-1.2-2.2-3.7-0.9-5.5c1.2-1.8,3.7-2.2,5.5-0.9l14,9.9L232.2,84.5z"/>
				<path class="st8" d="M227.8,69.4l3.4-23.7c0.3-2.1,2.3-3.6,4.4-3.3c2.1,0.3,3.6,2.3,3.3,4.4l-3.4,23.7L227.8,69.4z"/>
				<path class="st8" d="M235.1,67.4l3.4-23.7c0.3-2.1,2.3-3.6,4.4-3.3c2.1,0.3,3.6,2.3,3.3,4.4l-3.4,23.7L235.1,67.4z"/>
				<path class="st8" d="M240.4,71.7l3.4-23.7c0.3-2.1,2.3-3.6,4.4-3.3c2.1,0.3,3.6,2.3,3.3,4.4l-3.4,23.7L240.4,71.7z"/>
				<path class="st8" d="M247.1,74.3l2.8-19.2c0.2-1.7,1.8-2.9,3.5-2.7s2.9,1.8,2.7,3.5l-2.8,19.2L247.1,74.3z"/>
				<g>
					<path class="st13" d="M235.9,61.8c0.4-4.1,0.9-8.1,1.4-12.1c0.2-2,0.4-4,0.8-6.1c0.2-1.1,0.9-2.2,1.8-2.8
						c0.9-0.6,2.1-0.8,3.1-0.5c0,0,0,0,0,0.1l0,0c-1,0-2,0.3-2.7,1c-0.7,0.6-1.2,1.5-1.2,2.3c-0.2,2-0.6,4-1,6
						C237.4,53.8,236.7,57.8,235.9,61.8C236,61.8,236,61.8,235.9,61.8L235.9,61.8z"/>
				</g>
				<g>
					<path class="st13" d="M241.7,62.5c0.4-3.4,0.7-6.9,1.1-10.3l0.3-2.6c0.1-0.8,0.1-1.7,0.5-2.7c0.8-1.8,2.9-2.8,4.6-2.3
						c0,0,0,0,0,0.1l0,0c-1.7,0-3.2,1.1-3.7,2.5c-0.1,0.4-0.2,0.7-0.3,1.1l-0.2,1.3l-0.5,2.6C243,55.7,242.4,59.1,241.7,62.5
						C241.8,62.5,241.8,62.5,241.7,62.5L241.7,62.5z"/>
				</g>
				<g>
					<path class="st13" d="M248.2,66.5c0.2-2.7,0.5-5.4,0.8-8.2l0.2-2l0.1-1c0-0.3,0.1-0.8,0.3-1.1c0.7-1.5,2.4-2.2,3.8-1.7
						c0,0,0,0,0,0.1l0,0c-1.4,0.1-2.5,0.9-2.9,2c-0.1,0.3-0.2,0.5-0.2,0.9l-0.2,1l-0.4,2C249.3,61.1,248.8,63.8,248.2,66.5
						C248.3,66.5,248.3,66.5,248.2,66.5L248.2,66.5z"/>
				</g>
				<g>
					<path class="st13" d="M227.7,69.4c0.6-5,1.2-10,1.8-14.9c0.3-2.5,0.6-5,1-7.5c0.1-0.6,0.2-1.2,0.4-1.9s0.6-1.3,1.1-1.7
						c0.5-0.5,1.1-0.8,1.7-1c0.6-0.2,1.3-0.2,1.9,0c0,0,0,0,0,0.1l0,0c-1.2,0-2.4,0.5-3.2,1.4c-0.4,0.4-0.6,1-0.8,1.5
						c-0.1,0.5-0.1,1.2-0.2,1.8c-0.3,2.5-0.8,5-1.2,7.4C229.5,59.5,228.7,64.5,227.7,69.4C227.8,69.4,227.8,69.5,227.7,69.4
						L227.7,69.4z"/>
				</g>
				<g>
					<path class="st13" d="M238.9,78.8c-0.2-0.4-0.4-0.9-0.6-1.3c-0.3-0.4-0.5-0.8-0.8-1.2c-0.6-0.8-1.3-1.4-2.1-1.9
						s-1.7-0.8-2.6-1.1c-0.9-0.3-1.8-0.5-2.8-0.6l0,0c0,0,0,0,0-0.1l0,0c1-0.4,2-0.4,3-0.2c1,0.2,2,0.7,2.8,1.4
						c0.8,0.7,1.5,1.4,2,2.3c0.3,0.4,0.4,0.9,0.7,1.3C238.7,77.8,238.8,78.3,238.9,78.8C239,78.7,239,78.8,238.9,78.8L238.9,78.8
						L238.9,78.8z"/>
				</g>
			</g>
		</g>
		<g>
			<g>
				<path class="st11" d="M193.5,76.7c-3.6,1.9-7.3,3.9-10.9,5.8l-4.8-8.8c3.7-2,7.3-4,11-5.9L193.5,76.7z"/>
				<path class="st12" d="M161.4,116c7.1,10.9,17.2,23.3,26.2,33.2c4.4,4.8,2,9.9-1.1,12.7l-0.7,0.7c-3,2.9-9.3,1-13.6-4.3
					c-8.8-10.8-17.1-22-24.3-34.3c-3.6-6.2-6.9-12.6-9.1-20.1l-0.1-0.3l-0.1-0.2c-0.1-0.3-0.2-0.7-0.2-1c-0.1-0.7-0.1-1.3,0-1.8
					c0-0.3,0.1-0.6,0.1-0.8c0-0.2,0.1-0.4,0.2-0.6c0.5-1.6,1-2.4,1.5-3c0.9-1.3,1.8-2.1,2.5-2.8c1.6-1.5,3.1-2.6,4.6-3.7
					c3-2.1,6-4,9-5.8c5.9-3.6,11.9-7,17.9-10.3l7-3.7l6.7,12.6l-6.7,3.9c-5.8,3.4-11.5,6.8-17,10.4c-2.7,1.9-5.5,3.8-7.9,5.7
					c-1.2,1-0.6,0.3-1.5,1.2L161.4,116z"/>
			</g>
			<g>
				<path class="st8" d="M208.9,76c-5.8,5-14.5,4.4-19.5-1.4s-4.4-14.5,1.4-19.5c5.8-5,14.5-4.4,19.5,1.4
					C215.3,62.3,214.7,71,208.9,76z"/>
				<path class="st8" d="M204.3,78.5l16.3-5.3c2.1-0.7,3.2-2.9,2.5-4.9c-0.7-2.1-2.9-3.2-4.9-2.5l-16.3,5.3L204.3,78.5z"/>
				<path class="st8" d="M213,65.4l3.8-23.6c0.3-2.1-1.1-4.1-3.2-4.5c-2.1-0.3-4.1,1.1-4.5,3.2l-3.8,23.6L213,65.4z"/>
				<path class="st8" d="M206.5,61.2l3.8-23.6c0.3-2.1-1.1-4.1-3.2-4.5c-2.1-0.3-4.1,1.1-4.5,3.2L198.8,60L206.5,61.2z"/>
				<path class="st8" d="M200.2,63.8l3.8-23.6c0.3-2.1-1.1-4.1-3.2-4.5c-2.1-0.3-4.1,1.1-4.5,3.2l-3.8,23.6L200.2,63.8z"/>
				<path class="st8" d="M193,64.4l3-19.1c0.3-1.7-0.9-3.3-2.6-3.6c-1.7-0.3-3.3,0.9-3.6,2.6l-3,19.1L193,64.4z"/>
				<g>
					<path class="st13" d="M207.4,55.7c0.5-4,1-8.1,1.6-12.1c0.3-2,0.5-4.1,0.9-6c0.2-0.9,0-1.8-0.5-2.6s-1.3-1.4-2.3-1.7
						c0,0,0,0,0-0.1l0,0c1,0,2.1,0.5,2.8,1.4c0.7,0.8,1.1,2,0.9,3.2c-0.3,2-0.7,4-1.1,6C209,47.7,208.3,51.7,207.4,55.7
						C207.5,55.7,207.4,55.7,207.4,55.7L207.4,55.7z"/>
				</g>
				<g>
					<path class="st13" d="M201.6,54.6c0.4-3.4,0.8-6.9,1.3-10.3l0.3-2.6l0.2-1.3c0.1-0.5,0.1-0.8,0.1-1.2c-0.1-1.5-1.1-3-2.8-3.5
						c0,0,0,0,0-0.1l0,0c1.8,0,3.6,1.6,3.8,3.5c0.1,1-0.2,1.8-0.3,2.7l-0.5,2.5C203.1,47.8,202.4,51.2,201.6,54.6
						C201.7,54.7,201.7,54.7,201.6,54.6C201.7,54.7,201.6,54.6,201.6,54.6z"/>
				</g>
				<g>
					<path class="st13" d="M194.2,56.5c0.3-2.7,0.6-5.4,0.9-8.1l0.2-2l0.1-1c0.1-0.3,0.1-0.6,0.1-0.9c0-1.2-0.8-2.3-2.1-2.8
						c0,0,0,0,0-0.1l0,0c1.4-0.1,2.9,1.2,3.1,2.8c0.1,0.4,0,0.8,0,1.2l-0.2,1l-0.4,2C195.5,51.2,194.9,53.9,194.2,56.5
						C194.3,56.6,194.3,56.6,194.2,56.5C194.3,56.6,194.2,56.6,194.2,56.5z"/>
				</g>
				<g>
					<path class="st13" d="M212.9,65.4c0.6-5,1.3-9.9,2-14.9c0.3-2.5,0.6-5,1.1-7.4c0.1-0.6,0.3-1.3,0.3-1.8c0-0.6-0.1-1.1-0.3-1.7
						c-0.4-1.1-1.4-1.9-2.6-2.3c0,0,0,0,0-0.1c0,0,0,0,0.1,0c0.6,0,1.3,0.2,1.8,0.6c0.6,0.4,1,0.9,1.4,1.5c0.3,0.6,0.5,1.3,0.5,2
						s-0.1,1.3-0.2,1.9c-0.3,2.5-0.8,4.9-1.3,7.4C214.9,55.5,214,60.5,212.9,65.4C213,65.4,213,65.4,212.9,65.4
						C213,65.4,212.9,65.4,212.9,65.4z"/>
				</g>
				<g>
					<path class="st13" d="M199.5,71c0.3-0.4,0.6-0.8,0.9-1.2c0.3-0.4,0.6-0.8,1-1.1c0.7-0.7,1.6-1.2,2.6-1.6s2-0.6,3.1-0.5
						c1,0.1,2,0.5,2.8,1.1c0,0,0,0,0,0.1l0,0l0,0c-1-0.1-1.9-0.2-2.9-0.2c-0.9,0-1.9,0-2.8,0.3c-0.9,0.3-1.8,0.6-2.5,1.2
						c-0.4,0.2-0.7,0.6-1.1,0.9C200.3,70.3,200,70.7,199.5,71L199.5,71C199.6,71.1,199.6,71.1,199.5,71L199.5,71z"/>
				</g>
			</g>
		</g>
		<g>
			<path class="st12" d="M229.6,267.8l-5.7-48.9l11.3-30.1c0.5-1.2,0.6-2.6,0.5-3.9l-3.1-31.9c0,0-10.3-4.1-25-5.6
				c-21.4-3.4-23.9-1.8-23.9-1.8L172,174.1c-0.8,1.9-1.1,3.9-1,6l1.9,31L153,256.2l0.5,1c5.6,2.7,20.2,10.2,29.7,13.4l7.2-14
				l1.8,15.8c9.9,0.4,30.7-3.5,36.9-4.6H229.6z"/>
		</g>
		<polygon class="st14" points="188.3,147.5 198.9,210.6 226.3,153.2 		"/>
		<g>
			<path class="st15" d="M207.2,146.7c-2.7-2.3-11.4-8-20.8,2.7c-0.2,0.3-0.4,0.7-0.4,1l0.7,21.7c0,1.2,1.4,1.7,2.1,0.8
				c2.9-3.8,8.9-10.1,16.4-10.9c0.2,0,0.4,0,0.6,0.1c6.9,2.9,10.7,10.8,12.4,15.2c0.4,1.1,1.8,1,2.2-0.1l7.1-20.5
				c0.1-0.4,0.1-0.8,0-1.1c-5.8-13.1-15.8-10.2-19.1-8.8C208,147.1,207.6,147,207.2,146.7z"/>
			<path class="st14" d="M207.5,145.4c-2.6-2.2-10.8-7.6-19.7,2.6c-0.2,0.3-0.4,0.6-0.3,1l0.7,20.5c0,1.1,1.3,1.6,2,0.7
				c2.8-3.6,8.4-9.6,15.4-10.3c0.2,0,0.4,0,0.5,0.1c6.5,2.8,10.1,10.2,11.7,14.4c0.4,1,1.7,1,2.1-0.1l6.7-19.4c0.1-0.3,0.1-0.7,0-1
				c-5.5-12.3-14.9-9.6-18-8.3C208.2,145.7,207.8,145.6,207.5,145.4z"/>
		</g>
		<path class="st8" d="M207.2,157.9H207c-6.1-0.9-10.4-6.7-9.4-12.8l6.6-43.4c0.9-6.1,6.7-10.4,12.8-9.4h0.2
			c6.1,0.9,10.4,6.7,9.4,12.8l-6.6,43.4C219.1,154.6,213.4,158.8,207.2,157.9z"/>
		<path class="st13" d="M221,141.8l0.3-1.8l-22.4-3.4l-0.3,2.1C202.2,141.4,209.3,144.8,221,141.8z"/>
		<g>
			<g>
				<g>
					<path class="st16" d="M254.2,90.8c-1.8,2.2-3.5,5.1-4.3,7.3c-0.5,1.8-0.9,4.6-0.2,5.2c0.3,0.3,1.1,0,1.5-0.1
						c2.1-0.9,3.8-3.4,4.3-6.4C256,94.4,255.5,92.1,254.2,90.8z"/>
					<path class="st16" d="M260.8,83.3c-3.1-1.1-8.6,2.1-8.6,2.1c-6.5,3.9-6.4,26.5-1.4,26.4s5.6-7.2,5.6-7.2
						c2.6-1.1,5.7-7.3,5.7-7.3C268.1,85.9,260.8,83.3,260.8,83.3z M262,91.2c-0.3,0.9-0.8,1.6-1.2,2.4l-1.5-0.9
						c0.4-0.7,0.8-1.3,1.1-2c0.2-0.5,0.4-1.2,0.2-2c-0.1-0.6-0.5-1.1-1-1.2c-0.3-0.1-0.7-0.1-1.2,0c-0.8,0.2-1.9,1-2.9,2
						c1.7,1.7,2.4,4.5,1.9,7.6c-0.6,3.6-2.7,6.6-5.4,7.7c-0.8,0.3-1.5,0.5-2.2,0.4c-0.5-0.1-0.8-0.3-1.2-0.6c-1.8-1.6-0.6-6.2-0.3-7
						c1.3-4.1,6.1-11,9.6-11.8c0.5-0.1,1.3-0.3,2.1,0c1,0.3,1.9,1.3,2.2,2.4C262.5,89.1,262.4,90.2,262,91.2z"/>
					<path class="st13" d="M260.1,85.8c-0.8-0.3-1.6-0.1-2.1,0c-3.6,0.8-8.3,7.7-9.6,11.8c-0.3,0.9-1.5,5.4,0.3,7
						c0.3,0.3,0.7,0.5,1.2,0.6c0.6,0.1,1.3,0,2.2-0.4c2.7-1.1,4.8-4.1,5.4-7.7c0.5-3.1-0.2-5.9-1.9-7.6c1.1-1.1,2.1-1.8,2.9-2
						c0.5-0.1,0.9-0.1,1.2,0c0.5,0.1,0.9,0.6,1,1.2c0.2,0.7,0,1.5-0.2,2c-0.3,0.7-0.7,1.4-1.1,2l1.5,0.9c0.5-0.7,0.9-1.5,1.2-2.4
						c0.4-1,0.5-2.1,0.2-3C261.9,87.1,261.1,86.1,260.1,85.8z M255.6,96.9c-0.5,3-2.2,5.5-4.3,6.4c-0.4,0.2-1.2,0.4-1.5,0.1
						c-0.7-0.6-0.3-3.5,0.2-5.2c0.7-2.2,2.4-5.1,4.3-7.3C255.5,92.1,256,94.4,255.6,96.9z"/>
				</g>
				<g>
					<path class="st16" d="M180,79.6c1.1,2.7,1.9,5.9,1.9,8.3c0,1.8-0.5,4.6-1.4,5c-0.4,0.2-1-0.3-1.4-0.6c-1.8-1.5-2.7-4.4-2.2-7.4
						C177.2,82.4,178.4,80.5,180,79.6z"/>
					<path class="st16" d="M170.5,83.4c0,0,1.1,6.8,3.3,8.6c0,0-1.5,7,3.2,8.6c4.8,1.6,11.5-20,6.5-25.7c0,0-4.3-4.7-7.6-4.6
						C176,70.4,168.2,70.7,170.5,83.4z M173.1,74.7c0.6-1,1.7-1.7,2.8-1.7c0.8,0,1.6,0.4,2,0.6c3.2,1.8,5.6,9.8,5.7,14.2
						c0,0.9-0.1,5.6-2.4,6.6c-0.4,0.2-0.8,0.2-1.3,0.2c-0.6-0.1-1.3-0.4-1.9-1c-2.3-1.9-3.4-5.3-2.9-9c0.4-3.1,1.9-5.6,4.1-6.7
						c-0.7-1.3-1.4-2.4-2.2-2.8c-0.5-0.3-0.8-0.4-1.2-0.4c-0.5,0-1,0.3-1.3,0.8c-0.4,0.6-0.4,1.4-0.4,1.9c0,0.7,0.2,1.5,0.4,2.3
						l-1.7,0.4c-0.2-0.8-0.4-1.7-0.5-2.6C172.4,76.5,172.6,75.5,173.1,74.7z"/>
					<path class="st13" d="M173.1,74.7c-0.5,0.8-0.7,1.8-0.7,2.9c0,0.9,0.3,1.8,0.5,2.6l1.7-0.4c-0.2-0.8-0.4-1.5-0.4-2.3
						c0-0.5,0-1.3,0.4-1.9c0.3-0.5,0.8-0.8,1.3-0.8c0.3,0,0.7,0.1,1.2,0.4c0.8,0.4,1.5,1.5,2.2,2.8c-2.1,1.1-3.7,3.6-4.1,6.7
						c-0.5,3.6,0.6,7.1,2.9,9c0.7,0.6,1.3,0.9,1.9,1c0.5,0.1,0.9,0,1.3-0.2c2.2-1,2.4-5.7,2.4-6.6c-0.1-4.3-2.5-12.3-5.7-14.2
						c-0.5-0.3-1.2-0.6-2-0.6C174.8,73.1,173.7,73.7,173.1,74.7z M180,79.6c1.1,2.7,1.9,5.9,1.9,8.3c0,1.8-0.5,4.6-1.4,5
						c-0.4,0.2-1-0.3-1.4-0.6c-1.8-1.5-2.7-4.4-2.2-7.4C177.2,82.4,178.4,80.5,180,79.6z"/>
				</g>
			</g>
			<path class="st8" d="M208.8,140.2L208.8,140.2c-17-2.6-34-20.8-31.4-37.8l8.6-56.5c2.6-17,18.5-28.7,35.5-26.2l11,1.7
				c17,2.6,28.7,18.5,26.2,35.5l-8.6,56.5C247.4,130.4,225.8,142.8,208.8,140.2z"/>
			<g>
				<path class="st17" d="M193,68.4c-0.6,0.2-1-0.6-0.5-1c2.2-1.6,4.8-2.4,7.6-2.3s5.3,1.1,7.4,2.7c0.5,0.4,0.1,1.1-0.5,0.9
					c-2.1-0.7-4.5-1.1-7-1.2C197.5,67.6,195.1,67.9,193,68.4z"/>
				<path class="st17" d="M245.9,76.4c0.5,0.3,1.1-0.3,0.7-0.8c-1.7-2.1-3.9-3.7-6.5-4.5c-2.7-0.7-5.4-0.6-7.9,0.4
					c-0.6,0.2-0.4,1,0.2,1c2.2,0,4.6,0.3,7,1C241.8,74.3,244,75.3,245.9,76.4z"/>
			</g>
			<path class="st13" d="M214.3,103.3l3.8-0.1c0.7,0.1,1.2-0.7,0.8-1.3l-3.2-4.3c-0.3-0.4-0.8-0.4-1.2-0.2l-4.3,3.2
				c-0.6,0.4-0.4,1.4,0.4,1.5L214.3,103.3z"/>
			<g>
				<g>
					<g>
						<circle class="st18" cx="201.3" cy="79.6" r="4.4"/>
					</g>
				</g>
			</g>
			<g>
				<g>
					<g>
						<circle class="st18" cx="232.7" cy="84.4" r="4.4"/>
					</g>
				</g>
			</g>
			<path class="st19" d="M273.2,63.4c-1.3-0.2-2.9-0.6-4.6-1.3c1.6-10.9,1.6-29.8-14.3-41.1c-5.1-3.7-25.5-13.1-40.7-5.4
				c0,0,0-3.9,1.5-4.8c0,0-6.3-0.3-9,5.7c0,0-12.1-4.6-15.9,0.7c0,0,3.5,0.1,5.2,1.7c-21.9,6.5-19.7,37.6-19.7,37.6
				c0.5,4.1-0.2,15.1,5.3,21.7l3.4-20c0,0,7.8-18.8,13.1-18.8c0,0,0.3,2.6,2.3,6.1c2.5,8,8.8,18.9,25,19.6c0,0-8.8-2.6-12.2-8
				c8.1,4.3,20.6,7.7,39.7,7.6c0,0,1.8,0.2,4.5,0.3c0.2,1,0.2,2,0,3c-1.5,9.6-0.5,0.4-3.4,22.2c0,0,10.1-9,13.3-19.7
				c0,0,0.3-0.1,0.9-3.5c1.9-0.1,4-1.3,5.7-2.2C274.1,64.5,273.9,63.5,273.2,63.4z"/>
			<g>
				<path class="st19" d="M266.8,24c-1.7,11.5-18.6,11.1-29.4,9.5c-10.8-1.6-11.5-3.9-9.7-15.4c1.7-11.5,11.9-19.5,22.7-17.9
					C261.2,1.8,268.6,12.5,266.8,24z"/>
				<path class="st20" d="M229.3,14.3c7.3-3.4,14.8-3.8,20.8-0.4s9.5,10,10.5,18c-3-5-7.6-9.6-13.4-12.8S235.2,14.2,229.3,14.3z"/>
			</g>
			<g>
				<path class="st13" d="M205.2,128.8c1.3,2,3.3,3.4,5.6,3.7c2.3,0.4,4.6-0.4,6.5-1.9c-1.8,0.5-4,0.7-6.3,0.3
					C208.8,130.6,206.8,129.8,205.2,128.8z"/>
				<path class="st13" d="M195.8,109.3c-1.9,1.5-3.1,3.6-3.3,5.9c-0.2,2.4,0.8,4.6,2.4,6.3c-0.7-1.8-1-3.9-0.8-6.2
					C194.3,113,194.9,111,195.8,109.3z"/>
				<path class="st13" d="M232.1,114.8c1.3,2,1.9,4.3,1.4,6.6c-0.5,2.3-2.1,4.2-4.2,5.3c1.2-1.5,2.1-3.5,2.6-5.7
					S232.4,116.6,232.1,114.8z"/>
			</g>
			<g>
				<path class="st21" d="M211.3,120.2c-7-1.1-10-4.7-10.2-4.9l1.4-1.1l-0.7,0.5l0.7-0.5c0.1,0.1,6.2,7.4,22.2,3.2l0.4,1.7
					C219.4,120.6,214.8,120.8,211.3,120.2z"/>
			</g>
		</g>
		<g>
			<polygon class="st6" points="177.9,60.8 184.4,58.2 183.6,63.6 177.2,65.3 			"/>
			<polygon class="st22" points="178.5,66 183.5,64 183,67.1 178.1,68.4 			"/>
		</g>
		<g>
			<polygon class="st6" points="262.5,71.1 257.1,66.8 256.3,72.2 261.8,75.6 			"/>
			<polygon class="st22" points="260.4,76 256.2,72.6 255.8,75.7 260,78.4 			"/>
		</g>
		<g>
			<g class="st23">
				<path class="st24" d="M243,81.8c-0.5-0.1-1.1-0.2-1.6-0.3c-3.7-0.6-6.9-0.5-9.6,0.2c-2.2,0.4-4.9,1.5-7.8,0.6
					c-2.7-0.9-3.6-1.2-4.5-1.3c-0.9-0.1-1.8-0.1-4.6,0c-3,0-5.2-1.8-7.2-2.9c-2.4-1.5-5.4-2.5-9.1-3.1c-0.5-0.1-1.1-0.2-1.6-0.2
					c-2.2-0.3-8.9-0.9-22.3,1.8l-0.5,3.2c0,0,1.5,0.8,1.3,3c-0.6,9.2,0.3,12.2,1.1,14.4c0.2,0.6,0.4,1.2,0.7,1.7v-0.1
					c0.5,1.1,1.1,2.1,1.8,3c2.6,3.3,6.6,5.4,11.5,6.1c0.4,0.1,0.9,0.1,1.3,0.2c5.1,0.5,10.9-1.8,15.2-5.9c2.4-2.3,6.2-7,7.6-16.3
					c0,0,0.8-1.9,4.3-1.4c3.5,0.6,3.8,2.6,3.8,2.6c-1.4,9.2,0.8,14.8,2.4,17.8c2.9,5.2,7.8,9.1,12.7,10.1c0.4,0.1,0.9,0.2,1.3,0.2
					c5,0.8,9.4-0.1,12.8-2.4c1-0.7,1.8-1.4,2.6-2.3v0.1c0.4-0.4,0.8-0.9,1.1-1.4c1.4-1.9,3.2-4.5,5.3-13.4c0.5-2.1,2.2-2.4,2.2-2.4
					l0.5-3.2C251.8,83.6,245.2,82.2,243,81.8z M192.1,106.3c-8.8-0.9-16.3-6.2-14.6-20.1c0,0,1-6.8,7.2-8.9
					c4.7-1.6,25.8-2.2,26.6,9.7C212.2,98.9,200.7,107.2,192.1,106.3z M238.3,113.3c-8.5-1.7-17-13-12.7-24.1s24.3-4.3,28.3-1.4
					c5.3,3.9,4.3,10.7,4.3,10.7C255.7,112.2,246.9,115.1,238.3,113.3z"/>
			</g>
			<g>
				<path class="st24" d="M243.5,78.5c-0.5-0.1-1.1-0.2-1.6-0.3c-3.7-0.6-6.9-0.5-9.6,0.2c-2.2,0.4-4.9,1.5-7.8,0.6
					c-2.7-0.9-3.6-1.2-4.5-1.3c-0.9-0.1-1.8-0.1-4.6,0c-3,0-5.2-1.8-7.2-2.9c-2.4-1.5-5.4-2.5-9.1-3.1c-0.5-0.1-1.1-0.2-1.6-0.2
					c-2.2-0.3-8.9-0.9-22.3,1.8l-0.5,3.2c0,0,1.5,0.8,1.3,3c-0.6,9.2,0.3,12.2,1.1,14.4c0.2,0.6,0.4,1.2,0.7,1.7v-0.1
					c0.5,1.1,1.1,2.1,1.8,3c2.6,3.3,6.6,5.4,11.5,6.1c0.4,0.1,0.9,0.1,1.3,0.2c5.1,0.5,10.9-1.8,15.2-5.9c2.4-2.3,6.2-7,7.6-16.3
					c0,0,0.8-1.9,4.3-1.4c3.5,0.6,3.8,2.6,3.8,2.6c-1.4,9.2,0.8,14.8,2.4,17.8c2.9,5.2,7.8,9.1,12.7,10.1c0.4,0.1,0.9,0.2,1.3,0.2
					c5,0.8,9.4-0.1,12.8-2.4c1-0.7,1.8-1.4,2.6-2.3v0.1c0.4-0.4,0.8-0.9,1.1-1.4c1.4-1.9,3.2-4.5,5.3-13.4c0.5-2.1,2.2-2.4,2.2-2.4
					l0.5-3.2C252.3,80.3,245.7,78.8,243.5,78.5z M192.6,103c-8.8-0.9-16.3-6.2-14.6-20.1c0,0,1-6.8,7.2-8.9
					c4.7-1.6,25.8-2.2,26.6,9.7C212.7,95.6,201.2,103.8,192.6,103z M238.8,110c-8.5-1.7-17-13-12.7-24.1s24.3-4.3,28.3-1.4
					c5.3,3.9,4.3,10.7,4.3,10.7C256.2,108.9,247.4,111.7,238.8,110z"/>
			</g>
		</g>
		<g>
			<g class="st23">
				<path class="st24" d="M243,81.8c-0.5-0.1-1.1-0.2-1.6-0.3c-3.7-0.6-6.9-0.5-9.6,0.2c-2.2,0.4-4.9,1.5-7.8,0.6
					c-2.7-0.9-3.6-1.2-4.5-1.3c-0.9-0.1-1.8-0.1-4.6,0c-3,0-5.2-1.8-7.2-2.9c-2.4-1.5-5.4-2.5-9.1-3.1c-0.5-0.1-1.1-0.2-1.6-0.2
					c-2.2-0.3-8.9-0.9-22.3,1.8l-0.5,3.2c0,0,1.5,0.8,1.3,3c-0.6,9.2,0.3,12.2,1.1,14.4c0.2,0.6,0.4,1.2,0.7,1.7v-0.1
					c0.5,1.1,1.1,2.1,1.8,3c2.6,3.3,6.6,5.4,11.5,6.1c0.4,0.1,0.9,0.1,1.3,0.2c5.1,0.5,10.9-1.8,15.2-5.9c2.4-2.3,6.2-7,7.6-16.3
					c0,0,0.8-1.9,4.3-1.4c3.5,0.6,3.8,2.6,3.8,2.6c-1.4,9.2,0.8,14.8,2.4,17.8c2.9,5.2,7.8,9.1,12.7,10.1c0.4,0.1,0.9,0.2,1.3,0.2
					c5,0.8,9.4-0.1,12.8-2.4c1-0.7,1.8-1.4,2.6-2.3v0.1c0.4-0.4,0.8-0.9,1.1-1.4c1.4-1.9,3.2-4.5,5.3-13.4c0.5-2.1,2.2-2.4,2.2-2.4
					l0.5-3.2C251.8,83.6,245.2,82.2,243,81.8z M192.1,106.3c-8.8-0.9-16.3-6.2-14.6-20.1c0,0,1-6.8,7.2-8.9
					c4.7-1.6,25.8-2.2,26.6,9.7C212.2,98.9,200.7,107.2,192.1,106.3z M238.3,113.3c-8.5-1.7-17-13-12.7-24.1s24.3-4.3,28.3-1.4
					c5.3,3.9,4.3,10.7,4.3,10.7C255.7,112.2,246.9,115.1,238.3,113.3z"/>
			</g>
			<g>
				<path class="st25" d="M243.5,78.5c-0.5-0.1-1.1-0.2-1.6-0.3c-3.7-0.6-6.9-0.5-9.6,0.2c-2.2,0.4-4.9,1.5-7.8,0.6
					c-2.7-0.9-3.6-1.2-4.5-1.3c-0.9-0.1-1.8-0.1-4.6,0c-3,0-5.2-1.8-7.2-2.9c-2.4-1.5-5.4-2.5-9.1-3.1c-0.5-0.1-1.1-0.2-1.6-0.2
					c-2.2-0.3-8.9-0.9-22.3,1.8l-0.5,3.2c0,0,1.5,0.8,1.3,3c-0.6,9.2,0.3,12.2,1.1,14.4c0.2,0.6,0.4,1.2,0.7,1.7v-0.1
					c0.5,1.1,1.1,2.1,1.8,3c2.6,3.3,6.6,5.4,11.5,6.1c0.4,0.1,0.9,0.1,1.3,0.2c5.1,0.5,10.9-1.8,15.2-5.9c2.4-2.3,6.2-7,7.6-16.3
					c0,0,0.8-1.9,4.3-1.4c3.5,0.6,3.8,2.6,3.8,2.6c-1.4,9.2,0.8,14.8,2.4,17.8c2.9,5.2,7.8,9.1,12.7,10.1c0.4,0.1,0.9,0.2,1.3,0.2
					c5,0.8,9.4-0.1,12.8-2.4c1-0.7,1.8-1.4,2.6-2.3v0.1c0.4-0.4,0.8-0.9,1.1-1.4c1.4-1.9,3.2-4.5,5.3-13.4c0.5-2.1,2.2-2.4,2.2-2.4
					l0.5-3.2C252.3,80.3,245.7,78.8,243.5,78.5z M192.6,103c-8.8-0.9-16.3-6.2-14.6-20.1c0,0,1-6.8,7.2-8.9
					c4.7-1.6,25.8-2.2,26.6,9.7C212.7,95.6,201.2,103.8,192.6,103z M238.8,110c-8.5-1.7-17-13-12.7-24.1s24.3-4.3,28.3-1.4
					c5.3,3.9,4.3,10.7,4.3,10.7C256.2,108.9,247.4,111.7,238.8,110z"/>
			</g>
		</g>
		<g>
			<g>
				<path class="st1" d="M275,64.8c-4.9-0.3-9.7-1.4-14.4-2.7c-4.7-1.4-9.3-3.3-13.6-5.6c-2.2-1.2-4.2-2.5-6.2-4
					c-2-1.4-3.9-3-5.6-4.7c-1.8-1.7-3.4-3.6-4.8-5.6c-1.5-2-2.7-4.1-3.8-6.3c2.5,4.2,5.6,8,9.2,11.3c3.6,3.3,7.6,6.1,11.8,8.4
					c4.2,2.4,8.7,4.2,13.4,5.7c2.3,0.8,4.6,1.4,7,2C270.2,63.9,272.6,64.4,275,64.8z"/>
			</g>
			<g>
				<path class="st1" d="M261.2,62.5c-4.9-0.3-9.7-1.4-14.4-2.7c-4.7-1.4-9.3-3.3-13.6-5.6c-2.2-1.2-4.2-2.5-6.2-4
					c-2-1.4-3.9-3-5.6-4.7c-1.8-1.7-3.4-3.6-4.8-5.6c-1.5-2-2.7-4.1-3.8-6.3c2.5,4.2,5.6,8,9.2,11.3c3.6,3.3,7.6,6.1,11.8,8.4
					c4.2,2.4,8.7,4.2,13.4,5.7c2.3,0.8,4.6,1.4,7,2C256.4,61.7,258.7,62.2,261.2,62.5z"/>
			</g>
		</g>
	</g>
	<g>
		<polygon class="st5" points="245.6,268.7 196.4,308.7 212,310.5 268.8,268.9 		"/>
		<polygon class="st5" points="245.6,264.2 196.4,304.2 212,305.9 268.8,264.3 		"/>
		<polygon class="st7" points="196.4,304.2 196.4,308.7 212,310.5 212,305.9 		"/>
		<polygon class="st7" points="268.8,264.3 268.8,268.9 212,310.5 212,305.9 		"/>
	</g>
</g>
</svg>
