<?xml version="1.0" encoding="utf-8"?>
<!-- Generator: Adobe Illustrator 22.1.0, SVG Export Plug-In . SVG Version: 6.00 Build 0)  -->
<svg version="1.1" id="Layer_1" xmlns="http://www.w3.org/2000/svg" xmlns:xlink="http://www.w3.org/1999/xlink" x="0px" y="0px"
	 viewBox="0 0 175.9 478" style="enable-background:new 0 0 175.9 478;" xml:space="preserve">
<style type="text/css">
	.st0{fill:#5A6168;}
	.st1{fill:#FFD7BE;}
	.st2{fill:#9A8479;}
	.st3{fill:#B5B8BB;}
	.st4{fill:none;stroke:#94989D;stroke-width:0.85;stroke-linecap:round;stroke-linejoin:round;}
	.st5{fill:#FACEA8;}
	.st6{fill:#EBC19C;}
	.st7{fill:#FFFFFF;}
	.st8{fill:#F0D0B3;}
	.st9{fill:#4C5258;}
	.st10{fill:#F5E0CD;}
	.st11{fill:#C3996B;}
	.st12{fill:#A87C4F;}
	.st13{fill:#DEB18A;}
	.st14{fill:#58595B;}
	.st15{fill:#F9EC31;}
	.st16{fill:#DFE0E0;}
</style>
<title>img_teenage_girl</title>
<path class="st0" d="M61.6,280.8c2.2-3.8,8.1-7,13-7h27.2c4.9,0,10.8,3.2,13,7s2.2,10.6,0.1,15l-9.3,19c-2.6,4.7-7.5,7.7-12.9,8H84
	c-5.4-0.3-10.3-3.3-12.9-8l-9.4-19C59.4,291.4,59.4,284.6,61.6,280.8z"/>
<path class="st1" d="M51.6,470.4c14.3-0.4,23.5-3.5,26.6-4.8v-0.1l-0.1-19h-12c-0.3,4.8-0.4,13.6-19,16.8c-2.7,0.5-5.7,0.9-8.5,1.5
	l-1.3,0.3C35.9,467.9,37.5,470.8,51.6,470.4z"/>
<path class="st2" d="M80,470.5v-0.1c0.1-0.6-0.8-5.2-0.6-5.3c0.1-0.1-0.4,0.2-1.2,0.5v-0.1v0.1c-3.1,1.2-12.3,4.4-26.6,4.8
	s-15.7-2.5-14.3-5.2l1.3-0.3l-1.2,0.2c-0.6,0.1-1.3,0.2-1.9,0.4c-1.5,0.4-3.2,0.6-4.9,0.9c-4,0.7-7.7,1.6-8.6,5.3
	c-1,4.4,4.8,6.3,8.1,6.3c13.7,0.1,22.6-0.9,36.3-2.1l0.8,2.1H79C79.1,475.5,80.3,473,80,470.5z"/>
<path class="st1" d="M85.8,470.4c14.3-0.4,23.5-3.5,26.6-4.8v-0.1l-0.1-19h-12c-0.3,4.8-0.4,13.6-19,16.8c-2.7,0.5-5.7,0.9-8.5,1.5
	l-1.3,0.3C70.1,467.9,71.7,470.8,85.8,470.4z"/>
<path class="st2" d="M114.2,470.5v-0.1c0.1-0.6-0.8-5.2-0.6-5.3c0.1-0.1-0.4,0.2-1.2,0.5v-0.1v0.1c-3.1,1.2-12.3,4.4-26.6,4.8
	s-15.7-2.5-14.3-5.2l1.3-0.3l-1.2,0.2c-0.6,0.1-1.3,0.2-1.9,0.4c-1.5,0.4-3.2,0.6-4.9,0.9c-4,0.7-7.7,1.6-8.6,5.3
	c-0.9,4.4,4.8,6.3,8.1,6.3c13.7,0.1,22.6-0.9,36.3-2.1l0.8,2.1h11.8C113.3,475.5,114.5,473,114.2,470.5z"/>
<path class="st0" d="M81.5,276.5L79,426.6c-0.2,1.8,0,4.3-1.1,5.7c-0.1,0.2-0.2,0.4-0.3,0.6c-0.2,1.1,1.2,1.9,1.2,3.1
	c0,0.3-0.2,0.5-0.4,0.7c-0.7,1.7,0,5.9,0.1,7.8l-13.3,0.1c0-1.6-0.5-5.8,0.3-7.2c0.4-0.8,0.6-0.8,0.4-1.7c-0.3-1.2-1.6-3-1.4-4.3
	c0.1-0.8,0.8-1.5,0.8-2.3c0.2-1.1,0.2-2.1,0.1-3.2c-0.3-0.8-0.4-6.5-0.5-7.3L56.2,277c-0.5-8.4,5.1-15.4,12.3-15.6
	C75.7,261.3,81.6,268.1,81.5,276.5z"/>
<polygon class="st3" points="64.4,453.6 79.6,453.2 79.7,441.2 63.8,441.6 "/>
<path class="st4" d="M76.7,438.4c0,0-7.9-3.8-9.4-11.5"/>
<path class="st0" d="M120.3,276.8l-6.6,149.9c-0.2,1.8-0.1,4.3-1.2,5.7c-0.1,0.2-0.2,0.4-0.3,0.6c-0.3,1.1,1.2,1.9,1.1,3.1
	c0,0.3-0.2,0.5-0.4,0.7c-0.7,1.7-0.2,5.9-0.2,7.8l-13.3-0.3c0-1.6-0.3-5.8,0.5-7.2c0.4-0.8,0.6-0.8,0.4-1.7c-0.2-1.3-1.5-3-1.2-4.3
	c0.2-0.8,0.8-1.4,0.8-2.3c0.2-1.1,0.2-2.1,0.1-3.2c-0.2-0.8-0.2-6.5-0.3-7.3L95,276.6c-0.2-8.4,5.5-15.2,12.8-15.2
	S120.6,268.4,120.3,276.8z"/>
<polygon class="st3" points="98.3,453.3 113.5,453.4 113.9,441.4 98,441.3 "/>
<path class="st4" d="M111,438.5c0,0-7.8-4.1-9.1-11.7"/>
<path class="st5" d="M121.3,197.9c2.3-5,8.3-24.3,8.3-24.3c-7.6-15.4-35.3-12.3-40.8-12.8l0,0h-0.5h-0.5l0,0
	c-5.5,0.5-33.4-2.6-41,12.8c0,0,6.1,19.3,8.5,24.3l-5.6,155.8h0.1c-0.7,3.2,1.4,6.4,4.6,7.1c2.6,0.5,5.3-0.7,6.5-3.1
	c-0.3,3.3,2.1,6.2,5.4,6.5c2.7,0.3,5.3-1.4,6.2-4h0.1c-0.3,3.3,2.1,6.2,5.4,6.5c2.8,0.3,5.4-1.5,6.3-4.2l0,0c0.7,3.2,3.8,5.3,7,4.6
	c2.5-0.5,4.4-2.6,4.7-5.2l0,0c1.1,3.1,4.5,4.7,7.6,3.6c2.5-0.9,4.1-3.4,3.9-6.1c1.3,3,4.8,4.4,7.8,3.1c2.5-1.1,4-3.8,3.5-6.5l0,0
	c1.2,2.7,3.7,4.3,5.9,3.7c2.4-0.7,3.8-3.8,3-7L121.3,197.9z"/>
<path class="st6" d="M101.1,153.4V151H76.5v2.9C80.8,156.7,88.9,159.8,101.1,153.4z"/>
<path class="st7" d="M87.7,176.5h1.6c6.8,0,12.3-5.5,12.3-12.2v-3.2c-5.7-0.3-10.5,0-12.5-0.1l0,0h-0.5h-0.5l0,0
	c-2,0.2-6.9-0.1-12.7,0.1v3.2C75.4,171,80.9,176.5,87.7,176.5z"/>
<path class="st8" d="M88.4,101.7L88.4,101.7c6.8,0,12.3,5.5,12.3,12.3v47.4c0,6.8-5.5,12.3-12.3,12.3l0,0c-6.8,0-12.3-5.5-12.3-12.3
	V114C76.1,107.2,81.6,101.7,88.4,101.7z"/>
<path class="st9" d="M34.4,53.3c0,0-6.9,49.4-19.9,57.6c0,0-1.8,6.3,7.7,13.1c9.6,6.8,87.7,37.9,138.1-5.8c0,0-0.4,0.3-2.8-3.3
	c-9.4-14.4-12.2-38.7-12.9-51.4S34.4,53.3,34.4,53.3z"/>
<path class="st8" d="M133.8,88.1c-1.8,2.9-3,6.1-3.7,9.4c-0.3,2.2-0.2,5.6,0.7,6.2c0.4,0.3,1.2-0.1,1.7-0.4c2.4-1.4,3.9-4.7,4-8.3
	C136.7,92.4,135.7,89.8,133.8,88.1z"/>
<path class="st8" d="M140.2,77.9c-3.8-0.7-9.8,4-9.8,4c-6.9,5.8-2.9,32.5,3,31.5c5.9-1,5.4-9.6,5.4-9.6c2.9-1.8,5.5-9.6,5.5-9.6
	C149.3,79.8,140.2,77.9,140.2,77.9z M143.1,87.1c-0.2,1-0.6,2.1-1,3l-1.9-0.8c0.4-0.8,0.7-1.7,0.9-2.6c0.2-0.8,0.1-1.6-0.1-2.3
	c-0.2-0.6-0.8-1.1-1.4-1.2c-0.5,0-1,0-1.4,0.3c-1.3,0.7-2.3,1.7-3.1,2.9c2.3,1.7,3.7,4.9,3.7,8.6c0,4.4-2,8.3-5,10.1
	c-0.7,0.5-1.6,0.8-2.4,0.8c-0.5,0-1.1-0.2-1.5-0.5c-2.4-1.6-1.8-7.2-1.6-8.3c0.8-5.1,5.2-14.1,9.3-15.7c0.8-0.3,1.7-0.5,2.5-0.4
	c1.3,0.3,2.5,1.2,3,2.4C143.3,84.7,143.4,86,143.1,87.1L143.1,87.1z"/>
<path class="st6" d="M139.8,81.1c-0.9-0.1-1.7,0-2.5,0.4c-4.1,1.6-8.4,10.6-9.3,15.7c-0.2,1.1-0.8,6.7,1.6,8.3
	c0.4,0.3,1,0.5,1.5,0.5c0.9-0.1,1.7-0.3,2.4-0.8c3-1.8,4.9-5.7,5-10.1c0-3.7-1.3-6.9-3.7-8.6c0.8-1.2,1.8-2.2,3.1-2.9
	c0.4-0.2,0.9-0.3,1.4-0.3c0.6,0.2,1.2,0.6,1.4,1.2c0.3,0.8,0.3,1.6,0.1,2.3c-0.2,0.9-0.5,1.8-0.9,2.6l1.9,0.8c0.5-1,0.8-2,1-3
	c0.3-1.2,0.2-2.4-0.3-3.6C142.2,82.3,141.1,81.4,139.8,81.1z M136.5,95c0,3.7-1.6,6.9-4,8.3c-0.5,0.3-1.3,0.7-1.7,0.4
	c-1-0.6-1-4-0.7-6.2c0.7-3.3,1.9-6.5,3.7-9.4C135.7,89.8,136.7,92.4,136.5,95L136.5,95z"/>
<path class="st8" d="M44.1,88.1c1.7,2.9,3,6.1,3.7,9.4c0.3,2.2,0.2,5.6-0.7,6.2c-0.4,0.3-1.2-0.1-1.7-0.4c-2.4-1.4-3.9-4.7-4-8.3
	C41.2,92.4,42.2,89.8,44.1,88.1z"/>
<path class="st8" d="M33.6,94.3c0,0,2.5,7.8,5.5,9.6c0,0-0.6,8.6,5.3,9.6s10-25.7,3.1-31.5c0,0-6-4.7-9.8-4
	C37.7,77.9,28.6,79.8,33.6,94.3z M35.1,83.6c0.5-1.3,1.7-2.2,3-2.4c0.9-0.1,1.7,0,2.5,0.4c4.1,1.6,8.4,10.6,9.3,15.7
	c0.2,1.1,0.8,6.7-1.6,8.3c-0.4,0.3-1,0.5-1.5,0.5c-0.9-0.1-1.7-0.3-2.4-0.8c-3-1.8-4.9-5.7-5-10.1c0-3.7,1.3-6.9,3.7-8.6
	c-0.8-1.2-1.8-2.2-3.1-2.9c-0.4-0.2-0.9-0.3-1.4-0.3c-0.6,0.2-1.2,0.6-1.4,1.2c-0.3,0.8-0.3,1.6-0.1,2.3c0.2,0.9,0.5,1.8,0.9,2.6
	l-2,0.7c-0.4-1-0.8-2-1.1-3C34.6,86,34.7,84.8,35.1,83.6L35.1,83.6z"/>
<path class="st6" d="M35.1,83.6c-0.4,1.1-0.5,2.4-0.3,3.6c0.3,1,0.6,2.1,1.1,3l1.9-0.8c-0.4-0.8-0.7-1.7-0.9-2.6
	c-0.2-0.8-0.1-1.6,0.1-2.3c0.2-0.6,0.8-1.1,1.4-1.2c0.5,0,1,0,1.4,0.3c1.3,0.7,2.3,1.7,3.1,2.9c-2.3,1.7-3.7,4.9-3.7,8.6
	c0,4.4,2,8.3,5,10.1c0.7,0.5,1.6,0.8,2.4,0.8c0.5,0,1-0.2,1.5-0.5c2.4-1.6,1.8-7.2,1.6-8.3c-0.8-5.1-5.2-14.1-9.3-15.7
	c-0.8-0.3-1.7-0.5-2.5-0.4C36.7,81.4,35.6,82.3,35.1,83.6z M44.1,88.1c1.7,2.9,3,6.1,3.7,9.4c0.3,2.2,0.2,5.6-0.7,6.2
	c-0.4,0.3-1.2-0.1-1.7-0.4c-2.4-1.4-3.9-4.7-4-8.3C41.2,92.4,42.2,89.8,44.1,88.1L44.1,88.1z"/>
<path class="st10" d="M88.9,154.6L88.9,154.6c-20.6,0-43.9-18.5-43.9-39.1V47.2C45.1,26.6,61.7,10,82.3,10l0,0h13.3
	c20.6,0,37.2,16.7,37.2,37.2l0,0v68.3C132.8,136.1,109.5,154.6,88.9,154.6z"/>
<path class="st11" d="M73.5,122.4c1.2,8.8,7.7,15.6,15.4,15.6s14.2-6.7,15.4-15.6c-3.4,3.2-9,3.7-15.4,3.7S76.9,125.7,73.5,122.4z"
	/>
<path class="st7" d="M103.9,123.8c0.4-1.1,0.7-2.2,0.9-3.3c0-0.2-0.1-0.4-0.3-0.4c-0.1,0-0.2,0-0.3,0.1c-3.5,2.8-9.1,3.2-15.3,3.2
	c-6.2,0-11.8-0.4-15.3-3.2c-0.2-0.1-0.4-0.1-0.5,0.1c-0.1,0.1-0.1,0.2-0.1,0.3c0.2,1.1,0.5,2.2,0.9,3.3c3.5,2.6,8.9,2.9,15,2.9
	S100.4,126.4,103.9,123.8z"/>
<path class="st6" d="M78.9,143.1c3.6,4.2,9.8,4.7,14,1.1c0.4-0.3,0.8-0.7,1.1-1.1C89.2,145.1,83.7,145.1,78.9,143.1z"/>
<path class="st12" d="M57.4,72.6c-0.3,0.2-0.7,0-0.9-0.3c-0.1-0.3-0.1-0.6,0.1-0.7c4.8-4.7,12.1-5.6,17.8-2.2
	c0.3,0.1,0.5,0.5,0.4,0.8s-0.5,0.5-0.8,0.4C68.5,69.7,62.7,70.5,57.4,72.6L57.4,72.6z"/>
<path class="st12" d="M121.4,72.6c0.3,0.2,0.7,0,0.9-0.3c0.1-0.3,0.1-0.6-0.1-0.7c-4.8-4.7-12.1-5.6-17.8-2.2
	c-0.3,0.1-0.5,0.5-0.4,0.8s0.5,0.5,0.8,0.4C110.3,69.7,116.1,70.5,121.4,72.6L121.4,72.6z"/>
<path class="st13" d="M88.9,110l4.5-0.8c0.5,0,1-0.4,1-1c0-0.3-0.1-0.5-0.3-0.7l-4.5-4.5c-0.4-0.4-1-0.4-1.4,0l0,0l-4.5,4.5
	c-0.4,0.4-0.4,1,0,1.4c0.2,0.2,0.4,0.3,0.7,0.3L88.9,110z"/>
<circle class="st14" cx="69.3" cy="84.4" r="5.2"/>
<circle class="st14" cx="107.2" cy="84.4" r="5.2"/>
<path class="st9" d="M151.3,52.2c-1.9,0-3.8-0.3-5.6-0.8c0-13.2-3.4-35.5-24.2-46c-6.7-3.4-32.5-10.9-49,1c0,0-0.7-4.6,0.9-5.9
	c-4.5,0.7-8.3,3.9-9.6,8.3c0,0-15.1-3.3-18.7,3.7c0,0,4.1-0.5,6.4,1.1C26.8,25.2,35,61.5,35,61.5c1.3,4.7,2.4,17.8,10.1,24.7
	L45.5,62c0,0,5.9-23.7,12.2-24.5c0.8,2.5,2.1,4.8,3.8,6.7c4.3,9,13.8,20.7,33,18.7c0,0-10.8-1.5-15.8-7.2
	c10.4,3.7,25.7,5.4,48.3,1.9c0,0,2.2-0.1,5.3-0.4c0.4,1.1,0.6,2.3,0.6,3.5c0,11.6-0.5,0.5,0,26.8c0,0,10.4-12.4,12.2-25.7
	c0,0,0.3-0.1,0.5-4.3c2.2-0.5,4.5-2.2,6.4-3.7c0.4-0.3,0.4-0.9,0.1-1.3C151.8,52.4,151.6,52.3,151.3,52.2z"/>
<path class="st15" d="M33.2,65.6l9.5-4.3c1.1-0.5,2.4,0,2.9,1.1l1,2.2c0.5,1.1,0,2.4-1.1,2.9L36,71.8c-1.1,0.5-2.4,0-2.9-1.1l-1-2.2
	C31.6,67.4,32.1,66.1,33.2,65.6z"/>
<path class="st15" d="M141.7,71.9l-9.5-4.3c-1.1-0.5-1.6-1.8-1.1-2.9l1-2.2c0.5-1.1,1.8-1.6,2.9-1.1l9.5,4.3
	c1.1,0.5,1.6,1.8,1.1,2.9l-1,2.2C144.1,71.9,142.8,72.4,141.7,71.9z"/>
<path class="st1" d="M141.8,308.6c0.9,1.7,3,2.4,4.8,1.6l3.9-2c0,1.4,0.3,2.7,0.8,4v19.2c0,2,1.7,3.5,3.6,3.5c1,0,2-0.5,2.6-1.3v0.6
	c0,2,1.6,3.5,3.5,3.5c2,0,3.5-1.6,3.5-3.5V334c0.5,0.3,1.1,0.5,1.7,0.5c2,0,3.5-1.6,3.6-3.5l0,0v-3.7c1.1,1.1,2.9,1.2,4,0.1
	c0.6-0.5,0.9-1.3,0.9-2v-13.8c2.1-6.6-1.5-13.6-8-15.8c-3.7-1.2-7.8-0.6-11,1.6l-12.5,6.3C141.5,304.8,140.9,306.9,141.8,308.6z"/>
<path class="st6" d="M157.6,317.7c0.2,3.7,0.3,7.4,0.4,11c0.1,1.8,0.2,3.7,0.1,5.5c0,1.7,1.2,3.2,2.9,3.5c0,0,0,0,0,0.1l0,0
	c-1,0.2-2-0.1-2.8-0.8c-0.8-0.7-1.3-1.7-1.3-2.8c-0.1-1.9,0.1-3.7,0.1-5.5c0.1-3.7,0.3-7.3,0.5-11l0,0L157.6,317.7z"/>
<path class="st6" d="M162.9,317.8c0.2,3.1,0.3,6.3,0.4,9.4l0.1,2.3v1.2c0,0.3,0,0.7,0.1,1c0.3,1.4,1.4,2.5,2.8,2.8c0,0,0,0,0,0.1
	l0,0c-1.8,0.3-3.5-0.8-4-2.6c-0.1-0.8-0.2-1.6-0.1-2.4l0.1-2.3c0.1-3.1,0.3-6.3,0.5-9.4C162.8,317.8,162.8,317.8,162.9,317.8
	C162.8,317.8,162.8,317.8,162.9,317.8z"/>
<path class="st6" d="M169.2,315.1c0.2,2.4,0.3,4.9,0.4,7.4l0.1,1.9v0.9c0,0.3,0,0.5,0.1,0.8c0.2,1.1,1.1,1.9,2.1,2.2c0,0,0,0,0,0.1
	s0,0,0,0c-1.5,0.3-2.9-0.6-3.3-2c-0.1-0.3-0.2-0.7-0.1-1.1v-0.9l0.1-1.8c0.1-2.4,0.3-4.9,0.5-7.4C169.1,315,169.1,315,169.2,315.1
	L169.2,315.1z"/>
<path class="st6" d="M151.3,309.8c0.2,4.5,0.3,9.1,0.4,13.6c0,2.3,0.2,4.5,0.1,6.8c0,0.5-0.1,1.2,0,1.6c0,0.5,0.2,1,0.4,1.4
	c0.5,0.9,1.5,1.6,2.5,1.7c0,0,0,0,0,0.1l0,0c-1.2,0.1-2.5-0.4-3.2-1.3c-0.4-0.5-0.7-1.1-0.8-1.8c-0.1-0.7,0-1.2-0.1-1.8
	c-0.1-2.3,0.1-4.5,0.1-6.8C150.9,318.8,151,314.3,151.3,309.8c-0.1-0.1-0.1-0.1-0.1-0.1L151.3,309.8z"/>
<path class="st5" d="M127.9,173.5l0.6,0.6l0.2,0.2c8.7,8.9,17.3,17.9,25.7,27.1c4.2,4.6,8.4,9.3,12.5,14.1c2.1,2.4,4.1,4.8,6.3,7.9
	l0.4,0.6l0.2,0.3l0.3,0.5c0.4,0.7,0.7,1.3,1.1,2c0.2,0.6,0.4,1.2,0.6,1.9l0.1,0.5v0.3v0.5l0.1,1v0.8c0.1,2.1,0,3.7-0.1,5.3
	c-0.3,7.3-1,14.1-1.7,21c-0.7,6.9-1.5,13.7-2.3,20.6c-0.2,0.6-0.7,1-1.3,1l-12.4-1.4c-0.6-0.1-1-0.6-1.1-1.2c0,0,1.1-10.1,2-20.2
	c0.4-5.1,0.8-10.1,1.1-13.9c0.1-1.9,0.2-3.4,0.2-4.5s0-1.7,0-1.8l0,0c0-1.4,0-2.9-0.1-3.9v-0.4v-0.1l0,0l0,0h0.2l1.5-0.3
	c0.3,0,0.6,0,1-0.1c0.7-0.1,1.3-0.2,1.9-0.4c0.3-0.1,0.6-0.2,0.9-0.4l0.5-0.2h0.1l-1.4,0.6l-0.4,0.1c-1,0.4-1.9,0.7-2.9,1.2
	l-1.2,0.6l0,0l-0.1-0.2l-0.3-0.4c-1.4-1.8-3.5-4.2-5.5-6.3c-4.1-4.4-8.3-8.8-12.6-13.1c-8.6-8.7-17.4-17.2-26.4-25.5l-0.2-0.2
	l-0.6-0.6c-4.5-4.1-5.8-9.9-2.8-13.1l2.6-2.7C117.5,167.9,123.6,169,127.9,173.5z"/>
<polygon class="st1" points="166.1,299.4 158.1,298.4 159.4,287.8 167.4,288.8 "/>
<polygon class="st16" points="168.3,288.9 158.4,287.7 159.5,278.4 169.4,279.5 "/>
<path class="st1" d="M34.2,55.5c-0.9-1.7-3-2.4-4.8-1.6l-3.9,2c0-1.4-0.3-2.7-0.8-4V32.7c0-1.9-1.5-3.5-3.5-3.6
	c-1.1,0-2.2,0.5-2.9,1.4v-0.6c0.1-2-1.4-3.6-3.3-3.8c-2-0.1-3.6,1.4-3.8,3.3c0,0.1,0,0.3,0,0.4V30c-0.5-0.3-1.1-0.5-1.7-0.5
	c-2,0-3.5,1.6-3.6,3.5l0,0v3.7c-0.5-0.6-1.3-0.9-2.1-0.9c-1.6,0-2.8,1.3-2.8,2.8v13.8C-1,59,2.6,66.1,9.2,68.2
	c3.7,1.2,7.8,0.6,11-1.6l12.5-6.4C34.4,59.4,35.1,57.3,34.2,55.5L34.2,55.5z"/>
<path class="st6" d="M18.4,46.4c-0.2-3.7-0.3-7.3-0.4-11c0-1.8-0.2-3.7-0.1-5.5c0-1.7-1.2-3.2-2.9-3.5c0,0,0,0,0-0.1s0,0,0,0
	c1-0.2,2,0.1,2.8,0.8c0.8,0.7,1.3,1.7,1.3,2.8c0.1,1.8-0.1,3.7-0.1,5.5C18.9,39.1,18.7,42.7,18.4,46.4L18.4,46.4z"/>
<path class="st6" d="M13.1,46.3c-0.2-3.1-0.3-6.3-0.4-9.4l-0.1-2.3v-1.2c0-0.3,0-0.7-0.1-1c-0.3-1.4-1.4-2.5-2.8-2.8v-0.1l0,0
	c1.8-0.3,3.5,0.8,4,2.6c0.2,0.8,0.2,1.6,0.1,2.4l-0.1,2.3C13.6,39.9,13.4,43.1,13.1,46.3L13.1,46.3z"/>
<path class="st6" d="M6.8,49c-0.2-2.4-0.3-4.9-0.4-7.4l-0.1-1.8v-0.9c0-0.3,0-0.5,0-0.8c-0.3-1.1-1.1-2-2.2-2.2v-0.1l0,0
	c1.5-0.3,2.9,0.6,3.3,2c0.1,0.3,0.2,0.7,0.1,1.1v0.9l-0.1,1.9c-0.1,2.4-0.3,4.9-0.5,7.4c0,0,0,0.1-0.1,0.1c0,0-0.1,0-0.1-0.1L6.8,49
	z"/>
<path class="st6" d="M24.7,54.3c-0.2-4.5-0.3-9.1-0.4-13.6c-0.1-2.3-0.2-4.5-0.1-6.8c0-0.6,0.1-1.2,0-1.6c0-0.5-0.2-1-0.4-1.4
	c-0.6-0.9-1.5-1.5-2.5-1.7v-0.1l0,0c1.2-0.1,2.5,0.4,3.2,1.3c0.4,0.5,0.7,1.1,0.8,1.7c0.1,0.7,0.1,1.2,0.1,1.8
	c0.1,2.3-0.1,4.5-0.1,6.8C25.1,45.3,25,49.8,24.7,54.3C24.8,54.3,24.8,54.4,24.7,54.3C24.7,54.4,24.7,54.4,24.7,54.3z"/>
<path class="st5" d="M48.1,190.6l-0.6-0.6l-0.2-0.2c-8.7-8.9-17.3-17.9-25.7-27.1c-4.2-4.6-8.4-9.3-12.5-14.1
	c-2.1-2.4-4.1-4.8-6.3-7.9l-0.4-0.6l-0.2-0.3L2,139.3c-0.4-0.7-0.8-1.3-1.1-2c-0.2-0.6-0.4-1.2-0.6-1.9l-0.1-0.5v-0.3l-0.1-0.5
	l-0.1-1v-0.8c-0.1-2,0-3.7,0.1-5.3c0.3-7.2,1-14.1,1.7-21s1.5-13.7,2.3-20.6c0.2-0.6,0.7-1,1.3-1l12.5,1.4c0.6,0.1,1,0.6,1.1,1.2
	c0,0-1.1,10.1-2,20.2c-0.5,5.1-0.8,10.1-1.1,13.9c-0.1,1.9-0.2,3.4-0.2,4.5s0,1.7,0,1.7l0,0c0,1.4,0,2.9,0.1,3.9v0.4v0.1l0,0l0,0
	h-0.2l-1.5,0.3c-0.3,0-0.6,0-1,0.1c-0.6,0.1-1.3,0.2-1.9,0.4c-0.3,0.1-0.6,0.2-0.9,0.4l-0.5,0.2H9.7l1.4-0.6l0.4-0.1
	c1-0.4,1.9-0.7,2.8-1.2l1.2-0.6l0,0l0.1,0.2l0.3,0.3c1.4,1.9,3.5,4.2,5.5,6.4c4.1,4.4,8.3,8.8,12.6,13.1
	c8.6,8.6,17.5,17.1,26.4,25.5l0.2,0.2l0.6,0.5c4.5,4.1,5.8,9.9,2.8,13.1l-2.6,2.9C58.5,196.2,52.4,195.1,48.1,190.6z"/>
<polygon class="st1" points="9.9,64.7 17.9,65.7 16.6,76.3 8.6,75.3 "/>
<polygon class="st16" points="7.7,75.2 17.5,76.4 16.4,85.7 6.6,84.6 "/>
<polygon class="st7" points="116.6,211.9 106.5,216.1 96.3,211.9 96.3,195.1 116.6,195.1 "/>
</svg>
