<?xml version="1.0" encoding="utf-8"?>
<!-- Generator: Adobe Illustrator 16.0.0, SVG Export Plug-In . SVG Version: 6.00 Build 0)  -->
<!DOCTYPE svg PUBLIC "-//W3C//DTD SVG 1.1//EN" "http://www.w3.org/Graphics/SVG/1.1/DTD/svg11.dtd">
<svg version="1.1" id="Layer_1" xmlns="http://www.w3.org/2000/svg" xmlns:xlink="http://www.w3.org/1999/xlink" x="0px" y="0px"
	 width="500px" height="500px" viewBox="0 0 500 500" enable-background="new 0 0 500 500" xml:space="preserve">
<g>
	
		<line display="none" fill="none" stroke="#343C3D" stroke-miterlimit="10" stroke-dasharray="5,2" x1="230.47" y1="417.092" x2="263.381" y2="452.497"/>
</g>
<g>
	<g>
		<path fill="none" stroke="#668980" stroke-miterlimit="10" d="M251.48,4.963c0.834-0.009,1.669-0.013,2.503-0.012"/>
		<path fill="none" stroke="#668980" stroke-miterlimit="10" stroke-dasharray="5.0078,5.0078" d="M258.995,5.011
			c39.216,0.908,78.012,12.066,112.184,31.244c33.557,18.834,62.725,45.413,84.475,77.167
			c23.037,33.631,37.199,72.988,41.076,113.558c4.021,42.071-2.978,85.057-19.955,123.748
			c-15.553,35.445-39.612,66.943-69.635,91.367c-31.021,25.237-68.19,42.752-107.396,50.635
			c-41.413,8.327-84.871,5.711-125.011-7.433c-11-3.602-21.737-7.99-32.102-13.141"/>
		<path fill="none" stroke="#668980" stroke-miterlimit="10" d="M140.411,471.038c-0.742-0.378-1.483-0.761-2.221-1.147"/>
	</g>
</g>
<path fill="none" stroke="#668980" stroke-width="3" stroke-miterlimit="10" d="M253.269,11.582
	c40.636-0.425,81.104,10.597,116.481,30.451c32.654,18.328,61.039,44.192,82.204,75.092c22.418,32.727,36.199,71.026,39.972,110.506
	c3.914,40.941-2.897,82.77-19.418,120.422c-15.135,34.492-38.548,65.144-67.764,88.911c-30.188,24.56-66.357,41.603-104.509,49.274
	c-40.3,8.103-82.59,5.557-121.651-7.233c-12.241-4.009-24.149-9.019-35.562-14.992"/>
</svg>
