<?xml version="1.0" encoding="utf-8"?>
<!-- Generator: Adobe Illustrator 22.1.0, SVG Export Plug-In . SVG Version: 6.00 Build 0)  -->
<svg version="1.1" id="Layer_1" xmlns="http://www.w3.org/2000/svg" xmlns:xlink="http://www.w3.org/1999/xlink" x="0px" y="0px"
	 viewBox="0 0 238.6 488.9" style="enable-background:new 0 0 238.6 488.9;" xml:space="preserve">
<style type="text/css">
	.st0{fill:#F0D0B3;}
	.st1{fill:#D0D2D3;}
	.st2{fill:#EBC19C;}
	.st3{fill:none;stroke:#EBC19C;stroke-width:0.9921;stroke-linecap:round;stroke-linejoin:round;stroke-miterlimit:10;}
	.st4{fill:#734939;}
	.st5{fill:#005E88;}
	.st6{fill:#58595B;}
	.st7{opacity:0.55;fill:#BBBDBF;enable-background:new    ;}
	.st8{fill:#F1F1F2;}
	.st9{fill:#DEB18A;}
	.st10{fill:#606161;}
	.st11{fill:#B08774;}
	.st12{fill:#404041;}
	.st13{fill:#C3996B;}
	.st14{fill:#787986;}
</style>
<g>
	<g>
		<path class="st0" d="M224.1,235.6L224.1,235.6c-0.1-0.3-0.2-0.5-0.2-0.7c-0.1-0.5-0.1-0.8-0.1-1.2s0-0.6,0.1-0.8"/>
		<path class="st0" d="M213.7,219.5c-8.2-10.2-17.7-19.6-27.6-28.6c-4.8-4.4-6.6-10.3-3.9-13.4l0.6-0.7c2.7-3.2,9.1-1.9,14,2.9
			c9.9,9.9,19.3,20.2,27.7,31.7c4.2,5.8,8.1,11.9,11.1,19.1l0.1,0.3l0.1,0.2c0.1,0.3,0.2,0.7,0.3,1c0.2,0.7,0.2,1.3,0.2,1.8
			c0,0.3,0,0.6,0,0.8s-0.1,0.4-0.1,0.6c-0.3,1.6-0.8,2.4-1.2,3.1c-0.8,1.4-1.5,2.2-2.2,3.1c-1.4,1.6-2.8,2.9-4.2,4.1
			c-2.8,2.4-5.5,4.6-8.3,6.7c-5.5,4.2-11.1,8.2-16.7,12l-4.4,2.4l-6.1-8.9l4.1-2.6c5.4-3.9,10.8-8,15.9-12.1
			c2.5-2.1,5.1-4.3,7.3-6.5c1.1-1.1,2.2-2.2,3-3.2L213.7,219.5z"/>
		<path class="st0" d="M187.7,262.7c2.5-1.6,5-3.3,7.4-5l4.1,6c-2.5,1.7-5,3.4-7.6,5.1L187.7,262.7z"/>
	</g>
	<path class="st1" d="M214.1,221.3c-8.2-10.2-19.5-21.4-29.4-30.3c-4.8-4.4-2.9-9.6-0.2-12.8l0.6-0.7c2.7-3.2,9.1-1.9,14,2.9
		c9.9,9.9,19.3,20.2,27.7,31.7c4.2,5.8,8.1,11.9,11.1,19.1l0.1,0.3l0.1,0.2c0.1,0.3,0.2,0.7,0.3,1c0.2,0.7,0.2,1.3,0.2,1.8
		c0,0.3,0,0.6,0,0.8s-0.1,0.4-0.1,0.6c-0.3,1.6-0.8,2.4-1.2,3.1c-0.8,1.4-1.5,2.2-2.2,3.1c-1.4,1.6-2.8,2.9-4.2,4.1
		c-2.8,2.4-5.5,4.6-8.3,6.7c-5.5,4.2-11.1,8.2-16.7,12l-6.6,4.4l-7.9-11.8l6.3-4.6c5.4-3.9,10.8-8,15.9-12.1
		c2.5-2.1,5.1-4.3,7.3-6.5c1.1-1.1,0.6-0.4,1.4-1.4L214.1,221.3z"/>
	<g>
		<g>
			<path class="st0" d="M176.8,250.9c-3.9-0.5-7.1,0.6-9,3.5c-0.4,0.6-0.8,1.4-1.1,2.2c-1.2-0.1-2.3,0.2-3.4,0.6
				c-2.3,1-4.1,3.1-4.9,5.7c-0.4,1.4-0.5,4,0.7,5.5c0.1,1.2,0.4,2.3,0.8,3.5c0.1,1,0.5,2,1.3,3c0.6,0.8,1.5,1.5,2.7,2.2l0.4-0.4
				c0,1.8,0.7,3.6,2.7,4.8c2,1.2,3.4,1.2,3.4,1.2l0.2-0.2c0.3,0.7,0.8,1.3,1.5,1.8c1.4,1.1,8,3.5,13.8,0.9c0.1-0.1,0.3-0.1,0.4-0.2
				c1.9-0.9,3.5-2.1,4.4-3.2c5.5-6.7,4-17-2.1-23.1C186.1,255.5,181.5,251.5,176.8,250.9z"/>
			<g>
				<path class="st2" d="M177,279.8c0.8,0.7,1.9,0.8,2.8,0.4c1-0.4,1.3-1.5,1.4-2.4c0-1-0.5-1.9-1.3-2.5s-1.8-0.8-2.8-0.9
					s-2,0-2.9,0.5c-0.9,0.4-1.7,1.1-2.3,1.8c-1.3,1.4-1.8,3.6-1.1,5.4c0.4,0.9,1,1.7,1.7,2.2c0.8,0.5,1.8,0.8,2.7,1.1
					c1.9,0.5,3.9,0.8,5.9,0.7c2-0.1,4-0.6,5.7-1.6c1.8-1,3.2-2.4,4.5-4.1c0,0,0,0,0.1,0c0,0,0,0,0,0.1c-1,1.8-2.4,3.4-4.2,4.6
					s-3.9,1.8-6,2s-4.3-0.1-6.3-0.7c-1-0.3-2-0.7-2.9-1.3c-0.9-0.7-1.6-1.6-2-2.6c-0.8-2.1-0.1-4.5,1.4-6.1c0.7-0.8,1.6-1.5,2.6-1.9
					s2.1-0.5,3.2-0.4c1,0.1,2.1,0.4,3,1.1c0.8,0.7,1.4,1.8,1.3,2.8c0,0.5-0.2,1.1-0.4,1.5c-0.2,0.5-0.7,0.9-1.2,1.1
					C178.9,280.7,177.7,280.6,177,279.8C176.9,279.8,176.9,279.8,177,279.8L177,279.8z"/>
			</g>
			<path class="st3" d="M177.8,274.1c0,0,0.5-2.4-0.5-4s-3.4-2.5-7.3-1.1c-4.8,1.7-8.3,9.2-2.9,12.5c2,1.2,3.4,1.2,3.4,1.2"/>
			<path class="st3" d="M174.3,267.6c0.3-3.8-2.1-4-5.2-4.1c-2.9-0.1-6,2-7.8,4.1c-2,2.3-2.4,6.9,2.7,9.6"/>
			<path class="st3" d="M171.7,262.5c1.7-3.7-2-5.7-4.6-5.9c-4.1-0.4-7.4,2.6-8.6,6.3c-0.5,1.5-0.5,4.4,1,5.9"/>
			<path class="st0" d="M190.1,262.5c0.3-2.7-6.6-10.8-13.4-11.7c-5-0.7-9.1,1.5-10.4,6.6c-1.3,5.1,3.7,9.3,7.8,3.9
				c2.5,2.3,6,4.1,8.6,4.3L190.1,262.5z"/>
			<g>
				<path class="st2" d="M189.7,260.6c-1-1.8-2.4-3.4-3.9-4.8c-1.5-1.4-3.2-2.6-5.1-3.5c-0.9-0.4-1.9-0.8-2.9-1s-2-0.3-3-0.3
					c-2,0.1-4,0.7-5.4,2.1c-1.4,1.3-2.3,3.3-2.6,5.2c-0.1,1,0,1.9,0.4,2.8c0.3,0.9,1,1.6,1.8,2s1.8,0.4,2.6,0
					c0.4-0.1,0.8-0.5,1.2-0.7c0.4-0.3,0.8-0.6,1.1-1c1.4-1.4,2.1-3.5,1.9-5.5l0,0v-0.1c0,0,0,0,0.1,0c0.5,2-0.1,4.3-1.5,6
					c-0.6,0.9-1.5,1.6-2.5,2.1s-2.3,0.6-3.4,0.1c-1.1-0.5-1.9-1.5-2.3-2.5c-0.4-1.1-0.5-2.2-0.4-3.3c0.4-2.2,1.4-4.2,3-5.7
					s3.8-2.1,6-2.1c1.1,0,2.1,0.1,3.2,0.3c1,0.3,2,0.7,3,1.1c1.9,1,3.6,2.2,5,3.7C187.4,257.1,188.8,258.7,189.7,260.6
					C189.8,260.6,189.7,260.6,189.7,260.6C189.7,260.7,189.7,260.6,189.7,260.6z"/>
			</g>
		</g>
		<path class="st3" d="M174.7,261.6c2.5,2.6,5.4,3.9,8.2,4.1"/>
	</g>
	<rect x="138.7" y="456.4" class="st0" width="9.4" height="10.4"/>
	<rect x="161.3" y="456.4" class="st0" width="9.4" height="10.4"/>
	<g>
		<g>
			<g>
				<polygon class="st4" points="158.9,488.9 174.2,488.9 174.2,485.6 197.2,488.9 212.7,488.9 212.7,477 172.7,464.7 158.9,464.7 
									"/>
			</g>
		</g>
	</g>
	<g>
		<g>
			<g>
				<polygon class="st4" points="150.5,488.9 135.2,488.9 135.2,485.6 112.1,488.9 96.7,488.9 96.7,477 136.6,464.7 150.5,464.7 
									"/>
			</g>
		</g>
	</g>
	<g>
		<path class="st5" d="M128.1,289.8c2.3-3.9,8.2-7.1,13.2-7.1h27.6c5,0,10.9,3.2,13.2,7.1s2.3,10.8,0.1,15.3l-9.5,19.3
			c-2.2,4.5-8.1,8.2-13.1,8.2h-8.9c-5,0-10.9-3.7-13.1-8.2l-9.5-19.3C125.8,300.6,125.8,293.7,128.1,289.8z"/>
		<g>
			<path class="st5" d="M145,284.7l1.6,75.7l2.1,99l-10.4,0.6l-9-98.6l-6.9-75.4l0,0c-1.2-12.7,3.3-23.4,10-23.8
				C139.1,261.7,144.8,271.9,145,284.7z"/>
		</g>
		<g>
			<path class="st5" d="M187.7,285.9l-7,75.4l-9.2,98.6l-10.4-0.6l2.3-99l1.7-75.7l0,0c0.3-12.8,6-22.9,12.6-22.5
				C184.4,262.5,188.9,273.2,187.7,285.9z"/>
		</g>
	</g>
	<g>
		<path class="st0" d="M65.3,214.4C65.3,214.4,65.2,214.4,65.3,214.4c0.3-0.1,0.5-0.1,0.8-0.2c0.5,0,0.8,0,1.2,0
			c0.4,0.1,0.6,0.1,0.8,0.2"/>
		<path class="st0" d="M82.5,206c11.1-6.9,21.6-15.2,31.7-23.9c4.9-4.3,11-5.3,13.8-2.3l0.7,0.7c2.8,3.1,0.8,9.3-4.6,13.5
			c-11,8.6-22.3,16.7-34.8,23.7c-6.2,3.5-12.8,6.6-20.2,8.7l-0.3,0.1l-0.2,0.1c-0.3,0.1-0.7,0.1-1,0.2c-0.8,0.1-1.3,0.1-1.8,0
			c-0.3,0-0.6-0.1-0.8-0.1c-0.2,0-0.4-0.1-0.6-0.2c-1.5-0.5-2.3-1.1-3-1.5c-1.3-1-2-1.8-2.8-2.6c-1.4-1.6-2.5-3.1-3.6-4.6
			c-2.1-3-3.9-6-5.7-9.1c-3.5-6-6.8-12-9.9-18.1l-1.8-4.7l9.5-5l2.1,4.4c3.3,5.8,6.6,11.6,10.1,17.2c1.8,2.8,3.7,5.5,5.6,8
			c0.9,1.2,1.9,2.4,2.8,3.3L82.5,206z"/>
		<path class="st0" d="M42.7,175c1.3,2.7,2.7,5.3,4.1,8l-6.4,3.4c-1.4-2.7-2.8-5.4-4.2-8.1L42.7,175z"/>
	</g>
	<path class="st1" d="M155.7,168L155.7,168c0-0.1-0.2-0.1-0.5,0c-0.3,0-0.5,0-0.5,0v0.1c-5.6,0.5-33.9-2.7-41.7,13
		c0,0,6.2,19.6,8.6,24.7l-5.7,89.7c0,0,30.1,9.8,39.2,9c9.1,0.8,40.2-9.7,40.2-9.7l-6.7-89c2.4-5.1,8.4-24.7,8.4-24.7
		C189.4,165.3,161.2,168.4,155.7,168z"/>
	<polygon class="st6" points="155.3,181.1 145.4,175.1 148.8,193.4 155.3,193.4 161.8,193.4 165.2,175.1 	"/>
	<path class="st0" d="M60,239.8L60,239.8c0.3-0.1,0.5-0.1,0.8-0.2c0.5,0,0.8,0,1.2,0c0.4,0.1,0.6,0.1,0.8,0.2"/>
	<path class="st7" d="M155,167.3c-3.1-1.9-12.9-6.4-20.8,6c-0.2,0.3-0.3,0.7-0.2,1.1l4.1,22.1c0.2,1.2,1.7,1.5,2.2,0.5
		c2.4-4.3,7.5-11.7,15-13.6c0.2-0.1,0.4-0.1,0.6,0c7.5,1.9,12.6,9.4,15,13.6c0.6,1.1,2,0.8,2.2-0.5l4.1-22.1c0.1-0.4,0-0.8-0.2-1.1
		c-8-12.5-17.7-8-20.8-6C155.8,167.5,155.4,167.5,155,167.3z"/>
	<path class="st1" d="M80.7,206.2c11.1-6.9,23.6-16.8,33.7-25.5c4.9-4.3,9.9-1.8,12.7,1.3l0.7,0.7c2.8,3.1,0.8,9.3-4.6,13.5
		c-11,8.6-22.3,16.7-34.8,23.7c-6.2,3.5-12.8,6.6-20.2,8.7l-0.3,0.1l-0.2,0.1c-0.3,0.1-0.7,0.1-1,0.2c-0.8,0.1-1.3,0.1-1.8,0
		c-0.3,0-0.6-0.1-0.8-0.1c-0.2,0-0.4-0.1-0.6-0.2c-1.5-0.5-2.3-1.1-3-1.5c-1.3-1-2-1.8-2.8-2.6c-1.4-1.6-2.5-3.1-3.6-4.6
		c-2.1-3-3.9-6-5.7-9.1c-3.5-6-6.8-12-9.9-18.1l-3.6-7.1l12.7-6.5l3.8,6.8c3.3,5.8,6.6,11.6,10.1,17.2c1.8,2.8,3.7,5.5,5.6,8
		c0.9,1.2,0.3,0.6,1.2,1.5L80.7,206.2z"/>
	<path class="st8" d="M155,165.9c-3-1.8-12.2-6.1-19.7,5.7c-0.2,0.3-0.3,0.7-0.2,1.1l3.9,20.8c0.2,1.2,1.6,1.4,2.1,0.4
		c2.3-4.1,7.1-11.1,14.2-12.9c0.2,0,0.4,0,0.6,0c7.1,1.8,11.9,8.8,14.2,12.9c0.6,1,1.9,0.7,2.1-0.4l3.9-20.8c0.1-0.4,0-0.8-0.2-1.1
		c-7.5-11.8-16.7-7.5-19.7-5.7C155.8,166.1,155.4,166.1,155,165.9z"/>
	<path class="st0" d="M156.1,181h-1.6c-6.5,0-11.7-5.2-11.7-11.7v-49.7c0-6.5,5.2-11.7,11.7-11.7h1.6c6.5,0,11.7,5.2,11.7,11.7v49.7
		C167.8,175.7,162.6,181,156.1,181z"/>
	<g>
		<polygon class="st6" points="142.2,265.8 155.3,277.5 155.3,188.4 151,188.7 		"/>
		<polygon class="st6" points="159.5,188.7 155.3,188.4 155.3,277.5 168.4,265.8 		"/>
	</g>
	<path class="st2" d="M167.8,161.8V160h-25v2.2C147.3,164.3,155.5,166.7,167.8,161.8z"/>
	<g>
		<g>
			<g>
				<path class="st2" d="M198.4,98.8c-1.7,2.8-3.1,6.4-3.5,9c-0.3,2.1-0.2,5.3,0.7,5.9c0.4,0.3,1.2-0.1,1.6-0.4
					c2.3-1.4,3.8-4.5,3.8-8C201.1,102.5,200.1,100.1,198.4,98.8z"/>
				<path class="st2" d="M204.6,89.1c-3.7-0.7-9.4,3.8-9.4,3.8c-6.6,5.6-2.7,31.1,2.9,30.1c5.7-1,5.1-9.1,5.1-9.1
					c2.8-1.7,5.2-9.2,5.2-9.2C213.3,90.8,204.6,89.1,204.6,89.1z M207.3,97.9c-0.2,1-0.6,2-1,2.9l-1.8-0.8c0.4-0.9,0.7-1.7,0.9-2.5
					c0.1-0.6,0.2-1.5-0.1-2.2c-0.3-0.6-0.8-1.1-1.3-1.2c-0.4-0.1-0.8,0-1.4,0.2c-0.9,0.4-2,1.4-3,2.8c2.2,1.6,3.5,4.7,3.5,8.3
					c-0.1,4.2-1.9,7.9-4.8,9.6c-0.9,0.5-1.7,0.8-2.4,0.8c-0.5,0-1-0.1-1.4-0.4c-2.3-1.6-1.7-6.9-1.6-7.9c0.8-4.9,5-13.5,8.9-15
					c0.6-0.2,1.5-0.5,2.4-0.4c1.2,0.2,2.3,1.1,2.9,2.4C207.5,95.5,207.6,96.7,207.3,97.9z"/>
				<path class="st9" d="M204.2,92.1c-0.9-0.2-1.8,0.1-2.4,0.4c-3.9,1.5-8.1,10.2-8.9,15c-0.2,1-0.8,6.4,1.6,7.9
					c0.4,0.3,0.9,0.4,1.4,0.4c0.7,0,1.5-0.3,2.4-0.8c2.9-1.7,4.7-5.4,4.8-9.6c0-3.6-1.2-6.6-3.5-8.3c1-1.4,2-2.4,3-2.8
					c0.6-0.2,1-0.3,1.4-0.2c0.5,0.1,1.1,0.6,1.3,1.2c0.3,0.8,0.3,1.6,0.1,2.2c-0.2,0.8-0.5,1.6-0.9,2.5l1.8,0.8
					c0.4-0.9,0.8-1.8,1-2.9c0.3-1.3,0.2-2.4-0.3-3.4C206.5,93.2,205.4,92.3,204.2,92.1z M201,105.4c0,3.5-1.5,6.6-3.8,8
					c-0.4,0.3-1.2,0.7-1.6,0.4c-0.9-0.6-1-3.8-0.7-5.9c0.4-2.6,1.9-6.2,3.5-9C200.1,100.1,201.1,102.5,201,105.4z"/>
			</g>
			<g>
				<path class="st2" d="M112.7,98.8c1.7,2.8,3.1,6.4,3.5,9c0.3,2.1,0.2,5.3-0.7,5.9c-0.4,0.3-1.2-0.1-1.6-0.4
					c-2.3-1.4-3.8-4.5-3.8-8C110.1,102.5,111,100.1,112.7,98.8z"/>
				<path class="st2" d="M102.7,104.7c0,0,2.4,7.4,5.2,9.2c0,0-0.5,8.2,5.1,9.1c5.7,1,9.5-24.5,2.9-30.1c0,0-5.7-4.5-9.4-3.8
					C106.6,89.1,97.8,90.8,102.7,104.7z M104.1,94.5c0.5-1.3,1.6-2.2,2.9-2.4c0.9-0.2,1.8,0.1,2.4,0.4c3.9,1.5,8.1,10.2,8.9,15
					c0.2,1,0.8,6.4-1.6,7.9c-0.4,0.3-0.9,0.4-1.4,0.4c-0.7,0-1.5-0.3-2.4-0.8c-2.9-1.7-4.7-5.4-4.8-9.6c0-3.6,1.2-6.6,3.5-8.3
					c-1-1.4-2-2.4-3-2.8c-0.6-0.2-1-0.3-1.4-0.2c-0.5,0.1-1.1,0.6-1.3,1.2c-0.3,0.8-0.3,1.6-0.1,2.2c0.2,0.8,0.5,1.6,0.9,2.5
					l-1.8,0.8c-0.4-0.9-0.8-1.8-1-2.9C103.6,96.7,103.7,95.5,104.1,94.5z"/>
				<path class="st9" d="M104.1,94.5c-0.4,1-0.5,2.2-0.3,3.4c0.2,1,0.6,2,1,2.9l1.8-0.8c-0.4-0.9-0.7-1.7-0.9-2.5
					c-0.1-0.6-0.2-1.5,0.1-2.2c0.3-0.6,0.8-1.1,1.3-1.2c0.4-0.1,0.8,0,1.4,0.2c0.9,0.4,2,1.4,3,2.8c-2.2,1.6-3.5,4.7-3.5,8.3
					c0.1,4.2,1.9,7.9,4.8,9.6c0.9,0.5,1.7,0.8,2.4,0.8c0.5,0,1-0.1,1.4-0.4c2.3-1.6,1.7-6.9,1.6-7.9c-0.8-4.9-5-13.5-8.9-15
					c-0.6-0.2-1.5-0.5-2.4-0.4C105.7,92.3,104.6,93.2,104.1,94.5z M112.7,98.8c1.7,2.8,3.1,6.4,3.5,9c0.3,2.1,0.2,5.3-0.7,5.9
					c-0.4,0.3-1.2-0.1-1.6-0.4c-2.3-1.4-3.8-4.5-3.8-8C110.1,102.5,111,100.1,112.7,98.8z"/>
			</g>
		</g>
		<path class="st0" d="M155.6,162.3L155.6,162.3c-19.7,0-42-17.7-42-37.4V59.7c0-19.7,15.9-35.6,35.6-35.6h12.7
			c19.7,0,35.6,15.9,35.6,35.6V125C197.5,144.6,175.2,162.3,155.6,162.3z"/>
		<path class="st2" d="M148.5,150.1c1.9,2,4.3,3.2,7,3.2s5.2-1.2,7-3.2c-2,0.9-4.4,1.4-7,1.4S150.5,150.9,148.5,150.1z"/>
		<path class="st10" d="M190.6,79.3c1,0.3,1.7-1.1,0.8-1.7c-4-2.7-8.6-4.1-13.4-3.9c-4.9,0.2-9.3,2-13.1,5c-0.8,0.7-0.1,2,0.9,1.6
			c3.7-1.3,7.9-2.1,12.3-2.2C182.5,77.9,186.8,78.4,190.6,79.3z"/>
		<path class="st10" d="M116.1,79.2c-1,0.3-1.7-1.1-0.8-1.7c4-2.6,8.6-4.1,13.5-3.8c4.9,0.2,9.3,2.1,13,5.1c0.8,0.7,0.1,2-0.9,1.6
			c-3.7-1.3-7.9-2.1-12.3-2.3C124.2,77.9,120,78.3,116.1,79.2z"/>
		<path class="st11" d="M155.6,119.7l4.3-0.8c0.8,0,1.3-1,0.7-1.6l-4.3-4.3c-0.4-0.4-1-0.4-1.3,0l-4.3,4.3c-0.6,0.6-0.2,1.6,0.7,1.6
			L155.6,119.7z"/>
		<circle class="st6" cx="133.9" cy="93.2" r="5"/>
		<circle class="st6" cx="176.3" cy="93.2" r="5"/>
		<path class="st12" d="M113.7,95.8c0,0-2.3-5.1-6.2-6.6V48.6c0,0-0.2-22.5,16.4-29.8c0,0-3.1-13.5,0.2-18.8c0,0,15.8,9.3,29.4,6.8
			l-3.9-6.6c0,0,25.1,1.8,29,11c0,0,9.9-4.6,17.2,1.1c0,0-5.6-0.2-6.8,4.9c0,0,14.6,8.5,14.6,32.8s0,40.2,0,40.2s-5,2.2-6,5.5V73.9
			l-10.4-9.3c0,0,1-12.1-5.2-16.8c0,0-21,9.1-53.3-1.9c0,0-5.8,7.1-5.6,18.1l-9.5,8.8L113.7,95.8z"/>
		<g>
			<path class="st13" d="M154,132.5c-8.1,0-12.1-3.6-12.3-3.8l1.4-1.5l-0.7,0.7l0.7-0.7c0.1,0.1,8.3,7.3,25.6-0.2l0.8,1.8
				C163.2,131.6,158.1,132.5,154,132.5z"/>
		</g>
	</g>
	<g>
		<g>
			<path class="st14" d="M125.2,8.3c0.7,1.7,1.5,3.3,2.4,4.9c0.4,0.8,0.9,1.6,1.4,2.4s1,1.5,1.5,2.3c2.1,3,4.4,5.8,7.1,8.2
				c1.3,1.3,2.7,2.4,4.2,3.5c0.7,0.5,1.5,1,2.3,1.5c0.4,0.2,0.8,0.5,1.1,0.7l1.2,0.6c0.8,0.4,1.6,0.9,2.4,1.2l2.5,1
				c0.8,0.4,1.7,0.6,2.6,0.9c0.9,0.3,1.8,0.5,2.6,0.8c-3.6-0.6-7.2-1.5-10.5-3.3l-1.3-0.6c-0.4-0.2-0.8-0.5-1.2-0.7
				c-0.8-0.5-1.6-1-2.4-1.5c-1.5-1.1-3-2.2-4.3-3.5c-2.7-2.5-5.1-5.4-7-8.5C127.9,15.1,126.3,11.8,125.2,8.3z"/>
		</g>
		<g>
			<path class="st14" d="M129.1,17.5c0.7,1.7,1.5,3.3,2.4,4.9c0.4,0.8,0.9,1.6,1.4,2.4s1,1.5,1.5,2.3c2.1,3,4.4,5.8,7.1,8.2
				c1.3,1.3,2.7,2.4,4.2,3.5c0.7,0.5,1.5,1,2.3,1.5c0.4,0.2,0.8,0.5,1.1,0.7l1.2,0.6c0.8,0.4,1.6,0.9,2.4,1.2l2.5,1
				c0.8,0.4,1.7,0.6,2.6,0.9c0.9,0.3,1.8,0.5,2.6,0.8c-3.6-0.6-7.2-1.5-10.5-3.3l-1.3-0.6c-0.4-0.2-0.8-0.5-1.2-0.7
				c-0.8-0.5-1.6-1-2.4-1.5c-1.5-1.1-3-2.2-4.3-3.5c-2.7-2.5-5.1-5.4-7-8.5C131.8,24.3,130.2,21,129.1,17.5z"/>
		</g>
	</g>
	<g>
		<path class="st0" d="M43,157c4.9,5.9,4.1,14.6-1.8,19.5s-14.6,4.1-19.5-1.8c-4.9-5.9-4.1-14.6,1.8-19.5S38.1,151.1,43,157z"/>
		<path class="st0" d="M45.4,161.7l-5-16.4c-0.6-2.1-2.8-3.2-4.9-2.6c-2.1,0.6-3.2,2.8-2.6,4.9l5,16.4L45.4,161.7z"/>
		<path class="st0" d="M32.4,152.7l-23.6-4.2c-2.1-0.4-4.2,1-4.5,3.2c-0.4,2.1,1,4.2,3.2,4.5l23.6,4.2L32.4,152.7z"/>
		<path class="st0" d="M28.2,159.1l-23.6-4.2c-2.1-0.4-4.2,1-4.5,3.2c-0.4,2.1,1,4.2,3.2,4.5l23.5,4.2L28.2,159.1z"/>
		<path class="st0" d="M30.6,165.5L7,161.3c-2.1-0.4-4.2,1-4.5,3.2c-0.4,2.1,1,4.2,3.2,4.5l23.6,4.2L30.6,165.5z"/>
		<path class="st0" d="M31,172.6l-19-3.4c-1.7-0.3-3.3,0.8-3.6,2.5s0.8,3.3,2.5,3.6l19.1,3.4L31,172.6z"/>
		<g>
			<path class="st2" d="M22.6,158.1c-4-0.6-8.1-1.2-12.1-1.8c-2-0.3-4-0.6-6-1c-0.9-0.2-1.8,0-2.6,0.4c-0.8,0.5-1.4,1.3-1.8,2.2
				c0,0,0,0-0.1,0l0,0c0-1,0.6-2.1,1.5-2.8s2.1-1,3.2-0.9c2,0.3,4,0.8,6,1.2C14.6,156.4,18.6,157.2,22.6,158.1
				C22.6,158.1,22.7,158.1,22.6,158.1C22.6,158.1,22.6,158.2,22.6,158.1z"/>
		</g>
		<g>
			<path class="st2" d="M21.4,163.9c-3.4-0.5-6.8-1-10.3-1.5L8.6,162l-1.3-0.2c-0.4-0.1-0.8-0.1-1.2-0.1c-1.5,0-3,1.1-3.6,2.7
				c0,0,0,0-0.1,0l0,0c0-1.8,1.6-3.5,3.6-3.7c1-0.1,1.8,0.2,2.7,0.3l2.5,0.5C14.7,162.3,18.1,163,21.4,163.9
				C21.5,163.8,21.5,163.8,21.4,163.9C21.5,163.8,21.5,163.9,21.4,163.9z"/>
		</g>
		<g>
			<path class="st2" d="M23.2,171.3c-2.7-0.3-5.4-0.7-8.1-1.1l-2-0.3l-1-0.2c-0.3-0.1-0.6-0.1-0.9-0.1c-1.2,0-2.3,0.8-2.8,2.1
				c0,0,0,0-0.1,0l0,0c-0.1-1.4,1.2-2.9,2.8-3.1c0.4-0.1,0.8,0,1.2,0.1l1,0.2l2,0.5C17.9,170,20.6,170.6,23.2,171.3
				C23.3,171.2,23.3,171.2,23.2,171.3C23.3,171.3,23.3,171.3,23.2,171.3z"/>
		</g>
		<g>
			<path class="st2" d="M32.4,152.8c-5-0.7-9.9-1.5-14.9-2.3c-2.5-0.4-5-0.7-7.4-1.2c-0.6-0.1-1.3-0.3-1.8-0.4c-0.6,0-1.1,0-1.7,0.2
				c-1.1,0.4-2,1.4-2.3,2.6c0,0,0,0-0.1,0c0,0,0,0,0-0.1c0-0.6,0.3-1.3,0.6-1.8c0.4-0.6,0.9-1,1.5-1.3s1.3-0.5,2-0.5
				s1.3,0.2,1.9,0.2c2.5,0.4,4.9,0.9,7.4,1.4C22.6,150.7,27.5,151.6,32.4,152.8C32.5,152.7,32.5,152.7,32.4,152.8
				C32.5,152.8,32.4,152.8,32.4,152.8z"/>
		</g>
		<g>
			<path class="st2" d="M37.8,166.3c-0.4-0.3-0.8-0.6-1.2-0.9c-0.4-0.4-0.8-0.7-1.1-1.1c-0.7-0.7-1.2-1.7-1.5-2.6
				c-0.4-1-0.6-2-0.4-3.1c0.1-1,0.5-2,1.2-2.8c0,0,0,0,0.1,0l0,0l0,0c-0.1,1-0.3,1.9-0.3,2.9c0,0.9,0,1.9,0.2,2.8
				c0.2,0.9,0.6,1.8,1.2,2.6c0.2,0.4,0.6,0.8,0.9,1.1C37.1,165.5,37.5,165.9,37.8,166.3L37.8,166.3
				C37.8,166.2,37.8,166.3,37.8,166.3L37.8,166.3z"/>
		</g>
	</g>
</g>
</svg>
