<?xml version="1.0" encoding="utf-8"?>
<!-- Generator: Adobe Illustrator 22.1.0, SVG Export Plug-In . SVG Version: 6.00 Build 0)  -->
<svg version="1.1" id="Layer_1" xmlns="http://www.w3.org/2000/svg" xmlns:xlink="http://www.w3.org/1999/xlink" x="0px" y="0px"
	 viewBox="0 0 36.3 100.9" style="enable-background:new 0 0 36.3 100.9;" xml:space="preserve">
<style type="text/css">
	.st0{fill:#EDEBEA;}
	.st1{fill:#94979B;}
	.st2{fill:#F5E0CD;}
	.st3{fill:#EBC19C;}
	.st4{fill:#ADDDFF;}
	.st5{fill:#F0D0B3;}
	.st6{fill:#F0DBCB;}
	.st7{fill:#A87C4F;}
	.st8{fill:url(#SVGID_1_);}
	.st9{fill:#58595B;}
	.st10{fill:#C3996B;}
	.st11{fill:#FFFFFF;}
	.st12{fill:#A38B7C;}
</style>
<title>img_toddler_unisex</title>
<ellipse transform="matrix(0.6545 -0.7561 0.7561 0.6545 -35.4798 47.1802)" class="st0" cx="33.9" cy="62.4" rx="1.6" ry="2.5"/>
<path class="st1" d="M26.6,58.8c0,0-4.4,4.6,0.2,5.7C31.3,65.6,41.4,62.2,26.6,58.8z"/>
<path class="st2" d="M13.9,63.6c-0.1,0.1,0,0.3,0.2,0.3l0.5,0.1c-0.1,0.1-0.2,0.2-0.3,0.3l-1.8,1.1c-0.2,0.1-0.2,0.3-0.1,0.4
	c0.1,0.1,0.2,0.1,0.4,0.1h-0.1c-0.2,0.1-0.2,0.3-0.1,0.4c0.2,0.1,0.4,0.1,0.6,0l0,0c0,0,0,0.1,0.1,0.1c0.2,0.1,0.4,0.1,0.6,0
	l0.4-0.2c0,0.1,0,0.1,0.1,0.2c0.2,0.1,0.3,0.1,0.5,0l1.3-0.8c0.6-0.2,1-0.6,1-1s-0.5-0.8-1.1-0.8l-1.6-0.3
	C14.3,63.3,14.1,63.4,13.9,63.6z"/>
<path class="st3" d="M14.3,64.9l-1,0.6c-0.2,0.1-0.3,0.2-0.5,0.3c-0.1,0-0.2,0.1-0.2,0.2s0,0.2,0.1,0.2l0,0l-0.1-0.1
	c0-0.1,0-0.1,0-0.2c0.1-0.1,0.1-0.2,0.2-0.2c0.2-0.1,0.3-0.2,0.5-0.3L14.3,64.9L14.3,64.9L14.3,64.9z"/>
<path class="st3" d="M14.7,65.1l-0.8,0.5c-0.1,0.1-0.3,0.2-0.4,0.3c-0.1,0-0.1,0.1-0.2,0.2c0,0.1,0,0.2,0.1,0.2l0,0l0,0
	c-0.1,0-0.1-0.1-0.1-0.2s0.1-0.2,0.2-0.2c0.1-0.1,0.3-0.2,0.4-0.3L14.7,65.1L14.7,65.1L14.7,65.1z"/>
<path class="st3" d="M15.5,65.3l-0.6,0.4l-0.3,0.2c-0.1,0-0.2,0.2-0.1,0.3l0,0l0,0c-0.1,0-0.1-0.1-0.1-0.2s0.1-0.1,0.1-0.2
	c0.1-0.1,0.2-0.1,0.3-0.2L15.5,65.3L15.5,65.3L15.5,65.3z"/>
<path class="st3" d="M14.6,64.1l-1.2,0.8c-0.2,0.1-0.4,0.3-0.6,0.4c-0.1,0.1-0.2,0.1-0.3,0.2s-0.1,0.2,0,0.3l0,0l0,0
	c-0.1,0-0.1-0.1-0.1-0.1c0-0.1,0-0.1,0.1-0.2s0.2-0.2,0.3-0.2c0.2-0.1,0.4-0.3,0.6-0.4L14.6,64.1L14.6,64.1L14.6,64.1z"/>
<path class="st2" d="M4.1,62.7C4,62.8,4.1,63,4.4,63l0.5,0.1c-0.1,0.1-0.2,0.2-0.3,0.3l-1.8,1.1c-0.2,0.1-0.2,0.3-0.1,0.4
	C2.8,65,2.9,65,3.1,65H3c-0.2,0.1-0.2,0.3-0.1,0.4c0.2,0.1,0.4,0.1,0.6,0l0,0c0,0,0,0.1,0.1,0.1c0.2,0.1,0.4,0.1,0.6,0l0.4-0.2
	c0,0.1,0,0.1,0.1,0.2c0.2,0.1,0.3,0.1,0.5,0l1.3-0.8c0.6-0.2,1-0.6,1-1S7,62.9,6.4,62.9l-1.6-0.2C4.5,62.4,4.3,62.5,4.1,62.7z"/>
<path class="st3" d="M4.5,64l-1,0.6c-0.2,0.1-0.3,0.2-0.5,0.3c-0.1,0-0.2,0.1-0.2,0.2s0,0.2,0.1,0.2l0,0l0,0l0,0l-0.1-0.1
	c0-0.1,0-0.1,0-0.2c0,0,0.1-0.1,0.2-0.2c0.2-0.1,0.3-0.2,0.5-0.3L4.5,64L4.5,64L4.5,64z"/>
<path class="st3" d="M4.9,64.2l-0.8,0.5C4,64.9,3.8,65,3.7,65s-0.1,0.1-0.2,0.2c0,0.1,0,0.2,0.1,0.2l0,0l0,0c-0.1,0-0.1-0.1-0.1-0.2
	S3.6,65,3.7,65c0.1-0.1,0.3-0.2,0.4-0.2L4.9,64.2L4.9,64.2L4.9,64.2z"/>
<path class="st3" d="M5.7,64.4l-0.6,0.4C4.9,64.9,4.8,65,4.7,65c-0.1,0.1-0.2,0.2-0.1,0.3l0,0l0,0c-0.1,0-0.1-0.1-0.1-0.2
	s0.1-0.1,0.1-0.2c0.1-0.1,0.2-0.1,0.3-0.2L5.7,64.4L5.7,64.4L5.7,64.4z"/>
<path class="st3" d="M4.8,63.2L3.5,64l-0.6,0.4c-0.1,0.1-0.2,0.1-0.3,0.2s-0.1,0.2,0,0.2l0,0l0,0l0,0c-0.1,0-0.1-0.1-0.1-0.1
	c0-0.1,0-0.1,0.1-0.2s0.2-0.2,0.3-0.2c0.2-0.1,0.4-0.3,0.6-0.4L4.8,63.2L4.8,63.2L4.8,63.2z"/>
<path class="st4" d="M29.1,63l-18.7-1.6c-5-0.4-8.8-4.9-8.4-9.9l0,0c0.4-5,4.9-8.8,9.9-8.4l14.3,4.3c1.9,0.5,6.3,3.7,6.8,7.7l0,0
	C32.6,60.2,34.1,63.5,29.1,63z"/>
<path class="st2" d="M16.8,47.1c-0.3,0.4-0.5,0.9-0.6,1.4c-0.1,0.3,0,0.8,0.1,0.9c0.1,0,0.2,0,0.3-0.1c0.4-0.3,0.7-0.7,0.7-1.2
	C17.2,47.7,17.1,47.3,16.8,47.1z"/>
<path class="st2" d="M17.8,45.5c-0.6-0.1-1.6,0.6-1.6,0.6c-1.1,0.9-0.5,4.8,0.5,4.7s0.9-1.4,0.9-1.4c0.5-0.3,0.9-1.4,0.9-1.4
	C19.3,45.8,17.8,45.5,17.8,45.5z M18.3,46.9c0,0.2-0.1,0.3-0.2,0.4l-0.3-0.1c0.1-0.1,0.1-0.3,0.2-0.4c0-0.1,0-0.2,0-0.3
	s-0.1-0.2-0.2-0.2s-0.2,0-0.2,0c-0.2,0.1-0.4,0.2-0.5,0.4c0.4,0.3,0.6,0.8,0.6,1.3c0,0.6-0.3,1.2-0.8,1.5c-0.1,0.1-0.3,0.1-0.4,0.1
	s-0.2,0-0.2-0.1c-0.4-0.2-0.3-1.1-0.3-1.2c0.1-0.8,0.9-2.1,1.5-2.3c0.1-0.1,0.3-0.1,0.4-0.1c0.2,0,0.4,0.2,0.5,0.4
	C18.3,46.6,18.3,46.7,18.3,46.9L18.3,46.9z"/>
<path class="st5" d="M17.7,46c-0.1,0-0.3,0-0.4,0.1c-0.7,0.2-1.4,1.6-1.5,2.3c0,0.2-0.1,1,0.3,1.2c0.1,0,0.2,0.1,0.2,0.1
	c0.1,0,0.3,0,0.4-0.1c0.5-0.3,0.8-0.9,0.8-1.5c0-0.5-0.2-1-0.6-1.3c0.1-0.2,0.3-0.3,0.5-0.4c0.1,0,0.2,0,0.2,0
	c0.1,0,0.2,0.1,0.2,0.2c0,0.1,0.1,0.2,0,0.3c0,0.1-0.1,0.3-0.2,0.4l0.3,0.1c0.1-0.1,0.1-0.3,0.2-0.4c0-0.2,0-0.4,0-0.5
	C18.1,46.2,17.9,46.1,17.7,46z M17.2,48.1c0,0.5-0.2,1-0.7,1.2c-0.1,0-0.2,0.1-0.3,0.1c-0.2-0.1-0.2-0.6-0.1-0.9
	c0.1-0.5,0.3-1,0.6-1.4C17.1,47.3,17.2,47.7,17.2,48.1L17.2,48.1z"/>
<path class="st2" d="M2,47.1c0.3,0.4,0.5,0.9,0.6,1.4c0,0.3,0,0.8-0.1,0.9c-0.1,0-0.2,0-0.3-0.1c-0.4-0.3-0.7-0.7-0.7-1.2
	C1.5,47.7,1.7,47.3,2,47.1z"/>
<path class="st2" d="M0.3,48c0,0,0.4,1.2,0.9,1.4c0,0-0.1,1.3,0.9,1.4C3,51,3.7,47,2.6,46.2c0,0-1-0.7-1.6-0.6
	C1,45.5-0.5,45.8,0.3,48z M0.5,46.4C0.6,46.2,0.8,46.1,1,46c0.1,0,0.3,0,0.4,0.1c0.7,0.2,1.4,1.6,1.5,2.3c0,0.2,0.1,1-0.3,1.2
	c-0.1,0-0.2,0.1-0.2,0.1c-0.1,0-0.3,0-0.4-0.1c-0.5-0.3-0.8-0.9-0.8-1.5c0-0.5,0.2-1,0.6-1.3c-0.1-0.2-0.3-0.3-0.5-0.4
	c-0.1,0-0.2,0-0.2,0c-0.1,0-0.2,0.1-0.2,0.2c0,0.1-0.1,0.2,0,0.3c0,0.1,0.1,0.3,0.2,0.4l-0.3,0.1c-0.1-0.1-0.1-0.3-0.2-0.4
	C0.5,46.7,0.5,46.6,0.5,46.4L0.5,46.4z"/>
<path class="st5" d="M0.5,46.4c-0.1,0.2-0.1,0.4,0,0.5c0,0.2,0.1,0.3,0.2,0.4L1,47.2c-0.1-0.1-0.1-0.3-0.2-0.4c0-0.1,0-0.2,0-0.3
	s0.1-0.2,0.2-0.2s0.2,0,0.2,0c0.2,0.1,0.4,0.2,0.5,0.4C1.3,47,1.1,47.5,1.1,48c0,0.6,0.3,1.2,0.8,1.5c0.1,0.1,0.3,0.1,0.4,0.1
	c0.1,0,0.2,0,0.2-0.1c0.4-0.2,0.3-1.1,0.3-1.2C2.7,47.5,2,46.2,1.3,46c0,0-0.2,0-0.3,0C0.8,46.1,0.6,46.2,0.5,46.4z M2,47.1
	c0.3,0.4,0.5,0.9,0.6,1.4c0,0.3,0,0.8-0.1,0.9c-0.1,0-0.2,0-0.3-0.1c-0.4-0.3-0.7-0.7-0.7-1.2C1.5,47.7,1.7,47.3,2,47.1L2,47.1z"/>
<path class="st6" d="M9.4,55.8L9.4,55.8c-3.8,0-8.1-1.6-8.1-4.6V41c0.5-2.2,3.5-4.7,6.8-5.6h2.4c3,0.6,6.2,3,6.8,5.6v10.2
	C17.3,54.2,13.1,55.8,9.4,55.8z"/>
<path class="st3" d="M7.1,54.8c1.3,1.3,3.3,1.3,4.6,0l0,0C10.2,55.4,8.6,55.4,7.1,54.8z"/>
<path class="st7" d="M13.2,44.4C13.2,44.4,13.3,44.4,13.2,44.4C13.3,44.4,13.3,44.4,13.2,44.4c-0.2-0.2-0.4-0.2-0.6-0.2
	c-0.2,0-0.4,0.1-0.6,0.3v0.1c0.2-0.1,0.4-0.1,0.6-0.1C12.8,44.4,13,44.4,13.2,44.4z"/>
<path class="st7" d="M5.2,44.6C5.2,44.6,5.1,44.6,5.2,44.6C5.1,44.6,5.1,44.5,5.2,44.6c0.2-0.2,0.5-0.3,0.7-0.2
	c0.3,0,0.5,0.1,0.7,0.3c0,0,0,0.1-0.1,0.1c-0.2-0.1-0.4-0.1-0.7-0.2C5.7,44.6,5.4,44.6,5.2,44.6z"/>
<radialGradient id="SVGID_1_" cx="195.5839" cy="405.0044" r="3.2078" gradientTransform="matrix(1 0 0 1 0 -198)" gradientUnits="userSpaceOnUse">
	<stop  offset="0" style="stop-color:#F0BFD9;stop-opacity:0.95"/>
	<stop  offset="4.000000e-02" style="stop-color:#EEBCD3;stop-opacity:0.88"/>
	<stop  offset="0.15" style="stop-color:#E9B3C2;stop-opacity:0.65"/>
	<stop  offset="0.27" style="stop-color:#E4ABB2;stop-opacity:0.45"/>
	<stop  offset="0.39" style="stop-color:#E1A4A6;stop-opacity:0.29"/>
	<stop  offset="0.51" style="stop-color:#DE9F9C;stop-opacity:0.16"/>
	<stop  offset="0.62" style="stop-color:#DC9C96;stop-opacity:7.000000e-02"/>
	<stop  offset="0.73" style="stop-color:#DA9A91;stop-opacity:2.000000e-02"/>
	<stop  offset="0.83" style="stop-color:#DA9990;stop-opacity:0"/>
	<stop  offset="1" style="stop-color:#DA9990;stop-opacity:0"/>
</radialGradient>
<ellipse class="st8" cx="14.9" cy="49.7" rx="3.5" ry="3.2"/>
<path class="st3" d="M9.4,50.3l0.7-0.1c0.1,0,0.2-0.1,0.2-0.1V50l-0.7-0.7c-0.1-0.1-0.2-0.1-0.2,0L8.7,50c-0.1,0.1-0.1,0.2,0,0.2
	h0.1L9.4,50.3z"/>
<ellipse class="st9" cx="6" cy="46.2" rx="0.9" ry="0.8"/>
<ellipse class="st9" cx="12.6" cy="46.2" rx="0.9" ry="0.8"/>
<path class="st10" d="M5.9,51.8c0.3,0.9,1.8,1.6,3.6,1.6s3.3-0.7,3.6-1.6c-0.8,0.3-2.1,0.4-3.6,0.4S6.7,52.2,5.9,51.8z"/>
<path class="st11" d="M13,52c0.1-0.1,0.2-0.2,0.2-0.3c0,0-0.1-0.1-0.1,0C12.3,52,11,52,9.5,52s-2.8,0-3.6-0.3c-0.1,0-0.1,0-0.1,0
	C5.9,51.8,5.9,51.9,6,52c0.8,0.3,2.1,0.3,3.5,0.3S12.2,52.3,13,52z"/>
<path class="st12" d="M5.3,40.4c0.8-0.8,0.9-1.1,1.4-1.4c-0.6,0.3-1.4,0.4-2.1,0.3c0.6-0.6,1-1,1.4-1.5c0.5-0.7,1.2-1.2,1.9-1.7
	c2.4-1.5,5.3-0.3,4.2,2.5c-0.5,1.1-1.5,1.7-2.5,2.1C8.8,41,7.7,41,6.3,41.1c0.5-0.5,1-0.9,1.6-1.3C7.1,40.3,6.2,40.5,5.3,40.4z"/>
<polygon class="st4" points="2.7,55.7 5.5,63 7,63 7.7,58.9 "/>
<polygon class="st4" points="19.7,56.6 16.7,63.9 15.1,63.9 14.4,59.8 "/>
<path class="st4" d="M24.4,58.1c0,0-5.4,5.7,0.2,7C30.2,66.5,42.5,62.3,24.4,58.1z"/>
</svg>
