<?xml version="1.0" encoding="utf-8"?>
<!-- Generator: Adobe Illustrator 22.1.0, SVG Export Plug-In . SVG Version: 6.00 Build 0)  -->
<svg version="1.1" id="Layer_1" xmlns="http://www.w3.org/2000/svg" xmlns:xlink="http://www.w3.org/1999/xlink" x="0px" y="0px"
	 viewBox="0 0 242.5 489.5" style="enable-background:new 0 0 242.5 489.5;" xml:space="preserve">
<style type="text/css">
	.st0{fill:#4C5258;}
	.st1{fill:#787986;}
	.st2{fill:#6E7377;}
	.st3{fill:#E0E1DD;}
	.st4{fill:#CACBCD;}
	.st5{fill:#C8CAC7;}
	.st6{fill:#929497;}
	.st7{fill:#A4A6A4;}
	.st8{fill:#F0D0B3;}
	.st9{fill:#734939;}
	.st10{fill:#005E88;}
	.st11{fill:#EBC19C;}
	.st12{fill:none;stroke:#EBC19C;stroke-width:0.9921;stroke-linecap:round;stroke-linejoin:round;stroke-miterlimit:10;}
	.st13{fill:#D0D2D3;}
	.st14{fill:#58595B;}
	.st15{opacity:0.55;fill:#BBBDBF;}
	.st16{fill:#F1F1F2;}
	.st17{fill:#DEB18A;}
	.st18{fill:#606161;}
	.st19{fill:#B08774;}
	.st20{fill:#404041;}
	.st21{fill:#C3996B;}
</style>
<g>
	<g>
		<path class="st0" d="M168.2,409.9c-1.9-6.2,1.6-12.7,7.8-14.6c6.2-1.9,12.7,1.6,14.6,7.8c0.6,2,0.6,4.1,0.2,6
			c-5.7,0.3-18.3,0.9-22.3,1.7C168.4,410.5,168.3,410.2,168.2,409.9z"/>
		<path class="st1" d="M182.4,416.5c-5.4,1.6-11.1-1.2-13.1-6.4c3.7-0.7,15.2-1.3,20.4-1.5C188.9,412.2,186.2,415.3,182.4,416.5z"/>
	</g>
	<rect x="127.1" y="340.6" class="st0" width="16" height="99.1"/>
	<path class="st0" d="M204.2,447.2L72.1,435.8c-2.4-0.2-4.3-2.4-4-4.8l0,0c0.2-2.4,2.4-4.3,4.8-4L205,438.3c2.4,0.2,4.3,2.4,4,4.8
		l0,0C208.8,445.6,206.7,447.4,204.2,447.2z"/>
	<path class="st0" d="M181.2,404l-87.8,71.9c-1.9,1.6-4.7,1.3-6.3-0.6l0,0c-1.6-1.9-1.3-4.7,0.6-6.3l87.8-71.9
		c1.9-1.6,4.7-1.3,6.3,0.6l0,0C183.4,399.6,183.1,402.4,181.2,404z"/>
	<g>
		<polygon class="st2" points="60,349.1 62.3,349 62.2,347.6 		"/>
		<polygon class="st2" points="59.9,298.7 57.6,298.8 60,349.1 62.2,347.6 		"/>
		<polygon class="st0" points="71.9,298.1 69.6,298.2 71.6,341 62.2,347.6 62.3,349 73.9,340.9 		"/>
		<polygon class="st0" points="71.6,341 69.6,298.2 59.9,298.7 62.2,347.6 		"/>
	</g>
	<g>
		<polygon class="st3" points="221.8,323.6 86.4,316 118.9,142.2 229.9,146 		"/>
		<polygon class="st4" points="221.8,311.2 229.9,146 239.1,154 228.9,332.1 221.8,336 		"/>
	</g>
	<polygon class="st5" points="86.4,316 39.2,351.1 164.9,365.2 221.8,323.6 	"/>
	<polygon class="st6" points="221.8,336 166.6,375.6 164.9,365.2 221.8,323.6 	"/>
	<polygon class="st6" points="165,365.1 166.6,375.6 45.7,360.1 39.2,351.1 	"/>
	<g>
		<polygon class="st2" points="191.7,358.4 193.9,358.2 193.9,356.8 		"/>
		<polygon class="st2" points="191.6,307.9 189.3,308 191.7,358.4 193.9,356.8 		"/>
		<polygon class="st0" points="203.5,307.3 201.3,307.4 203.3,350.2 193.9,356.8 193.9,358.2 205.6,350.1 		"/>
		<polygon class="st0" points="203.3,350.2 201.3,307.4 191.6,307.9 193.9,356.8 		"/>
	</g>
	<g>
		<polygon class="st5" points="70.4,284.2 24.2,318.5 38.3,320.7 91.6,285.2 		"/>
		<polygon class="st5" points="70.6,280 24.4,314.4 38.4,316.6 91.7,281.1 		"/>
		<polygon class="st7" points="24.4,314.4 24.2,318.5 38.3,320.7 38.4,316.6 		"/>
		<polygon class="st7" points="91.7,281.1 91.6,285.2 38.3,320.7 38.4,316.6 		"/>
	</g>
	<g>
		<path class="st0" d="M81.6,438.5c0-6.5-5.2-11.7-11.7-11.7c-6.5,0-11.7,5.2-11.7,11.7c0,2.1,0.6,4.1,1.5,5.8
			c5.5-1.4,17.7-4.5,21.8-4.9C81.6,439.1,81.6,438.8,81.6,438.5z"/>
		<path class="st1" d="M69.9,449c5.6,0,10.2-4.4,10.6-9.9c-3.7,0.4-14.9,3.2-19.9,4.5C62.4,446.8,65.9,449,69.9,449z"/>
	</g>
	<g>
		<path class="st0" d="M190.5,449.6c0-6.5,5.2-11.7,11.7-11.7s11.7,5.2,11.7,11.7c0,2.1-0.6,4.1-1.5,5.8c-5.5-1.4-17.7-4.5-21.8-4.9
			C190.5,450.2,190.5,449.9,190.5,449.6z"/>
		<path class="st1" d="M202.2,460c-5.6,0-10.2-4.4-10.6-9.9c3.7,0.4,14.9,3.2,19.9,4.5C209.7,457.8,206.2,460,202.2,460z"/>
	</g>
	<g>
		<path class="st0" d="M81.6,480.1c-0.6-6.4,4.1-12.1,10.6-12.7s12.1,4.1,12.7,10.6c0.2,2.1-0.2,4.1-1,5.9
			c-5.7-0.9-18.1-2.8-22.2-2.9C81.7,480.7,81.7,480.4,81.6,480.1z"/>
		<path class="st1" d="M94.2,489.4c-5.6,0.5-10.6-3.4-11.5-8.9c3.8,0.1,15.1,1.8,20.3,2.6C101.5,486.5,98.2,489,94.2,489.4z"/>
	</g>
	<g>
		
			<rect x="41.4" y="442.7" transform="matrix(0.9993 -3.681803e-02 3.681803e-02 0.9993 -16.4595 2.0031)" class="st8" width="9.4" height="10.4"/>
		<g>
			<g>
				<g>
					<polygon class="st9" points="54.2,474.8 38.9,475.4 38.8,472.1 15.9,476.3 0.4,476.8 0,465 39.5,451.2 53.3,450.7 					"/>
				</g>
			</g>
		</g>
	</g>
	<path class="st10" d="M108.8,271.7c5.1-4,15.5-5.3,23-2.8l41.8,13.7c7.6,2.5,15.2,9.6,16.9,15.9c1.7,6.3-9.4,33.7-14.6,38.5
		l-19.8,6.9c-5.3,4.8-10.5,1.9-18.1-0.6l-13.5-4.4c-7.6-2.5-14.9-10.2-16.4-17.2l-10.3-10C96.5,304.7,103.7,275.7,108.8,271.7z"/>
	<g>
		<g>
			<g>
				<path class="st8" d="M167.5,255.9c-3.7-1.1-7.1-0.4-9.5,2.1c-0.5,0.6-1,1.2-1.4,2c-1.2-0.2-2.3-0.2-3.4,0.1
					c-2.4,0.7-4.5,2.5-5.7,4.9c-0.6,1.3-1.1,3.8-0.1,5.6c0,1.2,0.1,2.4,0.3,3.5c0,1,0.2,2.1,0.8,3.1c0.5,0.9,1.3,1.8,2.4,2.6
					l0.4-0.3c-0.3,1.8,0.2,3.7,2,5.2c1.8,1.5,3.2,1.7,3.2,1.7l0.2-0.2c0.2,0.7,0.6,1.4,1.2,2c1.2,1.3,7.4,4.7,13.5,2.9
					c0.1,0,0.3-0.1,0.4-0.1c2-0.6,3.7-1.6,4.8-2.6c6.4-5.8,6.4-16.2,1.3-23.1C176.1,261.8,172,257.2,167.5,255.9z"/>
				<g>
					<path class="st11" d="M163.4,284.5c0.7,0.8,1.8,1,2.7,0.8c1-0.2,1.5-1.2,1.7-2.2c0.2-1-0.2-2-0.9-2.7c-0.7-0.7-1.6-1.1-2.6-1.3
						c-1-0.2-2-0.3-2.9,0c-0.9,0.3-1.8,0.8-2.6,1.4c-1.5,1.2-2.4,3.3-1.9,5.1c0.2,0.9,0.7,1.8,1.4,2.4c0.7,0.6,1.6,1.1,2.5,1.5
						c1.8,0.8,3.8,1.4,5.8,1.6c2,0.2,4,0,5.9-0.7c1.9-0.7,3.5-1.9,5-3.4c0,0,0.1,0,0.1,0c0,0,0,0,0,0.1c-1.3,1.6-2.9,3.1-4.8,3.9
						c-1.9,0.9-4.1,1.2-6.2,1.1c-2.1-0.2-4.2-0.7-6.1-1.7c-0.9-0.5-1.9-1-2.7-1.8c-0.8-0.8-1.3-1.8-1.6-2.9
						c-0.4-2.2,0.6-4.5,2.3-5.8c0.8-0.7,1.8-1.2,2.8-1.5c1-0.3,2.2-0.2,3.2,0c1,0.3,2.1,0.7,2.8,1.5c0.7,0.8,1.1,1.9,0.9,3
						c-0.1,0.5-0.3,1-0.6,1.5c-0.3,0.5-0.8,0.8-1.3,0.9C165.2,285.7,164,285.4,163.4,284.5C163.4,284.6,163.4,284.5,163.4,284.5
						C163.4,284.5,163.4,284.5,163.4,284.5z"/>
				</g>
				<path class="st12" d="M165,279c0,0,0.9-2.3,0.1-4c-0.8-1.7-3-3-7.1-2.2c-5,1-9.6,7.8-4.7,12c1.8,1.5,3.2,1.7,3.2,1.7"/>
				<path class="st12" d="M162.5,272c0.8-3.7-1.5-4.3-4.5-4.9c-2.9-0.5-6.3,1.1-8.3,2.9c-2.3,2-3.4,6.5,1.3,9.8"/>
				<path class="st12" d="M160.7,266.7c2.2-3.5-1.1-5.9-3.7-6.5c-4-1-7.7,1.4-9.4,5c-0.7,1.4-1.2,4.2,0.1,6"/>
				<path class="st8" d="M178.9,269.4c0.7-2.6-4.9-11.6-11.5-13.5c-4.9-1.4-9.2,0.1-11.2,5c-2.1,4.9,2.2,9.7,7.2,5
					c2.1,2.7,5.3,5,7.9,5.5L178.9,269.4z"/>
				<g>
					<path class="st11" d="M178.8,267.4c-0.7-1.9-1.9-3.7-3.2-5.3c-1.3-1.6-2.8-3-4.5-4.2c-0.8-0.6-1.7-1-2.7-1.4
						c-0.9-0.3-1.9-0.6-2.9-0.7c-2-0.2-4.1,0.1-5.7,1.3c-1.6,1.1-2.7,2.9-3.3,4.8c-0.2,0.9-0.3,1.9-0.1,2.8c0.2,0.9,0.7,1.7,1.5,2.2
						c0.7,0.5,1.7,0.6,2.6,0.4c0.5-0.1,0.9-0.3,1.3-0.5c0.4-0.3,0.8-0.5,1.2-0.9c1.6-1.2,2.6-3.1,2.7-5.2l0,0c0,0,0,0,0.1,0
						c0,0,0,0,0,0c0.2,2.1-0.7,4.3-2.4,5.7c-0.7,0.8-1.7,1.4-2.8,1.7c-1.1,0.3-2.4,0.2-3.4-0.4c-1-0.7-1.6-1.7-1.9-2.8
						c-0.3-1.1-0.2-2.3,0.1-3.3c0.7-2.1,2-4,3.8-5.2c1.8-1.2,4.1-1.5,6.2-1.2c1.1,0.1,2.1,0.4,3.1,0.8c1,0.4,1.9,0.9,2.8,1.6
						c1.7,1.2,3.2,2.7,4.4,4.4C177.1,263.6,178.2,265.4,178.8,267.4C178.9,267.4,178.9,267.5,178.8,267.4
						C178.8,267.5,178.8,267.5,178.8,267.4z"/>
				</g>
			</g>
			<path class="st12" d="M163.8,266.2c2.1,3,4.7,4.7,7.5,5.3"/>
		</g>
		<g>
			<g>
				<g>
					<path class="st8" d="M93.1,128C93.1,128,93,128,93.1,128c0.1,0.3,0.2,0.5,0.2,0.7c0.1,0.5,0.1,0.8,0.1,1.2
						c0,0.4-0.1,0.6-0.1,0.8"/>
					<path class="st8" d="M102.5,144.8c7.5,10.6,16.4,20.7,25.7,30.3c4.5,4.7,6,10.7,3.1,13.7l-0.7,0.7c-2.9,3-9.2,1.3-13.8-3.8
						c-9.2-10.4-18-21.3-25.7-33.3c-3.8-6-7.4-12.4-9.9-19.7l-0.1-0.3l-0.1-0.2c-0.1-0.3-0.2-0.7-0.2-1c-0.1-0.7-0.1-1.3-0.1-1.8
						c0-0.3,0-0.6,0.1-0.8c0-0.2,0.1-0.4,0.1-0.6c0.4-1.6,0.9-2.4,1.4-3.1c0.9-1.3,1.7-2.1,2.4-2.9c1.5-1.5,3-2.7,4.4-3.8
						c2.9-2.3,5.8-4.3,8.7-6.2c5.8-3.9,11.6-7.5,17.4-11l4.6-2.1l5.5,9.2l-4.3,2.3c-5.6,3.6-11.2,7.3-16.6,11.1c-2.7,2-5.3,4-7.7,6
						c-1.2,1-2.3,2.1-3.2,3L102.5,144.8z"/>
					<path class="st8" d="M131.1,103.2c-2.6,1.5-5.2,3-7.7,4.6l-3.7-6.2c2.6-1.6,5.2-3.1,7.9-4.6L131.1,103.2z"/>
				</g>
				<path class="st13" d="M102.2,142.9c7.5,10.6,18.2,22.5,27.5,32.1c4.5,4.7,2.4,9.8-0.6,12.8l-0.7,0.7c-2.9,3-9.2,1.3-13.8-3.8
					c-9.2-10.4-18-21.3-25.7-33.3c-3.8-6-7.4-12.4-9.9-19.7l-0.1-0.3l-0.1-0.2c-0.1-0.3-0.2-0.7-0.2-1c-0.1-0.7-0.1-1.3-0.1-1.8
					c0-0.3,0-0.6,0.1-0.8c0-0.2,0.1-0.4,0.1-0.6c0.4-1.6,0.9-2.4,1.4-3.1c0.9-1.3,1.7-2.1,2.4-2.9c1.5-1.5,3-2.7,4.4-3.8
					c2.9-2.3,5.8-4.3,8.7-6.2c5.8-3.9,11.6-7.5,17.4-11l6.9-4l7.2,12.3l-6.6,4.2c-5.6,3.6-11.2,7.3-16.6,11.1c-2.7,2-5.3,4-7.7,6
					c-1.2,1-0.6,0.4-1.5,1.3L102.2,142.9z"/>
				<g>
					<path class="st8" d="M149.1,102.4c-5.6,5.2-14.3,4.9-19.6-0.6c-5.2-5.6-4.9-14.3,0.6-19.6c5.6-5.2,14.3-4.9,19.6,0.6
						C154.9,88.4,154.7,97.2,149.1,102.4z"/>
					<path class="st8" d="M144.5,105.1l16.1-6c2-0.8,3.1-3,2.3-5c-0.8-2-3-3.1-5-2.3l-16.1,6L144.5,105.1z"/>
					<path class="st8" d="M152.7,91.6l2.8-23.8c0.3-2.1-1.3-4.1-3.4-4.4c-2.1-0.3-4.1,1.3-4.4,3.4L145,90.7L152.7,91.6z"/>
					<path class="st8" d="M146.1,87.7l2.8-23.8c0.3-2.1-1.3-4.1-3.4-4.4c-2.2-0.3-4.1,1.3-4.4,3.4l-2.8,23.8L146.1,87.7z"/>
					<path class="st8" d="M139.9,90.6l2.8-23.8c0.3-2.1-1.3-4.1-3.4-4.4c-2.1-0.3-4.1,1.3-4.4,3.4l-2.8,23.8L139.9,90.6z"/>
					<path class="st8" d="M132.8,91.4l2.3-19.2c0.2-1.7-1-3.3-2.7-3.5c-1.7-0.2-3.3,1-3.5,2.7l-2.3,19.2L132.8,91.4z"/>
					<g>
						<path class="st11" d="M146.7,82.1c0.3-4.1,0.7-8.1,1.1-12.2c0.2-2,0.3-4.1,0.6-6.1c0.1-0.9-0.1-1.8-0.6-2.6
							c-0.5-0.8-1.4-1.4-2.3-1.6c0,0,0,0,0-0.1c0,0,0,0,0,0c1,0,2.1,0.5,2.9,1.3c0.8,0.8,1.1,2,1,3.1c-0.2,2-0.5,4-0.8,6.1
							C148,74.1,147.5,78.1,146.7,82.1C146.8,82.2,146.8,82.2,146.7,82.1C146.8,82.2,146.7,82.2,146.7,82.1z"/>
					</g>
					<g>
						<path class="st11" d="M141,81.3c0.3-3.4,0.6-6.9,0.9-10.3l0.2-2.6l0.1-1.3c0.1-0.5,0.1-0.8,0-1.2c-0.1-1.5-1.3-2.9-2.9-3.4
							c0,0,0,0,0-0.1c0,0,0,0,0,0c1.8-0.1,3.6,1.4,3.9,3.4c0.1,1-0.1,1.8-0.2,2.7l-0.4,2.6C142.1,74.5,141.6,77.9,141,81.3
							C141.1,81.4,141,81.4,141,81.3C141,81.4,141,81.3,141,81.3z"/>
					</g>
					<g>
						<path class="st11" d="M133.6,83.5c0.2-2.7,0.4-5.5,0.6-8.2l0.1-2l0.1-1c0.1-0.3,0.1-0.6,0-0.9c-0.1-1.2-0.9-2.2-2.2-2.7
							c0,0,0,0,0-0.1c0,0,0,0,0,0c1.4-0.1,3,1.1,3.2,2.6c0.1,0.4,0.1,0.8,0,1.2l-0.1,1l-0.3,2C134.6,78.2,134.2,80.9,133.6,83.5
							C133.7,83.6,133.7,83.6,133.6,83.5C133.7,83.6,133.6,83.6,133.6,83.5z"/>
					</g>
					<g>
						<path class="st11" d="M152.7,91.6c0.4-5,0.9-10,1.4-15c0.2-2.5,0.4-5,0.8-7.5c0.1-0.6,0.2-1.3,0.2-1.8c0-0.6-0.1-1.1-0.3-1.6
							c-0.5-1-1.5-1.9-2.7-2.2c0,0,0,0,0-0.1c0,0,0,0,0,0c0.6,0,1.3,0.2,1.9,0.5c0.6,0.3,1.1,0.8,1.4,1.4c0.4,0.6,0.5,1.3,0.6,2
							c0,0.7-0.1,1.3-0.1,1.9c-0.2,2.5-0.6,5-1,7.5C154.2,81.7,153.5,86.7,152.7,91.6C152.8,91.7,152.8,91.7,152.7,91.6
							C152.7,91.7,152.7,91.7,152.7,91.6z"/>
					</g>
					<g>
						<path class="st11" d="M139.5,97.8c0.3-0.4,0.5-0.8,0.8-1.2c0.3-0.4,0.6-0.8,1-1.1c0.7-0.7,1.6-1.3,2.5-1.7
							c0.9-0.4,2-0.7,3-0.6c1,0.1,2.1,0.4,2.9,1c0,0,0,0,0,0.1c0,0,0,0,0,0l0,0c-1-0.1-1.9-0.1-2.9-0.1c-0.9,0.1-1.9,0.1-2.7,0.4
							c-0.9,0.3-1.8,0.7-2.5,1.3c-0.4,0.3-0.7,0.6-1.1,0.9C140.2,97.1,139.9,97.4,139.5,97.8L139.5,97.8
							C139.6,97.8,139.5,97.8,139.5,97.8C139.5,97.8,139.5,97.8,139.5,97.8z"/>
					</g>
				</g>
			</g>
			<g>
				<g>
					<path class="st8" d="M228.1,140.4C228.1,140.4,228.1,140.4,228.1,140.4c-0.1,0.3-0.2,0.5-0.3,0.7c-0.1,0.5-0.2,0.8-0.2,1.2
						c0,0.4,0,0.6,0,0.8"/>
					<path class="st8" d="M217,156.1c-8.6,9.8-18.5,18.9-28.7,27.5c-5,4.2-7,10-4.4,13.3l0.6,0.8c2.6,3.3,9.1,2.3,14.1-2.3
						c10.3-9.4,20.1-19.4,29-30.5c4.4-5.6,8.6-11.5,11.8-18.6l0.2-0.3l0.1-0.2c0.1-0.3,0.3-0.6,0.4-1c0.2-0.7,0.3-1.2,0.3-1.8
						c0-0.3,0-0.6,0-0.8c0-0.2,0-0.4-0.1-0.6c-0.2-1.6-0.7-2.5-1-3.2c-0.7-1.4-1.4-2.3-2.1-3.2c-1.4-1.7-2.7-3-4-4.3
						c-2.7-2.6-5.3-4.8-8-7.1c-5.3-4.4-10.8-8.6-16.2-12.7l-4.3-2.6l-6.4,8.6l4,2.8c5.2,4.2,10.4,8.4,15.4,12.8
						c2.5,2.2,4.9,4.5,7,6.8c1.1,1.1,2.1,2.3,2.8,3.3L217,156.1z"/>
					<path class="st8" d="M192.8,111.9c2.4,1.7,4.8,3.5,7.2,5.3l4.4-5.8c-2.4-1.8-4.9-3.6-7.4-5.4L192.8,111.9z"/>
				</g>
				<path class="st13" d="M217.5,154.3c-8.6,9.8-20.4,20.6-30.6,29.1c-5,4.2-3.3,9.5-0.8,12.8l0.6,0.8c2.6,3.3,9.1,2.3,14.1-2.3
					c10.3-9.4,20.1-19.4,29-30.5c4.4-5.6,8.6-11.5,11.8-18.6l0.2-0.3l0.1-0.2c0.1-0.3,0.3-0.6,0.4-1c0.2-0.7,0.3-1.2,0.3-1.8
					c0-0.3,0-0.6,0-0.8c0-0.2,0-0.4-0.1-0.6c-0.2-1.6-0.7-2.5-1-3.2c-0.7-1.4-1.4-2.3-2.1-3.2c-1.4-1.7-2.7-3-4-4.3
					c-2.7-2.6-5.3-4.8-8-7.1c-5.3-4.4-10.8-8.6-16.2-12.7l-6.4-4.7l-8.4,11.5l6.1,4.9c5.2,4.2,10.4,8.4,15.4,12.8
					c2.5,2.2,4.9,4.5,7,6.8c1.1,1.1,0.6,0.4,1.3,1.5L217.5,154.3z"/>
			</g>
			<path class="st13" d="M158.8,170.8L158.8,170.8c0-0.1-0.2-0.1-0.5-0.1c-0.3-0.1-0.5-0.1-0.5-0.1l0,0.1
				c-5.6-0.4-33.2-7.7-43.2,6.7c0,0,3.3,20.3,4.9,25.7l-18.8,87.9c0,0,28.4,14.1,37.5,14.7c8.9,2.1,53.4,2.3,53.4,2.3l0.1-85.4
				c3.1-4.7,6.2-32.7,6.2-32.7C192.5,173.1,164.2,172.1,158.8,170.8z"/>
			<polygon class="st14" points="156.5,183.7 147.6,176.3 148.3,195 154.7,195.9 161.1,196.9 167.2,179.2 			"/>
			<path class="st15" d="M158.2,170c-2.8-2.4-11.8-8.3-21.5,2.9c-0.2,0.3-0.4,0.7-0.4,1.1l0.8,22.4c0,1.2,1.4,1.8,2.1,0.8
				c3-3.9,9.2-10.5,16.9-11.3c0.2,0,0.4,0,0.6,0.1c7.1,3,11.1,11.1,12.8,15.7c0.4,1.1,1.9,1,2.3-0.1l7.3-21.2c0.1-0.4,0.1-0.8,0-1.1
				c-6-13.5-16.3-10.5-19.7-9C159,170.4,158.6,170.3,158.2,170z"/>
			<path class="st16" d="M158.5,168.6c-2.7-2.2-11.1-7.8-20.3,2.7c-0.2,0.3-0.4,0.6-0.3,1l0.8,21.2c0,1.2,1.3,1.7,2,0.8
				c2.8-3.7,8.7-9.9,15.9-10.7c0.2,0,0.4,0,0.6,0.1c6.7,2.9,10.5,10.5,12.1,14.8c0.4,1.1,1.8,1,2.2-0.1l6.9-20
				c0.1-0.3,0.1-0.7,0-1.1c-5.7-12.7-15.4-9.9-18.6-8.5C159.2,169,158.8,168.9,158.5,168.6z"/>
			<path class="st8" d="M157.3,183.7l-1.6-0.2c-6.4-1-10.8-6.9-9.8-13.3l7.3-49.2c1-6.4,6.9-10.8,13.3-9.8l1.6,0.2
				c6.4,1,10.8,6.9,9.8,13.3l-7.3,49.2C169.7,180.2,163.7,184.7,157.3,183.7z"/>
			<g>
				<polygon class="st14" points="131,265.5 142.3,279.1 155.4,190.9 151.1,190.6 				"/>
				<polygon class="st14" points="159.5,191.9 155.4,190.9 142.3,279.1 156.9,269.4 				"/>
			</g>
			<path class="st11" d="M171.7,166.5l0.3-1.8l-24.7-3.7l-0.3,2.2C151,166,158.8,169.6,171.7,166.5z"/>
			<g>
				<g>
					<g>
						<path class="st11" d="M211.3,108.7c-2.1,2.5-4,5.8-4.8,8.4c-0.6,2-1,5.2-0.2,6c0.4,0.3,1.2,0,1.7-0.2c2.4-1,4.4-3.9,4.9-7.3
							C213.4,112.7,212.8,110.2,211.3,108.7z"/>
						<path class="st11" d="M218.8,100c-3.5-1.2-9.8,2.4-9.8,2.4c-7.4,4.5-7.3,30.3-1.5,30.2c5.7-0.1,6.4-8.3,6.4-8.3
							c3-1.3,6.5-8.3,6.5-8.3C227.2,103,218.8,100,218.8,100z M220.2,109.1c-0.4,1-0.9,1.9-1.4,2.7l-1.7-1c0.5-0.8,0.9-1.5,1.2-2.3
							c0.2-0.6,0.4-1.4,0.2-2.2c-0.2-0.7-0.6-1.2-1.1-1.4c-0.3-0.1-0.8-0.1-1.4,0c-1,0.2-2.1,1.1-3.3,2.3c2,1.9,2.8,5.2,2.2,8.7
							c-0.7,4.1-3,7.5-6.1,8.8c-0.9,0.4-1.8,0.5-2.5,0.4c-0.5-0.1-1-0.3-1.3-0.6c-2.1-1.9-0.7-7-0.4-8.1c1.5-4.7,6.9-12.6,11-13.6
							c0.6-0.1,1.5-0.3,2.4,0c1.2,0.4,2.1,1.4,2.5,2.8C220.7,106.7,220.6,107.9,220.2,109.1z"/>
						<path class="st17" d="M218,102.9c-0.9-0.3-1.8-0.1-2.4,0c-4.1,0.9-9.5,8.9-11,13.6c-0.3,1-1.7,6.2,0.4,8.1
							c0.4,0.3,0.8,0.6,1.3,0.6c0.7,0.1,1.5,0,2.5-0.4c3.1-1.3,5.5-4.7,6.1-8.8c0.6-3.5-0.3-6.8-2.2-8.7c1.2-1.2,2.4-2.1,3.3-2.3
							c0.6-0.1,1-0.2,1.4,0c0.5,0.2,1,0.7,1.1,1.4c0.2,0.8,0,1.7-0.2,2.2c-0.3,0.8-0.8,1.6-1.2,2.3l1.7,1c0.5-0.8,1.1-1.7,1.4-2.7
							c0.4-1.2,0.5-2.4,0.3-3.4C220.1,104.3,219.2,103.3,218,102.9z M212.9,115.6c-0.6,3.4-2.5,6.3-4.9,7.3
							c-0.5,0.2-1.3,0.5-1.7,0.2c-0.8-0.7-0.4-3.9,0.2-6c0.8-2.5,2.8-5.8,4.8-8.4C212.8,110.2,213.4,112.7,212.9,115.6z"/>
					</g>
					<g>
						<path class="st11" d="M126.5,96c1.3,3,2.1,6.8,2.2,9.4c0,2.1-0.6,5.3-1.5,5.8c-0.4,0.2-1.2-0.3-1.6-0.6c-2-1.7-3.1-5-2.6-8.4
							C123.4,99.3,124.7,97,126.5,96z"/>
						<path class="st11" d="M115.7,100.4c0,0,1.3,7.7,3.8,9.8c0,0-1.7,8,3.7,9.8c5.5,1.8,13-22.9,7.3-29.3c0,0-5-5.3-8.7-5.2
							C121.9,85.6,113,86,115.7,100.4z M118.6,90.5c0.7-1.2,1.9-1.9,3.2-1.9c1,0,1.8,0.4,2.3,0.7c3.6,2.1,6.5,11.2,6.5,16.2
							c0,1.1-0.2,6.4-2.7,7.6c-0.5,0.2-1,0.3-1.5,0.2c-0.7-0.1-1.4-0.5-2.2-1.1c-2.6-2.2-3.9-6.1-3.3-10.2c0.5-3.6,2.2-6.4,4.7-7.7
							c-0.8-1.5-1.7-2.7-2.5-3.2c-0.5-0.3-1-0.4-1.3-0.4c-0.5,0-1.1,0.4-1.5,1c-0.4,0.7-0.5,1.6-0.5,2.2c0,0.9,0.3,1.7,0.5,2.6
							l-1.9,0.5c-0.3-1-0.5-1.9-0.6-3C117.8,92.6,118,91.4,118.6,90.5z"/>
						<path class="st17" d="M118.6,90.5c-0.6,0.9-0.8,2.1-0.8,3.3c0.1,1.1,0.3,2,0.6,3l1.9-0.5c-0.2-0.9-0.5-1.7-0.5-2.6
							c0-0.6,0-1.5,0.5-2.2c0.4-0.6,1-1,1.5-1c0.4,0,0.8,0.1,1.3,0.4c0.9,0.5,1.7,1.7,2.5,3.2c-2.4,1.3-4.2,4.1-4.7,7.7
							c-0.6,4.2,0.7,8.1,3.3,10.2c0.8,0.6,1.5,1,2.2,1.1c0.5,0.1,1,0,1.5-0.2c2.5-1.2,2.7-6.5,2.7-7.6c-0.1-4.9-2.9-14.1-6.5-16.2
							c-0.5-0.3-1.4-0.7-2.3-0.7C120.5,88.6,119.3,89.3,118.6,90.5z M126.5,96c1.3,3,2.1,6.8,2.2,9.4c0,2.1-0.6,5.3-1.5,5.8
							c-0.4,0.2-1.2-0.3-1.6-0.6c-2-1.7-3.1-5-2.6-8.4C123.4,99.3,124.7,97,126.5,96z"/>
					</g>
				</g>
				<path class="st8" d="M159.5,165.2L159.5,165.2c-19.5-2.9-38.9-23.7-36-43.1l9.6-64.6c2.9-19.5,21-32.9,40.5-30l12.6,1.9
					c19.5,2.9,32.9,21,30,40.5l-9.6,64.6C203.7,153.9,179,168.1,159.5,165.2z"/>
				<path class="st11" d="M154.4,152c1.5,2.3,3.8,3.8,6.5,4.2c2.7,0.4,5.3-0.5,7.4-2.2c-2.1,0.6-4.6,0.8-7.2,0.4
					S156.2,153.2,154.4,152z"/>
				<path class="st18" d="M206.4,88.3c1,0.4,1.8-0.8,1-1.6c-3.5-3.2-7.9-5.4-12.7-5.9c-4.8-0.5-9.5,0.6-13.7,3
					c-0.9,0.5-0.4,1.9,0.7,1.7c3.9-0.7,8.1-0.9,12.5-0.4C198.7,85.7,202.8,86.7,206.4,88.3z"/>
				<path class="st18" d="M132.8,77.2c-1.1,0.1-1.5-1.3-0.5-1.8c4.3-2,9.1-2.8,13.9-1.8c4.8,1,8.9,3.4,12.1,7c0.7,0.8-0.2,2-1.2,1.5
					c-3.5-1.8-7.5-3.3-11.8-4.1C140.9,77,136.7,76.8,132.8,77.2z"/>
				<path class="st19" d="M165.8,123.1l4.4-0.2c0.8,0.1,1.4-0.8,0.9-1.5l-3.6-4.9c-0.3-0.4-0.9-0.5-1.3-0.2l-4.9,3.6
					c-0.7,0.5-0.4,1.6,0.4,1.7L165.8,123.1z"/>
				<circle class="st14" cx="148.3" cy="93.6" r="5"/>
				<circle class="st14" cx="190.3" cy="99.9" r="5"/>
				<path class="st20" d="M127.9,93.3c0,0-1.5-5.4-5.2-7.5l6-40.2c0,0,3.1-22.3,20.6-27.1c0,0-1.1-13.8,3-18.5
					c0,0,14.2,11.5,28.1,11.1L177.5,4c0,0,24.5,5.4,27.1,15.2c0,0,10.5-3.1,16.9,3.6c0,0-5.5-1-7.5,3.8c0,0,13.1,10.6,9.6,34.6
					c-3.6,24-5.9,39.7-5.9,39.7s-5.2,1.5-6.8,4.6l3.2-21.6l-8.9-10.7c0,0,2.8-11.9-2.7-17.4c0,0-22.1,5.9-52.5-9.7
					c0,0-6.8,6.1-8.2,17.1l-10.7,7.3L127.9,93.3z"/>
				<g>
					<path class="st21" d="M162.4,135.5c-8-1.2-11.4-5.3-11.6-5.6l1.6-1.2l-0.8,0.6l0.8-0.6c0.1,0.1,7.1,8.5,25.3,3.6l0.5,1.9
						C171.7,136,166.5,136.1,162.4,135.5z"/>
				</g>
			</g>
			<g>
				<g>
					<path class="st1" d="M152.3,8.4c0.5,1.8,1,3.5,1.7,5.2c0.3,0.9,0.7,1.7,1,2.5c0.4,0.8,0.8,1.7,1.1,2.5c1.6,3.3,3.5,6.4,5.8,9.2
						c1.1,1.5,2.4,2.7,3.6,4c0.7,0.6,1.3,1.2,2,1.8c0.3,0.3,0.7,0.6,1,0.9l1.1,0.8c0.7,0.5,1.4,1.1,2.2,1.6l2.3,1.4
						c0.8,0.5,1.6,0.9,2.4,1.3c0.8,0.4,1.7,0.8,2.5,1.2c-3.5-1.2-6.9-2.6-9.9-4.8l-1.2-0.8c-0.4-0.3-0.7-0.6-1.1-0.9
						c-0.7-0.6-1.4-1.2-2.1-1.8c-1.3-1.3-2.6-2.6-3.7-4.1c-2.3-2.9-4.2-6.1-5.7-9.5C153.9,15.5,152.8,12,152.3,8.4z"/>
				</g>
				<g>
					<path class="st1" d="M154.7,18c0.5,1.8,1,3.5,1.7,5.2c0.3,0.9,0.7,1.7,1,2.5c0.4,0.8,0.8,1.7,1.1,2.5c1.6,3.3,3.5,6.4,5.8,9.2
						c1.1,1.5,2.4,2.7,3.6,4c0.7,0.6,1.3,1.2,2,1.8c0.3,0.3,0.7,0.6,1,0.9L172,45c0.7,0.5,1.4,1.1,2.2,1.6l2.3,1.4
						c0.8,0.5,1.6,0.9,2.4,1.3c0.8,0.4,1.7,0.8,2.5,1.2c-3.5-1.2-6.9-2.6-9.9-4.8l-1.2-0.8c-0.4-0.3-0.7-0.6-1.1-0.9
						c-0.7-0.6-1.4-1.2-2.1-1.8c-1.3-1.3-2.6-2.6-3.7-4.1c-2.3-2.9-4.2-6.1-5.7-9.5C156.4,25.2,155.2,21.7,154.7,18z"/>
				</g>
			</g>
		</g>
	</g>
	<g>
		<path class="st10" d="M154.2,346c-13.6,1.2-27.1,2.4-40.4,4c-6.7,0.8-13.3,1.7-19.9,2.7c-6.6,1-13.1,2.2-19.1,3.9
			c-2,0.5-3.8,1.1-5.5,1.7l-1.6,0.7c-0.2,0.1-0.5,0.3-1,0.8c-0.8,0.9-1.8,2.3-2.7,3.9c-0.9,1.6-1.7,3.4-2.4,5.3
			c-1.5,3.7-2.7,7.7-3.8,11.9c-1.1,4.1-2,8.3-2.8,12.6c-1.6,8.5-2.6,17.2-3.3,25.8c-0.6,8.7-0.9,17.4-0.4,26l-10.1,0.9
			c-1.1-9.2-1.4-18.3-1.4-27.4c0.1-9.1,0.6-18.3,1.7-27.4c0.6-4.6,1.2-9.1,2.1-13.7c0.9-4.6,2-9.2,3.5-13.8
			c1.6-4.7,3.3-9.4,7.3-14.4c1-1.3,2.3-2.5,3.9-3.7c0.4-0.3,0.9-0.6,1.3-0.9l0.3-0.2l0.2-0.1l0.5-0.2c0.6-0.3,1.3-0.7,1.9-1
			c1.2-0.5,2.4-1.1,3.6-1.5l1.8-0.7l1.7-0.6c7-2.4,13.9-4,20.7-5.6c6.8-1.5,13.6-2.9,20.4-4.1c13.6-2.5,27.2-4.6,40.7-6.7l0,0
			c6.8-1,13.2-0.6,17.9,0.8c4.7,1.4,7.8,3.9,8.3,7.1c0.5,3.2-2,6.5-6.3,9C167.1,343.5,161,345.3,154.2,346z"/>
	</g>
	<g>
		
			<rect x="80" y="383.8" transform="matrix(-0.579 0.8153 -0.8153 -0.579 451.0241 545.1046)" class="st8" width="9.4" height="10.4"/>
		<g>
			<g>
				<g>
					<polygon class="st9" points="111.1,399 102.2,411.4 99.5,409.5 88.9,430.2 79.9,442.8 70.2,436 83.3,396.3 91.4,385 					"/>
				</g>
			</g>
		</g>
	</g>
	<g>
		<path class="st10" d="M112.2,329.1c-13.4,1-26.7,2-40,3.3c-6.6,0.7-13.2,1.4-19.7,2.3c-6.5,0.9-13,1.9-19.2,3.2l-3,0.7l-2.9,0.8
			c-0.9,0.3-1.9,0.5-2.7,0.8l-1.3,0.4l-1.1,0.5l-0.5,0.2c0,0-0.1,0,0,0c0,0,0.3-0.2,0.6-0.7c0.4-0.5,0.8-1.4,0.9-2.4
			c0.1-1-0.1-1.7-0.2-2c-0.1-0.3-0.2-0.3-0.2-0.3c0,0.1,0.1,0.3,0.3,0.5c0.3,0.5,0.9,1.1,1.5,1.7c2.5,2.5,5.9,5.1,9.3,7.7
			c3.4,2.5,7,5,10.6,7.5c14.4,10,29.1,20.2,42.9,31.6l-6.4,8.3C67,383,52.2,374.1,37,365c-3.8-2.3-7.6-4.6-11.4-7
			c-3.8-2.5-7.6-4.9-11.6-8.4c-1-0.9-2-1.9-3.1-3.1c-1-1.3-2.2-2.7-3.2-5.4c-0.5-1.4-0.8-3.2-0.5-5.2c0.1-1,0.4-2,0.8-3
			c0.2-0.4,0.4-0.9,0.7-1.3c0.2-0.4,0.5-0.7,0.8-1.1c1-1.3,2.2-2.3,3.1-2.9c0.5-0.4,0.9-0.6,1.4-0.9l0.3-0.2l0.2-0.1l0.5-0.2
			l1.9-0.9l1.8-0.8c1.2-0.5,2.3-0.9,3.5-1.3l3.4-1.1l3.4-1c6.9-1.9,13.6-3.5,20.4-4.8c6.7-1.4,13.5-2.6,20.2-3.7
			c13.4-2.2,26.9-4.2,40.2-6l0,0c6.8-0.9,13-0.4,17.7,1.1c4.6,1.6,7.7,4.1,8.1,7.5c0.5,3.3-2,6.6-6.3,9.2
			C125,326.8,118.9,328.6,112.2,329.1z"/>
	</g>
	<g>
		<polygon class="st5" points="205.8,293.3 156.6,333.3 172.2,335 229,293.4 		"/>
		<polygon class="st5" points="205.8,288.7 156.6,328.7 172.2,330.5 229,288.9 		"/>
		<polygon class="st7" points="156.6,328.7 156.6,333.3 172.2,335 172.2,330.5 		"/>
		<polygon class="st7" points="229,288.9 229,293.4 172.2,335 172.2,330.5 		"/>
	</g>
</g>
</svg>
