<?xml version="1.0" encoding="utf-8"?>
<!-- Generator: Adobe Illustrator 22.1.0, SVG Export Plug-In . SVG Version: 6.00 Build 0)  -->
<svg version="1.1" id="Layer_1" xmlns="http://www.w3.org/2000/svg" xmlns:xlink="http://www.w3.org/1999/xlink" x="0px" y="0px"
	 viewBox="0 0 257.2 478" style="enable-background:new 0 0 257.2 478;" xml:space="preserve">
<style type="text/css">
	.st0{fill:#FFFFFF;}
	.st1{fill:#F0D0B3;}
	.st2{fill:#A87C4F;}
	.st3{fill:#EBC19C;}
	.st4{fill:none;stroke:#EBC19C;stroke-width:0.99;stroke-linecap:round;stroke-linejoin:round;}
	.st5{fill:#D6B9BC;}
	.st6{fill:#DEB18A;}
	.st7{fill:#4C5258;}
	.st8{fill:#C3996B;}
	.st9{fill:url(#SVGID_1_);}
	.st10{fill:#58595B;}
	.st11{font-family:'Arial-BoldMT';}
	.st12{font-size:14.1301px;}
	.st13{fill:#CFCFD0;}
	.st14{fill:#A5A8AB;}
	.st15{fill:#EC1C24;}
	.st16{fill:#005E88;}
</style>
<title>img_teenage_boy</title>
<path class="st0" d="M103.6,282.9c2.2-3.7,7.8-6.8,12.6-6.8h26.4c4.8,0,10.4,3.1,12.6,6.8c2.2,3.7,2.2,10.3,0.1,14.6l-9.1,18.4
	c-2.6,4.6-7.3,7.5-12.6,7.8h-8.5c-5.2-0.3-10-3.2-12.5-7.8l-9.1-18.4C101.4,293.3,101.4,286.7,103.6,282.9z"/>
<path class="st0" d="M108.6,256.5c-6.4,0.4-10.7,10.6-9.5,22.8l0,0l5.8,63.5c5.7,1.3,11.4,2.2,17.2,2.6l-1.4-67.4
	C120.4,265.8,115,256.1,108.6,256.5z"/>
<path class="st1" d="M105.7,351.9l8.6,100.3l9.9-0.6l-2-100.6l-0.1-5.3c-5.8-0.5-11.6-1.4-17.2-2.8L105.7,351.9z"/>
<path class="st0" d="M161.5,279.3c1.1-12.2-3.2-22.4-9.5-22.8s-11.8,9.3-12.1,21.5l0,0l-1.6,67.5c5.8-0.4,11.6-1.3,17.2-2.7
	L161.5,279.3z"/>
<path class="st1" d="M138.3,345.7l-0.1,5.3L136,451.7l9.9,0.6l8.8-100.3l0.8-9.1C149.9,344.3,144.1,345.2,138.3,345.7z"/>
<path class="st2" d="M152,256.5c-6-0.4-11.2,8.3-12,19.7h-19.4c-0.7-11.3-5.9-20-11.9-19.7c-6.4,0.4-10.7,10.6-9.5,22.8l0,0
	l5.8,63.5c5.7,1.3,11.4,2.2,17.2,2.6l-0.5-22.6c1.4,0.5,2.9,0.8,4.4,0.9h8.5c1.5,0,3-0.3,4.4-0.9l-0.5,22.6
	c5.8-0.4,11.6-1.3,17.2-2.7l5.9-63.5C162.6,267.1,158.3,256.9,152,256.5z"/>
<path class="st1" d="M55.1,226.9L55.1,226.9c0.2-0.1,0.4-0.3,0.6-0.4c0.3-0.2,0.7-0.3,1.1-0.4c0.2,0,0.5-0.1,0.7-0.1"/>
<path class="st1" d="M67.9,213.7c7.7-10,14.7-20.7,20.7-31.8c3-5.4,8.2-8.3,11.7-6.5l0.8,0.4c3.6,1.9,3.7,8.1,0.3,13.6
	c-7,11.5-14.9,22.3-23.6,32.6c-4.5,5.4-9.7,10.2-15.4,14.4l-0.3,0.2l-0.2,0.1c-0.3,0.2-0.6,0.4-0.9,0.5c-0.5,0.3-1.1,0.5-1.6,0.6
	c-0.2,0.1-0.5,0.1-0.7,0.1h-0.6c-1.1,0-2.1-0.1-3.2-0.4c-1.2-0.4-2.3-0.8-3.3-1.4c-1.6-0.9-3.2-1.9-4.8-3c-2.9-2-5.5-4.2-8-6.3
	c-5.1-4.2-10-8.6-14.8-13l-3.2-3.6l7-7.6l3.3,3.3c4.8,4.2,9.7,8.3,14.7,12.2c2.5,1.9,5.1,3.8,7.6,5.4c1.1,0.8,2.3,1.5,3.6,2.1
	L67.9,213.7z"/>
<path class="st1" d="M201.8,224.1L201.8,224.1c-0.2-0.1-0.4-0.3-0.6-0.4c-0.3-0.2-0.7-0.3-1.1-0.4c-0.2-0.1-0.5-0.1-0.7-0.1"/>
<path class="st1" d="M189.1,211c-7.7-10.1-14.7-20.7-20.7-31.8c-3-5.4-8.2-8.3-11.7-6.5l-0.8,0.5c-3.6,1.9-3.7,8.1-0.3,13.6
	c7,11.5,14.9,22.4,23.6,32.6c4.5,5.4,9.7,10.2,15.4,14.4l0.3,0.2l0.2,0.1c0.3,0.2,0.6,0.4,0.9,0.5c0.5,0.3,1.1,0.5,1.6,0.6
	c0.2,0,0.6,0.1,0.7,0.1h0.6c1.1,0,2.1-0.1,3.2-0.4c1.2-0.4,2.3-0.8,3.3-1.4c1.6-0.9,3.2-1.9,4.8-3c2.9-2,5.5-4.2,8-6.3
	c5.1-4.2,10-8.6,14.8-13l3.2-3.6l-7-7.6l-3.3,3.3c-4.8,4.2-9.7,8.3-14.7,12.2c-2.5,1.9-5.1,3.8-7.6,5.4c-1.1,0.8-2.3,1.5-3.6,2.1
	L189.1,211z"/>
<path class="st1" d="M223.7,188.9c0.3-3.7,2.1-6.5,5.2-7.7c0.7-0.3,1.5-0.4,2.3-0.5c0.2-1.1,0.6-2.1,1.3-3c1.5-2,3.8-3.2,6.3-3.4
	c1.9-0.1,3.7,0.5,5,1.8c1.1,0.4,2.1,0.9,3.1,1.5c1,0.4,1.8,1,2.5,1.8c0.7,0.9,1.2,1.9,1.4,3l-0.4,0.3c1.9,0.4,3.4,1.7,3.9,3.6
	c0.4,1.1,0.6,2.3,0.4,3.4l-0.2,0.1c0.6,0.5,1.1,1.1,1.4,1.8c1.3,4.5,0.6,9.3-2.1,13.1c-0.1,0.1-0.2,0.2-0.3,0.3
	c-1.1,1.4-2.4,2.5-3.9,3.4c-7.4,3.7-16.6,0.1-21-6.9C226,198.6,223.3,193.4,223.7,188.9z"/>
<path class="st3" d="M250.7,195.3c0.5,0.9,0.4,2-0.2,2.9c-0.3,0.4-0.7,0.8-1.2,0.9c-0.5,0.1-1,0.2-1.5,0.1c-1-0.2-1.9-0.9-2.4-1.8
	c-0.4-0.9-0.6-2-0.4-3c0.1-1,0.5-2,1.1-2.9c0.6-0.8,1.4-1.5,2.3-2c1.9-1.1,4.2-1.1,6.1,0c0.9,0.6,1.6,1.4,2.1,2.4
	c0.3,1,0.6,2,0.6,3.1c0.2,2-0.1,4.1-0.7,6c-0.6,2-1.7,3.8-3.2,5.2s-3.3,2.4-5.2,2.9H248 M248,208.9c1.8-0.8,3.4-1.9,4.7-3.3
	c1.2-1.4,2.1-3.1,2.6-5c0.5-1.8,0.7-3.7,0.6-5.6c0-0.9-0.2-1.8-0.5-2.7c-0.3-0.8-0.9-1.6-1.6-2.1c-1.6-1-3.6-1-5.2-0.1
	c-0.9,0.4-1.6,0.9-2.3,1.6c-0.6,0.7-0.9,1.6-1,2.6c-0.2,0.9-0.1,1.9,0.2,2.8c0.4,0.9,1.1,1.5,2.1,1.7c0.9,0.3,1.9,0,2.5-0.7
	c0.6-0.8,0.7-1.8,0.3-2.7v-0.1c0,0,0.1-0.1,0.1,0c0,0,0.1,0.1,0,0.1L248,208.9z"/>
<path class="st4" d="M245.1,194.8c-1.3,0-2.6-0.5-3.6-1.3c-1.3-1.3-1.6-3.7,0.5-7c2.6-4.1,10.3-5.8,12.3,0c0.4,1.1,0.6,2.3,0.4,3.4"
	/>
<path class="st4" d="M239.8,190.1c-3.6-0.6-3.3-2.9-2.8-5.7s3.1-5.2,5.5-6.4c2.6-1.3,6.9-0.7,8.3,4.6"/>
<path class="st4" d="M235.7,186.6c-3.9,0.8-4.9-3-4.5-5.6c0.5-3.9,4-6.3,7.7-6.6c1.5-0.1,4.2,0.4,5.3,2.2"/>
<path class="st1" d="M231.7,203.8c-2.5-0.3-8.6-8.4-8-15c0.5-4.8,3.3-8.1,8.3-8.2s7.9,5.4,2,8.1c1.6,2.7,2.4,5.8,2.2,8.9
	L231.7,203.8z"/>
<path class="st3" d="M230,203c-1.5-1.3-2.8-2.9-3.8-4.6c-1.1-1.7-1.9-3.6-2.4-5.5c-0.3-1-0.4-2-0.4-3s0.1-2,0.3-3
	c0.4-2.1,1.6-3.9,3.3-5.2c1.7-1.2,3.8-1.8,5.9-1.6c1.1,0.1,2.1,0.4,3.1,1.1c1,0.7,1.6,1.6,1.9,2.8c0.2,1.1-0.1,2.3-0.8,3.2
	c-0.7,0.8-1.5,1.5-2.5,1.9c-1.9,0.9-4.1,0.9-5.9,0V189 M228.6,189L228.6,189c1.9,0.6,3.9,0.3,5.5-0.7c1.7-0.8,3-2.5,2.6-4.1
	c-0.6-1.7-2.1-2.8-3.9-2.9c-1.9-0.2-3.7,0.2-5.3,1.2c-1.5,1.1-2.6,2.7-3.1,4.6c-0.2,0.9-0.4,1.9-0.4,2.8c0,1,0.1,1.9,0.3,2.9
	c0.4,1.9,1.2,3.7,2.1,5.4c0.9,1.7,2.1,3.3,3.6,4.7c0,0,0,0,0,0.1L228.6,189z"/>
<path class="st4" d="M234.1,189.2c1.8,2.5,2.5,5.5,2.1,8.5"/>
<path class="st5" d="M129.9,166.5L129.9,166.5l-0.5-0.1H129v0.1c-5.3,0.4-32.4-2.6-39.8,12.4c0,0,5.9,18.7,8.2,23.6L92,288.3
	c0,0,28.8,9.3,37.5,8.6c8.7,0.7,38.4-9.3,38.4-9.3l-6.4-85.1c2.3-4.8,8-23.6,8-23.6C162.2,164,135.3,166.9,129.9,166.5z"/>
<path class="st0" d="M128.9,181.7h1.5c6.6,0,11.9-5.3,12-11.9l0,0v-3.1c-5.6-0.3-10.2,0-12.2-0.1v-0.1h-0.5h-0.5v0.1
	c-1.9,0.2-6.7-0.1-12.4,0.1v3.1C116.9,176.3,122.3,181.7,128.9,181.7L128.9,181.7z"/>
<path class="st5" d="M169.4,178.9l12.3,15.9c0,0-7,12.8-20.5,7.6C161.2,202.5,161.1,186.5,169.4,178.9z"/>
<path class="st5" d="M90,178.2l-12.2,15.9c0,0,7,12.8,20.5,7.7C98.2,201.7,98.3,185.8,90,178.2z"/>
<rect x="113.7" y="442.2" class="st1" width="9" height="10"/>
<path class="st1" d="M58.6,251.4L58.6,251.4c0.2-0.1,0.4-0.2,0.6-0.4c0.3-0.2,0.7-0.3,1.1-0.4c0.2,0,0.5-0.1,0.7-0.1"/>
<path class="st1" d="M129.6,109L129.6,109c6.6,0,11.9,5.4,11.9,12v46c0,6.6-5.3,12-11.9,12l0,0c-6.6,0-11.9-5.4-11.9-12v-46
	C117.6,114.4,123,109,129.6,109z"/>
<path class="st1" d="M33.4,191.6c-0.4-3.7-2.1-6.5-5.2-7.7c-0.7-0.3-1.5-0.4-2.3-0.5c-0.2-1.1-0.6-2.1-1.3-3c-1.5-2-3.8-3.2-6.3-3.3
	c-1.9-0.1-3.7,0.5-5,1.8c-1.1,0.4-2.1,0.9-3.1,1.5c-1,0.4-1.8,1-2.5,1.8c-0.7,0.9-1.2,1.9-1.4,3l0.4,0.3c-1.9,0.4-3.4,1.7-3.9,3.6
	c-0.4,1.1-0.6,2.3-0.4,3.4l0.2,0.1c-0.6,0.5-1.1,1.1-1.4,1.8c-1.3,4.4-0.6,9.2,2.1,13c0.1,0.1,0.2,0.2,0.3,0.3
	c1.1,1.4,2.4,2.5,3.9,3.4c7.4,3.7,16.6,0.1,21-6.9C31.2,201.2,33.9,196,33.4,191.6z"/>
<path class="st3" d="M6.6,197.9c-0.4,0.9-0.3,1.9,0.3,2.7c0.6,0.7,1.6,1,2.5,0.7c0.9-0.2,1.7-0.8,2.1-1.7c0.3-0.9,0.4-1.8,0.2-2.7
	c-0.1-0.9-0.5-1.8-1-2.6c-0.6-0.7-1.3-1.3-2.2-1.8c-1.6-0.9-3.6-0.9-5.2,0.1c-0.7,0.5-1.3,1.2-1.6,2.1c-0.3,0.9-0.4,1.8-0.4,2.7
	c-0.1,1.9,0.1,3.8,0.6,5.6s1.4,3.5,2.6,5c1.3,1.4,2.9,2.6,4.7,3.3v0.1c0,0,0,0-0.1,0c-2-0.5-3.8-1.5-5.2-2.9
	c-1.5-1.4-2.5-3.2-3.2-5.2c-0.6-2-0.8-4-0.7-6c0.1-1,0.3-2.1,0.6-3.1c0.4-1,1.2-1.9,2.1-2.4c1.9-1.1,4.2-1.1,6.1,0
	c0.9,0.5,1.7,1.2,2.4,2c0.6,0.9,1,1.8,1.1,2.9c0.2,1,0,2.1-0.4,3c-0.5,1-1.3,1.6-2.4,1.8c-0.5,0.1-1,0.1-1.5-0.1
	c-0.5-0.1-0.9-0.4-1.2-0.9c-0.6-0.8-0.7-2-0.2-2.9h0.1C6.7,197.8,6.7,197.9,6.6,197.9L6.6,197.9z"/>
<path class="st4" d="M12,197.4c1.3,0,2.6-0.5,3.6-1.3c1.3-1.3,1.6-3.7-0.5-7c-2.6-4.1-10.3-5.8-12.3,0c-0.4,1.1-0.6,2.3-0.4,3.4"/>
<path class="st4" d="M17.4,192.7c3.6-0.6,3.3-2.9,2.8-5.7s-3.1-5.2-5.5-6.4c-2.6-1.3-6.9-0.7-8.3,4.6"/>
<path class="st4" d="M21.5,189.3c3.9,0.8,4.9-3,4.5-5.6c-0.5-3.9-3.9-6.3-7.7-6.6c-1.5-0.1-4.2,0.4-5.3,2.2"/>
<path class="st1" d="M25.4,206.4c2.5-0.3,8.6-8.4,8-15c-0.5-4.8-3.3-8.1-8.3-8.2c-5-0.1-7.9,5.4-2,8.1c-1.6,2.8-2.6,6.5-2.2,8.9
	L25.4,206.4z"/>
<path class="st3" d="M27.1,205.6c1.4-1.4,2.6-2.9,3.6-4.7c1-1.7,1.7-3.5,2.1-5.5c0.2-0.9,0.3-1.9,0.3-2.9s-0.2-1.9-0.4-2.8
	c-0.4-1.9-1.5-3.5-3.1-4.6c-1.6-1-3.5-1.4-5.3-1.2c-1.8,0.1-3.3,1.2-3.9,2.9c-0.5,1.6,0.9,3.3,2.6,4.1c1.7,1,3.7,1.2,5.5,0.7l0,0
	 M28.5,191.8c-1.9,0.9-4.1,0.9-5.9,0c-1-0.4-1.9-1-2.5-1.9c-0.7-0.9-1.1-2.1-0.8-3.2c0.3-1.1,0.9-2.1,1.9-2.8c0.9-0.6,2-1,3.1-1.1
	c2.1-0.1,4.2,0.4,5.9,1.6c1.7,1.3,2.8,3.1,3.3,5.2c0.2,1,0.3,2,0.3,3s-0.2,2-0.4,3c-0.5,1.9-1.3,3.8-2.4,5.5c-1,1.7-2.3,3.3-3.8,4.6
	h-0.1L28.5,191.8z"/>
<path class="st4" d="M23.1,191.8c-1.8,2.5-2.5,5.5-2.1,8.5"/>
<path class="st3" d="M141.5,160.6v-1.8h-23.9v2.1C121.9,163,129.8,165.3,141.5,160.6z"/>
<path class="st3" d="M172,94.1c-1.7,2.8-2.9,5.9-3.6,9.1c-0.3,2.1-0.2,5.4,0.7,6c0.4,0.3,1.2-0.1,1.7-0.4c2.3-1.4,3.8-4.6,3.9-8.1
	C174.7,97.8,173.7,95.4,172,94.1z"/>
<path class="st3" d="M178.2,84.3c-3.7-0.7-9.5,3.9-9.5,3.9c-6.7,5.6-2.8,31.5,3,30.6c5.7-1,5.2-9.3,5.2-9.3c2.8-1.8,5.3-9.3,5.3-9.3
	C187.1,85.9,178.2,84.3,178.2,84.3z M181,93.2c-0.2,1-0.6,2-1,2.9l-1.9-0.8c0.4-0.8,0.7-1.7,0.9-2.5s0.1-1.6-0.1-2.3
	c-0.2-0.6-0.7-1-1.4-1.2c-0.5,0-1,0-1.4,0.2c-1.2,0.7-2.3,1.6-3,2.8c2.3,1.7,3.6,4.8,3.6,8.4c0,4.3-1.9,8-4.8,9.8
	c-0.7,0.5-1.5,0.8-2.4,0.8c-0.5,0-1-0.2-1.4-0.4c-2.4-1.6-1.7-7-1.6-8c0.8-4.9,5-13.7,9-15.2c0.8-0.3,1.6-0.5,2.4-0.4
	c1.3,0.3,2.4,1.1,2.9,2.4C181.2,90.8,181.3,92,181,93.2L181,93.2z"/>
<path class="st6" d="M177.8,87.3c-0.8-0.1-1.7,0-2.4,0.4c-4,1.6-8.2,10.3-9,15.2c-0.2,1.1-0.8,6.5,1.6,8c0.4,0.3,0.9,0.4,1.4,0.4
	c0.9-0.1,1.7-0.3,2.4-0.8c2.9-1.8,4.8-5.5,4.8-9.8c0-3.6-1.3-6.7-3.6-8.4c0.7-1.2,1.8-2.2,3-2.8c0.4-0.2,0.9-0.3,1.4-0.2
	c0.6,0.1,1.1,0.6,1.4,1.2c0.3,0.7,0.3,1.5,0.1,2.3c-0.2,0.9-0.5,1.7-0.9,2.5l1.9,0.8c0.4-0.9,0.8-1.9,1-2.9c0.3-1.2,0.2-2.4-0.2-3.5
	C180.2,88.5,179.1,87.6,177.8,87.3z M174.6,100.8c0,3.6-1.6,6.7-3.9,8.1c-0.4,0.3-1.2,0.7-1.7,0.4c-0.9-0.6-1-3.9-0.7-6
	c0.7-3.2,1.9-6.3,3.6-9.1C173.7,95.4,174.7,97.8,174.6,100.8z"/>
<path class="st3" d="M84.9,94.1c1.7,2.8,2.9,5.9,3.6,9.1c0.3,2.1,0.2,5.4-0.7,6c-0.4,0.3-1.2-0.1-1.7-0.4c-2.3-1.4-3.8-4.6-3.9-8.1
	C82.1,98.2,83.1,95.8,84.9,94.1z"/>
<path class="st3" d="M74.8,100.1c0,0,2.5,7.5,5.3,9.3c0,0-0.5,8.3,5.2,9.3s9.7-25,3-30.6c0,0-5.8-4.6-9.5-3.9
	C78.7,84.3,69.9,85.9,74.8,100.1z M76.2,89.7c0.5-1.2,1.6-2.1,2.9-2.4c0.8-0.1,1.7,0,2.4,0.4c4,1.6,8.2,10.3,9,15.2
	c0.2,1.1,0.8,6.5-1.6,8c-0.4,0.3-0.9,0.4-1.4,0.4c-0.9-0.1-1.7-0.3-2.4-0.8c-2.9-1.8-4.8-5.5-4.8-9.8c0-3.6,1.3-6.7,3.6-8.4
	c-0.7-1.2-1.8-2.2-3.1-2.9c-0.4-0.2-0.9-0.3-1.4-0.2c-0.6,0.2-1.1,0.6-1.4,1.2c-0.3,0.7-0.3,1.5-0.1,2.3c0.2,0.9,0.5,1.7,0.9,2.5
	L77,96c-0.4-0.9-0.8-1.9-1-2.9C75.7,92,75.8,90.8,76.2,89.7L76.2,89.7z"/>
<path class="st6" d="M76.2,89.7c-0.4,1.1-0.5,2.3-0.3,3.5c0.2,1,0.6,2,1,2.9l1.9-0.8c-0.4-0.8-0.7-1.7-0.9-2.5
	c-0.2-0.8-0.1-1.5,0.1-2.3c0.2-0.6,0.7-1,1.4-1.2c0.5,0,1,0,1.4,0.2c1.2,0.7,2.3,1.7,3,2.8c-2.3,1.7-3.6,4.8-3.6,8.4
	c0,4.3,1.9,8,4.8,9.8c0.7,0.5,1.5,0.8,2.4,0.8c0.5,0,1-0.2,1.4-0.4c2.4-1.6,1.7-7,1.6-8c-0.8-4.9-5-13.7-9-15.2
	c-0.8-0.3-1.6-0.5-2.4-0.4C77.8,87.6,76.7,88.5,76.2,89.7z M84.9,94.1c1.7,2.8,2.9,5.9,3.6,9.1c0.3,2.1,0.2,5.4-0.7,6
	c-0.4,0.3-1.2-0.1-1.7-0.4c-2.3-1.4-3.8-4.6-3.9-8.1C82.1,98.2,83.1,95.8,84.9,94.1L84.9,94.1z"/>
<path class="st1" d="M128.5,159.8L128.5,159.8c-20,0-42.6-18-42.6-37.9V55.5c0-20,16.2-36.2,36.2-36.2l0,0H135
	c20,0,36.2,16.2,36.2,36.1l0,0v66.3C171.1,141.8,148.4,159.8,128.5,159.8z"/>
<path class="st7" d="M86.2,59.6c0,0,13.5-25.3,19.6-26.1c0,0-1.2,7.6-3.1,10.5s19.8,3.2,31.5-9.3c0,0,0.5,10-5.4,13.2
	c0,0,19.9,0.2,22.2-11.7c0,0,20.1,10.8,20.1,22.2c0,11.2-0.1,20.3,0.4,45.9c0,0,5.3-13.5,5.6-23.5s2.7-22.5,4.8-24.8
	c0,0,3.9-28.6-11.5-36.4c0,0,5.7-1.7,9.3,0c0,0-1.7-8.1-12.8-4.8c0,0,3.1-7.1-0.5-11c0,0,0.3,2.4-3.1,3.6
	c-3.4,1.2-34.8-13.1-50.9-1.5c0,0-0.7-4.5,0.8-5.7c-4.4,0.6-8.1,3.8-9.3,8.1c0,0-14.6-3.2-18.1,3.6c0,0,4-0.4,6.3,1
	c0,0-19.2,11.4-17.3,41.9c0,0,2,0.5,3.3,5.1s0.8,34.2,8.2,40.9L86.2,59.6z"/>
<path class="st8" d="M113.5,128.5c1.2,8.6,7.5,15.1,15,15.1s13.8-6.5,15-15.1c-3.3,3.1-8.8,3.6-15,3.6
	C122.2,132.1,116.7,131.7,113.5,128.5z"/>
<path class="st0" d="M143,129.9c0.4-1,0.7-2.1,0.9-3.2c0-0.2-0.1-0.3-0.2-0.4c-0.1,0-0.2,0-0.3,0.1c-3.4,2.7-8.8,3.1-14.9,3.1
	s-11.4-0.4-14.9-3.1c-0.1-0.1-0.3-0.1-0.5,0c-0.1,0.1-0.1,0.2-0.1,0.3c0.2,1.1,0.5,2.1,0.8,3.2c3.4,2.5,8.7,2.8,14.5,2.8
	S139.5,132.4,143,129.9z"/>
<path class="st3" d="M122.6,147c3.5,4,9.5,4.5,13.6,1.1c0.4-0.3,0.7-0.7,1.1-1.1C132.6,149,127.3,149,122.6,147z"/>
<path class="st2" d="M164.2,70.6c0.5,0.1,1-0.2,1.1-0.8c0.1-0.4-0.1-0.8-0.5-1c-8.6-5.2-19.5-4-26.7,2.9c-0.4,0.4-0.4,1,0,1.4
	c0.3,0.3,0.7,0.4,1.1,0.2C147.1,70.1,155.7,69.1,164.2,70.6L164.2,70.6z"/>
<path class="st2" d="M92.9,70.6c-0.5,0.1-1-0.2-1.1-0.8c-0.1-0.4,0.1-0.8,0.5-1c8.6-5.2,19.5-4,26.7,2.9c0.4,0.4,0.4,1,0,1.4
	c-0.3,0.3-0.7,0.4-1.1,0.2C110,70,101.4,69.1,92.9,70.6z"/>
<radialGradient id="SVGID_1_" cx="837.8866" cy="306.1672" r="20.8921" gradientTransform="matrix(1 0 0 1 0 179.7)" gradientUnits="userSpaceOnUse">
	<stop  offset="0" style="stop-color:#F0BFD9;stop-opacity:0.95"/>
	<stop  offset="4.000000e-02" style="stop-color:#EEBCD3;stop-opacity:0.88"/>
	<stop  offset="0.15" style="stop-color:#E9B3C2;stop-opacity:0.65"/>
	<stop  offset="0.27" style="stop-color:#E4ABB2;stop-opacity:0.45"/>
	<stop  offset="0.39" style="stop-color:#E1A4A6;stop-opacity:0.29"/>
	<stop  offset="0.51" style="stop-color:#DE9F9C;stop-opacity:0.16"/>
	<stop  offset="0.62" style="stop-color:#DC9C96;stop-opacity:7.000000e-02"/>
	<stop  offset="0.73" style="stop-color:#DA9A91;stop-opacity:2.000000e-02"/>
	<stop  offset="0.83" style="stop-color:#DA9990;stop-opacity:0"/>
	<stop  offset="1" style="stop-color:#DA9990;stop-opacity:0"/>
</radialGradient>
<ellipse class="st9" cx="153.8" cy="107.3" rx="20.9" ry="15.5"/>
<path class="st6" d="M128.5,116.5l4.4-0.8c0.5,0,1-0.4,1-1c0-0.3-0.1-0.5-0.3-0.7l-4.4-4.4c-0.4-0.4-1-0.4-1.3,0l0,0l-4.4,4.4
	c-0.4,0.4-0.4,1,0,1.4c0.2,0.2,0.4,0.3,0.7,0.3L128.5,116.5z"/>
<circle class="st10" cx="108.5" cy="89.6" r="5.1"/>
<circle class="st10" cx="147.5" cy="89.6" r="5.1"/>
<ellipse class="st0" cx="130.3" cy="215" rx="26.9" ry="12.5"/>
<text transform="matrix(0.9997 2.443218e-02 -2.443218e-02 0.9997 107.4574 218.3941)" class="st5 st11 st12">H</text>
<text transform="matrix(0.9997 2.443218e-02 -2.443218e-02 0.9997 116.6646 218.6191)" class="st5 st11 st12">A</text>
<text transform="matrix(0.9997 2.443218e-02 -2.443218e-02 0.9997 124.5656 218.8122)" class="st5 st11 st12">W</text>
<text transform="matrix(0.9997 2.443218e-02 -2.443218e-02 0.9997 135.7088 219.0845)" class="st5 st11 st12">AI</text>
<path class="st7" d="M86.8,469.1l-2.4-9.1c-2.9,1.2-5.9,2.3-8.4,3c-0.6,0.2-1.1,0.4-1.6,0.6C77.1,467.8,82,469.9,86.8,469.1z"/>
<path class="st13" d="M69.1,472.9v5.1h58.2v-5.1H69.1z"/>
<path class="st7" d="M91.3,462.3l-1.6-4.4l-2.9,1.2l1.5,4.3L91.3,462.3z"/>
<path class="st7" d="M96.4,459.8l-1.5-4.1l-2.9,1.2l1.4,3.9L96.4,459.8z"/>
<path class="st7" d="M101.6,457.1l-1.4-3.9c-0.9,0.6-1.8,1.1-2.8,1.5l1.2,3.5L101.6,457.1z"/>
<path class="st14" d="M125.6,448.9c-2.6-5.2-10.6-7.8-16.1-3.8l-0.1,0.1c-2.3,2.4-4.9,4.7-7.5,6.8c-0.6,0.4-1.2,0.8-1.8,1.2l1.4,3.9
	l-2.9,1l-1.2-3.5c-0.5,0.2-1,0.4-1.4,0.6l-1,0.4l1.5,4.1l-2.9,1l-1.4-3.9l-2.4,1l1.6,4.4l-2.9,1l-1.5-4.3l-2.4,0.9l2.4,9.1
	c-4.8,0.8-9.7-1.4-12.3-5.5c-2.8,1.2-5.4,3.6-5.4,7.5v1.7h24.9l-2.8-8.4c5.7-2,11.1-5,15.9-8.7l15.6,4.6c0,0,1.7,7.4-1.3,12.5h5.9
	v-12.4C127.3,457,127.5,452.5,125.6,448.9z"/>
<path class="st7" d="M103.3,455.7c0,0,6.5-6.9,6.8-8.9s-3.6-5-5.1-4.7c-1.4,0.3-1.7,8.3-3.2,9.7L103.3,455.7z"/>
<path class="st7" d="M122.7,460.4l-15.6-4.6c-4.8,3.7-10.2,6.6-15.9,8.7l2.8,8.4h27.5C124.4,467.9,122.7,460.4,122.7,460.4z"/>
<rect x="104.9" y="470" class="st15" width="15.5" height="5.7"/>
<rect x="79.1" y="472.9" class="st16" width="15.5" height="2.9"/>
<path class="st7" d="M173,469.1l2.4-9.1c2.9,1.2,5.9,2.3,8.4,3c0.6,0.2,1.1,0.4,1.6,0.6C182.7,467.8,177.9,469.9,173,469.1z"/>
<path class="st13" d="M190.8,472.9v5.1h-58.2v-5.1H190.8z"/>
<path class="st7" d="M168.6,462.3l1.6-4.4l2.9,1.2l-1.5,4.3L168.6,462.3z"/>
<path class="st7" d="M163.4,459.8l1.5-4.1l2.9,1.2l-1.4,3.9L163.4,459.8z"/>
<path class="st7" d="M158.3,457.1l1.4-3.9c0.9,0.6,1.8,1.1,2.8,1.5l-1.2,3.5L158.3,457.1z"/>
<path class="st14" d="M134.2,448.9c2.6-5.2,10.6-7.8,16.1-3.8l0.1,0.1c2.3,2.4,4.9,4.7,7.5,6.8c0.6,0.4,1.2,0.8,1.8,1.2l-1.4,3.9
	l2.9,1l1.2-3.5c0.5,0.2,1,0.4,1.4,0.6l1,0.4l-1.5,4.1l2.9,1l1.4-3.9l2.4,1l-1.6,4.4l2.9,1l1.5-4.3l2.4,0.9l-2.4,9.1
	c4.8,0.8,9.7-1.4,12.3-5.5c2.8,1.2,5.4,3.6,5.4,7.5v1.7h-25l2.8-8.4c-5.7-2-11.1-5-15.9-8.7l-15.5,4.7c0,0-1.7,7.4,1.3,12.5h-5.9
	v-12.5C132.5,457,132.4,452.5,134.2,448.9z"/>
<path class="st7" d="M156.5,455.7c0,0-6.5-6.9-6.8-8.9s3.6-5,5.1-4.7c1.4,0.3,1.7,8.3,3.2,9.7L156.5,455.7z"/>
<path class="st7" d="M137.1,460.4l15.6-4.6c4.8,3.7,10.2,6.6,15.9,8.7l-2.8,8.4h-27.5C135.5,467.9,137.1,460.4,137.1,460.4z"/>
<rect x="139.5" y="470" class="st15" width="15.5" height="5.7"/>
<rect x="165.3" y="472.8" class="st16" width="15.5" height="2.9"/>
</svg>
