<svg id="Layer_1" data-name="Layer 1" xmlns="http://www.w3.org/2000/svg" viewBox="0 0 161.16 73.25"><defs><style>.cls-1{fill:#ff101c;}.cls-2{fill:#fff;}.cls-3{fill:#00a8e9;}</style></defs><title>logo_ktaxa-white</title><polygon id="switch" class="cls-1" points="132.88 36.2 159.41 1.74 155.5 1.74 128.88 36.2 132.88 36.2"/><path id="axa" class="cls-2" d="M690.46,347.4v73.25h73.26V347.4ZM762,418.91H692.21v-7h3.07a24.63,24.63,0,0,1,2-3c.23-.24,6.15-8,6.15-8H713.8l1.21,4.2s-3,4-3.84,4.92c-.48.56-1.86,1.87-1.86,1.87h4.88s.17-.4.56-1.13a25.06,25.06,0,0,1,1.77-2.4s.6,1.88.65,2.2.23,1.33.23,1.33h4.93s.17-.37.57-1.1a19.17,19.17,0,0,1,1.82-2.29s.54,1.74.59,2.06.23,1.33.23,1.33h6.3s-.94-1.63-1.15-2.18c-.13-.3-2.1-6.48-2.1-6.48l1.64-2.33h10.45s2.38,7.66,2.67,8.67a11.33,11.33,0,0,1,.31,2.32h6.57c-1-.7-3.5-9.56-4.71-13l-3.19-11a12.38,12.38,0,0,1-.27-1.94H737a16.42,16.42,0,0,1-1.06,2c-.39.73-6.86,9.21-8.28,11l-.33.41s0-.17-.11-.41c-.23-.81-.71-2.45-.71-2.45l6.07-7.72a15.69,15.69,0,0,1,2.63-2.81H730a3.5,3.5,0,0,1-.53,1.59c-.25.38-4.52,5.74-4.52,5.74s-1.34-4.85-1.59-5.63a5.33,5.33,0,0,1-.21-1.7h-6.26a17.23,17.23,0,0,1,1,2.05l3.09,9.5-1.81,2.31c-.08-.11-3.34-10.83-3.48-11.28a23.16,23.16,0,0,1-.33-2.58h-5.36a30.74,30.74,0,0,1-1.76,3.31c-.3.43-3.7,5-7.32,9.67-4,5.37-8.42,10.82-8.51,10.89a1.25,1.25,0,0,0-.12.12V349.14H762Zm-50.74-26.1c.24.94,1.59,5.1,1.59,5.1h-7s4.4-5.36,5.15-7c.08-.17.1,0,.1.05A7.68,7.68,0,0,0,711.23,392.81Zm9.06,10.68,1.86-2.4s1.08,3.27,1.26,3.46l-1.92,2.64ZM738,392.81c.24.94,1.59,5.1,1.59,5.1h-7s4.4-5.36,5.15-7c.08-.17.1,0,.1.05A7.68,7.68,0,0,0,738,392.81Z" transform="translate(-602.56 -347.4)"/><rect class="cls-2" width="73.25" height="73.25"/><rect class="cls-3" x="1.74" y="1.74" width="69.77" height="69.77"/><rect class="cls-2" x="60.57" y="55.69" width="1.8" height="1.57"/><rect class="cls-2" x="60.63" y="58.14" width="1.74" height="6.4"/><path class="cls-2" d="M659.48,405.53h-2.13v1.34h2c.93,0,1,.31,1,.91v.11H659c-1.48,0-2.23.66-2.23,2A1.83,1.83,0,0,0,658.7,412a2.32,2.32,0,0,0,1.71-.8v.74h1.68v-4.15C662.09,406.12,661.42,405.53,659.48,405.53Zm.87,4.42a1.37,1.37,0,0,1-1.18.75.71.71,0,0,1-.81-.76c0-.44.21-.78,1-.78h1Z" transform="translate(-602.56 -347.4)"/><path class="cls-2" d="M650.22,411.93H652v-4.42a1.39,1.39,0,0,1,1.22-.74.86.86,0,0,1,.94,1v4.21h1.72v-4.14c0-1.67-.75-2.34-2-2.34a2.33,2.33,0,0,0-1.88.83v-3.19h-1.74Z" transform="translate(-602.56 -347.4)"/><path class="cls-2" d="M647.78,411.93h1.47V410.6h-1.06c-.47,0-.63-.21-.63-.83v-3h1.69v-1.27h-1.69v-2.44H645.8v6.54C645.8,411.26,646.38,411.93,647.78,411.93Z" transform="translate(-602.56 -347.4)"/><path class="cls-2" d="M643,405.53V406a2.3,2.3,0,0,0-1.57-.56c-1.47,0-2.5,1.08-2.5,3.3s.92,3.18,2.46,3.18a2.19,2.19,0,0,0,1.56-.53v.4c0,1-.35,1.32-1.38,1.32h-1.85v1.33h2.08c2,0,2.89-.64,2.89-2.65v-6.27Zm0,4.63a2,2,0,0,1-1.11.45c-.62,0-1.18-.46-1.18-1.91s.5-1.92,1.22-1.92a1.71,1.71,0,0,1,1.07.42Z" transform="translate(-602.56 -347.4)"/><path class="cls-2" d="M632.4,411.93h1.74v-4.42a1.39,1.39,0,0,1,1.22-.74.86.86,0,0,1,.94,1v4.21H638v-4.14c0-1.67-.76-2.34-2-2.34a2.49,2.49,0,0,0-1.94.83v-.75H632.4Z" transform="translate(-602.56 -347.4)"/><path class="cls-2" d="M631.24,405.53H629.5V410a1.4,1.4,0,0,1-1.22.75.86.86,0,0,1-.94-1v-4.21h-1.73v4.14c0,1.67.76,2.35,2,2.35a2.49,2.49,0,0,0,1.94-.83v.74h1.68Z" transform="translate(-602.56 -347.4)"/><path class="cls-2" d="M620.9,411.93h1.74v-4a2.12,2.12,0,0,1,1.84-.79H625v-1.7h-.42a2.16,2.16,0,0,0-1.95,1.14v-1.07H620.9Z" transform="translate(-602.56 -347.4)"/><polygon class="cls-2" points="15.74 64.53 17.83 64.53 14.91 59.92 17.47 55.69 15.45 55.69 13.01 59.97 15.74 64.53"/><rect class="cls-2" x="10.89" y="55.69" width="1.85" height="8.84"/><path class="cls-2" d="M658,366.72a.8.8,0,0,0,.26-.61c0-1.88-6.58-6.68-10.36-6.68-3.15,0-1.75,5.19-5,5.19-1.59,0-2.55-.86-2.55-2.77a3.71,3.71,0,0,1,3.56-4c1.54,0,2.3.42,2.3.89a1.31,1.31,0,0,0,.63-1.05c0-.79-1-1.52-2.85-1.52a4,4,0,0,0-3.39-1.57,6.49,6.49,0,0,0-3.17,1,2.65,2.65,0,0,1-1.08.23,2.4,2.4,0,0,1-1-.13.57.57,0,0,0,.48-.57.59.59,0,0,0-.62-.54.65.65,0,0,0-.67.64c0,.78.76,1.2,1.64,1.28l-.45.4a2.22,2.22,0,0,1-.37,0c-1,0-2.13-.42-2.35-1.25l.19,0a.53.53,0,0,0,.52-.59c0-.34-.27-.53-.65-.53a.72.72,0,0,0-.72.81,2.62,2.62,0,0,0,2.54,2.36,13.69,13.69,0,0,0-2.74,5,3.15,3.15,0,0,1-.46,0c-.9,0-1.15-.66-1.15-1.71,0-1.37-.37-2-1.91-2-3.72,0-8.63,4.95-8.63,6.95a.94.94,0,0,0,.39.71c-1.43,1.26-2.6,3.75-2.6,7.3s1,6.79,2,6.79a.63.63,0,0,0,.46-.2C620.86,384,625,388.74,625,393a.92.92,0,0,1-1,1,2.08,2.08,0,0,1-1.48-.84,1.89,1.89,0,0,0,1.9,1.62c1.22,0,1.75-1,1.75-2.2,0-3.74-2-7.09-3.14-9.49,1.84-.11,2.34-3.11,2.34-6.34a10.65,10.65,0,0,0,7.06-2.75,10.17,10.17,0,0,0,1.86,2.65,3.92,3.92,0,0,1-2.28,2.91,4,4,0,0,0-2.49-.75c-1.17,0-2.28.42-2.28,1.52a1.13,1.13,0,0,0,1.18,1.21c.32,0,.41-.11.41-.11a.59.59,0,0,1-.32-.52.5.5,0,0,1,.19-.41,3.69,3.69,0,0,0,1.87.41,6,6,0,0,0,2.07-.43.65.65,0,0,1,.05.27.61.61,0,0,1-.37.53,1.21,1.21,0,0,0,.42.05.84.84,0,0,0,.9-.84.6.6,0,0,0-.13-.4,7.25,7.25,0,0,0,2.49-2,11.53,11.53,0,0,0,2.36,1.17A5.2,5.2,0,0,1,636,383a4.07,4.07,0,0,0-2.47-.73c-1.16,0-2.27.42-2.27,1.52a1.13,1.13,0,0,0,1.18,1.2c.31,0,.4-.1.4-.1a.61.61,0,0,1-.31-.52.52.52,0,0,1,.19-.42,3.44,3.44,0,0,0,1.89.47,5.39,5.39,0,0,0,2.07-.42.65.65,0,0,1,0,.21.57.57,0,0,1-.37.52,1.27,1.27,0,0,0,.43.05.83.83,0,0,0,.89-.83.57.57,0,0,0-.12-.39,6.42,6.42,0,0,0,2.76-3.68,14.22,14.22,0,0,0,2.45.22,3.48,3.48,0,0,1,1.78,3.24c0,2.46-1.37,3.46-2.8,3.51a3.66,3.66,0,0,1-2.75-1.21,2.93,2.93,0,0,0,.6,2.27,4.17,4.17,0,0,1-2.87-1.48c0,2.65,2.41,4.35,5.34,4.5a10.47,10.47,0,0,1-7.62,3.05,8.15,8.15,0,0,1-1.3-.11,4.61,4.61,0,0,1-1.13-3.09,4.3,4.3,0,0,1,3.44-4.35,4.79,4.79,0,0,0-4.81,4.88,5.3,5.3,0,0,0,.32,1.83,3.68,3.68,0,0,1-2.07-3.3,3.33,3.33,0,0,1,2.65-3.46,3.6,3.6,0,0,0-3.76,3.72c0,2.55,1.84,4.13,4.25,4.79,1.45,1.63,4,2.65,7.07,2.65,6.13,0,10.43-4,10.39-10.34a9.54,9.54,0,0,0,1.32-5c0-2.95-.78-4.63-2.2-6a14.38,14.38,0,0,0,4.23.68,14.32,14.32,0,0,0,.62,4.67l0,.1c.06.14.12.26.18.39a1167579273918.88,1167579273918.88,0,0,0,.2.34,2,2,0,0,0,.29.35l.12.12a1.51,1.51,0,0,0,.91.37c-1.19,2.4-3.14,5.75-3.14,9.49,0,1.21.53,2.2,1.74,2.2a1.91,1.91,0,0,0,1.91-1.62,2.1,2.1,0,0,1-1.48.84.93.93,0,0,1-1-1c0-4.3,4.13-9,4.82-12.43a.62.62,0,0,0,.46.2c1.06,0,2-3.36,2-6.79S659.4,368,658,366.72Zm-15.82-11.14a.36.36,0,0,0-.07.17.32.32,0,0,0,.35.35.31.31,0,0,0,.32-.33.46.46,0,0,1,.21.26.71.71,0,0,1-.55.22.65.65,0,0,1-.69-.67A1,1,0,0,1,642.15,355.58Zm-3,40.55a9.21,9.21,0,0,1-4.2-.94,11.56,11.56,0,0,0,9.12-4.42,7.94,7.94,0,0,0,3.66-1.58C646.92,393.53,643.49,396.13,639.1,396.13Z" transform="translate(-602.56 -347.4)"/></svg>