<svg id="Layer_1" data-name="Layer 1" xmlns="http://www.w3.org/2000/svg" viewBox="0 0 60 60"><defs><style>.cls-1{fill:#00008f;}.cls-2{fill:none;stroke:#fff;stroke-linecap:round;stroke-linejoin:round;}</style></defs><title>ic_button_login</title><rect class="cls-1" width="60" height="60" rx="30" ry="30"/><path class="cls-2" d="M633.16,331.83a3.94,3.94,0,0,1-3.37-2.48c-.89,1.94-2,3.47-4.7,3.47h-2.72v4c0,3.29,2,5.95,5.44,5.95s5.45-2.66,5.45-5.95v-5Z" transform="translate(-597.81 -310.47)"/><path class="cls-2" d="M633.26,337.29a5.85,5.85,0,0,0,2.47-5v-3a2,2,0,0,0-2-2,7.07,7.07,0,0,0-6.2-3.47H627A7.07,7.07,0,0,0,619.9,331v1.21a6.48,6.48,0,0,0,2.47,5.1" transform="translate(-597.81 -310.47)"/><line class="cls-2" x1="26.54" y1="31.08" x2="26.54" y2="33.71"/><line class="cls-2" x1="33.46" y1="31.08" x2="33.46" y2="33.71"/><path class="cls-2" d="M624.35,344.18l-4.3.71a6.44,6.44,0,0,0-5.59,6.3v2.32a2,2,0,0,0,1.66,1.95l5.48,1a33.73,33.73,0,0,0,12.43,0l5.48-1a2,2,0,0,0,1.66-1.95v-2.32a6.44,6.44,0,0,0-5.59-6.3l-4.3-.71" transform="translate(-597.81 -310.47)"/><line class="cls-2" x1="22.08" y1="43.11" x2="22.08" y2="45.67"/><line class="cls-2" x1="37.92" y1="43.11" x2="37.92" y2="45.67"/><path class="cls-2" d="M623,344.4l4,4.82a1,1,0,0,0,1.51,0l4-4.82" transform="translate(-597.81 -310.47)"/></svg>