<?xml version="1.0" encoding="utf-8"?>
<!-- Generator: Adobe Illustrator 22.1.0, SVG Export Plug-In . SVG Version: 6.00 Build 0)  -->
<svg version="1.1" id="Layer_1" xmlns="http://www.w3.org/2000/svg" xmlns:xlink="http://www.w3.org/1999/xlink" x="0px" y="0px"
	 viewBox="0 0 23.6 34" style="enable-background:new 0 0 23.6 34;" xml:space="preserve">
<style type="text/css">
	.st0{fill:none;stroke:#00008F;stroke-linecap:round;stroke-linejoin:round;}
</style>
<title>ic_boy</title>
<path class="st0" d="M5.2,17.1c1.4,3.7,5.4,5.5,9.1,4.2c1.9-0.7,3.5-2.2,4.2-4.2"/>
<path class="st0" d="M4.9,9.4"/>
<path class="st0" d="M4.9,13.1c-1.1,0.1-1.9,1.2-1.7,2.3C3.3,16.3,4.1,17,5,17.1c0.1,0,0.1,0,0.2,0C5,16.6,5,12,4.9,9.5"/>
<path class="st0" d="M18.7,10.7"/>
<path class="st0" d="M18.7,13.1c1.1,0.1,1.9,1.2,1.7,2.3c-0.1,0.9-0.9,1.7-1.8,1.8c-0.1,0-0.1,0-0.2,0c0.2-2.1,0.3-4.2,0.3-6.4"/>
<path class="st0" d="M18.7,10.7c0.2-0.1,0.4-0.4,0.4-0.7V5.4c0-0.3-1.8-3-7.6-3c-6.5,0-8,7.6-8,7.6C4,9.8,4.4,9.6,4.9,9.4"/>
<path class="st0" d="M4.8,9.4C7,8.6,9.3,8.5,11.5,9.3c1.6,0.6,3.4,0.5,5-0.3v1.1c0,0.4,0.3,0.7,0.7,0.7l0,0h1.2c0.1,0,0.2,0,0.3-0.1
	"/>
<path class="st0" d="M9.7,6.6c-3.7-0.3-6,3.2-6,3.2"/>
<line class="st0" x1="5.9" y1="29" x2="5.9" y2="30.9"/>
<path class="st0" d="M14.4,22"/>
<path class="st0" d="M1.8,30.1l5.3,1.1c3.1,0.6,6.2,0.6,9.3,0l5.3-1.1"/>
<path class="st0" d="M9.2,22"/>
<line class="st0" x1="17.7" y1="29" x2="17.7" y2="30.9"/>
<path class="st0" d="M1.8,30.1c0-5.5,4.5-8.5,10-8.5s10,3,10,8.5"/>
<path class="st0" d="M14.4,22c0,1.4-1.2,2.6-2.6,2.6c-1.4,0-2.6-1.2-2.6-2.6c0,0,0,0,0,0"/>
</svg>
