<?xml version="1.0" encoding="utf-8"?>
<!-- Generator: Adobe Illustrator 16.0.0, SVG Export Plug-In . SVG Version: 6.00 Build 0)  -->
<!DOCTYPE svg PUBLIC "-//W3C//DTD SVG 1.1//EN" "http://www.w3.org/Graphics/SVG/1.1/DTD/svg11.dtd">
<svg version="1.1" id="Layer_1" xmlns="http://www.w3.org/2000/svg" xmlns:xlink="http://www.w3.org/1999/xlink" x="0px" y="0px"
	 width="23.603px" height="34.001px" viewBox="0 0 23.603 34.001" enable-background="new 0 0 23.603 34.001" xml:space="preserve">
<path fill="none" stroke="#FFFFFF" stroke-linecap="round" stroke-linejoin="round" stroke-miterlimit="10" d="M4.343,17.097
	c1.082,2.97,4.015,5.103,7.473,5.103c3.469,0,6.409-2.146,7.482-5.131"/>
<path fill="none" stroke="#FFFFFF" stroke-linecap="round" stroke-linejoin="round" stroke-miterlimit="10" d="M4.033,12.552
	c-1.116,0.052-2.006,1.055-2.006,2.283c0,1.262,0.939,2.285,2.098,2.285c0.075,0,0.146-0.016,0.218-0.023
	c-0.206-0.566-0.271-5.755-0.348-8.645"/>
<path fill="none" stroke="#FFFFFF" stroke-linecap="round" stroke-linejoin="round" stroke-miterlimit="10" d="M19.57,12.552
	c1.115,0.053,2.005,1.055,2.005,2.283c0,1.262-0.939,2.285-2.098,2.285c-0.074,0-0.146-0.016-0.219-0.023
	c0.184-0.503,0.317-4.299,0.39-7.214"/>
<path fill="none" stroke="#FFFFFF" stroke-linecap="round" stroke-linejoin="round" stroke-miterlimit="10" d="M19.648,9.893
	c0.274-0.136,0.465-0.419,0.465-0.745V3.916c0-0.299-2.006-3.416-8.615-3.416c-7.325,0-9.047,8.616-9.047,8.616S3,8.787,3.921,8.441
	"/>
<path fill="none" stroke="#FFFFFF" stroke-linecap="round" stroke-linejoin="round" stroke-miterlimit="10" d="M3.922,8.441
	c1.66-0.621,4.529-1.294,7.576-0.187c2.061,0.75,4.052,0.438,5.6-0.324v1.217c0,0.457,0.374,0.831,0.831,0.831h1.354
	c0.131,0,0.255-0.031,0.365-0.086"/>
<path fill="none" stroke="#FFFFFF" stroke-linecap="round" stroke-linejoin="round" stroke-miterlimit="10" d="M9.4,5.239
	C5.203,4.904,2.638,8.82,2.638,8.82"/>
<line fill="none" stroke="#FFFFFF" stroke-linecap="round" stroke-linejoin="round" stroke-miterlimit="10" x1="5.104" y1="30.57" x2="5.104" y2="32.734"/>
<path fill="none" stroke="#FFFFFF" stroke-linecap="round" stroke-linejoin="round" stroke-miterlimit="10" d="M0.5,31.826
	l6.044,1.19c3.474,0.646,7.042,0.646,10.515,0l6.044-1.19"/>
<line fill="none" stroke="#FFFFFF" stroke-linecap="round" stroke-linejoin="round" stroke-miterlimit="10" x1="18.498" y1="30.57" x2="18.498" y2="32.734"/>
<path fill="none" stroke="#FFFFFF" stroke-linecap="round" stroke-linejoin="round" stroke-miterlimit="10" d="M0.5,31.826
	c0-6.241,5.06-9.627,11.302-9.627c6.241,0,11.301,3.386,11.301,9.627"/>
<path fill="none" stroke="#FFFFFF" stroke-linecap="round" stroke-linejoin="round" stroke-miterlimit="10" d="M14.731,22.618
	c0,1.618-1.313,2.93-2.93,2.93c-1.618,0-2.931-1.312-2.931-2.93"/>
</svg>
