<svg id="Layer_1" data-name="Layer 1" xmlns="http://www.w3.org/2000/svg" viewBox="0 0 34.86 34.86"><defs><style>.cls-1,.cls-3{fill:#fcd385;}.cls-2{fill:#fff;}.cls-3{stroke:#fff;stroke-linecap:round;stroke-linejoin:round;}</style></defs><title>ic_chart_pig</title><circle class="cls-1" cx="17.43" cy="17.43" r="16.93"/><path class="cls-2" d="M631.54,343.14a16.43,16.43,0,1,1-16.43,16.43,16.45,16.45,0,0,1,16.43-16.43m0-1a17.43,17.43,0,0,0-17.43,17.43h0a17.43,17.43,0,0,0,34.86,0h0a17.43,17.43,0,0,0-17.43-17.43Z" transform="translate(-614.11 -342.14)"/><circle class="cls-3" cx="11.96" cy="17.31" r="0.78"/><ellipse class="cls-3" cx="8.59" cy="18.6" rx="1.04" ry="2.59"/><path class="cls-3" d="M643.16,358.67a2.33,2.33,0,0,1-2.33,2.33" transform="translate(-614.11 -342.14)"/><polyline class="cls-3" points="10.66 14.66 10.66 12.39 12.82 12.93"/><circle class="cls-3" cx="17.91" cy="12.13" r="3.37"/><path class="cls-3" d="M622.7,363.33h1.13a10.81,10.81,0,0,0,8.2,3.37c5.18,0,8.8-3.11,8.8-6s-2.24-5.41-5.44-6.46" transform="translate(-614.11 -342.14)"/><path class="cls-3" d="M628.66,354.3a8.37,8.37,0,0,0-4.83,3.85H622.7" transform="translate(-614.11 -342.14)"/><path class="cls-3" d="M629.38,356.34H628a.65.65,0,1,0,0,1.29h8a.65.65,0,1,0,0-1.29h-1.36" transform="translate(-614.11 -342.14)"/><circle class="cls-3" cx="17.91" cy="12.13" r="2.07"/><path class="cls-3" d="M627.1,365.71v1.77a.53.53,0,0,0,.52.52h1.3a.53.53,0,0,0,.52-.52v-1" transform="translate(-614.11 -342.14)"/><path class="cls-3" d="M634.87,366.44v1a.53.53,0,0,0,.52.52h1.3a.53.53,0,0,0,.52-.52v-2" transform="translate(-614.11 -342.14)"/></svg>