<svg id="Layer_1" data-name="Layer 1" xmlns="http://www.w3.org/2000/svg" viewBox="0 0 61 61"><defs><style>.cls-1,.cls-2{fill:none;stroke:#fff;}.cls-1{stroke-miterlimit:10;}.cls-2{stroke-linecap:round;stroke-linejoin:round;}</style></defs><title>ic_current_saving_selected</title><circle class="cls-1" cx="30.5" cy="30.5" r="30"/><path class="cls-2" d="M654,341.29v-4.23a1.88,1.88,0,0,1,1.88-1.88h28.24a1.88,1.88,0,0,1,1.88,1.88v20.7a1.89,1.89,0,0,1-1.88,1.89H655.88a1.89,1.89,0,0,1-1.88-1.89V341.29Z" transform="translate(-639.2 -317.69)"/><line class="cls-2" x1="19.04" y1="33.49" x2="19.04" y2="25.96"/><path class="cls-2" d="M658.24,341.29V338a.47.47,0,0,1,.47-.47h24.46a.48.48,0,0,1,.48.47v18.82a.48.48,0,0,1-.48.47H658.71a.47.47,0,0,1-.47-.47v-3.29" transform="translate(-639.2 -317.69)"/><rect class="cls-2" x="16.69" y="23.61" width="4.71" height="2.35" rx="1.18" ry="1.18"/><rect class="cls-2" x="16.69" y="33.49" width="4.71" height="2.35" rx="1.18" ry="1.18"/><rect class="cls-2" x="19.04" y="41.96" width="4.24" height="2.35"/><rect class="cls-2" x="38.33" y="41.96" width="4.24" height="2.35"/><line class="cls-2" x1="41.16" y1="23.61" x2="41.16" y2="35.84"/><circle class="cls-2" cx="30.8" cy="29.72" r="6.12"/><line class="cls-2" x1="30.8" y1="25.49" x2="30.8" y2="33.96"/><path class="cls-2" d="M668.15,349.47a1.81,1.81,0,0,0,1.85,1.24,1.72,1.72,0,0,0,1.88-1.49,1,1,0,0,0-.08-.37,1.44,1.44,0,0,0-.57-.63l-1.23-.81-1.23-.81a1.47,1.47,0,0,1-.57-.62,1,1,0,0,1-.08-.38,1.71,1.71,0,0,1,1.88-1.48,1.8,1.8,0,0,1,1.85,1.23" transform="translate(-639.2 -317.69)"/></svg>