<?xml version="1.0" encoding="utf-8"?>
<!-- Generator: Adobe Illustrator 16.0.0, SVG Export Plug-In . SVG Version: 6.00 Build 0)  -->
<!DOCTYPE svg PUBLIC "-//W3C//DTD SVG 1.1//EN" "http://www.w3.org/Graphics/SVG/1.1/DTD/svg11.dtd">
<svg version="1.1" id="Layer_1" xmlns="http://www.w3.org/2000/svg" xmlns:xlink="http://www.w3.org/1999/xlink" x="0px" y="0px"
	 width="61px" height="61px" viewBox="0 0 61 61" enable-background="new 0 0 61 61" xml:space="preserve">
<path fill="none" stroke="#FFFFFF" stroke-linecap="round" stroke-linejoin="round" stroke-miterlimit="10" d="M14.805,23.605V19.37
	c0-1.039,0.843-1.882,1.883-1.882h28.234c1.04,0,1.883,0.843,1.883,1.882v20.706c0,1.04-0.843,1.883-1.883,1.883H16.688
	c-1.04,0-1.883-0.843-1.883-1.883v-4.235V23.605z"/>
<line fill="none" stroke="#FFFFFF" stroke-linecap="round" stroke-linejoin="round" stroke-miterlimit="10" x1="19.04" y1="33.488" x2="19.04" y2="25.958"/>
<path fill="none" stroke="#FFFFFF" stroke-linecap="round" stroke-linejoin="round" stroke-miterlimit="10" d="M19.04,23.605v-3.294
	c0-0.26,0.214-0.471,0.479-0.471h24.454c0.264,0,0.479,0.211,0.479,0.471v18.823c0,0.26-0.215,0.471-0.479,0.471H19.52
	c-0.266,0-0.479-0.211-0.479-0.471v-3.294"/>
<path fill="none" stroke="#FFFFFF" stroke-linecap="round" stroke-linejoin="round" stroke-miterlimit="10" d="M20.217,25.959
	h-2.354c-0.649,0-1.176-0.527-1.176-1.177s0.526-1.177,1.176-1.177h2.354c0.649,0,1.176,0.527,1.176,1.177
	S20.866,25.959,20.217,25.959z"/>
<path fill="none" stroke="#FFFFFF" stroke-linecap="round" stroke-linejoin="round" stroke-miterlimit="10" d="M20.217,35.841
	h-2.354c-0.649,0-1.176-0.526-1.176-1.177c0-0.649,0.526-1.176,1.176-1.176h2.354c0.649,0,1.176,0.526,1.176,1.176
	C21.393,35.314,20.866,35.841,20.217,35.841z"/>
<rect x="19.041" y="41.959" fill="none" stroke="#FFFFFF" stroke-linecap="round" stroke-linejoin="round" stroke-miterlimit="10" width="4.234" height="2.353"/>
<rect x="38.335" y="41.959" fill="none" stroke="#FFFFFF" stroke-linecap="round" stroke-linejoin="round" stroke-miterlimit="10" width="4.234" height="2.353"/>
<line fill="none" stroke="#FFFFFF" stroke-linecap="round" stroke-linejoin="round" stroke-miterlimit="10" x1="41.157" y1="23.605" x2="41.157" y2="35.841"/>
<circle fill="none" stroke="#FFFFFF" stroke-linecap="round" stroke-linejoin="round" stroke-miterlimit="10" cx="30.805" cy="29.724" r="6.117"/>
<line fill="none" stroke="#FFFFFF" stroke-linecap="round" stroke-linejoin="round" stroke-miterlimit="10" x1="30.805" y1="25.488" x2="30.805" y2="33.959"/>
<path fill="none" stroke="#FFFFFF" stroke-linecap="round" stroke-linejoin="round" stroke-miterlimit="10" d="M28.954,31.782
	c0.149,0.7,0.919,1.235,1.851,1.235c1.04,0,1.883-0.664,1.883-1.482c0-0.131-0.033-0.258-0.086-0.378
	c-0.11-0.253-0.318-0.464-0.565-0.626l-1.231-0.808l-1.231-0.809c-0.247-0.162-0.455-0.373-0.565-0.626
	c-0.053-0.12-0.086-0.247-0.086-0.378c0-0.818,0.843-1.482,1.883-1.482c0.932,0,1.701,0.535,1.851,1.235"/>
</svg>
