<svg id="Layer_1" data-name="Layer 1" xmlns="http://www.w3.org/2000/svg" viewBox="0 0 21.28 18"><defs><style>.cls-1{fill:none;stroke:#2a2e80;stroke-linecap:round;stroke-linejoin:round;}</style></defs><title>ic_current_saving_small</title><path class="cls-1" d="M659.6,343.88v-2.69a1.19,1.19,0,0,1,1.19-1.19h17.89a1.19,1.19,0,0,1,1.2,1.19v13.13a1.2,1.2,0,0,1-1.2,1.19H660.79a1.19,1.19,0,0,1-1.19-1.19V343.88Z" transform="translate(-659.1 -339.5)"/><line class="cls-1" x1="3.18" y1="10.64" x2="3.18" y2="5.87"/><path class="cls-1" d="M662.28,343.88v-2.09a.3.3,0,0,1,.3-.3h15.5a.3.3,0,0,1,.31.3v11.93a.31.31,0,0,1-.31.3h-15.5a.31.31,0,0,1-.3-.3v-2.09" transform="translate(-659.1 -339.5)"/><rect class="cls-1" x="1.69" y="4.38" width="2.98" height="1.49" rx="0.66" ry="0.66"/><rect class="cls-1" x="1.69" y="10.64" width="2.98" height="1.49" rx="0.66" ry="0.66"/><rect class="cls-1" x="3.18" y="16.01" width="2.68" height="1.49"/><rect class="cls-1" x="15.41" y="16.01" width="2.68" height="1.49"/><line class="cls-1" x1="17.2" y1="4.38" x2="17.2" y2="12.13"/><circle class="cls-1" cx="10.64" cy="8.25" r="3.88"/><line class="cls-1" x1="10.64" y1="5.57" x2="10.64" y2="10.94"/><path class="cls-1" d="M668.56,349.06a1.16,1.16,0,0,0,1.18.78,1.09,1.09,0,0,0,1.19-.94.69.69,0,0,0,0-.24,1,1,0,0,0-.36-.39l-.78-.52-.78-.51a.9.9,0,0,1-.36-.39.53.53,0,0,1-.06-.24,1.1,1.1,0,0,1,1.2-.94,1.15,1.15,0,0,1,1.17.78" transform="translate(-659.1 -339.5)"/></svg>