<?xml version="1.0" encoding="utf-8"?>
<!-- Generator: Adobe Illustrator 16.0.0, SVG Export Plug-In . SVG Version: 6.00 Build 0)  -->
<!DOCTYPE svg PUBLIC "-//W3C//DTD SVG 1.1//EN" "http://www.w3.org/Graphics/SVG/1.1/DTD/svg11.dtd">
<svg version="1.1" id="Layer_1" xmlns="http://www.w3.org/2000/svg" xmlns:xlink="http://www.w3.org/1999/xlink" x="0px" y="0px"
	 width="61px" height="61px" viewBox="0 0 61 61" enable-background="new 0 0 61 61" xml:space="preserve">
<circle display="none" fill="none" stroke="#FFFFFF" stroke-miterlimit="10" cx="30.5" cy="30.5" r="30"/>
<path fill="none" stroke="#FFFFFF" stroke-linecap="round" stroke-linejoin="round" stroke-miterlimit="10" d="M45.681,37.315
	c-3.795,0-3.795-4.794-7.59-4.794c-3.793,0-3.793,4.794-7.587,4.794c-3.796,0-3.796-4.794-7.593-4.794
	c-3.796,0-3.796,4.794-7.592,4.794"/>
<path fill="none" stroke="#FFFFFF" stroke-linecap="round" stroke-linejoin="round" stroke-miterlimit="10" d="M15.319,36.916V30.98
	c0-1.354,1.099-2.453,2.454-2.453h25.453c1.355,0,2.454,1.099,2.454,2.453v5.936"/>
<path fill="none" stroke="#FFFFFF" stroke-linecap="round" stroke-linejoin="round" stroke-miterlimit="10" d="M41.686,35.318v8.332
	c0,1.356-1.099,2.454-2.453,2.454H21.769c-1.355,0-2.454-1.098-2.454-2.454v-8.332"/>
<rect x="21.502" y="23.733" fill="none" stroke="#FFFFFF" stroke-linecap="round" stroke-linejoin="round" stroke-miterlimit="10" width="3.995" height="4.794"/>
<path fill="none" stroke="#FFFFFF" stroke-linecap="round" stroke-linejoin="round" stroke-miterlimit="10" d="M23.481,15.743
	c3.995,3.995,2.397,7.99,0,7.99h0.036c-2.396,0-3.994-3.995,0-7.99H23.481z"/>
<rect x="28.693" y="23.733" fill="none" stroke="#FFFFFF" stroke-linecap="round" stroke-linejoin="round" stroke-miterlimit="10" width="3.995" height="4.794"/>
<path fill="none" stroke="#FFFFFF" stroke-linecap="round" stroke-linejoin="round" stroke-miterlimit="10" d="M30.673,15.743
	c3.994,3.995,2.396,7.99,0,7.99h0.036c-2.397,0-3.995-3.995,0-7.99H30.673z"/>
<rect x="35.885" y="23.733" fill="none" stroke="#FFFFFF" stroke-linecap="round" stroke-linejoin="round" stroke-miterlimit="10" width="3.994" height="4.794"/>
<path fill="none" stroke="#FFFFFF" stroke-linecap="round" stroke-linejoin="round" stroke-miterlimit="10" d="M37.863,15.743
	c3.995,3.995,2.397,7.99,0,7.99h0.036c-2.396,0-3.994-3.995,0-7.99H37.863z"/>
</svg>
