<svg id="Layer_1" data-name="Layer 1" xmlns="http://www.w3.org/2000/svg" viewBox="0 0 61 61"><defs><style>.cls-1,.cls-2{fill:none;stroke:#fff;}.cls-1{stroke-miterlimit:10;}.cls-2{stroke-linecap:round;stroke-linejoin:round;}</style></defs><title>ic_dob_selected</title><circle class="cls-1" cx="30.5" cy="30.5" r="30"/><path class="cls-2" d="M684.94,355c-3.79,0-3.79-4.79-7.59-4.79s-3.79,4.79-7.58,4.79-3.8-4.79-7.59-4.79-3.8,4.79-7.6,4.79" transform="translate(-639.26 -317.68)"/><path class="cls-2" d="M654.58,354.59v-5.93A2.46,2.46,0,0,1,657,346.2h25.45a2.45,2.45,0,0,1,2.45,2.46v5.93" transform="translate(-639.26 -317.68)"/><path class="cls-2" d="M681,353v8.34a2.45,2.45,0,0,1-2.45,2.45H661a2.45,2.45,0,0,1-2.45-2.45V353" transform="translate(-639.26 -317.68)"/><rect class="cls-2" x="21.5" y="23.73" width="3.99" height="4.79"/><path class="cls-2" d="M662.75,333.42c4,4,2.39,8,0,8h0c-2.4,0-4-4,0-8Z" transform="translate(-639.26 -317.68)"/><rect class="cls-2" x="28.69" y="23.73" width="3.99" height="4.79"/><path class="cls-2" d="M669.94,333.42c4,4,2.39,8,0,8h0c-2.39,0-4-4,0-8Z" transform="translate(-639.26 -317.68)"/><rect class="cls-2" x="35.88" y="23.73" width="3.99" height="4.79"/><path class="cls-2" d="M677.13,333.42c4,4,2.39,8,0,8h0c-2.39,0-4-4,0-8Z" transform="translate(-639.26 -317.68)"/></svg>