<?xml version="1.0" encoding="utf-8"?>
<!-- Generator: Adobe Illustrator 22.1.0, SVG Export Plug-In . SVG Version: 6.00 Build 0)  -->
<svg version="1.1" id="Layer_1" xmlns="http://www.w3.org/2000/svg" xmlns:xlink="http://www.w3.org/1999/xlink" x="0px" y="0px"
	 viewBox="0 0 82 82" style="enable-background:new 0 0 82 82;" xml:space="preserve">
<style type="text/css">
	.st0{fill:#FFFFFF;}
	.st1{fill:none;stroke:#FFFFFF;stroke-miterlimit:10;}
</style>
<g>
	<g>
		<g>
			<path class="st0" d="M41,1c22.1,0,40,17.9,40,40v0c0,22.1-17.9,40-40,40h0C18.9,81,1,63.1,1,41v0C1,18.9,18.9,1,41,1L41,1 M41,0
				C18.4,0,0,18.4,0,41c0,22.6,18.4,41,41,41c22.6,0,41-18.4,41-41C82,18.4,63.6,0,41,0L41,0z"/>
		</g>
	</g>
	<g>
		<path class="st1" d="M65.1,35.1L41.9,24.9c-0.6-0.3-1.3-0.3-1.9,0L16.9,35.1l23.2,10.2c0.6,0.3,1.3,0.3,1.9,0L65.1,35.1z"/>
		<path class="st1" d="M56.2,39.2l1.2,8.6c0,0.5-0.2,1-0.6,1.4c-1.8,1.5-7.2,5.9-15.8,5.9c-8.7,0-14-4.4-15.8-5.9
			c-0.4-0.4-0.7-0.9-0.6-1.4l1.2-8.6"/>
		<path class="st1" d="M56.9,45.1C55,46.8,50,51.6,41,51.6c-9,0-14-4.8-15.9-6.5"/>
		<polyline class="st1" points="41,35.1 52.8,40.4 52.8,53.4 		"/>
		<path class="st1" d="M51,59.8L51,59.8c1,1,2.6,1,3.5,0v0l-1.8-6.5L51,59.8z"/>
	</g>
</g>
</svg>
