<?xml version="1.0" encoding="utf-8"?>
<!-- Generator: Adobe Illustrator 16.0.0, SVG Export Plug-In . SVG Version: 6.00 Build 0)  -->
<!DOCTYPE svg PUBLIC "-//W3C//DTD SVG 1.1//EN" "http://www.w3.org/Graphics/SVG/1.1/DTD/svg11.dtd">
<svg version="1.1" id="Layer_1" xmlns="http://www.w3.org/2000/svg" xmlns:xlink="http://www.w3.org/1999/xlink" x="0px" y="0px"
	 width="26.724px" height="34.149px" viewBox="235.93 232.331 26.724 34.149" enable-background="new 235.93 232.331 26.724 34.149"
	 xml:space="preserve">
<path fill="none" stroke="#FFFFFF" stroke-linecap="round" stroke-linejoin="round" stroke-miterlimit="10" d="M251.766,240.768
	h-4.452c-1.979,0-3.464,1.487-3.464,1.487v3.473c0,3.288,1.979,5.954,5.441,5.954c3.464,0,5.443-2.666,5.443-5.954v-6.448
	C254.734,239.28,253.25,240.768,251.766,240.768z"/>
<path fill="none" stroke="#FFFFFF" stroke-linecap="round" stroke-linejoin="round" stroke-miterlimit="10" d="M240.881,239.911
	c0-3.91,3.162-7.08,7.062-7.08h1.082c2.648,0,4.956,1.336,6.206,3.473c1.483-0.009,2.474,0.98,2.474,2.478v8.892
	c0,2.473,1.979,3.465,1.979,3.465c-0.621,1.241-1.802,2.112-3.172,2.342l-0.787,0.131"/>
<line fill="none" stroke="#FFFFFF" stroke-linecap="round" stroke-linejoin="round" stroke-miterlimit="10" x1="245.829" y1="250.488" x2="245.829" y2="253.168"/>
<line fill="none" stroke="#FFFFFF" stroke-linecap="round" stroke-linejoin="round" stroke-miterlimit="10" x1="252.755" y1="250.489" x2="252.755" y2="253.168"/>
<path fill="none" stroke="#FFFFFF" stroke-linecap="round" stroke-linejoin="round" stroke-miterlimit="10" d="M252.755,253.206
	l4.011,0.619c3.102,0.479,5.389,3.153,5.389,6.299v0.483v1.836c0,0.951-0.672,1.769-1.604,1.949l-5.275,1.016
	c-3.951,0.763-8.014,0.763-11.967,0l-5.274-1.016c-0.932-0.182-1.604-0.998-1.604-1.949v-1.836v-0.483
	c0-3.146,2.289-5.819,5.39-6.299l4.011-0.619"/>
<path fill="none" stroke="#FFFFFF" stroke-linecap="round" stroke-linejoin="round" stroke-miterlimit="10" d="M243.85,253.611
	l1.421,2.988c1.61,3.39,6.433,3.39,8.043,0l1.42-2.988"/>
<line fill="none" stroke="#FFFFFF" stroke-linecap="round" stroke-linejoin="round" stroke-miterlimit="10" x1="241.871" y1="262.518" x2="241.871" y2="265.074"/>
<line fill="none" stroke="#FFFFFF" stroke-linecap="round" stroke-linejoin="round" stroke-miterlimit="10" x1="256.714" y1="262.518" x2="256.714" y2="265.074"/>
<path fill="none" stroke="#FFFFFF" stroke-linecap="round" stroke-linejoin="round" stroke-miterlimit="10" d="M242.86,253.611
	l-0.786-0.131c-1.371-0.229-2.551-1.101-3.172-2.345c0,0,1.979-0.989,1.979-3.462v-5.443v-2.474"/>
</svg>
