<?xml version="1.0" encoding="utf-8"?>
<!-- Generator: Adobe Illustrator 16.0.0, SVG Export Plug-In . SVG Version: 6.00 Build 0)  -->
<!DOCTYPE svg PUBLIC "-//W3C//DTD SVG 1.1//EN" "http://www.w3.org/Graphics/SVG/1.1/DTD/svg11.dtd">
<svg version="1.1" id="Layer_1" xmlns="http://www.w3.org/2000/svg" xmlns:xlink="http://www.w3.org/1999/xlink" x="0px" y="0px"
	 width="26.726px" height="34.149px" viewBox="0 0 26.726 34.149" enable-background="new 0 0 26.726 34.149" xml:space="preserve">
<path fill="none" stroke="#FFFFFF" stroke-linecap="round" stroke-linejoin="round" stroke-miterlimit="10" d="M15.837,8.437h-4.452
	c-1.979,0-3.464,1.487-3.464,1.487v3.473c0,3.288,1.979,5.953,5.441,5.953c3.464,0,5.443-2.665,5.443-5.953V6.948
	C18.806,6.948,17.321,8.437,15.837,8.437z"/>
<path fill="none" stroke="#FFFFFF" stroke-linecap="round" stroke-linejoin="round" stroke-miterlimit="10" d="M4.952,7.58
	c0-3.91,3.162-7.08,7.062-7.08h1.082c2.648,0,4.956,1.336,6.205,3.474c1.484-0.01,2.474,0.979,2.474,2.478v8.892
	c0,2.473,1.979,3.465,1.979,3.465c-0.621,1.242-1.801,2.113-3.172,2.342l-0.786,0.131"/>
<path fill="none" stroke="#FFFFFF" stroke-linecap="round" stroke-linejoin="round" stroke-miterlimit="10" d="M16.826,20.875
	l4.011,0.619c3.101,0.479,5.389,3.153,5.389,6.299v0.484v1.835c0,0.951-0.672,1.769-1.604,1.949l-5.275,1.016
	c-3.952,0.763-8.015,0.763-11.968,0l-5.274-1.016C1.173,31.881,0.5,31.063,0.5,30.112v-1.835v-0.484c0-3.146,2.289-5.82,5.39-6.299
	L9.9,20.875"/>
<path fill="none" stroke="#FFFFFF" stroke-linecap="round" stroke-linejoin="round" stroke-miterlimit="10" d="M7.921,21.28
	l1.421,2.989c1.61,3.389,6.433,3.389,8.043,0l1.421-2.989"/>
<line fill="none" stroke="#FFFFFF" stroke-linecap="round" stroke-linejoin="round" stroke-miterlimit="10" x1="5.942" y1="30.186" x2="5.942" y2="32.743"/>
<line fill="none" stroke="#FFFFFF" stroke-linecap="round" stroke-linejoin="round" stroke-miterlimit="10" x1="20.785" y1="30.186" x2="20.785" y2="32.743"/>
<path fill="none" stroke="#FFFFFF" stroke-linecap="round" stroke-linejoin="round" stroke-miterlimit="10" d="M6.932,21.28
	l-0.786-0.131c-1.371-0.229-2.551-1.1-3.172-2.344c0,0,1.979-0.989,1.979-3.463V9.9V7.427"/>
</svg>
