<svg id="Layer_1" data-name="Layer 1" xmlns="http://www.w3.org/2000/svg" viewBox="0 0 22.54 23"><defs><style>.cls-1{fill:#fff;}</style></defs><title>ic_google</title><path class="cls-1" d="M681.51,346.15H670.68c0,1.5,0,3,0,4.49H677a5.39,5.39,0,0,1-2.3,3.56,6.44,6.44,0,0,1-2.53,1,7.48,7.48,0,0,1-2.75,0,7,7,0,0,1-2.56-1.11,7.18,7.18,0,0,1-2.63-3.53,6.94,6.94,0,0,1,0-4.48,7.12,7.12,0,0,1,1.67-2.71,6.74,6.74,0,0,1,6.81-1.77,6.18,6.18,0,0,1,2.48,1.46l2.12-2.12c.37-.38.75-.74,1.11-1.13a11.09,11.09,0,0,0-3.7-2.29,11.52,11.52,0,0,0-14.26,5.64,11.46,11.46,0,0,0,0,10.32,11.52,11.52,0,0,0,3.12,3.84,11.39,11.39,0,0,0,4.18,2.11,12.35,12.35,0,0,0,5.89.06,10.16,10.16,0,0,0,7.61-7.22A13.38,13.38,0,0,0,681.51,346.15Z" transform="translate(-659.18 -336.8)"/></svg>