<?xml version="1.0" encoding="utf-8"?>
<!-- Generator: Adobe Illustrator 22.1.0, SVG Export Plug-In . SVG Version: 6.00 Build 0)  -->
<svg version="1.1" id="Layer_1" xmlns="http://www.w3.org/2000/svg" xmlns:xlink="http://www.w3.org/1999/xlink" x="0px" y="0px"
	 viewBox="0 0 24 33.8" style="enable-background:new 0 0 24 33.8;" xml:space="preserve">
<style type="text/css">
	.st0{fill:none;stroke:#00008F;stroke-linecap:round;stroke-linejoin:round;}
</style>
<title>ic_girl</title>
<path class="st0" d="M5.7,16.9C7,20.5,11,22.3,14.6,21c1.9-0.7,3.4-2.2,4.1-4.1"/>
<path class="st0" d="M5.4,9.4"/>
<path class="st0" d="M19,10.6"/>
<line class="st0" x1="6.3" y1="28.6" x2="6.3" y2="30.5"/>
<path class="st0" d="M14.7,21.7"/>
<path class="st0" d="M2.3,29.7l5.2,1c3,0.6,6.1,0.6,9.1,0l5.2-1"/>
<path class="st0" d="M9.6,21.7"/>
<line class="st0" x1="18" y1="28.6" x2="18" y2="30.5"/>
<path class="st0" d="M2.3,29.7c0-5.4,4.4-8.4,9.8-8.4s9.8,2.9,9.8,8.4"/>
<path class="st0" d="M14.7,21.7c0,1.4-1.1,2.6-2.5,2.6c-1.4,0-2.6-1.1-2.6-2.5c0,0,0,0,0,0"/>
<path class="st0" d="M18.2,22.4l0.8-0.1c1.3-0.2,2.4-0.9,3.1-2l0,0c-1.1-0.6-1.9-1.7-1.9-3v-7.1c0-5.9-4.6-7.5-8.1-7.5
	c-4.3,0-8.1,1.4-8.1,7v7.6c0,1.3-0.8,2.4-1.9,3l0,0c0.6,1.1,1.8,1.9,3.1,2l0.8,0.1"/>
<path class="st0" d="M18.7,16.9C18.9,14.9,19,13,19,11h-5.5c-0.4-0.1-0.8-0.3-1.1-0.5c-0.3-0.2-0.6-0.2-0.9,0
	c-0.3,0.3-0.7,0.4-1.1,0.5H5c0,2,0.3,3.9,0.6,5.8"/>
</svg>
