<svg id="Layer_1" data-name="Layer 1" xmlns="http://www.w3.org/2000/svg" viewBox="0 0 17.9 17.9"><defs><style>.cls-1{fill:none;stroke:#2a2e80;stroke-linecap:round;stroke-linejoin:round;}</style></defs><title>ic_house_income_small</title><polyline class="cls-1" points="1.52 7.67 1.52 17.41 16.38 17.41 16.38 7.67"/><path class="cls-1" d="M623.81,357.59h0a.66.66,0,0,1,.28-.56l7.55-5.73a1.05,1.05,0,0,1,1.24,0l7.55,5.73a.67.67,0,0,1,.28.56h0a.71.71,0,0,1-1.14.57l-7.16-5.41a.24.24,0,0,0-.3,0L625,358.16A.71.71,0,0,1,623.81,357.59Z" transform="translate(-623.31 -350.6)"/><circle class="cls-1" cx="8.95" cy="10.49" r="4.35"/><line class="cls-1" x1="8.95" y1="7.67" x2="8.95" y2="13.31"/><path class="cls-1" d="M631,362.37a1.23,1.23,0,0,0,1.26.76c.71,0,1.28-.41,1.28-.92a.46.46,0,0,0-.06-.23.89.89,0,0,0-.38-.39l-.84-.51-.84-.5a.89.89,0,0,1-.38-.39A.46.46,0,0,1,631,360c0-.51.57-.92,1.28-.92a1.23,1.23,0,0,1,1.26.76" transform="translate(-623.31 -350.6)"/></svg>