<?xml version="1.0" encoding="utf-8"?>
<!-- Generator: Adobe Illustrator 16.0.0, SVG Export Plug-In . SVG Version: 6.00 Build 0)  -->
<!DOCTYPE svg PUBLIC "-//W3C//DTD SVG 1.1//EN" "http://www.w3.org/Graphics/SVG/1.1/DTD/svg11.dtd">
<svg version="1.1" id="Layer_1" xmlns="http://www.w3.org/2000/svg" xmlns:xlink="http://www.w3.org/1999/xlink" x="0px" y="0px"
	 width="61px" height="61px" viewBox="0 0 61 61" enable-background="new 0 0 61 61" xml:space="preserve">
<polyline fill="none" stroke="#FFFFFF" stroke-linecap="round" stroke-linejoin="round" stroke-miterlimit="10" points="
	17.045,27.98 17.045,45.835 44.287,45.835 44.287,27.98 "/>
<path fill="none" stroke="#FFFFFF" stroke-linecap="round" stroke-linejoin="round" stroke-miterlimit="10" d="M15.166,26.753
	L15.166,26.753c0-0.463,0.189-0.771,0.52-1.045l13.846-10.492c0.671-0.509,1.599-0.509,2.27,0l13.846,10.492
	c0.295,0.242,0.52,0.546,0.52,1.045c0,1.083-1.239,1.698-2.102,1.043l-13.115-9.937c-0.167-0.128-0.399-0.128-0.566,0l-13.115,9.937
	C16.405,28.451,15.166,27.835,15.166,26.753z"/>
<circle fill="none" stroke="#FFFFFF" stroke-linecap="round" stroke-linejoin="round" stroke-miterlimit="10" cx="30.666" cy="33.152" r="7.984"/>
<path fill="none" stroke="#FFFFFF" stroke-linecap="round" stroke-linejoin="round" stroke-miterlimit="10" d="M28.357,35.501
	c0.187,0.799,1.146,1.408,2.309,1.408c1.297,0,2.349-0.758,2.349-1.691c0-0.148-0.04-0.293-0.106-0.43
	c-0.138-0.289-0.397-0.529-0.705-0.715l-1.537-0.922l-1.537-0.922c-0.308-0.186-0.567-0.426-0.705-0.713
	c-0.066-0.139-0.106-0.283-0.106-0.432c0-0.934,1.052-1.691,2.349-1.691c1.163,0,2.122,0.611,2.309,1.41"/>
</svg>
