<?xml version="1.0" encoding="utf-8"?>
<!-- Generator: Adobe Illustrator 22.1.0, SVG Export Plug-In . SVG Version: 6.00 Build 0)  -->
<svg version="1.1" id="Layer_1" xmlns="http://www.w3.org/2000/svg" xmlns:xlink="http://www.w3.org/1999/xlink" x="0px" y="0px"
	 viewBox="0 0 82 82" style="enable-background:new 0 0 82 82;" xml:space="preserve">
<style type="text/css">
	.st0{fill:#FFFFFF;}
	.st1{fill:none;stroke:#FFFFFF;stroke-linecap:round;stroke-linejoin:round;stroke-miterlimit:10;}
</style>
<g>
	<g>
		<path class="st0" d="M41,1c22.1,0,40,17.9,40,40v0c0,22.1-17.9,40-40,40h0C18.9,81,1,63.1,1,41v0C1,18.9,18.9,1,41,1L41,1 M41,0
			C18.4,0,0,18.4,0,41c0,22.6,18.4,41,41,41c22.6,0,41-18.4,41-41C82,18.4,63.6,0,41,0L41,0z"/>
	</g>
</g>
<g>
	<g>
		<circle class="st1" cx="55.7" cy="25.1" r="2.4"/>
		<circle class="st1" cx="46.3" cy="25.1" r="2.4"/>
		<circle class="st1" cx="27.5" cy="52.2" r="4.7"/>
		<circle class="st1" cx="27.5" cy="52.2" r="1.8"/>
		<path class="st1" d="M48.1,47.5l0.3,1.8c0.2,1,1.5,1.7,2.6,1.7l0,0c1.2,0,2.5-0.7,2.6-1.7l0.3-1.8"/>
		<path class="st1" d="M43.9,41c0,1.9,3.2,3.5,7.1,3.5h0c3.9,0,7.1-1.6,7.1-3.5"/>
		<path class="st1" d="M57.3,26.9c0.5,0.9,0.8,1.9,0.8,2.9v11.8c0,3.6-3.2,6.5-7.1,6.5s-7.1-2.9-7.1-6.5V29.8c0-1.1,0.3-2.1,0.8-2.9
			"/>
		<path class="st1" d="M25.7,47.8l0-1.5c0-1,0.8-1.8,1.8-1.8h0c1,0,1.8,0.8,1.8,1.8l0,1.5"/>
		<path class="st1" d="M51,51c0,5.3-3.3,8.2-7.3,8.2h0c-3.7,0-6.8-2.4-6.8-8.2v-5.9v-8.2c0-2.6-2-4.8-4.6-4.8h0
			c-2.6,0-4.8,2.1-4.8,4.8v7.6"/>
	</g>
</g>
</svg>
