<svg id="Layer_1" data-name="Layer 1" xmlns="http://www.w3.org/2000/svg" viewBox="0 0 62 62"><defs><style>.cls-1{fill:#fff;}.cls-2{fill:none;stroke:#fff;stroke-linecap:round;stroke-linejoin:round;}</style></defs><title>ic_house_income_selectedsvg</title><path class="cls-1" d="M632.07,329.27a30,30,0,0,1,30,30h0a30,30,0,0,1-30,30h0a30,30,0,0,1-30-30h0a30,30,0,0,1,30-30h0m0-1a31,31,0,1,0,31,31,31,31,0,0,0-31-31Z" transform="translate(-601.07 -328.27)"/><polyline class="cls-2" points="17.81 27.88 17.81 45.73 45.05 45.73 45.05 27.88"/><path class="cls-2" d="M617,354.92h0a1.29,1.29,0,0,1,.52-1.05l13.85-10.49a1.86,1.86,0,0,1,2.26,0l13.85,10.49a1.3,1.3,0,0,1,.52,1.05h0a1.31,1.31,0,0,1-2.1,1L632.78,346a.45.45,0,0,0-.56,0L619.1,356A1.31,1.31,0,0,1,617,354.92Z" transform="translate(-601.07 -328.27)"/><circle class="cls-2" cx="31.43" cy="33.05" r="7.98"/><line class="cls-2" x1="31.43" y1="27.88" x2="31.43" y2="38.22"/><path class="cls-2" d="M630.19,363.67a2.26,2.26,0,0,0,2.31,1.41c1.3,0,2.35-.76,2.35-1.7a1,1,0,0,0-.11-.43,1.83,1.83,0,0,0-.7-.71l-1.54-.92L631,360.4a1.79,1.79,0,0,1-.7-.72.92.92,0,0,1-.11-.43c0-.93,1.05-1.69,2.35-1.69a2.26,2.26,0,0,1,2.31,1.41" transform="translate(-601.07 -328.27)"/></svg>