<svg id="Layer_1" data-name="Layer 1" xmlns="http://www.w3.org/2000/svg" viewBox="0 0 62 62"><defs><style>.cls-1{fill:#fff;}.cls-2{fill:none;stroke:#fff;stroke-linecap:round;stroke-linejoin:round;}</style></defs><title>ic_kid_selected</title><path class="cls-1" d="M670.07,318.27a30,30,0,0,1,30,30h0a30,30,0,0,1-30,30h0a30,30,0,0,1-30-30h0a30,30,0,0,1,30-30h0m0-1a31,31,0,1,0,31,31,31,31,0,0,0-31-31Z" transform="translate(-639.07 -317.27)"/><line class="cls-2" x1="24.87" y1="42.59" x2="24.87" y2="44.62"/><path class="cls-2" d="M679.16,340.61a9.51,9.51,0,0,0-18.15,0" transform="translate(-639.07 -317.27)"/><path class="cls-2" d="M661.2,346a9.53,9.53,0,0,0,17.77,0" transform="translate(-639.07 -317.27)"/><path class="cls-2" d="M679.5,340.57a1.86,1.86,0,0,0-.34,0,8.89,8.89,0,0,1,.34,2.38,8.52,8.52,0,0,1-.53,2.95,2.33,2.33,0,0,0,.53.07,2.73,2.73,0,0,0,0-5.44Z" transform="translate(-639.07 -317.27)"/><path class="cls-2" d="M679,345.94a8.52,8.52,0,0,0,.53-2.95,8.89,8.89,0,0,0-.34-2.38" transform="translate(-639.07 -317.27)"/><path class="cls-2" d="M660.94,346a2.3,2.3,0,0,0,.26,0,8.51,8.51,0,0,1-.19-5.4h-.07" transform="translate(-639.07 -317.27)"/><path class="cls-2" d="M674,337c-1.23,0-2.22-1.52-2.22-2.86" transform="translate(-639.07 -317.27)"/><path class="cls-2" d="M672.85,338.76c-2.14,0-3.88-2.33-3.88-4.67" transform="translate(-639.07 -317.27)"/><path class="cls-2" d="M673,352.41" transform="translate(-639.07 -317.27)"/><path class="cls-2" d="M659.62,361l5.67,1.11a26.79,26.79,0,0,0,9.86,0l5.66-1.11" transform="translate(-639.07 -317.27)"/><path class="cls-2" d="M667.47,352.41" transform="translate(-639.07 -317.27)"/><line class="cls-2" x1="37.43" y1="42.59" x2="37.43" y2="44.62"/><path class="cls-2" d="M659.62,361c0-5.85,4.75-9,10.6-9s10.59,3.18,10.59,9" transform="translate(-639.07 -317.27)"/><path class="cls-2" d="M673,352.41a2.75,2.75,0,0,1-5.5,0" transform="translate(-639.07 -317.27)"/></svg>