<?xml version="1.0" encoding="utf-8"?>
<!-- Generator: Adobe Illustrator 16.0.0, SVG Export Plug-In . SVG Version: 6.00 Build 0)  -->
<!DOCTYPE svg PUBLIC "-//W3C//DTD SVG 1.1//EN" "http://www.w3.org/Graphics/SVG/1.1/DTD/svg11.dtd">
<svg version="1.1" id="Layer_1" xmlns="http://www.w3.org/2000/svg" xmlns:xlink="http://www.w3.org/1999/xlink" x="0px" y="0px"
	 width="61px" height="61px" viewBox="0 0 61 61" enable-background="new 0 0 61 61" xml:space="preserve">
<line fill="none" stroke="#FFFFFF" stroke-linecap="round" stroke-linejoin="round" stroke-miterlimit="10" x1="24.106" y1="41.695" x2="24.106" y2="43.723"/>
<path fill="none" stroke="#FFFFFF" stroke-linecap="round" stroke-linejoin="round" stroke-miterlimit="10" d="M39.325,22.443
	c-1.088-3.846-4.734-6.678-9.079-6.678c-4.333,0-7.973,2.818-9.07,6.649"/>
<path fill="none" stroke="#FFFFFF" stroke-linecap="round" stroke-linejoin="round" stroke-miterlimit="10" d="M21.365,27.812
	c1.285,3.528,4.771,6.064,8.881,6.064c4.124,0,7.619-2.551,8.895-6.1"/>
<path fill="none" stroke="#FFFFFF" stroke-linecap="round" stroke-linejoin="round" stroke-miterlimit="10" d="M39.664,22.406
	c-0.116,0-0.228,0.021-0.339,0.037c0.215,0.759,0.339,1.554,0.339,2.378c0,1.037-0.189,2.028-0.523,2.956
	c0.169,0.041,0.344,0.063,0.523,0.063c1.377,0,2.493-1.216,2.493-2.717C42.157,23.624,41.041,22.406,39.664,22.406z"/>
<path fill="none" stroke="#FFFFFF" stroke-linecap="round" stroke-linejoin="round" stroke-miterlimit="10" d="M21.105,27.839
	c0.089,0,0.173-0.019,0.26-0.027c-0.342-0.938-0.537-1.941-0.537-2.991c0-0.835,0.127-1.639,0.348-2.407
	c-0.024-0.001-0.046-0.008-0.07-0.008"/>
<path fill="none" stroke="#FFFFFF" stroke-linecap="round" stroke-linejoin="round" stroke-miterlimit="10" d="M34.124,18.784
	c-1.224,0-2.216-1.522-2.216-2.856"/>
<path fill="none" stroke="#FFFFFF" stroke-linecap="round" stroke-linejoin="round" stroke-miterlimit="10" d="M33.017,20.596
	c-2.142,0-3.878-2.334-3.878-4.668"/>
<path fill="none" stroke="#FFFFFF" stroke-linecap="round" stroke-linejoin="round" stroke-miterlimit="10" d="M19.79,42.873
	l5.666,1.115c3.256,0.605,6.602,0.605,9.856,0l5.668-1.115"/>
<line fill="none" stroke="#FFFFFF" stroke-linecap="round" stroke-linejoin="round" stroke-miterlimit="10" x1="36.663" y1="41.695" x2="36.663" y2="43.723"/>
<path fill="none" stroke="#FFFFFF" stroke-linecap="round" stroke-linejoin="round" stroke-miterlimit="10" d="M19.79,42.873
	c0-5.853,4.743-9.025,10.595-9.025S40.98,37.02,40.98,42.873"/>
<path fill="none" stroke="#FFFFFF" stroke-linecap="round" stroke-linejoin="round" stroke-miterlimit="10" d="M33.132,34.24
	c0,1.518-1.229,2.746-2.747,2.746c-1.517,0-2.747-1.229-2.747-2.746"/>
</svg>
