<?xml version="1.0" encoding="utf-8"?>
<!-- Generator: Adobe Illustrator 22.1.0, SVG Export Plug-In . SVG Version: 6.00 Build 0)  -->
<svg version="1.1" id="Layer_1" xmlns="http://www.w3.org/2000/svg" xmlns:xlink="http://www.w3.org/1999/xlink" x="0px" y="0px"
	 viewBox="0 0 82 82" style="enable-background:new 0 0 82 82;" xml:space="preserve">
<style type="text/css">
	.st0{fill:#FFFFFF;}
	.st1{fill:none;stroke:#FFFFFF;stroke-linecap:round;stroke-linejoin:round;stroke-miterlimit:10;}
</style>
<g>
	<g>
		<path class="st0" d="M41,1c22.1,0,40,17.9,40,40v0c0,22.1-17.9,40-40,40h0C18.9,81,1,63.1,1,41v0C1,18.9,18.9,1,41,1L41,1 M41,0
			C18.4,0,0,18.4,0,41c0,22.6,18.4,41,41,41c22.6,0,41-18.4,41-41C82,18.4,63.6,0,41,0L41,0z"/>
	</g>
</g>
<g>
	<g>
		<path class="st1" d="M36.9,49.5l6.9,1c0.5,0.1,1.1,0.1,1.6,0l0.3,0c1.1-0.4,2-1.3,2.1-2.6c0.1-1.6-1.1-3.1-2.7-3.2l-9.5-1.2
			c-3.3-0.4-6.7,0.6-9.1,2.9l-5.8,5.3L20.2,52"/>
		<path class="st1" d="M33.4,57.9c0.5,0,11.6,2.1,11.6,2.1c1.2,0.2,2.5,0,3.5-0.6l8.8-5.4l8.6-8.1c0.6-0.6,0.7-1.6,0.2-2.3v0
			c-1-1.3-2.9-1.5-4.2-0.5l-7.1,5.5l-8.9,1.8"/>
		<path class="st1" d="M33.4,57.9c-0.9,0-1.7,0.3-2.4,0.8l-2.9,2.4"/>
		<path class="st1" d="M19.5,51.1C19,50.5,18,50.4,17.4,51l-2.5,2.2c-0.6,0.5-0.7,1.5-0.2,2.1l9,10.5c0.5,0.6,1.5,0.7,2.1,0.2
			l2.5-2.2c0.6-0.5,0.7-1.5,0.2-2.1L19.5,51.1z"/>
	</g>
	<g>
		<g>
			<circle class="st1" cx="39.1" cy="26.1" r="11.1"/>
		</g>
		<g>
			<line class="st1" x1="39.1" y1="18.4" x2="39.1" y2="33.9"/>
			<path class="st1" d="M35.7,29.9c0.3,1.3,1.7,2.2,3.4,2.2c1.9,0,3.4-1.2,3.4-2.7c0-0.2-0.1-0.5-0.2-0.7c-0.2-0.5-0.6-0.8-1-1.1
				l-2.2-1.5l-2.2-1.5c-0.5-0.3-0.8-0.7-1-1.1c-0.1-0.2-0.2-0.5-0.2-0.7c0-1.5,1.5-2.7,3.4-2.7c1.7,0,3.1,1,3.4,2.2"/>
		</g>
	</g>
</g>
</svg>
