<?xml version="1.0" encoding="utf-8"?>
<!-- Generator: Adobe Illustrator 16.0.0, SVG Export Plug-In . SVG Version: 6.00 Build 0)  -->
<!DOCTYPE svg PUBLIC "-//W3C//DTD SVG 1.1//EN" "http://www.w3.org/Graphics/SVG/1.1/DTD/svg11.dtd">
<svg version="1.1" id="Layer_1" xmlns="http://www.w3.org/2000/svg" xmlns:xlink="http://www.w3.org/1999/xlink" x="0px" y="0px"
	 width="61px" height="61px" viewBox="0 0 61 61" enable-background="new 0 0 61 61" xml:space="preserve">
<circle fill="none" stroke="#FFFFFF" stroke-linecap="round" stroke-linejoin="round" stroke-miterlimit="10" cx="21.314" cy="30.322" r="1.337"/>
<ellipse fill="none" stroke="#FFFFFF" stroke-linecap="round" stroke-linejoin="round" stroke-miterlimit="10" cx="15.52" cy="32.55" rx="1.783" ry="4.459"/>
<path fill="none" stroke="#FFFFFF" stroke-linecap="round" stroke-linejoin="round" stroke-miterlimit="10" d="M50.736,28.984
	c0,2.217-1.797,4.014-4.013,4.014"/>
<polyline fill="none" stroke="#FFFFFF" stroke-linecap="round" stroke-linejoin="round" stroke-miterlimit="10" points="
	19.086,25.757 19.086,21.853 22.801,22.781 "/>
<circle fill="none" stroke="#FFFFFF" stroke-linecap="round" stroke-linejoin="round" stroke-miterlimit="10" cx="31.567" cy="21.406" r="5.795"/>
<path fill="none" stroke="#FFFFFF" stroke-linecap="round" stroke-linejoin="round" stroke-miterlimit="10" d="M15.52,37.009h1.947
	c3.848,4.457,9.643,5.795,14.101,5.795c8.916,0,15.156-5.35,15.156-10.254c0-5.018-3.866-9.315-9.362-11.123"/>
<path fill="none" stroke="#FFFFFF" stroke-linecap="round" stroke-linejoin="round" stroke-miterlimit="10" d="M25.774,21.456
	c-3.747,1.259-6.766,3.679-8.308,6.637H15.52"/>
<path fill="none" stroke="#FFFFFF" stroke-linecap="round" stroke-linejoin="round" stroke-miterlimit="10" d="M27.006,24.973
	h-2.348c-0.616,0-1.115,0.499-1.115,1.114c0,0.616,0.499,1.116,1.115,1.116h13.819c0.615,0,1.114-0.5,1.114-1.116
	c0-0.615-0.499-1.114-1.114-1.114h-2.349"/>
<circle fill="none" stroke="#FFFFFF" stroke-linecap="round" stroke-linejoin="round" stroke-miterlimit="10" cx="31.567" cy="21.406" r="3.566"/>
<path fill="none" stroke="#FFFFFF" stroke-linecap="round" stroke-linejoin="round" stroke-miterlimit="10" d="M23.098,41.105v3.037
	c0,0.492,0.399,0.891,0.892,0.891h2.229c0.492,0,0.892-0.398,0.892-0.891v-1.781"/>
<path fill="none" stroke="#FFFFFF" stroke-linecap="round" stroke-linejoin="round" stroke-miterlimit="10" d="M36.471,42.359v1.783
	c0,0.492,0.399,0.891,0.892,0.891h2.229c0.492,0,0.892-0.398,0.892-0.891V40.75"/>
</svg>
