<svg id="Layer_1" data-name="Layer 1" xmlns="http://www.w3.org/2000/svg" viewBox="0 0 61 61"><defs><style>.cls-1,.cls-2{fill:none;stroke:#fff;}.cls-1{stroke-miterlimit:10;}.cls-2{stroke-linecap:round;stroke-linejoin:round;}</style></defs><title>ic_monthy_saving_selected</title><circle class="cls-1" cx="30.5" cy="30.5" r="30"/><circle class="cls-2" cx="21.31" cy="30.32" r="1.34"/><ellipse class="cls-2" cx="15.52" cy="32.55" rx="1.78" ry="4.46"/><path class="cls-2" d="M651.93,358.48a4,4,0,0,1-4,4" transform="translate(-601.2 -329.5)"/><polyline class="cls-2" points="19.09 25.76 19.09 21.85 22.8 22.78"/><circle class="cls-2" cx="31.57" cy="21.41" r="5.8"/><path class="cls-2" d="M616.71,366.51h1.95c3.85,4.46,9.64,5.79,14.1,5.79,8.92,0,15.16-5.35,15.16-10.25s-3.87-9.32-9.36-11.12" transform="translate(-601.2 -329.5)"/><path class="cls-2" d="M627,351a14.36,14.36,0,0,0-8.31,6.63h-1.95" transform="translate(-601.2 -329.5)"/><path class="cls-2" d="M628.2,354.47h-2.35a1.12,1.12,0,0,0,0,2.23h13.82a1.12,1.12,0,1,0,0-2.23h-2.35" transform="translate(-601.2 -329.5)"/><circle class="cls-2" cx="31.57" cy="21.41" r="3.57"/><path class="cls-2" d="M624.29,370.6v3a.89.89,0,0,0,.89.89h2.23a.89.89,0,0,0,.89-.89v-1.78" transform="translate(-601.2 -329.5)"/><path class="cls-2" d="M637.67,371.86v1.78a.89.89,0,0,0,.89.89h2.23a.89.89,0,0,0,.89-.89v-3.39" transform="translate(-601.2 -329.5)"/></svg>