<?xml version="1.0" encoding="utf-8"?>
<!-- Generator: Adobe Illustrator 22.1.0, SVG Export Plug-In . SVG Version: 6.00 Build 0)  -->
<svg version="1.1" id="Layer_1" xmlns="http://www.w3.org/2000/svg" xmlns:xlink="http://www.w3.org/1999/xlink" x="0px" y="0px"
	 viewBox="0 0 80 80" style="enable-background:new 0 0 80 80;" xml:space="preserve">
<style type="text/css">
	.st0{fill:#FFFFFF;}
	.st1{fill:none;stroke:#00008F;stroke-linecap:round;stroke-linejoin:round;stroke-miterlimit:10;}
</style>
<g>
	<g>
		<path class="st0" d="M40,80L40,80C17.9,80,0,62.1,0,40v0C0,17.9,17.9,0,40,0h0c22.1,0,40,17.9,40,40v0C80,62.1,62.1,80,40,80z"/>
	</g>
	<g>
		<g>
			<path class="st1" d="M47.1,28.5c-1.1,0-2.1-0.5-3-1.2c-0.9-0.7-2.2-0.6-2.9,0.2c-1.1,1.4-2.5,2.3-4.9,2.3h-1.7c-1.1,0-2,0.9-2,2
				v3.3c0,4.4,2.6,7.9,7.3,7.9s7.3-3.6,7.3-7.9v-6.6H47.1z"/>
			<path class="st1" d="M47.3,35.8c0,0,3.3-2,3.3-6.6c0-4,0-4,0-4c0-1.3-0.9-2.3-2-2.6c-0.4-0.1-0.7-0.3-1-0.7c-1.7-2.5-4.6-4-7.9-4
				h-0.8c-5.2,0-9.4,4.2-9.4,9.4V29c0,2.6,1.3,5.5,3.3,6.8"/>
			<line class="st1" x1="35.4" y1="41.4" x2="35.4" y2="44.9"/>
			<line class="st1" x1="44.6" y1="41.4" x2="44.6" y2="44.9"/>
			<path class="st1" d="M35.4,44.9l-5.7,0.9c-4.3,0.6-7.5,4.2-7.5,8.4v0.6v2.4c0,1.3,0.9,2.4,2.2,2.6l6.9,1.3
				c5.7,1.1,11.6,1.1,17.3,0l6.9-1.3c1.3-0.2,2.2-1.3,2.2-2.6v-2.4v-0.6c0-4.2-3.2-7.8-7.5-8.4l-5.7-0.9"/>
			<line class="st1" x1="29.4" y1="57.5" x2="29.4" y2="60.9"/>
			<line class="st1" x1="50.6" y1="57.5" x2="50.6" y2="60.9"/>
			<path class="st1" d="M33.6,45.2l3.9,4.6c1.3,1.6,3.7,1.6,5,0l3.9-4.6"/>
		</g>
	</g>
</g>
</svg>
