<?xml version="1.0" encoding="utf-8"?>
<!-- Generator: Adobe Illustrator 22.1.0, SVG Export Plug-In . SVG Version: 6.00 Build 0)  -->
<svg version="1.1" id="Layer_1" xmlns="http://www.w3.org/2000/svg" xmlns:xlink="http://www.w3.org/1999/xlink" x="0px" y="0px"
	 viewBox="0 0 82 82" style="enable-background:new 0 0 82 82;" xml:space="preserve">
<style type="text/css">
	.st0{fill:#FFFFFF;}
</style>
<g>
	<g>
		<path class="st0" d="M41,1c22.1,0,40,17.9,40,40v0c0,22.1-17.9,40-40,40h0C18.9,81,1,63.1,1,41v0C1,18.9,18.9,1,41,1L41,1 M41,0
			C18.4,0,0,18.4,0,41c0,22.6,18.4,41,41,41c22.6,0,41-18.4,41-41C82,18.4,63.6,0,41,0L41,0z"/>
	</g>
	<g>
		<path class="st0" d="M40.8,46.9l-0.4,0.6c-2.9,4.5-5.4,6.7-7.2,6.7c-2.2,0-4.3-1.8-6.4-5.3c0.3,0,0.5,0,0.6,0
			c2.5,0,5.2-1.9,8.3-5.7l0.8-1l-1-1.1c-2.8-2.9-4.2-5.4-4.2-7.5c0-1.7,1.5-3.7,4.6-5.9c0.4,2.9,1.7,5.8,3.9,8.5l0.8,1.1l0.7-0.9
			c3.1-4,6-6,8.6-6c2,0,3.5,1.5,4.6,4.6c-0.3,0-0.5-0.1-0.6-0.1c-0.9,0-2.2,0.6-3.8,1.8c-1.6,1.2-3,2.6-4.2,4.1l-0.8,1.2l0.8,0.8
			c3,2.9,6.2,4.4,9.5,4.4c-1.8,3.6-3.6,5.4-5.5,5.4c-1.7,0-4.2-1.5-7.5-4.6L40.8,46.9z"/>
	</g>
</g>
</svg>
