<?xml version="1.0" encoding="utf-8"?>
<!-- Generator: Adobe Illustrator 22.1.0, SVG Export Plug-In . SVG Version: 6.00 Build 0)  -->
<svg version="1.1" id="Layer_1" xmlns="http://www.w3.org/2000/svg" xmlns:xlink="http://www.w3.org/1999/xlink" x="0px" y="0px"
	 viewBox="0 0 82 82" style="enable-background:new 0 0 82 82;" xml:space="preserve">
<style type="text/css">
	.st0{fill:#FFFFFF;}
	.st1{fill:none;stroke:#FFFFFF;stroke-linecap:round;stroke-linejoin:round;stroke-miterlimit:10;}
</style>
<g>
	<g>
		<g>
			<path class="st0" d="M41,1c22.1,0,40,17.9,40,40v0c0,22.1-17.9,40-40,40h0C18.9,81,1,63.1,1,41v0C1,18.9,18.9,1,41,1L41,1 M41,0
				C18.4,0,0,18.4,0,41c0,22.6,18.4,41,41,41c22.6,0,41-18.4,41-41C82,18.4,63.6,0,41,0L41,0z"/>
		</g>
	</g>
	<g>
		<g>
			<path class="st1" d="M24.8,41.6c3.5,0,6.5,1.7,7.8,4.1c1.3-2.4,4.3-4.1,7.8-4.1c3.5,0,6.5,1.7,7.8,4.1c1.3-2.4,4.3-4.1,7.8-4.1
				c3.5,0,6.5,1.7,7.8,4.1C63.4,32,53.1,21,40.3,21S17.2,32,17,45.6C18.3,43.2,21.3,41.6,24.8,41.6z"/>
		</g>
		<g>
			<path class="st1" d="M32.6,45.7C32.6,45.7,32.6,45.7,32.6,45.7C32.7,28.5,40.3,21,40.3,21"/>
			<path class="st1" d="M40.3,21c0,0,7.6,7.5,7.8,24.7c0,0,0,0,0,0"/>
		</g>
		<line class="st1" x1="40.3" y1="41.7" x2="40.3" y2="61.7"/>
		<path class="st1" d="M40.3,61.7c0,2.2,1.8,4,4,4c2.2,0,4-1.8,4-4"/>
		<line class="st1" x1="40.3" y1="21" x2="40.3" y2="19"/>
	</g>
</g>
</svg>
