<svg id="Layer_1" data-name="Layer 1" xmlns="http://www.w3.org/2000/svg" viewBox="0 0 62 62"><defs><style>.cls-1{fill:#fff;}.cls-2{fill:none;}.cls-2,.cls-3{stroke:#fff;stroke-linecap:round;stroke-linejoin:round;}.cls-3{fill:#515daa;}</style></defs><title>ic_parent_selected</title><path class="cls-1" d="M632.07,329.27a30,30,0,0,1,30,30h0a30,30,0,0,1-30,30h0a30,30,0,0,1-30-30h0a30,30,0,0,1,30-30h0m0-1a31,31,0,1,0,31,31,31,31,0,0,0-31-31Z" transform="translate(-601.07 -328.27)"/><path class="cls-2" d="M637.54,360.92l-3.61,1c-2.93,1-4.53,2.55-4.53,5.09v2.68a1.61,1.61,0,0,0,1.35,1.57l4.43.83a27.77,27.77,0,0,0,10,0l4.43-.83A1.61,1.61,0,0,0,651,369.7V367c0-2.54-1.6-4.06-4.53-5.09l-3.61-1" transform="translate(-601.07 -328.27)"/><line class="cls-2" x1="39.13" y1="33.49" x2="42.33" y2="36.34"/><line class="cls-2" x1="39.13" y1="33.49" x2="35.93" y2="36.34"/><line class="cls-2" x1="35.93" y1="36.34" x2="35.12" y2="33.03"/><line class="cls-2" x1="42.33" y1="36.34" x2="43.15" y2="33.03"/><line class="cls-2" x1="39.13" y1="37.49" x2="39.13" y2="37.89"/><line class="cls-2" x1="39.13" y1="35.49" x2="39.13" y2="35.89"/><line class="cls-2" x1="39.13" y1="39.49" x2="39.13" y2="39.89"/><line class="cls-2" x1="39.13" y1="41.49" x2="39.13" y2="41.89"/><line class="cls-2" x1="39.13" y1="43.49" x2="39.13" y2="44.29"/><path class="cls-2" d="M644.6,352.16" transform="translate(-601.07 -328.27)"/><line class="cls-2" x1="31.93" y1="41.09" x2="31.93" y2="43.42"/><line class="cls-2" x1="46.33" y1="41.09" x2="46.33" y2="43.42"/><path class="cls-2" d="M640.2,352.16c0,1.1-2,2-4.4,2V357c0,2.66,1.6,4.78,4.4,4.78s4.4-2.12,4.4-4.78v-2.82C642.17,354.16,640.2,353.26,640.2,352.16Z" transform="translate(-601.07 -328.27)"/><path class="cls-2" d="M644.34,358.73a5.35,5.35,0,0,0,3.06-4.57c0-3.09-3.22-5.6-7.2-5.6s-7.2,2.51-7.2,5.6a5.35,5.35,0,0,0,3.06,4.57" transform="translate(-601.07 -328.27)"/><path class="cls-2" d="M642.88,349a2.63,2.63,0,0,0,.12-.8,2.8,2.8,0,1,0-5.6,0,2.63,2.63,0,0,0,.12.8" transform="translate(-601.07 -328.27)"/><line class="cls-2" x1="19.93" y1="33.09" x2="19.93" y2="31.19"/><line class="cls-2" x1="25.53" y1="31.25" x2="25.53" y2="33.09"/><path class="cls-3" d="M620.89,361.43l-3.36.5A5.21,5.21,0,0,0,613,367v2.68a1.61,1.61,0,0,0,1.35,1.57l4.43.83a27.77,27.77,0,0,0,10,0l4.43-.83a1.61,1.61,0,0,0,1.35-1.57V367a5.21,5.21,0,0,0-4.53-5.09l-3.36-.5" transform="translate(-601.07 -328.27)"/><line class="cls-2" x1="15.13" y1="34.03" x2="15.13" y2="43.09"/><line class="cls-2" x1="17.13" y1="33.56" x2="17.13" y2="43.49"/><line class="cls-2" x1="30.33" y1="34.03" x2="30.33" y2="43.09"/><line class="cls-2" x1="28.33" y1="33.56" x2="28.33" y2="43.49"/><path class="cls-2" d="M629.43,347.81,627,347v.91a1.6,1.6,0,0,0,1,1.49l1,.4v4.8s2-.8,2-2.4v-2A2.59,2.59,0,0,0,629.43,347.81Z" transform="translate(-601.07 -328.27)"/><path class="cls-2" d="M618.17,347.81l2.43-.85v.91a1.6,1.6,0,0,1-1,1.49l-1,.4v4.8s-2-.8-2-2.4v-2A2.59,2.59,0,0,1,618.17,347.81Z" transform="translate(-601.07 -328.27)"/><path class="cls-2" d="M618.6,354.58c0,2.66,1.6,5.58,5.2,5.62s5.2-3,5.2-5.62" transform="translate(-601.07 -328.27)"/><path class="cls-2" d="M627,347a6.77,6.77,0,0,0-3.2-.8,6.66,6.66,0,0,0-3.2.8" transform="translate(-601.07 -328.27)"/><path class="cls-2" d="M628.2,350.56" transform="translate(-601.07 -328.27)"/><line class="cls-2" x1="22.73" y1="35.49" x2="22.73" y2="44.29"/><polyline class="cls-2" points="25.53 33.13 22.73 35.49 25.93 37.14 26.73 33.53"/><polyline class="cls-2" points="18.73 33.53 19.53 37.14 22.73 35.49 19.93 33.13"/></svg>