<?xml version="1.0" encoding="utf-8"?>
<!-- Generator: Adobe Illustrator 16.0.0, SVG Export Plug-In . SVG Version: 6.00 Build 0)  -->
<!DOCTYPE svg PUBLIC "-//W3C//DTD SVG 1.1//EN" "http://www.w3.org/Graphics/SVG/1.1/DTD/svg11.dtd">
<svg version="1.1" id="Layer_1" xmlns="http://www.w3.org/2000/svg" xmlns:xlink="http://www.w3.org/1999/xlink" x="0px" y="0px"
	 width="61px" height="61px" viewBox="0 0 61 61" enable-background="new 0 0 61 61" xml:space="preserve">
<path fill="none" stroke="#FFFFFF" stroke-linecap="round" stroke-linejoin="round" stroke-miterlimit="10" d="M36.702,31.751
	l-3.61,1.014c-2.926,1.027-4.525,2.551-4.525,5.092v2.676c0,0.77,0.565,1.43,1.348,1.574l4.428,0.822
	c3.319,0.617,6.729,0.617,10.047,0l4.43-0.822c0.781-0.145,1.348-0.805,1.348-1.574v-2.676c0-2.541-1.6-4.064-4.526-5.092
	l-3.61-1.014"/>
<line fill="none" stroke="#FFFFFF" stroke-linecap="round" stroke-linejoin="round" stroke-miterlimit="10" x1="39.366" y1="32.591" x2="42.566" y2="35.445"/>
<line fill="none" stroke="#FFFFFF" stroke-linecap="round" stroke-linejoin="round" stroke-miterlimit="10" x1="39.366" y1="32.591" x2="36.166" y2="35.445"/>
<line fill="none" stroke="#FFFFFF" stroke-linecap="round" stroke-linejoin="round" stroke-miterlimit="10" x1="42.566" y1="35.445" x2="43.381" y2="32.132"/>
<line fill="none" stroke="#FFFFFF" stroke-linecap="round" stroke-linejoin="round" stroke-miterlimit="10" x1="39.366" y1="36.591" x2="39.366" y2="36.992"/>
<line fill="none" stroke="#FFFFFF" stroke-linecap="round" stroke-linejoin="round" stroke-miterlimit="10" x1="39.366" y1="34.591" x2="39.366" y2="34.992"/>
<line fill="none" stroke="#FFFFFF" stroke-linecap="round" stroke-linejoin="round" stroke-miterlimit="10" x1="39.366" y1="38.591" x2="39.366" y2="38.992"/>
<line fill="none" stroke="#FFFFFF" stroke-linecap="round" stroke-linejoin="round" stroke-miterlimit="10" x1="39.366" y1="40.591" x2="39.366" y2="40.992"/>
<line fill="none" stroke="#FFFFFF" stroke-linecap="round" stroke-linejoin="round" stroke-miterlimit="10" x1="39.366" y1="42.591" x2="39.366" y2="43.392"/>
<line fill="none" stroke="#FFFFFF" stroke-linecap="round" stroke-linejoin="round" stroke-miterlimit="10" x1="46.566" y1="40.191" x2="46.566" y2="42.525"/>
<path fill="none" stroke="#FFFFFF" stroke-linecap="round" stroke-linejoin="round" stroke-miterlimit="10" d="M39.366,22.992
	c0,1.104-1.97,2-4.4,2v2.826c0,2.658,1.601,4.775,4.4,4.775s4.399-2.117,4.399-4.775v-2.826
	C41.336,24.992,39.366,24.097,39.366,22.992z"/>
<path fill="none" stroke="#FFFFFF" stroke-linecap="round" stroke-linejoin="round" stroke-miterlimit="10" d="M43.508,29.568
	c1.848-1.014,3.059-2.684,3.059-4.576c0-3.093-3.224-5.601-7.2-5.601s-7.2,2.508-7.2,5.601c0,1.892,1.21,3.562,3.058,4.576"/>
<path fill="none" stroke="#FFFFFF" stroke-linecap="round" stroke-linejoin="round" stroke-miterlimit="10" d="M42.047,19.798
	c0.077-0.256,0.119-0.525,0.119-0.807c0-1.547-1.254-2.799-2.8-2.799c-1.547,0-2.8,1.252-2.8,2.799c0,0.281,0.043,0.551,0.118,0.807
	"/>
<path fill="none" stroke="#FFFFFF" stroke-linecap="round" stroke-linejoin="round" stroke-miterlimit="10" d="M20.059,32.265
	l-3.367,0.5c-2.604,0.387-4.525,2.549-4.525,5.092v0.393v2.283c0,0.77,0.565,1.43,1.348,1.574l4.429,0.822
	c3.318,0.617,6.729,0.617,10.048,0l4.428-0.822c0.782-0.145,1.348-0.805,1.348-1.574V38.25v-0.393c0-2.543-1.922-4.705-4.525-5.092
	l-3.367-0.5"/>
<line fill="none" stroke="#FFFFFF" stroke-linecap="round" stroke-linejoin="round" stroke-miterlimit="10" x1="15.366" y1="33.134" x2="15.366" y2="42.191"/>
<line fill="none" stroke="#FFFFFF" stroke-linecap="round" stroke-linejoin="round" stroke-miterlimit="10" x1="17.366" y1="32.664" x2="17.366" y2="42.591"/>
<line fill="none" stroke="#FFFFFF" stroke-linecap="round" stroke-linejoin="round" stroke-miterlimit="10" x1="30.566" y1="33.134" x2="30.566" y2="42.191"/>
<line fill="none" stroke="#FFFFFF" stroke-linecap="round" stroke-linejoin="round" stroke-miterlimit="10" x1="28.566" y1="32.664" x2="28.566" y2="42.591"/>
<path fill="none" stroke="#FFFFFF" stroke-linecap="round" stroke-linejoin="round" stroke-miterlimit="10" d="M28.6,18.644
	l-2.434-0.852v0.916c0,0.656,0.398,1.244,1.006,1.486l0.994,0.397v4.8c0,0,2-0.8,2-2.398v-1.996
	C30.166,19.792,29.366,18.993,28.6,18.644z"/>
<path fill="none" stroke="#FFFFFF" stroke-linecap="round" stroke-linejoin="round" stroke-miterlimit="10" d="M17.332,18.644
	l2.434-0.852v0.916c0,0.656-0.397,1.244-1.006,1.486l-0.994,0.397v4.8c0,0-2-0.8-2-2.398v-1.996
	C15.766,19.792,16.566,18.993,17.332,18.644z"/>
<path fill="none" stroke="#FFFFFF" stroke-linecap="round" stroke-linejoin="round" stroke-miterlimit="10" d="M17.766,25.419
	c0,2.657,1.601,5.573,5.2,5.612c3.601,0.039,5.2-2.955,5.2-5.612"/>
<path fill="none" stroke="#FFFFFF" stroke-linecap="round" stroke-linejoin="round" stroke-miterlimit="10" d="M26.166,17.792
	c-0.734-0.503-2.229-0.8-3.2-0.8c-0.981,0-2.461,0.294-3.2,0.8"/>
<line fill="none" stroke="#FFFFFF" stroke-linecap="round" stroke-linejoin="round" stroke-miterlimit="10" x1="22.966" y1="34.591" x2="22.966" y2="43.392"/>
<polyline fill="none" stroke="#FFFFFF" stroke-linecap="round" stroke-linejoin="round" stroke-miterlimit="10" points="
	25.766,32.234 22.966,34.591 26.166,36.246 26.966,32.634 "/>
<polyline fill="none" stroke="#FFFFFF" stroke-linecap="round" stroke-linejoin="round" stroke-miterlimit="10" points="
	18.966,32.634 19.766,36.244 22.966,34.591 20.166,32.234 "/>
</svg>
