<?xml version="1.0" encoding="utf-8"?>
<!-- Generator: Adobe Illustrator 22.1.0, SVG Export Plug-In . SVG Version: 6.00 Build 0)  -->
<svg version="1.1" id="Layer_1" xmlns="http://www.w3.org/2000/svg" xmlns:xlink="http://www.w3.org/1999/xlink" x="0px" y="0px"
	 viewBox="0 0 26.7 26.7" style="enable-background:new 0 0 26.7 26.7;" xml:space="preserve">
<style type="text/css">
	.st0{fill:#EB4D33;}
</style>
<g>
	<path class="st0" d="M13.3,0C6,0,0,6,0,13.3s6,13.3,13.3,13.3s13.3-6,13.3-13.3S20.7,0,13.3,0z M14.7,22.7H12V20h2.7V22.7z
		 M17.4,12.3l-1.2,1.2c-1,1-1.6,1.8-1.6,3.8H12v-0.7c0-1.5,0.6-2.8,1.6-3.8l1.7-1.7c0.5-0.5,0.8-1.1,0.8-1.9c0-1.5-1.2-2.7-2.7-2.7
		s-2.7,1.2-2.7,2.7H8C8,6.4,10.4,4,13.3,4s5.3,2.4,5.3,5.3C18.7,10.5,18.2,11.6,17.4,12.3z"/>
</g>
</svg>
