<?xml version="1.0" encoding="utf-8"?>
<!-- Generator: Adobe Illustrator 22.1.0, SVG Export Plug-In . SVG Version: 6.00 Build 0)  -->
<svg version="1.1" id="Layer_1" xmlns="http://www.w3.org/2000/svg" xmlns:xlink="http://www.w3.org/1999/xlink" x="0px" y="0px"
	 viewBox="0 0 82 82" style="enable-background:new 0 0 82 82;" xml:space="preserve">
<style type="text/css">
	.st0{fill:none;stroke:#FFFFFF;stroke-linecap:round;stroke-linejoin:round;stroke-miterlimit:10;}
</style>
<g>
	<g>
		<path class="st0" d="M57.7,55.8c0.7,0.7,0.5,1.8-0.3,2.2c-4.1,2.2-9.9,3.5-16.3,3.5c-6.4,0-12.3-1.4-16.3-3.6
			c-0.8-0.4-1-1.5-0.3-2.2l0,0c0.4-0.4,1.1-0.5,1.6-0.3c3.6,1.9,9,3,15.1,3c6.1,0,11.5-1.2,15.1-3C56.6,55.3,57.2,55.4,57.7,55.8
			L57.7,55.8z"/>
		<path class="st0" d="M50.4,43.3H30.1c-1.1,0-2.1,0.9-2.1,2.1v0c0,1.1,0.9,2.1,2.1,2.1h20.4"/>
		<path class="st0" d="M29.8,56.9c1.1-3.1,1.9-5.6,2.2-9.5"/>
		<line class="st0" x1="51.3" y1="34.5" x2="29.8" y2="34.5"/>
		<path class="st0" d="M46.9,43.3c0.1-8.9,2.5-16.9,6.2-22.2c0.5-0.8,1.6-0.9,2.4-0.3l0,0c0.7,0.5,0.9,1.6,0.4,2.3
			c-3.3,4.7-5.4,12.1-5.4,20.5c0,5.4,0.9,9.2,2.4,13.3"/>
		<line class="st0" x1="32.2" y1="43.3" x2="32.2" y2="34.5"/>
		<line class="st0" x1="37.5" y1="43.3" x2="37.5" y2="34.5"/>
		<line class="st0" x1="42.8" y1="43.3" x2="42.8" y2="34.5"/>
	</g>
</g>
</svg>
