<?xml version="1.0" encoding="utf-8"?>
<!-- Generator: Adobe Illustrator 22.1.0, SVG Export Plug-In . SVG Version: 6.00 Build 0)  -->
<svg version="1.1" id="Layer_1" xmlns="http://www.w3.org/2000/svg" xmlns:xlink="http://www.w3.org/1999/xlink" x="0px" y="0px"
	 viewBox="0 0 82 82" style="enable-background:new 0 0 82 82;" xml:space="preserve">
<style type="text/css">
	.st0{fill:#FFFFFF;}
</style>
<g>
	<g>
		<g>
			<path class="st0" d="M41,1c22.1,0,40,17.9,40,40v0c0,22.1-17.9,40-40,40h0C18.9,81,1,63.1,1,41v0C1,18.9,18.9,1,41,1L41,1 M41,0
				C18.4,0,0,18.4,0,41c0,22.6,18.4,41,41,41c22.6,0,41-18.4,41-41C82,18.4,63.6,0,41,0L41,0z"/>
		</g>
	</g>
	<g>
		<path class="st0" d="M57.9,24.6l0.9,1.3c-3.6,2.7-7.6,6.9-12,12.5C42.3,44,39,49.3,36.6,54.2l-1.9,1.3c-1.6,1.1-2.6,1.9-3.2,2.4
			c-0.2-0.8-0.7-2.1-1.4-3.9l-0.7-1.6c-1-2.4-2-4.1-2.8-5.2c-0.9-1.1-1.8-1.9-2.9-2.3c1.8-1.9,3.5-2.9,5-2.9c1.3,0,2.7,1.8,4.3,5.3
			l0.8,1.8c2.9-4.8,6.5-9.5,11-14C49.3,30.5,53.6,27,57.9,24.6z"/>
	</g>
</g>
</svg>
