<svg id="Layer_1" data-name="Layer 1" xmlns="http://www.w3.org/2000/svg" viewBox="0 0 95.08 43.22"><defs><style>.cls-1{fill:#00008f;}.cls-2{fill:#ff101c;}.cls-3{fill:#fff;}.cls-4{fill:#00a8e9;}</style></defs><title>logo_ktaxa-blue</title><g id="AXA_square" data-name="AXA square"><rect id="base" class="cls-1" x="51.86" width="43.22" height="43.22"/><polygon id="switch" class="cls-2" points="78.64 21.34 95.08 0 92.65 0 76.16 21.34 78.64 21.34"/><path id="axa" class="cls-3" d="M720.8,392.61c.76,2.11,2.31,7.59,2.93,8h-4.08a6.52,6.52,0,0,0-.19-1.44c-.17-.62-1.65-5.37-1.65-5.37h-6.47l-1,1.45s1.22,3.82,1.3,4,.71,1.35.71,1.35h-3.9s-.1-.58-.14-.83-.37-1.27-.37-1.27a12.42,12.42,0,0,0-1.13,1.42c-.24.45-.35.68-.35.68h-3.05s-.1-.58-.14-.83-.41-1.36-.41-1.36a15.13,15.13,0,0,0-1.09,1.49,6.92,6.92,0,0,0-.35.7h-3s.85-.81,1.15-1.16c.5-.59,2.38-3,2.38-3l-.75-2.61h-6.43s-3.66,4.82-3.8,5a13.19,13.19,0,0,0-1.24,1.84h-1.91v-1.21l.08-.07c.06-.05,2.77-3.42,5.27-6.75,2.24-2.9,4.35-5.72,4.53-6a19,19,0,0,0,1.1-2.05h3.32a14,14,0,0,0,.2,1.6c.08.28,2.11,6.92,2.15,7l1.12-1.43-1.91-5.89a10.86,10.86,0,0,0-.59-1.27h3.88a3.48,3.48,0,0,0,.12,1.05c.16.49,1,3.49,1,3.49s2.65-3.32,2.8-3.56a2.14,2.14,0,0,0,.33-1h3.23a10.1,10.1,0,0,0-1.63,1.74L709,391.09s.3,1,.44,1.52l.07.26.21-.26c.88-1.11,4.88-6.37,5.13-6.82a10.62,10.62,0,0,0,.65-1.22h3.15a7.62,7.62,0,0,0,.17,1.2Zm-4.79-5a43.17,43.17,0,0,1-3.19,4.31h4.31s-.83-2.57-1-3.15a4.86,4.86,0,0,1-.08-1.13C716.07,387.62,716.06,387.53,716,387.64Zm-16.59,0a41.64,41.64,0,0,1-3.19,4.31h4.32s-.84-2.57-1-3.15a4.51,4.51,0,0,1-.09-1.13C699.48,387.62,699.47,387.53,699.42,387.64Zm6.5,10.06,1.19-1.63c-.11-.12-.78-2.15-.78-2.15l-1.15,1.49Z" transform="translate(-635.92 -361.75)"/></g><g id="Krungthai_square" data-name="Krungthai square"><rect class="cls-4" width="43.22" height="43.22"/><rect class="cls-3" x="36.44" y="33.42" width="1.11" height="0.97"/><rect class="cls-3" x="36.48" y="34.93" width="1.08" height="3.96"/><path class="cls-3" d="M670.1,396.68h-1.32v.82H670c.57,0,.62.2.62.57v.07h-.84c-.92,0-1.38.41-1.38,1.24a1.14,1.14,0,0,0,1.2,1.3,1.44,1.44,0,0,0,1.06-.5v.46h1v-2.57C671.72,397,671.3,396.68,670.1,396.68Zm.54,2.74a.86.86,0,0,1-.73.46.44.44,0,0,1-.5-.47c0-.27.13-.49.59-.49h.64Z" transform="translate(-635.92 -361.75)"/><path class="cls-3" d="M664.36,400.64h1.08V397.9a.87.87,0,0,1,.76-.46.53.53,0,0,1,.58.59v2.61h1.07v-2.56c0-1-.47-1.45-1.24-1.45a1.45,1.45,0,0,0-1.17.51v-2h-1.08Z" transform="translate(-635.92 -361.75)"/><path class="cls-3" d="M662.85,400.64h.92v-.82h-.66c-.29,0-.39-.13-.39-.52v-1.84h1v-.78h-1v-1.51h-1.09v4.05C661.63,400.22,662,400.64,662.85,400.64Z" transform="translate(-635.92 -361.75)"/><path class="cls-3" d="M659.91,396.68V397a1.46,1.46,0,0,0-1-.34c-.91,0-1.54.67-1.54,2s.56,2,1.52,2a1.35,1.35,0,0,0,1-.33v.25c0,.61-.21.82-.85.82h-1.15v.82h1.29c1.26,0,1.79-.4,1.79-1.64v-3.88Zm0,2.87a1.21,1.21,0,0,1-.68.27c-.39,0-.73-.28-.73-1.18s.31-1.19.75-1.19a1,1,0,0,1,.66.26Z" transform="translate(-635.92 -361.75)"/><path class="cls-3" d="M653.33,400.64h1.07V397.9a.87.87,0,0,1,.76-.46.53.53,0,0,1,.58.59v2.61h1.07v-2.56c0-1-.47-1.45-1.24-1.45a1.54,1.54,0,0,0-1.2.51v-.46h-1Z" transform="translate(-635.92 -361.75)"/><path class="cls-3" d="M652.61,396.68h-1.08v2.74a.87.87,0,0,1-.76.46.54.54,0,0,1-.58-.59v-2.61h-1.07v2.56c0,1,.47,1.45,1.25,1.45a1.49,1.49,0,0,0,1.19-.51v.46h1.05Z" transform="translate(-635.92 -361.75)"/><path class="cls-3" d="M646.2,400.64h1.08v-2.47a1.33,1.33,0,0,1,1.14-.48h.3v-1.06h-.26a1.34,1.34,0,0,0-1.21.71v-.66h-1Z" transform="translate(-635.92 -361.75)"/><polygon class="cls-3" points="8.67 38.9 9.97 38.9 8.16 36.04 9.74 33.42 8.49 33.42 6.98 36.07 8.67 38.9"/><rect class="cls-3" x="5.66" y="33.42" width="1.15" height="5.48"/><path class="cls-3" d="M669.17,372.63a.47.47,0,0,0,.16-.37c0-1.17-4.08-4.14-6.42-4.14-1.95,0-1.08,3.21-3.13,3.21-1,0-1.58-.53-1.58-1.71a2.3,2.3,0,0,1,2.21-2.48c1,0,1.42.26,1.42.56a.8.8,0,0,0,.39-.65c0-.49-.59-.95-1.76-.95a2.48,2.48,0,0,0-2.1-1,4.05,4.05,0,0,0-2,.63,1.62,1.62,0,0,1-.67.14,1.35,1.35,0,0,1-.63-.08.35.35,0,0,0,.29-.35.37.37,0,0,0-.38-.34.4.4,0,0,0-.41.4c0,.48.47.74,1,.79l-.28.25-.23,0c-.64,0-1.32-.26-1.46-.78l.12,0a.33.33,0,0,0,.33-.37c0-.21-.17-.33-.4-.33a.45.45,0,0,0-.45.5,1.62,1.62,0,0,0,1.57,1.47,8.61,8.61,0,0,0-1.7,3.06,1.14,1.14,0,0,1-.28,0c-.56,0-.72-.41-.72-1.06,0-.85-.23-1.24-1.18-1.24-2.3,0-5.34,3.07-5.34,4.31a.56.56,0,0,0,.24.43,6,6,0,0,0-1.61,4.53c0,2.12.6,4.2,1.25,4.2a.39.39,0,0,0,.29-.12c.43,2.11,3,5,3,7.7a.57.57,0,0,1-.59.65,1.31,1.31,0,0,1-.92-.52,1.19,1.19,0,0,0,1.18,1c.76,0,1.08-.61,1.08-1.36,0-2.31-1.2-4.39-1.94-5.88,1.14-.07,1.45-1.93,1.45-3.93a6.6,6.6,0,0,0,4.37-1.7,6.14,6.14,0,0,0,1.16,1.64,2.41,2.41,0,0,1-1.42,1.8,2.56,2.56,0,0,0-1.54-.46c-.72,0-1.41.26-1.41.94a.7.7,0,0,0,.73.75c.2,0,.25-.07.25-.07a.36.36,0,0,1-.08-.58,2.26,2.26,0,0,0,1.16.26,3.84,3.84,0,0,0,1.28-.26.35.35,0,0,1,0,.16.37.37,0,0,1-.23.33.83.83,0,0,0,.27,0,.52.52,0,0,0,.55-.52A.37.37,0,0,0,654,381a4.45,4.45,0,0,0,1.55-1.25,7.34,7.34,0,0,0,1.46.72,3.24,3.24,0,0,1-1.47,2.25,2.51,2.51,0,0,0-1.53-.45c-.72,0-1.41.26-1.41.94a.7.7,0,0,0,.73.74c.2,0,.25-.06.25-.06a.39.39,0,0,1-.19-.33.3.3,0,0,1,.12-.25,2.09,2.09,0,0,0,1.17.29,3.36,3.36,0,0,0,1.28-.26.45.45,0,0,1,0,.13.36.36,0,0,1-.22.32.74.74,0,0,0,.26,0,.52.52,0,0,0,.55-.52.36.36,0,0,0-.07-.24,4,4,0,0,0,1.71-2.28,8.42,8.42,0,0,0,1.52.14,2.16,2.16,0,0,1,1.1,2c0,1.52-.85,2.14-1.74,2.17a2.26,2.26,0,0,1-1.7-.74,2.06,2.06,0,0,0,.16,1.07,1.85,1.85,0,0,0,.21.33,2.6,2.6,0,0,1-1.78-.92c0,1.65,1.49,2.7,3.31,2.79a6.48,6.48,0,0,1-4.72,1.89,4.33,4.33,0,0,1-.8-.07,2.85,2.85,0,0,1-.7-1.91,2.67,2.67,0,0,1,2.13-2.7,3,3,0,0,0-3,3,3.12,3.12,0,0,0,.21,1.14,2.29,2.29,0,0,1-1.29-2.05,2.07,2.07,0,0,1,1.64-2.14,2.22,2.22,0,0,0-2.32,2.31,3.1,3.1,0,0,0,2.63,3,5.77,5.77,0,0,0,4.37,1.65,6,6,0,0,0,6.44-6.41,5.87,5.87,0,0,0,.82-3.1,4.62,4.62,0,0,0-1.36-3.71,8.8,8.8,0,0,0,2.62.42,8.92,8.92,0,0,0,.38,2.89l0,.07.11.24.06.11a.61.61,0,0,0,.07.1,1.84,1.84,0,0,0,.17.22l.08.07a.9.9,0,0,0,.56.23c-.73,1.49-1.94,3.57-1.94,5.88,0,.75.33,1.36,1.08,1.36a1.18,1.18,0,0,0,1.18-1,1.31,1.31,0,0,1-.92.52.57.57,0,0,1-.59-.65c0-2.67,2.56-5.59,3-7.7a.41.41,0,0,0,.29.12c.65,0,1.25-2.08,1.25-4.2A6,6,0,0,0,669.17,372.63Zm-9.81-6.9a.2.2,0,0,0,0,.11.19.19,0,0,0,.21.21.19.19,0,0,0,.2-.2.31.31,0,0,1,.13.16.45.45,0,0,1-.77-.28A.57.57,0,0,1,659.36,365.73Zm-1.89,25.12a5.71,5.71,0,0,1-2.59-.58,7.12,7.12,0,0,0,5.64-2.74,4.91,4.91,0,0,0,2.27-1A5.1,5.1,0,0,1,657.47,390.85Z" transform="translate(-635.92 -361.75)"/></g></svg>