<svg id="Layer_1" data-name="Layer 1" xmlns="http://www.w3.org/2000/svg" viewBox="0 0 26.73 34.15"><defs><style>.cls-1{fill:none;stroke:#00008f;stroke-linecap:round;stroke-linejoin:round;}</style></defs><title>ic_female</title><path class="cls-1" d="M685.77,374.77h-4.46a5.45,5.45,0,0,0-3.46,1.48v3.48c0,3.29,2,5.95,5.44,5.95s5.44-2.66,5.44-5.95v-6.45A5.16,5.16,0,0,1,685.77,374.77Z" transform="translate(-669.93 -366.33)"/><path class="cls-1" d="M674.88,373.91a7.07,7.07,0,0,1,7.06-7.08H683a7.11,7.11,0,0,1,6.21,3.47,2.33,2.33,0,0,1,2.47,2.48v8.89a3.94,3.94,0,0,0,2,3.47h0a4.35,4.35,0,0,1-3.17,2.34l-.79.13" transform="translate(-669.93 -366.33)"/><line class="cls-1" x1="9.9" y1="18.16" x2="9.9" y2="20.84"/><line class="cls-1" x1="16.83" y1="18.16" x2="16.83" y2="20.84"/><path class="cls-1" d="M686.76,387.21l4,.62a6.36,6.36,0,0,1,5.39,6.29v2.32a2,2,0,0,1-1.61,1.95l-5.27,1a31.71,31.71,0,0,1-12,0l-5.28-1a2,2,0,0,1-1.6-1.95v-2.32a6.36,6.36,0,0,1,5.39-6.29l4-.62" transform="translate(-669.93 -366.33)"/><path class="cls-1" d="M677.85,387.61l1.42,3a4.45,4.45,0,0,0,8,0l1.42-3" transform="translate(-669.93 -366.33)"/><line class="cls-1" x1="5.94" y1="30.19" x2="5.94" y2="32.74"/><line class="cls-1" x1="20.79" y1="30.19" x2="20.79" y2="32.74"/><path class="cls-1" d="M676.86,387.61l-.79-.13a4.35,4.35,0,0,1-3.17-2.34h0a3.94,3.94,0,0,0,2-3.47v-7.91" transform="translate(-669.93 -366.33)"/></svg>