<?xml version="1.0" encoding="utf-8"?>
<!-- Generator: Adobe Illustrator 22.1.0, SVG Export Plug-In . SVG Version: 6.00 Build 0)  -->
<svg version="1.1" id="Layer_1" xmlns="http://www.w3.org/2000/svg" xmlns:xlink="http://www.w3.org/1999/xlink" x="0px" y="0px"
	 viewBox="0 0 27.7 34.1" style="enable-background:new 0 0 27.7 34.1;" xml:space="preserve">
<style type="text/css">
	.st0{fill:none;stroke:#FFFFFF;stroke-linecap:round;stroke-linejoin:round;stroke-miterlimit:10;}
</style>
<path class="st0" d="M19.2,8.4c-1.4,0-2.8-1.1-3.4-2.5c-0.9,1.9-2,3.5-4.7,3.5H8.4v4c0,3.3,2,6,5.4,6s5.4-2.7,5.4-6v-5
	C19.3,8.4,19.2,8.4,19.2,8.4z"/>
<path class="st0" d="M19.3,13.9c0,0,2.5-1.5,2.5-5V6c0-1.1-0.9-2-2-2c-1.2-2.1-3.6-3.5-6.2-3.5H13c-3.9,0-7.1,3.2-7.1,7.1v1.2
	c0,1.9,1,4.1,2.5,5.1"/>
<path class="st0" d="M10.4,20.8l-4.3,0.7c-3.2,0.5-5.6,3.2-5.6,6.3v0.5v1.8c0,1,0.7,1.8,1.7,1.9l5.5,1c4.1,0.8,8.3,0.8,12.4,0l5.5-1
	c1-0.2,1.7-1,1.7-1.9v-1.8v-0.5c0-3.1-2.4-5.8-5.6-6.3l-4.3-0.7"/>
<line class="st0" x1="5.9" y1="30.2" x2="5.9" y2="32.7"/>
<line class="st0" x1="21.8" y1="30.2" x2="21.8" y2="32.7"/>
<path class="st0" d="M9.1,21l4,4.8c0.4,0.5,1.1,0.5,1.5,0l4-4.8"/>
</svg>
