<svg id="Layer_1" data-name="Layer 1" xmlns="http://www.w3.org/2000/svg" viewBox="0 0 27.72 34.15"><defs><style>.cls-1{fill:none;stroke:#00008f;stroke-linecap:round;stroke-linejoin:round;}</style></defs><title>ic_male</title><path class="cls-1" d="M689.17,375.34a3.94,3.94,0,0,1-3.37-2.48c-.89,1.94-2,3.48-4.7,3.48h-2.72v4c0,3.29,2,6,5.45,6s5.44-2.67,5.44-6v-5Z" transform="translate(-669.97 -366.91)"/><path class="cls-1" d="M689.27,380.8a5.85,5.85,0,0,0,2.47-5v-3a2,2,0,0,0-2-2,7.07,7.07,0,0,0-6.2-3.47H683a7.07,7.07,0,0,0-7.06,7.08v1.21a6.48,6.48,0,0,0,2.47,5.1" transform="translate(-669.97 -366.91)"/><line class="cls-1" x1="10.4" y1="18.16" x2="10.4" y2="20.79"/><line class="cls-1" x1="17.32" y1="18.16" x2="17.32" y2="20.79"/><path class="cls-1" d="M680.36,387.69l-4.3.71a6.44,6.44,0,0,0-5.59,6.3V397a2,2,0,0,0,1.66,2l5.48,1A33.73,33.73,0,0,0,690,400l5.48-1a2,2,0,0,0,1.66-2V394.7a6.44,6.44,0,0,0-5.59-6.3l-4.3-.71" transform="translate(-669.97 -366.91)"/><line class="cls-1" x1="5.94" y1="30.19" x2="5.94" y2="32.74"/><line class="cls-1" x1="21.77" y1="30.19" x2="21.77" y2="32.74"/><path class="cls-1" d="M679,387.91l4.05,4.82a1,1,0,0,0,1.51,0l4-4.82" transform="translate(-669.97 -366.91)"/></svg>